G04 #@! TF.GenerationSoftware,KiCad,Pcbnew,(5.1.2)-1*
G04 #@! TF.CreationDate,2019-10-14T15:12:44+02:00*
G04 #@! TF.ProjectId,nk-fido2,6e6b2d66-6964-46f3-922e-6b696361645f,R4*
G04 #@! TF.SameCoordinates,Original*
G04 #@! TF.FileFunction,Copper,L2,Bot*
G04 #@! TF.FilePolarity,Positive*
%FSLAX46Y46*%
G04 Gerber Fmt 4.6, Leading zero omitted, Abs format (unit mm)*
G04 Created by KiCad (PCBNEW (5.1.2)-1) date 2019-10-14 15:12:44*
%MOMM*%
%LPD*%
G04 APERTURE LIST*
%ADD10R,1.998980X1.198880*%
%ADD11O,3.500120X1.501140*%
%ADD12R,0.800000X1.000000*%
%ADD13C,0.500000*%
%ADD14C,6.000000*%
%ADD15C,0.150000*%
%ADD16C,1.000000*%
%ADD17C,0.500000*%
%ADD18C,0.300000*%
%ADD19C,0.200000*%
%ADD20C,0.254000*%
%ADD21C,0.250000*%
G04 APERTURE END LIST*
D10*
X131599020Y-95512370D03*
X131599020Y-102512610D03*
X131599020Y-97996490D03*
X131599020Y-100013250D03*
D11*
X133999600Y-104712250D03*
X133999600Y-93312730D03*
D12*
X126879200Y-91860000D03*
X126879200Y-93360000D03*
X125779200Y-93360000D03*
X125779200Y-91860000D03*
D13*
X115829200Y-92000000D03*
X133479200Y-106350000D03*
D14*
X120029200Y-101385000D03*
D13*
X131629200Y-96900000D03*
X129669200Y-99145000D03*
X131629200Y-101050000D03*
X127710867Y-99088433D03*
X128029200Y-105835000D03*
X123629200Y-97235000D03*
X125602070Y-102307870D03*
X130279206Y-103985000D03*
X129516700Y-97885034D03*
X122029200Y-106485000D03*
X132929200Y-101700000D03*
X133029200Y-96150000D03*
X127579200Y-101785000D03*
X129829192Y-100284992D03*
X125679200Y-99985000D03*
X124629200Y-91324562D03*
X123629240Y-93799998D03*
X128139200Y-92215000D03*
X124626969Y-91984441D03*
X124629199Y-93160001D03*
X123634752Y-93018344D03*
X123629206Y-94500000D03*
X123629200Y-95934998D03*
X127659200Y-94975000D03*
X127659200Y-96125000D03*
X126499200Y-96125000D03*
X126499200Y-94975000D03*
X129529200Y-93150000D03*
X130829200Y-93350000D03*
X134879200Y-96185000D03*
X128809348Y-101785000D03*
X128204210Y-104485000D03*
X130020214Y-103354731D03*
X132629200Y-94485000D03*
X124515083Y-98099117D03*
D15*
X131629200Y-97966310D02*
X131599020Y-97996490D01*
X131629200Y-96900000D02*
X131629200Y-97966310D01*
X130449530Y-97996490D02*
X131599020Y-97996490D01*
X130039200Y-98406820D02*
X130449530Y-97996490D01*
X129669200Y-99145000D02*
X130039200Y-98775000D01*
X130039200Y-98775000D02*
X130039200Y-98406820D01*
X131629200Y-100043430D02*
X131599020Y-100013250D01*
X131629200Y-101050000D02*
X131629200Y-100043430D01*
X127960866Y-99338432D02*
X127710867Y-99088433D01*
X128279200Y-99656766D02*
X127960866Y-99338432D01*
X128407434Y-99785000D02*
X128279200Y-99656766D01*
X131198970Y-100013250D02*
X131599020Y-100013250D01*
X130417220Y-100795000D02*
X131198970Y-100013250D01*
X128279200Y-99656766D02*
X129417434Y-100795000D01*
X129417434Y-100795000D02*
X130417220Y-100795000D01*
X127729200Y-105535000D02*
X128029200Y-105835000D01*
X127729200Y-104885000D02*
X127729200Y-105535000D01*
X127729200Y-105035000D02*
X127729200Y-104885000D01*
X127729200Y-102435000D02*
X128079200Y-102085000D01*
X127729200Y-104885000D02*
X127729200Y-102435000D01*
X128079200Y-102085000D02*
X128079200Y-101585000D01*
X128079200Y-101585000D02*
X125829200Y-99335000D01*
X125729200Y-99335000D02*
X125029200Y-99335000D01*
X125729200Y-99335000D02*
X125079200Y-99335000D01*
X125829200Y-99335000D02*
X125729200Y-99335000D01*
X123629200Y-97935000D02*
X123629200Y-97235000D01*
X125029200Y-99335000D02*
X123629200Y-97935000D01*
X128876734Y-98525000D02*
X129516700Y-97885034D01*
X130224074Y-103985000D02*
X129870521Y-103985000D01*
X127559200Y-98525000D02*
X128876734Y-98525000D01*
X129479200Y-103593679D02*
X129479200Y-101559768D01*
X129870521Y-103985000D02*
X129479200Y-103593679D01*
X129479200Y-101559768D02*
X127235866Y-99316434D01*
X127235866Y-99316434D02*
X127235866Y-98848334D01*
X127235866Y-98848334D02*
X127559200Y-98525000D01*
X134316950Y-104712250D02*
X133999600Y-104712250D01*
X133999600Y-93312730D02*
X134441930Y-93312730D01*
D16*
X134916950Y-104712250D02*
X134316950Y-104712250D01*
X135779200Y-103850000D02*
X134916950Y-104712250D01*
X135779200Y-94200000D02*
X135779200Y-103850000D01*
X134441930Y-93312730D02*
X134891930Y-93312730D01*
X134891930Y-93312730D02*
X135779200Y-94200000D01*
D17*
X132116590Y-102512610D02*
X132929200Y-101700000D01*
D15*
X131599020Y-102512610D02*
X132116590Y-102512610D01*
D18*
X122379200Y-106485000D02*
X122079200Y-106485000D01*
X122679200Y-106485000D02*
X129229200Y-106485000D01*
X122679200Y-106485000D02*
X122379200Y-106485000D01*
X131599020Y-104265180D02*
X131599020Y-102512610D01*
X131599020Y-104415180D02*
X131599020Y-104265180D01*
X129229200Y-106485000D02*
X129529200Y-106485000D01*
X129529200Y-106485000D02*
X131599020Y-104415180D01*
D19*
X132979200Y-96150000D02*
X132979200Y-98735000D01*
D20*
X133029200Y-98685000D02*
X132879200Y-98835000D01*
X133029200Y-96150000D02*
X133029200Y-98685000D01*
D19*
X132979200Y-98735000D02*
X132879200Y-98835000D01*
D20*
X132879200Y-98835000D02*
X132729200Y-98985000D01*
D15*
X127479200Y-101785000D02*
X127579200Y-101785000D01*
D21*
X125779200Y-100035000D02*
X127490083Y-101745883D01*
X129829200Y-100285000D02*
X129829192Y-100284992D01*
X130079191Y-100034993D02*
X129829192Y-100284992D01*
X130279200Y-99834984D02*
X130079191Y-100034993D01*
X130279200Y-99295000D02*
X130279200Y-99834984D01*
X132729200Y-98985000D02*
X130589200Y-98985000D01*
X130589200Y-98985000D02*
X130279200Y-99295000D01*
D15*
X125779200Y-91785000D02*
X125779200Y-91860000D01*
D18*
X125729200Y-91785000D02*
X125779200Y-91785000D01*
X124629200Y-91324562D02*
X125268762Y-91324562D01*
X125268762Y-91324562D02*
X125729200Y-91785000D01*
D15*
X128139200Y-92568553D02*
X128139200Y-92215000D01*
X128139200Y-93829281D02*
X128139200Y-92568553D01*
X127508471Y-94460011D02*
X128139200Y-93829281D01*
X124904211Y-94460011D02*
X127508471Y-94460011D01*
X123629240Y-93799998D02*
X124244198Y-93799998D01*
X124244198Y-93799998D02*
X124904211Y-94460011D01*
X124876968Y-92234440D02*
X124626969Y-91984441D01*
X125252528Y-92610000D02*
X124876968Y-92234440D01*
X126279200Y-92610000D02*
X125252528Y-92610000D01*
X126879200Y-93360000D02*
X126879200Y-93210000D01*
X126879200Y-93210000D02*
X126279200Y-92610000D01*
X126879200Y-91960000D02*
X126879200Y-91860000D01*
X124629199Y-93559999D02*
X125229200Y-94160000D01*
X124629199Y-93160001D02*
X124629199Y-93559999D01*
X125229200Y-94160000D02*
X127384203Y-94160000D01*
X127384203Y-94160000D02*
X127654200Y-93890003D01*
X127654200Y-93890003D02*
X127654200Y-92735000D01*
X127654200Y-92735000D02*
X126879200Y-91960000D01*
X123634752Y-93018344D02*
X123884751Y-92768345D01*
X125132200Y-92960000D02*
X125779200Y-92960000D01*
X124782200Y-92610000D02*
X125132200Y-92960000D01*
X123634752Y-93018344D02*
X124043096Y-92610000D01*
X124043096Y-92610000D02*
X124782200Y-92610000D01*
X123629206Y-94500000D02*
X123629206Y-95934992D01*
X123629206Y-95934992D02*
X123629200Y-95934998D01*
G36*
X130375470Y-91886518D02*
G01*
X130374142Y-91900000D01*
X130379443Y-91953817D01*
X130395140Y-92005566D01*
X130406851Y-92027476D01*
X130420632Y-92053258D01*
X130454939Y-92095061D01*
X130496742Y-92129368D01*
X130544434Y-92154860D01*
X130596183Y-92170557D01*
X130650000Y-92175858D01*
X130663482Y-92174530D01*
X131336518Y-92174530D01*
X131350000Y-92175858D01*
X131363482Y-92174530D01*
X131403817Y-92170557D01*
X131455566Y-92154860D01*
X131503258Y-92129368D01*
X131545061Y-92095061D01*
X131579368Y-92053258D01*
X131604860Y-92005566D01*
X131620557Y-91953817D01*
X131625858Y-91900000D01*
X131624530Y-91886518D01*
X131624530Y-91149530D01*
X136225071Y-91149530D01*
X136225071Y-93620566D01*
X135973808Y-93369303D01*
X135979380Y-93312730D01*
X135960544Y-93121485D01*
X135904760Y-92937589D01*
X135814171Y-92768110D01*
X135692260Y-92619560D01*
X135543710Y-92497649D01*
X135374231Y-92407060D01*
X135190335Y-92351276D01*
X135047013Y-92337160D01*
X132952187Y-92337160D01*
X132808865Y-92351276D01*
X132624969Y-92407060D01*
X132455490Y-92497649D01*
X132306940Y-92619560D01*
X132185029Y-92768110D01*
X132094440Y-92937589D01*
X132038656Y-93121485D01*
X132019820Y-93312730D01*
X132038656Y-93503975D01*
X132094440Y-93687871D01*
X132185029Y-93857350D01*
X132306940Y-94005900D01*
X132455490Y-94127811D01*
X132624969Y-94218400D01*
X132808865Y-94274184D01*
X132952187Y-94288300D01*
X134842195Y-94288300D01*
X135054200Y-94500305D01*
X135054201Y-103549694D01*
X134867215Y-103736680D01*
X132952187Y-103736680D01*
X132808865Y-103750796D01*
X132624969Y-103806580D01*
X132455490Y-103897169D01*
X132306940Y-104019080D01*
X132185029Y-104167630D01*
X132094440Y-104337109D01*
X132038656Y-104521005D01*
X132019820Y-104712250D01*
X132038656Y-104903495D01*
X132094440Y-105087391D01*
X132185029Y-105256870D01*
X132306940Y-105405420D01*
X132455490Y-105527331D01*
X132624969Y-105617920D01*
X132808865Y-105673704D01*
X132952187Y-105687820D01*
X135047013Y-105687820D01*
X135190335Y-105673704D01*
X135374231Y-105617920D01*
X135543710Y-105527331D01*
X135692260Y-105405420D01*
X135814171Y-105256870D01*
X135904760Y-105087391D01*
X135960544Y-104903495D01*
X135979380Y-104712250D01*
X135976051Y-104678453D01*
X136225070Y-104429435D01*
X136225070Y-106875470D01*
X133713150Y-106875470D01*
X133751565Y-106859558D01*
X133845741Y-106796632D01*
X133925832Y-106716541D01*
X133988758Y-106622365D01*
X134032103Y-106517721D01*
X134054200Y-106406633D01*
X134054200Y-106293367D01*
X134032103Y-106182279D01*
X133988758Y-106077635D01*
X133925832Y-105983459D01*
X133845741Y-105903368D01*
X133751565Y-105840442D01*
X133646921Y-105797097D01*
X133535833Y-105775000D01*
X133422567Y-105775000D01*
X133311479Y-105797097D01*
X133206835Y-105840442D01*
X133112659Y-105903368D01*
X133032568Y-105983459D01*
X132969642Y-106077635D01*
X132926297Y-106182279D01*
X132904200Y-106293367D01*
X132904200Y-106406633D01*
X132926297Y-106517721D01*
X132969642Y-106622365D01*
X133032568Y-106716541D01*
X133112659Y-106796632D01*
X133206835Y-106859558D01*
X133245250Y-106875470D01*
X131624530Y-106875470D01*
X131624530Y-106113482D01*
X131625858Y-106100000D01*
X131620557Y-106046183D01*
X131604860Y-105994434D01*
X131579368Y-105946742D01*
X131545061Y-105904939D01*
X131503258Y-105870632D01*
X131455566Y-105845140D01*
X131403817Y-105829443D01*
X131363482Y-105825470D01*
X131350000Y-105824142D01*
X131336518Y-105825470D01*
X130719059Y-105825470D01*
X131851160Y-104693370D01*
X131865468Y-104681628D01*
X131888601Y-104653440D01*
X131912330Y-104624527D01*
X131941407Y-104570126D01*
X131947151Y-104559380D01*
X131968594Y-104488693D01*
X131974020Y-104433599D01*
X131974020Y-104433596D01*
X131975834Y-104415180D01*
X131974020Y-104396764D01*
X131974020Y-103338138D01*
X132598510Y-103338138D01*
X132642618Y-103333794D01*
X132685030Y-103320928D01*
X132724118Y-103300035D01*
X132758378Y-103271918D01*
X132786495Y-103237658D01*
X132807388Y-103198570D01*
X132820254Y-103156158D01*
X132824598Y-103112050D01*
X132824598Y-102476352D01*
X133281573Y-102019378D01*
X133298156Y-102002795D01*
X133311185Y-101983296D01*
X133326058Y-101965173D01*
X133337110Y-101944496D01*
X133350139Y-101924997D01*
X133359114Y-101903331D01*
X133370165Y-101882655D01*
X133376971Y-101860219D01*
X133385946Y-101838552D01*
X133390521Y-101815554D01*
X133397327Y-101793117D01*
X133399625Y-101769781D01*
X133401440Y-101760658D01*
X133505624Y-101864842D01*
X133632543Y-101949646D01*
X133773567Y-102008060D01*
X133923278Y-102037840D01*
X134075922Y-102037840D01*
X134225633Y-102008060D01*
X134366657Y-101949646D01*
X134493576Y-101864842D01*
X134601512Y-101756906D01*
X134686316Y-101629987D01*
X134744730Y-101488963D01*
X134774510Y-101339252D01*
X134774510Y-101186608D01*
X134744730Y-101036897D01*
X134686316Y-100895873D01*
X134601512Y-100768954D01*
X134493576Y-100661018D01*
X134366657Y-100576214D01*
X134225633Y-100517800D01*
X134075922Y-100488020D01*
X133923278Y-100488020D01*
X133773567Y-100517800D01*
X133632543Y-100576214D01*
X133505624Y-100661018D01*
X133397688Y-100768954D01*
X133312884Y-100895873D01*
X133254470Y-101036897D01*
X133224690Y-101186608D01*
X133224690Y-101326163D01*
X133212491Y-101318012D01*
X133194372Y-101303142D01*
X133173700Y-101292093D01*
X133154197Y-101279061D01*
X133132526Y-101270085D01*
X133111854Y-101259035D01*
X133089422Y-101252230D01*
X133067752Y-101243254D01*
X133044751Y-101238679D01*
X133022316Y-101231873D01*
X132998983Y-101229575D01*
X132975983Y-101225000D01*
X132952532Y-101225000D01*
X132929199Y-101222702D01*
X132905867Y-101225000D01*
X132882417Y-101225000D01*
X132859419Y-101229575D01*
X132836083Y-101231873D01*
X132813646Y-101238679D01*
X132790648Y-101243254D01*
X132768981Y-101252229D01*
X132746545Y-101259035D01*
X132725869Y-101270086D01*
X132704203Y-101279061D01*
X132684704Y-101292090D01*
X132664027Y-101303142D01*
X132645904Y-101318015D01*
X132626405Y-101331044D01*
X132270367Y-101687082D01*
X130599530Y-101687082D01*
X130555422Y-101691426D01*
X130513010Y-101704292D01*
X130473922Y-101725185D01*
X130439662Y-101753302D01*
X130411545Y-101787562D01*
X130390652Y-101826650D01*
X130377786Y-101869062D01*
X130373442Y-101913170D01*
X130373442Y-103112050D01*
X130377786Y-103156158D01*
X130390652Y-103198570D01*
X130411545Y-103237658D01*
X130439662Y-103271918D01*
X130473922Y-103300035D01*
X130513010Y-103320928D01*
X130555422Y-103333794D01*
X130599530Y-103338138D01*
X131224021Y-103338138D01*
X131224020Y-104246761D01*
X131224020Y-104259850D01*
X129373871Y-106110000D01*
X128416728Y-106110000D01*
X128450139Y-106059997D01*
X128485946Y-105973552D01*
X128504200Y-105881783D01*
X128504200Y-105788217D01*
X128485946Y-105696448D01*
X128450139Y-105610003D01*
X128398156Y-105532205D01*
X128331995Y-105466044D01*
X128254197Y-105414061D01*
X128167752Y-105378254D01*
X128075983Y-105360000D01*
X128029200Y-105360000D01*
X128029200Y-102559264D01*
X128280922Y-102307543D01*
X128292358Y-102298158D01*
X128301744Y-102286721D01*
X128301750Y-102286715D01*
X128329847Y-102252478D01*
X128357704Y-102200361D01*
X128365397Y-102175000D01*
X128374859Y-102143810D01*
X128379200Y-102099733D01*
X128379200Y-102099730D01*
X128380651Y-102085000D01*
X128379200Y-102070270D01*
X128379200Y-101599730D01*
X128380651Y-101585000D01*
X128378189Y-101560003D01*
X128374859Y-101526190D01*
X128357704Y-101469640D01*
X128329847Y-101417522D01*
X128301750Y-101383286D01*
X128301749Y-101383285D01*
X128292358Y-101371842D01*
X128280915Y-101362451D01*
X126051753Y-99133290D01*
X126042358Y-99121842D01*
X125996677Y-99084353D01*
X125944560Y-99056496D01*
X125888010Y-99039341D01*
X125843933Y-99035000D01*
X125843923Y-99035000D01*
X125829200Y-99033550D01*
X125814477Y-99035000D01*
X125153464Y-99035000D01*
X124966798Y-98848334D01*
X126934416Y-98848334D01*
X126935867Y-98863066D01*
X126935866Y-99301711D01*
X126934416Y-99316434D01*
X126935866Y-99331157D01*
X126935866Y-99331166D01*
X126940207Y-99375243D01*
X126957362Y-99431793D01*
X126963677Y-99443608D01*
X126985219Y-99483911D01*
X127000456Y-99502477D01*
X127022708Y-99529592D01*
X127034156Y-99538987D01*
X129179201Y-101684033D01*
X129179200Y-103578956D01*
X129177750Y-103593679D01*
X129179200Y-103608402D01*
X129179200Y-103608411D01*
X129183541Y-103652488D01*
X129200696Y-103709038D01*
X129200697Y-103709039D01*
X129228553Y-103761156D01*
X129237323Y-103771842D01*
X129266042Y-103806837D01*
X129277490Y-103816232D01*
X129647972Y-104186715D01*
X129657363Y-104198158D01*
X129668806Y-104207549D01*
X129703043Y-104235647D01*
X129723837Y-104246761D01*
X129755161Y-104263504D01*
X129811711Y-104280659D01*
X129855788Y-104285000D01*
X129855800Y-104285000D01*
X129870520Y-104286450D01*
X129885240Y-104285000D01*
X129908382Y-104285000D01*
X129910250Y-104287795D01*
X129976411Y-104353956D01*
X130054209Y-104405939D01*
X130140654Y-104441746D01*
X130232423Y-104460000D01*
X130325989Y-104460000D01*
X130417758Y-104441746D01*
X130504203Y-104405939D01*
X130582001Y-104353956D01*
X130648162Y-104287795D01*
X130700145Y-104209997D01*
X130735952Y-104123552D01*
X130754206Y-104031783D01*
X130754206Y-103938217D01*
X130735952Y-103846448D01*
X130700145Y-103760003D01*
X130648162Y-103682205D01*
X130582001Y-103616044D01*
X130504203Y-103564061D01*
X130417758Y-103528254D01*
X130325989Y-103510000D01*
X130232423Y-103510000D01*
X130140654Y-103528254D01*
X130054209Y-103564061D01*
X129976411Y-103616044D01*
X129951120Y-103641335D01*
X129779200Y-103469416D01*
X129779200Y-101574490D01*
X129780650Y-101559767D01*
X129779200Y-101545044D01*
X129779200Y-101545035D01*
X129774859Y-101500958D01*
X129757704Y-101444408D01*
X129732474Y-101397205D01*
X129729847Y-101392290D01*
X129701749Y-101358053D01*
X129692358Y-101346610D01*
X129680915Y-101337219D01*
X129438696Y-101095000D01*
X130402497Y-101095000D01*
X130417220Y-101096450D01*
X130431943Y-101095000D01*
X130431953Y-101095000D01*
X130476030Y-101090659D01*
X130532580Y-101073504D01*
X130584697Y-101045647D01*
X130630378Y-101008158D01*
X130639773Y-100996710D01*
X130797705Y-100838778D01*
X131202555Y-100838778D01*
X131172454Y-100911448D01*
X131154200Y-101003217D01*
X131154200Y-101096783D01*
X131172454Y-101188552D01*
X131208261Y-101274997D01*
X131260244Y-101352795D01*
X131326405Y-101418956D01*
X131404203Y-101470939D01*
X131490648Y-101506746D01*
X131582417Y-101525000D01*
X131675983Y-101525000D01*
X131767752Y-101506746D01*
X131854197Y-101470939D01*
X131931995Y-101418956D01*
X131998156Y-101352795D01*
X132050139Y-101274997D01*
X132085946Y-101188552D01*
X132104200Y-101096783D01*
X132104200Y-101003217D01*
X132085946Y-100911448D01*
X132055845Y-100838778D01*
X132598510Y-100838778D01*
X132642618Y-100834434D01*
X132685030Y-100821568D01*
X132724118Y-100800675D01*
X132758378Y-100772558D01*
X132786495Y-100738298D01*
X132807388Y-100699210D01*
X132820254Y-100656798D01*
X132824598Y-100612690D01*
X132824598Y-99413810D01*
X132820254Y-99369702D01*
X132807896Y-99328966D01*
X132864556Y-99311778D01*
X132925707Y-99279093D01*
X132965874Y-99246128D01*
X133265867Y-98946135D01*
X133279306Y-98935106D01*
X133323293Y-98881507D01*
X133355979Y-98820356D01*
X133376107Y-98754004D01*
X133381200Y-98702292D01*
X133381200Y-98702290D01*
X133382903Y-98685001D01*
X133381200Y-98667712D01*
X133381200Y-97231350D01*
X133397688Y-97256026D01*
X133505624Y-97363962D01*
X133632543Y-97448766D01*
X133773567Y-97507180D01*
X133923278Y-97536960D01*
X134075922Y-97536960D01*
X134225633Y-97507180D01*
X134366657Y-97448766D01*
X134493576Y-97363962D01*
X134601512Y-97256026D01*
X134686316Y-97129107D01*
X134744730Y-96988083D01*
X134774510Y-96838372D01*
X134774510Y-96685728D01*
X134744730Y-96536017D01*
X134686316Y-96394993D01*
X134601512Y-96268074D01*
X134493576Y-96160138D01*
X134366657Y-96075334D01*
X134225633Y-96016920D01*
X134075922Y-95987140D01*
X133923278Y-95987140D01*
X133773567Y-96016920D01*
X133632543Y-96075334D01*
X133505624Y-96160138D01*
X133504200Y-96161562D01*
X133504200Y-96103217D01*
X133485946Y-96011448D01*
X133450139Y-95925003D01*
X133398156Y-95847205D01*
X133331995Y-95781044D01*
X133254197Y-95729061D01*
X133167752Y-95693254D01*
X133075983Y-95675000D01*
X132982417Y-95675000D01*
X132890648Y-95693254D01*
X132804203Y-95729061D01*
X132726405Y-95781044D01*
X132660244Y-95847205D01*
X132608261Y-95925003D01*
X132572454Y-96011448D01*
X132554200Y-96103217D01*
X132554200Y-96196783D01*
X132572454Y-96288552D01*
X132608261Y-96374997D01*
X132654200Y-96443750D01*
X132654200Y-97178820D01*
X132642618Y-97175306D01*
X132598510Y-97170962D01*
X132019426Y-97170962D01*
X132050139Y-97124997D01*
X132085946Y-97038552D01*
X132104200Y-96946783D01*
X132104200Y-96853217D01*
X132085946Y-96761448D01*
X132050139Y-96675003D01*
X131998156Y-96597205D01*
X131931995Y-96531044D01*
X131854197Y-96479061D01*
X131767752Y-96443254D01*
X131675983Y-96425000D01*
X131582417Y-96425000D01*
X131490648Y-96443254D01*
X131404203Y-96479061D01*
X131326405Y-96531044D01*
X131260244Y-96597205D01*
X131208261Y-96675003D01*
X131172454Y-96761448D01*
X131154200Y-96853217D01*
X131154200Y-96946783D01*
X131172454Y-97038552D01*
X131208261Y-97124997D01*
X131238974Y-97170962D01*
X130599530Y-97170962D01*
X130555422Y-97175306D01*
X130513010Y-97188172D01*
X130473922Y-97209065D01*
X130439662Y-97237182D01*
X130411545Y-97271442D01*
X130390652Y-97310530D01*
X130377786Y-97352942D01*
X130373442Y-97397050D01*
X130373442Y-97706072D01*
X130334170Y-97717986D01*
X130309909Y-97730954D01*
X130282052Y-97745843D01*
X130247815Y-97773941D01*
X130236372Y-97783332D01*
X130226981Y-97794775D01*
X129955963Y-98065794D01*
X129973446Y-98023586D01*
X129991700Y-97931817D01*
X129991700Y-97838251D01*
X129973446Y-97746482D01*
X129937639Y-97660037D01*
X129885656Y-97582239D01*
X129819495Y-97516078D01*
X129741697Y-97464095D01*
X129655252Y-97428288D01*
X129563483Y-97410034D01*
X129469917Y-97410034D01*
X129378148Y-97428288D01*
X129291703Y-97464095D01*
X129213905Y-97516078D01*
X129147744Y-97582239D01*
X129095761Y-97660037D01*
X129059954Y-97746482D01*
X129041700Y-97838251D01*
X129041700Y-97931817D01*
X129042356Y-97935114D01*
X128752471Y-98225000D01*
X127573922Y-98225000D01*
X127559199Y-98223550D01*
X127544476Y-98225000D01*
X127544467Y-98225000D01*
X127500390Y-98229341D01*
X127443840Y-98246496D01*
X127429820Y-98253990D01*
X127391722Y-98274353D01*
X127362982Y-98297940D01*
X127346042Y-98311842D01*
X127336651Y-98323285D01*
X127034151Y-98625786D01*
X127022709Y-98635176D01*
X127013318Y-98646619D01*
X127013317Y-98646620D01*
X126985219Y-98680857D01*
X126957363Y-98732974D01*
X126940208Y-98789524D01*
X126934416Y-98848334D01*
X124966798Y-98848334D01*
X123929200Y-97810737D01*
X123929200Y-97605824D01*
X123931995Y-97603956D01*
X123998156Y-97537795D01*
X124050139Y-97459997D01*
X124085946Y-97373552D01*
X124104200Y-97281783D01*
X124104200Y-97188217D01*
X124085946Y-97096448D01*
X124050139Y-97010003D01*
X123998156Y-96932205D01*
X123931995Y-96866044D01*
X123854197Y-96814061D01*
X123767752Y-96778254D01*
X123675983Y-96760000D01*
X123604200Y-96760000D01*
X123604200Y-96409998D01*
X123675983Y-96409998D01*
X123767752Y-96391744D01*
X123854197Y-96355937D01*
X123931995Y-96303954D01*
X123998156Y-96237793D01*
X124050139Y-96159995D01*
X124085946Y-96073550D01*
X124104200Y-95981781D01*
X124104200Y-95888215D01*
X124085946Y-95796446D01*
X124050139Y-95710001D01*
X123998156Y-95632203D01*
X123931995Y-95566042D01*
X123929206Y-95564178D01*
X123929206Y-94870824D01*
X123932001Y-94868956D01*
X123998162Y-94802795D01*
X124050145Y-94724997D01*
X124085952Y-94638552D01*
X124104206Y-94546783D01*
X124104206Y-94453217D01*
X124085952Y-94361448D01*
X124050145Y-94275003D01*
X123998162Y-94197205D01*
X123950973Y-94150016D01*
X123998196Y-94102793D01*
X124000064Y-94099998D01*
X124119935Y-94099998D01*
X124681662Y-94661726D01*
X124691053Y-94673169D01*
X124702496Y-94682560D01*
X124736733Y-94710658D01*
X124745104Y-94715132D01*
X124788851Y-94738515D01*
X124845401Y-94755670D01*
X124889478Y-94760011D01*
X124889487Y-94760011D01*
X124904210Y-94761461D01*
X124918933Y-94760011D01*
X127493748Y-94760011D01*
X127508471Y-94761461D01*
X127523194Y-94760011D01*
X127523204Y-94760011D01*
X127567281Y-94755670D01*
X127623831Y-94738515D01*
X127675948Y-94710658D01*
X127721629Y-94673169D01*
X127731024Y-94661721D01*
X128340917Y-94051828D01*
X128352358Y-94042439D01*
X128366674Y-94024995D01*
X128389847Y-93996759D01*
X128405499Y-93967475D01*
X128417704Y-93944641D01*
X128434859Y-93888091D01*
X128439200Y-93844014D01*
X128439200Y-93844004D01*
X128440650Y-93829281D01*
X128439200Y-93814558D01*
X128439200Y-92585824D01*
X128441995Y-92583956D01*
X128508156Y-92517795D01*
X128560139Y-92439997D01*
X128595946Y-92353552D01*
X128614200Y-92261783D01*
X128614200Y-92168217D01*
X128595946Y-92076448D01*
X128560139Y-91990003D01*
X128508156Y-91912205D01*
X128441995Y-91846044D01*
X128364197Y-91794061D01*
X128277752Y-91758254D01*
X128185983Y-91740000D01*
X128092417Y-91740000D01*
X128000648Y-91758254D01*
X127914203Y-91794061D01*
X127836405Y-91846044D01*
X127770244Y-91912205D01*
X127718261Y-91990003D01*
X127682454Y-92076448D01*
X127664200Y-92168217D01*
X127664200Y-92261783D01*
X127678838Y-92335375D01*
X127505288Y-92161824D01*
X127505288Y-91360000D01*
X127500944Y-91315892D01*
X127488078Y-91273480D01*
X127467185Y-91234392D01*
X127439068Y-91200132D01*
X127404808Y-91172015D01*
X127365720Y-91151122D01*
X127360472Y-91149530D01*
X130375471Y-91149530D01*
X130375470Y-91886518D01*
X130375470Y-91886518D01*
G37*
X130375470Y-91886518D02*
X130374142Y-91900000D01*
X130379443Y-91953817D01*
X130395140Y-92005566D01*
X130406851Y-92027476D01*
X130420632Y-92053258D01*
X130454939Y-92095061D01*
X130496742Y-92129368D01*
X130544434Y-92154860D01*
X130596183Y-92170557D01*
X130650000Y-92175858D01*
X130663482Y-92174530D01*
X131336518Y-92174530D01*
X131350000Y-92175858D01*
X131363482Y-92174530D01*
X131403817Y-92170557D01*
X131455566Y-92154860D01*
X131503258Y-92129368D01*
X131545061Y-92095061D01*
X131579368Y-92053258D01*
X131604860Y-92005566D01*
X131620557Y-91953817D01*
X131625858Y-91900000D01*
X131624530Y-91886518D01*
X131624530Y-91149530D01*
X136225071Y-91149530D01*
X136225071Y-93620566D01*
X135973808Y-93369303D01*
X135979380Y-93312730D01*
X135960544Y-93121485D01*
X135904760Y-92937589D01*
X135814171Y-92768110D01*
X135692260Y-92619560D01*
X135543710Y-92497649D01*
X135374231Y-92407060D01*
X135190335Y-92351276D01*
X135047013Y-92337160D01*
X132952187Y-92337160D01*
X132808865Y-92351276D01*
X132624969Y-92407060D01*
X132455490Y-92497649D01*
X132306940Y-92619560D01*
X132185029Y-92768110D01*
X132094440Y-92937589D01*
X132038656Y-93121485D01*
X132019820Y-93312730D01*
X132038656Y-93503975D01*
X132094440Y-93687871D01*
X132185029Y-93857350D01*
X132306940Y-94005900D01*
X132455490Y-94127811D01*
X132624969Y-94218400D01*
X132808865Y-94274184D01*
X132952187Y-94288300D01*
X134842195Y-94288300D01*
X135054200Y-94500305D01*
X135054201Y-103549694D01*
X134867215Y-103736680D01*
X132952187Y-103736680D01*
X132808865Y-103750796D01*
X132624969Y-103806580D01*
X132455490Y-103897169D01*
X132306940Y-104019080D01*
X132185029Y-104167630D01*
X132094440Y-104337109D01*
X132038656Y-104521005D01*
X132019820Y-104712250D01*
X132038656Y-104903495D01*
X132094440Y-105087391D01*
X132185029Y-105256870D01*
X132306940Y-105405420D01*
X132455490Y-105527331D01*
X132624969Y-105617920D01*
X132808865Y-105673704D01*
X132952187Y-105687820D01*
X135047013Y-105687820D01*
X135190335Y-105673704D01*
X135374231Y-105617920D01*
X135543710Y-105527331D01*
X135692260Y-105405420D01*
X135814171Y-105256870D01*
X135904760Y-105087391D01*
X135960544Y-104903495D01*
X135979380Y-104712250D01*
X135976051Y-104678453D01*
X136225070Y-104429435D01*
X136225070Y-106875470D01*
X133713150Y-106875470D01*
X133751565Y-106859558D01*
X133845741Y-106796632D01*
X133925832Y-106716541D01*
X133988758Y-106622365D01*
X134032103Y-106517721D01*
X134054200Y-106406633D01*
X134054200Y-106293367D01*
X134032103Y-106182279D01*
X133988758Y-106077635D01*
X133925832Y-105983459D01*
X133845741Y-105903368D01*
X133751565Y-105840442D01*
X133646921Y-105797097D01*
X133535833Y-105775000D01*
X133422567Y-105775000D01*
X133311479Y-105797097D01*
X133206835Y-105840442D01*
X133112659Y-105903368D01*
X133032568Y-105983459D01*
X132969642Y-106077635D01*
X132926297Y-106182279D01*
X132904200Y-106293367D01*
X132904200Y-106406633D01*
X132926297Y-106517721D01*
X132969642Y-106622365D01*
X133032568Y-106716541D01*
X133112659Y-106796632D01*
X133206835Y-106859558D01*
X133245250Y-106875470D01*
X131624530Y-106875470D01*
X131624530Y-106113482D01*
X131625858Y-106100000D01*
X131620557Y-106046183D01*
X131604860Y-105994434D01*
X131579368Y-105946742D01*
X131545061Y-105904939D01*
X131503258Y-105870632D01*
X131455566Y-105845140D01*
X131403817Y-105829443D01*
X131363482Y-105825470D01*
X131350000Y-105824142D01*
X131336518Y-105825470D01*
X130719059Y-105825470D01*
X131851160Y-104693370D01*
X131865468Y-104681628D01*
X131888601Y-104653440D01*
X131912330Y-104624527D01*
X131941407Y-104570126D01*
X131947151Y-104559380D01*
X131968594Y-104488693D01*
X131974020Y-104433599D01*
X131974020Y-104433596D01*
X131975834Y-104415180D01*
X131974020Y-104396764D01*
X131974020Y-103338138D01*
X132598510Y-103338138D01*
X132642618Y-103333794D01*
X132685030Y-103320928D01*
X132724118Y-103300035D01*
X132758378Y-103271918D01*
X132786495Y-103237658D01*
X132807388Y-103198570D01*
X132820254Y-103156158D01*
X132824598Y-103112050D01*
X132824598Y-102476352D01*
X133281573Y-102019378D01*
X133298156Y-102002795D01*
X133311185Y-101983296D01*
X133326058Y-101965173D01*
X133337110Y-101944496D01*
X133350139Y-101924997D01*
X133359114Y-101903331D01*
X133370165Y-101882655D01*
X133376971Y-101860219D01*
X133385946Y-101838552D01*
X133390521Y-101815554D01*
X133397327Y-101793117D01*
X133399625Y-101769781D01*
X133401440Y-101760658D01*
X133505624Y-101864842D01*
X133632543Y-101949646D01*
X133773567Y-102008060D01*
X133923278Y-102037840D01*
X134075922Y-102037840D01*
X134225633Y-102008060D01*
X134366657Y-101949646D01*
X134493576Y-101864842D01*
X134601512Y-101756906D01*
X134686316Y-101629987D01*
X134744730Y-101488963D01*
X134774510Y-101339252D01*
X134774510Y-101186608D01*
X134744730Y-101036897D01*
X134686316Y-100895873D01*
X134601512Y-100768954D01*
X134493576Y-100661018D01*
X134366657Y-100576214D01*
X134225633Y-100517800D01*
X134075922Y-100488020D01*
X133923278Y-100488020D01*
X133773567Y-100517800D01*
X133632543Y-100576214D01*
X133505624Y-100661018D01*
X133397688Y-100768954D01*
X133312884Y-100895873D01*
X133254470Y-101036897D01*
X133224690Y-101186608D01*
X133224690Y-101326163D01*
X133212491Y-101318012D01*
X133194372Y-101303142D01*
X133173700Y-101292093D01*
X133154197Y-101279061D01*
X133132526Y-101270085D01*
X133111854Y-101259035D01*
X133089422Y-101252230D01*
X133067752Y-101243254D01*
X133044751Y-101238679D01*
X133022316Y-101231873D01*
X132998983Y-101229575D01*
X132975983Y-101225000D01*
X132952532Y-101225000D01*
X132929199Y-101222702D01*
X132905867Y-101225000D01*
X132882417Y-101225000D01*
X132859419Y-101229575D01*
X132836083Y-101231873D01*
X132813646Y-101238679D01*
X132790648Y-101243254D01*
X132768981Y-101252229D01*
X132746545Y-101259035D01*
X132725869Y-101270086D01*
X132704203Y-101279061D01*
X132684704Y-101292090D01*
X132664027Y-101303142D01*
X132645904Y-101318015D01*
X132626405Y-101331044D01*
X132270367Y-101687082D01*
X130599530Y-101687082D01*
X130555422Y-101691426D01*
X130513010Y-101704292D01*
X130473922Y-101725185D01*
X130439662Y-101753302D01*
X130411545Y-101787562D01*
X130390652Y-101826650D01*
X130377786Y-101869062D01*
X130373442Y-101913170D01*
X130373442Y-103112050D01*
X130377786Y-103156158D01*
X130390652Y-103198570D01*
X130411545Y-103237658D01*
X130439662Y-103271918D01*
X130473922Y-103300035D01*
X130513010Y-103320928D01*
X130555422Y-103333794D01*
X130599530Y-103338138D01*
X131224021Y-103338138D01*
X131224020Y-104246761D01*
X131224020Y-104259850D01*
X129373871Y-106110000D01*
X128416728Y-106110000D01*
X128450139Y-106059997D01*
X128485946Y-105973552D01*
X128504200Y-105881783D01*
X128504200Y-105788217D01*
X128485946Y-105696448D01*
X128450139Y-105610003D01*
X128398156Y-105532205D01*
X128331995Y-105466044D01*
X128254197Y-105414061D01*
X128167752Y-105378254D01*
X128075983Y-105360000D01*
X128029200Y-105360000D01*
X128029200Y-102559264D01*
X128280922Y-102307543D01*
X128292358Y-102298158D01*
X128301744Y-102286721D01*
X128301750Y-102286715D01*
X128329847Y-102252478D01*
X128357704Y-102200361D01*
X128365397Y-102175000D01*
X128374859Y-102143810D01*
X128379200Y-102099733D01*
X128379200Y-102099730D01*
X128380651Y-102085000D01*
X128379200Y-102070270D01*
X128379200Y-101599730D01*
X128380651Y-101585000D01*
X128378189Y-101560003D01*
X128374859Y-101526190D01*
X128357704Y-101469640D01*
X128329847Y-101417522D01*
X128301750Y-101383286D01*
X128301749Y-101383285D01*
X128292358Y-101371842D01*
X128280915Y-101362451D01*
X126051753Y-99133290D01*
X126042358Y-99121842D01*
X125996677Y-99084353D01*
X125944560Y-99056496D01*
X125888010Y-99039341D01*
X125843933Y-99035000D01*
X125843923Y-99035000D01*
X125829200Y-99033550D01*
X125814477Y-99035000D01*
X125153464Y-99035000D01*
X124966798Y-98848334D01*
X126934416Y-98848334D01*
X126935867Y-98863066D01*
X126935866Y-99301711D01*
X126934416Y-99316434D01*
X126935866Y-99331157D01*
X126935866Y-99331166D01*
X126940207Y-99375243D01*
X126957362Y-99431793D01*
X126963677Y-99443608D01*
X126985219Y-99483911D01*
X127000456Y-99502477D01*
X127022708Y-99529592D01*
X127034156Y-99538987D01*
X129179201Y-101684033D01*
X129179200Y-103578956D01*
X129177750Y-103593679D01*
X129179200Y-103608402D01*
X129179200Y-103608411D01*
X129183541Y-103652488D01*
X129200696Y-103709038D01*
X129200697Y-103709039D01*
X129228553Y-103761156D01*
X129237323Y-103771842D01*
X129266042Y-103806837D01*
X129277490Y-103816232D01*
X129647972Y-104186715D01*
X129657363Y-104198158D01*
X129668806Y-104207549D01*
X129703043Y-104235647D01*
X129723837Y-104246761D01*
X129755161Y-104263504D01*
X129811711Y-104280659D01*
X129855788Y-104285000D01*
X129855800Y-104285000D01*
X129870520Y-104286450D01*
X129885240Y-104285000D01*
X129908382Y-104285000D01*
X129910250Y-104287795D01*
X129976411Y-104353956D01*
X130054209Y-104405939D01*
X130140654Y-104441746D01*
X130232423Y-104460000D01*
X130325989Y-104460000D01*
X130417758Y-104441746D01*
X130504203Y-104405939D01*
X130582001Y-104353956D01*
X130648162Y-104287795D01*
X130700145Y-104209997D01*
X130735952Y-104123552D01*
X130754206Y-104031783D01*
X130754206Y-103938217D01*
X130735952Y-103846448D01*
X130700145Y-103760003D01*
X130648162Y-103682205D01*
X130582001Y-103616044D01*
X130504203Y-103564061D01*
X130417758Y-103528254D01*
X130325989Y-103510000D01*
X130232423Y-103510000D01*
X130140654Y-103528254D01*
X130054209Y-103564061D01*
X129976411Y-103616044D01*
X129951120Y-103641335D01*
X129779200Y-103469416D01*
X129779200Y-101574490D01*
X129780650Y-101559767D01*
X129779200Y-101545044D01*
X129779200Y-101545035D01*
X129774859Y-101500958D01*
X129757704Y-101444408D01*
X129732474Y-101397205D01*
X129729847Y-101392290D01*
X129701749Y-101358053D01*
X129692358Y-101346610D01*
X129680915Y-101337219D01*
X129438696Y-101095000D01*
X130402497Y-101095000D01*
X130417220Y-101096450D01*
X130431943Y-101095000D01*
X130431953Y-101095000D01*
X130476030Y-101090659D01*
X130532580Y-101073504D01*
X130584697Y-101045647D01*
X130630378Y-101008158D01*
X130639773Y-100996710D01*
X130797705Y-100838778D01*
X131202555Y-100838778D01*
X131172454Y-100911448D01*
X131154200Y-101003217D01*
X131154200Y-101096783D01*
X131172454Y-101188552D01*
X131208261Y-101274997D01*
X131260244Y-101352795D01*
X131326405Y-101418956D01*
X131404203Y-101470939D01*
X131490648Y-101506746D01*
X131582417Y-101525000D01*
X131675983Y-101525000D01*
X131767752Y-101506746D01*
X131854197Y-101470939D01*
X131931995Y-101418956D01*
X131998156Y-101352795D01*
X132050139Y-101274997D01*
X132085946Y-101188552D01*
X132104200Y-101096783D01*
X132104200Y-101003217D01*
X132085946Y-100911448D01*
X132055845Y-100838778D01*
X132598510Y-100838778D01*
X132642618Y-100834434D01*
X132685030Y-100821568D01*
X132724118Y-100800675D01*
X132758378Y-100772558D01*
X132786495Y-100738298D01*
X132807388Y-100699210D01*
X132820254Y-100656798D01*
X132824598Y-100612690D01*
X132824598Y-99413810D01*
X132820254Y-99369702D01*
X132807896Y-99328966D01*
X132864556Y-99311778D01*
X132925707Y-99279093D01*
X132965874Y-99246128D01*
X133265867Y-98946135D01*
X133279306Y-98935106D01*
X133323293Y-98881507D01*
X133355979Y-98820356D01*
X133376107Y-98754004D01*
X133381200Y-98702292D01*
X133381200Y-98702290D01*
X133382903Y-98685001D01*
X133381200Y-98667712D01*
X133381200Y-97231350D01*
X133397688Y-97256026D01*
X133505624Y-97363962D01*
X133632543Y-97448766D01*
X133773567Y-97507180D01*
X133923278Y-97536960D01*
X134075922Y-97536960D01*
X134225633Y-97507180D01*
X134366657Y-97448766D01*
X134493576Y-97363962D01*
X134601512Y-97256026D01*
X134686316Y-97129107D01*
X134744730Y-96988083D01*
X134774510Y-96838372D01*
X134774510Y-96685728D01*
X134744730Y-96536017D01*
X134686316Y-96394993D01*
X134601512Y-96268074D01*
X134493576Y-96160138D01*
X134366657Y-96075334D01*
X134225633Y-96016920D01*
X134075922Y-95987140D01*
X133923278Y-95987140D01*
X133773567Y-96016920D01*
X133632543Y-96075334D01*
X133505624Y-96160138D01*
X133504200Y-96161562D01*
X133504200Y-96103217D01*
X133485946Y-96011448D01*
X133450139Y-95925003D01*
X133398156Y-95847205D01*
X133331995Y-95781044D01*
X133254197Y-95729061D01*
X133167752Y-95693254D01*
X133075983Y-95675000D01*
X132982417Y-95675000D01*
X132890648Y-95693254D01*
X132804203Y-95729061D01*
X132726405Y-95781044D01*
X132660244Y-95847205D01*
X132608261Y-95925003D01*
X132572454Y-96011448D01*
X132554200Y-96103217D01*
X132554200Y-96196783D01*
X132572454Y-96288552D01*
X132608261Y-96374997D01*
X132654200Y-96443750D01*
X132654200Y-97178820D01*
X132642618Y-97175306D01*
X132598510Y-97170962D01*
X132019426Y-97170962D01*
X132050139Y-97124997D01*
X132085946Y-97038552D01*
X132104200Y-96946783D01*
X132104200Y-96853217D01*
X132085946Y-96761448D01*
X132050139Y-96675003D01*
X131998156Y-96597205D01*
X131931995Y-96531044D01*
X131854197Y-96479061D01*
X131767752Y-96443254D01*
X131675983Y-96425000D01*
X131582417Y-96425000D01*
X131490648Y-96443254D01*
X131404203Y-96479061D01*
X131326405Y-96531044D01*
X131260244Y-96597205D01*
X131208261Y-96675003D01*
X131172454Y-96761448D01*
X131154200Y-96853217D01*
X131154200Y-96946783D01*
X131172454Y-97038552D01*
X131208261Y-97124997D01*
X131238974Y-97170962D01*
X130599530Y-97170962D01*
X130555422Y-97175306D01*
X130513010Y-97188172D01*
X130473922Y-97209065D01*
X130439662Y-97237182D01*
X130411545Y-97271442D01*
X130390652Y-97310530D01*
X130377786Y-97352942D01*
X130373442Y-97397050D01*
X130373442Y-97706072D01*
X130334170Y-97717986D01*
X130309909Y-97730954D01*
X130282052Y-97745843D01*
X130247815Y-97773941D01*
X130236372Y-97783332D01*
X130226981Y-97794775D01*
X129955963Y-98065794D01*
X129973446Y-98023586D01*
X129991700Y-97931817D01*
X129991700Y-97838251D01*
X129973446Y-97746482D01*
X129937639Y-97660037D01*
X129885656Y-97582239D01*
X129819495Y-97516078D01*
X129741697Y-97464095D01*
X129655252Y-97428288D01*
X129563483Y-97410034D01*
X129469917Y-97410034D01*
X129378148Y-97428288D01*
X129291703Y-97464095D01*
X129213905Y-97516078D01*
X129147744Y-97582239D01*
X129095761Y-97660037D01*
X129059954Y-97746482D01*
X129041700Y-97838251D01*
X129041700Y-97931817D01*
X129042356Y-97935114D01*
X128752471Y-98225000D01*
X127573922Y-98225000D01*
X127559199Y-98223550D01*
X127544476Y-98225000D01*
X127544467Y-98225000D01*
X127500390Y-98229341D01*
X127443840Y-98246496D01*
X127429820Y-98253990D01*
X127391722Y-98274353D01*
X127362982Y-98297940D01*
X127346042Y-98311842D01*
X127336651Y-98323285D01*
X127034151Y-98625786D01*
X127022709Y-98635176D01*
X127013318Y-98646619D01*
X127013317Y-98646620D01*
X126985219Y-98680857D01*
X126957363Y-98732974D01*
X126940208Y-98789524D01*
X126934416Y-98848334D01*
X124966798Y-98848334D01*
X123929200Y-97810737D01*
X123929200Y-97605824D01*
X123931995Y-97603956D01*
X123998156Y-97537795D01*
X124050139Y-97459997D01*
X124085946Y-97373552D01*
X124104200Y-97281783D01*
X124104200Y-97188217D01*
X124085946Y-97096448D01*
X124050139Y-97010003D01*
X123998156Y-96932205D01*
X123931995Y-96866044D01*
X123854197Y-96814061D01*
X123767752Y-96778254D01*
X123675983Y-96760000D01*
X123604200Y-96760000D01*
X123604200Y-96409998D01*
X123675983Y-96409998D01*
X123767752Y-96391744D01*
X123854197Y-96355937D01*
X123931995Y-96303954D01*
X123998156Y-96237793D01*
X124050139Y-96159995D01*
X124085946Y-96073550D01*
X124104200Y-95981781D01*
X124104200Y-95888215D01*
X124085946Y-95796446D01*
X124050139Y-95710001D01*
X123998156Y-95632203D01*
X123931995Y-95566042D01*
X123929206Y-95564178D01*
X123929206Y-94870824D01*
X123932001Y-94868956D01*
X123998162Y-94802795D01*
X124050145Y-94724997D01*
X124085952Y-94638552D01*
X124104206Y-94546783D01*
X124104206Y-94453217D01*
X124085952Y-94361448D01*
X124050145Y-94275003D01*
X123998162Y-94197205D01*
X123950973Y-94150016D01*
X123998196Y-94102793D01*
X124000064Y-94099998D01*
X124119935Y-94099998D01*
X124681662Y-94661726D01*
X124691053Y-94673169D01*
X124702496Y-94682560D01*
X124736733Y-94710658D01*
X124745104Y-94715132D01*
X124788851Y-94738515D01*
X124845401Y-94755670D01*
X124889478Y-94760011D01*
X124889487Y-94760011D01*
X124904210Y-94761461D01*
X124918933Y-94760011D01*
X127493748Y-94760011D01*
X127508471Y-94761461D01*
X127523194Y-94760011D01*
X127523204Y-94760011D01*
X127567281Y-94755670D01*
X127623831Y-94738515D01*
X127675948Y-94710658D01*
X127721629Y-94673169D01*
X127731024Y-94661721D01*
X128340917Y-94051828D01*
X128352358Y-94042439D01*
X128366674Y-94024995D01*
X128389847Y-93996759D01*
X128405499Y-93967475D01*
X128417704Y-93944641D01*
X128434859Y-93888091D01*
X128439200Y-93844014D01*
X128439200Y-93844004D01*
X128440650Y-93829281D01*
X128439200Y-93814558D01*
X128439200Y-92585824D01*
X128441995Y-92583956D01*
X128508156Y-92517795D01*
X128560139Y-92439997D01*
X128595946Y-92353552D01*
X128614200Y-92261783D01*
X128614200Y-92168217D01*
X128595946Y-92076448D01*
X128560139Y-91990003D01*
X128508156Y-91912205D01*
X128441995Y-91846044D01*
X128364197Y-91794061D01*
X128277752Y-91758254D01*
X128185983Y-91740000D01*
X128092417Y-91740000D01*
X128000648Y-91758254D01*
X127914203Y-91794061D01*
X127836405Y-91846044D01*
X127770244Y-91912205D01*
X127718261Y-91990003D01*
X127682454Y-92076448D01*
X127664200Y-92168217D01*
X127664200Y-92261783D01*
X127678838Y-92335375D01*
X127505288Y-92161824D01*
X127505288Y-91360000D01*
X127500944Y-91315892D01*
X127488078Y-91273480D01*
X127467185Y-91234392D01*
X127439068Y-91200132D01*
X127404808Y-91172015D01*
X127365720Y-91151122D01*
X127360472Y-91149530D01*
X130375471Y-91149530D01*
X130375470Y-91886518D01*
D19*
G36*
X121672866Y-92955319D02*
G01*
X121964211Y-93149989D01*
X122158881Y-93441334D01*
X122229200Y-93794851D01*
X122229200Y-97870786D01*
X122231121Y-97890295D01*
X122307241Y-98272979D01*
X122312932Y-98291738D01*
X122322173Y-98309027D01*
X122538946Y-98633450D01*
X122551382Y-98648604D01*
X125558633Y-101655855D01*
X125758881Y-101955547D01*
X125829200Y-102309065D01*
X125829200Y-104275149D01*
X125774105Y-104552130D01*
X125622789Y-104778589D01*
X125396330Y-104929905D01*
X125119349Y-104985000D01*
X117639051Y-104985000D01*
X117285534Y-104914681D01*
X116994189Y-104720011D01*
X116799519Y-104428666D01*
X116729200Y-104075149D01*
X116729200Y-93794851D01*
X116799519Y-93441334D01*
X116994189Y-93149989D01*
X117285534Y-92955319D01*
X117639051Y-92885000D01*
X121319349Y-92885000D01*
X121672866Y-92955319D01*
X121672866Y-92955319D01*
G37*
X121672866Y-92955319D02*
X121964211Y-93149989D01*
X122158881Y-93441334D01*
X122229200Y-93794851D01*
X122229200Y-97870786D01*
X122231121Y-97890295D01*
X122307241Y-98272979D01*
X122312932Y-98291738D01*
X122322173Y-98309027D01*
X122538946Y-98633450D01*
X122551382Y-98648604D01*
X125558633Y-101655855D01*
X125758881Y-101955547D01*
X125829200Y-102309065D01*
X125829200Y-104275149D01*
X125774105Y-104552130D01*
X125622789Y-104778589D01*
X125396330Y-104929905D01*
X125119349Y-104985000D01*
X117639051Y-104985000D01*
X117285534Y-104914681D01*
X116994189Y-104720011D01*
X116799519Y-104428666D01*
X116729200Y-104075149D01*
X116729200Y-93794851D01*
X116799519Y-93441334D01*
X116994189Y-93149989D01*
X117285534Y-92955319D01*
X117639051Y-92885000D01*
X121319349Y-92885000D01*
X121672866Y-92955319D01*
M02*
