G04 #@! TF.GenerationSoftware,KiCad,Pcbnew,(5.0.1)-4*
G04 #@! TF.CreationDate,2019-05-08T11:41:41+02:00*
G04 #@! TF.ProjectId,nk-fido2,6E6B2D6669646F322E6B696361645F70,R3*
G04 #@! TF.SameCoordinates,PX791ddc0PY5e69114*
G04 #@! TF.FileFunction,Copper,L2,Bot,Signal*
G04 #@! TF.FilePolarity,Positive*
%FSLAX46Y46*%
G04 Gerber Fmt 4.6, Leading zero omitted, Abs format (unit mm)*
G04 Created by KiCad (PCBNEW (5.0.1)-4) date 08.05.2019 11:41:41*
%MOMM*%
%LPD*%
G01*
G04 APERTURE LIST*
G04 #@! TA.AperFunction,SMDPad,CuDef*
%ADD10R,0.550000X0.800000*%
G04 #@! TD*
G04 #@! TA.AperFunction,ComponentPad*
%ADD11C,1.099820*%
G04 #@! TD*
G04 #@! TA.AperFunction,SMDPad,CuDef*
%ADD12R,1.998980X1.198880*%
G04 #@! TD*
G04 #@! TA.AperFunction,ComponentPad*
%ADD13O,3.500120X1.501140*%
G04 #@! TD*
G04 #@! TA.AperFunction,BGAPad,CuDef*
%ADD14C,6.000000*%
G04 #@! TD*
G04 #@! TA.AperFunction,BGAPad,CuDef*
%ADD15C,0.500000*%
G04 #@! TD*
G04 #@! TA.AperFunction,ViaPad*
%ADD16C,0.500000*%
G04 #@! TD*
G04 #@! TA.AperFunction,Conductor*
%ADD17C,0.150000*%
G04 #@! TD*
G04 #@! TA.AperFunction,Conductor*
%ADD18C,1.000000*%
G04 #@! TD*
G04 #@! TA.AperFunction,Conductor*
%ADD19C,0.500000*%
G04 #@! TD*
G04 #@! TA.AperFunction,Conductor*
%ADD20C,0.300000*%
G04 #@! TD*
G04 #@! TA.AperFunction,Conductor*
%ADD21C,0.200000*%
G04 #@! TD*
G04 #@! TA.AperFunction,Conductor*
%ADD22C,0.254000*%
G04 #@! TD*
G04 #@! TA.AperFunction,Conductor*
%ADD23C,0.250000*%
G04 #@! TD*
G04 APERTURE END LIST*
D10*
G04 #@! TO.P,D2,B*
G04 #@! TO.N,Net-(D2-PadB)*
X120000Y7366500D03*
G04 #@! TO.P,D2,A*
G04 #@! TO.N,Net-(D2-PadA)*
X-820000Y7366500D03*
G04 #@! TO.P,D2,R*
G04 #@! TO.N,Net-(D2-PadR)*
X-820000Y5766500D03*
G04 #@! TO.P,D2,G*
G04 #@! TO.N,Net-(D2-PadG)*
X120000Y5766500D03*
G04 #@! TD*
D11*
G04 #@! TO.P,J1,8*
G04 #@! TO.N,N/C*
X6999600Y2234450D03*
G04 #@! TO.P,J1,7*
X6999600Y-2266430D03*
D12*
G04 #@! TO.P,J1,4*
G04 #@! TO.N,GND*
X4599020Y3484130D03*
G04 #@! TO.P,J1,1*
G04 #@! TO.N,+5V*
X4599020Y-3516110D03*
G04 #@! TO.P,J1,3*
G04 #@! TO.N,/HD+*
X4599020Y1000010D03*
G04 #@! TO.P,J1,2*
G04 #@! TO.N,/HD-*
X4599020Y-1016750D03*
D13*
G04 #@! TO.P,J1,6*
G04 #@! TO.N,Net-(C5-Pad1)*
X6999600Y-5715750D03*
G04 #@! TO.P,J1,5*
X6999600Y5683770D03*
G04 #@! TD*
D14*
G04 #@! TO.P,P1,1*
G04 #@! TO.N,Net-(P1-Pad1)*
X-5570800Y-2888500D03*
G04 #@! TD*
D15*
G04 #@! TO.P,FID4,~*
G04 #@! TO.N,N/C*
X6479200Y-7353500D03*
G04 #@! TD*
G04 #@! TO.P,FID2,~*
G04 #@! TO.N,N/C*
X-11170800Y6996500D03*
G04 #@! TD*
D16*
G04 #@! TO.N,/HD+*
X4629200Y2096500D03*
X2669200Y-148500D03*
G04 #@! TO.N,/HD-*
X4629200Y-2053500D03*
X710867Y-91933D03*
G04 #@! TO.N,/Button*
X1029200Y-6838500D03*
X-3370800Y1761500D03*
G04 #@! TO.N,Net-(P1-Pad1)*
X-1397930Y-3311370D03*
G04 #@! TO.N,/Button_reset*
X3279206Y-4988500D03*
X2516700Y1111466D03*
G04 #@! TO.N,+5V*
X-4970800Y-7488500D03*
X5929200Y-2703500D03*
G04 #@! TO.N,+3V3*
X6029200Y2846500D03*
X579200Y-2788500D03*
X2829192Y-1288492D03*
X-1320800Y-988500D03*
G04 #@! TO.N,Net-(D2-PadA)*
X-1560800Y7441500D03*
G04 #@! TO.N,Net-(U1-Pad3)*
X-3370760Y5196502D03*
X1139200Y6781500D03*
G04 #@! TO.N,Net-(D2-PadG)*
X-1560800Y6781500D03*
G04 #@! TO.N,Net-(D2-PadR)*
X-2370800Y5884000D03*
G04 #@! TO.N,Net-(D2-PadB)*
X-3365248Y5978156D03*
G04 #@! TO.N,Net-(U1-Pad11)*
X-3370794Y4496500D03*
X-3370800Y3061502D03*
G04 #@! TO.N,GND*
X659200Y4021500D03*
X659200Y2871500D03*
X-500800Y2871500D03*
X-500800Y4021500D03*
X2529200Y5846500D03*
X3829200Y5646500D03*
X7879200Y2811500D03*
X1809348Y-2788500D03*
X1204210Y-5488500D03*
X3020214Y-4358231D03*
X5629200Y4511500D03*
X-2484917Y897383D03*
G04 #@! TD*
D17*
G04 #@! TO.N,/HD+*
X4629200Y1030190D02*
X4599020Y1000010D01*
X4629200Y2096500D02*
X4629200Y1030190D01*
X3449530Y1000010D02*
X4599020Y1000010D01*
X3039200Y589680D02*
X3449530Y1000010D01*
X2669200Y-148500D02*
X3039200Y221500D01*
X3039200Y221500D02*
X3039200Y589680D01*
G04 #@! TO.N,/HD-*
X4629200Y-1046930D02*
X4599020Y-1016750D01*
X4629200Y-2053500D02*
X4629200Y-1046930D01*
X960866Y-341932D02*
X710867Y-91933D01*
X1279200Y-660266D02*
X960866Y-341932D01*
X1407434Y-788500D02*
X1279200Y-660266D01*
X4198970Y-1016750D02*
X4599020Y-1016750D01*
X3417220Y-1798500D02*
X4198970Y-1016750D01*
X1279200Y-660266D02*
X2417434Y-1798500D01*
X2417434Y-1798500D02*
X3417220Y-1798500D01*
G04 #@! TO.N,/Button*
X729200Y-6538500D02*
X1029200Y-6838500D01*
X729200Y-5888500D02*
X729200Y-6538500D01*
X729200Y-6038500D02*
X729200Y-5888500D01*
X729200Y-3438500D02*
X1079200Y-3088500D01*
X729200Y-5888500D02*
X729200Y-3438500D01*
X1079200Y-3088500D02*
X1079200Y-2588500D01*
X1079200Y-2588500D02*
X-1170800Y-338500D01*
X-1270800Y-338500D02*
X-1970800Y-338500D01*
X-1270800Y-338500D02*
X-1920800Y-338500D01*
X-1170800Y-338500D02*
X-1270800Y-338500D01*
X-3370800Y1061500D02*
X-3370800Y1761500D01*
X-1970800Y-338500D02*
X-3370800Y1061500D01*
G04 #@! TO.N,/Button_reset*
X1876734Y471500D02*
X2516700Y1111466D01*
X3224074Y-4988500D02*
X2870521Y-4988500D01*
X559200Y471500D02*
X1876734Y471500D01*
X2479200Y-4597179D02*
X2479200Y-2563268D01*
X2870521Y-4988500D02*
X2479200Y-4597179D01*
X2479200Y-2563268D02*
X235866Y-319934D01*
X235866Y-319934D02*
X235866Y148166D01*
X235866Y148166D02*
X559200Y471500D01*
G04 #@! TO.N,Net-(C5-Pad1)*
X7316950Y-5715750D02*
X6999600Y-5715750D01*
X6999600Y5683770D02*
X7441930Y5683770D01*
D18*
X7916950Y-5715750D02*
X7316950Y-5715750D01*
X8779200Y-4853500D02*
X7916950Y-5715750D01*
X8779200Y4796500D02*
X8779200Y-4853500D01*
X7441930Y5683770D02*
X7891930Y5683770D01*
X7891930Y5683770D02*
X8779200Y4796500D01*
D19*
G04 #@! TO.N,+5V*
X5116590Y-3516110D02*
X5929200Y-2703500D01*
D17*
X4599020Y-3516110D02*
X5116590Y-3516110D01*
D20*
X-4620800Y-7488500D02*
X-4920800Y-7488500D01*
X-4320800Y-7488500D02*
X2229200Y-7488500D01*
X-4320800Y-7488500D02*
X-4620800Y-7488500D01*
X4599020Y-5268680D02*
X4599020Y-3516110D01*
X4599020Y-5418680D02*
X4599020Y-5268680D01*
X2229200Y-7488500D02*
X2529200Y-7488500D01*
X2529200Y-7488500D02*
X4599020Y-5418680D01*
D21*
G04 #@! TO.N,+3V3*
X5979200Y2846500D02*
X5979200Y261500D01*
D22*
X6029200Y311500D02*
X5879200Y161500D01*
X6029200Y2846500D02*
X6029200Y311500D01*
D21*
X5979200Y261500D02*
X5879200Y161500D01*
D22*
X5879200Y161500D02*
X5729200Y11500D01*
D17*
X479200Y-2788500D02*
X579200Y-2788500D01*
D23*
X-1220800Y-1038500D02*
X490083Y-2749383D01*
X2829200Y-1288500D02*
X2829192Y-1288492D01*
X3079191Y-1038493D02*
X2829192Y-1288492D01*
X3279200Y-838484D02*
X3079191Y-1038493D01*
X3279200Y-298500D02*
X3279200Y-838484D01*
X5729200Y11500D02*
X3589200Y11500D01*
X3589200Y11500D02*
X3279200Y-298500D01*
D20*
G04 #@! TO.N,Net-(D2-PadA)*
X-1560800Y7421500D02*
X-890800Y7421500D01*
D17*
G04 #@! TO.N,Net-(U1-Pad3)*
X-3370760Y5196502D02*
X-2925758Y4751500D01*
X-2925758Y4751500D02*
X659200Y4751500D01*
X659200Y4751500D02*
X1139200Y5231500D01*
X1139200Y6427947D02*
X1139200Y6781500D01*
X1139200Y5231500D02*
X1139200Y6427947D01*
G04 #@! TO.N,Net-(D2-PadG)*
X-1310801Y6541501D02*
X-470801Y6541501D01*
X-1560800Y6791500D02*
X-1310801Y6541501D01*
X-470801Y6541501D02*
X212100Y5858600D01*
G04 #@! TO.N,Net-(D2-PadR)*
X-937500Y5884000D02*
X-820000Y5766500D01*
X-2370800Y5884000D02*
X-937500Y5884000D01*
G04 #@! TO.N,Net-(D2-PadB)*
X120000Y6816500D02*
X120000Y7366500D01*
X120000Y6810700D02*
X120000Y6816500D01*
X649200Y6281500D02*
X120000Y6810700D01*
X545002Y5111500D02*
X649200Y5215698D01*
X-3365248Y5978156D02*
X-2498592Y5111500D01*
X649200Y5215698D02*
X649200Y6281500D01*
X-2498592Y5111500D02*
X545002Y5111500D01*
G04 #@! TO.N,Net-(U1-Pad11)*
X-3370794Y4496500D02*
X-3370794Y3061508D01*
X-3370794Y3061508D02*
X-3370800Y3061502D01*
G04 #@! TD*
G04 #@! TO.N,GND*
G36*
X3375470Y7123537D02*
X3370092Y7096500D01*
X3391399Y6989384D01*
X3428703Y6933554D01*
X3452075Y6898575D01*
X3542884Y6837899D01*
X3650000Y6816592D01*
X3677036Y6821970D01*
X4322964Y6821970D01*
X4350000Y6816592D01*
X4457116Y6837899D01*
X4547925Y6898575D01*
X4608601Y6989384D01*
X4624530Y7069463D01*
X4624530Y7069464D01*
X4629908Y7096500D01*
X4624530Y7123537D01*
X4624530Y7846970D01*
X9225071Y7846970D01*
X9225071Y5375934D01*
X8981074Y5619931D01*
X8993772Y5683770D01*
X8918056Y6064418D01*
X8702436Y6387116D01*
X8379738Y6602736D01*
X8095172Y6659340D01*
X5904028Y6659340D01*
X5619462Y6602736D01*
X5296764Y6387116D01*
X5081144Y6064418D01*
X5005428Y5683770D01*
X5081144Y5303122D01*
X5296764Y4980424D01*
X5619462Y4764804D01*
X5904028Y4708200D01*
X7842195Y4708200D01*
X8054200Y4496195D01*
X8054201Y-4553195D01*
X7867216Y-4740180D01*
X5904028Y-4740180D01*
X5619462Y-4796784D01*
X5296764Y-5012404D01*
X5081144Y-5335102D01*
X5005428Y-5715750D01*
X5081144Y-6096398D01*
X5296764Y-6419096D01*
X5619462Y-6634716D01*
X5904028Y-6691320D01*
X8095172Y-6691320D01*
X8379738Y-6634716D01*
X8702436Y-6419096D01*
X8918056Y-6096398D01*
X8993772Y-5715750D01*
X8985225Y-5672779D01*
X9225070Y-5432934D01*
X9225070Y-7878970D01*
X6713151Y-7878970D01*
X6804911Y-7840962D01*
X6966662Y-7679211D01*
X7054200Y-7467875D01*
X7054200Y-7239125D01*
X6966662Y-7027789D01*
X6804911Y-6866038D01*
X6593575Y-6778500D01*
X6364825Y-6778500D01*
X6153489Y-6866038D01*
X5991738Y-7027789D01*
X5904200Y-7239125D01*
X5904200Y-7467875D01*
X5991738Y-7679211D01*
X6153489Y-7840962D01*
X6245249Y-7878970D01*
X4624530Y-7878970D01*
X4624530Y-7130537D01*
X4629908Y-7103500D01*
X4608601Y-6996384D01*
X4547925Y-6905575D01*
X4457116Y-6844899D01*
X4377037Y-6828970D01*
X4350000Y-6823592D01*
X4322964Y-6828970D01*
X3719059Y-6828970D01*
X4838073Y-5709957D01*
X4869379Y-5689039D01*
X4952262Y-5564997D01*
X4974020Y-5455611D01*
X4974020Y-5455606D01*
X4981365Y-5418680D01*
X4974020Y-5381754D01*
X4974020Y-4344958D01*
X5598510Y-4344958D01*
X5686301Y-4327495D01*
X5760726Y-4277766D01*
X5810455Y-4203341D01*
X5827918Y-4115550D01*
X5827918Y-3476533D01*
X6298153Y-3006299D01*
X6331886Y-2972566D01*
X6350143Y-2928489D01*
X6376638Y-2888836D01*
X6385942Y-2842062D01*
X6404200Y-2797983D01*
X6404200Y-2766918D01*
X6560649Y-2923367D01*
X6845461Y-3041340D01*
X7153739Y-3041340D01*
X7438551Y-2923367D01*
X7656537Y-2705381D01*
X7774510Y-2420569D01*
X7774510Y-2112291D01*
X7656537Y-1827479D01*
X7438551Y-1609493D01*
X7153739Y-1491520D01*
X6845461Y-1491520D01*
X6560649Y-1609493D01*
X6342663Y-1827479D01*
X6224690Y-2112291D01*
X6224690Y-2327238D01*
X6198266Y-2300814D01*
X6154186Y-2282556D01*
X6114535Y-2256062D01*
X6067763Y-2246758D01*
X6023683Y-2228500D01*
X5975973Y-2228500D01*
X5929199Y-2219196D01*
X5882425Y-2228500D01*
X5834717Y-2228500D01*
X5790638Y-2246758D01*
X5743864Y-2256062D01*
X5704211Y-2282557D01*
X5660134Y-2300814D01*
X5626401Y-2334547D01*
X5273687Y-2687262D01*
X3599530Y-2687262D01*
X3511739Y-2704725D01*
X3437314Y-2754454D01*
X3387585Y-2828879D01*
X3370122Y-2916670D01*
X3370122Y-4115550D01*
X3387585Y-4203341D01*
X3437314Y-4277766D01*
X3511739Y-4327495D01*
X3599530Y-4344958D01*
X4224021Y-4344958D01*
X4224020Y-5231749D01*
X4224020Y-5263350D01*
X2373871Y-7113500D01*
X1425952Y-7113500D01*
X1431886Y-7107566D01*
X1504200Y-6932983D01*
X1504200Y-6744017D01*
X1431886Y-6569434D01*
X1298266Y-6435814D01*
X1123683Y-6363500D01*
X1029200Y-6363500D01*
X1029200Y-3562763D01*
X1270439Y-3321525D01*
X1295488Y-3304788D01*
X1361793Y-3205554D01*
X1379200Y-3118045D01*
X1379200Y-3118044D01*
X1385077Y-3088500D01*
X1379200Y-3058955D01*
X1379200Y-2618045D01*
X1385077Y-2588500D01*
X1361793Y-2471446D01*
X1344933Y-2446213D01*
X1295488Y-2372212D01*
X1270439Y-2355475D01*
X-937773Y-147264D01*
X-954512Y-122212D01*
X-1053746Y-55907D01*
X-1141255Y-38500D01*
X-1170800Y-32623D01*
X-1200345Y-38500D01*
X-1846536Y-38500D01*
X-2033202Y148166D01*
X-70011Y148166D01*
X-64133Y118617D01*
X-64134Y-290389D01*
X-70011Y-319934D01*
X-64134Y-349478D01*
X-46727Y-436987D01*
X19578Y-536222D01*
X44630Y-552961D01*
X2179201Y-2687533D01*
X2179200Y-4567634D01*
X2173323Y-4597179D01*
X2179200Y-4626723D01*
X2196607Y-4714232D01*
X2262912Y-4813467D01*
X2287964Y-4830206D01*
X2637496Y-5179739D01*
X2654233Y-5204788D01*
X2753467Y-5271093D01*
X2840976Y-5288500D01*
X2870520Y-5294377D01*
X2900064Y-5288500D01*
X2907454Y-5288500D01*
X3010140Y-5391186D01*
X3184723Y-5463500D01*
X3373689Y-5463500D01*
X3548272Y-5391186D01*
X3681892Y-5257566D01*
X3754206Y-5082983D01*
X3754206Y-4894017D01*
X3681892Y-4719434D01*
X3548272Y-4585814D01*
X3373689Y-4513500D01*
X3184723Y-4513500D01*
X3010140Y-4585814D01*
X2951119Y-4644835D01*
X2779200Y-4472916D01*
X2779200Y-2592811D01*
X2785077Y-2563267D01*
X2770204Y-2488500D01*
X2761793Y-2446214D01*
X2695488Y-2346980D01*
X2670439Y-2330243D01*
X2440070Y-2099874D01*
X2446979Y-2098500D01*
X3387675Y-2098500D01*
X3417220Y-2104377D01*
X3446765Y-2098500D01*
X3534274Y-2081093D01*
X3633508Y-2014788D01*
X3650247Y-1989736D01*
X3794385Y-1845598D01*
X4201179Y-1845598D01*
X4154200Y-1959017D01*
X4154200Y-2147983D01*
X4226514Y-2322566D01*
X4360134Y-2456186D01*
X4534717Y-2528500D01*
X4723683Y-2528500D01*
X4898266Y-2456186D01*
X5031886Y-2322566D01*
X5104200Y-2147983D01*
X5104200Y-1959017D01*
X5057221Y-1845598D01*
X5598510Y-1845598D01*
X5686301Y-1828135D01*
X5760726Y-1778406D01*
X5810455Y-1703981D01*
X5827918Y-1616190D01*
X5827918Y-417310D01*
X5810783Y-331168D01*
X5866543Y-320077D01*
X5953586Y-261916D01*
X5960837Y-254665D01*
X5981535Y-240835D01*
X5995365Y-220137D01*
X6253582Y38080D01*
X6282978Y57722D01*
X6360777Y174156D01*
X6378890Y265219D01*
X6388096Y311499D01*
X6381200Y346168D01*
X6381200Y1756962D01*
X6560649Y1577513D01*
X6845461Y1459540D01*
X7153739Y1459540D01*
X7438551Y1577513D01*
X7656537Y1795499D01*
X7774510Y2080311D01*
X7774510Y2388589D01*
X7656537Y2673401D01*
X7438551Y2891387D01*
X7153739Y3009360D01*
X6845461Y3009360D01*
X6560649Y2891387D01*
X6504200Y2834938D01*
X6504200Y2940983D01*
X6431886Y3115566D01*
X6298266Y3249186D01*
X6123683Y3321500D01*
X5934717Y3321500D01*
X5760134Y3249186D01*
X5626514Y3115566D01*
X5554200Y2940983D01*
X5554200Y2752017D01*
X5626514Y2577434D01*
X5654200Y2549748D01*
X5654200Y1817780D01*
X5598510Y1828858D01*
X5032476Y1828858D01*
X5104200Y2002017D01*
X5104200Y2190983D01*
X5031886Y2365566D01*
X4898266Y2499186D01*
X4723683Y2571500D01*
X4534717Y2571500D01*
X4360134Y2499186D01*
X4226514Y2365566D01*
X4154200Y2190983D01*
X4154200Y2002017D01*
X4225924Y1828858D01*
X3599530Y1828858D01*
X3511739Y1811395D01*
X3437314Y1761666D01*
X3387585Y1687241D01*
X3370122Y1599450D01*
X3370122Y1290091D01*
X3332476Y1282603D01*
X3233242Y1216298D01*
X3216506Y1191250D01*
X2955964Y930707D01*
X2991700Y1016983D01*
X2991700Y1205949D01*
X2919386Y1380532D01*
X2785766Y1514152D01*
X2611183Y1586466D01*
X2422217Y1586466D01*
X2247634Y1514152D01*
X2114014Y1380532D01*
X2041700Y1205949D01*
X2041700Y1060730D01*
X1752471Y771500D01*
X588743Y771500D01*
X559199Y777377D01*
X529655Y771500D01*
X442146Y754093D01*
X342912Y687788D01*
X326176Y662740D01*
X44627Y381191D01*
X19579Y364454D01*
X-14949Y312779D01*
X-46727Y265219D01*
X-70011Y148166D01*
X-2033202Y148166D01*
X-3070800Y1185763D01*
X-3070800Y1389748D01*
X-2968114Y1492434D01*
X-2895800Y1667017D01*
X-2895800Y1855983D01*
X-2968114Y2030566D01*
X-3101734Y2164186D01*
X-3276317Y2236500D01*
X-3395800Y2236500D01*
X-3395800Y2586502D01*
X-3276317Y2586502D01*
X-3101734Y2658816D01*
X-2968114Y2792436D01*
X-2895800Y2967019D01*
X-2895800Y3155985D01*
X-2968114Y3330568D01*
X-3070794Y3433248D01*
X-3070794Y4124748D01*
X-2968108Y4227434D01*
X-2895794Y4402017D01*
X-2895794Y4451500D01*
X629655Y4451500D01*
X659200Y4445623D01*
X688745Y4451500D01*
X776254Y4468907D01*
X875488Y4535212D01*
X892227Y4560264D01*
X1330439Y4998476D01*
X1355488Y5015212D01*
X1421793Y5114446D01*
X1439200Y5201955D01*
X1439200Y5201956D01*
X1445077Y5231500D01*
X1439200Y5261045D01*
X1439200Y6409748D01*
X1541886Y6512434D01*
X1614200Y6687017D01*
X1614200Y6875983D01*
X1541886Y7050566D01*
X1408266Y7184186D01*
X1233683Y7256500D01*
X1044717Y7256500D01*
X870134Y7184186D01*
X736514Y7050566D01*
X664200Y6875983D01*
X664200Y6690764D01*
X553298Y6801666D01*
X557216Y6804284D01*
X606945Y6878709D01*
X624408Y6966500D01*
X624408Y7766500D01*
X608401Y7846970D01*
X3375471Y7846970D01*
X3375470Y7123537D01*
X3375470Y7123537D01*
G37*
X3375470Y7123537D02*
X3370092Y7096500D01*
X3391399Y6989384D01*
X3428703Y6933554D01*
X3452075Y6898575D01*
X3542884Y6837899D01*
X3650000Y6816592D01*
X3677036Y6821970D01*
X4322964Y6821970D01*
X4350000Y6816592D01*
X4457116Y6837899D01*
X4547925Y6898575D01*
X4608601Y6989384D01*
X4624530Y7069463D01*
X4624530Y7069464D01*
X4629908Y7096500D01*
X4624530Y7123537D01*
X4624530Y7846970D01*
X9225071Y7846970D01*
X9225071Y5375934D01*
X8981074Y5619931D01*
X8993772Y5683770D01*
X8918056Y6064418D01*
X8702436Y6387116D01*
X8379738Y6602736D01*
X8095172Y6659340D01*
X5904028Y6659340D01*
X5619462Y6602736D01*
X5296764Y6387116D01*
X5081144Y6064418D01*
X5005428Y5683770D01*
X5081144Y5303122D01*
X5296764Y4980424D01*
X5619462Y4764804D01*
X5904028Y4708200D01*
X7842195Y4708200D01*
X8054200Y4496195D01*
X8054201Y-4553195D01*
X7867216Y-4740180D01*
X5904028Y-4740180D01*
X5619462Y-4796784D01*
X5296764Y-5012404D01*
X5081144Y-5335102D01*
X5005428Y-5715750D01*
X5081144Y-6096398D01*
X5296764Y-6419096D01*
X5619462Y-6634716D01*
X5904028Y-6691320D01*
X8095172Y-6691320D01*
X8379738Y-6634716D01*
X8702436Y-6419096D01*
X8918056Y-6096398D01*
X8993772Y-5715750D01*
X8985225Y-5672779D01*
X9225070Y-5432934D01*
X9225070Y-7878970D01*
X6713151Y-7878970D01*
X6804911Y-7840962D01*
X6966662Y-7679211D01*
X7054200Y-7467875D01*
X7054200Y-7239125D01*
X6966662Y-7027789D01*
X6804911Y-6866038D01*
X6593575Y-6778500D01*
X6364825Y-6778500D01*
X6153489Y-6866038D01*
X5991738Y-7027789D01*
X5904200Y-7239125D01*
X5904200Y-7467875D01*
X5991738Y-7679211D01*
X6153489Y-7840962D01*
X6245249Y-7878970D01*
X4624530Y-7878970D01*
X4624530Y-7130537D01*
X4629908Y-7103500D01*
X4608601Y-6996384D01*
X4547925Y-6905575D01*
X4457116Y-6844899D01*
X4377037Y-6828970D01*
X4350000Y-6823592D01*
X4322964Y-6828970D01*
X3719059Y-6828970D01*
X4838073Y-5709957D01*
X4869379Y-5689039D01*
X4952262Y-5564997D01*
X4974020Y-5455611D01*
X4974020Y-5455606D01*
X4981365Y-5418680D01*
X4974020Y-5381754D01*
X4974020Y-4344958D01*
X5598510Y-4344958D01*
X5686301Y-4327495D01*
X5760726Y-4277766D01*
X5810455Y-4203341D01*
X5827918Y-4115550D01*
X5827918Y-3476533D01*
X6298153Y-3006299D01*
X6331886Y-2972566D01*
X6350143Y-2928489D01*
X6376638Y-2888836D01*
X6385942Y-2842062D01*
X6404200Y-2797983D01*
X6404200Y-2766918D01*
X6560649Y-2923367D01*
X6845461Y-3041340D01*
X7153739Y-3041340D01*
X7438551Y-2923367D01*
X7656537Y-2705381D01*
X7774510Y-2420569D01*
X7774510Y-2112291D01*
X7656537Y-1827479D01*
X7438551Y-1609493D01*
X7153739Y-1491520D01*
X6845461Y-1491520D01*
X6560649Y-1609493D01*
X6342663Y-1827479D01*
X6224690Y-2112291D01*
X6224690Y-2327238D01*
X6198266Y-2300814D01*
X6154186Y-2282556D01*
X6114535Y-2256062D01*
X6067763Y-2246758D01*
X6023683Y-2228500D01*
X5975973Y-2228500D01*
X5929199Y-2219196D01*
X5882425Y-2228500D01*
X5834717Y-2228500D01*
X5790638Y-2246758D01*
X5743864Y-2256062D01*
X5704211Y-2282557D01*
X5660134Y-2300814D01*
X5626401Y-2334547D01*
X5273687Y-2687262D01*
X3599530Y-2687262D01*
X3511739Y-2704725D01*
X3437314Y-2754454D01*
X3387585Y-2828879D01*
X3370122Y-2916670D01*
X3370122Y-4115550D01*
X3387585Y-4203341D01*
X3437314Y-4277766D01*
X3511739Y-4327495D01*
X3599530Y-4344958D01*
X4224021Y-4344958D01*
X4224020Y-5231749D01*
X4224020Y-5263350D01*
X2373871Y-7113500D01*
X1425952Y-7113500D01*
X1431886Y-7107566D01*
X1504200Y-6932983D01*
X1504200Y-6744017D01*
X1431886Y-6569434D01*
X1298266Y-6435814D01*
X1123683Y-6363500D01*
X1029200Y-6363500D01*
X1029200Y-3562763D01*
X1270439Y-3321525D01*
X1295488Y-3304788D01*
X1361793Y-3205554D01*
X1379200Y-3118045D01*
X1379200Y-3118044D01*
X1385077Y-3088500D01*
X1379200Y-3058955D01*
X1379200Y-2618045D01*
X1385077Y-2588500D01*
X1361793Y-2471446D01*
X1344933Y-2446213D01*
X1295488Y-2372212D01*
X1270439Y-2355475D01*
X-937773Y-147264D01*
X-954512Y-122212D01*
X-1053746Y-55907D01*
X-1141255Y-38500D01*
X-1170800Y-32623D01*
X-1200345Y-38500D01*
X-1846536Y-38500D01*
X-2033202Y148166D01*
X-70011Y148166D01*
X-64133Y118617D01*
X-64134Y-290389D01*
X-70011Y-319934D01*
X-64134Y-349478D01*
X-46727Y-436987D01*
X19578Y-536222D01*
X44630Y-552961D01*
X2179201Y-2687533D01*
X2179200Y-4567634D01*
X2173323Y-4597179D01*
X2179200Y-4626723D01*
X2196607Y-4714232D01*
X2262912Y-4813467D01*
X2287964Y-4830206D01*
X2637496Y-5179739D01*
X2654233Y-5204788D01*
X2753467Y-5271093D01*
X2840976Y-5288500D01*
X2870520Y-5294377D01*
X2900064Y-5288500D01*
X2907454Y-5288500D01*
X3010140Y-5391186D01*
X3184723Y-5463500D01*
X3373689Y-5463500D01*
X3548272Y-5391186D01*
X3681892Y-5257566D01*
X3754206Y-5082983D01*
X3754206Y-4894017D01*
X3681892Y-4719434D01*
X3548272Y-4585814D01*
X3373689Y-4513500D01*
X3184723Y-4513500D01*
X3010140Y-4585814D01*
X2951119Y-4644835D01*
X2779200Y-4472916D01*
X2779200Y-2592811D01*
X2785077Y-2563267D01*
X2770204Y-2488500D01*
X2761793Y-2446214D01*
X2695488Y-2346980D01*
X2670439Y-2330243D01*
X2440070Y-2099874D01*
X2446979Y-2098500D01*
X3387675Y-2098500D01*
X3417220Y-2104377D01*
X3446765Y-2098500D01*
X3534274Y-2081093D01*
X3633508Y-2014788D01*
X3650247Y-1989736D01*
X3794385Y-1845598D01*
X4201179Y-1845598D01*
X4154200Y-1959017D01*
X4154200Y-2147983D01*
X4226514Y-2322566D01*
X4360134Y-2456186D01*
X4534717Y-2528500D01*
X4723683Y-2528500D01*
X4898266Y-2456186D01*
X5031886Y-2322566D01*
X5104200Y-2147983D01*
X5104200Y-1959017D01*
X5057221Y-1845598D01*
X5598510Y-1845598D01*
X5686301Y-1828135D01*
X5760726Y-1778406D01*
X5810455Y-1703981D01*
X5827918Y-1616190D01*
X5827918Y-417310D01*
X5810783Y-331168D01*
X5866543Y-320077D01*
X5953586Y-261916D01*
X5960837Y-254665D01*
X5981535Y-240835D01*
X5995365Y-220137D01*
X6253582Y38080D01*
X6282978Y57722D01*
X6360777Y174156D01*
X6378890Y265219D01*
X6388096Y311499D01*
X6381200Y346168D01*
X6381200Y1756962D01*
X6560649Y1577513D01*
X6845461Y1459540D01*
X7153739Y1459540D01*
X7438551Y1577513D01*
X7656537Y1795499D01*
X7774510Y2080311D01*
X7774510Y2388589D01*
X7656537Y2673401D01*
X7438551Y2891387D01*
X7153739Y3009360D01*
X6845461Y3009360D01*
X6560649Y2891387D01*
X6504200Y2834938D01*
X6504200Y2940983D01*
X6431886Y3115566D01*
X6298266Y3249186D01*
X6123683Y3321500D01*
X5934717Y3321500D01*
X5760134Y3249186D01*
X5626514Y3115566D01*
X5554200Y2940983D01*
X5554200Y2752017D01*
X5626514Y2577434D01*
X5654200Y2549748D01*
X5654200Y1817780D01*
X5598510Y1828858D01*
X5032476Y1828858D01*
X5104200Y2002017D01*
X5104200Y2190983D01*
X5031886Y2365566D01*
X4898266Y2499186D01*
X4723683Y2571500D01*
X4534717Y2571500D01*
X4360134Y2499186D01*
X4226514Y2365566D01*
X4154200Y2190983D01*
X4154200Y2002017D01*
X4225924Y1828858D01*
X3599530Y1828858D01*
X3511739Y1811395D01*
X3437314Y1761666D01*
X3387585Y1687241D01*
X3370122Y1599450D01*
X3370122Y1290091D01*
X3332476Y1282603D01*
X3233242Y1216298D01*
X3216506Y1191250D01*
X2955964Y930707D01*
X2991700Y1016983D01*
X2991700Y1205949D01*
X2919386Y1380532D01*
X2785766Y1514152D01*
X2611183Y1586466D01*
X2422217Y1586466D01*
X2247634Y1514152D01*
X2114014Y1380532D01*
X2041700Y1205949D01*
X2041700Y1060730D01*
X1752471Y771500D01*
X588743Y771500D01*
X559199Y777377D01*
X529655Y771500D01*
X442146Y754093D01*
X342912Y687788D01*
X326176Y662740D01*
X44627Y381191D01*
X19579Y364454D01*
X-14949Y312779D01*
X-46727Y265219D01*
X-70011Y148166D01*
X-2033202Y148166D01*
X-3070800Y1185763D01*
X-3070800Y1389748D01*
X-2968114Y1492434D01*
X-2895800Y1667017D01*
X-2895800Y1855983D01*
X-2968114Y2030566D01*
X-3101734Y2164186D01*
X-3276317Y2236500D01*
X-3395800Y2236500D01*
X-3395800Y2586502D01*
X-3276317Y2586502D01*
X-3101734Y2658816D01*
X-2968114Y2792436D01*
X-2895800Y2967019D01*
X-2895800Y3155985D01*
X-2968114Y3330568D01*
X-3070794Y3433248D01*
X-3070794Y4124748D01*
X-2968108Y4227434D01*
X-2895794Y4402017D01*
X-2895794Y4451500D01*
X629655Y4451500D01*
X659200Y4445623D01*
X688745Y4451500D01*
X776254Y4468907D01*
X875488Y4535212D01*
X892227Y4560264D01*
X1330439Y4998476D01*
X1355488Y5015212D01*
X1421793Y5114446D01*
X1439200Y5201955D01*
X1439200Y5201956D01*
X1445077Y5231500D01*
X1439200Y5261045D01*
X1439200Y6409748D01*
X1541886Y6512434D01*
X1614200Y6687017D01*
X1614200Y6875983D01*
X1541886Y7050566D01*
X1408266Y7184186D01*
X1233683Y7256500D01*
X1044717Y7256500D01*
X870134Y7184186D01*
X736514Y7050566D01*
X664200Y6875983D01*
X664200Y6690764D01*
X553298Y6801666D01*
X557216Y6804284D01*
X606945Y6878709D01*
X624408Y6966500D01*
X624408Y7766500D01*
X608401Y7846970D01*
X3375471Y7846970D01*
X3375470Y7123537D01*
D21*
G04 #@! TO.N,Net-(P1-Pad1)*
G36*
X-4791855Y7640445D02*
X-4629701Y7397764D01*
X-4570800Y7101649D01*
X-4570800Y1366758D01*
X-4568758Y1346651D01*
X-4487903Y952731D01*
X-4481860Y933446D01*
X-4338577Y599119D01*
X-4329469Y582448D01*
X-4117431Y269261D01*
X-4105335Y254613D01*
X-941367Y-2909355D01*
X-741119Y-3209047D01*
X-670800Y-3562565D01*
X-670800Y-5214435D01*
X-741119Y-5567953D01*
X-941367Y-5867645D01*
X-1141655Y-6067933D01*
X-1441347Y-6268181D01*
X-1794865Y-6338500D01*
X-4956586Y-6338500D01*
X-4976095Y-6340421D01*
X-5358779Y-6416541D01*
X-5394827Y-6431473D01*
X-5719250Y-6648246D01*
X-5734404Y-6660682D01*
X-6841655Y-7767933D01*
X-6895588Y-7803970D01*
X-11860226Y-7803970D01*
X-11905811Y-7773511D01*
X-11925470Y-7744089D01*
X-11925470Y5953325D01*
X-11894036Y5984759D01*
X-11607633Y6061500D01*
X-11385014Y6061500D01*
X-11365505Y6063421D01*
X-10982821Y6139541D01*
X-10946773Y6154473D01*
X-10888541Y6193382D01*
X-10689314Y6275905D01*
X-10450205Y6515014D01*
X-10402860Y6629315D01*
X-10263773Y6837473D01*
X-10248841Y6873521D01*
X-10172721Y7256205D01*
X-10170800Y7275714D01*
X-10170800Y7398333D01*
X-10107456Y7634736D01*
X-9970222Y7771970D01*
X-4988696Y7771970D01*
X-4791855Y7640445D01*
X-4791855Y7640445D01*
G37*
X-4791855Y7640445D02*
X-4629701Y7397764D01*
X-4570800Y7101649D01*
X-4570800Y1366758D01*
X-4568758Y1346651D01*
X-4487903Y952731D01*
X-4481860Y933446D01*
X-4338577Y599119D01*
X-4329469Y582448D01*
X-4117431Y269261D01*
X-4105335Y254613D01*
X-941367Y-2909355D01*
X-741119Y-3209047D01*
X-670800Y-3562565D01*
X-670800Y-5214435D01*
X-741119Y-5567953D01*
X-941367Y-5867645D01*
X-1141655Y-6067933D01*
X-1441347Y-6268181D01*
X-1794865Y-6338500D01*
X-4956586Y-6338500D01*
X-4976095Y-6340421D01*
X-5358779Y-6416541D01*
X-5394827Y-6431473D01*
X-5719250Y-6648246D01*
X-5734404Y-6660682D01*
X-6841655Y-7767933D01*
X-6895588Y-7803970D01*
X-11860226Y-7803970D01*
X-11905811Y-7773511D01*
X-11925470Y-7744089D01*
X-11925470Y5953325D01*
X-11894036Y5984759D01*
X-11607633Y6061500D01*
X-11385014Y6061500D01*
X-11365505Y6063421D01*
X-10982821Y6139541D01*
X-10946773Y6154473D01*
X-10888541Y6193382D01*
X-10689314Y6275905D01*
X-10450205Y6515014D01*
X-10402860Y6629315D01*
X-10263773Y6837473D01*
X-10248841Y6873521D01*
X-10172721Y7256205D01*
X-10170800Y7275714D01*
X-10170800Y7398333D01*
X-10107456Y7634736D01*
X-9970222Y7771970D01*
X-4988696Y7771970D01*
X-4791855Y7640445D01*
G04 #@! TD*
M02*
