M48
; DRILL file {KiCad 5.1.6-c6e7f7d~86~ubuntu18.04.1} date Thu Jun 25 15:29:42 2020
; FORMAT={-:-/ absolute / inch / decimal}
; #@! TF.CreationDate,2020-06-25T15:29:42+02:00
; #@! TF.GenerationSoftware,Kicad,Pcbnew,5.1.6-c6e7f7d~86~ubuntu18.04.1
; #@! TF.FileFunction,Plated,1,2,PTH
FMAT,2
INCH
T1C0.0079
T2C0.0394
%
G90
G05
T1
X4.774Y-4.1982
X4.8051Y-4.1837
X4.8508Y-3.5967
X4.8673Y-3.777
X4.8673Y-3.8281
X4.8673Y-3.7205
X4.8673Y-3.6929
X4.8675Y-3.6621
X4.9022Y-3.8622
X4.9066Y-3.6214
X4.9067Y-3.6677
X4.9067Y-3.5955
X4.945Y-4.0279
X4.948Y-3.9364
X4.9803Y-3.7392
X4.9803Y-3.7844
X5.0228Y-4.0073
X5.026Y-3.7392
X5.026Y-3.7844
X5.028Y-3.9011
X5.0405Y-4.1667
X5.0449Y-3.6305
X5.0474Y-4.1136
X5.0712Y-4.0073
X5.0991Y-3.8537
X5.0996Y-3.6673
X5.1051Y-3.9033
X5.1114Y-3.9482
X5.1189Y-4.0691
X5.1291Y-4.0939
X5.1508Y-3.6752
X5.1823Y-3.815
X5.1823Y-3.9783
X5.2216Y-3.7199
X5.2334Y-4.0039
X5.2374Y-3.7854
X5.3102Y-3.7868
T2
G00X5.3051Y-3.6737
M15
G01X5.2461Y-3.6737
M16
G05
G00X5.3051Y-4.1225
M15
G01X5.2461Y-4.1225
M16
G05
T0
M30
