G04 #@! TF.GenerationSoftware,KiCad,Pcbnew,(5.0.1)-4*
G04 #@! TF.CreationDate,2019-05-08T11:41:41+02:00*
G04 #@! TF.ProjectId,nk-fido2,6E6B2D6669646F322E6B696361645F70,R3*
G04 #@! TF.SameCoordinates,PX791ddc0PY5e69114*
G04 #@! TF.FileFunction,Paste,Top*
G04 #@! TF.FilePolarity,Positive*
%FSLAX46Y46*%
G04 Gerber Fmt 4.6, Leading zero omitted, Abs format (unit mm)*
G04 Created by KiCad (PCBNEW (5.0.1)-4) date 08.05.2019 11:41:41*
%MOMM*%
%LPD*%
G01*
G04 APERTURE LIST*
%ADD10C,0.150000*%
%ADD11C,0.930000*%
%ADD12C,0.200000*%
%ADD13R,2.480000X1.760000*%
%ADD14R,0.280000X0.480000*%
%ADD15R,1.904000X1.320000*%
%ADD16R,1.200000X1.040000*%
%ADD17R,0.240000X0.440000*%
%ADD18R,0.848000X0.520000*%
%ADD19C,0.472000*%
%ADD20R,0.080000X0.080000*%
%ADD21C,0.424000*%
%ADD22R,0.240000X0.360000*%
G04 APERTURE END LIST*
D10*
G04 #@! TO.C,L1*
G36*
X2399200Y-2588500D02*
X2399200Y-3018500D01*
X2499200Y-3018500D01*
X2699200Y-2818500D01*
X2699200Y-2588500D01*
X2399200Y-2588500D01*
G37*
G36*
X3359200Y-2588500D02*
X3359200Y-3018500D01*
X3259200Y-3018500D01*
X3059200Y-2818500D01*
X3059200Y-2588500D01*
X3359200Y-2588500D01*
G37*
G36*
X3359200Y-3888500D02*
X3359200Y-3458500D01*
X3259200Y-3458500D01*
X3059200Y-3658500D01*
X3059200Y-3888500D01*
X3359200Y-3888500D01*
G37*
G36*
X2399200Y-3888500D02*
X2699200Y-3888500D01*
X2699200Y-3658500D01*
X2399200Y-3358500D01*
X2399200Y-3888500D01*
G37*
G04 #@! TD*
G04 #@! TO.C,U1*
G36*
X1484489Y5060380D02*
X1507058Y5057033D01*
X1529191Y5051489D01*
X1550674Y5043802D01*
X1571300Y5034047D01*
X1590870Y5022317D01*
X1609196Y5008725D01*
X1626102Y4993402D01*
X1641425Y4976496D01*
X1655017Y4958170D01*
X1666747Y4938600D01*
X1676502Y4917974D01*
X1684189Y4896491D01*
X1689733Y4874358D01*
X1693080Y4851789D01*
X1694200Y4829000D01*
X1694200Y4364000D01*
X1693080Y4341211D01*
X1689733Y4318642D01*
X1684189Y4296509D01*
X1676502Y4275026D01*
X1666747Y4254400D01*
X1655017Y4234830D01*
X1641425Y4216504D01*
X1626102Y4199598D01*
X1609196Y4184275D01*
X1590870Y4170683D01*
X1571300Y4158953D01*
X1550674Y4149198D01*
X1529191Y4141511D01*
X1507058Y4135967D01*
X1484489Y4132620D01*
X1461700Y4131500D01*
X996700Y4131500D01*
X973911Y4132620D01*
X951342Y4135967D01*
X929209Y4141511D01*
X907726Y4149198D01*
X887100Y4158953D01*
X867530Y4170683D01*
X849204Y4184275D01*
X832298Y4199598D01*
X816975Y4216504D01*
X803383Y4234830D01*
X791653Y4254400D01*
X781898Y4275026D01*
X774211Y4296509D01*
X768667Y4318642D01*
X765320Y4341211D01*
X764200Y4364000D01*
X764200Y4829000D01*
X765320Y4851789D01*
X768667Y4874358D01*
X774211Y4896491D01*
X781898Y4917974D01*
X791653Y4938600D01*
X803383Y4958170D01*
X816975Y4976496D01*
X832298Y4993402D01*
X849204Y5008725D01*
X867530Y5022317D01*
X887100Y5034047D01*
X907726Y5043802D01*
X929209Y5051489D01*
X951342Y5057033D01*
X973911Y5060380D01*
X996700Y5061500D01*
X1461700Y5061500D01*
X1484489Y5060380D01*
X1484489Y5060380D01*
G37*
D11*
X1229200Y4596500D03*
D10*
G36*
X334489Y5060380D02*
X357058Y5057033D01*
X379191Y5051489D01*
X400674Y5043802D01*
X421300Y5034047D01*
X440870Y5022317D01*
X459196Y5008725D01*
X476102Y4993402D01*
X491425Y4976496D01*
X505017Y4958170D01*
X516747Y4938600D01*
X526502Y4917974D01*
X534189Y4896491D01*
X539733Y4874358D01*
X543080Y4851789D01*
X544200Y4829000D01*
X544200Y4364000D01*
X543080Y4341211D01*
X539733Y4318642D01*
X534189Y4296509D01*
X526502Y4275026D01*
X516747Y4254400D01*
X505017Y4234830D01*
X491425Y4216504D01*
X476102Y4199598D01*
X459196Y4184275D01*
X440870Y4170683D01*
X421300Y4158953D01*
X400674Y4149198D01*
X379191Y4141511D01*
X357058Y4135967D01*
X334489Y4132620D01*
X311700Y4131500D01*
X-153300Y4131500D01*
X-176089Y4132620D01*
X-198658Y4135967D01*
X-220791Y4141511D01*
X-242274Y4149198D01*
X-262900Y4158953D01*
X-282470Y4170683D01*
X-300796Y4184275D01*
X-317702Y4199598D01*
X-333025Y4216504D01*
X-346617Y4234830D01*
X-358347Y4254400D01*
X-368102Y4275026D01*
X-375789Y4296509D01*
X-381333Y4318642D01*
X-384680Y4341211D01*
X-385800Y4364000D01*
X-385800Y4829000D01*
X-384680Y4851789D01*
X-381333Y4874358D01*
X-375789Y4896491D01*
X-368102Y4917974D01*
X-358347Y4938600D01*
X-346617Y4958170D01*
X-333025Y4976496D01*
X-317702Y4993402D01*
X-300796Y5008725D01*
X-282470Y5022317D01*
X-262900Y5034047D01*
X-242274Y5043802D01*
X-220791Y5051489D01*
X-198658Y5057033D01*
X-176089Y5060380D01*
X-153300Y5061500D01*
X311700Y5061500D01*
X334489Y5060380D01*
X334489Y5060380D01*
G37*
D11*
X79200Y4596500D03*
D10*
G36*
X-815511Y5060380D02*
X-792942Y5057033D01*
X-770809Y5051489D01*
X-749326Y5043802D01*
X-728700Y5034047D01*
X-709130Y5022317D01*
X-690804Y5008725D01*
X-673898Y4993402D01*
X-658575Y4976496D01*
X-644983Y4958170D01*
X-633253Y4938600D01*
X-623498Y4917974D01*
X-615811Y4896491D01*
X-610267Y4874358D01*
X-606920Y4851789D01*
X-605800Y4829000D01*
X-605800Y4364000D01*
X-606920Y4341211D01*
X-610267Y4318642D01*
X-615811Y4296509D01*
X-623498Y4275026D01*
X-633253Y4254400D01*
X-644983Y4234830D01*
X-658575Y4216504D01*
X-673898Y4199598D01*
X-690804Y4184275D01*
X-709130Y4170683D01*
X-728700Y4158953D01*
X-749326Y4149198D01*
X-770809Y4141511D01*
X-792942Y4135967D01*
X-815511Y4132620D01*
X-838300Y4131500D01*
X-1303300Y4131500D01*
X-1326089Y4132620D01*
X-1348658Y4135967D01*
X-1370791Y4141511D01*
X-1392274Y4149198D01*
X-1412900Y4158953D01*
X-1432470Y4170683D01*
X-1450796Y4184275D01*
X-1467702Y4199598D01*
X-1483025Y4216504D01*
X-1496617Y4234830D01*
X-1508347Y4254400D01*
X-1518102Y4275026D01*
X-1525789Y4296509D01*
X-1531333Y4318642D01*
X-1534680Y4341211D01*
X-1535800Y4364000D01*
X-1535800Y4829000D01*
X-1534680Y4851789D01*
X-1531333Y4874358D01*
X-1525789Y4896491D01*
X-1518102Y4917974D01*
X-1508347Y4938600D01*
X-1496617Y4958170D01*
X-1483025Y4976496D01*
X-1467702Y4993402D01*
X-1450796Y5008725D01*
X-1432470Y5022317D01*
X-1412900Y5034047D01*
X-1392274Y5043802D01*
X-1370791Y5051489D01*
X-1348658Y5057033D01*
X-1326089Y5060380D01*
X-1303300Y5061500D01*
X-838300Y5061500D01*
X-815511Y5060380D01*
X-815511Y5060380D01*
G37*
D11*
X-1070800Y4596500D03*
D10*
G36*
X1484489Y3910380D02*
X1507058Y3907033D01*
X1529191Y3901489D01*
X1550674Y3893802D01*
X1571300Y3884047D01*
X1590870Y3872317D01*
X1609196Y3858725D01*
X1626102Y3843402D01*
X1641425Y3826496D01*
X1655017Y3808170D01*
X1666747Y3788600D01*
X1676502Y3767974D01*
X1684189Y3746491D01*
X1689733Y3724358D01*
X1693080Y3701789D01*
X1694200Y3679000D01*
X1694200Y3214000D01*
X1693080Y3191211D01*
X1689733Y3168642D01*
X1684189Y3146509D01*
X1676502Y3125026D01*
X1666747Y3104400D01*
X1655017Y3084830D01*
X1641425Y3066504D01*
X1626102Y3049598D01*
X1609196Y3034275D01*
X1590870Y3020683D01*
X1571300Y3008953D01*
X1550674Y2999198D01*
X1529191Y2991511D01*
X1507058Y2985967D01*
X1484489Y2982620D01*
X1461700Y2981500D01*
X996700Y2981500D01*
X973911Y2982620D01*
X951342Y2985967D01*
X929209Y2991511D01*
X907726Y2999198D01*
X887100Y3008953D01*
X867530Y3020683D01*
X849204Y3034275D01*
X832298Y3049598D01*
X816975Y3066504D01*
X803383Y3084830D01*
X791653Y3104400D01*
X781898Y3125026D01*
X774211Y3146509D01*
X768667Y3168642D01*
X765320Y3191211D01*
X764200Y3214000D01*
X764200Y3679000D01*
X765320Y3701789D01*
X768667Y3724358D01*
X774211Y3746491D01*
X781898Y3767974D01*
X791653Y3788600D01*
X803383Y3808170D01*
X816975Y3826496D01*
X832298Y3843402D01*
X849204Y3858725D01*
X867530Y3872317D01*
X887100Y3884047D01*
X907726Y3893802D01*
X929209Y3901489D01*
X951342Y3907033D01*
X973911Y3910380D01*
X996700Y3911500D01*
X1461700Y3911500D01*
X1484489Y3910380D01*
X1484489Y3910380D01*
G37*
D11*
X1229200Y3446500D03*
D10*
G36*
X334489Y3910380D02*
X357058Y3907033D01*
X379191Y3901489D01*
X400674Y3893802D01*
X421300Y3884047D01*
X440870Y3872317D01*
X459196Y3858725D01*
X476102Y3843402D01*
X491425Y3826496D01*
X505017Y3808170D01*
X516747Y3788600D01*
X526502Y3767974D01*
X534189Y3746491D01*
X539733Y3724358D01*
X543080Y3701789D01*
X544200Y3679000D01*
X544200Y3214000D01*
X543080Y3191211D01*
X539733Y3168642D01*
X534189Y3146509D01*
X526502Y3125026D01*
X516747Y3104400D01*
X505017Y3084830D01*
X491425Y3066504D01*
X476102Y3049598D01*
X459196Y3034275D01*
X440870Y3020683D01*
X421300Y3008953D01*
X400674Y2999198D01*
X379191Y2991511D01*
X357058Y2985967D01*
X334489Y2982620D01*
X311700Y2981500D01*
X-153300Y2981500D01*
X-176089Y2982620D01*
X-198658Y2985967D01*
X-220791Y2991511D01*
X-242274Y2999198D01*
X-262900Y3008953D01*
X-282470Y3020683D01*
X-300796Y3034275D01*
X-317702Y3049598D01*
X-333025Y3066504D01*
X-346617Y3084830D01*
X-358347Y3104400D01*
X-368102Y3125026D01*
X-375789Y3146509D01*
X-381333Y3168642D01*
X-384680Y3191211D01*
X-385800Y3214000D01*
X-385800Y3679000D01*
X-384680Y3701789D01*
X-381333Y3724358D01*
X-375789Y3746491D01*
X-368102Y3767974D01*
X-358347Y3788600D01*
X-346617Y3808170D01*
X-333025Y3826496D01*
X-317702Y3843402D01*
X-300796Y3858725D01*
X-282470Y3872317D01*
X-262900Y3884047D01*
X-242274Y3893802D01*
X-220791Y3901489D01*
X-198658Y3907033D01*
X-176089Y3910380D01*
X-153300Y3911500D01*
X311700Y3911500D01*
X334489Y3910380D01*
X334489Y3910380D01*
G37*
D11*
X79200Y3446500D03*
D10*
G36*
X-815511Y3910380D02*
X-792942Y3907033D01*
X-770809Y3901489D01*
X-749326Y3893802D01*
X-728700Y3884047D01*
X-709130Y3872317D01*
X-690804Y3858725D01*
X-673898Y3843402D01*
X-658575Y3826496D01*
X-644983Y3808170D01*
X-633253Y3788600D01*
X-623498Y3767974D01*
X-615811Y3746491D01*
X-610267Y3724358D01*
X-606920Y3701789D01*
X-605800Y3679000D01*
X-605800Y3214000D01*
X-606920Y3191211D01*
X-610267Y3168642D01*
X-615811Y3146509D01*
X-623498Y3125026D01*
X-633253Y3104400D01*
X-644983Y3084830D01*
X-658575Y3066504D01*
X-673898Y3049598D01*
X-690804Y3034275D01*
X-709130Y3020683D01*
X-728700Y3008953D01*
X-749326Y2999198D01*
X-770809Y2991511D01*
X-792942Y2985967D01*
X-815511Y2982620D01*
X-838300Y2981500D01*
X-1303300Y2981500D01*
X-1326089Y2982620D01*
X-1348658Y2985967D01*
X-1370791Y2991511D01*
X-1392274Y2999198D01*
X-1412900Y3008953D01*
X-1432470Y3020683D01*
X-1450796Y3034275D01*
X-1467702Y3049598D01*
X-1483025Y3066504D01*
X-1496617Y3084830D01*
X-1508347Y3104400D01*
X-1518102Y3125026D01*
X-1525789Y3146509D01*
X-1531333Y3168642D01*
X-1534680Y3191211D01*
X-1535800Y3214000D01*
X-1535800Y3679000D01*
X-1534680Y3701789D01*
X-1531333Y3724358D01*
X-1525789Y3746491D01*
X-1518102Y3767974D01*
X-1508347Y3788600D01*
X-1496617Y3808170D01*
X-1483025Y3826496D01*
X-1467702Y3843402D01*
X-1450796Y3858725D01*
X-1432470Y3872317D01*
X-1412900Y3884047D01*
X-1392274Y3893802D01*
X-1370791Y3901489D01*
X-1348658Y3907033D01*
X-1326089Y3910380D01*
X-1303300Y3911500D01*
X-838300Y3911500D01*
X-815511Y3910380D01*
X-815511Y3910380D01*
G37*
D11*
X-1070800Y3446500D03*
D10*
G36*
X1484489Y2760380D02*
X1507058Y2757033D01*
X1529191Y2751489D01*
X1550674Y2743802D01*
X1571300Y2734047D01*
X1590870Y2722317D01*
X1609196Y2708725D01*
X1626102Y2693402D01*
X1641425Y2676496D01*
X1655017Y2658170D01*
X1666747Y2638600D01*
X1676502Y2617974D01*
X1684189Y2596491D01*
X1689733Y2574358D01*
X1693080Y2551789D01*
X1694200Y2529000D01*
X1694200Y2064000D01*
X1693080Y2041211D01*
X1689733Y2018642D01*
X1684189Y1996509D01*
X1676502Y1975026D01*
X1666747Y1954400D01*
X1655017Y1934830D01*
X1641425Y1916504D01*
X1626102Y1899598D01*
X1609196Y1884275D01*
X1590870Y1870683D01*
X1571300Y1858953D01*
X1550674Y1849198D01*
X1529191Y1841511D01*
X1507058Y1835967D01*
X1484489Y1832620D01*
X1461700Y1831500D01*
X996700Y1831500D01*
X973911Y1832620D01*
X951342Y1835967D01*
X929209Y1841511D01*
X907726Y1849198D01*
X887100Y1858953D01*
X867530Y1870683D01*
X849204Y1884275D01*
X832298Y1899598D01*
X816975Y1916504D01*
X803383Y1934830D01*
X791653Y1954400D01*
X781898Y1975026D01*
X774211Y1996509D01*
X768667Y2018642D01*
X765320Y2041211D01*
X764200Y2064000D01*
X764200Y2529000D01*
X765320Y2551789D01*
X768667Y2574358D01*
X774211Y2596491D01*
X781898Y2617974D01*
X791653Y2638600D01*
X803383Y2658170D01*
X816975Y2676496D01*
X832298Y2693402D01*
X849204Y2708725D01*
X867530Y2722317D01*
X887100Y2734047D01*
X907726Y2743802D01*
X929209Y2751489D01*
X951342Y2757033D01*
X973911Y2760380D01*
X996700Y2761500D01*
X1461700Y2761500D01*
X1484489Y2760380D01*
X1484489Y2760380D01*
G37*
D11*
X1229200Y2296500D03*
D10*
G36*
X334489Y2760380D02*
X357058Y2757033D01*
X379191Y2751489D01*
X400674Y2743802D01*
X421300Y2734047D01*
X440870Y2722317D01*
X459196Y2708725D01*
X476102Y2693402D01*
X491425Y2676496D01*
X505017Y2658170D01*
X516747Y2638600D01*
X526502Y2617974D01*
X534189Y2596491D01*
X539733Y2574358D01*
X543080Y2551789D01*
X544200Y2529000D01*
X544200Y2064000D01*
X543080Y2041211D01*
X539733Y2018642D01*
X534189Y1996509D01*
X526502Y1975026D01*
X516747Y1954400D01*
X505017Y1934830D01*
X491425Y1916504D01*
X476102Y1899598D01*
X459196Y1884275D01*
X440870Y1870683D01*
X421300Y1858953D01*
X400674Y1849198D01*
X379191Y1841511D01*
X357058Y1835967D01*
X334489Y1832620D01*
X311700Y1831500D01*
X-153300Y1831500D01*
X-176089Y1832620D01*
X-198658Y1835967D01*
X-220791Y1841511D01*
X-242274Y1849198D01*
X-262900Y1858953D01*
X-282470Y1870683D01*
X-300796Y1884275D01*
X-317702Y1899598D01*
X-333025Y1916504D01*
X-346617Y1934830D01*
X-358347Y1954400D01*
X-368102Y1975026D01*
X-375789Y1996509D01*
X-381333Y2018642D01*
X-384680Y2041211D01*
X-385800Y2064000D01*
X-385800Y2529000D01*
X-384680Y2551789D01*
X-381333Y2574358D01*
X-375789Y2596491D01*
X-368102Y2617974D01*
X-358347Y2638600D01*
X-346617Y2658170D01*
X-333025Y2676496D01*
X-317702Y2693402D01*
X-300796Y2708725D01*
X-282470Y2722317D01*
X-262900Y2734047D01*
X-242274Y2743802D01*
X-220791Y2751489D01*
X-198658Y2757033D01*
X-176089Y2760380D01*
X-153300Y2761500D01*
X311700Y2761500D01*
X334489Y2760380D01*
X334489Y2760380D01*
G37*
D11*
X79200Y2296500D03*
D10*
G36*
X-815511Y2760380D02*
X-792942Y2757033D01*
X-770809Y2751489D01*
X-749326Y2743802D01*
X-728700Y2734047D01*
X-709130Y2722317D01*
X-690804Y2708725D01*
X-673898Y2693402D01*
X-658575Y2676496D01*
X-644983Y2658170D01*
X-633253Y2638600D01*
X-623498Y2617974D01*
X-615811Y2596491D01*
X-610267Y2574358D01*
X-606920Y2551789D01*
X-605800Y2529000D01*
X-605800Y2064000D01*
X-606920Y2041211D01*
X-610267Y2018642D01*
X-615811Y1996509D01*
X-623498Y1975026D01*
X-633253Y1954400D01*
X-644983Y1934830D01*
X-658575Y1916504D01*
X-673898Y1899598D01*
X-690804Y1884275D01*
X-709130Y1870683D01*
X-728700Y1858953D01*
X-749326Y1849198D01*
X-770809Y1841511D01*
X-792942Y1835967D01*
X-815511Y1832620D01*
X-838300Y1831500D01*
X-1303300Y1831500D01*
X-1326089Y1832620D01*
X-1348658Y1835967D01*
X-1370791Y1841511D01*
X-1392274Y1849198D01*
X-1412900Y1858953D01*
X-1432470Y1870683D01*
X-1450796Y1884275D01*
X-1467702Y1899598D01*
X-1483025Y1916504D01*
X-1496617Y1934830D01*
X-1508347Y1954400D01*
X-1518102Y1975026D01*
X-1525789Y1996509D01*
X-1531333Y2018642D01*
X-1534680Y2041211D01*
X-1535800Y2064000D01*
X-1535800Y2529000D01*
X-1534680Y2551789D01*
X-1531333Y2574358D01*
X-1525789Y2596491D01*
X-1518102Y2617974D01*
X-1508347Y2638600D01*
X-1496617Y2658170D01*
X-1483025Y2676496D01*
X-1467702Y2693402D01*
X-1450796Y2708725D01*
X-1432470Y2722317D01*
X-1412900Y2734047D01*
X-1392274Y2743802D01*
X-1370791Y2751489D01*
X-1348658Y2757033D01*
X-1326089Y2760380D01*
X-1303300Y2761500D01*
X-838300Y2761500D01*
X-815511Y2760380D01*
X-815511Y2760380D01*
G37*
D11*
X-1070800Y2296500D03*
D10*
G36*
X1884101Y6233759D02*
X1888955Y6233039D01*
X1893714Y6231847D01*
X1898334Y6230194D01*
X1902770Y6228096D01*
X1906979Y6225573D01*
X1910920Y6222651D01*
X1914555Y6219355D01*
X1917851Y6215720D01*
X1920773Y6211779D01*
X1923296Y6207570D01*
X1925394Y6203134D01*
X1927047Y6198514D01*
X1928239Y6193755D01*
X1928959Y6188901D01*
X1929200Y6184000D01*
X1929200Y5584000D01*
X1928959Y5579099D01*
X1928239Y5574245D01*
X1927047Y5569486D01*
X1925394Y5564866D01*
X1923296Y5560430D01*
X1920773Y5556221D01*
X1917851Y5552280D01*
X1914555Y5548645D01*
X1910920Y5545349D01*
X1906979Y5542427D01*
X1902770Y5539904D01*
X1898334Y5537806D01*
X1893714Y5536153D01*
X1888955Y5534961D01*
X1884101Y5534241D01*
X1879200Y5534000D01*
X1779200Y5534000D01*
X1774299Y5534241D01*
X1769445Y5534961D01*
X1764686Y5536153D01*
X1760066Y5537806D01*
X1755630Y5539904D01*
X1751421Y5542427D01*
X1747480Y5545349D01*
X1743845Y5548645D01*
X1740549Y5552280D01*
X1737627Y5556221D01*
X1735104Y5560430D01*
X1733006Y5564866D01*
X1731353Y5569486D01*
X1730161Y5574245D01*
X1729441Y5579099D01*
X1729200Y5584000D01*
X1729200Y6184000D01*
X1729441Y6188901D01*
X1730161Y6193755D01*
X1731353Y6198514D01*
X1733006Y6203134D01*
X1735104Y6207570D01*
X1737627Y6211779D01*
X1740549Y6215720D01*
X1743845Y6219355D01*
X1747480Y6222651D01*
X1751421Y6225573D01*
X1755630Y6228096D01*
X1760066Y6230194D01*
X1764686Y6231847D01*
X1769445Y6233039D01*
X1774299Y6233759D01*
X1779200Y6234000D01*
X1879200Y6234000D01*
X1884101Y6233759D01*
X1884101Y6233759D01*
G37*
D12*
X1829200Y5884000D03*
D10*
G36*
X1384101Y6233759D02*
X1388955Y6233039D01*
X1393714Y6231847D01*
X1398334Y6230194D01*
X1402770Y6228096D01*
X1406979Y6225573D01*
X1410920Y6222651D01*
X1414555Y6219355D01*
X1417851Y6215720D01*
X1420773Y6211779D01*
X1423296Y6207570D01*
X1425394Y6203134D01*
X1427047Y6198514D01*
X1428239Y6193755D01*
X1428959Y6188901D01*
X1429200Y6184000D01*
X1429200Y5584000D01*
X1428959Y5579099D01*
X1428239Y5574245D01*
X1427047Y5569486D01*
X1425394Y5564866D01*
X1423296Y5560430D01*
X1420773Y5556221D01*
X1417851Y5552280D01*
X1414555Y5548645D01*
X1410920Y5545349D01*
X1406979Y5542427D01*
X1402770Y5539904D01*
X1398334Y5537806D01*
X1393714Y5536153D01*
X1388955Y5534961D01*
X1384101Y5534241D01*
X1379200Y5534000D01*
X1279200Y5534000D01*
X1274299Y5534241D01*
X1269445Y5534961D01*
X1264686Y5536153D01*
X1260066Y5537806D01*
X1255630Y5539904D01*
X1251421Y5542427D01*
X1247480Y5545349D01*
X1243845Y5548645D01*
X1240549Y5552280D01*
X1237627Y5556221D01*
X1235104Y5560430D01*
X1233006Y5564866D01*
X1231353Y5569486D01*
X1230161Y5574245D01*
X1229441Y5579099D01*
X1229200Y5584000D01*
X1229200Y6184000D01*
X1229441Y6188901D01*
X1230161Y6193755D01*
X1231353Y6198514D01*
X1233006Y6203134D01*
X1235104Y6207570D01*
X1237627Y6211779D01*
X1240549Y6215720D01*
X1243845Y6219355D01*
X1247480Y6222651D01*
X1251421Y6225573D01*
X1255630Y6228096D01*
X1260066Y6230194D01*
X1264686Y6231847D01*
X1269445Y6233039D01*
X1274299Y6233759D01*
X1279200Y6234000D01*
X1379200Y6234000D01*
X1384101Y6233759D01*
X1384101Y6233759D01*
G37*
D12*
X1329200Y5884000D03*
D10*
G36*
X884101Y6233759D02*
X888955Y6233039D01*
X893714Y6231847D01*
X898334Y6230194D01*
X902770Y6228096D01*
X906979Y6225573D01*
X910920Y6222651D01*
X914555Y6219355D01*
X917851Y6215720D01*
X920773Y6211779D01*
X923296Y6207570D01*
X925394Y6203134D01*
X927047Y6198514D01*
X928239Y6193755D01*
X928959Y6188901D01*
X929200Y6184000D01*
X929200Y5584000D01*
X928959Y5579099D01*
X928239Y5574245D01*
X927047Y5569486D01*
X925394Y5564866D01*
X923296Y5560430D01*
X920773Y5556221D01*
X917851Y5552280D01*
X914555Y5548645D01*
X910920Y5545349D01*
X906979Y5542427D01*
X902770Y5539904D01*
X898334Y5537806D01*
X893714Y5536153D01*
X888955Y5534961D01*
X884101Y5534241D01*
X879200Y5534000D01*
X779200Y5534000D01*
X774299Y5534241D01*
X769445Y5534961D01*
X764686Y5536153D01*
X760066Y5537806D01*
X755630Y5539904D01*
X751421Y5542427D01*
X747480Y5545349D01*
X743845Y5548645D01*
X740549Y5552280D01*
X737627Y5556221D01*
X735104Y5560430D01*
X733006Y5564866D01*
X731353Y5569486D01*
X730161Y5574245D01*
X729441Y5579099D01*
X729200Y5584000D01*
X729200Y6184000D01*
X729441Y6188901D01*
X730161Y6193755D01*
X731353Y6198514D01*
X733006Y6203134D01*
X735104Y6207570D01*
X737627Y6211779D01*
X740549Y6215720D01*
X743845Y6219355D01*
X747480Y6222651D01*
X751421Y6225573D01*
X755630Y6228096D01*
X760066Y6230194D01*
X764686Y6231847D01*
X769445Y6233039D01*
X774299Y6233759D01*
X779200Y6234000D01*
X879200Y6234000D01*
X884101Y6233759D01*
X884101Y6233759D01*
G37*
D12*
X829200Y5884000D03*
D10*
G36*
X384101Y6233759D02*
X388955Y6233039D01*
X393714Y6231847D01*
X398334Y6230194D01*
X402770Y6228096D01*
X406979Y6225573D01*
X410920Y6222651D01*
X414555Y6219355D01*
X417851Y6215720D01*
X420773Y6211779D01*
X423296Y6207570D01*
X425394Y6203134D01*
X427047Y6198514D01*
X428239Y6193755D01*
X428959Y6188901D01*
X429200Y6184000D01*
X429200Y5584000D01*
X428959Y5579099D01*
X428239Y5574245D01*
X427047Y5569486D01*
X425394Y5564866D01*
X423296Y5560430D01*
X420773Y5556221D01*
X417851Y5552280D01*
X414555Y5548645D01*
X410920Y5545349D01*
X406979Y5542427D01*
X402770Y5539904D01*
X398334Y5537806D01*
X393714Y5536153D01*
X388955Y5534961D01*
X384101Y5534241D01*
X379200Y5534000D01*
X279200Y5534000D01*
X274299Y5534241D01*
X269445Y5534961D01*
X264686Y5536153D01*
X260066Y5537806D01*
X255630Y5539904D01*
X251421Y5542427D01*
X247480Y5545349D01*
X243845Y5548645D01*
X240549Y5552280D01*
X237627Y5556221D01*
X235104Y5560430D01*
X233006Y5564866D01*
X231353Y5569486D01*
X230161Y5574245D01*
X229441Y5579099D01*
X229200Y5584000D01*
X229200Y6184000D01*
X229441Y6188901D01*
X230161Y6193755D01*
X231353Y6198514D01*
X233006Y6203134D01*
X235104Y6207570D01*
X237627Y6211779D01*
X240549Y6215720D01*
X243845Y6219355D01*
X247480Y6222651D01*
X251421Y6225573D01*
X255630Y6228096D01*
X260066Y6230194D01*
X264686Y6231847D01*
X269445Y6233039D01*
X274299Y6233759D01*
X279200Y6234000D01*
X379200Y6234000D01*
X384101Y6233759D01*
X384101Y6233759D01*
G37*
D12*
X329200Y5884000D03*
D10*
G36*
X-115899Y6233759D02*
X-111045Y6233039D01*
X-106286Y6231847D01*
X-101666Y6230194D01*
X-97230Y6228096D01*
X-93021Y6225573D01*
X-89080Y6222651D01*
X-85445Y6219355D01*
X-82149Y6215720D01*
X-79227Y6211779D01*
X-76704Y6207570D01*
X-74606Y6203134D01*
X-72953Y6198514D01*
X-71761Y6193755D01*
X-71041Y6188901D01*
X-70800Y6184000D01*
X-70800Y5584000D01*
X-71041Y5579099D01*
X-71761Y5574245D01*
X-72953Y5569486D01*
X-74606Y5564866D01*
X-76704Y5560430D01*
X-79227Y5556221D01*
X-82149Y5552280D01*
X-85445Y5548645D01*
X-89080Y5545349D01*
X-93021Y5542427D01*
X-97230Y5539904D01*
X-101666Y5537806D01*
X-106286Y5536153D01*
X-111045Y5534961D01*
X-115899Y5534241D01*
X-120800Y5534000D01*
X-220800Y5534000D01*
X-225701Y5534241D01*
X-230555Y5534961D01*
X-235314Y5536153D01*
X-239934Y5537806D01*
X-244370Y5539904D01*
X-248579Y5542427D01*
X-252520Y5545349D01*
X-256155Y5548645D01*
X-259451Y5552280D01*
X-262373Y5556221D01*
X-264896Y5560430D01*
X-266994Y5564866D01*
X-268647Y5569486D01*
X-269839Y5574245D01*
X-270559Y5579099D01*
X-270800Y5584000D01*
X-270800Y6184000D01*
X-270559Y6188901D01*
X-269839Y6193755D01*
X-268647Y6198514D01*
X-266994Y6203134D01*
X-264896Y6207570D01*
X-262373Y6211779D01*
X-259451Y6215720D01*
X-256155Y6219355D01*
X-252520Y6222651D01*
X-248579Y6225573D01*
X-244370Y6228096D01*
X-239934Y6230194D01*
X-235314Y6231847D01*
X-230555Y6233039D01*
X-225701Y6233759D01*
X-220800Y6234000D01*
X-120800Y6234000D01*
X-115899Y6233759D01*
X-115899Y6233759D01*
G37*
D12*
X-170800Y5884000D03*
D10*
G36*
X-615899Y6233759D02*
X-611045Y6233039D01*
X-606286Y6231847D01*
X-601666Y6230194D01*
X-597230Y6228096D01*
X-593021Y6225573D01*
X-589080Y6222651D01*
X-585445Y6219355D01*
X-582149Y6215720D01*
X-579227Y6211779D01*
X-576704Y6207570D01*
X-574606Y6203134D01*
X-572953Y6198514D01*
X-571761Y6193755D01*
X-571041Y6188901D01*
X-570800Y6184000D01*
X-570800Y5584000D01*
X-571041Y5579099D01*
X-571761Y5574245D01*
X-572953Y5569486D01*
X-574606Y5564866D01*
X-576704Y5560430D01*
X-579227Y5556221D01*
X-582149Y5552280D01*
X-585445Y5548645D01*
X-589080Y5545349D01*
X-593021Y5542427D01*
X-597230Y5539904D01*
X-601666Y5537806D01*
X-606286Y5536153D01*
X-611045Y5534961D01*
X-615899Y5534241D01*
X-620800Y5534000D01*
X-720800Y5534000D01*
X-725701Y5534241D01*
X-730555Y5534961D01*
X-735314Y5536153D01*
X-739934Y5537806D01*
X-744370Y5539904D01*
X-748579Y5542427D01*
X-752520Y5545349D01*
X-756155Y5548645D01*
X-759451Y5552280D01*
X-762373Y5556221D01*
X-764896Y5560430D01*
X-766994Y5564866D01*
X-768647Y5569486D01*
X-769839Y5574245D01*
X-770559Y5579099D01*
X-770800Y5584000D01*
X-770800Y6184000D01*
X-770559Y6188901D01*
X-769839Y6193755D01*
X-768647Y6198514D01*
X-766994Y6203134D01*
X-764896Y6207570D01*
X-762373Y6211779D01*
X-759451Y6215720D01*
X-756155Y6219355D01*
X-752520Y6222651D01*
X-748579Y6225573D01*
X-744370Y6228096D01*
X-739934Y6230194D01*
X-735314Y6231847D01*
X-730555Y6233039D01*
X-725701Y6233759D01*
X-720800Y6234000D01*
X-620800Y6234000D01*
X-615899Y6233759D01*
X-615899Y6233759D01*
G37*
D12*
X-670800Y5884000D03*
D10*
G36*
X-1115899Y6233759D02*
X-1111045Y6233039D01*
X-1106286Y6231847D01*
X-1101666Y6230194D01*
X-1097230Y6228096D01*
X-1093021Y6225573D01*
X-1089080Y6222651D01*
X-1085445Y6219355D01*
X-1082149Y6215720D01*
X-1079227Y6211779D01*
X-1076704Y6207570D01*
X-1074606Y6203134D01*
X-1072953Y6198514D01*
X-1071761Y6193755D01*
X-1071041Y6188901D01*
X-1070800Y6184000D01*
X-1070800Y5584000D01*
X-1071041Y5579099D01*
X-1071761Y5574245D01*
X-1072953Y5569486D01*
X-1074606Y5564866D01*
X-1076704Y5560430D01*
X-1079227Y5556221D01*
X-1082149Y5552280D01*
X-1085445Y5548645D01*
X-1089080Y5545349D01*
X-1093021Y5542427D01*
X-1097230Y5539904D01*
X-1101666Y5537806D01*
X-1106286Y5536153D01*
X-1111045Y5534961D01*
X-1115899Y5534241D01*
X-1120800Y5534000D01*
X-1220800Y5534000D01*
X-1225701Y5534241D01*
X-1230555Y5534961D01*
X-1235314Y5536153D01*
X-1239934Y5537806D01*
X-1244370Y5539904D01*
X-1248579Y5542427D01*
X-1252520Y5545349D01*
X-1256155Y5548645D01*
X-1259451Y5552280D01*
X-1262373Y5556221D01*
X-1264896Y5560430D01*
X-1266994Y5564866D01*
X-1268647Y5569486D01*
X-1269839Y5574245D01*
X-1270559Y5579099D01*
X-1270800Y5584000D01*
X-1270800Y6184000D01*
X-1270559Y6188901D01*
X-1269839Y6193755D01*
X-1268647Y6198514D01*
X-1266994Y6203134D01*
X-1264896Y6207570D01*
X-1262373Y6211779D01*
X-1259451Y6215720D01*
X-1256155Y6219355D01*
X-1252520Y6222651D01*
X-1248579Y6225573D01*
X-1244370Y6228096D01*
X-1239934Y6230194D01*
X-1235314Y6231847D01*
X-1230555Y6233039D01*
X-1225701Y6233759D01*
X-1220800Y6234000D01*
X-1120800Y6234000D01*
X-1115899Y6233759D01*
X-1115899Y6233759D01*
G37*
D12*
X-1170800Y5884000D03*
D10*
G36*
X-1615899Y6233759D02*
X-1611045Y6233039D01*
X-1606286Y6231847D01*
X-1601666Y6230194D01*
X-1597230Y6228096D01*
X-1593021Y6225573D01*
X-1589080Y6222651D01*
X-1585445Y6219355D01*
X-1582149Y6215720D01*
X-1579227Y6211779D01*
X-1576704Y6207570D01*
X-1574606Y6203134D01*
X-1572953Y6198514D01*
X-1571761Y6193755D01*
X-1571041Y6188901D01*
X-1570800Y6184000D01*
X-1570800Y5584000D01*
X-1571041Y5579099D01*
X-1571761Y5574245D01*
X-1572953Y5569486D01*
X-1574606Y5564866D01*
X-1576704Y5560430D01*
X-1579227Y5556221D01*
X-1582149Y5552280D01*
X-1585445Y5548645D01*
X-1589080Y5545349D01*
X-1593021Y5542427D01*
X-1597230Y5539904D01*
X-1601666Y5537806D01*
X-1606286Y5536153D01*
X-1611045Y5534961D01*
X-1615899Y5534241D01*
X-1620800Y5534000D01*
X-1720800Y5534000D01*
X-1725701Y5534241D01*
X-1730555Y5534961D01*
X-1735314Y5536153D01*
X-1739934Y5537806D01*
X-1744370Y5539904D01*
X-1748579Y5542427D01*
X-1752520Y5545349D01*
X-1756155Y5548645D01*
X-1759451Y5552280D01*
X-1762373Y5556221D01*
X-1764896Y5560430D01*
X-1766994Y5564866D01*
X-1768647Y5569486D01*
X-1769839Y5574245D01*
X-1770559Y5579099D01*
X-1770800Y5584000D01*
X-1770800Y6184000D01*
X-1770559Y6188901D01*
X-1769839Y6193755D01*
X-1768647Y6198514D01*
X-1766994Y6203134D01*
X-1764896Y6207570D01*
X-1762373Y6211779D01*
X-1759451Y6215720D01*
X-1756155Y6219355D01*
X-1752520Y6222651D01*
X-1748579Y6225573D01*
X-1744370Y6228096D01*
X-1739934Y6230194D01*
X-1735314Y6231847D01*
X-1730555Y6233039D01*
X-1725701Y6233759D01*
X-1720800Y6234000D01*
X-1620800Y6234000D01*
X-1615899Y6233759D01*
X-1615899Y6233759D01*
G37*
D12*
X-1670800Y5884000D03*
D10*
G36*
X-2053399Y5296259D02*
X-2048545Y5295539D01*
X-2043786Y5294347D01*
X-2039166Y5292694D01*
X-2034730Y5290596D01*
X-2030521Y5288073D01*
X-2026580Y5285151D01*
X-2022945Y5281855D01*
X-2019649Y5278220D01*
X-2016727Y5274279D01*
X-2014204Y5270070D01*
X-2012106Y5265634D01*
X-2010453Y5261014D01*
X-2009261Y5256255D01*
X-2008541Y5251401D01*
X-2008300Y5246500D01*
X-2008300Y5146500D01*
X-2008541Y5141599D01*
X-2009261Y5136745D01*
X-2010453Y5131986D01*
X-2012106Y5127366D01*
X-2014204Y5122930D01*
X-2016727Y5118721D01*
X-2019649Y5114780D01*
X-2022945Y5111145D01*
X-2026580Y5107849D01*
X-2030521Y5104927D01*
X-2034730Y5102404D01*
X-2039166Y5100306D01*
X-2043786Y5098653D01*
X-2048545Y5097461D01*
X-2053399Y5096741D01*
X-2058300Y5096500D01*
X-2658300Y5096500D01*
X-2663201Y5096741D01*
X-2668055Y5097461D01*
X-2672814Y5098653D01*
X-2677434Y5100306D01*
X-2681870Y5102404D01*
X-2686079Y5104927D01*
X-2690020Y5107849D01*
X-2693655Y5111145D01*
X-2696951Y5114780D01*
X-2699873Y5118721D01*
X-2702396Y5122930D01*
X-2704494Y5127366D01*
X-2706147Y5131986D01*
X-2707339Y5136745D01*
X-2708059Y5141599D01*
X-2708300Y5146500D01*
X-2708300Y5246500D01*
X-2708059Y5251401D01*
X-2707339Y5256255D01*
X-2706147Y5261014D01*
X-2704494Y5265634D01*
X-2702396Y5270070D01*
X-2699873Y5274279D01*
X-2696951Y5278220D01*
X-2693655Y5281855D01*
X-2690020Y5285151D01*
X-2686079Y5288073D01*
X-2681870Y5290596D01*
X-2677434Y5292694D01*
X-2672814Y5294347D01*
X-2668055Y5295539D01*
X-2663201Y5296259D01*
X-2658300Y5296500D01*
X-2058300Y5296500D01*
X-2053399Y5296259D01*
X-2053399Y5296259D01*
G37*
D12*
X-2358300Y5196500D03*
D10*
G36*
X-2053399Y4796259D02*
X-2048545Y4795539D01*
X-2043786Y4794347D01*
X-2039166Y4792694D01*
X-2034730Y4790596D01*
X-2030521Y4788073D01*
X-2026580Y4785151D01*
X-2022945Y4781855D01*
X-2019649Y4778220D01*
X-2016727Y4774279D01*
X-2014204Y4770070D01*
X-2012106Y4765634D01*
X-2010453Y4761014D01*
X-2009261Y4756255D01*
X-2008541Y4751401D01*
X-2008300Y4746500D01*
X-2008300Y4646500D01*
X-2008541Y4641599D01*
X-2009261Y4636745D01*
X-2010453Y4631986D01*
X-2012106Y4627366D01*
X-2014204Y4622930D01*
X-2016727Y4618721D01*
X-2019649Y4614780D01*
X-2022945Y4611145D01*
X-2026580Y4607849D01*
X-2030521Y4604927D01*
X-2034730Y4602404D01*
X-2039166Y4600306D01*
X-2043786Y4598653D01*
X-2048545Y4597461D01*
X-2053399Y4596741D01*
X-2058300Y4596500D01*
X-2658300Y4596500D01*
X-2663201Y4596741D01*
X-2668055Y4597461D01*
X-2672814Y4598653D01*
X-2677434Y4600306D01*
X-2681870Y4602404D01*
X-2686079Y4604927D01*
X-2690020Y4607849D01*
X-2693655Y4611145D01*
X-2696951Y4614780D01*
X-2699873Y4618721D01*
X-2702396Y4622930D01*
X-2704494Y4627366D01*
X-2706147Y4631986D01*
X-2707339Y4636745D01*
X-2708059Y4641599D01*
X-2708300Y4646500D01*
X-2708300Y4746500D01*
X-2708059Y4751401D01*
X-2707339Y4756255D01*
X-2706147Y4761014D01*
X-2704494Y4765634D01*
X-2702396Y4770070D01*
X-2699873Y4774279D01*
X-2696951Y4778220D01*
X-2693655Y4781855D01*
X-2690020Y4785151D01*
X-2686079Y4788073D01*
X-2681870Y4790596D01*
X-2677434Y4792694D01*
X-2672814Y4794347D01*
X-2668055Y4795539D01*
X-2663201Y4796259D01*
X-2658300Y4796500D01*
X-2058300Y4796500D01*
X-2053399Y4796259D01*
X-2053399Y4796259D01*
G37*
D12*
X-2358300Y4696500D03*
D10*
G36*
X-2053399Y4296259D02*
X-2048545Y4295539D01*
X-2043786Y4294347D01*
X-2039166Y4292694D01*
X-2034730Y4290596D01*
X-2030521Y4288073D01*
X-2026580Y4285151D01*
X-2022945Y4281855D01*
X-2019649Y4278220D01*
X-2016727Y4274279D01*
X-2014204Y4270070D01*
X-2012106Y4265634D01*
X-2010453Y4261014D01*
X-2009261Y4256255D01*
X-2008541Y4251401D01*
X-2008300Y4246500D01*
X-2008300Y4146500D01*
X-2008541Y4141599D01*
X-2009261Y4136745D01*
X-2010453Y4131986D01*
X-2012106Y4127366D01*
X-2014204Y4122930D01*
X-2016727Y4118721D01*
X-2019649Y4114780D01*
X-2022945Y4111145D01*
X-2026580Y4107849D01*
X-2030521Y4104927D01*
X-2034730Y4102404D01*
X-2039166Y4100306D01*
X-2043786Y4098653D01*
X-2048545Y4097461D01*
X-2053399Y4096741D01*
X-2058300Y4096500D01*
X-2658300Y4096500D01*
X-2663201Y4096741D01*
X-2668055Y4097461D01*
X-2672814Y4098653D01*
X-2677434Y4100306D01*
X-2681870Y4102404D01*
X-2686079Y4104927D01*
X-2690020Y4107849D01*
X-2693655Y4111145D01*
X-2696951Y4114780D01*
X-2699873Y4118721D01*
X-2702396Y4122930D01*
X-2704494Y4127366D01*
X-2706147Y4131986D01*
X-2707339Y4136745D01*
X-2708059Y4141599D01*
X-2708300Y4146500D01*
X-2708300Y4246500D01*
X-2708059Y4251401D01*
X-2707339Y4256255D01*
X-2706147Y4261014D01*
X-2704494Y4265634D01*
X-2702396Y4270070D01*
X-2699873Y4274279D01*
X-2696951Y4278220D01*
X-2693655Y4281855D01*
X-2690020Y4285151D01*
X-2686079Y4288073D01*
X-2681870Y4290596D01*
X-2677434Y4292694D01*
X-2672814Y4294347D01*
X-2668055Y4295539D01*
X-2663201Y4296259D01*
X-2658300Y4296500D01*
X-2058300Y4296500D01*
X-2053399Y4296259D01*
X-2053399Y4296259D01*
G37*
D12*
X-2358300Y4196500D03*
D10*
G36*
X-2053399Y3796259D02*
X-2048545Y3795539D01*
X-2043786Y3794347D01*
X-2039166Y3792694D01*
X-2034730Y3790596D01*
X-2030521Y3788073D01*
X-2026580Y3785151D01*
X-2022945Y3781855D01*
X-2019649Y3778220D01*
X-2016727Y3774279D01*
X-2014204Y3770070D01*
X-2012106Y3765634D01*
X-2010453Y3761014D01*
X-2009261Y3756255D01*
X-2008541Y3751401D01*
X-2008300Y3746500D01*
X-2008300Y3646500D01*
X-2008541Y3641599D01*
X-2009261Y3636745D01*
X-2010453Y3631986D01*
X-2012106Y3627366D01*
X-2014204Y3622930D01*
X-2016727Y3618721D01*
X-2019649Y3614780D01*
X-2022945Y3611145D01*
X-2026580Y3607849D01*
X-2030521Y3604927D01*
X-2034730Y3602404D01*
X-2039166Y3600306D01*
X-2043786Y3598653D01*
X-2048545Y3597461D01*
X-2053399Y3596741D01*
X-2058300Y3596500D01*
X-2658300Y3596500D01*
X-2663201Y3596741D01*
X-2668055Y3597461D01*
X-2672814Y3598653D01*
X-2677434Y3600306D01*
X-2681870Y3602404D01*
X-2686079Y3604927D01*
X-2690020Y3607849D01*
X-2693655Y3611145D01*
X-2696951Y3614780D01*
X-2699873Y3618721D01*
X-2702396Y3622930D01*
X-2704494Y3627366D01*
X-2706147Y3631986D01*
X-2707339Y3636745D01*
X-2708059Y3641599D01*
X-2708300Y3646500D01*
X-2708300Y3746500D01*
X-2708059Y3751401D01*
X-2707339Y3756255D01*
X-2706147Y3761014D01*
X-2704494Y3765634D01*
X-2702396Y3770070D01*
X-2699873Y3774279D01*
X-2696951Y3778220D01*
X-2693655Y3781855D01*
X-2690020Y3785151D01*
X-2686079Y3788073D01*
X-2681870Y3790596D01*
X-2677434Y3792694D01*
X-2672814Y3794347D01*
X-2668055Y3795539D01*
X-2663201Y3796259D01*
X-2658300Y3796500D01*
X-2058300Y3796500D01*
X-2053399Y3796259D01*
X-2053399Y3796259D01*
G37*
D12*
X-2358300Y3696500D03*
D10*
G36*
X-2053399Y3296259D02*
X-2048545Y3295539D01*
X-2043786Y3294347D01*
X-2039166Y3292694D01*
X-2034730Y3290596D01*
X-2030521Y3288073D01*
X-2026580Y3285151D01*
X-2022945Y3281855D01*
X-2019649Y3278220D01*
X-2016727Y3274279D01*
X-2014204Y3270070D01*
X-2012106Y3265634D01*
X-2010453Y3261014D01*
X-2009261Y3256255D01*
X-2008541Y3251401D01*
X-2008300Y3246500D01*
X-2008300Y3146500D01*
X-2008541Y3141599D01*
X-2009261Y3136745D01*
X-2010453Y3131986D01*
X-2012106Y3127366D01*
X-2014204Y3122930D01*
X-2016727Y3118721D01*
X-2019649Y3114780D01*
X-2022945Y3111145D01*
X-2026580Y3107849D01*
X-2030521Y3104927D01*
X-2034730Y3102404D01*
X-2039166Y3100306D01*
X-2043786Y3098653D01*
X-2048545Y3097461D01*
X-2053399Y3096741D01*
X-2058300Y3096500D01*
X-2658300Y3096500D01*
X-2663201Y3096741D01*
X-2668055Y3097461D01*
X-2672814Y3098653D01*
X-2677434Y3100306D01*
X-2681870Y3102404D01*
X-2686079Y3104927D01*
X-2690020Y3107849D01*
X-2693655Y3111145D01*
X-2696951Y3114780D01*
X-2699873Y3118721D01*
X-2702396Y3122930D01*
X-2704494Y3127366D01*
X-2706147Y3131986D01*
X-2707339Y3136745D01*
X-2708059Y3141599D01*
X-2708300Y3146500D01*
X-2708300Y3246500D01*
X-2708059Y3251401D01*
X-2707339Y3256255D01*
X-2706147Y3261014D01*
X-2704494Y3265634D01*
X-2702396Y3270070D01*
X-2699873Y3274279D01*
X-2696951Y3278220D01*
X-2693655Y3281855D01*
X-2690020Y3285151D01*
X-2686079Y3288073D01*
X-2681870Y3290596D01*
X-2677434Y3292694D01*
X-2672814Y3294347D01*
X-2668055Y3295539D01*
X-2663201Y3296259D01*
X-2658300Y3296500D01*
X-2058300Y3296500D01*
X-2053399Y3296259D01*
X-2053399Y3296259D01*
G37*
D12*
X-2358300Y3196500D03*
D10*
G36*
X-2053399Y2796259D02*
X-2048545Y2795539D01*
X-2043786Y2794347D01*
X-2039166Y2792694D01*
X-2034730Y2790596D01*
X-2030521Y2788073D01*
X-2026580Y2785151D01*
X-2022945Y2781855D01*
X-2019649Y2778220D01*
X-2016727Y2774279D01*
X-2014204Y2770070D01*
X-2012106Y2765634D01*
X-2010453Y2761014D01*
X-2009261Y2756255D01*
X-2008541Y2751401D01*
X-2008300Y2746500D01*
X-2008300Y2646500D01*
X-2008541Y2641599D01*
X-2009261Y2636745D01*
X-2010453Y2631986D01*
X-2012106Y2627366D01*
X-2014204Y2622930D01*
X-2016727Y2618721D01*
X-2019649Y2614780D01*
X-2022945Y2611145D01*
X-2026580Y2607849D01*
X-2030521Y2604927D01*
X-2034730Y2602404D01*
X-2039166Y2600306D01*
X-2043786Y2598653D01*
X-2048545Y2597461D01*
X-2053399Y2596741D01*
X-2058300Y2596500D01*
X-2658300Y2596500D01*
X-2663201Y2596741D01*
X-2668055Y2597461D01*
X-2672814Y2598653D01*
X-2677434Y2600306D01*
X-2681870Y2602404D01*
X-2686079Y2604927D01*
X-2690020Y2607849D01*
X-2693655Y2611145D01*
X-2696951Y2614780D01*
X-2699873Y2618721D01*
X-2702396Y2622930D01*
X-2704494Y2627366D01*
X-2706147Y2631986D01*
X-2707339Y2636745D01*
X-2708059Y2641599D01*
X-2708300Y2646500D01*
X-2708300Y2746500D01*
X-2708059Y2751401D01*
X-2707339Y2756255D01*
X-2706147Y2761014D01*
X-2704494Y2765634D01*
X-2702396Y2770070D01*
X-2699873Y2774279D01*
X-2696951Y2778220D01*
X-2693655Y2781855D01*
X-2690020Y2785151D01*
X-2686079Y2788073D01*
X-2681870Y2790596D01*
X-2677434Y2792694D01*
X-2672814Y2794347D01*
X-2668055Y2795539D01*
X-2663201Y2796259D01*
X-2658300Y2796500D01*
X-2058300Y2796500D01*
X-2053399Y2796259D01*
X-2053399Y2796259D01*
G37*
D12*
X-2358300Y2696500D03*
D10*
G36*
X-2053399Y2296259D02*
X-2048545Y2295539D01*
X-2043786Y2294347D01*
X-2039166Y2292694D01*
X-2034730Y2290596D01*
X-2030521Y2288073D01*
X-2026580Y2285151D01*
X-2022945Y2281855D01*
X-2019649Y2278220D01*
X-2016727Y2274279D01*
X-2014204Y2270070D01*
X-2012106Y2265634D01*
X-2010453Y2261014D01*
X-2009261Y2256255D01*
X-2008541Y2251401D01*
X-2008300Y2246500D01*
X-2008300Y2146500D01*
X-2008541Y2141599D01*
X-2009261Y2136745D01*
X-2010453Y2131986D01*
X-2012106Y2127366D01*
X-2014204Y2122930D01*
X-2016727Y2118721D01*
X-2019649Y2114780D01*
X-2022945Y2111145D01*
X-2026580Y2107849D01*
X-2030521Y2104927D01*
X-2034730Y2102404D01*
X-2039166Y2100306D01*
X-2043786Y2098653D01*
X-2048545Y2097461D01*
X-2053399Y2096741D01*
X-2058300Y2096500D01*
X-2658300Y2096500D01*
X-2663201Y2096741D01*
X-2668055Y2097461D01*
X-2672814Y2098653D01*
X-2677434Y2100306D01*
X-2681870Y2102404D01*
X-2686079Y2104927D01*
X-2690020Y2107849D01*
X-2693655Y2111145D01*
X-2696951Y2114780D01*
X-2699873Y2118721D01*
X-2702396Y2122930D01*
X-2704494Y2127366D01*
X-2706147Y2131986D01*
X-2707339Y2136745D01*
X-2708059Y2141599D01*
X-2708300Y2146500D01*
X-2708300Y2246500D01*
X-2708059Y2251401D01*
X-2707339Y2256255D01*
X-2706147Y2261014D01*
X-2704494Y2265634D01*
X-2702396Y2270070D01*
X-2699873Y2274279D01*
X-2696951Y2278220D01*
X-2693655Y2281855D01*
X-2690020Y2285151D01*
X-2686079Y2288073D01*
X-2681870Y2290596D01*
X-2677434Y2292694D01*
X-2672814Y2294347D01*
X-2668055Y2295539D01*
X-2663201Y2296259D01*
X-2658300Y2296500D01*
X-2058300Y2296500D01*
X-2053399Y2296259D01*
X-2053399Y2296259D01*
G37*
D12*
X-2358300Y2196500D03*
D10*
G36*
X-2053399Y1796259D02*
X-2048545Y1795539D01*
X-2043786Y1794347D01*
X-2039166Y1792694D01*
X-2034730Y1790596D01*
X-2030521Y1788073D01*
X-2026580Y1785151D01*
X-2022945Y1781855D01*
X-2019649Y1778220D01*
X-2016727Y1774279D01*
X-2014204Y1770070D01*
X-2012106Y1765634D01*
X-2010453Y1761014D01*
X-2009261Y1756255D01*
X-2008541Y1751401D01*
X-2008300Y1746500D01*
X-2008300Y1646500D01*
X-2008541Y1641599D01*
X-2009261Y1636745D01*
X-2010453Y1631986D01*
X-2012106Y1627366D01*
X-2014204Y1622930D01*
X-2016727Y1618721D01*
X-2019649Y1614780D01*
X-2022945Y1611145D01*
X-2026580Y1607849D01*
X-2030521Y1604927D01*
X-2034730Y1602404D01*
X-2039166Y1600306D01*
X-2043786Y1598653D01*
X-2048545Y1597461D01*
X-2053399Y1596741D01*
X-2058300Y1596500D01*
X-2658300Y1596500D01*
X-2663201Y1596741D01*
X-2668055Y1597461D01*
X-2672814Y1598653D01*
X-2677434Y1600306D01*
X-2681870Y1602404D01*
X-2686079Y1604927D01*
X-2690020Y1607849D01*
X-2693655Y1611145D01*
X-2696951Y1614780D01*
X-2699873Y1618721D01*
X-2702396Y1622930D01*
X-2704494Y1627366D01*
X-2706147Y1631986D01*
X-2707339Y1636745D01*
X-2708059Y1641599D01*
X-2708300Y1646500D01*
X-2708300Y1746500D01*
X-2708059Y1751401D01*
X-2707339Y1756255D01*
X-2706147Y1761014D01*
X-2704494Y1765634D01*
X-2702396Y1770070D01*
X-2699873Y1774279D01*
X-2696951Y1778220D01*
X-2693655Y1781855D01*
X-2690020Y1785151D01*
X-2686079Y1788073D01*
X-2681870Y1790596D01*
X-2677434Y1792694D01*
X-2672814Y1794347D01*
X-2668055Y1795539D01*
X-2663201Y1796259D01*
X-2658300Y1796500D01*
X-2058300Y1796500D01*
X-2053399Y1796259D01*
X-2053399Y1796259D01*
G37*
D12*
X-2358300Y1696500D03*
D10*
G36*
X-1615899Y1358759D02*
X-1611045Y1358039D01*
X-1606286Y1356847D01*
X-1601666Y1355194D01*
X-1597230Y1353096D01*
X-1593021Y1350573D01*
X-1589080Y1347651D01*
X-1585445Y1344355D01*
X-1582149Y1340720D01*
X-1579227Y1336779D01*
X-1576704Y1332570D01*
X-1574606Y1328134D01*
X-1572953Y1323514D01*
X-1571761Y1318755D01*
X-1571041Y1313901D01*
X-1570800Y1309000D01*
X-1570800Y709000D01*
X-1571041Y704099D01*
X-1571761Y699245D01*
X-1572953Y694486D01*
X-1574606Y689866D01*
X-1576704Y685430D01*
X-1579227Y681221D01*
X-1582149Y677280D01*
X-1585445Y673645D01*
X-1589080Y670349D01*
X-1593021Y667427D01*
X-1597230Y664904D01*
X-1601666Y662806D01*
X-1606286Y661153D01*
X-1611045Y659961D01*
X-1615899Y659241D01*
X-1620800Y659000D01*
X-1720800Y659000D01*
X-1725701Y659241D01*
X-1730555Y659961D01*
X-1735314Y661153D01*
X-1739934Y662806D01*
X-1744370Y664904D01*
X-1748579Y667427D01*
X-1752520Y670349D01*
X-1756155Y673645D01*
X-1759451Y677280D01*
X-1762373Y681221D01*
X-1764896Y685430D01*
X-1766994Y689866D01*
X-1768647Y694486D01*
X-1769839Y699245D01*
X-1770559Y704099D01*
X-1770800Y709000D01*
X-1770800Y1309000D01*
X-1770559Y1313901D01*
X-1769839Y1318755D01*
X-1768647Y1323514D01*
X-1766994Y1328134D01*
X-1764896Y1332570D01*
X-1762373Y1336779D01*
X-1759451Y1340720D01*
X-1756155Y1344355D01*
X-1752520Y1347651D01*
X-1748579Y1350573D01*
X-1744370Y1353096D01*
X-1739934Y1355194D01*
X-1735314Y1356847D01*
X-1730555Y1358039D01*
X-1725701Y1358759D01*
X-1720800Y1359000D01*
X-1620800Y1359000D01*
X-1615899Y1358759D01*
X-1615899Y1358759D01*
G37*
D12*
X-1670800Y1009000D03*
D10*
G36*
X-1115899Y1358759D02*
X-1111045Y1358039D01*
X-1106286Y1356847D01*
X-1101666Y1355194D01*
X-1097230Y1353096D01*
X-1093021Y1350573D01*
X-1089080Y1347651D01*
X-1085445Y1344355D01*
X-1082149Y1340720D01*
X-1079227Y1336779D01*
X-1076704Y1332570D01*
X-1074606Y1328134D01*
X-1072953Y1323514D01*
X-1071761Y1318755D01*
X-1071041Y1313901D01*
X-1070800Y1309000D01*
X-1070800Y709000D01*
X-1071041Y704099D01*
X-1071761Y699245D01*
X-1072953Y694486D01*
X-1074606Y689866D01*
X-1076704Y685430D01*
X-1079227Y681221D01*
X-1082149Y677280D01*
X-1085445Y673645D01*
X-1089080Y670349D01*
X-1093021Y667427D01*
X-1097230Y664904D01*
X-1101666Y662806D01*
X-1106286Y661153D01*
X-1111045Y659961D01*
X-1115899Y659241D01*
X-1120800Y659000D01*
X-1220800Y659000D01*
X-1225701Y659241D01*
X-1230555Y659961D01*
X-1235314Y661153D01*
X-1239934Y662806D01*
X-1244370Y664904D01*
X-1248579Y667427D01*
X-1252520Y670349D01*
X-1256155Y673645D01*
X-1259451Y677280D01*
X-1262373Y681221D01*
X-1264896Y685430D01*
X-1266994Y689866D01*
X-1268647Y694486D01*
X-1269839Y699245D01*
X-1270559Y704099D01*
X-1270800Y709000D01*
X-1270800Y1309000D01*
X-1270559Y1313901D01*
X-1269839Y1318755D01*
X-1268647Y1323514D01*
X-1266994Y1328134D01*
X-1264896Y1332570D01*
X-1262373Y1336779D01*
X-1259451Y1340720D01*
X-1256155Y1344355D01*
X-1252520Y1347651D01*
X-1248579Y1350573D01*
X-1244370Y1353096D01*
X-1239934Y1355194D01*
X-1235314Y1356847D01*
X-1230555Y1358039D01*
X-1225701Y1358759D01*
X-1220800Y1359000D01*
X-1120800Y1359000D01*
X-1115899Y1358759D01*
X-1115899Y1358759D01*
G37*
D12*
X-1170800Y1009000D03*
D10*
G36*
X-615899Y1358759D02*
X-611045Y1358039D01*
X-606286Y1356847D01*
X-601666Y1355194D01*
X-597230Y1353096D01*
X-593021Y1350573D01*
X-589080Y1347651D01*
X-585445Y1344355D01*
X-582149Y1340720D01*
X-579227Y1336779D01*
X-576704Y1332570D01*
X-574606Y1328134D01*
X-572953Y1323514D01*
X-571761Y1318755D01*
X-571041Y1313901D01*
X-570800Y1309000D01*
X-570800Y709000D01*
X-571041Y704099D01*
X-571761Y699245D01*
X-572953Y694486D01*
X-574606Y689866D01*
X-576704Y685430D01*
X-579227Y681221D01*
X-582149Y677280D01*
X-585445Y673645D01*
X-589080Y670349D01*
X-593021Y667427D01*
X-597230Y664904D01*
X-601666Y662806D01*
X-606286Y661153D01*
X-611045Y659961D01*
X-615899Y659241D01*
X-620800Y659000D01*
X-720800Y659000D01*
X-725701Y659241D01*
X-730555Y659961D01*
X-735314Y661153D01*
X-739934Y662806D01*
X-744370Y664904D01*
X-748579Y667427D01*
X-752520Y670349D01*
X-756155Y673645D01*
X-759451Y677280D01*
X-762373Y681221D01*
X-764896Y685430D01*
X-766994Y689866D01*
X-768647Y694486D01*
X-769839Y699245D01*
X-770559Y704099D01*
X-770800Y709000D01*
X-770800Y1309000D01*
X-770559Y1313901D01*
X-769839Y1318755D01*
X-768647Y1323514D01*
X-766994Y1328134D01*
X-764896Y1332570D01*
X-762373Y1336779D01*
X-759451Y1340720D01*
X-756155Y1344355D01*
X-752520Y1347651D01*
X-748579Y1350573D01*
X-744370Y1353096D01*
X-739934Y1355194D01*
X-735314Y1356847D01*
X-730555Y1358039D01*
X-725701Y1358759D01*
X-720800Y1359000D01*
X-620800Y1359000D01*
X-615899Y1358759D01*
X-615899Y1358759D01*
G37*
D12*
X-670800Y1009000D03*
D10*
G36*
X-115899Y1358759D02*
X-111045Y1358039D01*
X-106286Y1356847D01*
X-101666Y1355194D01*
X-97230Y1353096D01*
X-93021Y1350573D01*
X-89080Y1347651D01*
X-85445Y1344355D01*
X-82149Y1340720D01*
X-79227Y1336779D01*
X-76704Y1332570D01*
X-74606Y1328134D01*
X-72953Y1323514D01*
X-71761Y1318755D01*
X-71041Y1313901D01*
X-70800Y1309000D01*
X-70800Y709000D01*
X-71041Y704099D01*
X-71761Y699245D01*
X-72953Y694486D01*
X-74606Y689866D01*
X-76704Y685430D01*
X-79227Y681221D01*
X-82149Y677280D01*
X-85445Y673645D01*
X-89080Y670349D01*
X-93021Y667427D01*
X-97230Y664904D01*
X-101666Y662806D01*
X-106286Y661153D01*
X-111045Y659961D01*
X-115899Y659241D01*
X-120800Y659000D01*
X-220800Y659000D01*
X-225701Y659241D01*
X-230555Y659961D01*
X-235314Y661153D01*
X-239934Y662806D01*
X-244370Y664904D01*
X-248579Y667427D01*
X-252520Y670349D01*
X-256155Y673645D01*
X-259451Y677280D01*
X-262373Y681221D01*
X-264896Y685430D01*
X-266994Y689866D01*
X-268647Y694486D01*
X-269839Y699245D01*
X-270559Y704099D01*
X-270800Y709000D01*
X-270800Y1309000D01*
X-270559Y1313901D01*
X-269839Y1318755D01*
X-268647Y1323514D01*
X-266994Y1328134D01*
X-264896Y1332570D01*
X-262373Y1336779D01*
X-259451Y1340720D01*
X-256155Y1344355D01*
X-252520Y1347651D01*
X-248579Y1350573D01*
X-244370Y1353096D01*
X-239934Y1355194D01*
X-235314Y1356847D01*
X-230555Y1358039D01*
X-225701Y1358759D01*
X-220800Y1359000D01*
X-120800Y1359000D01*
X-115899Y1358759D01*
X-115899Y1358759D01*
G37*
D12*
X-170800Y1009000D03*
D10*
G36*
X384101Y1358759D02*
X388955Y1358039D01*
X393714Y1356847D01*
X398334Y1355194D01*
X402770Y1353096D01*
X406979Y1350573D01*
X410920Y1347651D01*
X414555Y1344355D01*
X417851Y1340720D01*
X420773Y1336779D01*
X423296Y1332570D01*
X425394Y1328134D01*
X427047Y1323514D01*
X428239Y1318755D01*
X428959Y1313901D01*
X429200Y1309000D01*
X429200Y709000D01*
X428959Y704099D01*
X428239Y699245D01*
X427047Y694486D01*
X425394Y689866D01*
X423296Y685430D01*
X420773Y681221D01*
X417851Y677280D01*
X414555Y673645D01*
X410920Y670349D01*
X406979Y667427D01*
X402770Y664904D01*
X398334Y662806D01*
X393714Y661153D01*
X388955Y659961D01*
X384101Y659241D01*
X379200Y659000D01*
X279200Y659000D01*
X274299Y659241D01*
X269445Y659961D01*
X264686Y661153D01*
X260066Y662806D01*
X255630Y664904D01*
X251421Y667427D01*
X247480Y670349D01*
X243845Y673645D01*
X240549Y677280D01*
X237627Y681221D01*
X235104Y685430D01*
X233006Y689866D01*
X231353Y694486D01*
X230161Y699245D01*
X229441Y704099D01*
X229200Y709000D01*
X229200Y1309000D01*
X229441Y1313901D01*
X230161Y1318755D01*
X231353Y1323514D01*
X233006Y1328134D01*
X235104Y1332570D01*
X237627Y1336779D01*
X240549Y1340720D01*
X243845Y1344355D01*
X247480Y1347651D01*
X251421Y1350573D01*
X255630Y1353096D01*
X260066Y1355194D01*
X264686Y1356847D01*
X269445Y1358039D01*
X274299Y1358759D01*
X279200Y1359000D01*
X379200Y1359000D01*
X384101Y1358759D01*
X384101Y1358759D01*
G37*
D12*
X329200Y1009000D03*
D10*
G36*
X884101Y1358759D02*
X888955Y1358039D01*
X893714Y1356847D01*
X898334Y1355194D01*
X902770Y1353096D01*
X906979Y1350573D01*
X910920Y1347651D01*
X914555Y1344355D01*
X917851Y1340720D01*
X920773Y1336779D01*
X923296Y1332570D01*
X925394Y1328134D01*
X927047Y1323514D01*
X928239Y1318755D01*
X928959Y1313901D01*
X929200Y1309000D01*
X929200Y709000D01*
X928959Y704099D01*
X928239Y699245D01*
X927047Y694486D01*
X925394Y689866D01*
X923296Y685430D01*
X920773Y681221D01*
X917851Y677280D01*
X914555Y673645D01*
X910920Y670349D01*
X906979Y667427D01*
X902770Y664904D01*
X898334Y662806D01*
X893714Y661153D01*
X888955Y659961D01*
X884101Y659241D01*
X879200Y659000D01*
X779200Y659000D01*
X774299Y659241D01*
X769445Y659961D01*
X764686Y661153D01*
X760066Y662806D01*
X755630Y664904D01*
X751421Y667427D01*
X747480Y670349D01*
X743845Y673645D01*
X740549Y677280D01*
X737627Y681221D01*
X735104Y685430D01*
X733006Y689866D01*
X731353Y694486D01*
X730161Y699245D01*
X729441Y704099D01*
X729200Y709000D01*
X729200Y1309000D01*
X729441Y1313901D01*
X730161Y1318755D01*
X731353Y1323514D01*
X733006Y1328134D01*
X735104Y1332570D01*
X737627Y1336779D01*
X740549Y1340720D01*
X743845Y1344355D01*
X747480Y1347651D01*
X751421Y1350573D01*
X755630Y1353096D01*
X760066Y1355194D01*
X764686Y1356847D01*
X769445Y1358039D01*
X774299Y1358759D01*
X779200Y1359000D01*
X879200Y1359000D01*
X884101Y1358759D01*
X884101Y1358759D01*
G37*
D12*
X829200Y1009000D03*
D10*
G36*
X1384101Y1358759D02*
X1388955Y1358039D01*
X1393714Y1356847D01*
X1398334Y1355194D01*
X1402770Y1353096D01*
X1406979Y1350573D01*
X1410920Y1347651D01*
X1414555Y1344355D01*
X1417851Y1340720D01*
X1420773Y1336779D01*
X1423296Y1332570D01*
X1425394Y1328134D01*
X1427047Y1323514D01*
X1428239Y1318755D01*
X1428959Y1313901D01*
X1429200Y1309000D01*
X1429200Y709000D01*
X1428959Y704099D01*
X1428239Y699245D01*
X1427047Y694486D01*
X1425394Y689866D01*
X1423296Y685430D01*
X1420773Y681221D01*
X1417851Y677280D01*
X1414555Y673645D01*
X1410920Y670349D01*
X1406979Y667427D01*
X1402770Y664904D01*
X1398334Y662806D01*
X1393714Y661153D01*
X1388955Y659961D01*
X1384101Y659241D01*
X1379200Y659000D01*
X1279200Y659000D01*
X1274299Y659241D01*
X1269445Y659961D01*
X1264686Y661153D01*
X1260066Y662806D01*
X1255630Y664904D01*
X1251421Y667427D01*
X1247480Y670349D01*
X1243845Y673645D01*
X1240549Y677280D01*
X1237627Y681221D01*
X1235104Y685430D01*
X1233006Y689866D01*
X1231353Y694486D01*
X1230161Y699245D01*
X1229441Y704099D01*
X1229200Y709000D01*
X1229200Y1309000D01*
X1229441Y1313901D01*
X1230161Y1318755D01*
X1231353Y1323514D01*
X1233006Y1328134D01*
X1235104Y1332570D01*
X1237627Y1336779D01*
X1240549Y1340720D01*
X1243845Y1344355D01*
X1247480Y1347651D01*
X1251421Y1350573D01*
X1255630Y1353096D01*
X1260066Y1355194D01*
X1264686Y1356847D01*
X1269445Y1358039D01*
X1274299Y1358759D01*
X1279200Y1359000D01*
X1379200Y1359000D01*
X1384101Y1358759D01*
X1384101Y1358759D01*
G37*
D12*
X1329200Y1009000D03*
D10*
G36*
X1884101Y1358759D02*
X1888955Y1358039D01*
X1893714Y1356847D01*
X1898334Y1355194D01*
X1902770Y1353096D01*
X1906979Y1350573D01*
X1910920Y1347651D01*
X1914555Y1344355D01*
X1917851Y1340720D01*
X1920773Y1336779D01*
X1923296Y1332570D01*
X1925394Y1328134D01*
X1927047Y1323514D01*
X1928239Y1318755D01*
X1928959Y1313901D01*
X1929200Y1309000D01*
X1929200Y709000D01*
X1928959Y704099D01*
X1928239Y699245D01*
X1927047Y694486D01*
X1925394Y689866D01*
X1923296Y685430D01*
X1920773Y681221D01*
X1917851Y677280D01*
X1914555Y673645D01*
X1910920Y670349D01*
X1906979Y667427D01*
X1902770Y664904D01*
X1898334Y662806D01*
X1893714Y661153D01*
X1888955Y659961D01*
X1884101Y659241D01*
X1879200Y659000D01*
X1779200Y659000D01*
X1774299Y659241D01*
X1769445Y659961D01*
X1764686Y661153D01*
X1760066Y662806D01*
X1755630Y664904D01*
X1751421Y667427D01*
X1747480Y670349D01*
X1743845Y673645D01*
X1740549Y677280D01*
X1737627Y681221D01*
X1735104Y685430D01*
X1733006Y689866D01*
X1731353Y694486D01*
X1730161Y699245D01*
X1729441Y704099D01*
X1729200Y709000D01*
X1729200Y1309000D01*
X1729441Y1313901D01*
X1730161Y1318755D01*
X1731353Y1323514D01*
X1733006Y1328134D01*
X1735104Y1332570D01*
X1737627Y1336779D01*
X1740549Y1340720D01*
X1743845Y1344355D01*
X1747480Y1347651D01*
X1751421Y1350573D01*
X1755630Y1353096D01*
X1760066Y1355194D01*
X1764686Y1356847D01*
X1769445Y1358039D01*
X1774299Y1358759D01*
X1779200Y1359000D01*
X1879200Y1359000D01*
X1884101Y1358759D01*
X1884101Y1358759D01*
G37*
D12*
X1829200Y1009000D03*
D10*
G36*
X2821601Y1796259D02*
X2826455Y1795539D01*
X2831214Y1794347D01*
X2835834Y1792694D01*
X2840270Y1790596D01*
X2844479Y1788073D01*
X2848420Y1785151D01*
X2852055Y1781855D01*
X2855351Y1778220D01*
X2858273Y1774279D01*
X2860796Y1770070D01*
X2862894Y1765634D01*
X2864547Y1761014D01*
X2865739Y1756255D01*
X2866459Y1751401D01*
X2866700Y1746500D01*
X2866700Y1646500D01*
X2866459Y1641599D01*
X2865739Y1636745D01*
X2864547Y1631986D01*
X2862894Y1627366D01*
X2860796Y1622930D01*
X2858273Y1618721D01*
X2855351Y1614780D01*
X2852055Y1611145D01*
X2848420Y1607849D01*
X2844479Y1604927D01*
X2840270Y1602404D01*
X2835834Y1600306D01*
X2831214Y1598653D01*
X2826455Y1597461D01*
X2821601Y1596741D01*
X2816700Y1596500D01*
X2216700Y1596500D01*
X2211799Y1596741D01*
X2206945Y1597461D01*
X2202186Y1598653D01*
X2197566Y1600306D01*
X2193130Y1602404D01*
X2188921Y1604927D01*
X2184980Y1607849D01*
X2181345Y1611145D01*
X2178049Y1614780D01*
X2175127Y1618721D01*
X2172604Y1622930D01*
X2170506Y1627366D01*
X2168853Y1631986D01*
X2167661Y1636745D01*
X2166941Y1641599D01*
X2166700Y1646500D01*
X2166700Y1746500D01*
X2166941Y1751401D01*
X2167661Y1756255D01*
X2168853Y1761014D01*
X2170506Y1765634D01*
X2172604Y1770070D01*
X2175127Y1774279D01*
X2178049Y1778220D01*
X2181345Y1781855D01*
X2184980Y1785151D01*
X2188921Y1788073D01*
X2193130Y1790596D01*
X2197566Y1792694D01*
X2202186Y1794347D01*
X2206945Y1795539D01*
X2211799Y1796259D01*
X2216700Y1796500D01*
X2816700Y1796500D01*
X2821601Y1796259D01*
X2821601Y1796259D01*
G37*
D12*
X2516700Y1696500D03*
D10*
G36*
X2821601Y2296259D02*
X2826455Y2295539D01*
X2831214Y2294347D01*
X2835834Y2292694D01*
X2840270Y2290596D01*
X2844479Y2288073D01*
X2848420Y2285151D01*
X2852055Y2281855D01*
X2855351Y2278220D01*
X2858273Y2274279D01*
X2860796Y2270070D01*
X2862894Y2265634D01*
X2864547Y2261014D01*
X2865739Y2256255D01*
X2866459Y2251401D01*
X2866700Y2246500D01*
X2866700Y2146500D01*
X2866459Y2141599D01*
X2865739Y2136745D01*
X2864547Y2131986D01*
X2862894Y2127366D01*
X2860796Y2122930D01*
X2858273Y2118721D01*
X2855351Y2114780D01*
X2852055Y2111145D01*
X2848420Y2107849D01*
X2844479Y2104927D01*
X2840270Y2102404D01*
X2835834Y2100306D01*
X2831214Y2098653D01*
X2826455Y2097461D01*
X2821601Y2096741D01*
X2816700Y2096500D01*
X2216700Y2096500D01*
X2211799Y2096741D01*
X2206945Y2097461D01*
X2202186Y2098653D01*
X2197566Y2100306D01*
X2193130Y2102404D01*
X2188921Y2104927D01*
X2184980Y2107849D01*
X2181345Y2111145D01*
X2178049Y2114780D01*
X2175127Y2118721D01*
X2172604Y2122930D01*
X2170506Y2127366D01*
X2168853Y2131986D01*
X2167661Y2136745D01*
X2166941Y2141599D01*
X2166700Y2146500D01*
X2166700Y2246500D01*
X2166941Y2251401D01*
X2167661Y2256255D01*
X2168853Y2261014D01*
X2170506Y2265634D01*
X2172604Y2270070D01*
X2175127Y2274279D01*
X2178049Y2278220D01*
X2181345Y2281855D01*
X2184980Y2285151D01*
X2188921Y2288073D01*
X2193130Y2290596D01*
X2197566Y2292694D01*
X2202186Y2294347D01*
X2206945Y2295539D01*
X2211799Y2296259D01*
X2216700Y2296500D01*
X2816700Y2296500D01*
X2821601Y2296259D01*
X2821601Y2296259D01*
G37*
D12*
X2516700Y2196500D03*
D10*
G36*
X2821601Y2796259D02*
X2826455Y2795539D01*
X2831214Y2794347D01*
X2835834Y2792694D01*
X2840270Y2790596D01*
X2844479Y2788073D01*
X2848420Y2785151D01*
X2852055Y2781855D01*
X2855351Y2778220D01*
X2858273Y2774279D01*
X2860796Y2770070D01*
X2862894Y2765634D01*
X2864547Y2761014D01*
X2865739Y2756255D01*
X2866459Y2751401D01*
X2866700Y2746500D01*
X2866700Y2646500D01*
X2866459Y2641599D01*
X2865739Y2636745D01*
X2864547Y2631986D01*
X2862894Y2627366D01*
X2860796Y2622930D01*
X2858273Y2618721D01*
X2855351Y2614780D01*
X2852055Y2611145D01*
X2848420Y2607849D01*
X2844479Y2604927D01*
X2840270Y2602404D01*
X2835834Y2600306D01*
X2831214Y2598653D01*
X2826455Y2597461D01*
X2821601Y2596741D01*
X2816700Y2596500D01*
X2216700Y2596500D01*
X2211799Y2596741D01*
X2206945Y2597461D01*
X2202186Y2598653D01*
X2197566Y2600306D01*
X2193130Y2602404D01*
X2188921Y2604927D01*
X2184980Y2607849D01*
X2181345Y2611145D01*
X2178049Y2614780D01*
X2175127Y2618721D01*
X2172604Y2622930D01*
X2170506Y2627366D01*
X2168853Y2631986D01*
X2167661Y2636745D01*
X2166941Y2641599D01*
X2166700Y2646500D01*
X2166700Y2746500D01*
X2166941Y2751401D01*
X2167661Y2756255D01*
X2168853Y2761014D01*
X2170506Y2765634D01*
X2172604Y2770070D01*
X2175127Y2774279D01*
X2178049Y2778220D01*
X2181345Y2781855D01*
X2184980Y2785151D01*
X2188921Y2788073D01*
X2193130Y2790596D01*
X2197566Y2792694D01*
X2202186Y2794347D01*
X2206945Y2795539D01*
X2211799Y2796259D01*
X2216700Y2796500D01*
X2816700Y2796500D01*
X2821601Y2796259D01*
X2821601Y2796259D01*
G37*
D12*
X2516700Y2696500D03*
D10*
G36*
X2821601Y3296259D02*
X2826455Y3295539D01*
X2831214Y3294347D01*
X2835834Y3292694D01*
X2840270Y3290596D01*
X2844479Y3288073D01*
X2848420Y3285151D01*
X2852055Y3281855D01*
X2855351Y3278220D01*
X2858273Y3274279D01*
X2860796Y3270070D01*
X2862894Y3265634D01*
X2864547Y3261014D01*
X2865739Y3256255D01*
X2866459Y3251401D01*
X2866700Y3246500D01*
X2866700Y3146500D01*
X2866459Y3141599D01*
X2865739Y3136745D01*
X2864547Y3131986D01*
X2862894Y3127366D01*
X2860796Y3122930D01*
X2858273Y3118721D01*
X2855351Y3114780D01*
X2852055Y3111145D01*
X2848420Y3107849D01*
X2844479Y3104927D01*
X2840270Y3102404D01*
X2835834Y3100306D01*
X2831214Y3098653D01*
X2826455Y3097461D01*
X2821601Y3096741D01*
X2816700Y3096500D01*
X2216700Y3096500D01*
X2211799Y3096741D01*
X2206945Y3097461D01*
X2202186Y3098653D01*
X2197566Y3100306D01*
X2193130Y3102404D01*
X2188921Y3104927D01*
X2184980Y3107849D01*
X2181345Y3111145D01*
X2178049Y3114780D01*
X2175127Y3118721D01*
X2172604Y3122930D01*
X2170506Y3127366D01*
X2168853Y3131986D01*
X2167661Y3136745D01*
X2166941Y3141599D01*
X2166700Y3146500D01*
X2166700Y3246500D01*
X2166941Y3251401D01*
X2167661Y3256255D01*
X2168853Y3261014D01*
X2170506Y3265634D01*
X2172604Y3270070D01*
X2175127Y3274279D01*
X2178049Y3278220D01*
X2181345Y3281855D01*
X2184980Y3285151D01*
X2188921Y3288073D01*
X2193130Y3290596D01*
X2197566Y3292694D01*
X2202186Y3294347D01*
X2206945Y3295539D01*
X2211799Y3296259D01*
X2216700Y3296500D01*
X2816700Y3296500D01*
X2821601Y3296259D01*
X2821601Y3296259D01*
G37*
D12*
X2516700Y3196500D03*
D10*
G36*
X2821601Y3796259D02*
X2826455Y3795539D01*
X2831214Y3794347D01*
X2835834Y3792694D01*
X2840270Y3790596D01*
X2844479Y3788073D01*
X2848420Y3785151D01*
X2852055Y3781855D01*
X2855351Y3778220D01*
X2858273Y3774279D01*
X2860796Y3770070D01*
X2862894Y3765634D01*
X2864547Y3761014D01*
X2865739Y3756255D01*
X2866459Y3751401D01*
X2866700Y3746500D01*
X2866700Y3646500D01*
X2866459Y3641599D01*
X2865739Y3636745D01*
X2864547Y3631986D01*
X2862894Y3627366D01*
X2860796Y3622930D01*
X2858273Y3618721D01*
X2855351Y3614780D01*
X2852055Y3611145D01*
X2848420Y3607849D01*
X2844479Y3604927D01*
X2840270Y3602404D01*
X2835834Y3600306D01*
X2831214Y3598653D01*
X2826455Y3597461D01*
X2821601Y3596741D01*
X2816700Y3596500D01*
X2216700Y3596500D01*
X2211799Y3596741D01*
X2206945Y3597461D01*
X2202186Y3598653D01*
X2197566Y3600306D01*
X2193130Y3602404D01*
X2188921Y3604927D01*
X2184980Y3607849D01*
X2181345Y3611145D01*
X2178049Y3614780D01*
X2175127Y3618721D01*
X2172604Y3622930D01*
X2170506Y3627366D01*
X2168853Y3631986D01*
X2167661Y3636745D01*
X2166941Y3641599D01*
X2166700Y3646500D01*
X2166700Y3746500D01*
X2166941Y3751401D01*
X2167661Y3756255D01*
X2168853Y3761014D01*
X2170506Y3765634D01*
X2172604Y3770070D01*
X2175127Y3774279D01*
X2178049Y3778220D01*
X2181345Y3781855D01*
X2184980Y3785151D01*
X2188921Y3788073D01*
X2193130Y3790596D01*
X2197566Y3792694D01*
X2202186Y3794347D01*
X2206945Y3795539D01*
X2211799Y3796259D01*
X2216700Y3796500D01*
X2816700Y3796500D01*
X2821601Y3796259D01*
X2821601Y3796259D01*
G37*
D12*
X2516700Y3696500D03*
D10*
G36*
X2821601Y4296259D02*
X2826455Y4295539D01*
X2831214Y4294347D01*
X2835834Y4292694D01*
X2840270Y4290596D01*
X2844479Y4288073D01*
X2848420Y4285151D01*
X2852055Y4281855D01*
X2855351Y4278220D01*
X2858273Y4274279D01*
X2860796Y4270070D01*
X2862894Y4265634D01*
X2864547Y4261014D01*
X2865739Y4256255D01*
X2866459Y4251401D01*
X2866700Y4246500D01*
X2866700Y4146500D01*
X2866459Y4141599D01*
X2865739Y4136745D01*
X2864547Y4131986D01*
X2862894Y4127366D01*
X2860796Y4122930D01*
X2858273Y4118721D01*
X2855351Y4114780D01*
X2852055Y4111145D01*
X2848420Y4107849D01*
X2844479Y4104927D01*
X2840270Y4102404D01*
X2835834Y4100306D01*
X2831214Y4098653D01*
X2826455Y4097461D01*
X2821601Y4096741D01*
X2816700Y4096500D01*
X2216700Y4096500D01*
X2211799Y4096741D01*
X2206945Y4097461D01*
X2202186Y4098653D01*
X2197566Y4100306D01*
X2193130Y4102404D01*
X2188921Y4104927D01*
X2184980Y4107849D01*
X2181345Y4111145D01*
X2178049Y4114780D01*
X2175127Y4118721D01*
X2172604Y4122930D01*
X2170506Y4127366D01*
X2168853Y4131986D01*
X2167661Y4136745D01*
X2166941Y4141599D01*
X2166700Y4146500D01*
X2166700Y4246500D01*
X2166941Y4251401D01*
X2167661Y4256255D01*
X2168853Y4261014D01*
X2170506Y4265634D01*
X2172604Y4270070D01*
X2175127Y4274279D01*
X2178049Y4278220D01*
X2181345Y4281855D01*
X2184980Y4285151D01*
X2188921Y4288073D01*
X2193130Y4290596D01*
X2197566Y4292694D01*
X2202186Y4294347D01*
X2206945Y4295539D01*
X2211799Y4296259D01*
X2216700Y4296500D01*
X2816700Y4296500D01*
X2821601Y4296259D01*
X2821601Y4296259D01*
G37*
D12*
X2516700Y4196500D03*
D10*
G36*
X2821601Y4796259D02*
X2826455Y4795539D01*
X2831214Y4794347D01*
X2835834Y4792694D01*
X2840270Y4790596D01*
X2844479Y4788073D01*
X2848420Y4785151D01*
X2852055Y4781855D01*
X2855351Y4778220D01*
X2858273Y4774279D01*
X2860796Y4770070D01*
X2862894Y4765634D01*
X2864547Y4761014D01*
X2865739Y4756255D01*
X2866459Y4751401D01*
X2866700Y4746500D01*
X2866700Y4646500D01*
X2866459Y4641599D01*
X2865739Y4636745D01*
X2864547Y4631986D01*
X2862894Y4627366D01*
X2860796Y4622930D01*
X2858273Y4618721D01*
X2855351Y4614780D01*
X2852055Y4611145D01*
X2848420Y4607849D01*
X2844479Y4604927D01*
X2840270Y4602404D01*
X2835834Y4600306D01*
X2831214Y4598653D01*
X2826455Y4597461D01*
X2821601Y4596741D01*
X2816700Y4596500D01*
X2216700Y4596500D01*
X2211799Y4596741D01*
X2206945Y4597461D01*
X2202186Y4598653D01*
X2197566Y4600306D01*
X2193130Y4602404D01*
X2188921Y4604927D01*
X2184980Y4607849D01*
X2181345Y4611145D01*
X2178049Y4614780D01*
X2175127Y4618721D01*
X2172604Y4622930D01*
X2170506Y4627366D01*
X2168853Y4631986D01*
X2167661Y4636745D01*
X2166941Y4641599D01*
X2166700Y4646500D01*
X2166700Y4746500D01*
X2166941Y4751401D01*
X2167661Y4756255D01*
X2168853Y4761014D01*
X2170506Y4765634D01*
X2172604Y4770070D01*
X2175127Y4774279D01*
X2178049Y4778220D01*
X2181345Y4781855D01*
X2184980Y4785151D01*
X2188921Y4788073D01*
X2193130Y4790596D01*
X2197566Y4792694D01*
X2202186Y4794347D01*
X2206945Y4795539D01*
X2211799Y4796259D01*
X2216700Y4796500D01*
X2816700Y4796500D01*
X2821601Y4796259D01*
X2821601Y4796259D01*
G37*
D12*
X2516700Y4696500D03*
D10*
G36*
X2821601Y5296259D02*
X2826455Y5295539D01*
X2831214Y5294347D01*
X2835834Y5292694D01*
X2840270Y5290596D01*
X2844479Y5288073D01*
X2848420Y5285151D01*
X2852055Y5281855D01*
X2855351Y5278220D01*
X2858273Y5274279D01*
X2860796Y5270070D01*
X2862894Y5265634D01*
X2864547Y5261014D01*
X2865739Y5256255D01*
X2866459Y5251401D01*
X2866700Y5246500D01*
X2866700Y5146500D01*
X2866459Y5141599D01*
X2865739Y5136745D01*
X2864547Y5131986D01*
X2862894Y5127366D01*
X2860796Y5122930D01*
X2858273Y5118721D01*
X2855351Y5114780D01*
X2852055Y5111145D01*
X2848420Y5107849D01*
X2844479Y5104927D01*
X2840270Y5102404D01*
X2835834Y5100306D01*
X2831214Y5098653D01*
X2826455Y5097461D01*
X2821601Y5096741D01*
X2816700Y5096500D01*
X2216700Y5096500D01*
X2211799Y5096741D01*
X2206945Y5097461D01*
X2202186Y5098653D01*
X2197566Y5100306D01*
X2193130Y5102404D01*
X2188921Y5104927D01*
X2184980Y5107849D01*
X2181345Y5111145D01*
X2178049Y5114780D01*
X2175127Y5118721D01*
X2172604Y5122930D01*
X2170506Y5127366D01*
X2168853Y5131986D01*
X2167661Y5136745D01*
X2166941Y5141599D01*
X2166700Y5146500D01*
X2166700Y5246500D01*
X2166941Y5251401D01*
X2167661Y5256255D01*
X2168853Y5261014D01*
X2170506Y5265634D01*
X2172604Y5270070D01*
X2175127Y5274279D01*
X2178049Y5278220D01*
X2181345Y5281855D01*
X2184980Y5285151D01*
X2188921Y5288073D01*
X2193130Y5290596D01*
X2197566Y5292694D01*
X2202186Y5294347D01*
X2206945Y5295539D01*
X2211799Y5296259D01*
X2216700Y5296500D01*
X2816700Y5296500D01*
X2821601Y5296259D01*
X2821601Y5296259D01*
G37*
D12*
X2516700Y5196500D03*
G04 #@! TD*
D13*
G04 #@! TO.C,L2*
X-8775000Y-3043500D03*
X-8775000Y-5743500D03*
G04 #@! TD*
D14*
G04 #@! TO.C,U5*
X-4570800Y-538500D03*
X-5070800Y-538500D03*
X-5570800Y-538500D03*
X-6070800Y-538500D03*
X-6570800Y-538500D03*
X-6570800Y2461500D03*
X-6070800Y2461500D03*
X-5570800Y2461500D03*
X-5070800Y2461500D03*
X-4570800Y2461500D03*
D15*
X-5570800Y961500D03*
G04 #@! TD*
D16*
G04 #@! TO.C,U4*
X-3320800Y-5803500D03*
D17*
X-4070800Y-4478500D03*
X-3570800Y-4478500D03*
X-3070800Y-4478500D03*
X-2570800Y-4478500D03*
X-4070800Y-7128500D03*
X-3570800Y-7128500D03*
X-3070800Y-7128500D03*
X-2570800Y-7128500D03*
G04 #@! TD*
D18*
G04 #@! TO.C,U2*
X-70800Y-5003500D03*
X-70800Y-5953500D03*
X-70800Y-6903500D03*
X2129200Y-6903500D03*
X2129200Y-5003500D03*
X2129200Y-5953500D03*
G04 #@! TD*
D10*
G04 #@! TO.C,R5*
G36*
X4428766Y-6088068D02*
X4440221Y-6089767D01*
X4451454Y-6092581D01*
X4462357Y-6096482D01*
X4472825Y-6101433D01*
X4482757Y-6107387D01*
X4492058Y-6114285D01*
X4500639Y-6122061D01*
X4508415Y-6130642D01*
X4515313Y-6139943D01*
X4521267Y-6149875D01*
X4526218Y-6160343D01*
X4530119Y-6171246D01*
X4532933Y-6182479D01*
X4534632Y-6193934D01*
X4535200Y-6205500D01*
X4535200Y-6441500D01*
X4534632Y-6453066D01*
X4532933Y-6464521D01*
X4530119Y-6475754D01*
X4526218Y-6486657D01*
X4521267Y-6497125D01*
X4515313Y-6507057D01*
X4508415Y-6516358D01*
X4500639Y-6524939D01*
X4492058Y-6532715D01*
X4482757Y-6539613D01*
X4472825Y-6545567D01*
X4462357Y-6550518D01*
X4451454Y-6554419D01*
X4440221Y-6557233D01*
X4428766Y-6558932D01*
X4417200Y-6559500D01*
X4141200Y-6559500D01*
X4129634Y-6558932D01*
X4118179Y-6557233D01*
X4106946Y-6554419D01*
X4096043Y-6550518D01*
X4085575Y-6545567D01*
X4075643Y-6539613D01*
X4066342Y-6532715D01*
X4057761Y-6524939D01*
X4049985Y-6516358D01*
X4043087Y-6507057D01*
X4037133Y-6497125D01*
X4032182Y-6486657D01*
X4028281Y-6475754D01*
X4025467Y-6464521D01*
X4023768Y-6453066D01*
X4023200Y-6441500D01*
X4023200Y-6205500D01*
X4023768Y-6193934D01*
X4025467Y-6182479D01*
X4028281Y-6171246D01*
X4032182Y-6160343D01*
X4037133Y-6149875D01*
X4043087Y-6139943D01*
X4049985Y-6130642D01*
X4057761Y-6122061D01*
X4066342Y-6114285D01*
X4075643Y-6107387D01*
X4085575Y-6101433D01*
X4096043Y-6096482D01*
X4106946Y-6092581D01*
X4118179Y-6089767D01*
X4129634Y-6088068D01*
X4141200Y-6087500D01*
X4417200Y-6087500D01*
X4428766Y-6088068D01*
X4428766Y-6088068D01*
G37*
D19*
X4279200Y-6323500D03*
D10*
G36*
X4428766Y-5118068D02*
X4440221Y-5119767D01*
X4451454Y-5122581D01*
X4462357Y-5126482D01*
X4472825Y-5131433D01*
X4482757Y-5137387D01*
X4492058Y-5144285D01*
X4500639Y-5152061D01*
X4508415Y-5160642D01*
X4515313Y-5169943D01*
X4521267Y-5179875D01*
X4526218Y-5190343D01*
X4530119Y-5201246D01*
X4532933Y-5212479D01*
X4534632Y-5223934D01*
X4535200Y-5235500D01*
X4535200Y-5471500D01*
X4534632Y-5483066D01*
X4532933Y-5494521D01*
X4530119Y-5505754D01*
X4526218Y-5516657D01*
X4521267Y-5527125D01*
X4515313Y-5537057D01*
X4508415Y-5546358D01*
X4500639Y-5554939D01*
X4492058Y-5562715D01*
X4482757Y-5569613D01*
X4472825Y-5575567D01*
X4462357Y-5580518D01*
X4451454Y-5584419D01*
X4440221Y-5587233D01*
X4428766Y-5588932D01*
X4417200Y-5589500D01*
X4141200Y-5589500D01*
X4129634Y-5588932D01*
X4118179Y-5587233D01*
X4106946Y-5584419D01*
X4096043Y-5580518D01*
X4085575Y-5575567D01*
X4075643Y-5569613D01*
X4066342Y-5562715D01*
X4057761Y-5554939D01*
X4049985Y-5546358D01*
X4043087Y-5537057D01*
X4037133Y-5527125D01*
X4032182Y-5516657D01*
X4028281Y-5505754D01*
X4025467Y-5494521D01*
X4023768Y-5483066D01*
X4023200Y-5471500D01*
X4023200Y-5235500D01*
X4023768Y-5223934D01*
X4025467Y-5212479D01*
X4028281Y-5201246D01*
X4032182Y-5190343D01*
X4037133Y-5179875D01*
X4043087Y-5169943D01*
X4049985Y-5160642D01*
X4057761Y-5152061D01*
X4066342Y-5144285D01*
X4075643Y-5137387D01*
X4085575Y-5131433D01*
X4096043Y-5126482D01*
X4106946Y-5122581D01*
X4118179Y-5119767D01*
X4129634Y-5118068D01*
X4141200Y-5117500D01*
X4417200Y-5117500D01*
X4428766Y-5118068D01*
X4428766Y-5118068D01*
G37*
D19*
X4279200Y-5353500D03*
G04 #@! TD*
D20*
G04 #@! TO.C,L1*
X2519200Y-2788500D03*
X3229200Y-2788500D03*
X3239200Y-3708500D03*
X2519200Y-3708500D03*
D21*
X2879200Y-3238500D03*
D10*
G36*
X2879200Y-3538313D02*
X2579387Y-3238500D01*
X2879200Y-2938687D01*
X3179013Y-3238500D01*
X2879200Y-3538313D01*
X2879200Y-3538313D01*
G37*
G04 #@! TD*
G04 #@! TO.C,C1*
G36*
X5378766Y-3803068D02*
X5390221Y-3804767D01*
X5401454Y-3807581D01*
X5412357Y-3811482D01*
X5422825Y-3816433D01*
X5432757Y-3822387D01*
X5442058Y-3829285D01*
X5450639Y-3837061D01*
X5458415Y-3845642D01*
X5465313Y-3854943D01*
X5471267Y-3864875D01*
X5476218Y-3875343D01*
X5480119Y-3886246D01*
X5482933Y-3897479D01*
X5484632Y-3908934D01*
X5485200Y-3920500D01*
X5485200Y-4156500D01*
X5484632Y-4168066D01*
X5482933Y-4179521D01*
X5480119Y-4190754D01*
X5476218Y-4201657D01*
X5471267Y-4212125D01*
X5465313Y-4222057D01*
X5458415Y-4231358D01*
X5450639Y-4239939D01*
X5442058Y-4247715D01*
X5432757Y-4254613D01*
X5422825Y-4260567D01*
X5412357Y-4265518D01*
X5401454Y-4269419D01*
X5390221Y-4272233D01*
X5378766Y-4273932D01*
X5367200Y-4274500D01*
X5091200Y-4274500D01*
X5079634Y-4273932D01*
X5068179Y-4272233D01*
X5056946Y-4269419D01*
X5046043Y-4265518D01*
X5035575Y-4260567D01*
X5025643Y-4254613D01*
X5016342Y-4247715D01*
X5007761Y-4239939D01*
X4999985Y-4231358D01*
X4993087Y-4222057D01*
X4987133Y-4212125D01*
X4982182Y-4201657D01*
X4978281Y-4190754D01*
X4975467Y-4179521D01*
X4973768Y-4168066D01*
X4973200Y-4156500D01*
X4973200Y-3920500D01*
X4973768Y-3908934D01*
X4975467Y-3897479D01*
X4978281Y-3886246D01*
X4982182Y-3875343D01*
X4987133Y-3864875D01*
X4993087Y-3854943D01*
X4999985Y-3845642D01*
X5007761Y-3837061D01*
X5016342Y-3829285D01*
X5025643Y-3822387D01*
X5035575Y-3816433D01*
X5046043Y-3811482D01*
X5056946Y-3807581D01*
X5068179Y-3804767D01*
X5079634Y-3803068D01*
X5091200Y-3802500D01*
X5367200Y-3802500D01*
X5378766Y-3803068D01*
X5378766Y-3803068D01*
G37*
D19*
X5229200Y-4038500D03*
D10*
G36*
X5378766Y-2833068D02*
X5390221Y-2834767D01*
X5401454Y-2837581D01*
X5412357Y-2841482D01*
X5422825Y-2846433D01*
X5432757Y-2852387D01*
X5442058Y-2859285D01*
X5450639Y-2867061D01*
X5458415Y-2875642D01*
X5465313Y-2884943D01*
X5471267Y-2894875D01*
X5476218Y-2905343D01*
X5480119Y-2916246D01*
X5482933Y-2927479D01*
X5484632Y-2938934D01*
X5485200Y-2950500D01*
X5485200Y-3186500D01*
X5484632Y-3198066D01*
X5482933Y-3209521D01*
X5480119Y-3220754D01*
X5476218Y-3231657D01*
X5471267Y-3242125D01*
X5465313Y-3252057D01*
X5458415Y-3261358D01*
X5450639Y-3269939D01*
X5442058Y-3277715D01*
X5432757Y-3284613D01*
X5422825Y-3290567D01*
X5412357Y-3295518D01*
X5401454Y-3299419D01*
X5390221Y-3302233D01*
X5378766Y-3303932D01*
X5367200Y-3304500D01*
X5091200Y-3304500D01*
X5079634Y-3303932D01*
X5068179Y-3302233D01*
X5056946Y-3299419D01*
X5046043Y-3295518D01*
X5035575Y-3290567D01*
X5025643Y-3284613D01*
X5016342Y-3277715D01*
X5007761Y-3269939D01*
X4999985Y-3261358D01*
X4993087Y-3252057D01*
X4987133Y-3242125D01*
X4982182Y-3231657D01*
X4978281Y-3220754D01*
X4975467Y-3209521D01*
X4973768Y-3198066D01*
X4973200Y-3186500D01*
X4973200Y-2950500D01*
X4973768Y-2938934D01*
X4975467Y-2927479D01*
X4978281Y-2916246D01*
X4982182Y-2905343D01*
X4987133Y-2894875D01*
X4993087Y-2884943D01*
X4999985Y-2875642D01*
X5007761Y-2867061D01*
X5016342Y-2859285D01*
X5025643Y-2852387D01*
X5035575Y-2846433D01*
X5046043Y-2841482D01*
X5056946Y-2837581D01*
X5068179Y-2834767D01*
X5079634Y-2833068D01*
X5091200Y-2832500D01*
X5367200Y-2832500D01*
X5378766Y-2833068D01*
X5378766Y-2833068D01*
G37*
D19*
X5229200Y-3068500D03*
G04 #@! TD*
D10*
G04 #@! TO.C,C2*
G36*
X4328766Y-2833068D02*
X4340221Y-2834767D01*
X4351454Y-2837581D01*
X4362357Y-2841482D01*
X4372825Y-2846433D01*
X4382757Y-2852387D01*
X4392058Y-2859285D01*
X4400639Y-2867061D01*
X4408415Y-2875642D01*
X4415313Y-2884943D01*
X4421267Y-2894875D01*
X4426218Y-2905343D01*
X4430119Y-2916246D01*
X4432933Y-2927479D01*
X4434632Y-2938934D01*
X4435200Y-2950500D01*
X4435200Y-3186500D01*
X4434632Y-3198066D01*
X4432933Y-3209521D01*
X4430119Y-3220754D01*
X4426218Y-3231657D01*
X4421267Y-3242125D01*
X4415313Y-3252057D01*
X4408415Y-3261358D01*
X4400639Y-3269939D01*
X4392058Y-3277715D01*
X4382757Y-3284613D01*
X4372825Y-3290567D01*
X4362357Y-3295518D01*
X4351454Y-3299419D01*
X4340221Y-3302233D01*
X4328766Y-3303932D01*
X4317200Y-3304500D01*
X4041200Y-3304500D01*
X4029634Y-3303932D01*
X4018179Y-3302233D01*
X4006946Y-3299419D01*
X3996043Y-3295518D01*
X3985575Y-3290567D01*
X3975643Y-3284613D01*
X3966342Y-3277715D01*
X3957761Y-3269939D01*
X3949985Y-3261358D01*
X3943087Y-3252057D01*
X3937133Y-3242125D01*
X3932182Y-3231657D01*
X3928281Y-3220754D01*
X3925467Y-3209521D01*
X3923768Y-3198066D01*
X3923200Y-3186500D01*
X3923200Y-2950500D01*
X3923768Y-2938934D01*
X3925467Y-2927479D01*
X3928281Y-2916246D01*
X3932182Y-2905343D01*
X3937133Y-2894875D01*
X3943087Y-2884943D01*
X3949985Y-2875642D01*
X3957761Y-2867061D01*
X3966342Y-2859285D01*
X3975643Y-2852387D01*
X3985575Y-2846433D01*
X3996043Y-2841482D01*
X4006946Y-2837581D01*
X4018179Y-2834767D01*
X4029634Y-2833068D01*
X4041200Y-2832500D01*
X4317200Y-2832500D01*
X4328766Y-2833068D01*
X4328766Y-2833068D01*
G37*
D19*
X4179200Y-3068500D03*
D10*
G36*
X4328766Y-3803068D02*
X4340221Y-3804767D01*
X4351454Y-3807581D01*
X4362357Y-3811482D01*
X4372825Y-3816433D01*
X4382757Y-3822387D01*
X4392058Y-3829285D01*
X4400639Y-3837061D01*
X4408415Y-3845642D01*
X4415313Y-3854943D01*
X4421267Y-3864875D01*
X4426218Y-3875343D01*
X4430119Y-3886246D01*
X4432933Y-3897479D01*
X4434632Y-3908934D01*
X4435200Y-3920500D01*
X4435200Y-4156500D01*
X4434632Y-4168066D01*
X4432933Y-4179521D01*
X4430119Y-4190754D01*
X4426218Y-4201657D01*
X4421267Y-4212125D01*
X4415313Y-4222057D01*
X4408415Y-4231358D01*
X4400639Y-4239939D01*
X4392058Y-4247715D01*
X4382757Y-4254613D01*
X4372825Y-4260567D01*
X4362357Y-4265518D01*
X4351454Y-4269419D01*
X4340221Y-4272233D01*
X4328766Y-4273932D01*
X4317200Y-4274500D01*
X4041200Y-4274500D01*
X4029634Y-4273932D01*
X4018179Y-4272233D01*
X4006946Y-4269419D01*
X3996043Y-4265518D01*
X3985575Y-4260567D01*
X3975643Y-4254613D01*
X3966342Y-4247715D01*
X3957761Y-4239939D01*
X3949985Y-4231358D01*
X3943087Y-4222057D01*
X3937133Y-4212125D01*
X3932182Y-4201657D01*
X3928281Y-4190754D01*
X3925467Y-4179521D01*
X3923768Y-4168066D01*
X3923200Y-4156500D01*
X3923200Y-3920500D01*
X3923768Y-3908934D01*
X3925467Y-3897479D01*
X3928281Y-3886246D01*
X3932182Y-3875343D01*
X3937133Y-3864875D01*
X3943087Y-3854943D01*
X3949985Y-3845642D01*
X3957761Y-3837061D01*
X3966342Y-3829285D01*
X3975643Y-3822387D01*
X3985575Y-3816433D01*
X3996043Y-3811482D01*
X4006946Y-3807581D01*
X4018179Y-3804767D01*
X4029634Y-3803068D01*
X4041200Y-3802500D01*
X4317200Y-3802500D01*
X4328766Y-3803068D01*
X4328766Y-3803068D01*
G37*
D19*
X4179200Y-4038500D03*
G04 #@! TD*
D10*
G04 #@! TO.C,C3*
G36*
X-1806234Y-1298068D02*
X-1794779Y-1299767D01*
X-1783546Y-1302581D01*
X-1772643Y-1306482D01*
X-1762175Y-1311433D01*
X-1752243Y-1317387D01*
X-1742942Y-1324285D01*
X-1734361Y-1332061D01*
X-1726585Y-1340642D01*
X-1719687Y-1349943D01*
X-1713733Y-1359875D01*
X-1708782Y-1370343D01*
X-1704881Y-1381246D01*
X-1702067Y-1392479D01*
X-1700368Y-1403934D01*
X-1699800Y-1415500D01*
X-1699800Y-1691500D01*
X-1700368Y-1703066D01*
X-1702067Y-1714521D01*
X-1704881Y-1725754D01*
X-1708782Y-1736657D01*
X-1713733Y-1747125D01*
X-1719687Y-1757057D01*
X-1726585Y-1766358D01*
X-1734361Y-1774939D01*
X-1742942Y-1782715D01*
X-1752243Y-1789613D01*
X-1762175Y-1795567D01*
X-1772643Y-1800518D01*
X-1783546Y-1804419D01*
X-1794779Y-1807233D01*
X-1806234Y-1808932D01*
X-1817800Y-1809500D01*
X-2053800Y-1809500D01*
X-2065366Y-1808932D01*
X-2076821Y-1807233D01*
X-2088054Y-1804419D01*
X-2098957Y-1800518D01*
X-2109425Y-1795567D01*
X-2119357Y-1789613D01*
X-2128658Y-1782715D01*
X-2137239Y-1774939D01*
X-2145015Y-1766358D01*
X-2151913Y-1757057D01*
X-2157867Y-1747125D01*
X-2162818Y-1736657D01*
X-2166719Y-1725754D01*
X-2169533Y-1714521D01*
X-2171232Y-1703066D01*
X-2171800Y-1691500D01*
X-2171800Y-1415500D01*
X-2171232Y-1403934D01*
X-2169533Y-1392479D01*
X-2166719Y-1381246D01*
X-2162818Y-1370343D01*
X-2157867Y-1359875D01*
X-2151913Y-1349943D01*
X-2145015Y-1340642D01*
X-2137239Y-1332061D01*
X-2128658Y-1324285D01*
X-2119357Y-1317387D01*
X-2109425Y-1311433D01*
X-2098957Y-1306482D01*
X-2088054Y-1302581D01*
X-2076821Y-1299767D01*
X-2065366Y-1298068D01*
X-2053800Y-1297500D01*
X-1817800Y-1297500D01*
X-1806234Y-1298068D01*
X-1806234Y-1298068D01*
G37*
D19*
X-1935800Y-1553500D03*
D10*
G36*
X-2776234Y-1298068D02*
X-2764779Y-1299767D01*
X-2753546Y-1302581D01*
X-2742643Y-1306482D01*
X-2732175Y-1311433D01*
X-2722243Y-1317387D01*
X-2712942Y-1324285D01*
X-2704361Y-1332061D01*
X-2696585Y-1340642D01*
X-2689687Y-1349943D01*
X-2683733Y-1359875D01*
X-2678782Y-1370343D01*
X-2674881Y-1381246D01*
X-2672067Y-1392479D01*
X-2670368Y-1403934D01*
X-2669800Y-1415500D01*
X-2669800Y-1691500D01*
X-2670368Y-1703066D01*
X-2672067Y-1714521D01*
X-2674881Y-1725754D01*
X-2678782Y-1736657D01*
X-2683733Y-1747125D01*
X-2689687Y-1757057D01*
X-2696585Y-1766358D01*
X-2704361Y-1774939D01*
X-2712942Y-1782715D01*
X-2722243Y-1789613D01*
X-2732175Y-1795567D01*
X-2742643Y-1800518D01*
X-2753546Y-1804419D01*
X-2764779Y-1807233D01*
X-2776234Y-1808932D01*
X-2787800Y-1809500D01*
X-3023800Y-1809500D01*
X-3035366Y-1808932D01*
X-3046821Y-1807233D01*
X-3058054Y-1804419D01*
X-3068957Y-1800518D01*
X-3079425Y-1795567D01*
X-3089357Y-1789613D01*
X-3098658Y-1782715D01*
X-3107239Y-1774939D01*
X-3115015Y-1766358D01*
X-3121913Y-1757057D01*
X-3127867Y-1747125D01*
X-3132818Y-1736657D01*
X-3136719Y-1725754D01*
X-3139533Y-1714521D01*
X-3141232Y-1703066D01*
X-3141800Y-1691500D01*
X-3141800Y-1415500D01*
X-3141232Y-1403934D01*
X-3139533Y-1392479D01*
X-3136719Y-1381246D01*
X-3132818Y-1370343D01*
X-3127867Y-1359875D01*
X-3121913Y-1349943D01*
X-3115015Y-1340642D01*
X-3107239Y-1332061D01*
X-3098658Y-1324285D01*
X-3089357Y-1317387D01*
X-3079425Y-1311433D01*
X-3068957Y-1306482D01*
X-3058054Y-1302581D01*
X-3046821Y-1299767D01*
X-3035366Y-1298068D01*
X-3023800Y-1297500D01*
X-2787800Y-1297500D01*
X-2776234Y-1298068D01*
X-2776234Y-1298068D01*
G37*
D19*
X-2905800Y-1553500D03*
G04 #@! TD*
D10*
G04 #@! TO.C,C4*
G36*
X-2776234Y-148068D02*
X-2764779Y-149767D01*
X-2753546Y-152581D01*
X-2742643Y-156482D01*
X-2732175Y-161433D01*
X-2722243Y-167387D01*
X-2712942Y-174285D01*
X-2704361Y-182061D01*
X-2696585Y-190642D01*
X-2689687Y-199943D01*
X-2683733Y-209875D01*
X-2678782Y-220343D01*
X-2674881Y-231246D01*
X-2672067Y-242479D01*
X-2670368Y-253934D01*
X-2669800Y-265500D01*
X-2669800Y-541500D01*
X-2670368Y-553066D01*
X-2672067Y-564521D01*
X-2674881Y-575754D01*
X-2678782Y-586657D01*
X-2683733Y-597125D01*
X-2689687Y-607057D01*
X-2696585Y-616358D01*
X-2704361Y-624939D01*
X-2712942Y-632715D01*
X-2722243Y-639613D01*
X-2732175Y-645567D01*
X-2742643Y-650518D01*
X-2753546Y-654419D01*
X-2764779Y-657233D01*
X-2776234Y-658932D01*
X-2787800Y-659500D01*
X-3023800Y-659500D01*
X-3035366Y-658932D01*
X-3046821Y-657233D01*
X-3058054Y-654419D01*
X-3068957Y-650518D01*
X-3079425Y-645567D01*
X-3089357Y-639613D01*
X-3098658Y-632715D01*
X-3107239Y-624939D01*
X-3115015Y-616358D01*
X-3121913Y-607057D01*
X-3127867Y-597125D01*
X-3132818Y-586657D01*
X-3136719Y-575754D01*
X-3139533Y-564521D01*
X-3141232Y-553066D01*
X-3141800Y-541500D01*
X-3141800Y-265500D01*
X-3141232Y-253934D01*
X-3139533Y-242479D01*
X-3136719Y-231246D01*
X-3132818Y-220343D01*
X-3127867Y-209875D01*
X-3121913Y-199943D01*
X-3115015Y-190642D01*
X-3107239Y-182061D01*
X-3098658Y-174285D01*
X-3089357Y-167387D01*
X-3079425Y-161433D01*
X-3068957Y-156482D01*
X-3058054Y-152581D01*
X-3046821Y-149767D01*
X-3035366Y-148068D01*
X-3023800Y-147500D01*
X-2787800Y-147500D01*
X-2776234Y-148068D01*
X-2776234Y-148068D01*
G37*
D19*
X-2905800Y-403500D03*
D10*
G36*
X-1806234Y-148068D02*
X-1794779Y-149767D01*
X-1783546Y-152581D01*
X-1772643Y-156482D01*
X-1762175Y-161433D01*
X-1752243Y-167387D01*
X-1742942Y-174285D01*
X-1734361Y-182061D01*
X-1726585Y-190642D01*
X-1719687Y-199943D01*
X-1713733Y-209875D01*
X-1708782Y-220343D01*
X-1704881Y-231246D01*
X-1702067Y-242479D01*
X-1700368Y-253934D01*
X-1699800Y-265500D01*
X-1699800Y-541500D01*
X-1700368Y-553066D01*
X-1702067Y-564521D01*
X-1704881Y-575754D01*
X-1708782Y-586657D01*
X-1713733Y-597125D01*
X-1719687Y-607057D01*
X-1726585Y-616358D01*
X-1734361Y-624939D01*
X-1742942Y-632715D01*
X-1752243Y-639613D01*
X-1762175Y-645567D01*
X-1772643Y-650518D01*
X-1783546Y-654419D01*
X-1794779Y-657233D01*
X-1806234Y-658932D01*
X-1817800Y-659500D01*
X-2053800Y-659500D01*
X-2065366Y-658932D01*
X-2076821Y-657233D01*
X-2088054Y-654419D01*
X-2098957Y-650518D01*
X-2109425Y-645567D01*
X-2119357Y-639613D01*
X-2128658Y-632715D01*
X-2137239Y-624939D01*
X-2145015Y-616358D01*
X-2151913Y-607057D01*
X-2157867Y-597125D01*
X-2162818Y-586657D01*
X-2166719Y-575754D01*
X-2169533Y-564521D01*
X-2171232Y-553066D01*
X-2171800Y-541500D01*
X-2171800Y-265500D01*
X-2171232Y-253934D01*
X-2169533Y-242479D01*
X-2166719Y-231246D01*
X-2162818Y-220343D01*
X-2157867Y-209875D01*
X-2151913Y-199943D01*
X-2145015Y-190642D01*
X-2137239Y-182061D01*
X-2128658Y-174285D01*
X-2119357Y-167387D01*
X-2109425Y-161433D01*
X-2098957Y-156482D01*
X-2088054Y-152581D01*
X-2076821Y-149767D01*
X-2065366Y-148068D01*
X-2053800Y-147500D01*
X-1817800Y-147500D01*
X-1806234Y-148068D01*
X-1806234Y-148068D01*
G37*
D19*
X-1935800Y-403500D03*
G04 #@! TD*
D10*
G04 #@! TO.C,C5*
G36*
X4943766Y5101932D02*
X4955221Y5100233D01*
X4966454Y5097419D01*
X4977357Y5093518D01*
X4987825Y5088567D01*
X4997757Y5082613D01*
X5007058Y5075715D01*
X5015639Y5067939D01*
X5023415Y5059358D01*
X5030313Y5050057D01*
X5036267Y5040125D01*
X5041218Y5029657D01*
X5045119Y5018754D01*
X5047933Y5007521D01*
X5049632Y4996066D01*
X5050200Y4984500D01*
X5050200Y4708500D01*
X5049632Y4696934D01*
X5047933Y4685479D01*
X5045119Y4674246D01*
X5041218Y4663343D01*
X5036267Y4652875D01*
X5030313Y4642943D01*
X5023415Y4633642D01*
X5015639Y4625061D01*
X5007058Y4617285D01*
X4997757Y4610387D01*
X4987825Y4604433D01*
X4977357Y4599482D01*
X4966454Y4595581D01*
X4955221Y4592767D01*
X4943766Y4591068D01*
X4932200Y4590500D01*
X4696200Y4590500D01*
X4684634Y4591068D01*
X4673179Y4592767D01*
X4661946Y4595581D01*
X4651043Y4599482D01*
X4640575Y4604433D01*
X4630643Y4610387D01*
X4621342Y4617285D01*
X4612761Y4625061D01*
X4604985Y4633642D01*
X4598087Y4642943D01*
X4592133Y4652875D01*
X4587182Y4663343D01*
X4583281Y4674246D01*
X4580467Y4685479D01*
X4578768Y4696934D01*
X4578200Y4708500D01*
X4578200Y4984500D01*
X4578768Y4996066D01*
X4580467Y5007521D01*
X4583281Y5018754D01*
X4587182Y5029657D01*
X4592133Y5040125D01*
X4598087Y5050057D01*
X4604985Y5059358D01*
X4612761Y5067939D01*
X4621342Y5075715D01*
X4630643Y5082613D01*
X4640575Y5088567D01*
X4651043Y5093518D01*
X4661946Y5097419D01*
X4673179Y5100233D01*
X4684634Y5101932D01*
X4696200Y5102500D01*
X4932200Y5102500D01*
X4943766Y5101932D01*
X4943766Y5101932D01*
G37*
D19*
X4814200Y4846500D03*
D10*
G36*
X3973766Y5101932D02*
X3985221Y5100233D01*
X3996454Y5097419D01*
X4007357Y5093518D01*
X4017825Y5088567D01*
X4027757Y5082613D01*
X4037058Y5075715D01*
X4045639Y5067939D01*
X4053415Y5059358D01*
X4060313Y5050057D01*
X4066267Y5040125D01*
X4071218Y5029657D01*
X4075119Y5018754D01*
X4077933Y5007521D01*
X4079632Y4996066D01*
X4080200Y4984500D01*
X4080200Y4708500D01*
X4079632Y4696934D01*
X4077933Y4685479D01*
X4075119Y4674246D01*
X4071218Y4663343D01*
X4066267Y4652875D01*
X4060313Y4642943D01*
X4053415Y4633642D01*
X4045639Y4625061D01*
X4037058Y4617285D01*
X4027757Y4610387D01*
X4017825Y4604433D01*
X4007357Y4599482D01*
X3996454Y4595581D01*
X3985221Y4592767D01*
X3973766Y4591068D01*
X3962200Y4590500D01*
X3726200Y4590500D01*
X3714634Y4591068D01*
X3703179Y4592767D01*
X3691946Y4595581D01*
X3681043Y4599482D01*
X3670575Y4604433D01*
X3660643Y4610387D01*
X3651342Y4617285D01*
X3642761Y4625061D01*
X3634985Y4633642D01*
X3628087Y4642943D01*
X3622133Y4652875D01*
X3617182Y4663343D01*
X3613281Y4674246D01*
X3610467Y4685479D01*
X3608768Y4696934D01*
X3608200Y4708500D01*
X3608200Y4984500D01*
X3608768Y4996066D01*
X3610467Y5007521D01*
X3613281Y5018754D01*
X3617182Y5029657D01*
X3622133Y5040125D01*
X3628087Y5050057D01*
X3634985Y5059358D01*
X3642761Y5067939D01*
X3651342Y5075715D01*
X3660643Y5082613D01*
X3670575Y5088567D01*
X3681043Y5093518D01*
X3691946Y5097419D01*
X3703179Y5100233D01*
X3714634Y5101932D01*
X3726200Y5102500D01*
X3962200Y5102500D01*
X3973766Y5101932D01*
X3973766Y5101932D01*
G37*
D19*
X3844200Y4846500D03*
G04 #@! TD*
D10*
G04 #@! TO.C,C6*
G36*
X4128766Y3096932D02*
X4140221Y3095233D01*
X4151454Y3092419D01*
X4162357Y3088518D01*
X4172825Y3083567D01*
X4182757Y3077613D01*
X4192058Y3070715D01*
X4200639Y3062939D01*
X4208415Y3054358D01*
X4215313Y3045057D01*
X4221267Y3035125D01*
X4226218Y3024657D01*
X4230119Y3013754D01*
X4232933Y3002521D01*
X4234632Y2991066D01*
X4235200Y2979500D01*
X4235200Y2743500D01*
X4234632Y2731934D01*
X4232933Y2720479D01*
X4230119Y2709246D01*
X4226218Y2698343D01*
X4221267Y2687875D01*
X4215313Y2677943D01*
X4208415Y2668642D01*
X4200639Y2660061D01*
X4192058Y2652285D01*
X4182757Y2645387D01*
X4172825Y2639433D01*
X4162357Y2634482D01*
X4151454Y2630581D01*
X4140221Y2627767D01*
X4128766Y2626068D01*
X4117200Y2625500D01*
X3841200Y2625500D01*
X3829634Y2626068D01*
X3818179Y2627767D01*
X3806946Y2630581D01*
X3796043Y2634482D01*
X3785575Y2639433D01*
X3775643Y2645387D01*
X3766342Y2652285D01*
X3757761Y2660061D01*
X3749985Y2668642D01*
X3743087Y2677943D01*
X3737133Y2687875D01*
X3732182Y2698343D01*
X3728281Y2709246D01*
X3725467Y2720479D01*
X3723768Y2731934D01*
X3723200Y2743500D01*
X3723200Y2979500D01*
X3723768Y2991066D01*
X3725467Y3002521D01*
X3728281Y3013754D01*
X3732182Y3024657D01*
X3737133Y3035125D01*
X3743087Y3045057D01*
X3749985Y3054358D01*
X3757761Y3062939D01*
X3766342Y3070715D01*
X3775643Y3077613D01*
X3785575Y3083567D01*
X3796043Y3088518D01*
X3806946Y3092419D01*
X3818179Y3095233D01*
X3829634Y3096932D01*
X3841200Y3097500D01*
X4117200Y3097500D01*
X4128766Y3096932D01*
X4128766Y3096932D01*
G37*
D19*
X3979200Y2861500D03*
D10*
G36*
X4128766Y4066932D02*
X4140221Y4065233D01*
X4151454Y4062419D01*
X4162357Y4058518D01*
X4172825Y4053567D01*
X4182757Y4047613D01*
X4192058Y4040715D01*
X4200639Y4032939D01*
X4208415Y4024358D01*
X4215313Y4015057D01*
X4221267Y4005125D01*
X4226218Y3994657D01*
X4230119Y3983754D01*
X4232933Y3972521D01*
X4234632Y3961066D01*
X4235200Y3949500D01*
X4235200Y3713500D01*
X4234632Y3701934D01*
X4232933Y3690479D01*
X4230119Y3679246D01*
X4226218Y3668343D01*
X4221267Y3657875D01*
X4215313Y3647943D01*
X4208415Y3638642D01*
X4200639Y3630061D01*
X4192058Y3622285D01*
X4182757Y3615387D01*
X4172825Y3609433D01*
X4162357Y3604482D01*
X4151454Y3600581D01*
X4140221Y3597767D01*
X4128766Y3596068D01*
X4117200Y3595500D01*
X3841200Y3595500D01*
X3829634Y3596068D01*
X3818179Y3597767D01*
X3806946Y3600581D01*
X3796043Y3604482D01*
X3785575Y3609433D01*
X3775643Y3615387D01*
X3766342Y3622285D01*
X3757761Y3630061D01*
X3749985Y3638642D01*
X3743087Y3647943D01*
X3737133Y3657875D01*
X3732182Y3668343D01*
X3728281Y3679246D01*
X3725467Y3690479D01*
X3723768Y3701934D01*
X3723200Y3713500D01*
X3723200Y3949500D01*
X3723768Y3961066D01*
X3725467Y3972521D01*
X3728281Y3983754D01*
X3732182Y3994657D01*
X3737133Y4005125D01*
X3743087Y4015057D01*
X3749985Y4024358D01*
X3757761Y4032939D01*
X3766342Y4040715D01*
X3775643Y4047613D01*
X3785575Y4053567D01*
X3796043Y4058518D01*
X3806946Y4062419D01*
X3818179Y4065233D01*
X3829634Y4066932D01*
X3841200Y4067500D01*
X4117200Y4067500D01*
X4128766Y4066932D01*
X4128766Y4066932D01*
G37*
D19*
X3979200Y3831500D03*
G04 #@! TD*
D10*
G04 #@! TO.C,C7*
G36*
X5278766Y4066932D02*
X5290221Y4065233D01*
X5301454Y4062419D01*
X5312357Y4058518D01*
X5322825Y4053567D01*
X5332757Y4047613D01*
X5342058Y4040715D01*
X5350639Y4032939D01*
X5358415Y4024358D01*
X5365313Y4015057D01*
X5371267Y4005125D01*
X5376218Y3994657D01*
X5380119Y3983754D01*
X5382933Y3972521D01*
X5384632Y3961066D01*
X5385200Y3949500D01*
X5385200Y3713500D01*
X5384632Y3701934D01*
X5382933Y3690479D01*
X5380119Y3679246D01*
X5376218Y3668343D01*
X5371267Y3657875D01*
X5365313Y3647943D01*
X5358415Y3638642D01*
X5350639Y3630061D01*
X5342058Y3622285D01*
X5332757Y3615387D01*
X5322825Y3609433D01*
X5312357Y3604482D01*
X5301454Y3600581D01*
X5290221Y3597767D01*
X5278766Y3596068D01*
X5267200Y3595500D01*
X4991200Y3595500D01*
X4979634Y3596068D01*
X4968179Y3597767D01*
X4956946Y3600581D01*
X4946043Y3604482D01*
X4935575Y3609433D01*
X4925643Y3615387D01*
X4916342Y3622285D01*
X4907761Y3630061D01*
X4899985Y3638642D01*
X4893087Y3647943D01*
X4887133Y3657875D01*
X4882182Y3668343D01*
X4878281Y3679246D01*
X4875467Y3690479D01*
X4873768Y3701934D01*
X4873200Y3713500D01*
X4873200Y3949500D01*
X4873768Y3961066D01*
X4875467Y3972521D01*
X4878281Y3983754D01*
X4882182Y3994657D01*
X4887133Y4005125D01*
X4893087Y4015057D01*
X4899985Y4024358D01*
X4907761Y4032939D01*
X4916342Y4040715D01*
X4925643Y4047613D01*
X4935575Y4053567D01*
X4946043Y4058518D01*
X4956946Y4062419D01*
X4968179Y4065233D01*
X4979634Y4066932D01*
X4991200Y4067500D01*
X5267200Y4067500D01*
X5278766Y4066932D01*
X5278766Y4066932D01*
G37*
D19*
X5129200Y3831500D03*
D10*
G36*
X5278766Y3096932D02*
X5290221Y3095233D01*
X5301454Y3092419D01*
X5312357Y3088518D01*
X5322825Y3083567D01*
X5332757Y3077613D01*
X5342058Y3070715D01*
X5350639Y3062939D01*
X5358415Y3054358D01*
X5365313Y3045057D01*
X5371267Y3035125D01*
X5376218Y3024657D01*
X5380119Y3013754D01*
X5382933Y3002521D01*
X5384632Y2991066D01*
X5385200Y2979500D01*
X5385200Y2743500D01*
X5384632Y2731934D01*
X5382933Y2720479D01*
X5380119Y2709246D01*
X5376218Y2698343D01*
X5371267Y2687875D01*
X5365313Y2677943D01*
X5358415Y2668642D01*
X5350639Y2660061D01*
X5342058Y2652285D01*
X5332757Y2645387D01*
X5322825Y2639433D01*
X5312357Y2634482D01*
X5301454Y2630581D01*
X5290221Y2627767D01*
X5278766Y2626068D01*
X5267200Y2625500D01*
X4991200Y2625500D01*
X4979634Y2626068D01*
X4968179Y2627767D01*
X4956946Y2630581D01*
X4946043Y2634482D01*
X4935575Y2639433D01*
X4925643Y2645387D01*
X4916342Y2652285D01*
X4907761Y2660061D01*
X4899985Y2668642D01*
X4893087Y2677943D01*
X4887133Y2687875D01*
X4882182Y2698343D01*
X4878281Y2709246D01*
X4875467Y2720479D01*
X4873768Y2731934D01*
X4873200Y2743500D01*
X4873200Y2979500D01*
X4873768Y2991066D01*
X4875467Y3002521D01*
X4878281Y3013754D01*
X4882182Y3024657D01*
X4887133Y3035125D01*
X4893087Y3045057D01*
X4899985Y3054358D01*
X4907761Y3062939D01*
X4916342Y3070715D01*
X4925643Y3077613D01*
X4935575Y3083567D01*
X4946043Y3088518D01*
X4956946Y3092419D01*
X4968179Y3095233D01*
X4979634Y3096932D01*
X4991200Y3097500D01*
X5267200Y3097500D01*
X5278766Y3096932D01*
X5278766Y3096932D01*
G37*
D19*
X5129200Y2861500D03*
G04 #@! TD*
D10*
G04 #@! TO.C,R1*
G36*
X-1321234Y-4753068D02*
X-1309779Y-4754767D01*
X-1298546Y-4757581D01*
X-1287643Y-4761482D01*
X-1277175Y-4766433D01*
X-1267243Y-4772387D01*
X-1257942Y-4779285D01*
X-1249361Y-4787061D01*
X-1241585Y-4795642D01*
X-1234687Y-4804943D01*
X-1228733Y-4814875D01*
X-1223782Y-4825343D01*
X-1219881Y-4836246D01*
X-1217067Y-4847479D01*
X-1215368Y-4858934D01*
X-1214800Y-4870500D01*
X-1214800Y-5106500D01*
X-1215368Y-5118066D01*
X-1217067Y-5129521D01*
X-1219881Y-5140754D01*
X-1223782Y-5151657D01*
X-1228733Y-5162125D01*
X-1234687Y-5172057D01*
X-1241585Y-5181358D01*
X-1249361Y-5189939D01*
X-1257942Y-5197715D01*
X-1267243Y-5204613D01*
X-1277175Y-5210567D01*
X-1287643Y-5215518D01*
X-1298546Y-5219419D01*
X-1309779Y-5222233D01*
X-1321234Y-5223932D01*
X-1332800Y-5224500D01*
X-1608800Y-5224500D01*
X-1620366Y-5223932D01*
X-1631821Y-5222233D01*
X-1643054Y-5219419D01*
X-1653957Y-5215518D01*
X-1664425Y-5210567D01*
X-1674357Y-5204613D01*
X-1683658Y-5197715D01*
X-1692239Y-5189939D01*
X-1700015Y-5181358D01*
X-1706913Y-5172057D01*
X-1712867Y-5162125D01*
X-1717818Y-5151657D01*
X-1721719Y-5140754D01*
X-1724533Y-5129521D01*
X-1726232Y-5118066D01*
X-1726800Y-5106500D01*
X-1726800Y-4870500D01*
X-1726232Y-4858934D01*
X-1724533Y-4847479D01*
X-1721719Y-4836246D01*
X-1717818Y-4825343D01*
X-1712867Y-4814875D01*
X-1706913Y-4804943D01*
X-1700015Y-4795642D01*
X-1692239Y-4787061D01*
X-1683658Y-4779285D01*
X-1674357Y-4772387D01*
X-1664425Y-4766433D01*
X-1653957Y-4761482D01*
X-1643054Y-4757581D01*
X-1631821Y-4754767D01*
X-1620366Y-4753068D01*
X-1608800Y-4752500D01*
X-1332800Y-4752500D01*
X-1321234Y-4753068D01*
X-1321234Y-4753068D01*
G37*
D19*
X-1470800Y-4988500D03*
D10*
G36*
X-1321234Y-3783068D02*
X-1309779Y-3784767D01*
X-1298546Y-3787581D01*
X-1287643Y-3791482D01*
X-1277175Y-3796433D01*
X-1267243Y-3802387D01*
X-1257942Y-3809285D01*
X-1249361Y-3817061D01*
X-1241585Y-3825642D01*
X-1234687Y-3834943D01*
X-1228733Y-3844875D01*
X-1223782Y-3855343D01*
X-1219881Y-3866246D01*
X-1217067Y-3877479D01*
X-1215368Y-3888934D01*
X-1214800Y-3900500D01*
X-1214800Y-4136500D01*
X-1215368Y-4148066D01*
X-1217067Y-4159521D01*
X-1219881Y-4170754D01*
X-1223782Y-4181657D01*
X-1228733Y-4192125D01*
X-1234687Y-4202057D01*
X-1241585Y-4211358D01*
X-1249361Y-4219939D01*
X-1257942Y-4227715D01*
X-1267243Y-4234613D01*
X-1277175Y-4240567D01*
X-1287643Y-4245518D01*
X-1298546Y-4249419D01*
X-1309779Y-4252233D01*
X-1321234Y-4253932D01*
X-1332800Y-4254500D01*
X-1608800Y-4254500D01*
X-1620366Y-4253932D01*
X-1631821Y-4252233D01*
X-1643054Y-4249419D01*
X-1653957Y-4245518D01*
X-1664425Y-4240567D01*
X-1674357Y-4234613D01*
X-1683658Y-4227715D01*
X-1692239Y-4219939D01*
X-1700015Y-4211358D01*
X-1706913Y-4202057D01*
X-1712867Y-4192125D01*
X-1717818Y-4181657D01*
X-1721719Y-4170754D01*
X-1724533Y-4159521D01*
X-1726232Y-4148066D01*
X-1726800Y-4136500D01*
X-1726800Y-3900500D01*
X-1726232Y-3888934D01*
X-1724533Y-3877479D01*
X-1721719Y-3866246D01*
X-1717818Y-3855343D01*
X-1712867Y-3844875D01*
X-1706913Y-3834943D01*
X-1700015Y-3825642D01*
X-1692239Y-3817061D01*
X-1683658Y-3809285D01*
X-1674357Y-3802387D01*
X-1664425Y-3796433D01*
X-1653957Y-3791482D01*
X-1643054Y-3787581D01*
X-1631821Y-3784767D01*
X-1620366Y-3783068D01*
X-1608800Y-3782500D01*
X-1332800Y-3782500D01*
X-1321234Y-3783068D01*
X-1321234Y-3783068D01*
G37*
D19*
X-1470800Y-4018500D03*
G04 #@! TD*
D10*
G04 #@! TO.C,R2*
G36*
X-1321234Y-5733068D02*
X-1309779Y-5734767D01*
X-1298546Y-5737581D01*
X-1287643Y-5741482D01*
X-1277175Y-5746433D01*
X-1267243Y-5752387D01*
X-1257942Y-5759285D01*
X-1249361Y-5767061D01*
X-1241585Y-5775642D01*
X-1234687Y-5784943D01*
X-1228733Y-5794875D01*
X-1223782Y-5805343D01*
X-1219881Y-5816246D01*
X-1217067Y-5827479D01*
X-1215368Y-5838934D01*
X-1214800Y-5850500D01*
X-1214800Y-6086500D01*
X-1215368Y-6098066D01*
X-1217067Y-6109521D01*
X-1219881Y-6120754D01*
X-1223782Y-6131657D01*
X-1228733Y-6142125D01*
X-1234687Y-6152057D01*
X-1241585Y-6161358D01*
X-1249361Y-6169939D01*
X-1257942Y-6177715D01*
X-1267243Y-6184613D01*
X-1277175Y-6190567D01*
X-1287643Y-6195518D01*
X-1298546Y-6199419D01*
X-1309779Y-6202233D01*
X-1321234Y-6203932D01*
X-1332800Y-6204500D01*
X-1608800Y-6204500D01*
X-1620366Y-6203932D01*
X-1631821Y-6202233D01*
X-1643054Y-6199419D01*
X-1653957Y-6195518D01*
X-1664425Y-6190567D01*
X-1674357Y-6184613D01*
X-1683658Y-6177715D01*
X-1692239Y-6169939D01*
X-1700015Y-6161358D01*
X-1706913Y-6152057D01*
X-1712867Y-6142125D01*
X-1717818Y-6131657D01*
X-1721719Y-6120754D01*
X-1724533Y-6109521D01*
X-1726232Y-6098066D01*
X-1726800Y-6086500D01*
X-1726800Y-5850500D01*
X-1726232Y-5838934D01*
X-1724533Y-5827479D01*
X-1721719Y-5816246D01*
X-1717818Y-5805343D01*
X-1712867Y-5794875D01*
X-1706913Y-5784943D01*
X-1700015Y-5775642D01*
X-1692239Y-5767061D01*
X-1683658Y-5759285D01*
X-1674357Y-5752387D01*
X-1664425Y-5746433D01*
X-1653957Y-5741482D01*
X-1643054Y-5737581D01*
X-1631821Y-5734767D01*
X-1620366Y-5733068D01*
X-1608800Y-5732500D01*
X-1332800Y-5732500D01*
X-1321234Y-5733068D01*
X-1321234Y-5733068D01*
G37*
D19*
X-1470800Y-5968500D03*
D10*
G36*
X-1321234Y-6703068D02*
X-1309779Y-6704767D01*
X-1298546Y-6707581D01*
X-1287643Y-6711482D01*
X-1277175Y-6716433D01*
X-1267243Y-6722387D01*
X-1257942Y-6729285D01*
X-1249361Y-6737061D01*
X-1241585Y-6745642D01*
X-1234687Y-6754943D01*
X-1228733Y-6764875D01*
X-1223782Y-6775343D01*
X-1219881Y-6786246D01*
X-1217067Y-6797479D01*
X-1215368Y-6808934D01*
X-1214800Y-6820500D01*
X-1214800Y-7056500D01*
X-1215368Y-7068066D01*
X-1217067Y-7079521D01*
X-1219881Y-7090754D01*
X-1223782Y-7101657D01*
X-1228733Y-7112125D01*
X-1234687Y-7122057D01*
X-1241585Y-7131358D01*
X-1249361Y-7139939D01*
X-1257942Y-7147715D01*
X-1267243Y-7154613D01*
X-1277175Y-7160567D01*
X-1287643Y-7165518D01*
X-1298546Y-7169419D01*
X-1309779Y-7172233D01*
X-1321234Y-7173932D01*
X-1332800Y-7174500D01*
X-1608800Y-7174500D01*
X-1620366Y-7173932D01*
X-1631821Y-7172233D01*
X-1643054Y-7169419D01*
X-1653957Y-7165518D01*
X-1664425Y-7160567D01*
X-1674357Y-7154613D01*
X-1683658Y-7147715D01*
X-1692239Y-7139939D01*
X-1700015Y-7131358D01*
X-1706913Y-7122057D01*
X-1712867Y-7112125D01*
X-1717818Y-7101657D01*
X-1721719Y-7090754D01*
X-1724533Y-7079521D01*
X-1726232Y-7068066D01*
X-1726800Y-7056500D01*
X-1726800Y-6820500D01*
X-1726232Y-6808934D01*
X-1724533Y-6797479D01*
X-1721719Y-6786246D01*
X-1717818Y-6775343D01*
X-1712867Y-6764875D01*
X-1706913Y-6754943D01*
X-1700015Y-6745642D01*
X-1692239Y-6737061D01*
X-1683658Y-6729285D01*
X-1674357Y-6722387D01*
X-1664425Y-6716433D01*
X-1653957Y-6711482D01*
X-1643054Y-6707581D01*
X-1631821Y-6704767D01*
X-1620366Y-6703068D01*
X-1608800Y-6702500D01*
X-1332800Y-6702500D01*
X-1321234Y-6703068D01*
X-1321234Y-6703068D01*
G37*
D19*
X-1470800Y-6938500D03*
G04 #@! TD*
D10*
G04 #@! TO.C,R4*
G36*
X-676234Y7466932D02*
X-664779Y7465233D01*
X-653546Y7462419D01*
X-642643Y7458518D01*
X-632175Y7453567D01*
X-622243Y7447613D01*
X-612942Y7440715D01*
X-604361Y7432939D01*
X-596585Y7424358D01*
X-589687Y7415057D01*
X-583733Y7405125D01*
X-578782Y7394657D01*
X-574881Y7383754D01*
X-572067Y7372521D01*
X-570368Y7361066D01*
X-569800Y7349500D01*
X-569800Y7073500D01*
X-570368Y7061934D01*
X-572067Y7050479D01*
X-574881Y7039246D01*
X-578782Y7028343D01*
X-583733Y7017875D01*
X-589687Y7007943D01*
X-596585Y6998642D01*
X-604361Y6990061D01*
X-612942Y6982285D01*
X-622243Y6975387D01*
X-632175Y6969433D01*
X-642643Y6964482D01*
X-653546Y6960581D01*
X-664779Y6957767D01*
X-676234Y6956068D01*
X-687800Y6955500D01*
X-923800Y6955500D01*
X-935366Y6956068D01*
X-946821Y6957767D01*
X-958054Y6960581D01*
X-968957Y6964482D01*
X-979425Y6969433D01*
X-989357Y6975387D01*
X-998658Y6982285D01*
X-1007239Y6990061D01*
X-1015015Y6998642D01*
X-1021913Y7007943D01*
X-1027867Y7017875D01*
X-1032818Y7028343D01*
X-1036719Y7039246D01*
X-1039533Y7050479D01*
X-1041232Y7061934D01*
X-1041800Y7073500D01*
X-1041800Y7349500D01*
X-1041232Y7361066D01*
X-1039533Y7372521D01*
X-1036719Y7383754D01*
X-1032818Y7394657D01*
X-1027867Y7405125D01*
X-1021913Y7415057D01*
X-1015015Y7424358D01*
X-1007239Y7432939D01*
X-998658Y7440715D01*
X-989357Y7447613D01*
X-979425Y7453567D01*
X-968957Y7458518D01*
X-958054Y7462419D01*
X-946821Y7465233D01*
X-935366Y7466932D01*
X-923800Y7467500D01*
X-687800Y7467500D01*
X-676234Y7466932D01*
X-676234Y7466932D01*
G37*
D19*
X-805800Y7211500D03*
D10*
G36*
X293766Y7466932D02*
X305221Y7465233D01*
X316454Y7462419D01*
X327357Y7458518D01*
X337825Y7453567D01*
X347757Y7447613D01*
X357058Y7440715D01*
X365639Y7432939D01*
X373415Y7424358D01*
X380313Y7415057D01*
X386267Y7405125D01*
X391218Y7394657D01*
X395119Y7383754D01*
X397933Y7372521D01*
X399632Y7361066D01*
X400200Y7349500D01*
X400200Y7073500D01*
X399632Y7061934D01*
X397933Y7050479D01*
X395119Y7039246D01*
X391218Y7028343D01*
X386267Y7017875D01*
X380313Y7007943D01*
X373415Y6998642D01*
X365639Y6990061D01*
X357058Y6982285D01*
X347757Y6975387D01*
X337825Y6969433D01*
X327357Y6964482D01*
X316454Y6960581D01*
X305221Y6957767D01*
X293766Y6956068D01*
X282200Y6955500D01*
X46200Y6955500D01*
X34634Y6956068D01*
X23179Y6957767D01*
X11946Y6960581D01*
X1043Y6964482D01*
X-9425Y6969433D01*
X-19357Y6975387D01*
X-28658Y6982285D01*
X-37239Y6990061D01*
X-45015Y6998642D01*
X-51913Y7007943D01*
X-57867Y7017875D01*
X-62818Y7028343D01*
X-66719Y7039246D01*
X-69533Y7050479D01*
X-71232Y7061934D01*
X-71800Y7073500D01*
X-71800Y7349500D01*
X-71232Y7361066D01*
X-69533Y7372521D01*
X-66719Y7383754D01*
X-62818Y7394657D01*
X-57867Y7405125D01*
X-51913Y7415057D01*
X-45015Y7424358D01*
X-37239Y7432939D01*
X-28658Y7440715D01*
X-19357Y7447613D01*
X-9425Y7453567D01*
X1043Y7458518D01*
X11946Y7462419D01*
X23179Y7465233D01*
X34634Y7466932D01*
X46200Y7467500D01*
X282200Y7467500D01*
X293766Y7466932D01*
X293766Y7466932D01*
G37*
D19*
X164200Y7211500D03*
G04 #@! TD*
D10*
G04 #@! TO.C,R6*
G36*
X4943766Y6751932D02*
X4955221Y6750233D01*
X4966454Y6747419D01*
X4977357Y6743518D01*
X4987825Y6738567D01*
X4997757Y6732613D01*
X5007058Y6725715D01*
X5015639Y6717939D01*
X5023415Y6709358D01*
X5030313Y6700057D01*
X5036267Y6690125D01*
X5041218Y6679657D01*
X5045119Y6668754D01*
X5047933Y6657521D01*
X5049632Y6646066D01*
X5050200Y6634500D01*
X5050200Y6358500D01*
X5049632Y6346934D01*
X5047933Y6335479D01*
X5045119Y6324246D01*
X5041218Y6313343D01*
X5036267Y6302875D01*
X5030313Y6292943D01*
X5023415Y6283642D01*
X5015639Y6275061D01*
X5007058Y6267285D01*
X4997757Y6260387D01*
X4987825Y6254433D01*
X4977357Y6249482D01*
X4966454Y6245581D01*
X4955221Y6242767D01*
X4943766Y6241068D01*
X4932200Y6240500D01*
X4696200Y6240500D01*
X4684634Y6241068D01*
X4673179Y6242767D01*
X4661946Y6245581D01*
X4651043Y6249482D01*
X4640575Y6254433D01*
X4630643Y6260387D01*
X4621342Y6267285D01*
X4612761Y6275061D01*
X4604985Y6283642D01*
X4598087Y6292943D01*
X4592133Y6302875D01*
X4587182Y6313343D01*
X4583281Y6324246D01*
X4580467Y6335479D01*
X4578768Y6346934D01*
X4578200Y6358500D01*
X4578200Y6634500D01*
X4578768Y6646066D01*
X4580467Y6657521D01*
X4583281Y6668754D01*
X4587182Y6679657D01*
X4592133Y6690125D01*
X4598087Y6700057D01*
X4604985Y6709358D01*
X4612761Y6717939D01*
X4621342Y6725715D01*
X4630643Y6732613D01*
X4640575Y6738567D01*
X4651043Y6743518D01*
X4661946Y6747419D01*
X4673179Y6750233D01*
X4684634Y6751932D01*
X4696200Y6752500D01*
X4932200Y6752500D01*
X4943766Y6751932D01*
X4943766Y6751932D01*
G37*
D19*
X4814200Y6496500D03*
D10*
G36*
X3973766Y6751932D02*
X3985221Y6750233D01*
X3996454Y6747419D01*
X4007357Y6743518D01*
X4017825Y6738567D01*
X4027757Y6732613D01*
X4037058Y6725715D01*
X4045639Y6717939D01*
X4053415Y6709358D01*
X4060313Y6700057D01*
X4066267Y6690125D01*
X4071218Y6679657D01*
X4075119Y6668754D01*
X4077933Y6657521D01*
X4079632Y6646066D01*
X4080200Y6634500D01*
X4080200Y6358500D01*
X4079632Y6346934D01*
X4077933Y6335479D01*
X4075119Y6324246D01*
X4071218Y6313343D01*
X4066267Y6302875D01*
X4060313Y6292943D01*
X4053415Y6283642D01*
X4045639Y6275061D01*
X4037058Y6267285D01*
X4027757Y6260387D01*
X4017825Y6254433D01*
X4007357Y6249482D01*
X3996454Y6245581D01*
X3985221Y6242767D01*
X3973766Y6241068D01*
X3962200Y6240500D01*
X3726200Y6240500D01*
X3714634Y6241068D01*
X3703179Y6242767D01*
X3691946Y6245581D01*
X3681043Y6249482D01*
X3670575Y6254433D01*
X3660643Y6260387D01*
X3651342Y6267285D01*
X3642761Y6275061D01*
X3634985Y6283642D01*
X3628087Y6292943D01*
X3622133Y6302875D01*
X3617182Y6313343D01*
X3613281Y6324246D01*
X3610467Y6335479D01*
X3608768Y6346934D01*
X3608200Y6358500D01*
X3608200Y6634500D01*
X3608768Y6646066D01*
X3610467Y6657521D01*
X3613281Y6668754D01*
X3617182Y6679657D01*
X3622133Y6690125D01*
X3628087Y6700057D01*
X3634985Y6709358D01*
X3642761Y6717939D01*
X3651342Y6725715D01*
X3660643Y6732613D01*
X3670575Y6738567D01*
X3681043Y6743518D01*
X3691946Y6747419D01*
X3703179Y6750233D01*
X3714634Y6751932D01*
X3726200Y6752500D01*
X3962200Y6752500D01*
X3973766Y6751932D01*
X3973766Y6751932D01*
G37*
D19*
X3844200Y6496500D03*
G04 #@! TD*
D22*
G04 #@! TO.C,U3*
X1179200Y-2038500D03*
X2179200Y-2038500D03*
X1179200Y-638500D03*
X1679200Y-2038500D03*
X2179200Y-638500D03*
G04 #@! TD*
D10*
G04 #@! TO.C,R3*
G36*
X-121234Y-1568068D02*
X-109779Y-1569767D01*
X-98546Y-1572581D01*
X-87643Y-1576482D01*
X-77175Y-1581433D01*
X-67243Y-1587387D01*
X-57942Y-1594285D01*
X-49361Y-1602061D01*
X-41585Y-1610642D01*
X-34687Y-1619943D01*
X-28733Y-1629875D01*
X-23782Y-1640343D01*
X-19881Y-1651246D01*
X-17067Y-1662479D01*
X-15368Y-1673934D01*
X-14800Y-1685500D01*
X-14800Y-1921500D01*
X-15368Y-1933066D01*
X-17067Y-1944521D01*
X-19881Y-1955754D01*
X-23782Y-1966657D01*
X-28733Y-1977125D01*
X-34687Y-1987057D01*
X-41585Y-1996358D01*
X-49361Y-2004939D01*
X-57942Y-2012715D01*
X-67243Y-2019613D01*
X-77175Y-2025567D01*
X-87643Y-2030518D01*
X-98546Y-2034419D01*
X-109779Y-2037233D01*
X-121234Y-2038932D01*
X-132800Y-2039500D01*
X-408800Y-2039500D01*
X-420366Y-2038932D01*
X-431821Y-2037233D01*
X-443054Y-2034419D01*
X-453957Y-2030518D01*
X-464425Y-2025567D01*
X-474357Y-2019613D01*
X-483658Y-2012715D01*
X-492239Y-2004939D01*
X-500015Y-1996358D01*
X-506913Y-1987057D01*
X-512867Y-1977125D01*
X-517818Y-1966657D01*
X-521719Y-1955754D01*
X-524533Y-1944521D01*
X-526232Y-1933066D01*
X-526800Y-1921500D01*
X-526800Y-1685500D01*
X-526232Y-1673934D01*
X-524533Y-1662479D01*
X-521719Y-1651246D01*
X-517818Y-1640343D01*
X-512867Y-1629875D01*
X-506913Y-1619943D01*
X-500015Y-1610642D01*
X-492239Y-1602061D01*
X-483658Y-1594285D01*
X-474357Y-1587387D01*
X-464425Y-1581433D01*
X-453957Y-1576482D01*
X-443054Y-1572581D01*
X-431821Y-1569767D01*
X-420366Y-1568068D01*
X-408800Y-1567500D01*
X-132800Y-1567500D01*
X-121234Y-1568068D01*
X-121234Y-1568068D01*
G37*
D19*
X-270800Y-1803500D03*
D10*
G36*
X-121234Y-2538068D02*
X-109779Y-2539767D01*
X-98546Y-2542581D01*
X-87643Y-2546482D01*
X-77175Y-2551433D01*
X-67243Y-2557387D01*
X-57942Y-2564285D01*
X-49361Y-2572061D01*
X-41585Y-2580642D01*
X-34687Y-2589943D01*
X-28733Y-2599875D01*
X-23782Y-2610343D01*
X-19881Y-2621246D01*
X-17067Y-2632479D01*
X-15368Y-2643934D01*
X-14800Y-2655500D01*
X-14800Y-2891500D01*
X-15368Y-2903066D01*
X-17067Y-2914521D01*
X-19881Y-2925754D01*
X-23782Y-2936657D01*
X-28733Y-2947125D01*
X-34687Y-2957057D01*
X-41585Y-2966358D01*
X-49361Y-2974939D01*
X-57942Y-2982715D01*
X-67243Y-2989613D01*
X-77175Y-2995567D01*
X-87643Y-3000518D01*
X-98546Y-3004419D01*
X-109779Y-3007233D01*
X-121234Y-3008932D01*
X-132800Y-3009500D01*
X-408800Y-3009500D01*
X-420366Y-3008932D01*
X-431821Y-3007233D01*
X-443054Y-3004419D01*
X-453957Y-3000518D01*
X-464425Y-2995567D01*
X-474357Y-2989613D01*
X-483658Y-2982715D01*
X-492239Y-2974939D01*
X-500015Y-2966358D01*
X-506913Y-2957057D01*
X-512867Y-2947125D01*
X-517818Y-2936657D01*
X-521719Y-2925754D01*
X-524533Y-2914521D01*
X-526232Y-2903066D01*
X-526800Y-2891500D01*
X-526800Y-2655500D01*
X-526232Y-2643934D01*
X-524533Y-2632479D01*
X-521719Y-2621246D01*
X-517818Y-2610343D01*
X-512867Y-2599875D01*
X-506913Y-2589943D01*
X-500015Y-2580642D01*
X-492239Y-2572061D01*
X-483658Y-2564285D01*
X-474357Y-2557387D01*
X-464425Y-2551433D01*
X-453957Y-2546482D01*
X-443054Y-2542581D01*
X-431821Y-2539767D01*
X-420366Y-2538068D01*
X-408800Y-2537500D01*
X-132800Y-2537500D01*
X-121234Y-2538068D01*
X-121234Y-2538068D01*
G37*
D19*
X-270800Y-2773500D03*
G04 #@! TD*
D10*
G04 #@! TO.C,R7*
G36*
X-2856234Y-2983068D02*
X-2844779Y-2984767D01*
X-2833546Y-2987581D01*
X-2822643Y-2991482D01*
X-2812175Y-2996433D01*
X-2802243Y-3002387D01*
X-2792942Y-3009285D01*
X-2784361Y-3017061D01*
X-2776585Y-3025642D01*
X-2769687Y-3034943D01*
X-2763733Y-3044875D01*
X-2758782Y-3055343D01*
X-2754881Y-3066246D01*
X-2752067Y-3077479D01*
X-2750368Y-3088934D01*
X-2749800Y-3100500D01*
X-2749800Y-3376500D01*
X-2750368Y-3388066D01*
X-2752067Y-3399521D01*
X-2754881Y-3410754D01*
X-2758782Y-3421657D01*
X-2763733Y-3432125D01*
X-2769687Y-3442057D01*
X-2776585Y-3451358D01*
X-2784361Y-3459939D01*
X-2792942Y-3467715D01*
X-2802243Y-3474613D01*
X-2812175Y-3480567D01*
X-2822643Y-3485518D01*
X-2833546Y-3489419D01*
X-2844779Y-3492233D01*
X-2856234Y-3493932D01*
X-2867800Y-3494500D01*
X-3103800Y-3494500D01*
X-3115366Y-3493932D01*
X-3126821Y-3492233D01*
X-3138054Y-3489419D01*
X-3148957Y-3485518D01*
X-3159425Y-3480567D01*
X-3169357Y-3474613D01*
X-3178658Y-3467715D01*
X-3187239Y-3459939D01*
X-3195015Y-3451358D01*
X-3201913Y-3442057D01*
X-3207867Y-3432125D01*
X-3212818Y-3421657D01*
X-3216719Y-3410754D01*
X-3219533Y-3399521D01*
X-3221232Y-3388066D01*
X-3221800Y-3376500D01*
X-3221800Y-3100500D01*
X-3221232Y-3088934D01*
X-3219533Y-3077479D01*
X-3216719Y-3066246D01*
X-3212818Y-3055343D01*
X-3207867Y-3044875D01*
X-3201913Y-3034943D01*
X-3195015Y-3025642D01*
X-3187239Y-3017061D01*
X-3178658Y-3009285D01*
X-3169357Y-3002387D01*
X-3159425Y-2996433D01*
X-3148957Y-2991482D01*
X-3138054Y-2987581D01*
X-3126821Y-2984767D01*
X-3115366Y-2983068D01*
X-3103800Y-2982500D01*
X-2867800Y-2982500D01*
X-2856234Y-2983068D01*
X-2856234Y-2983068D01*
G37*
D19*
X-2985800Y-3238500D03*
D10*
G36*
X-3826234Y-2983068D02*
X-3814779Y-2984767D01*
X-3803546Y-2987581D01*
X-3792643Y-2991482D01*
X-3782175Y-2996433D01*
X-3772243Y-3002387D01*
X-3762942Y-3009285D01*
X-3754361Y-3017061D01*
X-3746585Y-3025642D01*
X-3739687Y-3034943D01*
X-3733733Y-3044875D01*
X-3728782Y-3055343D01*
X-3724881Y-3066246D01*
X-3722067Y-3077479D01*
X-3720368Y-3088934D01*
X-3719800Y-3100500D01*
X-3719800Y-3376500D01*
X-3720368Y-3388066D01*
X-3722067Y-3399521D01*
X-3724881Y-3410754D01*
X-3728782Y-3421657D01*
X-3733733Y-3432125D01*
X-3739687Y-3442057D01*
X-3746585Y-3451358D01*
X-3754361Y-3459939D01*
X-3762942Y-3467715D01*
X-3772243Y-3474613D01*
X-3782175Y-3480567D01*
X-3792643Y-3485518D01*
X-3803546Y-3489419D01*
X-3814779Y-3492233D01*
X-3826234Y-3493932D01*
X-3837800Y-3494500D01*
X-4073800Y-3494500D01*
X-4085366Y-3493932D01*
X-4096821Y-3492233D01*
X-4108054Y-3489419D01*
X-4118957Y-3485518D01*
X-4129425Y-3480567D01*
X-4139357Y-3474613D01*
X-4148658Y-3467715D01*
X-4157239Y-3459939D01*
X-4165015Y-3451358D01*
X-4171913Y-3442057D01*
X-4177867Y-3432125D01*
X-4182818Y-3421657D01*
X-4186719Y-3410754D01*
X-4189533Y-3399521D01*
X-4191232Y-3388066D01*
X-4191800Y-3376500D01*
X-4191800Y-3100500D01*
X-4191232Y-3088934D01*
X-4189533Y-3077479D01*
X-4186719Y-3066246D01*
X-4182818Y-3055343D01*
X-4177867Y-3044875D01*
X-4171913Y-3034943D01*
X-4165015Y-3025642D01*
X-4157239Y-3017061D01*
X-4148658Y-3009285D01*
X-4139357Y-3002387D01*
X-4129425Y-2996433D01*
X-4118957Y-2991482D01*
X-4108054Y-2987581D01*
X-4096821Y-2984767D01*
X-4085366Y-2983068D01*
X-4073800Y-2982500D01*
X-3837800Y-2982500D01*
X-3826234Y-2983068D01*
X-3826234Y-2983068D01*
G37*
D19*
X-3955800Y-3238500D03*
G04 #@! TD*
M02*
