G04 #@! TF.GenerationSoftware,KiCad,Pcbnew,5.1.6-c6e7f7d~86~ubuntu18.04.1*
G04 #@! TF.CreationDate,2020-06-25T15:29:40+02:00*
G04 #@! TF.ProjectId,nk-fido2,6e6b2d66-6964-46f3-922e-6b696361645f,R5*
G04 #@! TF.SameCoordinates,Original*
G04 #@! TF.FileFunction,Legend,Top*
G04 #@! TF.FilePolarity,Positive*
%FSLAX46Y46*%
G04 Gerber Fmt 4.6, Leading zero omitted, Abs format (unit mm)*
G04 Created by KiCad (PCBNEW 5.1.6-c6e7f7d~86~ubuntu18.04.1) date 2020-06-25 15:29:40*
%MOMM*%
%LPD*%
G01*
G04 APERTURE LIST*
%ADD10C,0.099060*%
%ADD11C,0.150000*%
%ADD12C,0.120000*%
%ADD13C,0.254000*%
%ADD14C,0.101600*%
%ADD15C,0.160000*%
%ADD16C,0.001000*%
%ADD17C,1.199820*%
%ADD18O,3.600120X1.601140*%
%ADD19R,3.200000X2.300000*%
%ADD20R,0.450000X0.700000*%
%ADD21R,2.480000X1.750000*%
%ADD22R,1.600000X1.400000*%
%ADD23R,0.400000X0.650000*%
%ADD24R,1.160000X0.750000*%
%ADD25C,1.850000*%
%ADD26R,0.200000X0.200000*%
%ADD27R,0.400000X0.550000*%
%ADD28C,1.900000*%
G04 APERTURE END LIST*
D10*
X127829438Y-101575000D02*
G75*
G03*
X127829438Y-101575000I-210238J0D01*
G01*
X126371803Y-103285000D02*
G75*
G03*
X126371803Y-103285000I-212603J0D01*
G01*
X122185669Y-106005000D02*
G75*
G03*
X122185669Y-106005000I-196469J0D01*
G01*
X120286897Y-100245000D02*
G75*
G03*
X120286897Y-100245000I-237697J0D01*
G01*
X129048055Y-92065000D02*
G75*
G03*
X129048055Y-92065000I-348855J0D01*
G01*
X130619200Y-101255000D02*
X130899200Y-101625000D01*
X131749200Y-101155000D02*
X131999200Y-101575000D01*
D11*
X117489914Y-95537380D02*
X117156580Y-95061190D01*
X116918485Y-95537380D02*
X116918485Y-94537380D01*
X117299438Y-94537380D01*
X117394676Y-94585000D01*
X117442295Y-94632619D01*
X117489914Y-94727857D01*
X117489914Y-94870714D01*
X117442295Y-94965952D01*
X117394676Y-95013571D01*
X117299438Y-95061190D01*
X116918485Y-95061190D01*
X118299438Y-95489761D02*
X118204200Y-95537380D01*
X118013723Y-95537380D01*
X117918485Y-95489761D01*
X117870866Y-95394523D01*
X117870866Y-95013571D01*
X117918485Y-94918333D01*
X118013723Y-94870714D01*
X118204200Y-94870714D01*
X118299438Y-94918333D01*
X118347057Y-95013571D01*
X118347057Y-95108809D01*
X117870866Y-95204047D01*
X118680390Y-94870714D02*
X118918485Y-95537380D01*
X119156580Y-94870714D01*
X119537533Y-95442142D02*
X119585152Y-95489761D01*
X119537533Y-95537380D01*
X119489914Y-95489761D01*
X119537533Y-95442142D01*
X119537533Y-95537380D01*
X120442295Y-94537380D02*
X120251819Y-94537380D01*
X120156580Y-94585000D01*
X120108961Y-94632619D01*
X120013723Y-94775476D01*
X119966104Y-94965952D01*
X119966104Y-95346904D01*
X120013723Y-95442142D01*
X120061342Y-95489761D01*
X120156580Y-95537380D01*
X120347057Y-95537380D01*
X120442295Y-95489761D01*
X120489914Y-95442142D01*
X120537533Y-95346904D01*
X120537533Y-95108809D01*
X120489914Y-95013571D01*
X120442295Y-94965952D01*
X120347057Y-94918333D01*
X120156580Y-94918333D01*
X120061342Y-94965952D01*
X120013723Y-95013571D01*
X119966104Y-95108809D01*
X135312057Y-94790238D02*
X135312057Y-95399761D01*
X117283961Y-93501871D02*
X116950628Y-93501871D01*
X116950628Y-94025680D02*
X116950628Y-93025680D01*
X117426819Y-93025680D01*
X117807771Y-94025680D02*
X117807771Y-93025680D01*
X118283961Y-94025680D02*
X118283961Y-93025680D01*
X118522057Y-93025680D01*
X118664914Y-93073300D01*
X118760152Y-93168538D01*
X118807771Y-93263776D01*
X118855390Y-93454252D01*
X118855390Y-93597109D01*
X118807771Y-93787585D01*
X118760152Y-93882823D01*
X118664914Y-93978061D01*
X118522057Y-94025680D01*
X118283961Y-94025680D01*
X119474438Y-93025680D02*
X119664914Y-93025680D01*
X119760152Y-93073300D01*
X119855390Y-93168538D01*
X119903009Y-93359014D01*
X119903009Y-93692347D01*
X119855390Y-93882823D01*
X119760152Y-93978061D01*
X119664914Y-94025680D01*
X119474438Y-94025680D01*
X119379200Y-93978061D01*
X119283961Y-93882823D01*
X119236342Y-93692347D01*
X119236342Y-93359014D01*
X119283961Y-93168538D01*
X119379200Y-93073300D01*
X119474438Y-93025680D01*
X120283961Y-93120919D02*
X120331580Y-93073300D01*
X120426819Y-93025680D01*
X120664914Y-93025680D01*
X120760152Y-93073300D01*
X120807771Y-93120919D01*
X120855390Y-93216157D01*
X120855390Y-93311395D01*
X120807771Y-93454252D01*
X120236342Y-94025680D01*
X120855390Y-94025680D01*
X116916785Y-92488980D02*
X116916785Y-91488980D01*
X117488214Y-92488980D01*
X117488214Y-91488980D01*
X117964404Y-92488980D02*
X117964404Y-91822314D01*
X117964404Y-91488980D02*
X117916785Y-91536600D01*
X117964404Y-91584219D01*
X118012023Y-91536600D01*
X117964404Y-91488980D01*
X117964404Y-91584219D01*
X118297738Y-91822314D02*
X118678690Y-91822314D01*
X118440595Y-91488980D02*
X118440595Y-92346123D01*
X118488214Y-92441361D01*
X118583452Y-92488980D01*
X118678690Y-92488980D01*
X119012023Y-92488980D02*
X119012023Y-91822314D01*
X119012023Y-92012790D02*
X119059642Y-91917552D01*
X119107261Y-91869933D01*
X119202500Y-91822314D01*
X119297738Y-91822314D01*
X119773928Y-92488980D02*
X119678690Y-92441361D01*
X119631071Y-92393742D01*
X119583452Y-92298504D01*
X119583452Y-92012790D01*
X119631071Y-91917552D01*
X119678690Y-91869933D01*
X119773928Y-91822314D01*
X119916785Y-91822314D01*
X120012023Y-91869933D01*
X120059642Y-91917552D01*
X120107261Y-92012790D01*
X120107261Y-92298504D01*
X120059642Y-92393742D01*
X120012023Y-92441361D01*
X119916785Y-92488980D01*
X119773928Y-92488980D01*
X120535833Y-92488980D02*
X120535833Y-91488980D01*
X120631071Y-92108028D02*
X120916785Y-92488980D01*
X120916785Y-91822314D02*
X120535833Y-92203266D01*
X121726309Y-92441361D02*
X121631071Y-92488980D01*
X121440595Y-92488980D01*
X121345357Y-92441361D01*
X121297738Y-92346123D01*
X121297738Y-91965171D01*
X121345357Y-91869933D01*
X121440595Y-91822314D01*
X121631071Y-91822314D01*
X121726309Y-91869933D01*
X121773928Y-91965171D01*
X121773928Y-92060409D01*
X121297738Y-92155647D01*
X122107261Y-91822314D02*
X122345357Y-92488980D01*
X122583452Y-91822314D02*
X122345357Y-92488980D01*
X122250119Y-92727076D01*
X122202500Y-92774695D01*
X122107261Y-92822314D01*
X136253009Y-96659523D02*
X136291104Y-96545238D01*
X136291104Y-96354761D01*
X136253009Y-96278571D01*
X136214914Y-96240476D01*
X136138723Y-96202380D01*
X136062533Y-96202380D01*
X135986342Y-96240476D01*
X135948247Y-96278571D01*
X135910152Y-96354761D01*
X135872057Y-96507142D01*
X135833961Y-96583333D01*
X135795866Y-96621428D01*
X135719676Y-96659523D01*
X135643485Y-96659523D01*
X135567295Y-96621428D01*
X135529200Y-96583333D01*
X135491104Y-96507142D01*
X135491104Y-96316666D01*
X135529200Y-96202380D01*
X135491104Y-95935714D02*
X136291104Y-95745238D01*
X135719676Y-95592857D01*
X136291104Y-95440476D01*
X135491104Y-95250000D01*
X136214914Y-94488095D02*
X136253009Y-94526190D01*
X136291104Y-94640476D01*
X136291104Y-94716666D01*
X136253009Y-94830952D01*
X136176819Y-94907142D01*
X136100628Y-94945238D01*
X135948247Y-94983333D01*
X135833961Y-94983333D01*
X135681580Y-94945238D01*
X135605390Y-94907142D01*
X135529200Y-94830952D01*
X135491104Y-94716666D01*
X135491104Y-94640476D01*
X135529200Y-94526190D01*
X135567295Y-94488095D01*
X136291104Y-93764285D02*
X136291104Y-94145238D01*
X135491104Y-94145238D01*
X135653009Y-103780238D02*
X135691104Y-103665952D01*
X135691104Y-103475476D01*
X135653009Y-103399285D01*
X135614914Y-103361190D01*
X135538723Y-103323095D01*
X135462533Y-103323095D01*
X135386342Y-103361190D01*
X135348247Y-103399285D01*
X135310152Y-103475476D01*
X135272057Y-103627857D01*
X135233961Y-103704047D01*
X135195866Y-103742142D01*
X135119676Y-103780238D01*
X135043485Y-103780238D01*
X134967295Y-103742142D01*
X134929200Y-103704047D01*
X134891104Y-103627857D01*
X134891104Y-103437380D01*
X134929200Y-103323095D01*
X134891104Y-103056428D02*
X135691104Y-102865952D01*
X135119676Y-102713571D01*
X135691104Y-102561190D01*
X134891104Y-102370714D01*
X135691104Y-102065952D02*
X134891104Y-102065952D01*
X134891104Y-101532619D02*
X134891104Y-101380238D01*
X134929200Y-101304047D01*
X135005390Y-101227857D01*
X135157771Y-101189761D01*
X135424438Y-101189761D01*
X135576819Y-101227857D01*
X135653009Y-101304047D01*
X135691104Y-101380238D01*
X135691104Y-101532619D01*
X135653009Y-101608809D01*
X135576819Y-101685000D01*
X135424438Y-101723095D01*
X135157771Y-101723095D01*
X135005390Y-101685000D01*
X134929200Y-101608809D01*
X134891104Y-101532619D01*
X133133961Y-103477857D02*
X132524438Y-103477857D01*
X132829200Y-103173095D02*
X132829200Y-103782619D01*
X130474438Y-99746904D02*
X130474438Y-98946904D01*
X130664914Y-98946904D01*
X130779200Y-98985000D01*
X130855390Y-99061190D01*
X130893485Y-99137380D01*
X130931580Y-99289761D01*
X130931580Y-99404047D01*
X130893485Y-99556428D01*
X130855390Y-99632619D01*
X130779200Y-99708809D01*
X130664914Y-99746904D01*
X130474438Y-99746904D01*
X131274438Y-99442142D02*
X131883961Y-99442142D01*
X130484438Y-98756904D02*
X130484438Y-97956904D01*
X130674914Y-97956904D01*
X130789200Y-97995000D01*
X130865390Y-98071190D01*
X130903485Y-98147380D01*
X130941580Y-98299761D01*
X130941580Y-98414047D01*
X130903485Y-98566428D01*
X130865390Y-98642619D01*
X130789200Y-98718809D01*
X130674914Y-98756904D01*
X130484438Y-98756904D01*
X131284438Y-98452142D02*
X131893961Y-98452142D01*
X131589200Y-98756904D02*
X131589200Y-98147380D01*
X141977872Y-102374800D02*
G75*
G03*
X141977872Y-102374800I-1395672J0D01*
G01*
X143895572Y-100242529D02*
G75*
G03*
X143895572Y-100242529I-1395672J0D01*
G01*
X140199872Y-100179029D02*
G75*
G03*
X140199872Y-100179029I-1395672J0D01*
G01*
X140199872Y-97410429D02*
G75*
G03*
X140199872Y-97410429I-1395672J0D01*
G01*
X143922301Y-97498000D02*
G75*
G03*
X143922301Y-97498000I-1395672J0D01*
G01*
X142118901Y-95364400D02*
G75*
G03*
X142118901Y-95364400I-1395672J0D01*
G01*
D12*
X118379200Y-97385000D02*
X118979200Y-97385000D01*
X117679200Y-99485000D02*
X117679200Y-98085000D01*
X118979200Y-100185000D02*
X118379200Y-100185000D01*
X119679200Y-98085000D02*
X119679200Y-99485000D01*
X118979200Y-97385000D02*
G75*
G02*
X119679200Y-98085000I0J-700000D01*
G01*
X117679200Y-98085000D02*
G75*
G02*
X118379200Y-97385000I700000J0D01*
G01*
X118379200Y-100185000D02*
G75*
G02*
X117679200Y-99485000I0J700000D01*
G01*
X119679200Y-99485000D02*
G75*
G02*
X118979200Y-100185000I-700000J0D01*
G01*
D13*
X131899020Y-94313490D02*
X131899020Y-93213670D01*
X131899020Y-103711490D02*
X131899020Y-104811310D01*
D12*
X129689200Y-93415000D02*
X129689200Y-92940000D01*
X124469200Y-98160000D02*
X124944200Y-98160000D01*
X124469200Y-97685000D02*
X124469200Y-98160000D01*
X124469200Y-92940000D02*
X124944200Y-92940000D01*
X124469200Y-93415000D02*
X124469200Y-92940000D01*
X129689200Y-98160000D02*
X129214200Y-98160000D01*
X129689200Y-97685000D02*
X129689200Y-98160000D01*
D11*
X122429200Y-102875000D02*
X124929200Y-102875000D01*
X124929200Y-102875000D02*
X124929200Y-106625000D01*
X124929200Y-106625000D02*
X122429200Y-106625000D01*
X122429200Y-106625000D02*
X122429200Y-102875000D01*
D12*
X128929200Y-103340000D02*
X126479200Y-103340000D01*
X127129200Y-106560000D02*
X128929200Y-106560000D01*
D14*
X129292900Y-102923000D02*
G75*
G03*
X129292900Y-102923000I-50800J0D01*
G01*
D12*
X127779200Y-101235000D02*
X127779200Y-99685000D01*
X129579200Y-99685000D02*
X129579200Y-100985000D01*
D11*
X117343009Y-99669285D02*
X117381104Y-99555000D01*
X117381104Y-99364523D01*
X117343009Y-99288333D01*
X117304914Y-99250238D01*
X117228723Y-99212142D01*
X117152533Y-99212142D01*
X117076342Y-99250238D01*
X117038247Y-99288333D01*
X117000152Y-99364523D01*
X116962057Y-99516904D01*
X116923961Y-99593095D01*
X116885866Y-99631190D01*
X116809676Y-99669285D01*
X116733485Y-99669285D01*
X116657295Y-99631190D01*
X116619200Y-99593095D01*
X116581104Y-99516904D01*
X116581104Y-99326428D01*
X116619200Y-99212142D01*
X116581104Y-98640714D02*
X117152533Y-98640714D01*
X117266819Y-98678809D01*
X117343009Y-98755000D01*
X117381104Y-98869285D01*
X117381104Y-98945476D01*
X117381104Y-97840714D02*
X117381104Y-98297857D01*
X117381104Y-98069285D02*
X116581104Y-98069285D01*
X116695390Y-98145476D01*
X116771580Y-98221666D01*
X116809676Y-98297857D01*
D15*
X122921580Y-96816904D02*
X123731104Y-96816904D01*
X123826342Y-96769285D01*
X123873961Y-96721666D01*
X123921580Y-96626428D01*
X123921580Y-96435952D01*
X123873961Y-96340714D01*
X123826342Y-96293095D01*
X123731104Y-96245476D01*
X122921580Y-96245476D01*
X123921580Y-95245476D02*
X123921580Y-95816904D01*
X123921580Y-95531190D02*
X122921580Y-95531190D01*
X123064438Y-95626428D01*
X123159676Y-95721666D01*
X123207295Y-95816904D01*
X115226819Y-103368333D02*
X115226819Y-102892142D01*
X116226819Y-102892142D01*
X116131580Y-103654047D02*
X116179200Y-103701666D01*
X116226819Y-103796904D01*
X116226819Y-104035000D01*
X116179200Y-104130238D01*
X116131580Y-104177857D01*
X116036342Y-104225476D01*
X115941104Y-104225476D01*
X115798247Y-104177857D01*
X115226819Y-103606428D01*
X115226819Y-104225476D01*
D11*
X123717295Y-97505476D02*
X123069676Y-97505476D01*
X122993485Y-97543571D01*
X122955390Y-97581666D01*
X122917295Y-97657857D01*
X122917295Y-97810238D01*
X122955390Y-97886428D01*
X122993485Y-97924523D01*
X123069676Y-97962619D01*
X123717295Y-97962619D01*
X123717295Y-98724523D02*
X123717295Y-98343571D01*
X123336342Y-98305476D01*
X123374438Y-98343571D01*
X123412533Y-98419761D01*
X123412533Y-98610238D01*
X123374438Y-98686428D01*
X123336342Y-98724523D01*
X123260152Y-98762619D01*
X123069676Y-98762619D01*
X122993485Y-98724523D01*
X122955390Y-98686428D01*
X122917295Y-98610238D01*
X122917295Y-98419761D01*
X122955390Y-98343571D01*
X122993485Y-98305476D01*
X121391104Y-105414523D02*
X122038723Y-105414523D01*
X122114914Y-105376428D01*
X122153009Y-105338333D01*
X122191104Y-105262142D01*
X122191104Y-105109761D01*
X122153009Y-105033571D01*
X122114914Y-104995476D01*
X122038723Y-104957380D01*
X121391104Y-104957380D01*
X121657771Y-104233571D02*
X122191104Y-104233571D01*
X121353009Y-104424047D02*
X121924438Y-104614523D01*
X121924438Y-104119285D01*
X126439676Y-102326904D02*
X126439676Y-102974523D01*
X126477771Y-103050714D01*
X126515866Y-103088809D01*
X126592057Y-103126904D01*
X126744438Y-103126904D01*
X126820628Y-103088809D01*
X126858723Y-103050714D01*
X126896819Y-102974523D01*
X126896819Y-102326904D01*
X127239676Y-102403095D02*
X127277771Y-102365000D01*
X127353961Y-102326904D01*
X127544438Y-102326904D01*
X127620628Y-102365000D01*
X127658723Y-102403095D01*
X127696819Y-102479285D01*
X127696819Y-102555476D01*
X127658723Y-102669761D01*
X127201580Y-103126904D01*
X127696819Y-103126904D01*
X130791104Y-105198333D02*
X130410152Y-105465000D01*
X130791104Y-105655476D02*
X129991104Y-105655476D01*
X129991104Y-105350714D01*
X130029200Y-105274523D01*
X130067295Y-105236428D01*
X130143485Y-105198333D01*
X130257771Y-105198333D01*
X130333961Y-105236428D01*
X130372057Y-105274523D01*
X130410152Y-105350714D01*
X130410152Y-105655476D01*
X129991104Y-104474523D02*
X129991104Y-104855476D01*
X130372057Y-104893571D01*
X130333961Y-104855476D01*
X130295866Y-104779285D01*
X130295866Y-104588809D01*
X130333961Y-104512619D01*
X130372057Y-104474523D01*
X130448247Y-104436428D01*
X130638723Y-104436428D01*
X130714914Y-104474523D01*
X130753009Y-104512619D01*
X130791104Y-104588809D01*
X130791104Y-104779285D01*
X130753009Y-104855476D01*
X130714914Y-104893571D01*
X137567295Y-96902380D02*
X138138723Y-96902380D01*
X137853009Y-97902380D02*
X137853009Y-96902380D01*
X138472057Y-97902380D02*
X138472057Y-96902380D01*
X138853009Y-96902380D01*
X138948247Y-96950000D01*
X138995866Y-96997619D01*
X139043485Y-97092857D01*
X139043485Y-97235714D01*
X138995866Y-97330952D01*
X138948247Y-97378571D01*
X138853009Y-97426190D01*
X138472057Y-97426190D01*
X139424438Y-96997619D02*
X139472057Y-96950000D01*
X139567295Y-96902380D01*
X139805390Y-96902380D01*
X139900628Y-96950000D01*
X139948247Y-96997619D01*
X139995866Y-97092857D01*
X139995866Y-97188095D01*
X139948247Y-97330952D01*
X139376819Y-97902380D01*
X139995866Y-97902380D01*
X128555866Y-102686904D02*
X128174914Y-102686904D01*
X128174914Y-101886904D01*
X129241580Y-102686904D02*
X128784438Y-102686904D01*
X129013009Y-102686904D02*
X129013009Y-101886904D01*
X128936819Y-102001190D01*
X128860628Y-102077380D01*
X128784438Y-102115476D01*
X131524914Y-100688333D02*
X131563009Y-100726428D01*
X131601104Y-100840714D01*
X131601104Y-100916904D01*
X131563009Y-101031190D01*
X131486819Y-101107380D01*
X131410628Y-101145476D01*
X131258247Y-101183571D01*
X131143961Y-101183571D01*
X130991580Y-101145476D01*
X130915390Y-101107380D01*
X130839200Y-101031190D01*
X130801104Y-100916904D01*
X130801104Y-100840714D01*
X130839200Y-100726428D01*
X130877295Y-100688333D01*
X131601104Y-99926428D02*
X131601104Y-100383571D01*
X131601104Y-100155000D02*
X130801104Y-100155000D01*
X130915390Y-100231190D01*
X130991580Y-100307380D01*
X131029676Y-100383571D01*
X130539200Y-100711666D02*
X130572533Y-100745000D01*
X130605866Y-100845000D01*
X130605866Y-100911666D01*
X130572533Y-101011666D01*
X130505866Y-101078333D01*
X130439200Y-101111666D01*
X130305866Y-101145000D01*
X130205866Y-101145000D01*
X130072533Y-101111666D01*
X130005866Y-101078333D01*
X129939200Y-101011666D01*
X129905866Y-100911666D01*
X129905866Y-100845000D01*
X129939200Y-100745000D01*
X129972533Y-100711666D01*
X129972533Y-100445000D02*
X129939200Y-100411666D01*
X129905866Y-100345000D01*
X129905866Y-100178333D01*
X129939200Y-100111666D01*
X129972533Y-100078333D01*
X130039200Y-100045000D01*
X130105866Y-100045000D01*
X130205866Y-100078333D01*
X130605866Y-100478333D01*
X130605866Y-100045000D01*
X122835866Y-101570714D02*
X122797771Y-101608809D01*
X122683485Y-101646904D01*
X122607295Y-101646904D01*
X122493009Y-101608809D01*
X122416819Y-101532619D01*
X122378723Y-101456428D01*
X122340628Y-101304047D01*
X122340628Y-101189761D01*
X122378723Y-101037380D01*
X122416819Y-100961190D01*
X122493009Y-100885000D01*
X122607295Y-100846904D01*
X122683485Y-100846904D01*
X122797771Y-100885000D01*
X122835866Y-100923095D01*
X123102533Y-100846904D02*
X123597771Y-100846904D01*
X123331104Y-101151666D01*
X123445390Y-101151666D01*
X123521580Y-101189761D01*
X123559676Y-101227857D01*
X123597771Y-101304047D01*
X123597771Y-101494523D01*
X123559676Y-101570714D01*
X123521580Y-101608809D01*
X123445390Y-101646904D01*
X123216819Y-101646904D01*
X123140628Y-101608809D01*
X123102533Y-101570714D01*
X122835866Y-100550714D02*
X122797771Y-100588809D01*
X122683485Y-100626904D01*
X122607295Y-100626904D01*
X122493009Y-100588809D01*
X122416819Y-100512619D01*
X122378723Y-100436428D01*
X122340628Y-100284047D01*
X122340628Y-100169761D01*
X122378723Y-100017380D01*
X122416819Y-99941190D01*
X122493009Y-99865000D01*
X122607295Y-99826904D01*
X122683485Y-99826904D01*
X122797771Y-99865000D01*
X122835866Y-99903095D01*
X123521580Y-100093571D02*
X123521580Y-100626904D01*
X123331104Y-99788809D02*
X123140628Y-100360238D01*
X123635866Y-100360238D01*
X131032533Y-93655000D02*
X130999200Y-93688333D01*
X130899200Y-93721666D01*
X130832533Y-93721666D01*
X130732533Y-93688333D01*
X130665866Y-93621666D01*
X130632533Y-93555000D01*
X130599200Y-93421666D01*
X130599200Y-93321666D01*
X130632533Y-93188333D01*
X130665866Y-93121666D01*
X130732533Y-93055000D01*
X130832533Y-93021666D01*
X130899200Y-93021666D01*
X130999200Y-93055000D01*
X131032533Y-93088333D01*
X131665866Y-93021666D02*
X131332533Y-93021666D01*
X131299200Y-93355000D01*
X131332533Y-93321666D01*
X131399200Y-93288333D01*
X131565866Y-93288333D01*
X131632533Y-93321666D01*
X131665866Y-93355000D01*
X131699200Y-93421666D01*
X131699200Y-93588333D01*
X131665866Y-93655000D01*
X131632533Y-93688333D01*
X131565866Y-93721666D01*
X131399200Y-93721666D01*
X131332533Y-93688333D01*
X131299200Y-93655000D01*
X131204914Y-97328333D02*
X131243009Y-97366428D01*
X131281104Y-97480714D01*
X131281104Y-97556904D01*
X131243009Y-97671190D01*
X131166819Y-97747380D01*
X131090628Y-97785476D01*
X130938247Y-97823571D01*
X130823961Y-97823571D01*
X130671580Y-97785476D01*
X130595390Y-97747380D01*
X130519200Y-97671190D01*
X130481104Y-97556904D01*
X130481104Y-97480714D01*
X130519200Y-97366428D01*
X130557295Y-97328333D01*
X130481104Y-96642619D02*
X130481104Y-96795000D01*
X130519200Y-96871190D01*
X130557295Y-96909285D01*
X130671580Y-96985476D01*
X130823961Y-97023571D01*
X131128723Y-97023571D01*
X131204914Y-96985476D01*
X131243009Y-96947380D01*
X131281104Y-96871190D01*
X131281104Y-96718809D01*
X131243009Y-96642619D01*
X131204914Y-96604523D01*
X131128723Y-96566428D01*
X130938247Y-96566428D01*
X130862057Y-96604523D01*
X130823961Y-96642619D01*
X130785866Y-96718809D01*
X130785866Y-96871190D01*
X130823961Y-96947380D01*
X130862057Y-96985476D01*
X130938247Y-97023571D01*
X133239200Y-96311666D02*
X133272533Y-96345000D01*
X133305866Y-96445000D01*
X133305866Y-96511666D01*
X133272533Y-96611666D01*
X133205866Y-96678333D01*
X133139200Y-96711666D01*
X133005866Y-96745000D01*
X132905866Y-96745000D01*
X132772533Y-96711666D01*
X132705866Y-96678333D01*
X132639200Y-96611666D01*
X132605866Y-96511666D01*
X132605866Y-96445000D01*
X132639200Y-96345000D01*
X132672533Y-96311666D01*
X132605866Y-96078333D02*
X132605866Y-95611666D01*
X133305866Y-95911666D01*
X125971104Y-101588333D02*
X125590152Y-101855000D01*
X125971104Y-102045476D02*
X125171104Y-102045476D01*
X125171104Y-101740714D01*
X125209200Y-101664523D01*
X125247295Y-101626428D01*
X125323485Y-101588333D01*
X125437771Y-101588333D01*
X125513961Y-101626428D01*
X125552057Y-101664523D01*
X125590152Y-101740714D01*
X125590152Y-102045476D01*
X125971104Y-100826428D02*
X125971104Y-101283571D01*
X125971104Y-101055000D02*
X125171104Y-101055000D01*
X125285390Y-101131190D01*
X125361580Y-101207380D01*
X125399676Y-101283571D01*
X125612533Y-107031666D02*
X125379200Y-106698333D01*
X125212533Y-107031666D02*
X125212533Y-106331666D01*
X125479200Y-106331666D01*
X125545866Y-106365000D01*
X125579200Y-106398333D01*
X125612533Y-106465000D01*
X125612533Y-106565000D01*
X125579200Y-106631666D01*
X125545866Y-106665000D01*
X125479200Y-106698333D01*
X125212533Y-106698333D01*
X125879200Y-106398333D02*
X125912533Y-106365000D01*
X125979200Y-106331666D01*
X126145866Y-106331666D01*
X126212533Y-106365000D01*
X126245866Y-106398333D01*
X126279200Y-106465000D01*
X126279200Y-106531666D01*
X126245866Y-106631666D01*
X125845866Y-107031666D01*
X126279200Y-107031666D01*
X124385866Y-92146904D02*
X124119200Y-91765952D01*
X123928723Y-92146904D02*
X123928723Y-91346904D01*
X124233485Y-91346904D01*
X124309676Y-91385000D01*
X124347771Y-91423095D01*
X124385866Y-91499285D01*
X124385866Y-91613571D01*
X124347771Y-91689761D01*
X124309676Y-91727857D01*
X124233485Y-91765952D01*
X123928723Y-91765952D01*
X125071580Y-91613571D02*
X125071580Y-92146904D01*
X124881104Y-91308809D02*
X124690628Y-91880238D01*
X125185866Y-91880238D01*
X129692533Y-92751666D02*
X129459200Y-92418333D01*
X129292533Y-92751666D02*
X129292533Y-92051666D01*
X129559200Y-92051666D01*
X129625866Y-92085000D01*
X129659200Y-92118333D01*
X129692533Y-92185000D01*
X129692533Y-92285000D01*
X129659200Y-92351666D01*
X129625866Y-92385000D01*
X129559200Y-92418333D01*
X129292533Y-92418333D01*
X130292533Y-92051666D02*
X130159200Y-92051666D01*
X130092533Y-92085000D01*
X130059200Y-92118333D01*
X129992533Y-92218333D01*
X129959200Y-92351666D01*
X129959200Y-92618333D01*
X129992533Y-92685000D01*
X130025866Y-92718333D01*
X130092533Y-92751666D01*
X130225866Y-92751666D01*
X130292533Y-92718333D01*
X130325866Y-92685000D01*
X130359200Y-92618333D01*
X130359200Y-92451666D01*
X130325866Y-92385000D01*
X130292533Y-92351666D01*
X130225866Y-92318333D01*
X130092533Y-92318333D01*
X130025866Y-92351666D01*
X129992533Y-92385000D01*
X129959200Y-92451666D01*
X128069676Y-98526904D02*
X128069676Y-99174523D01*
X128107771Y-99250714D01*
X128145866Y-99288809D01*
X128222057Y-99326904D01*
X128374438Y-99326904D01*
X128450628Y-99288809D01*
X128488723Y-99250714D01*
X128526819Y-99174523D01*
X128526819Y-98526904D01*
X128831580Y-98526904D02*
X129326819Y-98526904D01*
X129060152Y-98831666D01*
X129174438Y-98831666D01*
X129250628Y-98869761D01*
X129288723Y-98907857D01*
X129326819Y-98984047D01*
X129326819Y-99174523D01*
X129288723Y-99250714D01*
X129250628Y-99288809D01*
X129174438Y-99326904D01*
X128945866Y-99326904D01*
X128869676Y-99288809D01*
X128831580Y-99250714D01*
X139517295Y-94852380D02*
X140088723Y-94852380D01*
X139803009Y-95852380D02*
X139803009Y-94852380D01*
X140422057Y-95852380D02*
X140422057Y-94852380D01*
X140803009Y-94852380D01*
X140898247Y-94900000D01*
X140945866Y-94947619D01*
X140993485Y-95042857D01*
X140993485Y-95185714D01*
X140945866Y-95280952D01*
X140898247Y-95328571D01*
X140803009Y-95376190D01*
X140422057Y-95376190D01*
X141945866Y-95852380D02*
X141374438Y-95852380D01*
X141660152Y-95852380D02*
X141660152Y-94852380D01*
X141564914Y-94995238D01*
X141469676Y-95090476D01*
X141374438Y-95138095D01*
X137567295Y-99682380D02*
X138138723Y-99682380D01*
X137853009Y-100682380D02*
X137853009Y-99682380D01*
X138472057Y-100682380D02*
X138472057Y-99682380D01*
X138853009Y-99682380D01*
X138948247Y-99730000D01*
X138995866Y-99777619D01*
X139043485Y-99872857D01*
X139043485Y-100015714D01*
X138995866Y-100110952D01*
X138948247Y-100158571D01*
X138853009Y-100206190D01*
X138472057Y-100206190D01*
X139376819Y-99682380D02*
X139995866Y-99682380D01*
X139662533Y-100063333D01*
X139805390Y-100063333D01*
X139900628Y-100110952D01*
X139948247Y-100158571D01*
X139995866Y-100253809D01*
X139995866Y-100491904D01*
X139948247Y-100587142D01*
X139900628Y-100634761D01*
X139805390Y-100682380D01*
X139519676Y-100682380D01*
X139424438Y-100634761D01*
X139376819Y-100587142D01*
X139367295Y-102052380D02*
X139938723Y-102052380D01*
X139653009Y-103052380D02*
X139653009Y-102052380D01*
X140272057Y-103052380D02*
X140272057Y-102052380D01*
X140653009Y-102052380D01*
X140748247Y-102100000D01*
X140795866Y-102147619D01*
X140843485Y-102242857D01*
X140843485Y-102385714D01*
X140795866Y-102480952D01*
X140748247Y-102528571D01*
X140653009Y-102576190D01*
X140272057Y-102576190D01*
X141700628Y-102385714D02*
X141700628Y-103052380D01*
X141462533Y-102004761D02*
X141224438Y-102719047D01*
X141843485Y-102719047D01*
X141267295Y-97002380D02*
X141838723Y-97002380D01*
X141553009Y-98002380D02*
X141553009Y-97002380D01*
X142172057Y-98002380D02*
X142172057Y-97002380D01*
X142553009Y-97002380D01*
X142648247Y-97050000D01*
X142695866Y-97097619D01*
X142743485Y-97192857D01*
X142743485Y-97335714D01*
X142695866Y-97430952D01*
X142648247Y-97478571D01*
X142553009Y-97526190D01*
X142172057Y-97526190D01*
X143648247Y-97002380D02*
X143172057Y-97002380D01*
X143124438Y-97478571D01*
X143172057Y-97430952D01*
X143267295Y-97383333D01*
X143505390Y-97383333D01*
X143600628Y-97430952D01*
X143648247Y-97478571D01*
X143695866Y-97573809D01*
X143695866Y-97811904D01*
X143648247Y-97907142D01*
X143600628Y-97954761D01*
X143505390Y-98002380D01*
X143267295Y-98002380D01*
X143172057Y-97954761D01*
X143124438Y-97907142D01*
X141217295Y-99702380D02*
X141788723Y-99702380D01*
X141503009Y-100702380D02*
X141503009Y-99702380D01*
X142122057Y-100702380D02*
X142122057Y-99702380D01*
X142503009Y-99702380D01*
X142598247Y-99750000D01*
X142645866Y-99797619D01*
X142693485Y-99892857D01*
X142693485Y-100035714D01*
X142645866Y-100130952D01*
X142598247Y-100178571D01*
X142503009Y-100226190D01*
X142122057Y-100226190D01*
X143550628Y-99702380D02*
X143360152Y-99702380D01*
X143264914Y-99750000D01*
X143217295Y-99797619D01*
X143122057Y-99940476D01*
X143074438Y-100130952D01*
X143074438Y-100511904D01*
X143122057Y-100607142D01*
X143169676Y-100654761D01*
X143264914Y-100702380D01*
X143455390Y-100702380D01*
X143550628Y-100654761D01*
X143598247Y-100607142D01*
X143645866Y-100511904D01*
X143645866Y-100273809D01*
X143598247Y-100178571D01*
X143550628Y-100130952D01*
X143455390Y-100083333D01*
X143264914Y-100083333D01*
X143169676Y-100130952D01*
X143122057Y-100178571D01*
X143074438Y-100273809D01*
X127141104Y-99738333D02*
X126760152Y-100005000D01*
X127141104Y-100195476D02*
X126341104Y-100195476D01*
X126341104Y-99890714D01*
X126379200Y-99814523D01*
X126417295Y-99776428D01*
X126493485Y-99738333D01*
X126607771Y-99738333D01*
X126683961Y-99776428D01*
X126722057Y-99814523D01*
X126760152Y-99890714D01*
X126760152Y-100195476D01*
X126341104Y-99471666D02*
X126341104Y-98976428D01*
X126645866Y-99243095D01*
X126645866Y-99128809D01*
X126683961Y-99052619D01*
X126722057Y-99014523D01*
X126798247Y-98976428D01*
X126988723Y-98976428D01*
X127064914Y-99014523D01*
X127103009Y-99052619D01*
X127141104Y-99128809D01*
X127141104Y-99357380D01*
X127103009Y-99433571D01*
X127064914Y-99471666D01*
X121415866Y-102716904D02*
X121149200Y-102335952D01*
X120958723Y-102716904D02*
X120958723Y-101916904D01*
X121263485Y-101916904D01*
X121339676Y-101955000D01*
X121377771Y-101993095D01*
X121415866Y-102069285D01*
X121415866Y-102183571D01*
X121377771Y-102259761D01*
X121339676Y-102297857D01*
X121263485Y-102335952D01*
X120958723Y-102335952D01*
X121682533Y-101916904D02*
X122215866Y-101916904D01*
X121873009Y-102716904D01*
%LPC*%
G36*
X132912000Y-92718370D02*
G01*
X132312000Y-93318370D01*
X132312000Y-91218370D01*
X135712000Y-91218370D01*
X135712000Y-93318370D01*
X135112000Y-92718370D01*
X132912000Y-92718370D01*
G37*
X132912000Y-92718370D02*
X132312000Y-93318370D01*
X132312000Y-91218370D01*
X135712000Y-91218370D01*
X135712000Y-93318370D01*
X135112000Y-92718370D01*
X132912000Y-92718370D01*
G36*
X135112000Y-105317890D02*
G01*
X135712000Y-104717890D01*
X135712000Y-106817890D01*
X132312000Y-106817890D01*
X132312000Y-104717890D01*
X132912000Y-105317890D01*
X135112000Y-105317890D01*
G37*
X135112000Y-105317890D02*
X135712000Y-104717890D01*
X135712000Y-106817890D01*
X132312000Y-106817890D01*
X132312000Y-104717890D01*
X132912000Y-105317890D01*
X135112000Y-105317890D01*
D16*
X129407100Y-102325000D02*
X129357100Y-102325000D01*
D11*
G36*
X129349200Y-101535000D02*
G01*
X129749200Y-101535000D01*
X129749200Y-101835000D01*
X129524200Y-102060000D01*
X129349200Y-102060000D01*
X129349200Y-101535000D01*
G37*
G36*
X130409200Y-102935000D02*
G01*
X130009200Y-102935000D01*
X130009200Y-102635000D01*
X130234200Y-102410000D01*
X130409200Y-102410000D01*
X130409200Y-102935000D01*
G37*
G36*
X130009200Y-101535000D02*
G01*
X130409200Y-101535000D01*
X130409200Y-102060000D01*
X130234200Y-102060000D01*
X130009200Y-101835000D01*
X130009200Y-101535000D01*
G37*
G36*
X129349200Y-102935000D02*
G01*
X129749200Y-102935000D01*
X129749200Y-102635000D01*
X129399200Y-102285000D01*
X129349200Y-102285000D01*
X129349200Y-102935000D01*
G37*
G36*
X129449200Y-102235000D02*
G01*
X129879200Y-102665000D01*
X130309200Y-102235000D01*
X129879200Y-101805000D01*
X129449200Y-102235000D01*
G37*
G36*
X119478598Y-99441111D02*
G01*
X119478598Y-99459534D01*
X119478357Y-99464435D01*
X119473547Y-99513266D01*
X119472827Y-99518119D01*
X119463255Y-99566244D01*
X119462063Y-99571005D01*
X119447819Y-99617960D01*
X119446166Y-99622579D01*
X119427389Y-99667912D01*
X119425291Y-99672349D01*
X119402160Y-99715622D01*
X119399638Y-99719829D01*
X119372378Y-99760628D01*
X119369454Y-99764570D01*
X119338326Y-99802499D01*
X119335031Y-99806134D01*
X119300334Y-99840831D01*
X119296699Y-99844126D01*
X119258770Y-99875254D01*
X119254828Y-99878178D01*
X119214029Y-99905438D01*
X119209822Y-99907960D01*
X119166549Y-99931091D01*
X119162112Y-99933189D01*
X119116779Y-99951966D01*
X119112160Y-99953619D01*
X119065205Y-99967863D01*
X119060444Y-99969055D01*
X119012319Y-99978627D01*
X119007466Y-99979347D01*
X118958635Y-99984157D01*
X118953734Y-99984398D01*
X118935311Y-99984398D01*
X118929200Y-99985000D01*
X118429200Y-99985000D01*
X118423089Y-99984398D01*
X118404666Y-99984398D01*
X118399765Y-99984157D01*
X118350934Y-99979347D01*
X118346081Y-99978627D01*
X118297956Y-99969055D01*
X118293195Y-99967863D01*
X118246240Y-99953619D01*
X118241621Y-99951966D01*
X118196288Y-99933189D01*
X118191851Y-99931091D01*
X118148578Y-99907960D01*
X118144371Y-99905438D01*
X118103572Y-99878178D01*
X118099630Y-99875254D01*
X118061701Y-99844126D01*
X118058066Y-99840831D01*
X118023369Y-99806134D01*
X118020074Y-99802499D01*
X117988946Y-99764570D01*
X117986022Y-99760628D01*
X117958762Y-99719829D01*
X117956240Y-99715622D01*
X117933109Y-99672349D01*
X117931011Y-99667912D01*
X117912234Y-99622579D01*
X117910581Y-99617960D01*
X117896337Y-99571005D01*
X117895145Y-99566244D01*
X117885573Y-99518119D01*
X117884853Y-99513266D01*
X117880043Y-99464435D01*
X117879802Y-99459534D01*
X117879802Y-99441111D01*
X117879200Y-99435000D01*
X117879200Y-98935000D01*
X117880161Y-98925245D01*
X117883006Y-98915866D01*
X117887627Y-98907221D01*
X117893845Y-98899645D01*
X117901421Y-98893427D01*
X117910066Y-98888806D01*
X117919445Y-98885961D01*
X117929200Y-98885000D01*
X119429200Y-98885000D01*
X119438955Y-98885961D01*
X119448334Y-98888806D01*
X119456979Y-98893427D01*
X119464555Y-98899645D01*
X119470773Y-98907221D01*
X119475394Y-98915866D01*
X119478239Y-98925245D01*
X119479200Y-98935000D01*
X119479200Y-99435000D01*
X119478598Y-99441111D01*
G37*
G36*
X119478239Y-98644755D02*
G01*
X119475394Y-98654134D01*
X119470773Y-98662779D01*
X119464555Y-98670355D01*
X119456979Y-98676573D01*
X119448334Y-98681194D01*
X119438955Y-98684039D01*
X119429200Y-98685000D01*
X117929200Y-98685000D01*
X117919445Y-98684039D01*
X117910066Y-98681194D01*
X117901421Y-98676573D01*
X117893845Y-98670355D01*
X117887627Y-98662779D01*
X117883006Y-98654134D01*
X117880161Y-98644755D01*
X117879200Y-98635000D01*
X117879200Y-98135000D01*
X117879802Y-98128889D01*
X117879802Y-98110466D01*
X117880043Y-98105565D01*
X117884853Y-98056734D01*
X117885573Y-98051881D01*
X117895145Y-98003756D01*
X117896337Y-97998995D01*
X117910581Y-97952040D01*
X117912234Y-97947421D01*
X117931011Y-97902088D01*
X117933109Y-97897651D01*
X117956240Y-97854378D01*
X117958762Y-97850171D01*
X117986022Y-97809372D01*
X117988946Y-97805430D01*
X118020074Y-97767501D01*
X118023369Y-97763866D01*
X118058066Y-97729169D01*
X118061701Y-97725874D01*
X118099630Y-97694746D01*
X118103572Y-97691822D01*
X118144371Y-97664562D01*
X118148578Y-97662040D01*
X118191851Y-97638909D01*
X118196288Y-97636811D01*
X118241621Y-97618034D01*
X118246240Y-97616381D01*
X118293195Y-97602137D01*
X118297956Y-97600945D01*
X118346081Y-97591373D01*
X118350934Y-97590653D01*
X118399765Y-97585843D01*
X118404666Y-97585602D01*
X118423089Y-97585602D01*
X118429200Y-97585000D01*
X118929200Y-97585000D01*
X118935311Y-97585602D01*
X118953734Y-97585602D01*
X118958635Y-97585843D01*
X119007466Y-97590653D01*
X119012319Y-97591373D01*
X119060444Y-97600945D01*
X119065205Y-97602137D01*
X119112160Y-97616381D01*
X119116779Y-97618034D01*
X119162112Y-97636811D01*
X119166549Y-97638909D01*
X119209822Y-97662040D01*
X119214029Y-97664562D01*
X119254828Y-97691822D01*
X119258770Y-97694746D01*
X119296699Y-97725874D01*
X119300334Y-97729169D01*
X119335031Y-97763866D01*
X119338326Y-97767501D01*
X119369454Y-97805430D01*
X119372378Y-97809372D01*
X119399638Y-97850171D01*
X119402160Y-97854378D01*
X119425291Y-97897651D01*
X119427389Y-97902088D01*
X119446166Y-97947421D01*
X119447819Y-97952040D01*
X119462063Y-97998995D01*
X119463255Y-98003756D01*
X119472827Y-98051881D01*
X119473547Y-98056734D01*
X119478357Y-98105565D01*
X119478598Y-98110466D01*
X119478598Y-98128889D01*
X119479200Y-98135000D01*
X119479200Y-98635000D01*
X119478239Y-98644755D01*
G37*
D17*
X133999600Y-96762050D03*
X133999600Y-101262930D03*
D18*
X133999600Y-104712250D03*
X133999600Y-93312730D03*
G36*
G01*
X125561447Y-93775000D02*
X128596953Y-93775000D01*
G75*
G02*
X128854200Y-94032247I0J-257247D01*
G01*
X128854200Y-97067753D01*
G75*
G02*
X128596953Y-97325000I-257247J0D01*
G01*
X125561447Y-97325000D01*
G75*
G02*
X125304200Y-97067753I0J257247D01*
G01*
X125304200Y-94032247D01*
G75*
G02*
X125561447Y-93775000I257247J0D01*
G01*
G37*
G36*
G01*
X128741700Y-92625000D02*
X128916700Y-92625000D01*
G75*
G02*
X129004200Y-92712500I0J-87500D01*
G01*
X129004200Y-93512500D01*
G75*
G02*
X128916700Y-93600000I-87500J0D01*
G01*
X128741700Y-93600000D01*
G75*
G02*
X128654200Y-93512500I0J87500D01*
G01*
X128654200Y-92712500D01*
G75*
G02*
X128741700Y-92625000I87500J0D01*
G01*
G37*
G36*
G01*
X128241700Y-92625000D02*
X128416700Y-92625000D01*
G75*
G02*
X128504200Y-92712500I0J-87500D01*
G01*
X128504200Y-93512500D01*
G75*
G02*
X128416700Y-93600000I-87500J0D01*
G01*
X128241700Y-93600000D01*
G75*
G02*
X128154200Y-93512500I0J87500D01*
G01*
X128154200Y-92712500D01*
G75*
G02*
X128241700Y-92625000I87500J0D01*
G01*
G37*
G36*
G01*
X127741700Y-92625000D02*
X127916700Y-92625000D01*
G75*
G02*
X128004200Y-92712500I0J-87500D01*
G01*
X128004200Y-93512500D01*
G75*
G02*
X127916700Y-93600000I-87500J0D01*
G01*
X127741700Y-93600000D01*
G75*
G02*
X127654200Y-93512500I0J87500D01*
G01*
X127654200Y-92712500D01*
G75*
G02*
X127741700Y-92625000I87500J0D01*
G01*
G37*
G36*
G01*
X127241700Y-92625000D02*
X127416700Y-92625000D01*
G75*
G02*
X127504200Y-92712500I0J-87500D01*
G01*
X127504200Y-93512500D01*
G75*
G02*
X127416700Y-93600000I-87500J0D01*
G01*
X127241700Y-93600000D01*
G75*
G02*
X127154200Y-93512500I0J87500D01*
G01*
X127154200Y-92712500D01*
G75*
G02*
X127241700Y-92625000I87500J0D01*
G01*
G37*
G36*
G01*
X126741700Y-92625000D02*
X126916700Y-92625000D01*
G75*
G02*
X127004200Y-92712500I0J-87500D01*
G01*
X127004200Y-93512500D01*
G75*
G02*
X126916700Y-93600000I-87500J0D01*
G01*
X126741700Y-93600000D01*
G75*
G02*
X126654200Y-93512500I0J87500D01*
G01*
X126654200Y-92712500D01*
G75*
G02*
X126741700Y-92625000I87500J0D01*
G01*
G37*
G36*
G01*
X126241700Y-92625000D02*
X126416700Y-92625000D01*
G75*
G02*
X126504200Y-92712500I0J-87500D01*
G01*
X126504200Y-93512500D01*
G75*
G02*
X126416700Y-93600000I-87500J0D01*
G01*
X126241700Y-93600000D01*
G75*
G02*
X126154200Y-93512500I0J87500D01*
G01*
X126154200Y-92712500D01*
G75*
G02*
X126241700Y-92625000I87500J0D01*
G01*
G37*
G36*
G01*
X125741700Y-92625000D02*
X125916700Y-92625000D01*
G75*
G02*
X126004200Y-92712500I0J-87500D01*
G01*
X126004200Y-93512500D01*
G75*
G02*
X125916700Y-93600000I-87500J0D01*
G01*
X125741700Y-93600000D01*
G75*
G02*
X125654200Y-93512500I0J87500D01*
G01*
X125654200Y-92712500D01*
G75*
G02*
X125741700Y-92625000I87500J0D01*
G01*
G37*
G36*
G01*
X125241700Y-92625000D02*
X125416700Y-92625000D01*
G75*
G02*
X125504200Y-92712500I0J-87500D01*
G01*
X125504200Y-93512500D01*
G75*
G02*
X125416700Y-93600000I-87500J0D01*
G01*
X125241700Y-93600000D01*
G75*
G02*
X125154200Y-93512500I0J87500D01*
G01*
X125154200Y-92712500D01*
G75*
G02*
X125241700Y-92625000I87500J0D01*
G01*
G37*
G36*
G01*
X124241700Y-93625000D02*
X125041700Y-93625000D01*
G75*
G02*
X125129200Y-93712500I0J-87500D01*
G01*
X125129200Y-93887500D01*
G75*
G02*
X125041700Y-93975000I-87500J0D01*
G01*
X124241700Y-93975000D01*
G75*
G02*
X124154200Y-93887500I0J87500D01*
G01*
X124154200Y-93712500D01*
G75*
G02*
X124241700Y-93625000I87500J0D01*
G01*
G37*
G36*
G01*
X124241700Y-94125000D02*
X125041700Y-94125000D01*
G75*
G02*
X125129200Y-94212500I0J-87500D01*
G01*
X125129200Y-94387500D01*
G75*
G02*
X125041700Y-94475000I-87500J0D01*
G01*
X124241700Y-94475000D01*
G75*
G02*
X124154200Y-94387500I0J87500D01*
G01*
X124154200Y-94212500D01*
G75*
G02*
X124241700Y-94125000I87500J0D01*
G01*
G37*
G36*
G01*
X124241700Y-94625000D02*
X125041700Y-94625000D01*
G75*
G02*
X125129200Y-94712500I0J-87500D01*
G01*
X125129200Y-94887500D01*
G75*
G02*
X125041700Y-94975000I-87500J0D01*
G01*
X124241700Y-94975000D01*
G75*
G02*
X124154200Y-94887500I0J87500D01*
G01*
X124154200Y-94712500D01*
G75*
G02*
X124241700Y-94625000I87500J0D01*
G01*
G37*
G36*
G01*
X124241700Y-95125000D02*
X125041700Y-95125000D01*
G75*
G02*
X125129200Y-95212500I0J-87500D01*
G01*
X125129200Y-95387500D01*
G75*
G02*
X125041700Y-95475000I-87500J0D01*
G01*
X124241700Y-95475000D01*
G75*
G02*
X124154200Y-95387500I0J87500D01*
G01*
X124154200Y-95212500D01*
G75*
G02*
X124241700Y-95125000I87500J0D01*
G01*
G37*
G36*
G01*
X124241700Y-95625000D02*
X125041700Y-95625000D01*
G75*
G02*
X125129200Y-95712500I0J-87500D01*
G01*
X125129200Y-95887500D01*
G75*
G02*
X125041700Y-95975000I-87500J0D01*
G01*
X124241700Y-95975000D01*
G75*
G02*
X124154200Y-95887500I0J87500D01*
G01*
X124154200Y-95712500D01*
G75*
G02*
X124241700Y-95625000I87500J0D01*
G01*
G37*
G36*
G01*
X124241700Y-96125000D02*
X125041700Y-96125000D01*
G75*
G02*
X125129200Y-96212500I0J-87500D01*
G01*
X125129200Y-96387500D01*
G75*
G02*
X125041700Y-96475000I-87500J0D01*
G01*
X124241700Y-96475000D01*
G75*
G02*
X124154200Y-96387500I0J87500D01*
G01*
X124154200Y-96212500D01*
G75*
G02*
X124241700Y-96125000I87500J0D01*
G01*
G37*
G36*
G01*
X124241700Y-96625000D02*
X125041700Y-96625000D01*
G75*
G02*
X125129200Y-96712500I0J-87500D01*
G01*
X125129200Y-96887500D01*
G75*
G02*
X125041700Y-96975000I-87500J0D01*
G01*
X124241700Y-96975000D01*
G75*
G02*
X124154200Y-96887500I0J87500D01*
G01*
X124154200Y-96712500D01*
G75*
G02*
X124241700Y-96625000I87500J0D01*
G01*
G37*
G36*
G01*
X124241700Y-97125000D02*
X125041700Y-97125000D01*
G75*
G02*
X125129200Y-97212500I0J-87500D01*
G01*
X125129200Y-97387500D01*
G75*
G02*
X125041700Y-97475000I-87500J0D01*
G01*
X124241700Y-97475000D01*
G75*
G02*
X124154200Y-97387500I0J87500D01*
G01*
X124154200Y-97212500D01*
G75*
G02*
X124241700Y-97125000I87500J0D01*
G01*
G37*
G36*
G01*
X125241700Y-97500000D02*
X125416700Y-97500000D01*
G75*
G02*
X125504200Y-97587500I0J-87500D01*
G01*
X125504200Y-98387500D01*
G75*
G02*
X125416700Y-98475000I-87500J0D01*
G01*
X125241700Y-98475000D01*
G75*
G02*
X125154200Y-98387500I0J87500D01*
G01*
X125154200Y-97587500D01*
G75*
G02*
X125241700Y-97500000I87500J0D01*
G01*
G37*
G36*
G01*
X125741700Y-97500000D02*
X125916700Y-97500000D01*
G75*
G02*
X126004200Y-97587500I0J-87500D01*
G01*
X126004200Y-98387500D01*
G75*
G02*
X125916700Y-98475000I-87500J0D01*
G01*
X125741700Y-98475000D01*
G75*
G02*
X125654200Y-98387500I0J87500D01*
G01*
X125654200Y-97587500D01*
G75*
G02*
X125741700Y-97500000I87500J0D01*
G01*
G37*
G36*
G01*
X126241700Y-97500000D02*
X126416700Y-97500000D01*
G75*
G02*
X126504200Y-97587500I0J-87500D01*
G01*
X126504200Y-98387500D01*
G75*
G02*
X126416700Y-98475000I-87500J0D01*
G01*
X126241700Y-98475000D01*
G75*
G02*
X126154200Y-98387500I0J87500D01*
G01*
X126154200Y-97587500D01*
G75*
G02*
X126241700Y-97500000I87500J0D01*
G01*
G37*
G36*
G01*
X126741700Y-97500000D02*
X126916700Y-97500000D01*
G75*
G02*
X127004200Y-97587500I0J-87500D01*
G01*
X127004200Y-98387500D01*
G75*
G02*
X126916700Y-98475000I-87500J0D01*
G01*
X126741700Y-98475000D01*
G75*
G02*
X126654200Y-98387500I0J87500D01*
G01*
X126654200Y-97587500D01*
G75*
G02*
X126741700Y-97500000I87500J0D01*
G01*
G37*
G36*
G01*
X127241700Y-97500000D02*
X127416700Y-97500000D01*
G75*
G02*
X127504200Y-97587500I0J-87500D01*
G01*
X127504200Y-98387500D01*
G75*
G02*
X127416700Y-98475000I-87500J0D01*
G01*
X127241700Y-98475000D01*
G75*
G02*
X127154200Y-98387500I0J87500D01*
G01*
X127154200Y-97587500D01*
G75*
G02*
X127241700Y-97500000I87500J0D01*
G01*
G37*
G36*
G01*
X127741700Y-97500000D02*
X127916700Y-97500000D01*
G75*
G02*
X128004200Y-97587500I0J-87500D01*
G01*
X128004200Y-98387500D01*
G75*
G02*
X127916700Y-98475000I-87500J0D01*
G01*
X127741700Y-98475000D01*
G75*
G02*
X127654200Y-98387500I0J87500D01*
G01*
X127654200Y-97587500D01*
G75*
G02*
X127741700Y-97500000I87500J0D01*
G01*
G37*
G36*
G01*
X128241700Y-97500000D02*
X128416700Y-97500000D01*
G75*
G02*
X128504200Y-97587500I0J-87500D01*
G01*
X128504200Y-98387500D01*
G75*
G02*
X128416700Y-98475000I-87500J0D01*
G01*
X128241700Y-98475000D01*
G75*
G02*
X128154200Y-98387500I0J87500D01*
G01*
X128154200Y-97587500D01*
G75*
G02*
X128241700Y-97500000I87500J0D01*
G01*
G37*
G36*
G01*
X128741700Y-97500000D02*
X128916700Y-97500000D01*
G75*
G02*
X129004200Y-97587500I0J-87500D01*
G01*
X129004200Y-98387500D01*
G75*
G02*
X128916700Y-98475000I-87500J0D01*
G01*
X128741700Y-98475000D01*
G75*
G02*
X128654200Y-98387500I0J87500D01*
G01*
X128654200Y-97587500D01*
G75*
G02*
X128741700Y-97500000I87500J0D01*
G01*
G37*
G36*
G01*
X129116700Y-97125000D02*
X129916700Y-97125000D01*
G75*
G02*
X130004200Y-97212500I0J-87500D01*
G01*
X130004200Y-97387500D01*
G75*
G02*
X129916700Y-97475000I-87500J0D01*
G01*
X129116700Y-97475000D01*
G75*
G02*
X129029200Y-97387500I0J87500D01*
G01*
X129029200Y-97212500D01*
G75*
G02*
X129116700Y-97125000I87500J0D01*
G01*
G37*
G36*
G01*
X129116700Y-96625000D02*
X129916700Y-96625000D01*
G75*
G02*
X130004200Y-96712500I0J-87500D01*
G01*
X130004200Y-96887500D01*
G75*
G02*
X129916700Y-96975000I-87500J0D01*
G01*
X129116700Y-96975000D01*
G75*
G02*
X129029200Y-96887500I0J87500D01*
G01*
X129029200Y-96712500D01*
G75*
G02*
X129116700Y-96625000I87500J0D01*
G01*
G37*
G36*
G01*
X129116700Y-96125000D02*
X129916700Y-96125000D01*
G75*
G02*
X130004200Y-96212500I0J-87500D01*
G01*
X130004200Y-96387500D01*
G75*
G02*
X129916700Y-96475000I-87500J0D01*
G01*
X129116700Y-96475000D01*
G75*
G02*
X129029200Y-96387500I0J87500D01*
G01*
X129029200Y-96212500D01*
G75*
G02*
X129116700Y-96125000I87500J0D01*
G01*
G37*
G36*
G01*
X129116700Y-95625000D02*
X129916700Y-95625000D01*
G75*
G02*
X130004200Y-95712500I0J-87500D01*
G01*
X130004200Y-95887500D01*
G75*
G02*
X129916700Y-95975000I-87500J0D01*
G01*
X129116700Y-95975000D01*
G75*
G02*
X129029200Y-95887500I0J87500D01*
G01*
X129029200Y-95712500D01*
G75*
G02*
X129116700Y-95625000I87500J0D01*
G01*
G37*
G36*
G01*
X129116700Y-95125000D02*
X129916700Y-95125000D01*
G75*
G02*
X130004200Y-95212500I0J-87500D01*
G01*
X130004200Y-95387500D01*
G75*
G02*
X129916700Y-95475000I-87500J0D01*
G01*
X129116700Y-95475000D01*
G75*
G02*
X129029200Y-95387500I0J87500D01*
G01*
X129029200Y-95212500D01*
G75*
G02*
X129116700Y-95125000I87500J0D01*
G01*
G37*
G36*
G01*
X129116700Y-94625000D02*
X129916700Y-94625000D01*
G75*
G02*
X130004200Y-94712500I0J-87500D01*
G01*
X130004200Y-94887500D01*
G75*
G02*
X129916700Y-94975000I-87500J0D01*
G01*
X129116700Y-94975000D01*
G75*
G02*
X129029200Y-94887500I0J87500D01*
G01*
X129029200Y-94712500D01*
G75*
G02*
X129116700Y-94625000I87500J0D01*
G01*
G37*
G36*
G01*
X129116700Y-94125000D02*
X129916700Y-94125000D01*
G75*
G02*
X130004200Y-94212500I0J-87500D01*
G01*
X130004200Y-94387500D01*
G75*
G02*
X129916700Y-94475000I-87500J0D01*
G01*
X129116700Y-94475000D01*
G75*
G02*
X129029200Y-94387500I0J87500D01*
G01*
X129029200Y-94212500D01*
G75*
G02*
X129116700Y-94125000I87500J0D01*
G01*
G37*
G36*
G01*
X129116700Y-93625000D02*
X129916700Y-93625000D01*
G75*
G02*
X130004200Y-93712500I0J-87500D01*
G01*
X130004200Y-93887500D01*
G75*
G02*
X129916700Y-93975000I-87500J0D01*
G01*
X129116700Y-93975000D01*
G75*
G02*
X129029200Y-93887500I0J87500D01*
G01*
X129029200Y-93712500D01*
G75*
G02*
X129116700Y-93625000I87500J0D01*
G01*
G37*
D19*
X118225000Y-102040000D03*
X118225000Y-104740000D03*
D20*
X122429200Y-99535000D03*
X121929200Y-99535000D03*
X121429200Y-99535000D03*
X120929200Y-99535000D03*
X120429200Y-99535000D03*
X120429200Y-96535000D03*
X120929200Y-96535000D03*
X121429200Y-96535000D03*
X121929200Y-96535000D03*
X122429200Y-96535000D03*
D21*
X121429200Y-98035000D03*
D22*
X123679200Y-104800000D03*
D23*
X122929200Y-103475000D03*
X123429200Y-103475000D03*
X123929200Y-103475000D03*
X124429200Y-103475000D03*
X122929200Y-106125000D03*
X123429200Y-106125000D03*
X123929200Y-106125000D03*
X124429200Y-106125000D03*
D24*
X126929200Y-104000000D03*
X126929200Y-104950000D03*
X126929200Y-105900000D03*
X129129200Y-105900000D03*
X129129200Y-104000000D03*
X129129200Y-104950000D03*
G36*
G01*
X131476700Y-105665000D02*
X131081700Y-105665000D01*
G75*
G02*
X130909200Y-105492500I0J172500D01*
G01*
X130909200Y-105147500D01*
G75*
G02*
X131081700Y-104975000I172500J0D01*
G01*
X131476700Y-104975000D01*
G75*
G02*
X131649200Y-105147500I0J-172500D01*
G01*
X131649200Y-105492500D01*
G75*
G02*
X131476700Y-105665000I-172500J0D01*
G01*
G37*
G36*
G01*
X131476700Y-104695000D02*
X131081700Y-104695000D01*
G75*
G02*
X130909200Y-104522500I0J172500D01*
G01*
X130909200Y-104177500D01*
G75*
G02*
X131081700Y-104005000I172500J0D01*
G01*
X131476700Y-104005000D01*
G75*
G02*
X131649200Y-104177500I0J-172500D01*
G01*
X131649200Y-104522500D01*
G75*
G02*
X131476700Y-104695000I-172500J0D01*
G01*
G37*
D25*
X132700000Y-97670000D03*
D26*
X129519200Y-101785000D03*
X130229200Y-101785000D03*
X130239200Y-102705000D03*
X129519200Y-102705000D03*
D11*
G36*
X129879200Y-102687548D02*
G01*
X129426652Y-102235000D01*
X129879200Y-101782452D01*
X130331748Y-102235000D01*
X129879200Y-102687548D01*
G37*
G36*
G01*
X132426700Y-103380000D02*
X132031700Y-103380000D01*
G75*
G02*
X131859200Y-103207500I0J172500D01*
G01*
X131859200Y-102862500D01*
G75*
G02*
X132031700Y-102690000I172500J0D01*
G01*
X132426700Y-102690000D01*
G75*
G02*
X132599200Y-102862500I0J-172500D01*
G01*
X132599200Y-103207500D01*
G75*
G02*
X132426700Y-103380000I-172500J0D01*
G01*
G37*
G36*
G01*
X132426700Y-102410000D02*
X132031700Y-102410000D01*
G75*
G02*
X131859200Y-102237500I0J172500D01*
G01*
X131859200Y-101892500D01*
G75*
G02*
X132031700Y-101720000I172500J0D01*
G01*
X132426700Y-101720000D01*
G75*
G02*
X132599200Y-101892500I0J-172500D01*
G01*
X132599200Y-102237500D01*
G75*
G02*
X132426700Y-102410000I-172500J0D01*
G01*
G37*
G36*
G01*
X131376700Y-102410000D02*
X130981700Y-102410000D01*
G75*
G02*
X130809200Y-102237500I0J172500D01*
G01*
X130809200Y-101892500D01*
G75*
G02*
X130981700Y-101720000I172500J0D01*
G01*
X131376700Y-101720000D01*
G75*
G02*
X131549200Y-101892500I0J-172500D01*
G01*
X131549200Y-102237500D01*
G75*
G02*
X131376700Y-102410000I-172500J0D01*
G01*
G37*
G36*
G01*
X131376700Y-103380000D02*
X130981700Y-103380000D01*
G75*
G02*
X130809200Y-103207500I0J172500D01*
G01*
X130809200Y-102862500D01*
G75*
G02*
X130981700Y-102690000I172500J0D01*
G01*
X131376700Y-102690000D01*
G75*
G02*
X131549200Y-102862500I0J-172500D01*
G01*
X131549200Y-103207500D01*
G75*
G02*
X131376700Y-103380000I-172500J0D01*
G01*
G37*
G36*
G01*
X124719200Y-100747500D02*
X124719200Y-100352500D01*
G75*
G02*
X124891700Y-100180000I172500J0D01*
G01*
X125236700Y-100180000D01*
G75*
G02*
X125409200Y-100352500I0J-172500D01*
G01*
X125409200Y-100747500D01*
G75*
G02*
X125236700Y-100920000I-172500J0D01*
G01*
X124891700Y-100920000D01*
G75*
G02*
X124719200Y-100747500I0J172500D01*
G01*
G37*
G36*
G01*
X123749200Y-100747500D02*
X123749200Y-100352500D01*
G75*
G02*
X123921700Y-100180000I172500J0D01*
G01*
X124266700Y-100180000D01*
G75*
G02*
X124439200Y-100352500I0J-172500D01*
G01*
X124439200Y-100747500D01*
G75*
G02*
X124266700Y-100920000I-172500J0D01*
G01*
X123921700Y-100920000D01*
G75*
G02*
X123749200Y-100747500I0J172500D01*
G01*
G37*
G36*
G01*
X123749200Y-99597500D02*
X123749200Y-99202500D01*
G75*
G02*
X123921700Y-99030000I172500J0D01*
G01*
X124266700Y-99030000D01*
G75*
G02*
X124439200Y-99202500I0J-172500D01*
G01*
X124439200Y-99597500D01*
G75*
G02*
X124266700Y-99770000I-172500J0D01*
G01*
X123921700Y-99770000D01*
G75*
G02*
X123749200Y-99597500I0J172500D01*
G01*
G37*
G36*
G01*
X124719200Y-99597500D02*
X124719200Y-99202500D01*
G75*
G02*
X124891700Y-99030000I172500J0D01*
G01*
X125236700Y-99030000D01*
G75*
G02*
X125409200Y-99202500I0J-172500D01*
G01*
X125409200Y-99597500D01*
G75*
G02*
X125236700Y-99770000I-172500J0D01*
G01*
X124891700Y-99770000D01*
G75*
G02*
X124719200Y-99597500I0J172500D01*
G01*
G37*
G36*
G01*
X132159200Y-93952500D02*
X132159200Y-94347500D01*
G75*
G02*
X131986700Y-94520000I-172500J0D01*
G01*
X131641700Y-94520000D01*
G75*
G02*
X131469200Y-94347500I0J172500D01*
G01*
X131469200Y-93952500D01*
G75*
G02*
X131641700Y-93780000I172500J0D01*
G01*
X131986700Y-93780000D01*
G75*
G02*
X132159200Y-93952500I0J-172500D01*
G01*
G37*
G36*
G01*
X131189200Y-93952500D02*
X131189200Y-94347500D01*
G75*
G02*
X131016700Y-94520000I-172500J0D01*
G01*
X130671700Y-94520000D01*
G75*
G02*
X130499200Y-94347500I0J172500D01*
G01*
X130499200Y-93952500D01*
G75*
G02*
X130671700Y-93780000I172500J0D01*
G01*
X131016700Y-93780000D01*
G75*
G02*
X131189200Y-93952500I0J-172500D01*
G01*
G37*
G36*
G01*
X130781700Y-95790000D02*
X131176700Y-95790000D01*
G75*
G02*
X131349200Y-95962500I0J-172500D01*
G01*
X131349200Y-96307500D01*
G75*
G02*
X131176700Y-96480000I-172500J0D01*
G01*
X130781700Y-96480000D01*
G75*
G02*
X130609200Y-96307500I0J172500D01*
G01*
X130609200Y-95962500D01*
G75*
G02*
X130781700Y-95790000I172500J0D01*
G01*
G37*
G36*
G01*
X130781700Y-94820000D02*
X131176700Y-94820000D01*
G75*
G02*
X131349200Y-94992500I0J-172500D01*
G01*
X131349200Y-95337500D01*
G75*
G02*
X131176700Y-95510000I-172500J0D01*
G01*
X130781700Y-95510000D01*
G75*
G02*
X130609200Y-95337500I0J172500D01*
G01*
X130609200Y-94992500D01*
G75*
G02*
X130781700Y-94820000I172500J0D01*
G01*
G37*
G36*
G01*
X131931700Y-94820000D02*
X132326700Y-94820000D01*
G75*
G02*
X132499200Y-94992500I0J-172500D01*
G01*
X132499200Y-95337500D01*
G75*
G02*
X132326700Y-95510000I-172500J0D01*
G01*
X131931700Y-95510000D01*
G75*
G02*
X131759200Y-95337500I0J172500D01*
G01*
X131759200Y-94992500D01*
G75*
G02*
X131931700Y-94820000I172500J0D01*
G01*
G37*
G36*
G01*
X131931700Y-95790000D02*
X132326700Y-95790000D01*
G75*
G02*
X132499200Y-95962500I0J-172500D01*
G01*
X132499200Y-96307500D01*
G75*
G02*
X132326700Y-96480000I-172500J0D01*
G01*
X131931700Y-96480000D01*
G75*
G02*
X131759200Y-96307500I0J172500D01*
G01*
X131759200Y-95962500D01*
G75*
G02*
X131931700Y-95790000I172500J0D01*
G01*
G37*
G36*
G01*
X125331700Y-103640000D02*
X125726700Y-103640000D01*
G75*
G02*
X125899200Y-103812500I0J-172500D01*
G01*
X125899200Y-104157500D01*
G75*
G02*
X125726700Y-104330000I-172500J0D01*
G01*
X125331700Y-104330000D01*
G75*
G02*
X125159200Y-104157500I0J172500D01*
G01*
X125159200Y-103812500D01*
G75*
G02*
X125331700Y-103640000I172500J0D01*
G01*
G37*
G36*
G01*
X125331700Y-102670000D02*
X125726700Y-102670000D01*
G75*
G02*
X125899200Y-102842500I0J-172500D01*
G01*
X125899200Y-103187500D01*
G75*
G02*
X125726700Y-103360000I-172500J0D01*
G01*
X125331700Y-103360000D01*
G75*
G02*
X125159200Y-103187500I0J172500D01*
G01*
X125159200Y-102842500D01*
G75*
G02*
X125331700Y-102670000I172500J0D01*
G01*
G37*
G36*
G01*
X125331700Y-104620000D02*
X125726700Y-104620000D01*
G75*
G02*
X125899200Y-104792500I0J-172500D01*
G01*
X125899200Y-105137500D01*
G75*
G02*
X125726700Y-105310000I-172500J0D01*
G01*
X125331700Y-105310000D01*
G75*
G02*
X125159200Y-105137500I0J172500D01*
G01*
X125159200Y-104792500D01*
G75*
G02*
X125331700Y-104620000I172500J0D01*
G01*
G37*
G36*
G01*
X125331700Y-105590000D02*
X125726700Y-105590000D01*
G75*
G02*
X125899200Y-105762500I0J-172500D01*
G01*
X125899200Y-106107500D01*
G75*
G02*
X125726700Y-106280000I-172500J0D01*
G01*
X125331700Y-106280000D01*
G75*
G02*
X125159200Y-106107500I0J172500D01*
G01*
X125159200Y-105762500D01*
G75*
G02*
X125331700Y-105590000I172500J0D01*
G01*
G37*
G36*
G01*
X126539200Y-91587500D02*
X126539200Y-91982500D01*
G75*
G02*
X126366700Y-92155000I-172500J0D01*
G01*
X126021700Y-92155000D01*
G75*
G02*
X125849200Y-91982500I0J172500D01*
G01*
X125849200Y-91587500D01*
G75*
G02*
X126021700Y-91415000I172500J0D01*
G01*
X126366700Y-91415000D01*
G75*
G02*
X126539200Y-91587500I0J-172500D01*
G01*
G37*
G36*
G01*
X127509200Y-91587500D02*
X127509200Y-91982500D01*
G75*
G02*
X127336700Y-92155000I-172500J0D01*
G01*
X126991700Y-92155000D01*
G75*
G02*
X126819200Y-91982500I0J172500D01*
G01*
X126819200Y-91587500D01*
G75*
G02*
X126991700Y-91415000I172500J0D01*
G01*
X127336700Y-91415000D01*
G75*
G02*
X127509200Y-91587500I0J-172500D01*
G01*
G37*
G36*
G01*
X132159200Y-92302500D02*
X132159200Y-92697500D01*
G75*
G02*
X131986700Y-92870000I-172500J0D01*
G01*
X131641700Y-92870000D01*
G75*
G02*
X131469200Y-92697500I0J172500D01*
G01*
X131469200Y-92302500D01*
G75*
G02*
X131641700Y-92130000I172500J0D01*
G01*
X131986700Y-92130000D01*
G75*
G02*
X132159200Y-92302500I0J-172500D01*
G01*
G37*
G36*
G01*
X131189200Y-92302500D02*
X131189200Y-92697500D01*
G75*
G02*
X131016700Y-92870000I-172500J0D01*
G01*
X130671700Y-92870000D01*
G75*
G02*
X130499200Y-92697500I0J172500D01*
G01*
X130499200Y-92302500D01*
G75*
G02*
X130671700Y-92130000I172500J0D01*
G01*
X131016700Y-92130000D01*
G75*
G02*
X131189200Y-92302500I0J-172500D01*
G01*
G37*
D27*
X128179200Y-101035000D03*
X129179200Y-101035000D03*
X128179200Y-99635000D03*
X128679200Y-101035000D03*
X129179200Y-99635000D03*
D28*
X133970000Y-95130000D03*
X132700000Y-100210000D03*
X133970000Y-102800000D03*
X135240000Y-97670000D03*
X135240000Y-100210000D03*
G36*
G01*
X126531700Y-100455000D02*
X126926700Y-100455000D01*
G75*
G02*
X127099200Y-100627500I0J-172500D01*
G01*
X127099200Y-100972500D01*
G75*
G02*
X126926700Y-101145000I-172500J0D01*
G01*
X126531700Y-101145000D01*
G75*
G02*
X126359200Y-100972500I0J172500D01*
G01*
X126359200Y-100627500D01*
G75*
G02*
X126531700Y-100455000I172500J0D01*
G01*
G37*
G36*
G01*
X126531700Y-101425000D02*
X126926700Y-101425000D01*
G75*
G02*
X127099200Y-101597500I0J-172500D01*
G01*
X127099200Y-101942500D01*
G75*
G02*
X126926700Y-102115000I-172500J0D01*
G01*
X126531700Y-102115000D01*
G75*
G02*
X126359200Y-101942500I0J172500D01*
G01*
X126359200Y-101597500D01*
G75*
G02*
X126531700Y-101425000I172500J0D01*
G01*
G37*
G36*
G01*
X124359200Y-102037500D02*
X124359200Y-102432500D01*
G75*
G02*
X124186700Y-102605000I-172500J0D01*
G01*
X123841700Y-102605000D01*
G75*
G02*
X123669200Y-102432500I0J172500D01*
G01*
X123669200Y-102037500D01*
G75*
G02*
X123841700Y-101865000I172500J0D01*
G01*
X124186700Y-101865000D01*
G75*
G02*
X124359200Y-102037500I0J-172500D01*
G01*
G37*
G36*
G01*
X123389200Y-102037500D02*
X123389200Y-102432500D01*
G75*
G02*
X123216700Y-102605000I-172500J0D01*
G01*
X122871700Y-102605000D01*
G75*
G02*
X122699200Y-102432500I0J172500D01*
G01*
X122699200Y-102037500D01*
G75*
G02*
X122871700Y-101865000I172500J0D01*
G01*
X123216700Y-101865000D01*
G75*
G02*
X123389200Y-102037500I0J-172500D01*
G01*
G37*
M02*
