G04 #@! TF.GenerationSoftware,KiCad,Pcbnew,(5.0.1)-4*
G04 #@! TF.CreationDate,2019-05-08T11:41:41+02:00*
G04 #@! TF.ProjectId,nk-fido2,6E6B2D6669646F322E6B696361645F70,R3*
G04 #@! TF.SameCoordinates,PX791ddc0PY5e69114*
G04 #@! TF.FileFunction,Copper,L1,Top,Signal*
G04 #@! TF.FilePolarity,Positive*
%FSLAX46Y46*%
G04 Gerber Fmt 4.6, Leading zero omitted, Abs format (unit mm)*
G04 Created by KiCad (PCBNEW (5.0.1)-4) date 08.05.2019 11:41:41*
%MOMM*%
%LPD*%
G01*
G04 APERTURE LIST*
G04 #@! TA.AperFunction,EtchedComponent*
%ADD10C,0.150000*%
G04 #@! TD*
G04 #@! TA.AperFunction,Conductor*
%ADD11C,0.150000*%
G04 #@! TD*
G04 #@! TA.AperFunction,SMDPad,CuDef*
%ADD12C,3.450000*%
G04 #@! TD*
G04 #@! TA.AperFunction,SMDPad,CuDef*
%ADD13C,0.250000*%
G04 #@! TD*
G04 #@! TA.AperFunction,ComponentPad*
%ADD14C,1.099820*%
G04 #@! TD*
G04 #@! TA.AperFunction,ComponentPad*
%ADD15O,3.500120X1.501140*%
G04 #@! TD*
G04 #@! TA.AperFunction,SMDPad,CuDef*
%ADD16R,3.100000X2.200000*%
G04 #@! TD*
G04 #@! TA.AperFunction,SMDPad,CuDef*
%ADD17C,0.500000*%
G04 #@! TD*
G04 #@! TA.AperFunction,SMDPad,CuDef*
%ADD18R,0.350000X0.600000*%
G04 #@! TD*
G04 #@! TA.AperFunction,SMDPad,CuDef*
%ADD19R,2.380000X1.650000*%
G04 #@! TD*
G04 #@! TA.AperFunction,SMDPad,CuDef*
%ADD20R,1.500000X1.300000*%
G04 #@! TD*
G04 #@! TA.AperFunction,SMDPad,CuDef*
%ADD21R,0.300000X0.550000*%
G04 #@! TD*
G04 #@! TA.AperFunction,SMDPad,CuDef*
%ADD22R,1.060000X0.650000*%
G04 #@! TD*
G04 #@! TA.AperFunction,SMDPad,CuDef*
%ADD23C,0.590000*%
G04 #@! TD*
G04 #@! TA.AperFunction,BGAPad,CuDef*
%ADD24C,1.750000*%
G04 #@! TD*
G04 #@! TA.AperFunction,SMDPad,CuDef*
%ADD25R,0.100000X0.100000*%
G04 #@! TD*
G04 #@! TA.AperFunction,SMDPad,CuDef*
%ADD26C,0.580000*%
G04 #@! TD*
G04 #@! TA.AperFunction,BGAPad,CuDef*
%ADD27C,0.500000*%
G04 #@! TD*
G04 #@! TA.AperFunction,SMDPad,CuDef*
%ADD28R,0.300000X0.450000*%
G04 #@! TD*
G04 #@! TA.AperFunction,BGAPad,CuDef*
%ADD29C,1.800000*%
G04 #@! TD*
G04 #@! TA.AperFunction,ViaPad*
%ADD30C,0.500000*%
G04 #@! TD*
G04 #@! TA.AperFunction,Conductor*
%ADD31C,0.200000*%
G04 #@! TD*
G04 #@! TA.AperFunction,Conductor*
%ADD32C,0.300000*%
G04 #@! TD*
G04 #@! TA.AperFunction,Conductor*
%ADD33C,0.400000*%
G04 #@! TD*
G04 #@! TA.AperFunction,Conductor*
%ADD34C,0.250000*%
G04 #@! TD*
G04 #@! TA.AperFunction,Conductor*
%ADD35C,0.450000*%
G04 #@! TD*
G04 APERTURE END LIST*
D10*
G04 #@! TO.C,J1*
G36*
X5912000Y6278130D02*
X5312000Y5678130D01*
X5312000Y7778130D01*
X8712000Y7778130D01*
X8712000Y5678130D01*
X8112000Y6278130D01*
X5912000Y6278130D01*
G37*
X5912000Y6278130D02*
X5312000Y5678130D01*
X5312000Y7778130D01*
X8712000Y7778130D01*
X8712000Y5678130D01*
X8112000Y6278130D01*
X5912000Y6278130D01*
G36*
X8112000Y-6321390D02*
X8712000Y-5721390D01*
X8712000Y-7821390D01*
X5312000Y-7821390D01*
X5312000Y-5721390D01*
X5912000Y-6321390D01*
X8112000Y-6321390D01*
G37*
X8112000Y-6321390D02*
X8712000Y-5721390D01*
X8712000Y-7821390D01*
X5312000Y-7821390D01*
X5312000Y-5721390D01*
X5912000Y-6321390D01*
X8112000Y-6321390D01*
G04 #@! TO.C,L1*
G36*
X2399200Y-3888500D02*
X2699200Y-3888500D01*
X2699200Y-3658500D01*
X2399200Y-3358500D01*
X2399200Y-3888500D01*
G37*
G36*
X3359200Y-3888500D02*
X3359200Y-3458500D01*
X3259200Y-3458500D01*
X3059200Y-3658500D01*
X3059200Y-3888500D01*
X3359200Y-3888500D01*
G37*
G36*
X3359200Y-2588500D02*
X3359200Y-3018500D01*
X3259200Y-3018500D01*
X3059200Y-2818500D01*
X3059200Y-2588500D01*
X3359200Y-2588500D01*
G37*
G36*
X2399200Y-2588500D02*
X2399200Y-3018500D01*
X2499200Y-3018500D01*
X2699200Y-2818500D01*
X2699200Y-2588500D01*
X2399200Y-2588500D01*
G37*
G04 #@! TD*
D11*
G04 #@! TO.N,GND*
G04 #@! TO.C,U1*
G36*
X1578704Y5170296D02*
X1602973Y5166696D01*
X1626771Y5160735D01*
X1649871Y5152470D01*
X1672049Y5141980D01*
X1693093Y5129367D01*
X1712798Y5114753D01*
X1730977Y5098277D01*
X1747453Y5080098D01*
X1762067Y5060393D01*
X1774680Y5039349D01*
X1785170Y5017171D01*
X1793435Y4994071D01*
X1799396Y4970273D01*
X1802996Y4946004D01*
X1804200Y4921500D01*
X1804200Y1971500D01*
X1802996Y1946996D01*
X1799396Y1922727D01*
X1793435Y1898929D01*
X1785170Y1875829D01*
X1774680Y1853651D01*
X1762067Y1832607D01*
X1747453Y1812902D01*
X1730977Y1794723D01*
X1712798Y1778247D01*
X1693093Y1763633D01*
X1672049Y1751020D01*
X1649871Y1740530D01*
X1626771Y1732265D01*
X1602973Y1726304D01*
X1578704Y1722704D01*
X1554200Y1721500D01*
X-1395800Y1721500D01*
X-1420304Y1722704D01*
X-1444573Y1726304D01*
X-1468371Y1732265D01*
X-1491471Y1740530D01*
X-1513649Y1751020D01*
X-1534693Y1763633D01*
X-1554398Y1778247D01*
X-1572577Y1794723D01*
X-1589053Y1812902D01*
X-1603667Y1832607D01*
X-1616280Y1853651D01*
X-1626770Y1875829D01*
X-1635035Y1898929D01*
X-1640996Y1922727D01*
X-1644596Y1946996D01*
X-1645800Y1971500D01*
X-1645800Y4921500D01*
X-1644596Y4946004D01*
X-1640996Y4970273D01*
X-1635035Y4994071D01*
X-1626770Y5017171D01*
X-1616280Y5039349D01*
X-1603667Y5060393D01*
X-1589053Y5080098D01*
X-1572577Y5098277D01*
X-1554398Y5114753D01*
X-1534693Y5129367D01*
X-1513649Y5141980D01*
X-1491471Y5152470D01*
X-1468371Y5160735D01*
X-1444573Y5166696D01*
X-1420304Y5170296D01*
X-1395800Y5171500D01*
X1554200Y5171500D01*
X1578704Y5170296D01*
X1578704Y5170296D01*
G37*
D12*
G04 #@! TD*
G04 #@! TO.P,U1,33*
G04 #@! TO.N,GND*
X79200Y3446500D03*
D11*
G04 #@! TO.N,+3V3*
G04 #@! TO.C,U1*
G36*
X1897826Y6321199D02*
X1903893Y6320299D01*
X1909843Y6318809D01*
X1915618Y6316742D01*
X1921162Y6314120D01*
X1926423Y6310967D01*
X1931350Y6307313D01*
X1935894Y6303194D01*
X1940013Y6298650D01*
X1943667Y6293723D01*
X1946820Y6288462D01*
X1949442Y6282918D01*
X1951509Y6277143D01*
X1952999Y6271193D01*
X1953899Y6265126D01*
X1954200Y6259000D01*
X1954200Y5509000D01*
X1953899Y5502874D01*
X1952999Y5496807D01*
X1951509Y5490857D01*
X1949442Y5485082D01*
X1946820Y5479538D01*
X1943667Y5474277D01*
X1940013Y5469350D01*
X1935894Y5464806D01*
X1931350Y5460687D01*
X1926423Y5457033D01*
X1921162Y5453880D01*
X1915618Y5451258D01*
X1909843Y5449191D01*
X1903893Y5447701D01*
X1897826Y5446801D01*
X1891700Y5446500D01*
X1766700Y5446500D01*
X1760574Y5446801D01*
X1754507Y5447701D01*
X1748557Y5449191D01*
X1742782Y5451258D01*
X1737238Y5453880D01*
X1731977Y5457033D01*
X1727050Y5460687D01*
X1722506Y5464806D01*
X1718387Y5469350D01*
X1714733Y5474277D01*
X1711580Y5479538D01*
X1708958Y5485082D01*
X1706891Y5490857D01*
X1705401Y5496807D01*
X1704501Y5502874D01*
X1704200Y5509000D01*
X1704200Y6259000D01*
X1704501Y6265126D01*
X1705401Y6271193D01*
X1706891Y6277143D01*
X1708958Y6282918D01*
X1711580Y6288462D01*
X1714733Y6293723D01*
X1718387Y6298650D01*
X1722506Y6303194D01*
X1727050Y6307313D01*
X1731977Y6310967D01*
X1737238Y6314120D01*
X1742782Y6316742D01*
X1748557Y6318809D01*
X1754507Y6320299D01*
X1760574Y6321199D01*
X1766700Y6321500D01*
X1891700Y6321500D01*
X1897826Y6321199D01*
X1897826Y6321199D01*
G37*
D13*
G04 #@! TD*
G04 #@! TO.P,U1,1*
G04 #@! TO.N,+3V3*
X1829200Y5884000D03*
D11*
G04 #@! TO.N,Net-(U1-Pad2)*
G04 #@! TO.C,U1*
G36*
X1397826Y6321199D02*
X1403893Y6320299D01*
X1409843Y6318809D01*
X1415618Y6316742D01*
X1421162Y6314120D01*
X1426423Y6310967D01*
X1431350Y6307313D01*
X1435894Y6303194D01*
X1440013Y6298650D01*
X1443667Y6293723D01*
X1446820Y6288462D01*
X1449442Y6282918D01*
X1451509Y6277143D01*
X1452999Y6271193D01*
X1453899Y6265126D01*
X1454200Y6259000D01*
X1454200Y5509000D01*
X1453899Y5502874D01*
X1452999Y5496807D01*
X1451509Y5490857D01*
X1449442Y5485082D01*
X1446820Y5479538D01*
X1443667Y5474277D01*
X1440013Y5469350D01*
X1435894Y5464806D01*
X1431350Y5460687D01*
X1426423Y5457033D01*
X1421162Y5453880D01*
X1415618Y5451258D01*
X1409843Y5449191D01*
X1403893Y5447701D01*
X1397826Y5446801D01*
X1391700Y5446500D01*
X1266700Y5446500D01*
X1260574Y5446801D01*
X1254507Y5447701D01*
X1248557Y5449191D01*
X1242782Y5451258D01*
X1237238Y5453880D01*
X1231977Y5457033D01*
X1227050Y5460687D01*
X1222506Y5464806D01*
X1218387Y5469350D01*
X1214733Y5474277D01*
X1211580Y5479538D01*
X1208958Y5485082D01*
X1206891Y5490857D01*
X1205401Y5496807D01*
X1204501Y5502874D01*
X1204200Y5509000D01*
X1204200Y6259000D01*
X1204501Y6265126D01*
X1205401Y6271193D01*
X1206891Y6277143D01*
X1208958Y6282918D01*
X1211580Y6288462D01*
X1214733Y6293723D01*
X1218387Y6298650D01*
X1222506Y6303194D01*
X1227050Y6307313D01*
X1231977Y6310967D01*
X1237238Y6314120D01*
X1242782Y6316742D01*
X1248557Y6318809D01*
X1254507Y6320299D01*
X1260574Y6321199D01*
X1266700Y6321500D01*
X1391700Y6321500D01*
X1397826Y6321199D01*
X1397826Y6321199D01*
G37*
D13*
G04 #@! TD*
G04 #@! TO.P,U1,2*
G04 #@! TO.N,Net-(U1-Pad2)*
X1329200Y5884000D03*
D11*
G04 #@! TO.N,Net-(U1-Pad3)*
G04 #@! TO.C,U1*
G36*
X897826Y6321199D02*
X903893Y6320299D01*
X909843Y6318809D01*
X915618Y6316742D01*
X921162Y6314120D01*
X926423Y6310967D01*
X931350Y6307313D01*
X935894Y6303194D01*
X940013Y6298650D01*
X943667Y6293723D01*
X946820Y6288462D01*
X949442Y6282918D01*
X951509Y6277143D01*
X952999Y6271193D01*
X953899Y6265126D01*
X954200Y6259000D01*
X954200Y5509000D01*
X953899Y5502874D01*
X952999Y5496807D01*
X951509Y5490857D01*
X949442Y5485082D01*
X946820Y5479538D01*
X943667Y5474277D01*
X940013Y5469350D01*
X935894Y5464806D01*
X931350Y5460687D01*
X926423Y5457033D01*
X921162Y5453880D01*
X915618Y5451258D01*
X909843Y5449191D01*
X903893Y5447701D01*
X897826Y5446801D01*
X891700Y5446500D01*
X766700Y5446500D01*
X760574Y5446801D01*
X754507Y5447701D01*
X748557Y5449191D01*
X742782Y5451258D01*
X737238Y5453880D01*
X731977Y5457033D01*
X727050Y5460687D01*
X722506Y5464806D01*
X718387Y5469350D01*
X714733Y5474277D01*
X711580Y5479538D01*
X708958Y5485082D01*
X706891Y5490857D01*
X705401Y5496807D01*
X704501Y5502874D01*
X704200Y5509000D01*
X704200Y6259000D01*
X704501Y6265126D01*
X705401Y6271193D01*
X706891Y6277143D01*
X708958Y6282918D01*
X711580Y6288462D01*
X714733Y6293723D01*
X718387Y6298650D01*
X722506Y6303194D01*
X727050Y6307313D01*
X731977Y6310967D01*
X737238Y6314120D01*
X742782Y6316742D01*
X748557Y6318809D01*
X754507Y6320299D01*
X760574Y6321199D01*
X766700Y6321500D01*
X891700Y6321500D01*
X897826Y6321199D01*
X897826Y6321199D01*
G37*
D13*
G04 #@! TD*
G04 #@! TO.P,U1,3*
G04 #@! TO.N,Net-(U1-Pad3)*
X829200Y5884000D03*
D11*
G04 #@! TO.N,Net-(U1-Pad4)*
G04 #@! TO.C,U1*
G36*
X397826Y6321199D02*
X403893Y6320299D01*
X409843Y6318809D01*
X415618Y6316742D01*
X421162Y6314120D01*
X426423Y6310967D01*
X431350Y6307313D01*
X435894Y6303194D01*
X440013Y6298650D01*
X443667Y6293723D01*
X446820Y6288462D01*
X449442Y6282918D01*
X451509Y6277143D01*
X452999Y6271193D01*
X453899Y6265126D01*
X454200Y6259000D01*
X454200Y5509000D01*
X453899Y5502874D01*
X452999Y5496807D01*
X451509Y5490857D01*
X449442Y5485082D01*
X446820Y5479538D01*
X443667Y5474277D01*
X440013Y5469350D01*
X435894Y5464806D01*
X431350Y5460687D01*
X426423Y5457033D01*
X421162Y5453880D01*
X415618Y5451258D01*
X409843Y5449191D01*
X403893Y5447701D01*
X397826Y5446801D01*
X391700Y5446500D01*
X266700Y5446500D01*
X260574Y5446801D01*
X254507Y5447701D01*
X248557Y5449191D01*
X242782Y5451258D01*
X237238Y5453880D01*
X231977Y5457033D01*
X227050Y5460687D01*
X222506Y5464806D01*
X218387Y5469350D01*
X214733Y5474277D01*
X211580Y5479538D01*
X208958Y5485082D01*
X206891Y5490857D01*
X205401Y5496807D01*
X204501Y5502874D01*
X204200Y5509000D01*
X204200Y6259000D01*
X204501Y6265126D01*
X205401Y6271193D01*
X206891Y6277143D01*
X208958Y6282918D01*
X211580Y6288462D01*
X214733Y6293723D01*
X218387Y6298650D01*
X222506Y6303194D01*
X227050Y6307313D01*
X231977Y6310967D01*
X237238Y6314120D01*
X242782Y6316742D01*
X248557Y6318809D01*
X254507Y6320299D01*
X260574Y6321199D01*
X266700Y6321500D01*
X391700Y6321500D01*
X397826Y6321199D01*
X397826Y6321199D01*
G37*
D13*
G04 #@! TD*
G04 #@! TO.P,U1,4*
G04 #@! TO.N,Net-(U1-Pad4)*
X329200Y5884000D03*
D11*
G04 #@! TO.N,+3V3*
G04 #@! TO.C,U1*
G36*
X-102174Y6321199D02*
X-96107Y6320299D01*
X-90157Y6318809D01*
X-84382Y6316742D01*
X-78838Y6314120D01*
X-73577Y6310967D01*
X-68650Y6307313D01*
X-64106Y6303194D01*
X-59987Y6298650D01*
X-56333Y6293723D01*
X-53180Y6288462D01*
X-50558Y6282918D01*
X-48491Y6277143D01*
X-47001Y6271193D01*
X-46101Y6265126D01*
X-45800Y6259000D01*
X-45800Y5509000D01*
X-46101Y5502874D01*
X-47001Y5496807D01*
X-48491Y5490857D01*
X-50558Y5485082D01*
X-53180Y5479538D01*
X-56333Y5474277D01*
X-59987Y5469350D01*
X-64106Y5464806D01*
X-68650Y5460687D01*
X-73577Y5457033D01*
X-78838Y5453880D01*
X-84382Y5451258D01*
X-90157Y5449191D01*
X-96107Y5447701D01*
X-102174Y5446801D01*
X-108300Y5446500D01*
X-233300Y5446500D01*
X-239426Y5446801D01*
X-245493Y5447701D01*
X-251443Y5449191D01*
X-257218Y5451258D01*
X-262762Y5453880D01*
X-268023Y5457033D01*
X-272950Y5460687D01*
X-277494Y5464806D01*
X-281613Y5469350D01*
X-285267Y5474277D01*
X-288420Y5479538D01*
X-291042Y5485082D01*
X-293109Y5490857D01*
X-294599Y5496807D01*
X-295499Y5502874D01*
X-295800Y5509000D01*
X-295800Y6259000D01*
X-295499Y6265126D01*
X-294599Y6271193D01*
X-293109Y6277143D01*
X-291042Y6282918D01*
X-288420Y6288462D01*
X-285267Y6293723D01*
X-281613Y6298650D01*
X-277494Y6303194D01*
X-272950Y6307313D01*
X-268023Y6310967D01*
X-262762Y6314120D01*
X-257218Y6316742D01*
X-251443Y6318809D01*
X-245493Y6320299D01*
X-239426Y6321199D01*
X-233300Y6321500D01*
X-108300Y6321500D01*
X-102174Y6321199D01*
X-102174Y6321199D01*
G37*
D13*
G04 #@! TD*
G04 #@! TO.P,U1,5*
G04 #@! TO.N,+3V3*
X-170800Y5884000D03*
D11*
G04 #@! TO.N,Net-(U1-Pad6)*
G04 #@! TO.C,U1*
G36*
X-602174Y6321199D02*
X-596107Y6320299D01*
X-590157Y6318809D01*
X-584382Y6316742D01*
X-578838Y6314120D01*
X-573577Y6310967D01*
X-568650Y6307313D01*
X-564106Y6303194D01*
X-559987Y6298650D01*
X-556333Y6293723D01*
X-553180Y6288462D01*
X-550558Y6282918D01*
X-548491Y6277143D01*
X-547001Y6271193D01*
X-546101Y6265126D01*
X-545800Y6259000D01*
X-545800Y5509000D01*
X-546101Y5502874D01*
X-547001Y5496807D01*
X-548491Y5490857D01*
X-550558Y5485082D01*
X-553180Y5479538D01*
X-556333Y5474277D01*
X-559987Y5469350D01*
X-564106Y5464806D01*
X-568650Y5460687D01*
X-573577Y5457033D01*
X-578838Y5453880D01*
X-584382Y5451258D01*
X-590157Y5449191D01*
X-596107Y5447701D01*
X-602174Y5446801D01*
X-608300Y5446500D01*
X-733300Y5446500D01*
X-739426Y5446801D01*
X-745493Y5447701D01*
X-751443Y5449191D01*
X-757218Y5451258D01*
X-762762Y5453880D01*
X-768023Y5457033D01*
X-772950Y5460687D01*
X-777494Y5464806D01*
X-781613Y5469350D01*
X-785267Y5474277D01*
X-788420Y5479538D01*
X-791042Y5485082D01*
X-793109Y5490857D01*
X-794599Y5496807D01*
X-795499Y5502874D01*
X-795800Y5509000D01*
X-795800Y6259000D01*
X-795499Y6265126D01*
X-794599Y6271193D01*
X-793109Y6277143D01*
X-791042Y6282918D01*
X-788420Y6288462D01*
X-785267Y6293723D01*
X-781613Y6298650D01*
X-777494Y6303194D01*
X-772950Y6307313D01*
X-768023Y6310967D01*
X-762762Y6314120D01*
X-757218Y6316742D01*
X-751443Y6318809D01*
X-745493Y6320299D01*
X-739426Y6321199D01*
X-733300Y6321500D01*
X-608300Y6321500D01*
X-602174Y6321199D01*
X-602174Y6321199D01*
G37*
D13*
G04 #@! TD*
G04 #@! TO.P,U1,6*
G04 #@! TO.N,Net-(U1-Pad6)*
X-670800Y5884000D03*
D11*
G04 #@! TO.N,Net-(D2-PadG)*
G04 #@! TO.C,U1*
G36*
X-1102174Y6321199D02*
X-1096107Y6320299D01*
X-1090157Y6318809D01*
X-1084382Y6316742D01*
X-1078838Y6314120D01*
X-1073577Y6310967D01*
X-1068650Y6307313D01*
X-1064106Y6303194D01*
X-1059987Y6298650D01*
X-1056333Y6293723D01*
X-1053180Y6288462D01*
X-1050558Y6282918D01*
X-1048491Y6277143D01*
X-1047001Y6271193D01*
X-1046101Y6265126D01*
X-1045800Y6259000D01*
X-1045800Y5509000D01*
X-1046101Y5502874D01*
X-1047001Y5496807D01*
X-1048491Y5490857D01*
X-1050558Y5485082D01*
X-1053180Y5479538D01*
X-1056333Y5474277D01*
X-1059987Y5469350D01*
X-1064106Y5464806D01*
X-1068650Y5460687D01*
X-1073577Y5457033D01*
X-1078838Y5453880D01*
X-1084382Y5451258D01*
X-1090157Y5449191D01*
X-1096107Y5447701D01*
X-1102174Y5446801D01*
X-1108300Y5446500D01*
X-1233300Y5446500D01*
X-1239426Y5446801D01*
X-1245493Y5447701D01*
X-1251443Y5449191D01*
X-1257218Y5451258D01*
X-1262762Y5453880D01*
X-1268023Y5457033D01*
X-1272950Y5460687D01*
X-1277494Y5464806D01*
X-1281613Y5469350D01*
X-1285267Y5474277D01*
X-1288420Y5479538D01*
X-1291042Y5485082D01*
X-1293109Y5490857D01*
X-1294599Y5496807D01*
X-1295499Y5502874D01*
X-1295800Y5509000D01*
X-1295800Y6259000D01*
X-1295499Y6265126D01*
X-1294599Y6271193D01*
X-1293109Y6277143D01*
X-1291042Y6282918D01*
X-1288420Y6288462D01*
X-1285267Y6293723D01*
X-1281613Y6298650D01*
X-1277494Y6303194D01*
X-1272950Y6307313D01*
X-1268023Y6310967D01*
X-1262762Y6314120D01*
X-1257218Y6316742D01*
X-1251443Y6318809D01*
X-1245493Y6320299D01*
X-1239426Y6321199D01*
X-1233300Y6321500D01*
X-1108300Y6321500D01*
X-1102174Y6321199D01*
X-1102174Y6321199D01*
G37*
D13*
G04 #@! TD*
G04 #@! TO.P,U1,7*
G04 #@! TO.N,Net-(D2-PadG)*
X-1170800Y5884000D03*
D11*
G04 #@! TO.N,Net-(D2-PadR)*
G04 #@! TO.C,U1*
G36*
X-1602174Y6321199D02*
X-1596107Y6320299D01*
X-1590157Y6318809D01*
X-1584382Y6316742D01*
X-1578838Y6314120D01*
X-1573577Y6310967D01*
X-1568650Y6307313D01*
X-1564106Y6303194D01*
X-1559987Y6298650D01*
X-1556333Y6293723D01*
X-1553180Y6288462D01*
X-1550558Y6282918D01*
X-1548491Y6277143D01*
X-1547001Y6271193D01*
X-1546101Y6265126D01*
X-1545800Y6259000D01*
X-1545800Y5509000D01*
X-1546101Y5502874D01*
X-1547001Y5496807D01*
X-1548491Y5490857D01*
X-1550558Y5485082D01*
X-1553180Y5479538D01*
X-1556333Y5474277D01*
X-1559987Y5469350D01*
X-1564106Y5464806D01*
X-1568650Y5460687D01*
X-1573577Y5457033D01*
X-1578838Y5453880D01*
X-1584382Y5451258D01*
X-1590157Y5449191D01*
X-1596107Y5447701D01*
X-1602174Y5446801D01*
X-1608300Y5446500D01*
X-1733300Y5446500D01*
X-1739426Y5446801D01*
X-1745493Y5447701D01*
X-1751443Y5449191D01*
X-1757218Y5451258D01*
X-1762762Y5453880D01*
X-1768023Y5457033D01*
X-1772950Y5460687D01*
X-1777494Y5464806D01*
X-1781613Y5469350D01*
X-1785267Y5474277D01*
X-1788420Y5479538D01*
X-1791042Y5485082D01*
X-1793109Y5490857D01*
X-1794599Y5496807D01*
X-1795499Y5502874D01*
X-1795800Y5509000D01*
X-1795800Y6259000D01*
X-1795499Y6265126D01*
X-1794599Y6271193D01*
X-1793109Y6277143D01*
X-1791042Y6282918D01*
X-1788420Y6288462D01*
X-1785267Y6293723D01*
X-1781613Y6298650D01*
X-1777494Y6303194D01*
X-1772950Y6307313D01*
X-1768023Y6310967D01*
X-1762762Y6314120D01*
X-1757218Y6316742D01*
X-1751443Y6318809D01*
X-1745493Y6320299D01*
X-1739426Y6321199D01*
X-1733300Y6321500D01*
X-1608300Y6321500D01*
X-1602174Y6321199D01*
X-1602174Y6321199D01*
G37*
D13*
G04 #@! TD*
G04 #@! TO.P,U1,8*
G04 #@! TO.N,Net-(D2-PadR)*
X-1670800Y5884000D03*
D11*
G04 #@! TO.N,Net-(D2-PadB)*
G04 #@! TO.C,U1*
G36*
X-1977174Y5321199D02*
X-1971107Y5320299D01*
X-1965157Y5318809D01*
X-1959382Y5316742D01*
X-1953838Y5314120D01*
X-1948577Y5310967D01*
X-1943650Y5307313D01*
X-1939106Y5303194D01*
X-1934987Y5298650D01*
X-1931333Y5293723D01*
X-1928180Y5288462D01*
X-1925558Y5282918D01*
X-1923491Y5277143D01*
X-1922001Y5271193D01*
X-1921101Y5265126D01*
X-1920800Y5259000D01*
X-1920800Y5134000D01*
X-1921101Y5127874D01*
X-1922001Y5121807D01*
X-1923491Y5115857D01*
X-1925558Y5110082D01*
X-1928180Y5104538D01*
X-1931333Y5099277D01*
X-1934987Y5094350D01*
X-1939106Y5089806D01*
X-1943650Y5085687D01*
X-1948577Y5082033D01*
X-1953838Y5078880D01*
X-1959382Y5076258D01*
X-1965157Y5074191D01*
X-1971107Y5072701D01*
X-1977174Y5071801D01*
X-1983300Y5071500D01*
X-2733300Y5071500D01*
X-2739426Y5071801D01*
X-2745493Y5072701D01*
X-2751443Y5074191D01*
X-2757218Y5076258D01*
X-2762762Y5078880D01*
X-2768023Y5082033D01*
X-2772950Y5085687D01*
X-2777494Y5089806D01*
X-2781613Y5094350D01*
X-2785267Y5099277D01*
X-2788420Y5104538D01*
X-2791042Y5110082D01*
X-2793109Y5115857D01*
X-2794599Y5121807D01*
X-2795499Y5127874D01*
X-2795800Y5134000D01*
X-2795800Y5259000D01*
X-2795499Y5265126D01*
X-2794599Y5271193D01*
X-2793109Y5277143D01*
X-2791042Y5282918D01*
X-2788420Y5288462D01*
X-2785267Y5293723D01*
X-2781613Y5298650D01*
X-2777494Y5303194D01*
X-2772950Y5307313D01*
X-2768023Y5310967D01*
X-2762762Y5314120D01*
X-2757218Y5316742D01*
X-2751443Y5318809D01*
X-2745493Y5320299D01*
X-2739426Y5321199D01*
X-2733300Y5321500D01*
X-1983300Y5321500D01*
X-1977174Y5321199D01*
X-1977174Y5321199D01*
G37*
D13*
G04 #@! TD*
G04 #@! TO.P,U1,9*
G04 #@! TO.N,Net-(D2-PadB)*
X-2358300Y5196500D03*
D11*
G04 #@! TO.N,Net-(U1-Pad10)*
G04 #@! TO.C,U1*
G36*
X-1977174Y4821199D02*
X-1971107Y4820299D01*
X-1965157Y4818809D01*
X-1959382Y4816742D01*
X-1953838Y4814120D01*
X-1948577Y4810967D01*
X-1943650Y4807313D01*
X-1939106Y4803194D01*
X-1934987Y4798650D01*
X-1931333Y4793723D01*
X-1928180Y4788462D01*
X-1925558Y4782918D01*
X-1923491Y4777143D01*
X-1922001Y4771193D01*
X-1921101Y4765126D01*
X-1920800Y4759000D01*
X-1920800Y4634000D01*
X-1921101Y4627874D01*
X-1922001Y4621807D01*
X-1923491Y4615857D01*
X-1925558Y4610082D01*
X-1928180Y4604538D01*
X-1931333Y4599277D01*
X-1934987Y4594350D01*
X-1939106Y4589806D01*
X-1943650Y4585687D01*
X-1948577Y4582033D01*
X-1953838Y4578880D01*
X-1959382Y4576258D01*
X-1965157Y4574191D01*
X-1971107Y4572701D01*
X-1977174Y4571801D01*
X-1983300Y4571500D01*
X-2733300Y4571500D01*
X-2739426Y4571801D01*
X-2745493Y4572701D01*
X-2751443Y4574191D01*
X-2757218Y4576258D01*
X-2762762Y4578880D01*
X-2768023Y4582033D01*
X-2772950Y4585687D01*
X-2777494Y4589806D01*
X-2781613Y4594350D01*
X-2785267Y4599277D01*
X-2788420Y4604538D01*
X-2791042Y4610082D01*
X-2793109Y4615857D01*
X-2794599Y4621807D01*
X-2795499Y4627874D01*
X-2795800Y4634000D01*
X-2795800Y4759000D01*
X-2795499Y4765126D01*
X-2794599Y4771193D01*
X-2793109Y4777143D01*
X-2791042Y4782918D01*
X-2788420Y4788462D01*
X-2785267Y4793723D01*
X-2781613Y4798650D01*
X-2777494Y4803194D01*
X-2772950Y4807313D01*
X-2768023Y4810967D01*
X-2762762Y4814120D01*
X-2757218Y4816742D01*
X-2751443Y4818809D01*
X-2745493Y4820299D01*
X-2739426Y4821199D01*
X-2733300Y4821500D01*
X-1983300Y4821500D01*
X-1977174Y4821199D01*
X-1977174Y4821199D01*
G37*
D13*
G04 #@! TD*
G04 #@! TO.P,U1,10*
G04 #@! TO.N,Net-(U1-Pad10)*
X-2358300Y4696500D03*
D11*
G04 #@! TO.N,Net-(U1-Pad11)*
G04 #@! TO.C,U1*
G36*
X-1977174Y4321199D02*
X-1971107Y4320299D01*
X-1965157Y4318809D01*
X-1959382Y4316742D01*
X-1953838Y4314120D01*
X-1948577Y4310967D01*
X-1943650Y4307313D01*
X-1939106Y4303194D01*
X-1934987Y4298650D01*
X-1931333Y4293723D01*
X-1928180Y4288462D01*
X-1925558Y4282918D01*
X-1923491Y4277143D01*
X-1922001Y4271193D01*
X-1921101Y4265126D01*
X-1920800Y4259000D01*
X-1920800Y4134000D01*
X-1921101Y4127874D01*
X-1922001Y4121807D01*
X-1923491Y4115857D01*
X-1925558Y4110082D01*
X-1928180Y4104538D01*
X-1931333Y4099277D01*
X-1934987Y4094350D01*
X-1939106Y4089806D01*
X-1943650Y4085687D01*
X-1948577Y4082033D01*
X-1953838Y4078880D01*
X-1959382Y4076258D01*
X-1965157Y4074191D01*
X-1971107Y4072701D01*
X-1977174Y4071801D01*
X-1983300Y4071500D01*
X-2733300Y4071500D01*
X-2739426Y4071801D01*
X-2745493Y4072701D01*
X-2751443Y4074191D01*
X-2757218Y4076258D01*
X-2762762Y4078880D01*
X-2768023Y4082033D01*
X-2772950Y4085687D01*
X-2777494Y4089806D01*
X-2781613Y4094350D01*
X-2785267Y4099277D01*
X-2788420Y4104538D01*
X-2791042Y4110082D01*
X-2793109Y4115857D01*
X-2794599Y4121807D01*
X-2795499Y4127874D01*
X-2795800Y4134000D01*
X-2795800Y4259000D01*
X-2795499Y4265126D01*
X-2794599Y4271193D01*
X-2793109Y4277143D01*
X-2791042Y4282918D01*
X-2788420Y4288462D01*
X-2785267Y4293723D01*
X-2781613Y4298650D01*
X-2777494Y4303194D01*
X-2772950Y4307313D01*
X-2768023Y4310967D01*
X-2762762Y4314120D01*
X-2757218Y4316742D01*
X-2751443Y4318809D01*
X-2745493Y4320299D01*
X-2739426Y4321199D01*
X-2733300Y4321500D01*
X-1983300Y4321500D01*
X-1977174Y4321199D01*
X-1977174Y4321199D01*
G37*
D13*
G04 #@! TD*
G04 #@! TO.P,U1,11*
G04 #@! TO.N,Net-(U1-Pad11)*
X-2358300Y4196500D03*
D11*
G04 #@! TO.N,Net-(U1-Pad12)*
G04 #@! TO.C,U1*
G36*
X-1977174Y3821199D02*
X-1971107Y3820299D01*
X-1965157Y3818809D01*
X-1959382Y3816742D01*
X-1953838Y3814120D01*
X-1948577Y3810967D01*
X-1943650Y3807313D01*
X-1939106Y3803194D01*
X-1934987Y3798650D01*
X-1931333Y3793723D01*
X-1928180Y3788462D01*
X-1925558Y3782918D01*
X-1923491Y3777143D01*
X-1922001Y3771193D01*
X-1921101Y3765126D01*
X-1920800Y3759000D01*
X-1920800Y3634000D01*
X-1921101Y3627874D01*
X-1922001Y3621807D01*
X-1923491Y3615857D01*
X-1925558Y3610082D01*
X-1928180Y3604538D01*
X-1931333Y3599277D01*
X-1934987Y3594350D01*
X-1939106Y3589806D01*
X-1943650Y3585687D01*
X-1948577Y3582033D01*
X-1953838Y3578880D01*
X-1959382Y3576258D01*
X-1965157Y3574191D01*
X-1971107Y3572701D01*
X-1977174Y3571801D01*
X-1983300Y3571500D01*
X-2733300Y3571500D01*
X-2739426Y3571801D01*
X-2745493Y3572701D01*
X-2751443Y3574191D01*
X-2757218Y3576258D01*
X-2762762Y3578880D01*
X-2768023Y3582033D01*
X-2772950Y3585687D01*
X-2777494Y3589806D01*
X-2781613Y3594350D01*
X-2785267Y3599277D01*
X-2788420Y3604538D01*
X-2791042Y3610082D01*
X-2793109Y3615857D01*
X-2794599Y3621807D01*
X-2795499Y3627874D01*
X-2795800Y3634000D01*
X-2795800Y3759000D01*
X-2795499Y3765126D01*
X-2794599Y3771193D01*
X-2793109Y3777143D01*
X-2791042Y3782918D01*
X-2788420Y3788462D01*
X-2785267Y3793723D01*
X-2781613Y3798650D01*
X-2777494Y3803194D01*
X-2772950Y3807313D01*
X-2768023Y3810967D01*
X-2762762Y3814120D01*
X-2757218Y3816742D01*
X-2751443Y3818809D01*
X-2745493Y3820299D01*
X-2739426Y3821199D01*
X-2733300Y3821500D01*
X-1983300Y3821500D01*
X-1977174Y3821199D01*
X-1977174Y3821199D01*
G37*
D13*
G04 #@! TD*
G04 #@! TO.P,U1,12*
G04 #@! TO.N,Net-(U1-Pad12)*
X-2358300Y3696500D03*
D11*
G04 #@! TO.N,Net-(U1-Pad13)*
G04 #@! TO.C,U1*
G36*
X-1977174Y3321199D02*
X-1971107Y3320299D01*
X-1965157Y3318809D01*
X-1959382Y3316742D01*
X-1953838Y3314120D01*
X-1948577Y3310967D01*
X-1943650Y3307313D01*
X-1939106Y3303194D01*
X-1934987Y3298650D01*
X-1931333Y3293723D01*
X-1928180Y3288462D01*
X-1925558Y3282918D01*
X-1923491Y3277143D01*
X-1922001Y3271193D01*
X-1921101Y3265126D01*
X-1920800Y3259000D01*
X-1920800Y3134000D01*
X-1921101Y3127874D01*
X-1922001Y3121807D01*
X-1923491Y3115857D01*
X-1925558Y3110082D01*
X-1928180Y3104538D01*
X-1931333Y3099277D01*
X-1934987Y3094350D01*
X-1939106Y3089806D01*
X-1943650Y3085687D01*
X-1948577Y3082033D01*
X-1953838Y3078880D01*
X-1959382Y3076258D01*
X-1965157Y3074191D01*
X-1971107Y3072701D01*
X-1977174Y3071801D01*
X-1983300Y3071500D01*
X-2733300Y3071500D01*
X-2739426Y3071801D01*
X-2745493Y3072701D01*
X-2751443Y3074191D01*
X-2757218Y3076258D01*
X-2762762Y3078880D01*
X-2768023Y3082033D01*
X-2772950Y3085687D01*
X-2777494Y3089806D01*
X-2781613Y3094350D01*
X-2785267Y3099277D01*
X-2788420Y3104538D01*
X-2791042Y3110082D01*
X-2793109Y3115857D01*
X-2794599Y3121807D01*
X-2795499Y3127874D01*
X-2795800Y3134000D01*
X-2795800Y3259000D01*
X-2795499Y3265126D01*
X-2794599Y3271193D01*
X-2793109Y3277143D01*
X-2791042Y3282918D01*
X-2788420Y3288462D01*
X-2785267Y3293723D01*
X-2781613Y3298650D01*
X-2777494Y3303194D01*
X-2772950Y3307313D01*
X-2768023Y3310967D01*
X-2762762Y3314120D01*
X-2757218Y3316742D01*
X-2751443Y3318809D01*
X-2745493Y3320299D01*
X-2739426Y3321199D01*
X-2733300Y3321500D01*
X-1983300Y3321500D01*
X-1977174Y3321199D01*
X-1977174Y3321199D01*
G37*
D13*
G04 #@! TD*
G04 #@! TO.P,U1,13*
G04 #@! TO.N,Net-(U1-Pad13)*
X-2358300Y3196500D03*
D11*
G04 #@! TO.N,Net-(U1-Pad14)*
G04 #@! TO.C,U1*
G36*
X-1977174Y2821199D02*
X-1971107Y2820299D01*
X-1965157Y2818809D01*
X-1959382Y2816742D01*
X-1953838Y2814120D01*
X-1948577Y2810967D01*
X-1943650Y2807313D01*
X-1939106Y2803194D01*
X-1934987Y2798650D01*
X-1931333Y2793723D01*
X-1928180Y2788462D01*
X-1925558Y2782918D01*
X-1923491Y2777143D01*
X-1922001Y2771193D01*
X-1921101Y2765126D01*
X-1920800Y2759000D01*
X-1920800Y2634000D01*
X-1921101Y2627874D01*
X-1922001Y2621807D01*
X-1923491Y2615857D01*
X-1925558Y2610082D01*
X-1928180Y2604538D01*
X-1931333Y2599277D01*
X-1934987Y2594350D01*
X-1939106Y2589806D01*
X-1943650Y2585687D01*
X-1948577Y2582033D01*
X-1953838Y2578880D01*
X-1959382Y2576258D01*
X-1965157Y2574191D01*
X-1971107Y2572701D01*
X-1977174Y2571801D01*
X-1983300Y2571500D01*
X-2733300Y2571500D01*
X-2739426Y2571801D01*
X-2745493Y2572701D01*
X-2751443Y2574191D01*
X-2757218Y2576258D01*
X-2762762Y2578880D01*
X-2768023Y2582033D01*
X-2772950Y2585687D01*
X-2777494Y2589806D01*
X-2781613Y2594350D01*
X-2785267Y2599277D01*
X-2788420Y2604538D01*
X-2791042Y2610082D01*
X-2793109Y2615857D01*
X-2794599Y2621807D01*
X-2795499Y2627874D01*
X-2795800Y2634000D01*
X-2795800Y2759000D01*
X-2795499Y2765126D01*
X-2794599Y2771193D01*
X-2793109Y2777143D01*
X-2791042Y2782918D01*
X-2788420Y2788462D01*
X-2785267Y2793723D01*
X-2781613Y2798650D01*
X-2777494Y2803194D01*
X-2772950Y2807313D01*
X-2768023Y2810967D01*
X-2762762Y2814120D01*
X-2757218Y2816742D01*
X-2751443Y2818809D01*
X-2745493Y2820299D01*
X-2739426Y2821199D01*
X-2733300Y2821500D01*
X-1983300Y2821500D01*
X-1977174Y2821199D01*
X-1977174Y2821199D01*
G37*
D13*
G04 #@! TD*
G04 #@! TO.P,U1,14*
G04 #@! TO.N,Net-(U1-Pad14)*
X-2358300Y2696500D03*
D11*
G04 #@! TO.N,/Button*
G04 #@! TO.C,U1*
G36*
X-1977174Y2321199D02*
X-1971107Y2320299D01*
X-1965157Y2318809D01*
X-1959382Y2316742D01*
X-1953838Y2314120D01*
X-1948577Y2310967D01*
X-1943650Y2307313D01*
X-1939106Y2303194D01*
X-1934987Y2298650D01*
X-1931333Y2293723D01*
X-1928180Y2288462D01*
X-1925558Y2282918D01*
X-1923491Y2277143D01*
X-1922001Y2271193D01*
X-1921101Y2265126D01*
X-1920800Y2259000D01*
X-1920800Y2134000D01*
X-1921101Y2127874D01*
X-1922001Y2121807D01*
X-1923491Y2115857D01*
X-1925558Y2110082D01*
X-1928180Y2104538D01*
X-1931333Y2099277D01*
X-1934987Y2094350D01*
X-1939106Y2089806D01*
X-1943650Y2085687D01*
X-1948577Y2082033D01*
X-1953838Y2078880D01*
X-1959382Y2076258D01*
X-1965157Y2074191D01*
X-1971107Y2072701D01*
X-1977174Y2071801D01*
X-1983300Y2071500D01*
X-2733300Y2071500D01*
X-2739426Y2071801D01*
X-2745493Y2072701D01*
X-2751443Y2074191D01*
X-2757218Y2076258D01*
X-2762762Y2078880D01*
X-2768023Y2082033D01*
X-2772950Y2085687D01*
X-2777494Y2089806D01*
X-2781613Y2094350D01*
X-2785267Y2099277D01*
X-2788420Y2104538D01*
X-2791042Y2110082D01*
X-2793109Y2115857D01*
X-2794599Y2121807D01*
X-2795499Y2127874D01*
X-2795800Y2134000D01*
X-2795800Y2259000D01*
X-2795499Y2265126D01*
X-2794599Y2271193D01*
X-2793109Y2277143D01*
X-2791042Y2282918D01*
X-2788420Y2288462D01*
X-2785267Y2293723D01*
X-2781613Y2298650D01*
X-2777494Y2303194D01*
X-2772950Y2307313D01*
X-2768023Y2310967D01*
X-2762762Y2314120D01*
X-2757218Y2316742D01*
X-2751443Y2318809D01*
X-2745493Y2320299D01*
X-2739426Y2321199D01*
X-2733300Y2321500D01*
X-1983300Y2321500D01*
X-1977174Y2321199D01*
X-1977174Y2321199D01*
G37*
D13*
G04 #@! TD*
G04 #@! TO.P,U1,15*
G04 #@! TO.N,/Button*
X-2358300Y2196500D03*
D11*
G04 #@! TO.N,GND*
G04 #@! TO.C,U1*
G36*
X-1977174Y1821199D02*
X-1971107Y1820299D01*
X-1965157Y1818809D01*
X-1959382Y1816742D01*
X-1953838Y1814120D01*
X-1948577Y1810967D01*
X-1943650Y1807313D01*
X-1939106Y1803194D01*
X-1934987Y1798650D01*
X-1931333Y1793723D01*
X-1928180Y1788462D01*
X-1925558Y1782918D01*
X-1923491Y1777143D01*
X-1922001Y1771193D01*
X-1921101Y1765126D01*
X-1920800Y1759000D01*
X-1920800Y1634000D01*
X-1921101Y1627874D01*
X-1922001Y1621807D01*
X-1923491Y1615857D01*
X-1925558Y1610082D01*
X-1928180Y1604538D01*
X-1931333Y1599277D01*
X-1934987Y1594350D01*
X-1939106Y1589806D01*
X-1943650Y1585687D01*
X-1948577Y1582033D01*
X-1953838Y1578880D01*
X-1959382Y1576258D01*
X-1965157Y1574191D01*
X-1971107Y1572701D01*
X-1977174Y1571801D01*
X-1983300Y1571500D01*
X-2733300Y1571500D01*
X-2739426Y1571801D01*
X-2745493Y1572701D01*
X-2751443Y1574191D01*
X-2757218Y1576258D01*
X-2762762Y1578880D01*
X-2768023Y1582033D01*
X-2772950Y1585687D01*
X-2777494Y1589806D01*
X-2781613Y1594350D01*
X-2785267Y1599277D01*
X-2788420Y1604538D01*
X-2791042Y1610082D01*
X-2793109Y1615857D01*
X-2794599Y1621807D01*
X-2795499Y1627874D01*
X-2795800Y1634000D01*
X-2795800Y1759000D01*
X-2795499Y1765126D01*
X-2794599Y1771193D01*
X-2793109Y1777143D01*
X-2791042Y1782918D01*
X-2788420Y1788462D01*
X-2785267Y1793723D01*
X-2781613Y1798650D01*
X-2777494Y1803194D01*
X-2772950Y1807313D01*
X-2768023Y1810967D01*
X-2762762Y1814120D01*
X-2757218Y1816742D01*
X-2751443Y1818809D01*
X-2745493Y1820299D01*
X-2739426Y1821199D01*
X-2733300Y1821500D01*
X-1983300Y1821500D01*
X-1977174Y1821199D01*
X-1977174Y1821199D01*
G37*
D13*
G04 #@! TD*
G04 #@! TO.P,U1,16*
G04 #@! TO.N,GND*
X-2358300Y1696500D03*
D11*
G04 #@! TO.N,+3V3*
G04 #@! TO.C,U1*
G36*
X-1602174Y1446199D02*
X-1596107Y1445299D01*
X-1590157Y1443809D01*
X-1584382Y1441742D01*
X-1578838Y1439120D01*
X-1573577Y1435967D01*
X-1568650Y1432313D01*
X-1564106Y1428194D01*
X-1559987Y1423650D01*
X-1556333Y1418723D01*
X-1553180Y1413462D01*
X-1550558Y1407918D01*
X-1548491Y1402143D01*
X-1547001Y1396193D01*
X-1546101Y1390126D01*
X-1545800Y1384000D01*
X-1545800Y634000D01*
X-1546101Y627874D01*
X-1547001Y621807D01*
X-1548491Y615857D01*
X-1550558Y610082D01*
X-1553180Y604538D01*
X-1556333Y599277D01*
X-1559987Y594350D01*
X-1564106Y589806D01*
X-1568650Y585687D01*
X-1573577Y582033D01*
X-1578838Y578880D01*
X-1584382Y576258D01*
X-1590157Y574191D01*
X-1596107Y572701D01*
X-1602174Y571801D01*
X-1608300Y571500D01*
X-1733300Y571500D01*
X-1739426Y571801D01*
X-1745493Y572701D01*
X-1751443Y574191D01*
X-1757218Y576258D01*
X-1762762Y578880D01*
X-1768023Y582033D01*
X-1772950Y585687D01*
X-1777494Y589806D01*
X-1781613Y594350D01*
X-1785267Y599277D01*
X-1788420Y604538D01*
X-1791042Y610082D01*
X-1793109Y615857D01*
X-1794599Y621807D01*
X-1795499Y627874D01*
X-1795800Y634000D01*
X-1795800Y1384000D01*
X-1795499Y1390126D01*
X-1794599Y1396193D01*
X-1793109Y1402143D01*
X-1791042Y1407918D01*
X-1788420Y1413462D01*
X-1785267Y1418723D01*
X-1781613Y1423650D01*
X-1777494Y1428194D01*
X-1772950Y1432313D01*
X-1768023Y1435967D01*
X-1762762Y1439120D01*
X-1757218Y1441742D01*
X-1751443Y1443809D01*
X-1745493Y1445299D01*
X-1739426Y1446199D01*
X-1733300Y1446500D01*
X-1608300Y1446500D01*
X-1602174Y1446199D01*
X-1602174Y1446199D01*
G37*
D13*
G04 #@! TD*
G04 #@! TO.P,U1,17*
G04 #@! TO.N,+3V3*
X-1670800Y1009000D03*
D11*
G04 #@! TO.N,Net-(U1-Pad18)*
G04 #@! TO.C,U1*
G36*
X-1102174Y1446199D02*
X-1096107Y1445299D01*
X-1090157Y1443809D01*
X-1084382Y1441742D01*
X-1078838Y1439120D01*
X-1073577Y1435967D01*
X-1068650Y1432313D01*
X-1064106Y1428194D01*
X-1059987Y1423650D01*
X-1056333Y1418723D01*
X-1053180Y1413462D01*
X-1050558Y1407918D01*
X-1048491Y1402143D01*
X-1047001Y1396193D01*
X-1046101Y1390126D01*
X-1045800Y1384000D01*
X-1045800Y634000D01*
X-1046101Y627874D01*
X-1047001Y621807D01*
X-1048491Y615857D01*
X-1050558Y610082D01*
X-1053180Y604538D01*
X-1056333Y599277D01*
X-1059987Y594350D01*
X-1064106Y589806D01*
X-1068650Y585687D01*
X-1073577Y582033D01*
X-1078838Y578880D01*
X-1084382Y576258D01*
X-1090157Y574191D01*
X-1096107Y572701D01*
X-1102174Y571801D01*
X-1108300Y571500D01*
X-1233300Y571500D01*
X-1239426Y571801D01*
X-1245493Y572701D01*
X-1251443Y574191D01*
X-1257218Y576258D01*
X-1262762Y578880D01*
X-1268023Y582033D01*
X-1272950Y585687D01*
X-1277494Y589806D01*
X-1281613Y594350D01*
X-1285267Y599277D01*
X-1288420Y604538D01*
X-1291042Y610082D01*
X-1293109Y615857D01*
X-1294599Y621807D01*
X-1295499Y627874D01*
X-1295800Y634000D01*
X-1295800Y1384000D01*
X-1295499Y1390126D01*
X-1294599Y1396193D01*
X-1293109Y1402143D01*
X-1291042Y1407918D01*
X-1288420Y1413462D01*
X-1285267Y1418723D01*
X-1281613Y1423650D01*
X-1277494Y1428194D01*
X-1272950Y1432313D01*
X-1268023Y1435967D01*
X-1262762Y1439120D01*
X-1257218Y1441742D01*
X-1251443Y1443809D01*
X-1245493Y1445299D01*
X-1239426Y1446199D01*
X-1233300Y1446500D01*
X-1108300Y1446500D01*
X-1102174Y1446199D01*
X-1102174Y1446199D01*
G37*
D13*
G04 #@! TD*
G04 #@! TO.P,U1,18*
G04 #@! TO.N,Net-(U1-Pad18)*
X-1170800Y1009000D03*
D11*
G04 #@! TO.N,/I2C_SCL*
G04 #@! TO.C,U1*
G36*
X-602174Y1446199D02*
X-596107Y1445299D01*
X-590157Y1443809D01*
X-584382Y1441742D01*
X-578838Y1439120D01*
X-573577Y1435967D01*
X-568650Y1432313D01*
X-564106Y1428194D01*
X-559987Y1423650D01*
X-556333Y1418723D01*
X-553180Y1413462D01*
X-550558Y1407918D01*
X-548491Y1402143D01*
X-547001Y1396193D01*
X-546101Y1390126D01*
X-545800Y1384000D01*
X-545800Y634000D01*
X-546101Y627874D01*
X-547001Y621807D01*
X-548491Y615857D01*
X-550558Y610082D01*
X-553180Y604538D01*
X-556333Y599277D01*
X-559987Y594350D01*
X-564106Y589806D01*
X-568650Y585687D01*
X-573577Y582033D01*
X-578838Y578880D01*
X-584382Y576258D01*
X-590157Y574191D01*
X-596107Y572701D01*
X-602174Y571801D01*
X-608300Y571500D01*
X-733300Y571500D01*
X-739426Y571801D01*
X-745493Y572701D01*
X-751443Y574191D01*
X-757218Y576258D01*
X-762762Y578880D01*
X-768023Y582033D01*
X-772950Y585687D01*
X-777494Y589806D01*
X-781613Y594350D01*
X-785267Y599277D01*
X-788420Y604538D01*
X-791042Y610082D01*
X-793109Y615857D01*
X-794599Y621807D01*
X-795499Y627874D01*
X-795800Y634000D01*
X-795800Y1384000D01*
X-795499Y1390126D01*
X-794599Y1396193D01*
X-793109Y1402143D01*
X-791042Y1407918D01*
X-788420Y1413462D01*
X-785267Y1418723D01*
X-781613Y1423650D01*
X-777494Y1428194D01*
X-772950Y1432313D01*
X-768023Y1435967D01*
X-762762Y1439120D01*
X-757218Y1441742D01*
X-751443Y1443809D01*
X-745493Y1445299D01*
X-739426Y1446199D01*
X-733300Y1446500D01*
X-608300Y1446500D01*
X-602174Y1446199D01*
X-602174Y1446199D01*
G37*
D13*
G04 #@! TD*
G04 #@! TO.P,U1,19*
G04 #@! TO.N,/I2C_SCL*
X-670800Y1009000D03*
D11*
G04 #@! TO.N,/I2C_SDA*
G04 #@! TO.C,U1*
G36*
X-102174Y1446199D02*
X-96107Y1445299D01*
X-90157Y1443809D01*
X-84382Y1441742D01*
X-78838Y1439120D01*
X-73577Y1435967D01*
X-68650Y1432313D01*
X-64106Y1428194D01*
X-59987Y1423650D01*
X-56333Y1418723D01*
X-53180Y1413462D01*
X-50558Y1407918D01*
X-48491Y1402143D01*
X-47001Y1396193D01*
X-46101Y1390126D01*
X-45800Y1384000D01*
X-45800Y634000D01*
X-46101Y627874D01*
X-47001Y621807D01*
X-48491Y615857D01*
X-50558Y610082D01*
X-53180Y604538D01*
X-56333Y599277D01*
X-59987Y594350D01*
X-64106Y589806D01*
X-68650Y585687D01*
X-73577Y582033D01*
X-78838Y578880D01*
X-84382Y576258D01*
X-90157Y574191D01*
X-96107Y572701D01*
X-102174Y571801D01*
X-108300Y571500D01*
X-233300Y571500D01*
X-239426Y571801D01*
X-245493Y572701D01*
X-251443Y574191D01*
X-257218Y576258D01*
X-262762Y578880D01*
X-268023Y582033D01*
X-272950Y585687D01*
X-277494Y589806D01*
X-281613Y594350D01*
X-285267Y599277D01*
X-288420Y604538D01*
X-291042Y610082D01*
X-293109Y615857D01*
X-294599Y621807D01*
X-295499Y627874D01*
X-295800Y634000D01*
X-295800Y1384000D01*
X-295499Y1390126D01*
X-294599Y1396193D01*
X-293109Y1402143D01*
X-291042Y1407918D01*
X-288420Y1413462D01*
X-285267Y1418723D01*
X-281613Y1423650D01*
X-277494Y1428194D01*
X-272950Y1432313D01*
X-268023Y1435967D01*
X-262762Y1439120D01*
X-257218Y1441742D01*
X-251443Y1443809D01*
X-245493Y1445299D01*
X-239426Y1446199D01*
X-233300Y1446500D01*
X-108300Y1446500D01*
X-102174Y1446199D01*
X-102174Y1446199D01*
G37*
D13*
G04 #@! TD*
G04 #@! TO.P,U1,20*
G04 #@! TO.N,/I2C_SDA*
X-170800Y1009000D03*
D11*
G04 #@! TO.N,/HD-*
G04 #@! TO.C,U1*
G36*
X397826Y1446199D02*
X403893Y1445299D01*
X409843Y1443809D01*
X415618Y1441742D01*
X421162Y1439120D01*
X426423Y1435967D01*
X431350Y1432313D01*
X435894Y1428194D01*
X440013Y1423650D01*
X443667Y1418723D01*
X446820Y1413462D01*
X449442Y1407918D01*
X451509Y1402143D01*
X452999Y1396193D01*
X453899Y1390126D01*
X454200Y1384000D01*
X454200Y634000D01*
X453899Y627874D01*
X452999Y621807D01*
X451509Y615857D01*
X449442Y610082D01*
X446820Y604538D01*
X443667Y599277D01*
X440013Y594350D01*
X435894Y589806D01*
X431350Y585687D01*
X426423Y582033D01*
X421162Y578880D01*
X415618Y576258D01*
X409843Y574191D01*
X403893Y572701D01*
X397826Y571801D01*
X391700Y571500D01*
X266700Y571500D01*
X260574Y571801D01*
X254507Y572701D01*
X248557Y574191D01*
X242782Y576258D01*
X237238Y578880D01*
X231977Y582033D01*
X227050Y585687D01*
X222506Y589806D01*
X218387Y594350D01*
X214733Y599277D01*
X211580Y604538D01*
X208958Y610082D01*
X206891Y615857D01*
X205401Y621807D01*
X204501Y627874D01*
X204200Y634000D01*
X204200Y1384000D01*
X204501Y1390126D01*
X205401Y1396193D01*
X206891Y1402143D01*
X208958Y1407918D01*
X211580Y1413462D01*
X214733Y1418723D01*
X218387Y1423650D01*
X222506Y1428194D01*
X227050Y1432313D01*
X231977Y1435967D01*
X237238Y1439120D01*
X242782Y1441742D01*
X248557Y1443809D01*
X254507Y1445299D01*
X260574Y1446199D01*
X266700Y1446500D01*
X391700Y1446500D01*
X397826Y1446199D01*
X397826Y1446199D01*
G37*
D13*
G04 #@! TD*
G04 #@! TO.P,U1,21*
G04 #@! TO.N,/HD-*
X329200Y1009000D03*
D11*
G04 #@! TO.N,/HD+*
G04 #@! TO.C,U1*
G36*
X897826Y1446199D02*
X903893Y1445299D01*
X909843Y1443809D01*
X915618Y1441742D01*
X921162Y1439120D01*
X926423Y1435967D01*
X931350Y1432313D01*
X935894Y1428194D01*
X940013Y1423650D01*
X943667Y1418723D01*
X946820Y1413462D01*
X949442Y1407918D01*
X951509Y1402143D01*
X952999Y1396193D01*
X953899Y1390126D01*
X954200Y1384000D01*
X954200Y634000D01*
X953899Y627874D01*
X952999Y621807D01*
X951509Y615857D01*
X949442Y610082D01*
X946820Y604538D01*
X943667Y599277D01*
X940013Y594350D01*
X935894Y589806D01*
X931350Y585687D01*
X926423Y582033D01*
X921162Y578880D01*
X915618Y576258D01*
X909843Y574191D01*
X903893Y572701D01*
X897826Y571801D01*
X891700Y571500D01*
X766700Y571500D01*
X760574Y571801D01*
X754507Y572701D01*
X748557Y574191D01*
X742782Y576258D01*
X737238Y578880D01*
X731977Y582033D01*
X727050Y585687D01*
X722506Y589806D01*
X718387Y594350D01*
X714733Y599277D01*
X711580Y604538D01*
X708958Y610082D01*
X706891Y615857D01*
X705401Y621807D01*
X704501Y627874D01*
X704200Y634000D01*
X704200Y1384000D01*
X704501Y1390126D01*
X705401Y1396193D01*
X706891Y1402143D01*
X708958Y1407918D01*
X711580Y1413462D01*
X714733Y1418723D01*
X718387Y1423650D01*
X722506Y1428194D01*
X727050Y1432313D01*
X731977Y1435967D01*
X737238Y1439120D01*
X742782Y1441742D01*
X748557Y1443809D01*
X754507Y1445299D01*
X760574Y1446199D01*
X766700Y1446500D01*
X891700Y1446500D01*
X897826Y1446199D01*
X897826Y1446199D01*
G37*
D13*
G04 #@! TD*
G04 #@! TO.P,U1,22*
G04 #@! TO.N,/HD+*
X829200Y1009000D03*
D11*
G04 #@! TO.N,/SWDIO*
G04 #@! TO.C,U1*
G36*
X1397826Y1446199D02*
X1403893Y1445299D01*
X1409843Y1443809D01*
X1415618Y1441742D01*
X1421162Y1439120D01*
X1426423Y1435967D01*
X1431350Y1432313D01*
X1435894Y1428194D01*
X1440013Y1423650D01*
X1443667Y1418723D01*
X1446820Y1413462D01*
X1449442Y1407918D01*
X1451509Y1402143D01*
X1452999Y1396193D01*
X1453899Y1390126D01*
X1454200Y1384000D01*
X1454200Y634000D01*
X1453899Y627874D01*
X1452999Y621807D01*
X1451509Y615857D01*
X1449442Y610082D01*
X1446820Y604538D01*
X1443667Y599277D01*
X1440013Y594350D01*
X1435894Y589806D01*
X1431350Y585687D01*
X1426423Y582033D01*
X1421162Y578880D01*
X1415618Y576258D01*
X1409843Y574191D01*
X1403893Y572701D01*
X1397826Y571801D01*
X1391700Y571500D01*
X1266700Y571500D01*
X1260574Y571801D01*
X1254507Y572701D01*
X1248557Y574191D01*
X1242782Y576258D01*
X1237238Y578880D01*
X1231977Y582033D01*
X1227050Y585687D01*
X1222506Y589806D01*
X1218387Y594350D01*
X1214733Y599277D01*
X1211580Y604538D01*
X1208958Y610082D01*
X1206891Y615857D01*
X1205401Y621807D01*
X1204501Y627874D01*
X1204200Y634000D01*
X1204200Y1384000D01*
X1204501Y1390126D01*
X1205401Y1396193D01*
X1206891Y1402143D01*
X1208958Y1407918D01*
X1211580Y1413462D01*
X1214733Y1418723D01*
X1218387Y1423650D01*
X1222506Y1428194D01*
X1227050Y1432313D01*
X1231977Y1435967D01*
X1237238Y1439120D01*
X1242782Y1441742D01*
X1248557Y1443809D01*
X1254507Y1445299D01*
X1260574Y1446199D01*
X1266700Y1446500D01*
X1391700Y1446500D01*
X1397826Y1446199D01*
X1397826Y1446199D01*
G37*
D13*
G04 #@! TD*
G04 #@! TO.P,U1,23*
G04 #@! TO.N,/SWDIO*
X1329200Y1009000D03*
D11*
G04 #@! TO.N,/SWCLK*
G04 #@! TO.C,U1*
G36*
X1897826Y1446199D02*
X1903893Y1445299D01*
X1909843Y1443809D01*
X1915618Y1441742D01*
X1921162Y1439120D01*
X1926423Y1435967D01*
X1931350Y1432313D01*
X1935894Y1428194D01*
X1940013Y1423650D01*
X1943667Y1418723D01*
X1946820Y1413462D01*
X1949442Y1407918D01*
X1951509Y1402143D01*
X1952999Y1396193D01*
X1953899Y1390126D01*
X1954200Y1384000D01*
X1954200Y634000D01*
X1953899Y627874D01*
X1952999Y621807D01*
X1951509Y615857D01*
X1949442Y610082D01*
X1946820Y604538D01*
X1943667Y599277D01*
X1940013Y594350D01*
X1935894Y589806D01*
X1931350Y585687D01*
X1926423Y582033D01*
X1921162Y578880D01*
X1915618Y576258D01*
X1909843Y574191D01*
X1903893Y572701D01*
X1897826Y571801D01*
X1891700Y571500D01*
X1766700Y571500D01*
X1760574Y571801D01*
X1754507Y572701D01*
X1748557Y574191D01*
X1742782Y576258D01*
X1737238Y578880D01*
X1731977Y582033D01*
X1727050Y585687D01*
X1722506Y589806D01*
X1718387Y594350D01*
X1714733Y599277D01*
X1711580Y604538D01*
X1708958Y610082D01*
X1706891Y615857D01*
X1705401Y621807D01*
X1704501Y627874D01*
X1704200Y634000D01*
X1704200Y1384000D01*
X1704501Y1390126D01*
X1705401Y1396193D01*
X1706891Y1402143D01*
X1708958Y1407918D01*
X1711580Y1413462D01*
X1714733Y1418723D01*
X1718387Y1423650D01*
X1722506Y1428194D01*
X1727050Y1432313D01*
X1731977Y1435967D01*
X1737238Y1439120D01*
X1742782Y1441742D01*
X1748557Y1443809D01*
X1754507Y1445299D01*
X1760574Y1446199D01*
X1766700Y1446500D01*
X1891700Y1446500D01*
X1897826Y1446199D01*
X1897826Y1446199D01*
G37*
D13*
G04 #@! TD*
G04 #@! TO.P,U1,24*
G04 #@! TO.N,/SWCLK*
X1829200Y1009000D03*
D11*
G04 #@! TO.N,/Button_reset*
G04 #@! TO.C,U1*
G36*
X2897826Y1821199D02*
X2903893Y1820299D01*
X2909843Y1818809D01*
X2915618Y1816742D01*
X2921162Y1814120D01*
X2926423Y1810967D01*
X2931350Y1807313D01*
X2935894Y1803194D01*
X2940013Y1798650D01*
X2943667Y1793723D01*
X2946820Y1788462D01*
X2949442Y1782918D01*
X2951509Y1777143D01*
X2952999Y1771193D01*
X2953899Y1765126D01*
X2954200Y1759000D01*
X2954200Y1634000D01*
X2953899Y1627874D01*
X2952999Y1621807D01*
X2951509Y1615857D01*
X2949442Y1610082D01*
X2946820Y1604538D01*
X2943667Y1599277D01*
X2940013Y1594350D01*
X2935894Y1589806D01*
X2931350Y1585687D01*
X2926423Y1582033D01*
X2921162Y1578880D01*
X2915618Y1576258D01*
X2909843Y1574191D01*
X2903893Y1572701D01*
X2897826Y1571801D01*
X2891700Y1571500D01*
X2141700Y1571500D01*
X2135574Y1571801D01*
X2129507Y1572701D01*
X2123557Y1574191D01*
X2117782Y1576258D01*
X2112238Y1578880D01*
X2106977Y1582033D01*
X2102050Y1585687D01*
X2097506Y1589806D01*
X2093387Y1594350D01*
X2089733Y1599277D01*
X2086580Y1604538D01*
X2083958Y1610082D01*
X2081891Y1615857D01*
X2080401Y1621807D01*
X2079501Y1627874D01*
X2079200Y1634000D01*
X2079200Y1759000D01*
X2079501Y1765126D01*
X2080401Y1771193D01*
X2081891Y1777143D01*
X2083958Y1782918D01*
X2086580Y1788462D01*
X2089733Y1793723D01*
X2093387Y1798650D01*
X2097506Y1803194D01*
X2102050Y1807313D01*
X2106977Y1810967D01*
X2112238Y1814120D01*
X2117782Y1816742D01*
X2123557Y1818809D01*
X2129507Y1820299D01*
X2135574Y1821199D01*
X2141700Y1821500D01*
X2891700Y1821500D01*
X2897826Y1821199D01*
X2897826Y1821199D01*
G37*
D13*
G04 #@! TD*
G04 #@! TO.P,U1,25*
G04 #@! TO.N,/Button_reset*
X2516700Y1696500D03*
D11*
G04 #@! TO.N,Net-(U1-Pad26)*
G04 #@! TO.C,U1*
G36*
X2897826Y2321199D02*
X2903893Y2320299D01*
X2909843Y2318809D01*
X2915618Y2316742D01*
X2921162Y2314120D01*
X2926423Y2310967D01*
X2931350Y2307313D01*
X2935894Y2303194D01*
X2940013Y2298650D01*
X2943667Y2293723D01*
X2946820Y2288462D01*
X2949442Y2282918D01*
X2951509Y2277143D01*
X2952999Y2271193D01*
X2953899Y2265126D01*
X2954200Y2259000D01*
X2954200Y2134000D01*
X2953899Y2127874D01*
X2952999Y2121807D01*
X2951509Y2115857D01*
X2949442Y2110082D01*
X2946820Y2104538D01*
X2943667Y2099277D01*
X2940013Y2094350D01*
X2935894Y2089806D01*
X2931350Y2085687D01*
X2926423Y2082033D01*
X2921162Y2078880D01*
X2915618Y2076258D01*
X2909843Y2074191D01*
X2903893Y2072701D01*
X2897826Y2071801D01*
X2891700Y2071500D01*
X2141700Y2071500D01*
X2135574Y2071801D01*
X2129507Y2072701D01*
X2123557Y2074191D01*
X2117782Y2076258D01*
X2112238Y2078880D01*
X2106977Y2082033D01*
X2102050Y2085687D01*
X2097506Y2089806D01*
X2093387Y2094350D01*
X2089733Y2099277D01*
X2086580Y2104538D01*
X2083958Y2110082D01*
X2081891Y2115857D01*
X2080401Y2121807D01*
X2079501Y2127874D01*
X2079200Y2134000D01*
X2079200Y2259000D01*
X2079501Y2265126D01*
X2080401Y2271193D01*
X2081891Y2277143D01*
X2083958Y2282918D01*
X2086580Y2288462D01*
X2089733Y2293723D01*
X2093387Y2298650D01*
X2097506Y2303194D01*
X2102050Y2307313D01*
X2106977Y2310967D01*
X2112238Y2314120D01*
X2117782Y2316742D01*
X2123557Y2318809D01*
X2129507Y2320299D01*
X2135574Y2321199D01*
X2141700Y2321500D01*
X2891700Y2321500D01*
X2897826Y2321199D01*
X2897826Y2321199D01*
G37*
D13*
G04 #@! TD*
G04 #@! TO.P,U1,26*
G04 #@! TO.N,Net-(U1-Pad26)*
X2516700Y2196500D03*
D11*
G04 #@! TO.N,Net-(U1-Pad27)*
G04 #@! TO.C,U1*
G36*
X2897826Y2821199D02*
X2903893Y2820299D01*
X2909843Y2818809D01*
X2915618Y2816742D01*
X2921162Y2814120D01*
X2926423Y2810967D01*
X2931350Y2807313D01*
X2935894Y2803194D01*
X2940013Y2798650D01*
X2943667Y2793723D01*
X2946820Y2788462D01*
X2949442Y2782918D01*
X2951509Y2777143D01*
X2952999Y2771193D01*
X2953899Y2765126D01*
X2954200Y2759000D01*
X2954200Y2634000D01*
X2953899Y2627874D01*
X2952999Y2621807D01*
X2951509Y2615857D01*
X2949442Y2610082D01*
X2946820Y2604538D01*
X2943667Y2599277D01*
X2940013Y2594350D01*
X2935894Y2589806D01*
X2931350Y2585687D01*
X2926423Y2582033D01*
X2921162Y2578880D01*
X2915618Y2576258D01*
X2909843Y2574191D01*
X2903893Y2572701D01*
X2897826Y2571801D01*
X2891700Y2571500D01*
X2141700Y2571500D01*
X2135574Y2571801D01*
X2129507Y2572701D01*
X2123557Y2574191D01*
X2117782Y2576258D01*
X2112238Y2578880D01*
X2106977Y2582033D01*
X2102050Y2585687D01*
X2097506Y2589806D01*
X2093387Y2594350D01*
X2089733Y2599277D01*
X2086580Y2604538D01*
X2083958Y2610082D01*
X2081891Y2615857D01*
X2080401Y2621807D01*
X2079501Y2627874D01*
X2079200Y2634000D01*
X2079200Y2759000D01*
X2079501Y2765126D01*
X2080401Y2771193D01*
X2081891Y2777143D01*
X2083958Y2782918D01*
X2086580Y2788462D01*
X2089733Y2793723D01*
X2093387Y2798650D01*
X2097506Y2803194D01*
X2102050Y2807313D01*
X2106977Y2810967D01*
X2112238Y2814120D01*
X2117782Y2816742D01*
X2123557Y2818809D01*
X2129507Y2820299D01*
X2135574Y2821199D01*
X2141700Y2821500D01*
X2891700Y2821500D01*
X2897826Y2821199D01*
X2897826Y2821199D01*
G37*
D13*
G04 #@! TD*
G04 #@! TO.P,U1,27*
G04 #@! TO.N,Net-(U1-Pad27)*
X2516700Y2696500D03*
D11*
G04 #@! TO.N,Net-(U1-Pad28)*
G04 #@! TO.C,U1*
G36*
X2897826Y3321199D02*
X2903893Y3320299D01*
X2909843Y3318809D01*
X2915618Y3316742D01*
X2921162Y3314120D01*
X2926423Y3310967D01*
X2931350Y3307313D01*
X2935894Y3303194D01*
X2940013Y3298650D01*
X2943667Y3293723D01*
X2946820Y3288462D01*
X2949442Y3282918D01*
X2951509Y3277143D01*
X2952999Y3271193D01*
X2953899Y3265126D01*
X2954200Y3259000D01*
X2954200Y3134000D01*
X2953899Y3127874D01*
X2952999Y3121807D01*
X2951509Y3115857D01*
X2949442Y3110082D01*
X2946820Y3104538D01*
X2943667Y3099277D01*
X2940013Y3094350D01*
X2935894Y3089806D01*
X2931350Y3085687D01*
X2926423Y3082033D01*
X2921162Y3078880D01*
X2915618Y3076258D01*
X2909843Y3074191D01*
X2903893Y3072701D01*
X2897826Y3071801D01*
X2891700Y3071500D01*
X2141700Y3071500D01*
X2135574Y3071801D01*
X2129507Y3072701D01*
X2123557Y3074191D01*
X2117782Y3076258D01*
X2112238Y3078880D01*
X2106977Y3082033D01*
X2102050Y3085687D01*
X2097506Y3089806D01*
X2093387Y3094350D01*
X2089733Y3099277D01*
X2086580Y3104538D01*
X2083958Y3110082D01*
X2081891Y3115857D01*
X2080401Y3121807D01*
X2079501Y3127874D01*
X2079200Y3134000D01*
X2079200Y3259000D01*
X2079501Y3265126D01*
X2080401Y3271193D01*
X2081891Y3277143D01*
X2083958Y3282918D01*
X2086580Y3288462D01*
X2089733Y3293723D01*
X2093387Y3298650D01*
X2097506Y3303194D01*
X2102050Y3307313D01*
X2106977Y3310967D01*
X2112238Y3314120D01*
X2117782Y3316742D01*
X2123557Y3318809D01*
X2129507Y3320299D01*
X2135574Y3321199D01*
X2141700Y3321500D01*
X2891700Y3321500D01*
X2897826Y3321199D01*
X2897826Y3321199D01*
G37*
D13*
G04 #@! TD*
G04 #@! TO.P,U1,28*
G04 #@! TO.N,Net-(U1-Pad28)*
X2516700Y3196500D03*
D11*
G04 #@! TO.N,Net-(U1-Pad29)*
G04 #@! TO.C,U1*
G36*
X2897826Y3821199D02*
X2903893Y3820299D01*
X2909843Y3818809D01*
X2915618Y3816742D01*
X2921162Y3814120D01*
X2926423Y3810967D01*
X2931350Y3807313D01*
X2935894Y3803194D01*
X2940013Y3798650D01*
X2943667Y3793723D01*
X2946820Y3788462D01*
X2949442Y3782918D01*
X2951509Y3777143D01*
X2952999Y3771193D01*
X2953899Y3765126D01*
X2954200Y3759000D01*
X2954200Y3634000D01*
X2953899Y3627874D01*
X2952999Y3621807D01*
X2951509Y3615857D01*
X2949442Y3610082D01*
X2946820Y3604538D01*
X2943667Y3599277D01*
X2940013Y3594350D01*
X2935894Y3589806D01*
X2931350Y3585687D01*
X2926423Y3582033D01*
X2921162Y3578880D01*
X2915618Y3576258D01*
X2909843Y3574191D01*
X2903893Y3572701D01*
X2897826Y3571801D01*
X2891700Y3571500D01*
X2141700Y3571500D01*
X2135574Y3571801D01*
X2129507Y3572701D01*
X2123557Y3574191D01*
X2117782Y3576258D01*
X2112238Y3578880D01*
X2106977Y3582033D01*
X2102050Y3585687D01*
X2097506Y3589806D01*
X2093387Y3594350D01*
X2089733Y3599277D01*
X2086580Y3604538D01*
X2083958Y3610082D01*
X2081891Y3615857D01*
X2080401Y3621807D01*
X2079501Y3627874D01*
X2079200Y3634000D01*
X2079200Y3759000D01*
X2079501Y3765126D01*
X2080401Y3771193D01*
X2081891Y3777143D01*
X2083958Y3782918D01*
X2086580Y3788462D01*
X2089733Y3793723D01*
X2093387Y3798650D01*
X2097506Y3803194D01*
X2102050Y3807313D01*
X2106977Y3810967D01*
X2112238Y3814120D01*
X2117782Y3816742D01*
X2123557Y3818809D01*
X2129507Y3820299D01*
X2135574Y3821199D01*
X2141700Y3821500D01*
X2891700Y3821500D01*
X2897826Y3821199D01*
X2897826Y3821199D01*
G37*
D13*
G04 #@! TD*
G04 #@! TO.P,U1,29*
G04 #@! TO.N,Net-(U1-Pad29)*
X2516700Y3696500D03*
D11*
G04 #@! TO.N,Net-(U1-Pad30)*
G04 #@! TO.C,U1*
G36*
X2897826Y4321199D02*
X2903893Y4320299D01*
X2909843Y4318809D01*
X2915618Y4316742D01*
X2921162Y4314120D01*
X2926423Y4310967D01*
X2931350Y4307313D01*
X2935894Y4303194D01*
X2940013Y4298650D01*
X2943667Y4293723D01*
X2946820Y4288462D01*
X2949442Y4282918D01*
X2951509Y4277143D01*
X2952999Y4271193D01*
X2953899Y4265126D01*
X2954200Y4259000D01*
X2954200Y4134000D01*
X2953899Y4127874D01*
X2952999Y4121807D01*
X2951509Y4115857D01*
X2949442Y4110082D01*
X2946820Y4104538D01*
X2943667Y4099277D01*
X2940013Y4094350D01*
X2935894Y4089806D01*
X2931350Y4085687D01*
X2926423Y4082033D01*
X2921162Y4078880D01*
X2915618Y4076258D01*
X2909843Y4074191D01*
X2903893Y4072701D01*
X2897826Y4071801D01*
X2891700Y4071500D01*
X2141700Y4071500D01*
X2135574Y4071801D01*
X2129507Y4072701D01*
X2123557Y4074191D01*
X2117782Y4076258D01*
X2112238Y4078880D01*
X2106977Y4082033D01*
X2102050Y4085687D01*
X2097506Y4089806D01*
X2093387Y4094350D01*
X2089733Y4099277D01*
X2086580Y4104538D01*
X2083958Y4110082D01*
X2081891Y4115857D01*
X2080401Y4121807D01*
X2079501Y4127874D01*
X2079200Y4134000D01*
X2079200Y4259000D01*
X2079501Y4265126D01*
X2080401Y4271193D01*
X2081891Y4277143D01*
X2083958Y4282918D01*
X2086580Y4288462D01*
X2089733Y4293723D01*
X2093387Y4298650D01*
X2097506Y4303194D01*
X2102050Y4307313D01*
X2106977Y4310967D01*
X2112238Y4314120D01*
X2117782Y4316742D01*
X2123557Y4318809D01*
X2129507Y4320299D01*
X2135574Y4321199D01*
X2141700Y4321500D01*
X2891700Y4321500D01*
X2897826Y4321199D01*
X2897826Y4321199D01*
G37*
D13*
G04 #@! TD*
G04 #@! TO.P,U1,30*
G04 #@! TO.N,Net-(U1-Pad30)*
X2516700Y4196500D03*
D11*
G04 #@! TO.N,+3V3*
G04 #@! TO.C,U1*
G36*
X2897826Y4821199D02*
X2903893Y4820299D01*
X2909843Y4818809D01*
X2915618Y4816742D01*
X2921162Y4814120D01*
X2926423Y4810967D01*
X2931350Y4807313D01*
X2935894Y4803194D01*
X2940013Y4798650D01*
X2943667Y4793723D01*
X2946820Y4788462D01*
X2949442Y4782918D01*
X2951509Y4777143D01*
X2952999Y4771193D01*
X2953899Y4765126D01*
X2954200Y4759000D01*
X2954200Y4634000D01*
X2953899Y4627874D01*
X2952999Y4621807D01*
X2951509Y4615857D01*
X2949442Y4610082D01*
X2946820Y4604538D01*
X2943667Y4599277D01*
X2940013Y4594350D01*
X2935894Y4589806D01*
X2931350Y4585687D01*
X2926423Y4582033D01*
X2921162Y4578880D01*
X2915618Y4576258D01*
X2909843Y4574191D01*
X2903893Y4572701D01*
X2897826Y4571801D01*
X2891700Y4571500D01*
X2141700Y4571500D01*
X2135574Y4571801D01*
X2129507Y4572701D01*
X2123557Y4574191D01*
X2117782Y4576258D01*
X2112238Y4578880D01*
X2106977Y4582033D01*
X2102050Y4585687D01*
X2097506Y4589806D01*
X2093387Y4594350D01*
X2089733Y4599277D01*
X2086580Y4604538D01*
X2083958Y4610082D01*
X2081891Y4615857D01*
X2080401Y4621807D01*
X2079501Y4627874D01*
X2079200Y4634000D01*
X2079200Y4759000D01*
X2079501Y4765126D01*
X2080401Y4771193D01*
X2081891Y4777143D01*
X2083958Y4782918D01*
X2086580Y4788462D01*
X2089733Y4793723D01*
X2093387Y4798650D01*
X2097506Y4803194D01*
X2102050Y4807313D01*
X2106977Y4810967D01*
X2112238Y4814120D01*
X2117782Y4816742D01*
X2123557Y4818809D01*
X2129507Y4820299D01*
X2135574Y4821199D01*
X2141700Y4821500D01*
X2891700Y4821500D01*
X2897826Y4821199D01*
X2897826Y4821199D01*
G37*
D13*
G04 #@! TD*
G04 #@! TO.P,U1,31*
G04 #@! TO.N,+3V3*
X2516700Y4696500D03*
D11*
G04 #@! TO.N,GND*
G04 #@! TO.C,U1*
G36*
X2897826Y5321199D02*
X2903893Y5320299D01*
X2909843Y5318809D01*
X2915618Y5316742D01*
X2921162Y5314120D01*
X2926423Y5310967D01*
X2931350Y5307313D01*
X2935894Y5303194D01*
X2940013Y5298650D01*
X2943667Y5293723D01*
X2946820Y5288462D01*
X2949442Y5282918D01*
X2951509Y5277143D01*
X2952999Y5271193D01*
X2953899Y5265126D01*
X2954200Y5259000D01*
X2954200Y5134000D01*
X2953899Y5127874D01*
X2952999Y5121807D01*
X2951509Y5115857D01*
X2949442Y5110082D01*
X2946820Y5104538D01*
X2943667Y5099277D01*
X2940013Y5094350D01*
X2935894Y5089806D01*
X2931350Y5085687D01*
X2926423Y5082033D01*
X2921162Y5078880D01*
X2915618Y5076258D01*
X2909843Y5074191D01*
X2903893Y5072701D01*
X2897826Y5071801D01*
X2891700Y5071500D01*
X2141700Y5071500D01*
X2135574Y5071801D01*
X2129507Y5072701D01*
X2123557Y5074191D01*
X2117782Y5076258D01*
X2112238Y5078880D01*
X2106977Y5082033D01*
X2102050Y5085687D01*
X2097506Y5089806D01*
X2093387Y5094350D01*
X2089733Y5099277D01*
X2086580Y5104538D01*
X2083958Y5110082D01*
X2081891Y5115857D01*
X2080401Y5121807D01*
X2079501Y5127874D01*
X2079200Y5134000D01*
X2079200Y5259000D01*
X2079501Y5265126D01*
X2080401Y5271193D01*
X2081891Y5277143D01*
X2083958Y5282918D01*
X2086580Y5288462D01*
X2089733Y5293723D01*
X2093387Y5298650D01*
X2097506Y5303194D01*
X2102050Y5307313D01*
X2106977Y5310967D01*
X2112238Y5314120D01*
X2117782Y5316742D01*
X2123557Y5318809D01*
X2129507Y5320299D01*
X2135574Y5321199D01*
X2141700Y5321500D01*
X2891700Y5321500D01*
X2897826Y5321199D01*
X2897826Y5321199D01*
G37*
D13*
G04 #@! TD*
G04 #@! TO.P,U1,32*
G04 #@! TO.N,GND*
X2516700Y5196500D03*
D14*
G04 #@! TO.P,J1,8*
G04 #@! TO.N,N/C*
X6999600Y2234450D03*
G04 #@! TO.P,J1,7*
X6999600Y-2266430D03*
D15*
G04 #@! TO.P,J1,6*
G04 #@! TO.N,Net-(C5-Pad1)*
X6999600Y-5715750D03*
G04 #@! TO.P,J1,5*
X6999600Y5683770D03*
G04 #@! TD*
D16*
G04 #@! TO.P,L2,2*
G04 #@! TO.N,Net-(L2-Pad2)*
X-8775000Y-3043500D03*
G04 #@! TO.P,L2,1*
G04 #@! TO.N,Net-(L2-Pad1)*
X-8775000Y-5743500D03*
G04 #@! TD*
D17*
G04 #@! TO.P,SJ1,1*
G04 #@! TO.N,Net-(SJ1-Pad1)*
X-8320800Y861500D03*
D11*
G04 #@! TD*
G04 #@! TO.N,Net-(SJ1-Pad1)*
G04 #@! TO.C,SJ1*
G36*
X-9070800Y361500D02*
X-9070800Y861500D01*
X-9070198Y861500D01*
X-9070198Y886034D01*
X-9065388Y934865D01*
X-9055816Y982990D01*
X-9041572Y1029945D01*
X-9022795Y1075278D01*
X-8999664Y1118551D01*
X-8972404Y1159350D01*
X-8941276Y1197279D01*
X-8906579Y1231976D01*
X-8868650Y1263104D01*
X-8827851Y1290364D01*
X-8784578Y1313495D01*
X-8739245Y1332272D01*
X-8692290Y1346516D01*
X-8644165Y1356088D01*
X-8595334Y1360898D01*
X-8570800Y1360898D01*
X-8570800Y1361500D01*
X-8070800Y1361500D01*
X-8070800Y1360898D01*
X-8046266Y1360898D01*
X-7997435Y1356088D01*
X-7949310Y1346516D01*
X-7902355Y1332272D01*
X-7857022Y1313495D01*
X-7813749Y1290364D01*
X-7772950Y1263104D01*
X-7735021Y1231976D01*
X-7700324Y1197279D01*
X-7669196Y1159350D01*
X-7641936Y1118551D01*
X-7618805Y1075278D01*
X-7600028Y1029945D01*
X-7585784Y982990D01*
X-7576212Y934865D01*
X-7571402Y886034D01*
X-7571402Y861500D01*
X-7570800Y861500D01*
X-7570800Y361500D01*
X-9070800Y361500D01*
X-9070800Y361500D01*
G37*
D17*
G04 #@! TO.P,SJ1,2*
G04 #@! TO.N,+3V3*
X-8320800Y-438500D03*
D11*
G04 #@! TD*
G04 #@! TO.N,+3V3*
G04 #@! TO.C,SJ1*
G36*
X-7571402Y-438500D02*
X-7571402Y-463034D01*
X-7576212Y-511865D01*
X-7585784Y-559990D01*
X-7600028Y-606945D01*
X-7618805Y-652278D01*
X-7641936Y-695551D01*
X-7669196Y-736350D01*
X-7700324Y-774279D01*
X-7735021Y-808976D01*
X-7772950Y-840104D01*
X-7813749Y-867364D01*
X-7857022Y-890495D01*
X-7902355Y-909272D01*
X-7949310Y-923516D01*
X-7997435Y-933088D01*
X-8046266Y-937898D01*
X-8070800Y-937898D01*
X-8070800Y-938500D01*
X-8570800Y-938500D01*
X-8570800Y-937898D01*
X-8595334Y-937898D01*
X-8644165Y-933088D01*
X-8692290Y-923516D01*
X-8739245Y-909272D01*
X-8784578Y-890495D01*
X-8827851Y-867364D01*
X-8868650Y-840104D01*
X-8906579Y-808976D01*
X-8941276Y-774279D01*
X-8972404Y-736350D01*
X-8999664Y-695551D01*
X-9022795Y-652278D01*
X-9041572Y-606945D01*
X-9055816Y-559990D01*
X-9065388Y-511865D01*
X-9070198Y-463034D01*
X-9070198Y-438500D01*
X-9070800Y-438500D01*
X-9070800Y61500D01*
X-7570800Y61500D01*
X-7570800Y-438500D01*
X-7571402Y-438500D01*
X-7571402Y-438500D01*
G37*
D18*
G04 #@! TO.P,U5,P5*
G04 #@! TO.N,GND*
X-4570800Y-538500D03*
G04 #@! TO.P,U5,P4*
G04 #@! TO.N,Net-(L2-Pad1)*
X-5070800Y-538500D03*
G04 #@! TO.P,U5,P3*
G04 #@! TO.N,Net-(L2-Pad2)*
X-5570800Y-538500D03*
G04 #@! TO.P,U5,P2*
G04 #@! TO.N,+3V3*
X-6070800Y-538500D03*
G04 #@! TO.P,U5,P1*
G04 #@! TO.N,Net-(SJ1-Pad1)*
X-6570800Y-538500D03*
G04 #@! TO.P,U5,P10*
G04 #@! TO.N,Net-(U1-Pad3)*
X-6570800Y2461500D03*
G04 #@! TO.P,U5,P9*
G04 #@! TO.N,Net-(U1-Pad12)*
X-6070800Y2461500D03*
G04 #@! TO.P,U5,P8*
G04 #@! TO.N,Net-(U1-Pad13)*
X-5570800Y2461500D03*
G04 #@! TO.P,U5,P7*
G04 #@! TO.N,Net-(U1-Pad11)*
X-5070800Y2461500D03*
G04 #@! TO.P,U5,P6*
G04 #@! TO.N,Net-(U1-Pad14)*
X-4570800Y2461500D03*
D19*
G04 #@! TO.P,U5,P11*
G04 #@! TO.N,GND*
X-5570800Y961500D03*
G04 #@! TD*
D20*
G04 #@! TO.P,U4,9*
G04 #@! TO.N,N/C*
X-3320800Y-5803500D03*
D21*
G04 #@! TO.P,U4,8*
G04 #@! TO.N,+5V*
X-4070800Y-4478500D03*
G04 #@! TO.P,U4,7*
G04 #@! TO.N,Net-(U4-Pad7)*
X-3570800Y-4478500D03*
G04 #@! TO.P,U4,6*
G04 #@! TO.N,/I2C_SCL*
X-3070800Y-4478500D03*
G04 #@! TO.P,U4,5*
G04 #@! TO.N,/I2C_SDA*
X-2570800Y-4478500D03*
G04 #@! TO.P,U4,1*
G04 #@! TO.N,Net-(U4-Pad1)*
X-4070800Y-7128500D03*
G04 #@! TO.P,U4,2*
G04 #@! TO.N,Net-(U4-Pad2)*
X-3570800Y-7128500D03*
G04 #@! TO.P,U4,3*
G04 #@! TO.N,Net-(U4-Pad3)*
X-3070800Y-7128500D03*
G04 #@! TO.P,U4,4*
G04 #@! TO.N,GND*
X-2570800Y-7128500D03*
G04 #@! TD*
D22*
G04 #@! TO.P,U2,1*
G04 #@! TO.N,Net-(R1-Pad2)*
X-70800Y-5003500D03*
G04 #@! TO.P,U2,2*
G04 #@! TO.N,GND*
X-70800Y-5953500D03*
G04 #@! TO.P,U2,3*
G04 #@! TO.N,Net-(R2-Pad2)*
X-70800Y-6903500D03*
G04 #@! TO.P,U2,4*
G04 #@! TO.N,/Button*
X2129200Y-6903500D03*
G04 #@! TO.P,U2,6*
G04 #@! TO.N,/Button_reset*
X2129200Y-5003500D03*
G04 #@! TO.P,U2,5*
G04 #@! TO.N,+5V*
X2129200Y-5953500D03*
G04 #@! TD*
D11*
G04 #@! TO.N,/Button*
G04 #@! TO.C,R5*
G36*
X4466158Y-6029210D02*
X4480476Y-6031334D01*
X4494517Y-6034851D01*
X4508146Y-6039728D01*
X4521231Y-6045917D01*
X4533647Y-6053358D01*
X4545273Y-6061981D01*
X4555998Y-6071702D01*
X4565719Y-6082427D01*
X4574342Y-6094053D01*
X4581783Y-6106469D01*
X4587972Y-6119554D01*
X4592849Y-6133183D01*
X4596366Y-6147224D01*
X4598490Y-6161542D01*
X4599200Y-6176000D01*
X4599200Y-6471000D01*
X4598490Y-6485458D01*
X4596366Y-6499776D01*
X4592849Y-6513817D01*
X4587972Y-6527446D01*
X4581783Y-6540531D01*
X4574342Y-6552947D01*
X4565719Y-6564573D01*
X4555998Y-6575298D01*
X4545273Y-6585019D01*
X4533647Y-6593642D01*
X4521231Y-6601083D01*
X4508146Y-6607272D01*
X4494517Y-6612149D01*
X4480476Y-6615666D01*
X4466158Y-6617790D01*
X4451700Y-6618500D01*
X4106700Y-6618500D01*
X4092242Y-6617790D01*
X4077924Y-6615666D01*
X4063883Y-6612149D01*
X4050254Y-6607272D01*
X4037169Y-6601083D01*
X4024753Y-6593642D01*
X4013127Y-6585019D01*
X4002402Y-6575298D01*
X3992681Y-6564573D01*
X3984058Y-6552947D01*
X3976617Y-6540531D01*
X3970428Y-6527446D01*
X3965551Y-6513817D01*
X3962034Y-6499776D01*
X3959910Y-6485458D01*
X3959200Y-6471000D01*
X3959200Y-6176000D01*
X3959910Y-6161542D01*
X3962034Y-6147224D01*
X3965551Y-6133183D01*
X3970428Y-6119554D01*
X3976617Y-6106469D01*
X3984058Y-6094053D01*
X3992681Y-6082427D01*
X4002402Y-6071702D01*
X4013127Y-6061981D01*
X4024753Y-6053358D01*
X4037169Y-6045917D01*
X4050254Y-6039728D01*
X4063883Y-6034851D01*
X4077924Y-6031334D01*
X4092242Y-6029210D01*
X4106700Y-6028500D01*
X4451700Y-6028500D01*
X4466158Y-6029210D01*
X4466158Y-6029210D01*
G37*
D23*
G04 #@! TD*
G04 #@! TO.P,R5,1*
G04 #@! TO.N,/Button*
X4279200Y-6323500D03*
D11*
G04 #@! TO.N,+5V*
G04 #@! TO.C,R5*
G36*
X4466158Y-5059210D02*
X4480476Y-5061334D01*
X4494517Y-5064851D01*
X4508146Y-5069728D01*
X4521231Y-5075917D01*
X4533647Y-5083358D01*
X4545273Y-5091981D01*
X4555998Y-5101702D01*
X4565719Y-5112427D01*
X4574342Y-5124053D01*
X4581783Y-5136469D01*
X4587972Y-5149554D01*
X4592849Y-5163183D01*
X4596366Y-5177224D01*
X4598490Y-5191542D01*
X4599200Y-5206000D01*
X4599200Y-5501000D01*
X4598490Y-5515458D01*
X4596366Y-5529776D01*
X4592849Y-5543817D01*
X4587972Y-5557446D01*
X4581783Y-5570531D01*
X4574342Y-5582947D01*
X4565719Y-5594573D01*
X4555998Y-5605298D01*
X4545273Y-5615019D01*
X4533647Y-5623642D01*
X4521231Y-5631083D01*
X4508146Y-5637272D01*
X4494517Y-5642149D01*
X4480476Y-5645666D01*
X4466158Y-5647790D01*
X4451700Y-5648500D01*
X4106700Y-5648500D01*
X4092242Y-5647790D01*
X4077924Y-5645666D01*
X4063883Y-5642149D01*
X4050254Y-5637272D01*
X4037169Y-5631083D01*
X4024753Y-5623642D01*
X4013127Y-5615019D01*
X4002402Y-5605298D01*
X3992681Y-5594573D01*
X3984058Y-5582947D01*
X3976617Y-5570531D01*
X3970428Y-5557446D01*
X3965551Y-5543817D01*
X3962034Y-5529776D01*
X3959910Y-5515458D01*
X3959200Y-5501000D01*
X3959200Y-5206000D01*
X3959910Y-5191542D01*
X3962034Y-5177224D01*
X3965551Y-5163183D01*
X3970428Y-5149554D01*
X3976617Y-5136469D01*
X3984058Y-5124053D01*
X3992681Y-5112427D01*
X4002402Y-5101702D01*
X4013127Y-5091981D01*
X4024753Y-5083358D01*
X4037169Y-5075917D01*
X4050254Y-5069728D01*
X4063883Y-5064851D01*
X4077924Y-5061334D01*
X4092242Y-5059210D01*
X4106700Y-5058500D01*
X4451700Y-5058500D01*
X4466158Y-5059210D01*
X4466158Y-5059210D01*
G37*
D23*
G04 #@! TD*
G04 #@! TO.P,R5,2*
G04 #@! TO.N,+5V*
X4279200Y-5353500D03*
D24*
G04 #@! TO.P,TP2,1*
G04 #@! TO.N,/HD+*
X5700000Y1326500D03*
G04 #@! TD*
D25*
G04 #@! TO.P,L1,4*
G04 #@! TO.N,+5V*
X2519200Y-2788500D03*
G04 #@! TO.P,L1,3*
X3229200Y-2788500D03*
G04 #@! TO.P,L1,2*
G04 #@! TO.N,GND*
X3239200Y-3708500D03*
G04 #@! TO.P,L1,1*
G04 #@! TO.N,+3V3*
X2519200Y-3708500D03*
D26*
G04 #@! TO.P,L1,5*
G04 #@! TO.N,Net-(L1-Pad5)*
X2879200Y-3238500D03*
D11*
G04 #@! TD*
G04 #@! TO.N,Net-(L1-Pad5)*
G04 #@! TO.C,L1*
G36*
X2879200Y-3648622D02*
X2469078Y-3238500D01*
X2879200Y-2828378D01*
X3289322Y-3238500D01*
X2879200Y-3648622D01*
X2879200Y-3648622D01*
G37*
D27*
G04 #@! TO.P,FID1,~*
G04 #@! TO.N,N/C*
X-11170800Y6996500D03*
G04 #@! TD*
G04 #@! TO.P,FID3,~*
G04 #@! TO.N,N/C*
X8700000Y-4303500D03*
G04 #@! TD*
D11*
G04 #@! TO.N,GND*
G04 #@! TO.C,C1*
G36*
X5416158Y-3744210D02*
X5430476Y-3746334D01*
X5444517Y-3749851D01*
X5458146Y-3754728D01*
X5471231Y-3760917D01*
X5483647Y-3768358D01*
X5495273Y-3776981D01*
X5505998Y-3786702D01*
X5515719Y-3797427D01*
X5524342Y-3809053D01*
X5531783Y-3821469D01*
X5537972Y-3834554D01*
X5542849Y-3848183D01*
X5546366Y-3862224D01*
X5548490Y-3876542D01*
X5549200Y-3891000D01*
X5549200Y-4186000D01*
X5548490Y-4200458D01*
X5546366Y-4214776D01*
X5542849Y-4228817D01*
X5537972Y-4242446D01*
X5531783Y-4255531D01*
X5524342Y-4267947D01*
X5515719Y-4279573D01*
X5505998Y-4290298D01*
X5495273Y-4300019D01*
X5483647Y-4308642D01*
X5471231Y-4316083D01*
X5458146Y-4322272D01*
X5444517Y-4327149D01*
X5430476Y-4330666D01*
X5416158Y-4332790D01*
X5401700Y-4333500D01*
X5056700Y-4333500D01*
X5042242Y-4332790D01*
X5027924Y-4330666D01*
X5013883Y-4327149D01*
X5000254Y-4322272D01*
X4987169Y-4316083D01*
X4974753Y-4308642D01*
X4963127Y-4300019D01*
X4952402Y-4290298D01*
X4942681Y-4279573D01*
X4934058Y-4267947D01*
X4926617Y-4255531D01*
X4920428Y-4242446D01*
X4915551Y-4228817D01*
X4912034Y-4214776D01*
X4909910Y-4200458D01*
X4909200Y-4186000D01*
X4909200Y-3891000D01*
X4909910Y-3876542D01*
X4912034Y-3862224D01*
X4915551Y-3848183D01*
X4920428Y-3834554D01*
X4926617Y-3821469D01*
X4934058Y-3809053D01*
X4942681Y-3797427D01*
X4952402Y-3786702D01*
X4963127Y-3776981D01*
X4974753Y-3768358D01*
X4987169Y-3760917D01*
X5000254Y-3754728D01*
X5013883Y-3749851D01*
X5027924Y-3746334D01*
X5042242Y-3744210D01*
X5056700Y-3743500D01*
X5401700Y-3743500D01*
X5416158Y-3744210D01*
X5416158Y-3744210D01*
G37*
D23*
G04 #@! TD*
G04 #@! TO.P,C1,1*
G04 #@! TO.N,GND*
X5229200Y-4038500D03*
D11*
G04 #@! TO.N,+5V*
G04 #@! TO.C,C1*
G36*
X5416158Y-2774210D02*
X5430476Y-2776334D01*
X5444517Y-2779851D01*
X5458146Y-2784728D01*
X5471231Y-2790917D01*
X5483647Y-2798358D01*
X5495273Y-2806981D01*
X5505998Y-2816702D01*
X5515719Y-2827427D01*
X5524342Y-2839053D01*
X5531783Y-2851469D01*
X5537972Y-2864554D01*
X5542849Y-2878183D01*
X5546366Y-2892224D01*
X5548490Y-2906542D01*
X5549200Y-2921000D01*
X5549200Y-3216000D01*
X5548490Y-3230458D01*
X5546366Y-3244776D01*
X5542849Y-3258817D01*
X5537972Y-3272446D01*
X5531783Y-3285531D01*
X5524342Y-3297947D01*
X5515719Y-3309573D01*
X5505998Y-3320298D01*
X5495273Y-3330019D01*
X5483647Y-3338642D01*
X5471231Y-3346083D01*
X5458146Y-3352272D01*
X5444517Y-3357149D01*
X5430476Y-3360666D01*
X5416158Y-3362790D01*
X5401700Y-3363500D01*
X5056700Y-3363500D01*
X5042242Y-3362790D01*
X5027924Y-3360666D01*
X5013883Y-3357149D01*
X5000254Y-3352272D01*
X4987169Y-3346083D01*
X4974753Y-3338642D01*
X4963127Y-3330019D01*
X4952402Y-3320298D01*
X4942681Y-3309573D01*
X4934058Y-3297947D01*
X4926617Y-3285531D01*
X4920428Y-3272446D01*
X4915551Y-3258817D01*
X4912034Y-3244776D01*
X4909910Y-3230458D01*
X4909200Y-3216000D01*
X4909200Y-2921000D01*
X4909910Y-2906542D01*
X4912034Y-2892224D01*
X4915551Y-2878183D01*
X4920428Y-2864554D01*
X4926617Y-2851469D01*
X4934058Y-2839053D01*
X4942681Y-2827427D01*
X4952402Y-2816702D01*
X4963127Y-2806981D01*
X4974753Y-2798358D01*
X4987169Y-2790917D01*
X5000254Y-2784728D01*
X5013883Y-2779851D01*
X5027924Y-2776334D01*
X5042242Y-2774210D01*
X5056700Y-2773500D01*
X5401700Y-2773500D01*
X5416158Y-2774210D01*
X5416158Y-2774210D01*
G37*
D23*
G04 #@! TD*
G04 #@! TO.P,C1,2*
G04 #@! TO.N,+5V*
X5229200Y-3068500D03*
D11*
G04 #@! TO.N,+5V*
G04 #@! TO.C,C2*
G36*
X4366158Y-2774210D02*
X4380476Y-2776334D01*
X4394517Y-2779851D01*
X4408146Y-2784728D01*
X4421231Y-2790917D01*
X4433647Y-2798358D01*
X4445273Y-2806981D01*
X4455998Y-2816702D01*
X4465719Y-2827427D01*
X4474342Y-2839053D01*
X4481783Y-2851469D01*
X4487972Y-2864554D01*
X4492849Y-2878183D01*
X4496366Y-2892224D01*
X4498490Y-2906542D01*
X4499200Y-2921000D01*
X4499200Y-3216000D01*
X4498490Y-3230458D01*
X4496366Y-3244776D01*
X4492849Y-3258817D01*
X4487972Y-3272446D01*
X4481783Y-3285531D01*
X4474342Y-3297947D01*
X4465719Y-3309573D01*
X4455998Y-3320298D01*
X4445273Y-3330019D01*
X4433647Y-3338642D01*
X4421231Y-3346083D01*
X4408146Y-3352272D01*
X4394517Y-3357149D01*
X4380476Y-3360666D01*
X4366158Y-3362790D01*
X4351700Y-3363500D01*
X4006700Y-3363500D01*
X3992242Y-3362790D01*
X3977924Y-3360666D01*
X3963883Y-3357149D01*
X3950254Y-3352272D01*
X3937169Y-3346083D01*
X3924753Y-3338642D01*
X3913127Y-3330019D01*
X3902402Y-3320298D01*
X3892681Y-3309573D01*
X3884058Y-3297947D01*
X3876617Y-3285531D01*
X3870428Y-3272446D01*
X3865551Y-3258817D01*
X3862034Y-3244776D01*
X3859910Y-3230458D01*
X3859200Y-3216000D01*
X3859200Y-2921000D01*
X3859910Y-2906542D01*
X3862034Y-2892224D01*
X3865551Y-2878183D01*
X3870428Y-2864554D01*
X3876617Y-2851469D01*
X3884058Y-2839053D01*
X3892681Y-2827427D01*
X3902402Y-2816702D01*
X3913127Y-2806981D01*
X3924753Y-2798358D01*
X3937169Y-2790917D01*
X3950254Y-2784728D01*
X3963883Y-2779851D01*
X3977924Y-2776334D01*
X3992242Y-2774210D01*
X4006700Y-2773500D01*
X4351700Y-2773500D01*
X4366158Y-2774210D01*
X4366158Y-2774210D01*
G37*
D23*
G04 #@! TD*
G04 #@! TO.P,C2,2*
G04 #@! TO.N,+5V*
X4179200Y-3068500D03*
D11*
G04 #@! TO.N,GND*
G04 #@! TO.C,C2*
G36*
X4366158Y-3744210D02*
X4380476Y-3746334D01*
X4394517Y-3749851D01*
X4408146Y-3754728D01*
X4421231Y-3760917D01*
X4433647Y-3768358D01*
X4445273Y-3776981D01*
X4455998Y-3786702D01*
X4465719Y-3797427D01*
X4474342Y-3809053D01*
X4481783Y-3821469D01*
X4487972Y-3834554D01*
X4492849Y-3848183D01*
X4496366Y-3862224D01*
X4498490Y-3876542D01*
X4499200Y-3891000D01*
X4499200Y-4186000D01*
X4498490Y-4200458D01*
X4496366Y-4214776D01*
X4492849Y-4228817D01*
X4487972Y-4242446D01*
X4481783Y-4255531D01*
X4474342Y-4267947D01*
X4465719Y-4279573D01*
X4455998Y-4290298D01*
X4445273Y-4300019D01*
X4433647Y-4308642D01*
X4421231Y-4316083D01*
X4408146Y-4322272D01*
X4394517Y-4327149D01*
X4380476Y-4330666D01*
X4366158Y-4332790D01*
X4351700Y-4333500D01*
X4006700Y-4333500D01*
X3992242Y-4332790D01*
X3977924Y-4330666D01*
X3963883Y-4327149D01*
X3950254Y-4322272D01*
X3937169Y-4316083D01*
X3924753Y-4308642D01*
X3913127Y-4300019D01*
X3902402Y-4290298D01*
X3892681Y-4279573D01*
X3884058Y-4267947D01*
X3876617Y-4255531D01*
X3870428Y-4242446D01*
X3865551Y-4228817D01*
X3862034Y-4214776D01*
X3859910Y-4200458D01*
X3859200Y-4186000D01*
X3859200Y-3891000D01*
X3859910Y-3876542D01*
X3862034Y-3862224D01*
X3865551Y-3848183D01*
X3870428Y-3834554D01*
X3876617Y-3821469D01*
X3884058Y-3809053D01*
X3892681Y-3797427D01*
X3902402Y-3786702D01*
X3913127Y-3776981D01*
X3924753Y-3768358D01*
X3937169Y-3760917D01*
X3950254Y-3754728D01*
X3963883Y-3749851D01*
X3977924Y-3746334D01*
X3992242Y-3744210D01*
X4006700Y-3743500D01*
X4351700Y-3743500D01*
X4366158Y-3744210D01*
X4366158Y-3744210D01*
G37*
D23*
G04 #@! TD*
G04 #@! TO.P,C2,1*
G04 #@! TO.N,GND*
X4179200Y-4038500D03*
D11*
G04 #@! TO.N,+3V3*
G04 #@! TO.C,C3*
G36*
X-1773842Y-1234210D02*
X-1759524Y-1236334D01*
X-1745483Y-1239851D01*
X-1731854Y-1244728D01*
X-1718769Y-1250917D01*
X-1706353Y-1258358D01*
X-1694727Y-1266981D01*
X-1684002Y-1276702D01*
X-1674281Y-1287427D01*
X-1665658Y-1299053D01*
X-1658217Y-1311469D01*
X-1652028Y-1324554D01*
X-1647151Y-1338183D01*
X-1643634Y-1352224D01*
X-1641510Y-1366542D01*
X-1640800Y-1381000D01*
X-1640800Y-1726000D01*
X-1641510Y-1740458D01*
X-1643634Y-1754776D01*
X-1647151Y-1768817D01*
X-1652028Y-1782446D01*
X-1658217Y-1795531D01*
X-1665658Y-1807947D01*
X-1674281Y-1819573D01*
X-1684002Y-1830298D01*
X-1694727Y-1840019D01*
X-1706353Y-1848642D01*
X-1718769Y-1856083D01*
X-1731854Y-1862272D01*
X-1745483Y-1867149D01*
X-1759524Y-1870666D01*
X-1773842Y-1872790D01*
X-1788300Y-1873500D01*
X-2083300Y-1873500D01*
X-2097758Y-1872790D01*
X-2112076Y-1870666D01*
X-2126117Y-1867149D01*
X-2139746Y-1862272D01*
X-2152831Y-1856083D01*
X-2165247Y-1848642D01*
X-2176873Y-1840019D01*
X-2187598Y-1830298D01*
X-2197319Y-1819573D01*
X-2205942Y-1807947D01*
X-2213383Y-1795531D01*
X-2219572Y-1782446D01*
X-2224449Y-1768817D01*
X-2227966Y-1754776D01*
X-2230090Y-1740458D01*
X-2230800Y-1726000D01*
X-2230800Y-1381000D01*
X-2230090Y-1366542D01*
X-2227966Y-1352224D01*
X-2224449Y-1338183D01*
X-2219572Y-1324554D01*
X-2213383Y-1311469D01*
X-2205942Y-1299053D01*
X-2197319Y-1287427D01*
X-2187598Y-1276702D01*
X-2176873Y-1266981D01*
X-2165247Y-1258358D01*
X-2152831Y-1250917D01*
X-2139746Y-1244728D01*
X-2126117Y-1239851D01*
X-2112076Y-1236334D01*
X-2097758Y-1234210D01*
X-2083300Y-1233500D01*
X-1788300Y-1233500D01*
X-1773842Y-1234210D01*
X-1773842Y-1234210D01*
G37*
D23*
G04 #@! TD*
G04 #@! TO.P,C3,2*
G04 #@! TO.N,+3V3*
X-1935800Y-1553500D03*
D11*
G04 #@! TO.N,GND*
G04 #@! TO.C,C3*
G36*
X-2743842Y-1234210D02*
X-2729524Y-1236334D01*
X-2715483Y-1239851D01*
X-2701854Y-1244728D01*
X-2688769Y-1250917D01*
X-2676353Y-1258358D01*
X-2664727Y-1266981D01*
X-2654002Y-1276702D01*
X-2644281Y-1287427D01*
X-2635658Y-1299053D01*
X-2628217Y-1311469D01*
X-2622028Y-1324554D01*
X-2617151Y-1338183D01*
X-2613634Y-1352224D01*
X-2611510Y-1366542D01*
X-2610800Y-1381000D01*
X-2610800Y-1726000D01*
X-2611510Y-1740458D01*
X-2613634Y-1754776D01*
X-2617151Y-1768817D01*
X-2622028Y-1782446D01*
X-2628217Y-1795531D01*
X-2635658Y-1807947D01*
X-2644281Y-1819573D01*
X-2654002Y-1830298D01*
X-2664727Y-1840019D01*
X-2676353Y-1848642D01*
X-2688769Y-1856083D01*
X-2701854Y-1862272D01*
X-2715483Y-1867149D01*
X-2729524Y-1870666D01*
X-2743842Y-1872790D01*
X-2758300Y-1873500D01*
X-3053300Y-1873500D01*
X-3067758Y-1872790D01*
X-3082076Y-1870666D01*
X-3096117Y-1867149D01*
X-3109746Y-1862272D01*
X-3122831Y-1856083D01*
X-3135247Y-1848642D01*
X-3146873Y-1840019D01*
X-3157598Y-1830298D01*
X-3167319Y-1819573D01*
X-3175942Y-1807947D01*
X-3183383Y-1795531D01*
X-3189572Y-1782446D01*
X-3194449Y-1768817D01*
X-3197966Y-1754776D01*
X-3200090Y-1740458D01*
X-3200800Y-1726000D01*
X-3200800Y-1381000D01*
X-3200090Y-1366542D01*
X-3197966Y-1352224D01*
X-3194449Y-1338183D01*
X-3189572Y-1324554D01*
X-3183383Y-1311469D01*
X-3175942Y-1299053D01*
X-3167319Y-1287427D01*
X-3157598Y-1276702D01*
X-3146873Y-1266981D01*
X-3135247Y-1258358D01*
X-3122831Y-1250917D01*
X-3109746Y-1244728D01*
X-3096117Y-1239851D01*
X-3082076Y-1236334D01*
X-3067758Y-1234210D01*
X-3053300Y-1233500D01*
X-2758300Y-1233500D01*
X-2743842Y-1234210D01*
X-2743842Y-1234210D01*
G37*
D23*
G04 #@! TD*
G04 #@! TO.P,C3,1*
G04 #@! TO.N,GND*
X-2905800Y-1553500D03*
D11*
G04 #@! TO.N,GND*
G04 #@! TO.C,C4*
G36*
X-2743842Y-84210D02*
X-2729524Y-86334D01*
X-2715483Y-89851D01*
X-2701854Y-94728D01*
X-2688769Y-100917D01*
X-2676353Y-108358D01*
X-2664727Y-116981D01*
X-2654002Y-126702D01*
X-2644281Y-137427D01*
X-2635658Y-149053D01*
X-2628217Y-161469D01*
X-2622028Y-174554D01*
X-2617151Y-188183D01*
X-2613634Y-202224D01*
X-2611510Y-216542D01*
X-2610800Y-231000D01*
X-2610800Y-576000D01*
X-2611510Y-590458D01*
X-2613634Y-604776D01*
X-2617151Y-618817D01*
X-2622028Y-632446D01*
X-2628217Y-645531D01*
X-2635658Y-657947D01*
X-2644281Y-669573D01*
X-2654002Y-680298D01*
X-2664727Y-690019D01*
X-2676353Y-698642D01*
X-2688769Y-706083D01*
X-2701854Y-712272D01*
X-2715483Y-717149D01*
X-2729524Y-720666D01*
X-2743842Y-722790D01*
X-2758300Y-723500D01*
X-3053300Y-723500D01*
X-3067758Y-722790D01*
X-3082076Y-720666D01*
X-3096117Y-717149D01*
X-3109746Y-712272D01*
X-3122831Y-706083D01*
X-3135247Y-698642D01*
X-3146873Y-690019D01*
X-3157598Y-680298D01*
X-3167319Y-669573D01*
X-3175942Y-657947D01*
X-3183383Y-645531D01*
X-3189572Y-632446D01*
X-3194449Y-618817D01*
X-3197966Y-604776D01*
X-3200090Y-590458D01*
X-3200800Y-576000D01*
X-3200800Y-231000D01*
X-3200090Y-216542D01*
X-3197966Y-202224D01*
X-3194449Y-188183D01*
X-3189572Y-174554D01*
X-3183383Y-161469D01*
X-3175942Y-149053D01*
X-3167319Y-137427D01*
X-3157598Y-126702D01*
X-3146873Y-116981D01*
X-3135247Y-108358D01*
X-3122831Y-100917D01*
X-3109746Y-94728D01*
X-3096117Y-89851D01*
X-3082076Y-86334D01*
X-3067758Y-84210D01*
X-3053300Y-83500D01*
X-2758300Y-83500D01*
X-2743842Y-84210D01*
X-2743842Y-84210D01*
G37*
D23*
G04 #@! TD*
G04 #@! TO.P,C4,1*
G04 #@! TO.N,GND*
X-2905800Y-403500D03*
D11*
G04 #@! TO.N,+3V3*
G04 #@! TO.C,C4*
G36*
X-1773842Y-84210D02*
X-1759524Y-86334D01*
X-1745483Y-89851D01*
X-1731854Y-94728D01*
X-1718769Y-100917D01*
X-1706353Y-108358D01*
X-1694727Y-116981D01*
X-1684002Y-126702D01*
X-1674281Y-137427D01*
X-1665658Y-149053D01*
X-1658217Y-161469D01*
X-1652028Y-174554D01*
X-1647151Y-188183D01*
X-1643634Y-202224D01*
X-1641510Y-216542D01*
X-1640800Y-231000D01*
X-1640800Y-576000D01*
X-1641510Y-590458D01*
X-1643634Y-604776D01*
X-1647151Y-618817D01*
X-1652028Y-632446D01*
X-1658217Y-645531D01*
X-1665658Y-657947D01*
X-1674281Y-669573D01*
X-1684002Y-680298D01*
X-1694727Y-690019D01*
X-1706353Y-698642D01*
X-1718769Y-706083D01*
X-1731854Y-712272D01*
X-1745483Y-717149D01*
X-1759524Y-720666D01*
X-1773842Y-722790D01*
X-1788300Y-723500D01*
X-2083300Y-723500D01*
X-2097758Y-722790D01*
X-2112076Y-720666D01*
X-2126117Y-717149D01*
X-2139746Y-712272D01*
X-2152831Y-706083D01*
X-2165247Y-698642D01*
X-2176873Y-690019D01*
X-2187598Y-680298D01*
X-2197319Y-669573D01*
X-2205942Y-657947D01*
X-2213383Y-645531D01*
X-2219572Y-632446D01*
X-2224449Y-618817D01*
X-2227966Y-604776D01*
X-2230090Y-590458D01*
X-2230800Y-576000D01*
X-2230800Y-231000D01*
X-2230090Y-216542D01*
X-2227966Y-202224D01*
X-2224449Y-188183D01*
X-2219572Y-174554D01*
X-2213383Y-161469D01*
X-2205942Y-149053D01*
X-2197319Y-137427D01*
X-2187598Y-126702D01*
X-2176873Y-116981D01*
X-2165247Y-108358D01*
X-2152831Y-100917D01*
X-2139746Y-94728D01*
X-2126117Y-89851D01*
X-2112076Y-86334D01*
X-2097758Y-84210D01*
X-2083300Y-83500D01*
X-1788300Y-83500D01*
X-1773842Y-84210D01*
X-1773842Y-84210D01*
G37*
D23*
G04 #@! TD*
G04 #@! TO.P,C4,2*
G04 #@! TO.N,+3V3*
X-1935800Y-403500D03*
D11*
G04 #@! TO.N,Net-(C5-Pad1)*
G04 #@! TO.C,C5*
G36*
X4976158Y5165790D02*
X4990476Y5163666D01*
X5004517Y5160149D01*
X5018146Y5155272D01*
X5031231Y5149083D01*
X5043647Y5141642D01*
X5055273Y5133019D01*
X5065998Y5123298D01*
X5075719Y5112573D01*
X5084342Y5100947D01*
X5091783Y5088531D01*
X5097972Y5075446D01*
X5102849Y5061817D01*
X5106366Y5047776D01*
X5108490Y5033458D01*
X5109200Y5019000D01*
X5109200Y4674000D01*
X5108490Y4659542D01*
X5106366Y4645224D01*
X5102849Y4631183D01*
X5097972Y4617554D01*
X5091783Y4604469D01*
X5084342Y4592053D01*
X5075719Y4580427D01*
X5065998Y4569702D01*
X5055273Y4559981D01*
X5043647Y4551358D01*
X5031231Y4543917D01*
X5018146Y4537728D01*
X5004517Y4532851D01*
X4990476Y4529334D01*
X4976158Y4527210D01*
X4961700Y4526500D01*
X4666700Y4526500D01*
X4652242Y4527210D01*
X4637924Y4529334D01*
X4623883Y4532851D01*
X4610254Y4537728D01*
X4597169Y4543917D01*
X4584753Y4551358D01*
X4573127Y4559981D01*
X4562402Y4569702D01*
X4552681Y4580427D01*
X4544058Y4592053D01*
X4536617Y4604469D01*
X4530428Y4617554D01*
X4525551Y4631183D01*
X4522034Y4645224D01*
X4519910Y4659542D01*
X4519200Y4674000D01*
X4519200Y5019000D01*
X4519910Y5033458D01*
X4522034Y5047776D01*
X4525551Y5061817D01*
X4530428Y5075446D01*
X4536617Y5088531D01*
X4544058Y5100947D01*
X4552681Y5112573D01*
X4562402Y5123298D01*
X4573127Y5133019D01*
X4584753Y5141642D01*
X4597169Y5149083D01*
X4610254Y5155272D01*
X4623883Y5160149D01*
X4637924Y5163666D01*
X4652242Y5165790D01*
X4666700Y5166500D01*
X4961700Y5166500D01*
X4976158Y5165790D01*
X4976158Y5165790D01*
G37*
D23*
G04 #@! TD*
G04 #@! TO.P,C5,1*
G04 #@! TO.N,Net-(C5-Pad1)*
X4814200Y4846500D03*
D11*
G04 #@! TO.N,GND*
G04 #@! TO.C,C5*
G36*
X4006158Y5165790D02*
X4020476Y5163666D01*
X4034517Y5160149D01*
X4048146Y5155272D01*
X4061231Y5149083D01*
X4073647Y5141642D01*
X4085273Y5133019D01*
X4095998Y5123298D01*
X4105719Y5112573D01*
X4114342Y5100947D01*
X4121783Y5088531D01*
X4127972Y5075446D01*
X4132849Y5061817D01*
X4136366Y5047776D01*
X4138490Y5033458D01*
X4139200Y5019000D01*
X4139200Y4674000D01*
X4138490Y4659542D01*
X4136366Y4645224D01*
X4132849Y4631183D01*
X4127972Y4617554D01*
X4121783Y4604469D01*
X4114342Y4592053D01*
X4105719Y4580427D01*
X4095998Y4569702D01*
X4085273Y4559981D01*
X4073647Y4551358D01*
X4061231Y4543917D01*
X4048146Y4537728D01*
X4034517Y4532851D01*
X4020476Y4529334D01*
X4006158Y4527210D01*
X3991700Y4526500D01*
X3696700Y4526500D01*
X3682242Y4527210D01*
X3667924Y4529334D01*
X3653883Y4532851D01*
X3640254Y4537728D01*
X3627169Y4543917D01*
X3614753Y4551358D01*
X3603127Y4559981D01*
X3592402Y4569702D01*
X3582681Y4580427D01*
X3574058Y4592053D01*
X3566617Y4604469D01*
X3560428Y4617554D01*
X3555551Y4631183D01*
X3552034Y4645224D01*
X3549910Y4659542D01*
X3549200Y4674000D01*
X3549200Y5019000D01*
X3549910Y5033458D01*
X3552034Y5047776D01*
X3555551Y5061817D01*
X3560428Y5075446D01*
X3566617Y5088531D01*
X3574058Y5100947D01*
X3582681Y5112573D01*
X3592402Y5123298D01*
X3603127Y5133019D01*
X3614753Y5141642D01*
X3627169Y5149083D01*
X3640254Y5155272D01*
X3653883Y5160149D01*
X3667924Y5163666D01*
X3682242Y5165790D01*
X3696700Y5166500D01*
X3991700Y5166500D01*
X4006158Y5165790D01*
X4006158Y5165790D01*
G37*
D23*
G04 #@! TD*
G04 #@! TO.P,C5,2*
G04 #@! TO.N,GND*
X3844200Y4846500D03*
D11*
G04 #@! TO.N,+3V3*
G04 #@! TO.C,C6*
G36*
X4166158Y3155790D02*
X4180476Y3153666D01*
X4194517Y3150149D01*
X4208146Y3145272D01*
X4221231Y3139083D01*
X4233647Y3131642D01*
X4245273Y3123019D01*
X4255998Y3113298D01*
X4265719Y3102573D01*
X4274342Y3090947D01*
X4281783Y3078531D01*
X4287972Y3065446D01*
X4292849Y3051817D01*
X4296366Y3037776D01*
X4298490Y3023458D01*
X4299200Y3009000D01*
X4299200Y2714000D01*
X4298490Y2699542D01*
X4296366Y2685224D01*
X4292849Y2671183D01*
X4287972Y2657554D01*
X4281783Y2644469D01*
X4274342Y2632053D01*
X4265719Y2620427D01*
X4255998Y2609702D01*
X4245273Y2599981D01*
X4233647Y2591358D01*
X4221231Y2583917D01*
X4208146Y2577728D01*
X4194517Y2572851D01*
X4180476Y2569334D01*
X4166158Y2567210D01*
X4151700Y2566500D01*
X3806700Y2566500D01*
X3792242Y2567210D01*
X3777924Y2569334D01*
X3763883Y2572851D01*
X3750254Y2577728D01*
X3737169Y2583917D01*
X3724753Y2591358D01*
X3713127Y2599981D01*
X3702402Y2609702D01*
X3692681Y2620427D01*
X3684058Y2632053D01*
X3676617Y2644469D01*
X3670428Y2657554D01*
X3665551Y2671183D01*
X3662034Y2685224D01*
X3659910Y2699542D01*
X3659200Y2714000D01*
X3659200Y3009000D01*
X3659910Y3023458D01*
X3662034Y3037776D01*
X3665551Y3051817D01*
X3670428Y3065446D01*
X3676617Y3078531D01*
X3684058Y3090947D01*
X3692681Y3102573D01*
X3702402Y3113298D01*
X3713127Y3123019D01*
X3724753Y3131642D01*
X3737169Y3139083D01*
X3750254Y3145272D01*
X3763883Y3150149D01*
X3777924Y3153666D01*
X3792242Y3155790D01*
X3806700Y3156500D01*
X4151700Y3156500D01*
X4166158Y3155790D01*
X4166158Y3155790D01*
G37*
D23*
G04 #@! TD*
G04 #@! TO.P,C6,2*
G04 #@! TO.N,+3V3*
X3979200Y2861500D03*
D11*
G04 #@! TO.N,GND*
G04 #@! TO.C,C6*
G36*
X4166158Y4125790D02*
X4180476Y4123666D01*
X4194517Y4120149D01*
X4208146Y4115272D01*
X4221231Y4109083D01*
X4233647Y4101642D01*
X4245273Y4093019D01*
X4255998Y4083298D01*
X4265719Y4072573D01*
X4274342Y4060947D01*
X4281783Y4048531D01*
X4287972Y4035446D01*
X4292849Y4021817D01*
X4296366Y4007776D01*
X4298490Y3993458D01*
X4299200Y3979000D01*
X4299200Y3684000D01*
X4298490Y3669542D01*
X4296366Y3655224D01*
X4292849Y3641183D01*
X4287972Y3627554D01*
X4281783Y3614469D01*
X4274342Y3602053D01*
X4265719Y3590427D01*
X4255998Y3579702D01*
X4245273Y3569981D01*
X4233647Y3561358D01*
X4221231Y3553917D01*
X4208146Y3547728D01*
X4194517Y3542851D01*
X4180476Y3539334D01*
X4166158Y3537210D01*
X4151700Y3536500D01*
X3806700Y3536500D01*
X3792242Y3537210D01*
X3777924Y3539334D01*
X3763883Y3542851D01*
X3750254Y3547728D01*
X3737169Y3553917D01*
X3724753Y3561358D01*
X3713127Y3569981D01*
X3702402Y3579702D01*
X3692681Y3590427D01*
X3684058Y3602053D01*
X3676617Y3614469D01*
X3670428Y3627554D01*
X3665551Y3641183D01*
X3662034Y3655224D01*
X3659910Y3669542D01*
X3659200Y3684000D01*
X3659200Y3979000D01*
X3659910Y3993458D01*
X3662034Y4007776D01*
X3665551Y4021817D01*
X3670428Y4035446D01*
X3676617Y4048531D01*
X3684058Y4060947D01*
X3692681Y4072573D01*
X3702402Y4083298D01*
X3713127Y4093019D01*
X3724753Y4101642D01*
X3737169Y4109083D01*
X3750254Y4115272D01*
X3763883Y4120149D01*
X3777924Y4123666D01*
X3792242Y4125790D01*
X3806700Y4126500D01*
X4151700Y4126500D01*
X4166158Y4125790D01*
X4166158Y4125790D01*
G37*
D23*
G04 #@! TD*
G04 #@! TO.P,C6,1*
G04 #@! TO.N,GND*
X3979200Y3831500D03*
D11*
G04 #@! TO.N,GND*
G04 #@! TO.C,C7*
G36*
X5316158Y4125790D02*
X5330476Y4123666D01*
X5344517Y4120149D01*
X5358146Y4115272D01*
X5371231Y4109083D01*
X5383647Y4101642D01*
X5395273Y4093019D01*
X5405998Y4083298D01*
X5415719Y4072573D01*
X5424342Y4060947D01*
X5431783Y4048531D01*
X5437972Y4035446D01*
X5442849Y4021817D01*
X5446366Y4007776D01*
X5448490Y3993458D01*
X5449200Y3979000D01*
X5449200Y3684000D01*
X5448490Y3669542D01*
X5446366Y3655224D01*
X5442849Y3641183D01*
X5437972Y3627554D01*
X5431783Y3614469D01*
X5424342Y3602053D01*
X5415719Y3590427D01*
X5405998Y3579702D01*
X5395273Y3569981D01*
X5383647Y3561358D01*
X5371231Y3553917D01*
X5358146Y3547728D01*
X5344517Y3542851D01*
X5330476Y3539334D01*
X5316158Y3537210D01*
X5301700Y3536500D01*
X4956700Y3536500D01*
X4942242Y3537210D01*
X4927924Y3539334D01*
X4913883Y3542851D01*
X4900254Y3547728D01*
X4887169Y3553917D01*
X4874753Y3561358D01*
X4863127Y3569981D01*
X4852402Y3579702D01*
X4842681Y3590427D01*
X4834058Y3602053D01*
X4826617Y3614469D01*
X4820428Y3627554D01*
X4815551Y3641183D01*
X4812034Y3655224D01*
X4809910Y3669542D01*
X4809200Y3684000D01*
X4809200Y3979000D01*
X4809910Y3993458D01*
X4812034Y4007776D01*
X4815551Y4021817D01*
X4820428Y4035446D01*
X4826617Y4048531D01*
X4834058Y4060947D01*
X4842681Y4072573D01*
X4852402Y4083298D01*
X4863127Y4093019D01*
X4874753Y4101642D01*
X4887169Y4109083D01*
X4900254Y4115272D01*
X4913883Y4120149D01*
X4927924Y4123666D01*
X4942242Y4125790D01*
X4956700Y4126500D01*
X5301700Y4126500D01*
X5316158Y4125790D01*
X5316158Y4125790D01*
G37*
D23*
G04 #@! TD*
G04 #@! TO.P,C7,1*
G04 #@! TO.N,GND*
X5129200Y3831500D03*
D11*
G04 #@! TO.N,+3V3*
G04 #@! TO.C,C7*
G36*
X5316158Y3155790D02*
X5330476Y3153666D01*
X5344517Y3150149D01*
X5358146Y3145272D01*
X5371231Y3139083D01*
X5383647Y3131642D01*
X5395273Y3123019D01*
X5405998Y3113298D01*
X5415719Y3102573D01*
X5424342Y3090947D01*
X5431783Y3078531D01*
X5437972Y3065446D01*
X5442849Y3051817D01*
X5446366Y3037776D01*
X5448490Y3023458D01*
X5449200Y3009000D01*
X5449200Y2714000D01*
X5448490Y2699542D01*
X5446366Y2685224D01*
X5442849Y2671183D01*
X5437972Y2657554D01*
X5431783Y2644469D01*
X5424342Y2632053D01*
X5415719Y2620427D01*
X5405998Y2609702D01*
X5395273Y2599981D01*
X5383647Y2591358D01*
X5371231Y2583917D01*
X5358146Y2577728D01*
X5344517Y2572851D01*
X5330476Y2569334D01*
X5316158Y2567210D01*
X5301700Y2566500D01*
X4956700Y2566500D01*
X4942242Y2567210D01*
X4927924Y2569334D01*
X4913883Y2572851D01*
X4900254Y2577728D01*
X4887169Y2583917D01*
X4874753Y2591358D01*
X4863127Y2599981D01*
X4852402Y2609702D01*
X4842681Y2620427D01*
X4834058Y2632053D01*
X4826617Y2644469D01*
X4820428Y2657554D01*
X4815551Y2671183D01*
X4812034Y2685224D01*
X4809910Y2699542D01*
X4809200Y2714000D01*
X4809200Y3009000D01*
X4809910Y3023458D01*
X4812034Y3037776D01*
X4815551Y3051817D01*
X4820428Y3065446D01*
X4826617Y3078531D01*
X4834058Y3090947D01*
X4842681Y3102573D01*
X4852402Y3113298D01*
X4863127Y3123019D01*
X4874753Y3131642D01*
X4887169Y3139083D01*
X4900254Y3145272D01*
X4913883Y3150149D01*
X4927924Y3153666D01*
X4942242Y3155790D01*
X4956700Y3156500D01*
X5301700Y3156500D01*
X5316158Y3155790D01*
X5316158Y3155790D01*
G37*
D23*
G04 #@! TD*
G04 #@! TO.P,C7,2*
G04 #@! TO.N,+3V3*
X5129200Y2861500D03*
D11*
G04 #@! TO.N,Net-(R1-Pad2)*
G04 #@! TO.C,R1*
G36*
X-1283842Y-4694210D02*
X-1269524Y-4696334D01*
X-1255483Y-4699851D01*
X-1241854Y-4704728D01*
X-1228769Y-4710917D01*
X-1216353Y-4718358D01*
X-1204727Y-4726981D01*
X-1194002Y-4736702D01*
X-1184281Y-4747427D01*
X-1175658Y-4759053D01*
X-1168217Y-4771469D01*
X-1162028Y-4784554D01*
X-1157151Y-4798183D01*
X-1153634Y-4812224D01*
X-1151510Y-4826542D01*
X-1150800Y-4841000D01*
X-1150800Y-5136000D01*
X-1151510Y-5150458D01*
X-1153634Y-5164776D01*
X-1157151Y-5178817D01*
X-1162028Y-5192446D01*
X-1168217Y-5205531D01*
X-1175658Y-5217947D01*
X-1184281Y-5229573D01*
X-1194002Y-5240298D01*
X-1204727Y-5250019D01*
X-1216353Y-5258642D01*
X-1228769Y-5266083D01*
X-1241854Y-5272272D01*
X-1255483Y-5277149D01*
X-1269524Y-5280666D01*
X-1283842Y-5282790D01*
X-1298300Y-5283500D01*
X-1643300Y-5283500D01*
X-1657758Y-5282790D01*
X-1672076Y-5280666D01*
X-1686117Y-5277149D01*
X-1699746Y-5272272D01*
X-1712831Y-5266083D01*
X-1725247Y-5258642D01*
X-1736873Y-5250019D01*
X-1747598Y-5240298D01*
X-1757319Y-5229573D01*
X-1765942Y-5217947D01*
X-1773383Y-5205531D01*
X-1779572Y-5192446D01*
X-1784449Y-5178817D01*
X-1787966Y-5164776D01*
X-1790090Y-5150458D01*
X-1790800Y-5136000D01*
X-1790800Y-4841000D01*
X-1790090Y-4826542D01*
X-1787966Y-4812224D01*
X-1784449Y-4798183D01*
X-1779572Y-4784554D01*
X-1773383Y-4771469D01*
X-1765942Y-4759053D01*
X-1757319Y-4747427D01*
X-1747598Y-4736702D01*
X-1736873Y-4726981D01*
X-1725247Y-4718358D01*
X-1712831Y-4710917D01*
X-1699746Y-4704728D01*
X-1686117Y-4699851D01*
X-1672076Y-4696334D01*
X-1657758Y-4694210D01*
X-1643300Y-4693500D01*
X-1298300Y-4693500D01*
X-1283842Y-4694210D01*
X-1283842Y-4694210D01*
G37*
D23*
G04 #@! TD*
G04 #@! TO.P,R1,2*
G04 #@! TO.N,Net-(R1-Pad2)*
X-1470800Y-4988500D03*
D11*
G04 #@! TO.N,Net-(P1-Pad1)*
G04 #@! TO.C,R1*
G36*
X-1283842Y-3724210D02*
X-1269524Y-3726334D01*
X-1255483Y-3729851D01*
X-1241854Y-3734728D01*
X-1228769Y-3740917D01*
X-1216353Y-3748358D01*
X-1204727Y-3756981D01*
X-1194002Y-3766702D01*
X-1184281Y-3777427D01*
X-1175658Y-3789053D01*
X-1168217Y-3801469D01*
X-1162028Y-3814554D01*
X-1157151Y-3828183D01*
X-1153634Y-3842224D01*
X-1151510Y-3856542D01*
X-1150800Y-3871000D01*
X-1150800Y-4166000D01*
X-1151510Y-4180458D01*
X-1153634Y-4194776D01*
X-1157151Y-4208817D01*
X-1162028Y-4222446D01*
X-1168217Y-4235531D01*
X-1175658Y-4247947D01*
X-1184281Y-4259573D01*
X-1194002Y-4270298D01*
X-1204727Y-4280019D01*
X-1216353Y-4288642D01*
X-1228769Y-4296083D01*
X-1241854Y-4302272D01*
X-1255483Y-4307149D01*
X-1269524Y-4310666D01*
X-1283842Y-4312790D01*
X-1298300Y-4313500D01*
X-1643300Y-4313500D01*
X-1657758Y-4312790D01*
X-1672076Y-4310666D01*
X-1686117Y-4307149D01*
X-1699746Y-4302272D01*
X-1712831Y-4296083D01*
X-1725247Y-4288642D01*
X-1736873Y-4280019D01*
X-1747598Y-4270298D01*
X-1757319Y-4259573D01*
X-1765942Y-4247947D01*
X-1773383Y-4235531D01*
X-1779572Y-4222446D01*
X-1784449Y-4208817D01*
X-1787966Y-4194776D01*
X-1790090Y-4180458D01*
X-1790800Y-4166000D01*
X-1790800Y-3871000D01*
X-1790090Y-3856542D01*
X-1787966Y-3842224D01*
X-1784449Y-3828183D01*
X-1779572Y-3814554D01*
X-1773383Y-3801469D01*
X-1765942Y-3789053D01*
X-1757319Y-3777427D01*
X-1747598Y-3766702D01*
X-1736873Y-3756981D01*
X-1725247Y-3748358D01*
X-1712831Y-3740917D01*
X-1699746Y-3734728D01*
X-1686117Y-3729851D01*
X-1672076Y-3726334D01*
X-1657758Y-3724210D01*
X-1643300Y-3723500D01*
X-1298300Y-3723500D01*
X-1283842Y-3724210D01*
X-1283842Y-3724210D01*
G37*
D23*
G04 #@! TD*
G04 #@! TO.P,R1,1*
G04 #@! TO.N,Net-(P1-Pad1)*
X-1470800Y-4018500D03*
D11*
G04 #@! TO.N,GND*
G04 #@! TO.C,R2*
G36*
X-1283842Y-5674210D02*
X-1269524Y-5676334D01*
X-1255483Y-5679851D01*
X-1241854Y-5684728D01*
X-1228769Y-5690917D01*
X-1216353Y-5698358D01*
X-1204727Y-5706981D01*
X-1194002Y-5716702D01*
X-1184281Y-5727427D01*
X-1175658Y-5739053D01*
X-1168217Y-5751469D01*
X-1162028Y-5764554D01*
X-1157151Y-5778183D01*
X-1153634Y-5792224D01*
X-1151510Y-5806542D01*
X-1150800Y-5821000D01*
X-1150800Y-6116000D01*
X-1151510Y-6130458D01*
X-1153634Y-6144776D01*
X-1157151Y-6158817D01*
X-1162028Y-6172446D01*
X-1168217Y-6185531D01*
X-1175658Y-6197947D01*
X-1184281Y-6209573D01*
X-1194002Y-6220298D01*
X-1204727Y-6230019D01*
X-1216353Y-6238642D01*
X-1228769Y-6246083D01*
X-1241854Y-6252272D01*
X-1255483Y-6257149D01*
X-1269524Y-6260666D01*
X-1283842Y-6262790D01*
X-1298300Y-6263500D01*
X-1643300Y-6263500D01*
X-1657758Y-6262790D01*
X-1672076Y-6260666D01*
X-1686117Y-6257149D01*
X-1699746Y-6252272D01*
X-1712831Y-6246083D01*
X-1725247Y-6238642D01*
X-1736873Y-6230019D01*
X-1747598Y-6220298D01*
X-1757319Y-6209573D01*
X-1765942Y-6197947D01*
X-1773383Y-6185531D01*
X-1779572Y-6172446D01*
X-1784449Y-6158817D01*
X-1787966Y-6144776D01*
X-1790090Y-6130458D01*
X-1790800Y-6116000D01*
X-1790800Y-5821000D01*
X-1790090Y-5806542D01*
X-1787966Y-5792224D01*
X-1784449Y-5778183D01*
X-1779572Y-5764554D01*
X-1773383Y-5751469D01*
X-1765942Y-5739053D01*
X-1757319Y-5727427D01*
X-1747598Y-5716702D01*
X-1736873Y-5706981D01*
X-1725247Y-5698358D01*
X-1712831Y-5690917D01*
X-1699746Y-5684728D01*
X-1686117Y-5679851D01*
X-1672076Y-5676334D01*
X-1657758Y-5674210D01*
X-1643300Y-5673500D01*
X-1298300Y-5673500D01*
X-1283842Y-5674210D01*
X-1283842Y-5674210D01*
G37*
D23*
G04 #@! TD*
G04 #@! TO.P,R2,1*
G04 #@! TO.N,GND*
X-1470800Y-5968500D03*
D11*
G04 #@! TO.N,Net-(R2-Pad2)*
G04 #@! TO.C,R2*
G36*
X-1283842Y-6644210D02*
X-1269524Y-6646334D01*
X-1255483Y-6649851D01*
X-1241854Y-6654728D01*
X-1228769Y-6660917D01*
X-1216353Y-6668358D01*
X-1204727Y-6676981D01*
X-1194002Y-6686702D01*
X-1184281Y-6697427D01*
X-1175658Y-6709053D01*
X-1168217Y-6721469D01*
X-1162028Y-6734554D01*
X-1157151Y-6748183D01*
X-1153634Y-6762224D01*
X-1151510Y-6776542D01*
X-1150800Y-6791000D01*
X-1150800Y-7086000D01*
X-1151510Y-7100458D01*
X-1153634Y-7114776D01*
X-1157151Y-7128817D01*
X-1162028Y-7142446D01*
X-1168217Y-7155531D01*
X-1175658Y-7167947D01*
X-1184281Y-7179573D01*
X-1194002Y-7190298D01*
X-1204727Y-7200019D01*
X-1216353Y-7208642D01*
X-1228769Y-7216083D01*
X-1241854Y-7222272D01*
X-1255483Y-7227149D01*
X-1269524Y-7230666D01*
X-1283842Y-7232790D01*
X-1298300Y-7233500D01*
X-1643300Y-7233500D01*
X-1657758Y-7232790D01*
X-1672076Y-7230666D01*
X-1686117Y-7227149D01*
X-1699746Y-7222272D01*
X-1712831Y-7216083D01*
X-1725247Y-7208642D01*
X-1736873Y-7200019D01*
X-1747598Y-7190298D01*
X-1757319Y-7179573D01*
X-1765942Y-7167947D01*
X-1773383Y-7155531D01*
X-1779572Y-7142446D01*
X-1784449Y-7128817D01*
X-1787966Y-7114776D01*
X-1790090Y-7100458D01*
X-1790800Y-7086000D01*
X-1790800Y-6791000D01*
X-1790090Y-6776542D01*
X-1787966Y-6762224D01*
X-1784449Y-6748183D01*
X-1779572Y-6734554D01*
X-1773383Y-6721469D01*
X-1765942Y-6709053D01*
X-1757319Y-6697427D01*
X-1747598Y-6686702D01*
X-1736873Y-6676981D01*
X-1725247Y-6668358D01*
X-1712831Y-6660917D01*
X-1699746Y-6654728D01*
X-1686117Y-6649851D01*
X-1672076Y-6646334D01*
X-1657758Y-6644210D01*
X-1643300Y-6643500D01*
X-1298300Y-6643500D01*
X-1283842Y-6644210D01*
X-1283842Y-6644210D01*
G37*
D23*
G04 #@! TD*
G04 #@! TO.P,R2,2*
G04 #@! TO.N,Net-(R2-Pad2)*
X-1470800Y-6938500D03*
D11*
G04 #@! TO.N,Net-(D2-PadA)*
G04 #@! TO.C,R4*
G36*
X-643842Y7530790D02*
X-629524Y7528666D01*
X-615483Y7525149D01*
X-601854Y7520272D01*
X-588769Y7514083D01*
X-576353Y7506642D01*
X-564727Y7498019D01*
X-554002Y7488298D01*
X-544281Y7477573D01*
X-535658Y7465947D01*
X-528217Y7453531D01*
X-522028Y7440446D01*
X-517151Y7426817D01*
X-513634Y7412776D01*
X-511510Y7398458D01*
X-510800Y7384000D01*
X-510800Y7039000D01*
X-511510Y7024542D01*
X-513634Y7010224D01*
X-517151Y6996183D01*
X-522028Y6982554D01*
X-528217Y6969469D01*
X-535658Y6957053D01*
X-544281Y6945427D01*
X-554002Y6934702D01*
X-564727Y6924981D01*
X-576353Y6916358D01*
X-588769Y6908917D01*
X-601854Y6902728D01*
X-615483Y6897851D01*
X-629524Y6894334D01*
X-643842Y6892210D01*
X-658300Y6891500D01*
X-953300Y6891500D01*
X-967758Y6892210D01*
X-982076Y6894334D01*
X-996117Y6897851D01*
X-1009746Y6902728D01*
X-1022831Y6908917D01*
X-1035247Y6916358D01*
X-1046873Y6924981D01*
X-1057598Y6934702D01*
X-1067319Y6945427D01*
X-1075942Y6957053D01*
X-1083383Y6969469D01*
X-1089572Y6982554D01*
X-1094449Y6996183D01*
X-1097966Y7010224D01*
X-1100090Y7024542D01*
X-1100800Y7039000D01*
X-1100800Y7384000D01*
X-1100090Y7398458D01*
X-1097966Y7412776D01*
X-1094449Y7426817D01*
X-1089572Y7440446D01*
X-1083383Y7453531D01*
X-1075942Y7465947D01*
X-1067319Y7477573D01*
X-1057598Y7488298D01*
X-1046873Y7498019D01*
X-1035247Y7506642D01*
X-1022831Y7514083D01*
X-1009746Y7520272D01*
X-996117Y7525149D01*
X-982076Y7528666D01*
X-967758Y7530790D01*
X-953300Y7531500D01*
X-658300Y7531500D01*
X-643842Y7530790D01*
X-643842Y7530790D01*
G37*
D23*
G04 #@! TD*
G04 #@! TO.P,R4,2*
G04 #@! TO.N,Net-(D2-PadA)*
X-805800Y7211500D03*
D11*
G04 #@! TO.N,+3V3*
G04 #@! TO.C,R4*
G36*
X326158Y7530790D02*
X340476Y7528666D01*
X354517Y7525149D01*
X368146Y7520272D01*
X381231Y7514083D01*
X393647Y7506642D01*
X405273Y7498019D01*
X415998Y7488298D01*
X425719Y7477573D01*
X434342Y7465947D01*
X441783Y7453531D01*
X447972Y7440446D01*
X452849Y7426817D01*
X456366Y7412776D01*
X458490Y7398458D01*
X459200Y7384000D01*
X459200Y7039000D01*
X458490Y7024542D01*
X456366Y7010224D01*
X452849Y6996183D01*
X447972Y6982554D01*
X441783Y6969469D01*
X434342Y6957053D01*
X425719Y6945427D01*
X415998Y6934702D01*
X405273Y6924981D01*
X393647Y6916358D01*
X381231Y6908917D01*
X368146Y6902728D01*
X354517Y6897851D01*
X340476Y6894334D01*
X326158Y6892210D01*
X311700Y6891500D01*
X16700Y6891500D01*
X2242Y6892210D01*
X-12076Y6894334D01*
X-26117Y6897851D01*
X-39746Y6902728D01*
X-52831Y6908917D01*
X-65247Y6916358D01*
X-76873Y6924981D01*
X-87598Y6934702D01*
X-97319Y6945427D01*
X-105942Y6957053D01*
X-113383Y6969469D01*
X-119572Y6982554D01*
X-124449Y6996183D01*
X-127966Y7010224D01*
X-130090Y7024542D01*
X-130800Y7039000D01*
X-130800Y7384000D01*
X-130090Y7398458D01*
X-127966Y7412776D01*
X-124449Y7426817D01*
X-119572Y7440446D01*
X-113383Y7453531D01*
X-105942Y7465947D01*
X-97319Y7477573D01*
X-87598Y7488298D01*
X-76873Y7498019D01*
X-65247Y7506642D01*
X-52831Y7514083D01*
X-39746Y7520272D01*
X-26117Y7525149D01*
X-12076Y7528666D01*
X2242Y7530790D01*
X16700Y7531500D01*
X311700Y7531500D01*
X326158Y7530790D01*
X326158Y7530790D01*
G37*
D23*
G04 #@! TD*
G04 #@! TO.P,R4,1*
G04 #@! TO.N,+3V3*
X164200Y7211500D03*
D11*
G04 #@! TO.N,Net-(C5-Pad1)*
G04 #@! TO.C,R6*
G36*
X4976158Y6815790D02*
X4990476Y6813666D01*
X5004517Y6810149D01*
X5018146Y6805272D01*
X5031231Y6799083D01*
X5043647Y6791642D01*
X5055273Y6783019D01*
X5065998Y6773298D01*
X5075719Y6762573D01*
X5084342Y6750947D01*
X5091783Y6738531D01*
X5097972Y6725446D01*
X5102849Y6711817D01*
X5106366Y6697776D01*
X5108490Y6683458D01*
X5109200Y6669000D01*
X5109200Y6324000D01*
X5108490Y6309542D01*
X5106366Y6295224D01*
X5102849Y6281183D01*
X5097972Y6267554D01*
X5091783Y6254469D01*
X5084342Y6242053D01*
X5075719Y6230427D01*
X5065998Y6219702D01*
X5055273Y6209981D01*
X5043647Y6201358D01*
X5031231Y6193917D01*
X5018146Y6187728D01*
X5004517Y6182851D01*
X4990476Y6179334D01*
X4976158Y6177210D01*
X4961700Y6176500D01*
X4666700Y6176500D01*
X4652242Y6177210D01*
X4637924Y6179334D01*
X4623883Y6182851D01*
X4610254Y6187728D01*
X4597169Y6193917D01*
X4584753Y6201358D01*
X4573127Y6209981D01*
X4562402Y6219702D01*
X4552681Y6230427D01*
X4544058Y6242053D01*
X4536617Y6254469D01*
X4530428Y6267554D01*
X4525551Y6281183D01*
X4522034Y6295224D01*
X4519910Y6309542D01*
X4519200Y6324000D01*
X4519200Y6669000D01*
X4519910Y6683458D01*
X4522034Y6697776D01*
X4525551Y6711817D01*
X4530428Y6725446D01*
X4536617Y6738531D01*
X4544058Y6750947D01*
X4552681Y6762573D01*
X4562402Y6773298D01*
X4573127Y6783019D01*
X4584753Y6791642D01*
X4597169Y6799083D01*
X4610254Y6805272D01*
X4623883Y6810149D01*
X4637924Y6813666D01*
X4652242Y6815790D01*
X4666700Y6816500D01*
X4961700Y6816500D01*
X4976158Y6815790D01*
X4976158Y6815790D01*
G37*
D23*
G04 #@! TD*
G04 #@! TO.P,R6,1*
G04 #@! TO.N,Net-(C5-Pad1)*
X4814200Y6496500D03*
D11*
G04 #@! TO.N,GND*
G04 #@! TO.C,R6*
G36*
X4006158Y6815790D02*
X4020476Y6813666D01*
X4034517Y6810149D01*
X4048146Y6805272D01*
X4061231Y6799083D01*
X4073647Y6791642D01*
X4085273Y6783019D01*
X4095998Y6773298D01*
X4105719Y6762573D01*
X4114342Y6750947D01*
X4121783Y6738531D01*
X4127972Y6725446D01*
X4132849Y6711817D01*
X4136366Y6697776D01*
X4138490Y6683458D01*
X4139200Y6669000D01*
X4139200Y6324000D01*
X4138490Y6309542D01*
X4136366Y6295224D01*
X4132849Y6281183D01*
X4127972Y6267554D01*
X4121783Y6254469D01*
X4114342Y6242053D01*
X4105719Y6230427D01*
X4095998Y6219702D01*
X4085273Y6209981D01*
X4073647Y6201358D01*
X4061231Y6193917D01*
X4048146Y6187728D01*
X4034517Y6182851D01*
X4020476Y6179334D01*
X4006158Y6177210D01*
X3991700Y6176500D01*
X3696700Y6176500D01*
X3682242Y6177210D01*
X3667924Y6179334D01*
X3653883Y6182851D01*
X3640254Y6187728D01*
X3627169Y6193917D01*
X3614753Y6201358D01*
X3603127Y6209981D01*
X3592402Y6219702D01*
X3582681Y6230427D01*
X3574058Y6242053D01*
X3566617Y6254469D01*
X3560428Y6267554D01*
X3555551Y6281183D01*
X3552034Y6295224D01*
X3549910Y6309542D01*
X3549200Y6324000D01*
X3549200Y6669000D01*
X3549910Y6683458D01*
X3552034Y6697776D01*
X3555551Y6711817D01*
X3560428Y6725446D01*
X3566617Y6738531D01*
X3574058Y6750947D01*
X3582681Y6762573D01*
X3592402Y6773298D01*
X3603127Y6783019D01*
X3614753Y6791642D01*
X3627169Y6799083D01*
X3640254Y6805272D01*
X3653883Y6810149D01*
X3667924Y6813666D01*
X3682242Y6815790D01*
X3696700Y6816500D01*
X3991700Y6816500D01*
X4006158Y6815790D01*
X4006158Y6815790D01*
G37*
D23*
G04 #@! TD*
G04 #@! TO.P,R6,2*
G04 #@! TO.N,GND*
X3844200Y6496500D03*
D28*
G04 #@! TO.P,U3,1*
G04 #@! TO.N,Net-(U3-Pad1)*
X1179200Y-2038500D03*
G04 #@! TO.P,U3,3*
G04 #@! TO.N,+5V*
X2179200Y-2038500D03*
G04 #@! TO.P,U3,5*
G04 #@! TO.N,/HD-*
X1179200Y-638500D03*
G04 #@! TO.P,U3,2*
G04 #@! TO.N,GND*
X1679200Y-2038500D03*
G04 #@! TO.P,U3,4*
G04 #@! TO.N,/HD+*
X2179200Y-638500D03*
G04 #@! TD*
D29*
G04 #@! TO.P,TP1,1*
G04 #@! TO.N,GND*
X6970000Y3866500D03*
G04 #@! TD*
G04 #@! TO.P,TP3,1*
G04 #@! TO.N,/HD-*
X5700000Y-1213500D03*
G04 #@! TD*
G04 #@! TO.P,TP4,1*
G04 #@! TO.N,+5V*
X6970000Y-3803500D03*
G04 #@! TD*
G04 #@! TO.P,TP5,1*
G04 #@! TO.N,/SWCLK*
X8240000Y1326500D03*
G04 #@! TD*
G04 #@! TO.P,TP6,1*
G04 #@! TO.N,/SWDIO*
X8240000Y-1213500D03*
G04 #@! TD*
D11*
G04 #@! TO.N,/I2C_SDA*
G04 #@! TO.C,R3*
G36*
X-83842Y-1509210D02*
X-69524Y-1511334D01*
X-55483Y-1514851D01*
X-41854Y-1519728D01*
X-28769Y-1525917D01*
X-16353Y-1533358D01*
X-4727Y-1541981D01*
X5998Y-1551702D01*
X15719Y-1562427D01*
X24342Y-1574053D01*
X31783Y-1586469D01*
X37972Y-1599554D01*
X42849Y-1613183D01*
X46366Y-1627224D01*
X48490Y-1641542D01*
X49200Y-1656000D01*
X49200Y-1951000D01*
X48490Y-1965458D01*
X46366Y-1979776D01*
X42849Y-1993817D01*
X37972Y-2007446D01*
X31783Y-2020531D01*
X24342Y-2032947D01*
X15719Y-2044573D01*
X5998Y-2055298D01*
X-4727Y-2065019D01*
X-16353Y-2073642D01*
X-28769Y-2081083D01*
X-41854Y-2087272D01*
X-55483Y-2092149D01*
X-69524Y-2095666D01*
X-83842Y-2097790D01*
X-98300Y-2098500D01*
X-443300Y-2098500D01*
X-457758Y-2097790D01*
X-472076Y-2095666D01*
X-486117Y-2092149D01*
X-499746Y-2087272D01*
X-512831Y-2081083D01*
X-525247Y-2073642D01*
X-536873Y-2065019D01*
X-547598Y-2055298D01*
X-557319Y-2044573D01*
X-565942Y-2032947D01*
X-573383Y-2020531D01*
X-579572Y-2007446D01*
X-584449Y-1993817D01*
X-587966Y-1979776D01*
X-590090Y-1965458D01*
X-590800Y-1951000D01*
X-590800Y-1656000D01*
X-590090Y-1641542D01*
X-587966Y-1627224D01*
X-584449Y-1613183D01*
X-579572Y-1599554D01*
X-573383Y-1586469D01*
X-565942Y-1574053D01*
X-557319Y-1562427D01*
X-547598Y-1551702D01*
X-536873Y-1541981D01*
X-525247Y-1533358D01*
X-512831Y-1525917D01*
X-499746Y-1519728D01*
X-486117Y-1514851D01*
X-472076Y-1511334D01*
X-457758Y-1509210D01*
X-443300Y-1508500D01*
X-98300Y-1508500D01*
X-83842Y-1509210D01*
X-83842Y-1509210D01*
G37*
D23*
G04 #@! TD*
G04 #@! TO.P,R3,1*
G04 #@! TO.N,/I2C_SDA*
X-270800Y-1803500D03*
D11*
G04 #@! TO.N,+3V3*
G04 #@! TO.C,R3*
G36*
X-83842Y-2479210D02*
X-69524Y-2481334D01*
X-55483Y-2484851D01*
X-41854Y-2489728D01*
X-28769Y-2495917D01*
X-16353Y-2503358D01*
X-4727Y-2511981D01*
X5998Y-2521702D01*
X15719Y-2532427D01*
X24342Y-2544053D01*
X31783Y-2556469D01*
X37972Y-2569554D01*
X42849Y-2583183D01*
X46366Y-2597224D01*
X48490Y-2611542D01*
X49200Y-2626000D01*
X49200Y-2921000D01*
X48490Y-2935458D01*
X46366Y-2949776D01*
X42849Y-2963817D01*
X37972Y-2977446D01*
X31783Y-2990531D01*
X24342Y-3002947D01*
X15719Y-3014573D01*
X5998Y-3025298D01*
X-4727Y-3035019D01*
X-16353Y-3043642D01*
X-28769Y-3051083D01*
X-41854Y-3057272D01*
X-55483Y-3062149D01*
X-69524Y-3065666D01*
X-83842Y-3067790D01*
X-98300Y-3068500D01*
X-443300Y-3068500D01*
X-457758Y-3067790D01*
X-472076Y-3065666D01*
X-486117Y-3062149D01*
X-499746Y-3057272D01*
X-512831Y-3051083D01*
X-525247Y-3043642D01*
X-536873Y-3035019D01*
X-547598Y-3025298D01*
X-557319Y-3014573D01*
X-565942Y-3002947D01*
X-573383Y-2990531D01*
X-579572Y-2977446D01*
X-584449Y-2963817D01*
X-587966Y-2949776D01*
X-590090Y-2935458D01*
X-590800Y-2921000D01*
X-590800Y-2626000D01*
X-590090Y-2611542D01*
X-587966Y-2597224D01*
X-584449Y-2583183D01*
X-579572Y-2569554D01*
X-573383Y-2556469D01*
X-565942Y-2544053D01*
X-557319Y-2532427D01*
X-547598Y-2521702D01*
X-536873Y-2511981D01*
X-525247Y-2503358D01*
X-512831Y-2495917D01*
X-499746Y-2489728D01*
X-486117Y-2484851D01*
X-472076Y-2481334D01*
X-457758Y-2479210D01*
X-443300Y-2478500D01*
X-98300Y-2478500D01*
X-83842Y-2479210D01*
X-83842Y-2479210D01*
G37*
D23*
G04 #@! TD*
G04 #@! TO.P,R3,2*
G04 #@! TO.N,+3V3*
X-270800Y-2773500D03*
D11*
G04 #@! TO.N,/I2C_SCL*
G04 #@! TO.C,R7*
G36*
X-2823842Y-2919210D02*
X-2809524Y-2921334D01*
X-2795483Y-2924851D01*
X-2781854Y-2929728D01*
X-2768769Y-2935917D01*
X-2756353Y-2943358D01*
X-2744727Y-2951981D01*
X-2734002Y-2961702D01*
X-2724281Y-2972427D01*
X-2715658Y-2984053D01*
X-2708217Y-2996469D01*
X-2702028Y-3009554D01*
X-2697151Y-3023183D01*
X-2693634Y-3037224D01*
X-2691510Y-3051542D01*
X-2690800Y-3066000D01*
X-2690800Y-3411000D01*
X-2691510Y-3425458D01*
X-2693634Y-3439776D01*
X-2697151Y-3453817D01*
X-2702028Y-3467446D01*
X-2708217Y-3480531D01*
X-2715658Y-3492947D01*
X-2724281Y-3504573D01*
X-2734002Y-3515298D01*
X-2744727Y-3525019D01*
X-2756353Y-3533642D01*
X-2768769Y-3541083D01*
X-2781854Y-3547272D01*
X-2795483Y-3552149D01*
X-2809524Y-3555666D01*
X-2823842Y-3557790D01*
X-2838300Y-3558500D01*
X-3133300Y-3558500D01*
X-3147758Y-3557790D01*
X-3162076Y-3555666D01*
X-3176117Y-3552149D01*
X-3189746Y-3547272D01*
X-3202831Y-3541083D01*
X-3215247Y-3533642D01*
X-3226873Y-3525019D01*
X-3237598Y-3515298D01*
X-3247319Y-3504573D01*
X-3255942Y-3492947D01*
X-3263383Y-3480531D01*
X-3269572Y-3467446D01*
X-3274449Y-3453817D01*
X-3277966Y-3439776D01*
X-3280090Y-3425458D01*
X-3280800Y-3411000D01*
X-3280800Y-3066000D01*
X-3280090Y-3051542D01*
X-3277966Y-3037224D01*
X-3274449Y-3023183D01*
X-3269572Y-3009554D01*
X-3263383Y-2996469D01*
X-3255942Y-2984053D01*
X-3247319Y-2972427D01*
X-3237598Y-2961702D01*
X-3226873Y-2951981D01*
X-3215247Y-2943358D01*
X-3202831Y-2935917D01*
X-3189746Y-2929728D01*
X-3176117Y-2924851D01*
X-3162076Y-2921334D01*
X-3147758Y-2919210D01*
X-3133300Y-2918500D01*
X-2838300Y-2918500D01*
X-2823842Y-2919210D01*
X-2823842Y-2919210D01*
G37*
D23*
G04 #@! TD*
G04 #@! TO.P,R7,1*
G04 #@! TO.N,/I2C_SCL*
X-2985800Y-3238500D03*
D11*
G04 #@! TO.N,+3V3*
G04 #@! TO.C,R7*
G36*
X-3793842Y-2919210D02*
X-3779524Y-2921334D01*
X-3765483Y-2924851D01*
X-3751854Y-2929728D01*
X-3738769Y-2935917D01*
X-3726353Y-2943358D01*
X-3714727Y-2951981D01*
X-3704002Y-2961702D01*
X-3694281Y-2972427D01*
X-3685658Y-2984053D01*
X-3678217Y-2996469D01*
X-3672028Y-3009554D01*
X-3667151Y-3023183D01*
X-3663634Y-3037224D01*
X-3661510Y-3051542D01*
X-3660800Y-3066000D01*
X-3660800Y-3411000D01*
X-3661510Y-3425458D01*
X-3663634Y-3439776D01*
X-3667151Y-3453817D01*
X-3672028Y-3467446D01*
X-3678217Y-3480531D01*
X-3685658Y-3492947D01*
X-3694281Y-3504573D01*
X-3704002Y-3515298D01*
X-3714727Y-3525019D01*
X-3726353Y-3533642D01*
X-3738769Y-3541083D01*
X-3751854Y-3547272D01*
X-3765483Y-3552149D01*
X-3779524Y-3555666D01*
X-3793842Y-3557790D01*
X-3808300Y-3558500D01*
X-4103300Y-3558500D01*
X-4117758Y-3557790D01*
X-4132076Y-3555666D01*
X-4146117Y-3552149D01*
X-4159746Y-3547272D01*
X-4172831Y-3541083D01*
X-4185247Y-3533642D01*
X-4196873Y-3525019D01*
X-4207598Y-3515298D01*
X-4217319Y-3504573D01*
X-4225942Y-3492947D01*
X-4233383Y-3480531D01*
X-4239572Y-3467446D01*
X-4244449Y-3453817D01*
X-4247966Y-3439776D01*
X-4250090Y-3425458D01*
X-4250800Y-3411000D01*
X-4250800Y-3066000D01*
X-4250090Y-3051542D01*
X-4247966Y-3037224D01*
X-4244449Y-3023183D01*
X-4239572Y-3009554D01*
X-4233383Y-2996469D01*
X-4225942Y-2984053D01*
X-4217319Y-2972427D01*
X-4207598Y-2961702D01*
X-4196873Y-2951981D01*
X-4185247Y-2943358D01*
X-4172831Y-2935917D01*
X-4159746Y-2929728D01*
X-4146117Y-2924851D01*
X-4132076Y-2921334D01*
X-4117758Y-2919210D01*
X-4103300Y-2918500D01*
X-3808300Y-2918500D01*
X-3793842Y-2919210D01*
X-3793842Y-2919210D01*
G37*
D23*
G04 #@! TD*
G04 #@! TO.P,R7,2*
G04 #@! TO.N,+3V3*
X-3955800Y-3238500D03*
D30*
G04 #@! TO.N,/HD+*
X4629200Y2096500D03*
X2669200Y-148500D03*
G04 #@! TO.N,/HD-*
X4629200Y-2053500D03*
X710867Y-91933D03*
G04 #@! TO.N,/Button*
X1029200Y-6838500D03*
X-3370800Y1761500D03*
G04 #@! TO.N,Net-(P1-Pad1)*
X-1397930Y-3311370D03*
G04 #@! TO.N,/Button_reset*
X3279206Y-4988500D03*
X2516700Y1111466D03*
G04 #@! TO.N,+5V*
X-4970800Y-7488500D03*
X5929200Y-2703500D03*
G04 #@! TO.N,+3V3*
X6029200Y2846500D03*
X579200Y-2788500D03*
X2829192Y-1288492D03*
X-1320800Y-988500D03*
G04 #@! TO.N,Net-(D2-PadA)*
X-1560800Y7441500D03*
G04 #@! TO.N,Net-(U1-Pad3)*
X-3370760Y5196502D03*
X1139200Y6781500D03*
G04 #@! TO.N,Net-(D2-PadG)*
X-1560800Y6781500D03*
G04 #@! TO.N,Net-(D2-PadR)*
X-2370800Y5884000D03*
G04 #@! TO.N,Net-(D2-PadB)*
X-3365248Y5978156D03*
G04 #@! TO.N,Net-(U1-Pad11)*
X-3370794Y4496500D03*
X-3370800Y3061502D03*
G04 #@! TO.N,GND*
X659200Y4021500D03*
X659200Y2871500D03*
X-500800Y2871500D03*
X-500800Y4021500D03*
X2529200Y5846500D03*
X3829200Y5646500D03*
X7879200Y2811500D03*
X1809348Y-2788500D03*
X1204210Y-5488500D03*
X3020214Y-4358231D03*
X5629200Y4511500D03*
X-2484917Y897383D03*
G04 #@! TD*
D11*
G04 #@! TO.N,/HD+*
X4629200Y2096500D02*
X5700000Y1326500D01*
X2179200Y-563500D02*
X2179200Y-638500D01*
X1664200Y-48500D02*
X2179200Y-563500D01*
X1339200Y-48500D02*
X1664200Y-48500D01*
X829200Y1009000D02*
X829200Y461500D01*
X829200Y461500D02*
X1339200Y-48500D01*
X2669200Y-148500D02*
X2179200Y-638500D01*
G04 #@! TO.N,/HD-*
X4629200Y-2053500D02*
X5700000Y-1213500D01*
X460868Y158066D02*
X710867Y-91933D01*
X960866Y-341932D02*
X710867Y-91933D01*
X1207434Y-588500D02*
X960866Y-341932D01*
X1229200Y-588500D02*
X1207434Y-588500D01*
X329200Y289734D02*
X460868Y158066D01*
X329200Y1009000D02*
X329200Y289734D01*
G04 #@! TO.N,/Button*
X2179200Y-6853500D02*
X2164200Y-6838500D01*
D31*
X2164200Y-6838500D02*
X1882753Y-6838500D01*
D11*
X2064200Y-6838500D02*
X2129200Y-6903500D01*
X1029200Y-6838500D02*
X2064200Y-6838500D01*
X3064200Y-6903500D02*
X2129200Y-6903500D01*
X3529200Y-6438500D02*
X3064200Y-6903500D01*
X4279200Y-6323500D02*
X4164200Y-6438500D01*
X4164200Y-6438500D02*
X3529200Y-6438500D01*
X-2935800Y2196500D02*
X-3370800Y1761500D01*
X-2358300Y2196500D02*
X-2935800Y2196500D01*
G04 #@! TO.N,Net-(P1-Pad1)*
X-1470804Y-3438502D02*
X-1470804Y-3438438D01*
X-1397930Y-3411370D02*
X-1470800Y-3338500D01*
X-1470800Y-3868500D02*
X-1397930Y-3795630D01*
D32*
X-1397930Y-3795630D02*
X-1397930Y-3411370D01*
D31*
G04 #@! TO.N,Net-(R2-Pad2)*
X-155800Y-6938500D02*
X-1470800Y-6938500D01*
D32*
G04 #@! TO.N,Net-(R1-Pad2)*
X-135800Y-4988500D02*
X-1470800Y-4988500D01*
D11*
G04 #@! TO.N,/Button_reset*
X2129200Y-5003500D02*
X3264206Y-5003500D01*
X3264206Y-5003500D02*
X3279206Y-4988500D01*
X2516700Y1696500D02*
X2516700Y1111466D01*
G04 #@! TO.N,Net-(C5-Pad1)*
X6999600Y5683770D02*
X5626930Y5683770D01*
D33*
X5651470Y5683770D02*
X4814200Y4846500D01*
D11*
X6999600Y5683770D02*
X5651470Y5683770D01*
X6186870Y6496500D02*
X6999600Y5683770D01*
D32*
X4814200Y6496500D02*
X6186870Y6496500D01*
D11*
G04 #@! TO.N,+5V*
X5929200Y-2703500D02*
X5929200Y-2712700D01*
D32*
X5229200Y-3068500D02*
X4179200Y-3068500D01*
D33*
X5929200Y-2712700D02*
X6970000Y-3753500D01*
D31*
X3229200Y-2461000D02*
X3229200Y-2768500D01*
X3079200Y-2311000D02*
X3229200Y-2461000D01*
X2519200Y-2768500D02*
X2519200Y-2311000D01*
D11*
X2679200Y-2328500D02*
X2519200Y-2488500D01*
X2679200Y-2311000D02*
X2679200Y-2328500D01*
X2519200Y-2488500D02*
X2519200Y-2788500D01*
D31*
X2679200Y-2311000D02*
X3079200Y-2311000D01*
X2519200Y-2311000D02*
X2679200Y-2311000D01*
D32*
X3879200Y-2768500D02*
X3243602Y-2768500D01*
X4179200Y-3068500D02*
X3879200Y-2768500D01*
D11*
X2519200Y-2311000D02*
X2519200Y-2303500D01*
D32*
X5594200Y-2703500D02*
X5929200Y-2703500D01*
X5229200Y-3068500D02*
X5594200Y-2703500D01*
D31*
X-4970800Y-5438500D02*
X-4970800Y-7353500D01*
X-4070800Y-4478500D02*
X-4070800Y-4538500D01*
X-4070800Y-4538500D02*
X-4970800Y-5438500D01*
D11*
X2199200Y-6023500D02*
X2129200Y-5953500D01*
X3529200Y-6023500D02*
X2199200Y-6023500D01*
X4199200Y-5353500D02*
X3529200Y-6023500D01*
X4314200Y-5353500D02*
X4199200Y-5353500D01*
D32*
X2529200Y-2338500D02*
X2239200Y-2048500D01*
D11*
X2519200Y-2488500D02*
X2519200Y-2278500D01*
D31*
X4613368Y-5019332D02*
X4279200Y-5353500D01*
X4954200Y-4678500D02*
X4613368Y-5019332D01*
X6045000Y-4678500D02*
X4954200Y-4678500D01*
X6970000Y-3753500D02*
X6045000Y-4678500D01*
D11*
G04 #@! TO.N,+3V3*
X5864200Y2861500D02*
X5979200Y2746500D01*
D34*
X-1670800Y76500D02*
X-1985800Y-238500D01*
X-1670800Y1009000D02*
X-1670800Y-138500D01*
X-1935800Y-403500D02*
X-1935800Y-1553500D01*
D11*
X629199Y-2888499D02*
X629199Y-2788501D01*
D32*
X2229200Y-3708500D02*
X2519200Y-3708500D01*
X2229200Y-3708500D02*
X1999200Y-3708500D01*
X1999200Y-3708500D02*
X1629200Y-3338500D01*
X1629200Y-3338500D02*
X1175646Y-3338500D01*
X1075647Y-3338500D02*
X679200Y-2942053D01*
X1175646Y-3338500D02*
X1075647Y-3338500D01*
D11*
X-155800Y-2588500D02*
X-170800Y-2573500D01*
X579200Y-2788500D02*
X-255800Y-2788500D01*
D32*
X6029200Y2846500D02*
X3344200Y2846500D01*
D11*
X875645Y-3038499D02*
X1175646Y-3338500D01*
X829199Y-3038499D02*
X875645Y-3038499D01*
X579200Y-2788500D02*
X829199Y-3038499D01*
X-1920800Y-1088500D02*
X-1985800Y-1153500D01*
X-1985800Y-1153500D02*
X-1985800Y-1620166D01*
X-3655800Y-2938500D02*
X-3955800Y-3238500D01*
X-3155800Y-2438500D02*
X-3655800Y-2938500D01*
X-1935800Y-1553500D02*
X-2820800Y-2438500D01*
X-2820800Y-2438500D02*
X-3155800Y-2438500D01*
X-6320800Y-1238500D02*
X-6070800Y-988500D01*
X-7320800Y-1238500D02*
X-6320800Y-1238500D01*
X-8835800Y-753500D02*
X-7805800Y-753500D01*
X-9314036Y-1231736D02*
X-8835800Y-753500D01*
X-10504036Y-1231736D02*
X-9314036Y-1231736D01*
X-7805800Y-753500D02*
X-7320800Y-1238500D01*
X-11070800Y-7088500D02*
X-11070800Y-1798500D01*
X-4005800Y-3288500D02*
X-5770800Y-5053500D01*
X-11070800Y-1798500D02*
X-10504036Y-1231736D01*
X-4005800Y-3238500D02*
X-4005800Y-3288500D01*
X-5770800Y-5053500D02*
X-5770800Y-6588500D01*
X-5770800Y-6588500D02*
X-6670800Y-7488500D01*
X-6070800Y-988500D02*
X-6070800Y-803500D01*
X-6670800Y-7488500D02*
X-10670800Y-7488500D01*
X-10670800Y-7488500D02*
X-11070800Y-7088500D01*
D31*
X2575647Y-1288492D02*
X2929200Y-1288492D01*
X1059208Y-1288492D02*
X2575647Y-1288492D01*
X579200Y-2788500D02*
X579200Y-1768500D01*
X579200Y-1768500D02*
X1059208Y-1288492D01*
D32*
G04 #@! TO.N,Net-(D2-PadA)*
X-1520800Y7381500D02*
X-1560800Y7421500D01*
X-805800Y7211500D02*
X-975800Y7381500D01*
X-975800Y7381500D02*
X-1520800Y7381500D01*
D11*
G04 #@! TO.N,Net-(U1-Pad3)*
X-6570800Y3311500D02*
X-6570800Y2461500D01*
X-4685798Y5196502D02*
X-5220800Y4661500D01*
X-3970800Y5196502D02*
X-4685798Y5196502D01*
X-6570800Y3311500D02*
X-5220800Y4661500D01*
X-4235798Y5196502D02*
X-3970800Y5196502D01*
X-3970800Y5196502D02*
X-3370760Y5196502D01*
X829200Y6471500D02*
X1139200Y6781500D01*
X829200Y5884000D02*
X829200Y6471500D01*
G04 #@! TO.N,Net-(D2-PadG)*
X-1170800Y6401500D02*
X-1560800Y6791500D01*
X-1170800Y5884000D02*
X-1170800Y6401500D01*
G04 #@! TO.N,Net-(D2-PadR)*
X-1670800Y5884000D02*
X-2493300Y5884000D01*
G04 #@! TO.N,Net-(D2-PadB)*
X-2358300Y5196500D02*
X-2505800Y5196500D01*
X-2583592Y5196500D02*
X-2358300Y5196500D01*
D31*
X-3365248Y5978156D02*
X-2583592Y5196500D01*
D11*
G04 #@! TO.N,Net-(U1-Pad11)*
X-2408301Y4246501D02*
X-3120795Y4246501D01*
X-5070800Y2911500D02*
X-4920798Y3061502D01*
X-2358300Y4196500D02*
X-2408301Y4246501D01*
X-3724353Y3061502D02*
X-3370800Y3061502D01*
X-4920798Y3061502D02*
X-3724353Y3061502D01*
X-3120795Y4246501D02*
X-3370794Y4496500D01*
X-5070800Y2461500D02*
X-5070800Y2911500D01*
G04 #@! TO.N,Net-(U1-Pad12)*
X-6070800Y3161500D02*
X-6070800Y2646500D01*
X-5320800Y3911500D02*
X-6070800Y3161500D01*
X-2930800Y3911500D02*
X-5320800Y3911500D01*
X-2358300Y3696500D02*
X-2715800Y3696500D01*
X-2715800Y3696500D02*
X-2930800Y3911500D01*
G04 #@! TO.N,Net-(U1-Pad13)*
X-2403300Y3241500D02*
X-2358300Y3196500D01*
X-2760456Y3241500D02*
X-2403300Y3241500D01*
X-3080456Y3561500D02*
X-2760456Y3241500D01*
X-4920800Y3561500D02*
X-3080456Y3561500D01*
X-5570800Y2461500D02*
X-5570800Y2911500D01*
X-5570800Y2911500D02*
X-4920800Y3561500D01*
G04 #@! TO.N,Net-(U1-Pad14)*
X-2944200Y2696500D02*
X-2358300Y2696500D01*
X-4570800Y2461500D02*
X-3179200Y2461500D01*
X-3179200Y2461500D02*
X-2944200Y2696500D01*
G04 #@! TO.N,/SWDIO*
X7100012Y-73512D02*
X7340001Y-313501D01*
X7340001Y-313501D02*
X8240000Y-1213500D01*
X4829200Y-73512D02*
X7100012Y-73512D01*
X4533466Y-73512D02*
X4829200Y-73512D01*
X1329200Y651500D02*
X1329200Y1009000D01*
X1654198Y326502D02*
X1329200Y651500D01*
X3484198Y326502D02*
X1654198Y326502D01*
X4829200Y-73512D02*
X3884212Y-73512D01*
X3884212Y-73512D02*
X3484198Y326502D01*
G04 #@! TO.N,/SWCLK*
X1904235Y636465D02*
X1829200Y711500D01*
X1829200Y711500D02*
X1829200Y1009000D01*
X2029200Y661500D02*
X1879200Y811500D01*
X2029200Y636465D02*
X2029200Y661500D01*
X2029200Y636465D02*
X1904235Y636465D01*
X3654235Y636465D02*
X2029200Y636465D01*
X4064201Y226499D02*
X3654235Y636465D01*
X8240000Y1326500D02*
X7139999Y226499D01*
X7139999Y226499D02*
X4064201Y226499D01*
G04 #@! TO.N,Net-(SJ1-Pad1)*
X-8235800Y461500D02*
X-8320800Y546500D01*
X-7388208Y461500D02*
X-8235800Y461500D01*
X-7220800Y294092D02*
X-7388208Y461500D01*
X-7220800Y-213500D02*
X-7220800Y-38500D01*
X-6895800Y-538500D02*
X-7220800Y-213500D01*
X-6570800Y-538500D02*
X-6895800Y-538500D01*
X-7220800Y-38500D02*
X-7220800Y294092D01*
G04 #@! TO.N,Net-(L2-Pad2)*
X-8270000Y-2538500D02*
X-8775000Y-3043500D01*
X-6720800Y-2538500D02*
X-8270000Y-2538500D01*
X-5570800Y-803500D02*
X-5570800Y-1388500D01*
X-5570800Y-1388500D02*
X-6720800Y-2538500D01*
G04 #@! TO.N,Net-(L2-Pad1)*
X-8325000Y-5743500D02*
X-8775000Y-5743500D01*
X-8170000Y-5138500D02*
X-8775000Y-5743500D01*
X-6870800Y-5138500D02*
X-8170000Y-5138500D01*
X-5070800Y-3338500D02*
X-6870800Y-5138500D01*
X-5070800Y-803500D02*
X-5070800Y-3338500D01*
G04 #@! TO.N,/I2C_SCL*
X-3070800Y-3523500D02*
X-2935800Y-3388500D01*
X-3070800Y-4478500D02*
X-3070800Y-3523500D01*
X-2935800Y-3388500D02*
X-2935800Y-3303500D01*
X-2935800Y-3127778D02*
X-2935800Y-3388500D01*
X-1620800Y-2138500D02*
X-1946522Y-2138500D01*
X-670800Y1009000D02*
X-670800Y-1188500D01*
X-670800Y-1188500D02*
X-1620800Y-2138500D01*
X-1946522Y-2138500D02*
X-2935800Y-3127778D01*
G04 #@! TO.N,/I2C_SDA*
X-170800Y471500D02*
X-170800Y1009000D01*
X-170800Y-1538500D02*
X-170800Y921500D01*
X-2570800Y-4478500D02*
X-2570800Y-3838500D01*
X-2370800Y-3638500D02*
X-2370800Y-3117498D01*
X-2370800Y-3117498D02*
X-1691813Y-2438511D01*
X-1691813Y-2438511D02*
X-1070811Y-2438511D01*
X-2570800Y-3838500D02*
X-2370800Y-3638500D01*
X-1070811Y-2438511D02*
X-170800Y-1538500D01*
D32*
G04 #@! TO.N,GND*
X7279200Y4046500D02*
X7829200Y4596500D01*
D35*
X5229200Y3846500D02*
X5779200Y4396500D01*
D11*
X-905800Y-5853500D02*
X-920800Y-5868500D01*
X-135800Y-5968500D02*
X-1470800Y-5968500D01*
X2529200Y5209000D02*
X2516700Y5196500D01*
D34*
X2529200Y5846500D02*
X2529200Y5209000D01*
D32*
X3829200Y6491500D02*
X3829200Y4841500D01*
D31*
X1829200Y5196500D02*
X79200Y3446500D01*
X2516700Y5196500D02*
X1829200Y5196500D01*
X-1670800Y1696500D02*
X79200Y3446500D01*
X-2358300Y1696500D02*
X-1670800Y1696500D01*
D35*
X5179200Y3896500D02*
X5729200Y4446500D01*
D11*
X6970000Y3866500D02*
X6299200Y3866500D01*
D32*
X7020000Y3916500D02*
X5929200Y3546500D01*
X3464200Y-4038500D02*
X4179200Y-4038500D01*
D11*
X7879200Y2957300D02*
X6970000Y3866500D01*
X7879200Y2811500D02*
X7879200Y2957300D01*
X5679200Y4381500D02*
X5679200Y4546500D01*
D32*
X5679200Y4546500D02*
X6970000Y3866500D01*
X4109200Y3831500D02*
X4129200Y3831500D01*
X3844200Y4846500D02*
X3844200Y4096500D01*
X3844200Y4096500D02*
X4109200Y3831500D01*
D11*
X3266700Y-3776000D02*
X3266700Y-4051000D01*
D32*
X3409200Y-3818500D02*
X3509200Y-3818500D01*
X3354200Y-3763500D02*
X3409200Y-3818500D01*
G04 #@! TD*
D11*
G04 #@! TO.N,GND*
G36*
X-1945800Y7728252D02*
X-1963486Y7710566D01*
X-2035800Y7535983D01*
X-2035800Y7347017D01*
X-1963486Y7172434D01*
X-1945800Y7154748D01*
X-1945800Y7068252D01*
X-1963486Y7050566D01*
X-2035800Y6875983D01*
X-2035800Y6687017D01*
X-1963486Y6512434D01*
X-1945800Y6494748D01*
X-1945800Y6456296D01*
X-2002988Y6370708D01*
X-2025208Y6259000D01*
X-2025208Y6210160D01*
X-2101734Y6286686D01*
X-2276317Y6359000D01*
X-2465283Y6359000D01*
X-2639866Y6286686D01*
X-2773486Y6153066D01*
X-2845800Y5978483D01*
X-2845800Y5918326D01*
X-2890248Y5962774D01*
X-2890248Y6072639D01*
X-2962562Y6247222D01*
X-3096182Y6380842D01*
X-3270765Y6453156D01*
X-3459731Y6453156D01*
X-3634314Y6380842D01*
X-3767934Y6247222D01*
X-3840248Y6072639D01*
X-3840248Y5883673D01*
X-3767934Y5709090D01*
X-3648929Y5590085D01*
X-3742512Y5496502D01*
X-4656254Y5496502D01*
X-4685799Y5502379D01*
X-4791697Y5481314D01*
X-4802852Y5479095D01*
X-4902086Y5412790D01*
X-4918823Y5387741D01*
X-5412038Y4894525D01*
X-5412041Y4894523D01*
X-6762036Y3544527D01*
X-6787088Y3527788D01*
X-6829583Y3464188D01*
X-6853393Y3428553D01*
X-6876677Y3311500D01*
X-6870800Y3281955D01*
X-6870800Y2948583D01*
X-6908016Y2923716D01*
X-6957745Y2849291D01*
X-6975208Y2761500D01*
X-6975208Y2161500D01*
X-6957745Y2073709D01*
X-6908016Y1999284D01*
X-6833591Y1949555D01*
X-6745800Y1932092D01*
X-6395800Y1932092D01*
X-6320800Y1947011D01*
X-6245800Y1932092D01*
X-5895800Y1932092D01*
X-5820800Y1947011D01*
X-5745800Y1932092D01*
X-5395800Y1932092D01*
X-5320800Y1947011D01*
X-5245800Y1932092D01*
X-4895800Y1932092D01*
X-4820800Y1947011D01*
X-4745800Y1932092D01*
X-4395800Y1932092D01*
X-4308009Y1949555D01*
X-4233584Y1999284D01*
X-4183855Y2073709D01*
X-4166392Y2161500D01*
X-3642552Y2161500D01*
X-3773486Y2030566D01*
X-3845800Y1855983D01*
X-3845800Y1667017D01*
X-3773486Y1492434D01*
X-3639866Y1358814D01*
X-3465283Y1286500D01*
X-3276317Y1286500D01*
X-3101734Y1358814D01*
X-2968114Y1492434D01*
X-2895800Y1667017D01*
X-2895800Y1812236D01*
X-2843937Y1864099D01*
X-2733300Y1842092D01*
X-1983300Y1842092D01*
X-1945800Y1849551D01*
X-1945800Y1581296D01*
X-2002988Y1495708D01*
X-2025208Y1384000D01*
X-2025208Y634000D01*
X-2020800Y611838D01*
X-2020799Y279699D01*
X-2172291Y128207D01*
X-2227536Y117218D01*
X-2349814Y35514D01*
X-2431518Y-86764D01*
X-2460208Y-231000D01*
X-2460208Y-576000D01*
X-2431518Y-720236D01*
X-2349814Y-842514D01*
X-2295800Y-878605D01*
X-2295800Y-1078395D01*
X-2349814Y-1114486D01*
X-2431518Y-1236764D01*
X-2460208Y-1381000D01*
X-2460208Y-1653644D01*
X-2945063Y-2138500D01*
X-3126255Y-2138500D01*
X-3155800Y-2132623D01*
X-3185345Y-2138500D01*
X-3272854Y-2155907D01*
X-3372088Y-2222212D01*
X-3388824Y-2247260D01*
X-3830655Y-2689092D01*
X-4103300Y-2689092D01*
X-4247536Y-2717782D01*
X-4369814Y-2799486D01*
X-4451518Y-2921764D01*
X-4480208Y-3066000D01*
X-4480208Y-3338644D01*
X-5962036Y-4820473D01*
X-5987088Y-4837212D01*
X-6032700Y-4905477D01*
X-6053393Y-4936447D01*
X-6076677Y-5053500D01*
X-6070800Y-5083045D01*
X-6070799Y-6464235D01*
X-6795063Y-7188500D01*
X-10546536Y-7188500D01*
X-10770800Y-6964237D01*
X-10770800Y-1922763D01*
X-10379772Y-1531736D01*
X-9343581Y-1531736D01*
X-9314036Y-1537613D01*
X-9284491Y-1531736D01*
X-9196982Y-1514329D01*
X-9097748Y-1448024D01*
X-9081009Y-1422972D01*
X-8790858Y-1132821D01*
X-8760697Y-1141970D01*
X-8664564Y-1161092D01*
X-8619809Y-1165500D01*
X-8582906Y-1165500D01*
X-8570800Y-1167908D01*
X-8070800Y-1167908D01*
X-8058694Y-1165500D01*
X-8021791Y-1165500D01*
X-7977036Y-1161092D01*
X-7880903Y-1141970D01*
X-7850742Y-1132821D01*
X-7553825Y-1429739D01*
X-7537088Y-1454788D01*
X-7440422Y-1519377D01*
X-7437854Y-1521093D01*
X-7320800Y-1544377D01*
X-7291255Y-1538500D01*
X-6350345Y-1538500D01*
X-6320800Y-1544377D01*
X-6291255Y-1538500D01*
X-6203746Y-1521093D01*
X-6104512Y-1454788D01*
X-6087773Y-1429737D01*
X-5879561Y-1221525D01*
X-5870799Y-1215671D01*
X-5870799Y-1264235D01*
X-6845063Y-2238500D01*
X-6995592Y-2238500D01*
X-6995592Y-1943500D01*
X-7013055Y-1855709D01*
X-7062784Y-1781284D01*
X-7137209Y-1731555D01*
X-7225000Y-1714092D01*
X-10325000Y-1714092D01*
X-10412791Y-1731555D01*
X-10487216Y-1781284D01*
X-10536945Y-1855709D01*
X-10554408Y-1943500D01*
X-10554408Y-4143500D01*
X-10536945Y-4231291D01*
X-10487216Y-4305716D01*
X-10412791Y-4355445D01*
X-10325000Y-4372908D01*
X-7225000Y-4372908D01*
X-7137209Y-4355445D01*
X-7062784Y-4305716D01*
X-7013055Y-4231291D01*
X-6995592Y-4143500D01*
X-6995592Y-2838500D01*
X-6750345Y-2838500D01*
X-6720800Y-2844377D01*
X-6691255Y-2838500D01*
X-6603746Y-2821093D01*
X-6504512Y-2754788D01*
X-6487773Y-2729736D01*
X-5379561Y-1621525D01*
X-5370800Y-1615671D01*
X-5370799Y-3214235D01*
X-6995063Y-4838500D01*
X-6995592Y-4838500D01*
X-6995592Y-4643500D01*
X-7013055Y-4555709D01*
X-7062784Y-4481284D01*
X-7137209Y-4431555D01*
X-7225000Y-4414092D01*
X-10325000Y-4414092D01*
X-10412791Y-4431555D01*
X-10487216Y-4481284D01*
X-10536945Y-4555709D01*
X-10554408Y-4643500D01*
X-10554408Y-6843500D01*
X-10536945Y-6931291D01*
X-10487216Y-7005716D01*
X-10412791Y-7055445D01*
X-10325000Y-7072908D01*
X-7225000Y-7072908D01*
X-7137209Y-7055445D01*
X-7062784Y-7005716D01*
X-7013055Y-6931291D01*
X-6995592Y-6843500D01*
X-6995592Y-5438500D01*
X-6900345Y-5438500D01*
X-6870800Y-5444377D01*
X-6841255Y-5438500D01*
X-6753746Y-5421093D01*
X-6654512Y-5354788D01*
X-6637773Y-5329736D01*
X-4879561Y-3571525D01*
X-4854512Y-3554788D01*
X-4788207Y-3455554D01*
X-4770800Y-3368045D01*
X-4764923Y-3338501D01*
X-4770800Y-3308957D01*
X-4770800Y-1025583D01*
X-4733584Y-1000716D01*
X-4683855Y-926291D01*
X-4666392Y-838500D01*
X-4666392Y-238500D01*
X-4683855Y-150709D01*
X-4733584Y-76284D01*
X-4808009Y-26555D01*
X-4895800Y-9092D01*
X-5245800Y-9092D01*
X-5320800Y-24011D01*
X-5395800Y-9092D01*
X-5745800Y-9092D01*
X-5820800Y-24011D01*
X-5895800Y-9092D01*
X-6245800Y-9092D01*
X-6320800Y-24011D01*
X-6395800Y-9092D01*
X-6745800Y-9092D01*
X-6833591Y-26555D01*
X-6908016Y-76284D01*
X-6918325Y-91712D01*
X-6920800Y-89237D01*
X-6920800Y264547D01*
X-6914923Y294092D01*
X-6938207Y411146D01*
X-6944523Y420599D01*
X-7004512Y510380D01*
X-7029564Y527119D01*
X-7155181Y652736D01*
X-7171920Y677788D01*
X-7271154Y744093D01*
X-7341392Y758065D01*
X-7341392Y861500D01*
X-7343800Y873606D01*
X-7343800Y910509D01*
X-7348208Y955264D01*
X-7367330Y1051397D01*
X-7380384Y1094432D01*
X-7417893Y1184988D01*
X-7439093Y1224650D01*
X-7493549Y1306149D01*
X-7522079Y1340913D01*
X-7591387Y1410221D01*
X-7626151Y1438751D01*
X-7707650Y1493207D01*
X-7747312Y1514407D01*
X-7837868Y1551916D01*
X-7880903Y1564970D01*
X-7977036Y1584092D01*
X-8021791Y1588500D01*
X-8058694Y1588500D01*
X-8070800Y1590908D01*
X-8570800Y1590908D01*
X-8582906Y1588500D01*
X-8619809Y1588500D01*
X-8664564Y1584092D01*
X-8760697Y1564970D01*
X-8803732Y1551916D01*
X-8894288Y1514407D01*
X-8933950Y1493207D01*
X-9015449Y1438751D01*
X-9050213Y1410221D01*
X-9119521Y1340913D01*
X-9148051Y1306149D01*
X-9202507Y1224650D01*
X-9223707Y1184988D01*
X-9261216Y1094432D01*
X-9274270Y1051397D01*
X-9293392Y955264D01*
X-9297800Y910509D01*
X-9297800Y873606D01*
X-9300208Y861500D01*
X-9300208Y361500D01*
X-9282745Y273709D01*
X-9241178Y211500D01*
X-9282745Y149291D01*
X-9300208Y61500D01*
X-9300208Y-438500D01*
X-9297800Y-450606D01*
X-9297800Y-487509D01*
X-9293392Y-532264D01*
X-9274270Y-628397D01*
X-9261216Y-671432D01*
X-9236842Y-730278D01*
X-9438299Y-931736D01*
X-10474493Y-931736D01*
X-10504037Y-925859D01*
X-10533581Y-931736D01*
X-10621090Y-949143D01*
X-10720324Y-1015448D01*
X-10737060Y-1040496D01*
X-11262038Y-1565475D01*
X-11287087Y-1582212D01*
X-11303823Y-1607260D01*
X-11353393Y-1681447D01*
X-11376677Y-1798500D01*
X-11370799Y-1828050D01*
X-11370800Y-7058955D01*
X-11376677Y-7088500D01*
X-11370800Y-7118044D01*
X-11353393Y-7205553D01*
X-11287088Y-7304788D01*
X-11262036Y-7321527D01*
X-10903825Y-7679739D01*
X-10887088Y-7704788D01*
X-10787854Y-7771093D01*
X-10700345Y-7788500D01*
X-10670801Y-7794377D01*
X-10641257Y-7788500D01*
X-6700345Y-7788500D01*
X-6670800Y-7794377D01*
X-6641255Y-7788500D01*
X-6553746Y-7771093D01*
X-6454512Y-7704788D01*
X-6437773Y-7679736D01*
X-5579561Y-6821525D01*
X-5554512Y-6804788D01*
X-5488207Y-6705554D01*
X-5470800Y-6618045D01*
X-5464923Y-6588501D01*
X-5470800Y-6558957D01*
X-5470800Y-5177763D01*
X-4438704Y-4145668D01*
X-4450208Y-4203500D01*
X-4450208Y-4458288D01*
X-5177971Y-5186053D01*
X-5205112Y-5204188D01*
X-5271469Y-5303500D01*
X-5276943Y-5311692D01*
X-5302167Y-5438500D01*
X-5295800Y-5470509D01*
X-5295799Y-7141747D01*
X-5373486Y-7219434D01*
X-5445800Y-7394017D01*
X-5445800Y-7582983D01*
X-5373486Y-7757566D01*
X-5252082Y-7878970D01*
X-12000470Y-7878970D01*
X-12000470Y7110875D01*
X-11745800Y7110875D01*
X-11745800Y6882125D01*
X-11658262Y6670789D01*
X-11496511Y6509038D01*
X-11285175Y6421500D01*
X-11056425Y6421500D01*
X-10845089Y6509038D01*
X-10683338Y6670789D01*
X-10595800Y6882125D01*
X-10595800Y7110875D01*
X-10683338Y7322211D01*
X-10845089Y7483962D01*
X-11056425Y7571500D01*
X-11285175Y7571500D01*
X-11496511Y7483962D01*
X-11658262Y7322211D01*
X-11745800Y7110875D01*
X-12000470Y7110875D01*
X-12000470Y7846970D01*
X-1945800Y7846970D01*
X-1945800Y7728252D01*
X-1945800Y7728252D01*
G37*
X-1945800Y7728252D02*
X-1963486Y7710566D01*
X-2035800Y7535983D01*
X-2035800Y7347017D01*
X-1963486Y7172434D01*
X-1945800Y7154748D01*
X-1945800Y7068252D01*
X-1963486Y7050566D01*
X-2035800Y6875983D01*
X-2035800Y6687017D01*
X-1963486Y6512434D01*
X-1945800Y6494748D01*
X-1945800Y6456296D01*
X-2002988Y6370708D01*
X-2025208Y6259000D01*
X-2025208Y6210160D01*
X-2101734Y6286686D01*
X-2276317Y6359000D01*
X-2465283Y6359000D01*
X-2639866Y6286686D01*
X-2773486Y6153066D01*
X-2845800Y5978483D01*
X-2845800Y5918326D01*
X-2890248Y5962774D01*
X-2890248Y6072639D01*
X-2962562Y6247222D01*
X-3096182Y6380842D01*
X-3270765Y6453156D01*
X-3459731Y6453156D01*
X-3634314Y6380842D01*
X-3767934Y6247222D01*
X-3840248Y6072639D01*
X-3840248Y5883673D01*
X-3767934Y5709090D01*
X-3648929Y5590085D01*
X-3742512Y5496502D01*
X-4656254Y5496502D01*
X-4685799Y5502379D01*
X-4791697Y5481314D01*
X-4802852Y5479095D01*
X-4902086Y5412790D01*
X-4918823Y5387741D01*
X-5412038Y4894525D01*
X-5412041Y4894523D01*
X-6762036Y3544527D01*
X-6787088Y3527788D01*
X-6829583Y3464188D01*
X-6853393Y3428553D01*
X-6876677Y3311500D01*
X-6870800Y3281955D01*
X-6870800Y2948583D01*
X-6908016Y2923716D01*
X-6957745Y2849291D01*
X-6975208Y2761500D01*
X-6975208Y2161500D01*
X-6957745Y2073709D01*
X-6908016Y1999284D01*
X-6833591Y1949555D01*
X-6745800Y1932092D01*
X-6395800Y1932092D01*
X-6320800Y1947011D01*
X-6245800Y1932092D01*
X-5895800Y1932092D01*
X-5820800Y1947011D01*
X-5745800Y1932092D01*
X-5395800Y1932092D01*
X-5320800Y1947011D01*
X-5245800Y1932092D01*
X-4895800Y1932092D01*
X-4820800Y1947011D01*
X-4745800Y1932092D01*
X-4395800Y1932092D01*
X-4308009Y1949555D01*
X-4233584Y1999284D01*
X-4183855Y2073709D01*
X-4166392Y2161500D01*
X-3642552Y2161500D01*
X-3773486Y2030566D01*
X-3845800Y1855983D01*
X-3845800Y1667017D01*
X-3773486Y1492434D01*
X-3639866Y1358814D01*
X-3465283Y1286500D01*
X-3276317Y1286500D01*
X-3101734Y1358814D01*
X-2968114Y1492434D01*
X-2895800Y1667017D01*
X-2895800Y1812236D01*
X-2843937Y1864099D01*
X-2733300Y1842092D01*
X-1983300Y1842092D01*
X-1945800Y1849551D01*
X-1945800Y1581296D01*
X-2002988Y1495708D01*
X-2025208Y1384000D01*
X-2025208Y634000D01*
X-2020800Y611838D01*
X-2020799Y279699D01*
X-2172291Y128207D01*
X-2227536Y117218D01*
X-2349814Y35514D01*
X-2431518Y-86764D01*
X-2460208Y-231000D01*
X-2460208Y-576000D01*
X-2431518Y-720236D01*
X-2349814Y-842514D01*
X-2295800Y-878605D01*
X-2295800Y-1078395D01*
X-2349814Y-1114486D01*
X-2431518Y-1236764D01*
X-2460208Y-1381000D01*
X-2460208Y-1653644D01*
X-2945063Y-2138500D01*
X-3126255Y-2138500D01*
X-3155800Y-2132623D01*
X-3185345Y-2138500D01*
X-3272854Y-2155907D01*
X-3372088Y-2222212D01*
X-3388824Y-2247260D01*
X-3830655Y-2689092D01*
X-4103300Y-2689092D01*
X-4247536Y-2717782D01*
X-4369814Y-2799486D01*
X-4451518Y-2921764D01*
X-4480208Y-3066000D01*
X-4480208Y-3338644D01*
X-5962036Y-4820473D01*
X-5987088Y-4837212D01*
X-6032700Y-4905477D01*
X-6053393Y-4936447D01*
X-6076677Y-5053500D01*
X-6070800Y-5083045D01*
X-6070799Y-6464235D01*
X-6795063Y-7188500D01*
X-10546536Y-7188500D01*
X-10770800Y-6964237D01*
X-10770800Y-1922763D01*
X-10379772Y-1531736D01*
X-9343581Y-1531736D01*
X-9314036Y-1537613D01*
X-9284491Y-1531736D01*
X-9196982Y-1514329D01*
X-9097748Y-1448024D01*
X-9081009Y-1422972D01*
X-8790858Y-1132821D01*
X-8760697Y-1141970D01*
X-8664564Y-1161092D01*
X-8619809Y-1165500D01*
X-8582906Y-1165500D01*
X-8570800Y-1167908D01*
X-8070800Y-1167908D01*
X-8058694Y-1165500D01*
X-8021791Y-1165500D01*
X-7977036Y-1161092D01*
X-7880903Y-1141970D01*
X-7850742Y-1132821D01*
X-7553825Y-1429739D01*
X-7537088Y-1454788D01*
X-7440422Y-1519377D01*
X-7437854Y-1521093D01*
X-7320800Y-1544377D01*
X-7291255Y-1538500D01*
X-6350345Y-1538500D01*
X-6320800Y-1544377D01*
X-6291255Y-1538500D01*
X-6203746Y-1521093D01*
X-6104512Y-1454788D01*
X-6087773Y-1429737D01*
X-5879561Y-1221525D01*
X-5870799Y-1215671D01*
X-5870799Y-1264235D01*
X-6845063Y-2238500D01*
X-6995592Y-2238500D01*
X-6995592Y-1943500D01*
X-7013055Y-1855709D01*
X-7062784Y-1781284D01*
X-7137209Y-1731555D01*
X-7225000Y-1714092D01*
X-10325000Y-1714092D01*
X-10412791Y-1731555D01*
X-10487216Y-1781284D01*
X-10536945Y-1855709D01*
X-10554408Y-1943500D01*
X-10554408Y-4143500D01*
X-10536945Y-4231291D01*
X-10487216Y-4305716D01*
X-10412791Y-4355445D01*
X-10325000Y-4372908D01*
X-7225000Y-4372908D01*
X-7137209Y-4355445D01*
X-7062784Y-4305716D01*
X-7013055Y-4231291D01*
X-6995592Y-4143500D01*
X-6995592Y-2838500D01*
X-6750345Y-2838500D01*
X-6720800Y-2844377D01*
X-6691255Y-2838500D01*
X-6603746Y-2821093D01*
X-6504512Y-2754788D01*
X-6487773Y-2729736D01*
X-5379561Y-1621525D01*
X-5370800Y-1615671D01*
X-5370799Y-3214235D01*
X-6995063Y-4838500D01*
X-6995592Y-4838500D01*
X-6995592Y-4643500D01*
X-7013055Y-4555709D01*
X-7062784Y-4481284D01*
X-7137209Y-4431555D01*
X-7225000Y-4414092D01*
X-10325000Y-4414092D01*
X-10412791Y-4431555D01*
X-10487216Y-4481284D01*
X-10536945Y-4555709D01*
X-10554408Y-4643500D01*
X-10554408Y-6843500D01*
X-10536945Y-6931291D01*
X-10487216Y-7005716D01*
X-10412791Y-7055445D01*
X-10325000Y-7072908D01*
X-7225000Y-7072908D01*
X-7137209Y-7055445D01*
X-7062784Y-7005716D01*
X-7013055Y-6931291D01*
X-6995592Y-6843500D01*
X-6995592Y-5438500D01*
X-6900345Y-5438500D01*
X-6870800Y-5444377D01*
X-6841255Y-5438500D01*
X-6753746Y-5421093D01*
X-6654512Y-5354788D01*
X-6637773Y-5329736D01*
X-4879561Y-3571525D01*
X-4854512Y-3554788D01*
X-4788207Y-3455554D01*
X-4770800Y-3368045D01*
X-4764923Y-3338501D01*
X-4770800Y-3308957D01*
X-4770800Y-1025583D01*
X-4733584Y-1000716D01*
X-4683855Y-926291D01*
X-4666392Y-838500D01*
X-4666392Y-238500D01*
X-4683855Y-150709D01*
X-4733584Y-76284D01*
X-4808009Y-26555D01*
X-4895800Y-9092D01*
X-5245800Y-9092D01*
X-5320800Y-24011D01*
X-5395800Y-9092D01*
X-5745800Y-9092D01*
X-5820800Y-24011D01*
X-5895800Y-9092D01*
X-6245800Y-9092D01*
X-6320800Y-24011D01*
X-6395800Y-9092D01*
X-6745800Y-9092D01*
X-6833591Y-26555D01*
X-6908016Y-76284D01*
X-6918325Y-91712D01*
X-6920800Y-89237D01*
X-6920800Y264547D01*
X-6914923Y294092D01*
X-6938207Y411146D01*
X-6944523Y420599D01*
X-7004512Y510380D01*
X-7029564Y527119D01*
X-7155181Y652736D01*
X-7171920Y677788D01*
X-7271154Y744093D01*
X-7341392Y758065D01*
X-7341392Y861500D01*
X-7343800Y873606D01*
X-7343800Y910509D01*
X-7348208Y955264D01*
X-7367330Y1051397D01*
X-7380384Y1094432D01*
X-7417893Y1184988D01*
X-7439093Y1224650D01*
X-7493549Y1306149D01*
X-7522079Y1340913D01*
X-7591387Y1410221D01*
X-7626151Y1438751D01*
X-7707650Y1493207D01*
X-7747312Y1514407D01*
X-7837868Y1551916D01*
X-7880903Y1564970D01*
X-7977036Y1584092D01*
X-8021791Y1588500D01*
X-8058694Y1588500D01*
X-8070800Y1590908D01*
X-8570800Y1590908D01*
X-8582906Y1588500D01*
X-8619809Y1588500D01*
X-8664564Y1584092D01*
X-8760697Y1564970D01*
X-8803732Y1551916D01*
X-8894288Y1514407D01*
X-8933950Y1493207D01*
X-9015449Y1438751D01*
X-9050213Y1410221D01*
X-9119521Y1340913D01*
X-9148051Y1306149D01*
X-9202507Y1224650D01*
X-9223707Y1184988D01*
X-9261216Y1094432D01*
X-9274270Y1051397D01*
X-9293392Y955264D01*
X-9297800Y910509D01*
X-9297800Y873606D01*
X-9300208Y861500D01*
X-9300208Y361500D01*
X-9282745Y273709D01*
X-9241178Y211500D01*
X-9282745Y149291D01*
X-9300208Y61500D01*
X-9300208Y-438500D01*
X-9297800Y-450606D01*
X-9297800Y-487509D01*
X-9293392Y-532264D01*
X-9274270Y-628397D01*
X-9261216Y-671432D01*
X-9236842Y-730278D01*
X-9438299Y-931736D01*
X-10474493Y-931736D01*
X-10504037Y-925859D01*
X-10533581Y-931736D01*
X-10621090Y-949143D01*
X-10720324Y-1015448D01*
X-10737060Y-1040496D01*
X-11262038Y-1565475D01*
X-11287087Y-1582212D01*
X-11303823Y-1607260D01*
X-11353393Y-1681447D01*
X-11376677Y-1798500D01*
X-11370799Y-1828050D01*
X-11370800Y-7058955D01*
X-11376677Y-7088500D01*
X-11370800Y-7118044D01*
X-11353393Y-7205553D01*
X-11287088Y-7304788D01*
X-11262036Y-7321527D01*
X-10903825Y-7679739D01*
X-10887088Y-7704788D01*
X-10787854Y-7771093D01*
X-10700345Y-7788500D01*
X-10670801Y-7794377D01*
X-10641257Y-7788500D01*
X-6700345Y-7788500D01*
X-6670800Y-7794377D01*
X-6641255Y-7788500D01*
X-6553746Y-7771093D01*
X-6454512Y-7704788D01*
X-6437773Y-7679736D01*
X-5579561Y-6821525D01*
X-5554512Y-6804788D01*
X-5488207Y-6705554D01*
X-5470800Y-6618045D01*
X-5464923Y-6588501D01*
X-5470800Y-6558957D01*
X-5470800Y-5177763D01*
X-4438704Y-4145668D01*
X-4450208Y-4203500D01*
X-4450208Y-4458288D01*
X-5177971Y-5186053D01*
X-5205112Y-5204188D01*
X-5271469Y-5303500D01*
X-5276943Y-5311692D01*
X-5302167Y-5438500D01*
X-5295800Y-5470509D01*
X-5295799Y-7141747D01*
X-5373486Y-7219434D01*
X-5445800Y-7394017D01*
X-5445800Y-7582983D01*
X-5373486Y-7757566D01*
X-5252082Y-7878970D01*
X-12000470Y-7878970D01*
X-12000470Y7110875D01*
X-11745800Y7110875D01*
X-11745800Y6882125D01*
X-11658262Y6670789D01*
X-11496511Y6509038D01*
X-11285175Y6421500D01*
X-11056425Y6421500D01*
X-10845089Y6509038D01*
X-10683338Y6670789D01*
X-10595800Y6882125D01*
X-10595800Y7110875D01*
X-10683338Y7322211D01*
X-10845089Y7483962D01*
X-11056425Y7571500D01*
X-11285175Y7571500D01*
X-11496511Y7483962D01*
X-11658262Y7322211D01*
X-11745800Y7110875D01*
X-12000470Y7110875D01*
X-12000470Y7846970D01*
X-1945800Y7846970D01*
X-1945800Y7728252D01*
G36*
X310134Y-3191186D02*
X460136Y-3253318D01*
X784369Y-3577552D01*
X805288Y-3608859D01*
X836595Y-3629778D01*
X836596Y-3629779D01*
X879580Y-3658500D01*
X929330Y-3691742D01*
X1038716Y-3713500D01*
X1038721Y-3713500D01*
X1075647Y-3720845D01*
X1112573Y-3713500D01*
X1473871Y-3713500D01*
X1707922Y-3947552D01*
X1728841Y-3978859D01*
X1760148Y-3999778D01*
X1760149Y-3999779D01*
X1852881Y-4061741D01*
X1852882Y-4061741D01*
X1852883Y-4061742D01*
X1962269Y-4083500D01*
X1962273Y-4083500D01*
X1999199Y-4090845D01*
X2036126Y-4083500D01*
X2293830Y-4083500D01*
X2313096Y-4096373D01*
X2399200Y-4113500D01*
X2699200Y-4113500D01*
X2785304Y-4096373D01*
X2858299Y-4047599D01*
X2879200Y-4016319D01*
X2900101Y-4047599D01*
X2973096Y-4096373D01*
X3059200Y-4113500D01*
X3359200Y-4113500D01*
X3445304Y-4096373D01*
X3518299Y-4047599D01*
X3567073Y-3974604D01*
X3584200Y-3888500D01*
X3584200Y-3458500D01*
X3567073Y-3372396D01*
X3518299Y-3299401D01*
X3507986Y-3292510D01*
X3518730Y-3238500D01*
X3507986Y-3184490D01*
X3518299Y-3177599D01*
X3541083Y-3143500D01*
X3629792Y-3143500D01*
X3629792Y-3216000D01*
X3658482Y-3360236D01*
X3740186Y-3482514D01*
X3862464Y-3564218D01*
X4006700Y-3592908D01*
X4351700Y-3592908D01*
X4495936Y-3564218D01*
X4618214Y-3482514D01*
X4644282Y-3443500D01*
X4764118Y-3443500D01*
X4790186Y-3482514D01*
X4912464Y-3564218D01*
X5056700Y-3592908D01*
X5401700Y-3592908D01*
X5545936Y-3564218D01*
X5668214Y-3482514D01*
X5749918Y-3360236D01*
X5778608Y-3216000D01*
X5778608Y-3163148D01*
X5947566Y-3332107D01*
X5845000Y-3579724D01*
X5845000Y-4027276D01*
X5959699Y-4304183D01*
X5910382Y-4353500D01*
X4986208Y-4353500D01*
X4954199Y-4347133D01*
X4827391Y-4372357D01*
X4719888Y-4444188D01*
X4701757Y-4471324D01*
X4343989Y-4829092D01*
X4106700Y-4829092D01*
X3962464Y-4857782D01*
X3840186Y-4939486D01*
X3758482Y-5061764D01*
X3729792Y-5206000D01*
X3729792Y-5398644D01*
X3404937Y-5723500D01*
X2888608Y-5723500D01*
X2888608Y-5628500D01*
X2871145Y-5540709D01*
X2829578Y-5478500D01*
X2871145Y-5416291D01*
X2888608Y-5328500D01*
X2888608Y-5303500D01*
X2922454Y-5303500D01*
X3010140Y-5391186D01*
X3184723Y-5463500D01*
X3373689Y-5463500D01*
X3548272Y-5391186D01*
X3681892Y-5257566D01*
X3754206Y-5082983D01*
X3754206Y-4894017D01*
X3681892Y-4719434D01*
X3548272Y-4585814D01*
X3373689Y-4513500D01*
X3184723Y-4513500D01*
X3010140Y-4585814D01*
X2892454Y-4703500D01*
X2888608Y-4703500D01*
X2888608Y-4678500D01*
X2871145Y-4590709D01*
X2821416Y-4516284D01*
X2746991Y-4466555D01*
X2659200Y-4449092D01*
X1599200Y-4449092D01*
X1511409Y-4466555D01*
X1436984Y-4516284D01*
X1387255Y-4590709D01*
X1369792Y-4678500D01*
X1369792Y-5328500D01*
X1387255Y-5416291D01*
X1428822Y-5478500D01*
X1387255Y-5540709D01*
X1369792Y-5628500D01*
X1369792Y-6278500D01*
X1387255Y-6366291D01*
X1428822Y-6428500D01*
X1387255Y-6490709D01*
X1381598Y-6519146D01*
X1298266Y-6435814D01*
X1123683Y-6363500D01*
X934717Y-6363500D01*
X760134Y-6435814D01*
X676802Y-6519146D01*
X671145Y-6490709D01*
X621416Y-6416284D01*
X546991Y-6366555D01*
X459200Y-6349092D01*
X-600800Y-6349092D01*
X-688591Y-6366555D01*
X-763016Y-6416284D01*
X-812745Y-6490709D01*
X-830208Y-6578500D01*
X-830208Y-6613500D01*
X-972308Y-6613500D01*
X-1031786Y-6524486D01*
X-1154064Y-6442782D01*
X-1298300Y-6414092D01*
X-1643300Y-6414092D01*
X-1787536Y-6442782D01*
X-1909814Y-6524486D01*
X-1991518Y-6646764D01*
X-2020208Y-6791000D01*
X-2020208Y-7086000D01*
X-1991518Y-7230236D01*
X-1909814Y-7352514D01*
X-1787536Y-7434218D01*
X-1643300Y-7462908D01*
X-1298300Y-7462908D01*
X-1154064Y-7434218D01*
X-1031786Y-7352514D01*
X-972308Y-7263500D01*
X-823246Y-7263500D01*
X-812745Y-7316291D01*
X-763016Y-7390716D01*
X-688591Y-7440445D01*
X-600800Y-7457908D01*
X459200Y-7457908D01*
X546991Y-7440445D01*
X621416Y-7390716D01*
X671145Y-7316291D01*
X688608Y-7228500D01*
X688608Y-7169660D01*
X760134Y-7241186D01*
X934717Y-7313500D01*
X1123683Y-7313500D01*
X1298266Y-7241186D01*
X1369792Y-7169660D01*
X1369792Y-7228500D01*
X1387255Y-7316291D01*
X1436984Y-7390716D01*
X1511409Y-7440445D01*
X1599200Y-7457908D01*
X2659200Y-7457908D01*
X2746991Y-7440445D01*
X2821416Y-7390716D01*
X2871145Y-7316291D01*
X2888608Y-7228500D01*
X2888608Y-7203500D01*
X3034655Y-7203500D01*
X3064200Y-7209377D01*
X3093745Y-7203500D01*
X3181254Y-7186093D01*
X3280488Y-7119788D01*
X3297227Y-7094736D01*
X3390361Y-7001602D01*
X3370092Y-7103500D01*
X3375470Y-7130537D01*
X3375471Y-7878970D01*
X-4689518Y-7878970D01*
X-4568114Y-7757566D01*
X-4495800Y-7582983D01*
X-4495800Y-7394017D01*
X-4568114Y-7219434D01*
X-4645800Y-7141748D01*
X-4645800Y-5573118D01*
X-4300208Y-5227527D01*
X-4300208Y-6453500D01*
X-4282745Y-6541291D01*
X-4233016Y-6615716D01*
X-4220480Y-6624092D01*
X-4220800Y-6624092D01*
X-4308591Y-6641555D01*
X-4383016Y-6691284D01*
X-4432745Y-6765709D01*
X-4450208Y-6853500D01*
X-4450208Y-7403500D01*
X-4432745Y-7491291D01*
X-4383016Y-7565716D01*
X-4308591Y-7615445D01*
X-4220800Y-7632908D01*
X-3920800Y-7632908D01*
X-3833009Y-7615445D01*
X-3820800Y-7607287D01*
X-3808591Y-7615445D01*
X-3720800Y-7632908D01*
X-3420800Y-7632908D01*
X-3333009Y-7615445D01*
X-3320800Y-7607287D01*
X-3308591Y-7615445D01*
X-3220800Y-7632908D01*
X-2920800Y-7632908D01*
X-2833009Y-7615445D01*
X-2758584Y-7565716D01*
X-2708855Y-7491291D01*
X-2691392Y-7403500D01*
X-2691392Y-6853500D01*
X-2708855Y-6765709D01*
X-2758584Y-6691284D01*
X-2771120Y-6682908D01*
X-2570800Y-6682908D01*
X-2483009Y-6665445D01*
X-2408584Y-6615716D01*
X-2358855Y-6541291D01*
X-2341392Y-6453500D01*
X-2341392Y-5153500D01*
X-2358855Y-5065709D01*
X-2408584Y-4991284D01*
X-2421120Y-4982908D01*
X-2420800Y-4982908D01*
X-2333009Y-4965445D01*
X-2258584Y-4915716D01*
X-2208855Y-4841291D01*
X-2191392Y-4753500D01*
X-2191392Y-4641086D01*
X-2162150Y-4684850D01*
X-2009444Y-4786885D01*
X-2020208Y-4841000D01*
X-2020208Y-5136000D01*
X-1991518Y-5280236D01*
X-1909814Y-5402514D01*
X-1787536Y-5484218D01*
X-1643300Y-5512908D01*
X-1298300Y-5512908D01*
X-1154064Y-5484218D01*
X-1031786Y-5402514D01*
X-1005718Y-5363500D01*
X-823246Y-5363500D01*
X-812745Y-5416291D01*
X-763016Y-5490716D01*
X-688591Y-5540445D01*
X-600800Y-5557908D01*
X459200Y-5557908D01*
X546991Y-5540445D01*
X621416Y-5490716D01*
X671145Y-5416291D01*
X688608Y-5328500D01*
X688608Y-4678500D01*
X671145Y-4590709D01*
X621416Y-4516284D01*
X546991Y-4466555D01*
X459200Y-4449092D01*
X-600800Y-4449092D01*
X-625160Y-4453938D01*
X-620390Y-4446799D01*
X-564536Y-4166000D01*
X-564536Y-3871000D01*
X-620390Y-3590201D01*
X-620428Y-3590144D01*
X-572930Y-3475473D01*
X-572930Y-3272123D01*
X-443300Y-3297908D01*
X-98300Y-3297908D01*
X45936Y-3269218D01*
X168214Y-3187514D01*
X223589Y-3104641D01*
X310134Y-3191186D01*
X310134Y-3191186D01*
G37*
X310134Y-3191186D02*
X460136Y-3253318D01*
X784369Y-3577552D01*
X805288Y-3608859D01*
X836595Y-3629778D01*
X836596Y-3629779D01*
X879580Y-3658500D01*
X929330Y-3691742D01*
X1038716Y-3713500D01*
X1038721Y-3713500D01*
X1075647Y-3720845D01*
X1112573Y-3713500D01*
X1473871Y-3713500D01*
X1707922Y-3947552D01*
X1728841Y-3978859D01*
X1760148Y-3999778D01*
X1760149Y-3999779D01*
X1852881Y-4061741D01*
X1852882Y-4061741D01*
X1852883Y-4061742D01*
X1962269Y-4083500D01*
X1962273Y-4083500D01*
X1999199Y-4090845D01*
X2036126Y-4083500D01*
X2293830Y-4083500D01*
X2313096Y-4096373D01*
X2399200Y-4113500D01*
X2699200Y-4113500D01*
X2785304Y-4096373D01*
X2858299Y-4047599D01*
X2879200Y-4016319D01*
X2900101Y-4047599D01*
X2973096Y-4096373D01*
X3059200Y-4113500D01*
X3359200Y-4113500D01*
X3445304Y-4096373D01*
X3518299Y-4047599D01*
X3567073Y-3974604D01*
X3584200Y-3888500D01*
X3584200Y-3458500D01*
X3567073Y-3372396D01*
X3518299Y-3299401D01*
X3507986Y-3292510D01*
X3518730Y-3238500D01*
X3507986Y-3184490D01*
X3518299Y-3177599D01*
X3541083Y-3143500D01*
X3629792Y-3143500D01*
X3629792Y-3216000D01*
X3658482Y-3360236D01*
X3740186Y-3482514D01*
X3862464Y-3564218D01*
X4006700Y-3592908D01*
X4351700Y-3592908D01*
X4495936Y-3564218D01*
X4618214Y-3482514D01*
X4644282Y-3443500D01*
X4764118Y-3443500D01*
X4790186Y-3482514D01*
X4912464Y-3564218D01*
X5056700Y-3592908D01*
X5401700Y-3592908D01*
X5545936Y-3564218D01*
X5668214Y-3482514D01*
X5749918Y-3360236D01*
X5778608Y-3216000D01*
X5778608Y-3163148D01*
X5947566Y-3332107D01*
X5845000Y-3579724D01*
X5845000Y-4027276D01*
X5959699Y-4304183D01*
X5910382Y-4353500D01*
X4986208Y-4353500D01*
X4954199Y-4347133D01*
X4827391Y-4372357D01*
X4719888Y-4444188D01*
X4701757Y-4471324D01*
X4343989Y-4829092D01*
X4106700Y-4829092D01*
X3962464Y-4857782D01*
X3840186Y-4939486D01*
X3758482Y-5061764D01*
X3729792Y-5206000D01*
X3729792Y-5398644D01*
X3404937Y-5723500D01*
X2888608Y-5723500D01*
X2888608Y-5628500D01*
X2871145Y-5540709D01*
X2829578Y-5478500D01*
X2871145Y-5416291D01*
X2888608Y-5328500D01*
X2888608Y-5303500D01*
X2922454Y-5303500D01*
X3010140Y-5391186D01*
X3184723Y-5463500D01*
X3373689Y-5463500D01*
X3548272Y-5391186D01*
X3681892Y-5257566D01*
X3754206Y-5082983D01*
X3754206Y-4894017D01*
X3681892Y-4719434D01*
X3548272Y-4585814D01*
X3373689Y-4513500D01*
X3184723Y-4513500D01*
X3010140Y-4585814D01*
X2892454Y-4703500D01*
X2888608Y-4703500D01*
X2888608Y-4678500D01*
X2871145Y-4590709D01*
X2821416Y-4516284D01*
X2746991Y-4466555D01*
X2659200Y-4449092D01*
X1599200Y-4449092D01*
X1511409Y-4466555D01*
X1436984Y-4516284D01*
X1387255Y-4590709D01*
X1369792Y-4678500D01*
X1369792Y-5328500D01*
X1387255Y-5416291D01*
X1428822Y-5478500D01*
X1387255Y-5540709D01*
X1369792Y-5628500D01*
X1369792Y-6278500D01*
X1387255Y-6366291D01*
X1428822Y-6428500D01*
X1387255Y-6490709D01*
X1381598Y-6519146D01*
X1298266Y-6435814D01*
X1123683Y-6363500D01*
X934717Y-6363500D01*
X760134Y-6435814D01*
X676802Y-6519146D01*
X671145Y-6490709D01*
X621416Y-6416284D01*
X546991Y-6366555D01*
X459200Y-6349092D01*
X-600800Y-6349092D01*
X-688591Y-6366555D01*
X-763016Y-6416284D01*
X-812745Y-6490709D01*
X-830208Y-6578500D01*
X-830208Y-6613500D01*
X-972308Y-6613500D01*
X-1031786Y-6524486D01*
X-1154064Y-6442782D01*
X-1298300Y-6414092D01*
X-1643300Y-6414092D01*
X-1787536Y-6442782D01*
X-1909814Y-6524486D01*
X-1991518Y-6646764D01*
X-2020208Y-6791000D01*
X-2020208Y-7086000D01*
X-1991518Y-7230236D01*
X-1909814Y-7352514D01*
X-1787536Y-7434218D01*
X-1643300Y-7462908D01*
X-1298300Y-7462908D01*
X-1154064Y-7434218D01*
X-1031786Y-7352514D01*
X-972308Y-7263500D01*
X-823246Y-7263500D01*
X-812745Y-7316291D01*
X-763016Y-7390716D01*
X-688591Y-7440445D01*
X-600800Y-7457908D01*
X459200Y-7457908D01*
X546991Y-7440445D01*
X621416Y-7390716D01*
X671145Y-7316291D01*
X688608Y-7228500D01*
X688608Y-7169660D01*
X760134Y-7241186D01*
X934717Y-7313500D01*
X1123683Y-7313500D01*
X1298266Y-7241186D01*
X1369792Y-7169660D01*
X1369792Y-7228500D01*
X1387255Y-7316291D01*
X1436984Y-7390716D01*
X1511409Y-7440445D01*
X1599200Y-7457908D01*
X2659200Y-7457908D01*
X2746991Y-7440445D01*
X2821416Y-7390716D01*
X2871145Y-7316291D01*
X2888608Y-7228500D01*
X2888608Y-7203500D01*
X3034655Y-7203500D01*
X3064200Y-7209377D01*
X3093745Y-7203500D01*
X3181254Y-7186093D01*
X3280488Y-7119788D01*
X3297227Y-7094736D01*
X3390361Y-7001602D01*
X3370092Y-7103500D01*
X3375470Y-7130537D01*
X3375471Y-7878970D01*
X-4689518Y-7878970D01*
X-4568114Y-7757566D01*
X-4495800Y-7582983D01*
X-4495800Y-7394017D01*
X-4568114Y-7219434D01*
X-4645800Y-7141748D01*
X-4645800Y-5573118D01*
X-4300208Y-5227527D01*
X-4300208Y-6453500D01*
X-4282745Y-6541291D01*
X-4233016Y-6615716D01*
X-4220480Y-6624092D01*
X-4220800Y-6624092D01*
X-4308591Y-6641555D01*
X-4383016Y-6691284D01*
X-4432745Y-6765709D01*
X-4450208Y-6853500D01*
X-4450208Y-7403500D01*
X-4432745Y-7491291D01*
X-4383016Y-7565716D01*
X-4308591Y-7615445D01*
X-4220800Y-7632908D01*
X-3920800Y-7632908D01*
X-3833009Y-7615445D01*
X-3820800Y-7607287D01*
X-3808591Y-7615445D01*
X-3720800Y-7632908D01*
X-3420800Y-7632908D01*
X-3333009Y-7615445D01*
X-3320800Y-7607287D01*
X-3308591Y-7615445D01*
X-3220800Y-7632908D01*
X-2920800Y-7632908D01*
X-2833009Y-7615445D01*
X-2758584Y-7565716D01*
X-2708855Y-7491291D01*
X-2691392Y-7403500D01*
X-2691392Y-6853500D01*
X-2708855Y-6765709D01*
X-2758584Y-6691284D01*
X-2771120Y-6682908D01*
X-2570800Y-6682908D01*
X-2483009Y-6665445D01*
X-2408584Y-6615716D01*
X-2358855Y-6541291D01*
X-2341392Y-6453500D01*
X-2341392Y-5153500D01*
X-2358855Y-5065709D01*
X-2408584Y-4991284D01*
X-2421120Y-4982908D01*
X-2420800Y-4982908D01*
X-2333009Y-4965445D01*
X-2258584Y-4915716D01*
X-2208855Y-4841291D01*
X-2191392Y-4753500D01*
X-2191392Y-4641086D01*
X-2162150Y-4684850D01*
X-2009444Y-4786885D01*
X-2020208Y-4841000D01*
X-2020208Y-5136000D01*
X-1991518Y-5280236D01*
X-1909814Y-5402514D01*
X-1787536Y-5484218D01*
X-1643300Y-5512908D01*
X-1298300Y-5512908D01*
X-1154064Y-5484218D01*
X-1031786Y-5402514D01*
X-1005718Y-5363500D01*
X-823246Y-5363500D01*
X-812745Y-5416291D01*
X-763016Y-5490716D01*
X-688591Y-5540445D01*
X-600800Y-5557908D01*
X459200Y-5557908D01*
X546991Y-5540445D01*
X621416Y-5490716D01*
X671145Y-5416291D01*
X688608Y-5328500D01*
X688608Y-4678500D01*
X671145Y-4590709D01*
X621416Y-4516284D01*
X546991Y-4466555D01*
X459200Y-4449092D01*
X-600800Y-4449092D01*
X-625160Y-4453938D01*
X-620390Y-4446799D01*
X-564536Y-4166000D01*
X-564536Y-3871000D01*
X-620390Y-3590201D01*
X-620428Y-3590144D01*
X-572930Y-3475473D01*
X-572930Y-3272123D01*
X-443300Y-3297908D01*
X-98300Y-3297908D01*
X45936Y-3269218D01*
X168214Y-3187514D01*
X223589Y-3104641D01*
X310134Y-3191186D01*
G36*
X1866984Y-1651284D02*
X1817255Y-1725709D01*
X1799792Y-1813500D01*
X1799792Y-2263500D01*
X1817255Y-2351291D01*
X1866984Y-2425716D01*
X1941409Y-2475445D01*
X2029200Y-2492908D01*
X2153278Y-2492908D01*
X2186589Y-2526218D01*
X2174200Y-2588500D01*
X2174200Y-3018500D01*
X2191327Y-3104604D01*
X2240101Y-3177599D01*
X2250414Y-3184490D01*
X2248573Y-3193740D01*
X2240101Y-3199401D01*
X2191327Y-3272396D01*
X2179173Y-3333500D01*
X2154530Y-3333500D01*
X1920479Y-3099450D01*
X1899559Y-3068141D01*
X1775517Y-2985258D01*
X1666131Y-2963500D01*
X1666126Y-2963500D01*
X1629200Y-2956155D01*
X1592274Y-2963500D01*
X1230977Y-2963500D01*
X1096455Y-2828978D01*
X1091933Y-2822211D01*
X1085166Y-2817689D01*
X1054200Y-2786724D01*
X1054200Y-2694017D01*
X981886Y-2519434D01*
X930825Y-2468373D01*
X941409Y-2475445D01*
X1029200Y-2492908D01*
X1329200Y-2492908D01*
X1416991Y-2475445D01*
X1491416Y-2425716D01*
X1541145Y-2351291D01*
X1558608Y-2263500D01*
X1558608Y-1813500D01*
X1541145Y-1725709D01*
X1491416Y-1651284D01*
X1434856Y-1613492D01*
X1923544Y-1613492D01*
X1866984Y-1651284D01*
X1866984Y-1651284D01*
G37*
X1866984Y-1651284D02*
X1817255Y-1725709D01*
X1799792Y-1813500D01*
X1799792Y-2263500D01*
X1817255Y-2351291D01*
X1866984Y-2425716D01*
X1941409Y-2475445D01*
X2029200Y-2492908D01*
X2153278Y-2492908D01*
X2186589Y-2526218D01*
X2174200Y-2588500D01*
X2174200Y-3018500D01*
X2191327Y-3104604D01*
X2240101Y-3177599D01*
X2250414Y-3184490D01*
X2248573Y-3193740D01*
X2240101Y-3199401D01*
X2191327Y-3272396D01*
X2179173Y-3333500D01*
X2154530Y-3333500D01*
X1920479Y-3099450D01*
X1899559Y-3068141D01*
X1775517Y-2985258D01*
X1666131Y-2963500D01*
X1666126Y-2963500D01*
X1629200Y-2956155D01*
X1592274Y-2963500D01*
X1230977Y-2963500D01*
X1096455Y-2828978D01*
X1091933Y-2822211D01*
X1085166Y-2817689D01*
X1054200Y-2786724D01*
X1054200Y-2694017D01*
X981886Y-2519434D01*
X930825Y-2468373D01*
X941409Y-2475445D01*
X1029200Y-2492908D01*
X1329200Y-2492908D01*
X1416991Y-2475445D01*
X1491416Y-2425716D01*
X1541145Y-2351291D01*
X1558608Y-2263500D01*
X1558608Y-1813500D01*
X1541145Y-1725709D01*
X1491416Y-1651284D01*
X1434856Y-1613492D01*
X1923544Y-1613492D01*
X1866984Y-1651284D01*
G36*
X9225071Y1888096D02*
X9193729Y1963761D01*
X8877261Y2280229D01*
X8463776Y2451500D01*
X8016224Y2451500D01*
X7774510Y2351379D01*
X7774510Y2388589D01*
X7656537Y2673401D01*
X7438551Y2891387D01*
X7153739Y3009360D01*
X6845461Y3009360D01*
X6560649Y2891387D01*
X6504200Y2834938D01*
X6504200Y2940983D01*
X6431886Y3115566D01*
X6298266Y3249186D01*
X6123683Y3321500D01*
X5934717Y3321500D01*
X5819567Y3273804D01*
X5788299Y3320599D01*
X5715304Y3369373D01*
X5629200Y3386500D01*
X5304200Y3386500D01*
X5304200Y3636500D01*
X5298992Y3663960D01*
X5283171Y3688578D01*
X5259134Y3705267D01*
X5230539Y3711488D01*
X3954200Y3734280D01*
X3954200Y6821970D01*
X4322964Y6821970D01*
X4324159Y6821732D01*
X4318482Y6813236D01*
X4289792Y6669000D01*
X4289792Y6324000D01*
X4318482Y6179764D01*
X4400186Y6057486D01*
X4522464Y5975782D01*
X4666700Y5947092D01*
X4961700Y5947092D01*
X5012000Y5957097D01*
X5012000Y5716809D01*
X5005428Y5683770D01*
X5012894Y5646235D01*
X4762568Y5395908D01*
X4666700Y5395908D01*
X4522464Y5367218D01*
X4400186Y5285514D01*
X4318482Y5163236D01*
X4289792Y5019000D01*
X4289792Y4936500D01*
X4179200Y4936500D01*
X4150499Y4930791D01*
X4126167Y4914533D01*
X4109909Y4890201D01*
X4104200Y4861500D01*
X4104200Y4311500D01*
X4116796Y4269897D01*
X4316796Y3969897D01*
X4326167Y3958467D01*
X4350499Y3942209D01*
X4379200Y3936500D01*
X4979200Y3936500D01*
X5007901Y3942209D01*
X5032233Y3958467D01*
X5332233Y4258467D01*
X5348491Y4282799D01*
X5354200Y4311500D01*
X5354200Y4785460D01*
X5448067Y4879327D01*
X5619462Y4764804D01*
X5904028Y4708200D01*
X8095172Y4708200D01*
X8379738Y4764804D01*
X8702436Y4980424D01*
X8918056Y5303122D01*
X8961612Y5522090D01*
X8989164Y5563325D01*
X9012000Y5678130D01*
X9012000Y7778130D01*
X8998307Y7846970D01*
X9225071Y7846970D01*
X9225071Y1888096D01*
X9225071Y1888096D01*
G37*
X9225071Y1888096D02*
X9193729Y1963761D01*
X8877261Y2280229D01*
X8463776Y2451500D01*
X8016224Y2451500D01*
X7774510Y2351379D01*
X7774510Y2388589D01*
X7656537Y2673401D01*
X7438551Y2891387D01*
X7153739Y3009360D01*
X6845461Y3009360D01*
X6560649Y2891387D01*
X6504200Y2834938D01*
X6504200Y2940983D01*
X6431886Y3115566D01*
X6298266Y3249186D01*
X6123683Y3321500D01*
X5934717Y3321500D01*
X5819567Y3273804D01*
X5788299Y3320599D01*
X5715304Y3369373D01*
X5629200Y3386500D01*
X5304200Y3386500D01*
X5304200Y3636500D01*
X5298992Y3663960D01*
X5283171Y3688578D01*
X5259134Y3705267D01*
X5230539Y3711488D01*
X3954200Y3734280D01*
X3954200Y6821970D01*
X4322964Y6821970D01*
X4324159Y6821732D01*
X4318482Y6813236D01*
X4289792Y6669000D01*
X4289792Y6324000D01*
X4318482Y6179764D01*
X4400186Y6057486D01*
X4522464Y5975782D01*
X4666700Y5947092D01*
X4961700Y5947092D01*
X5012000Y5957097D01*
X5012000Y5716809D01*
X5005428Y5683770D01*
X5012894Y5646235D01*
X4762568Y5395908D01*
X4666700Y5395908D01*
X4522464Y5367218D01*
X4400186Y5285514D01*
X4318482Y5163236D01*
X4289792Y5019000D01*
X4289792Y4936500D01*
X4179200Y4936500D01*
X4150499Y4930791D01*
X4126167Y4914533D01*
X4109909Y4890201D01*
X4104200Y4861500D01*
X4104200Y4311500D01*
X4116796Y4269897D01*
X4316796Y3969897D01*
X4326167Y3958467D01*
X4350499Y3942209D01*
X4379200Y3936500D01*
X4979200Y3936500D01*
X5007901Y3942209D01*
X5032233Y3958467D01*
X5332233Y4258467D01*
X5348491Y4282799D01*
X5354200Y4311500D01*
X5354200Y4785460D01*
X5448067Y4879327D01*
X5619462Y4764804D01*
X5904028Y4708200D01*
X8095172Y4708200D01*
X8379738Y4764804D01*
X8702436Y4980424D01*
X8918056Y5303122D01*
X8961612Y5522090D01*
X8989164Y5563325D01*
X9012000Y5678130D01*
X9012000Y7778130D01*
X8998307Y7846970D01*
X9225071Y7846970D01*
X9225071Y1888096D01*
G04 #@! TO.N,+3V3*
G36*
X3375470Y7123537D02*
X3370092Y7096500D01*
X3391399Y6989384D01*
X3428790Y6933424D01*
X3348482Y6813236D01*
X3319792Y6669000D01*
X3319792Y6324000D01*
X3348482Y6179764D01*
X3430186Y6057486D01*
X3454200Y6041440D01*
X3454200Y5943252D01*
X3426514Y5915566D01*
X3354200Y5740983D01*
X3354200Y5552017D01*
X3426514Y5377434D01*
X3454201Y5349747D01*
X3454201Y5301560D01*
X3430186Y5285514D01*
X3348482Y5163236D01*
X3319792Y5019000D01*
X3319792Y4674000D01*
X3348482Y4529764D01*
X3430186Y4407486D01*
X3469201Y4381417D01*
X3469201Y4139278D01*
X3458482Y4123236D01*
X3429792Y3979000D01*
X3429792Y3684000D01*
X3458482Y3539764D01*
X3540186Y3417486D01*
X3654200Y3341304D01*
X3654200Y3161500D01*
X3659909Y3132799D01*
X3676167Y3108467D01*
X3700499Y3092209D01*
X3729200Y3086500D01*
X3759303Y3086500D01*
X3770635Y3064648D01*
X3793022Y3045802D01*
X3820918Y3036959D01*
X4270918Y2986959D01*
X4279200Y2986500D01*
X4979200Y2986500D01*
X4986663Y2986872D01*
X5236663Y3011872D01*
X5257901Y3017209D01*
X5282233Y3033467D01*
X5298491Y3057799D01*
X5304200Y3086500D01*
X5554200Y3086500D01*
X5554200Y2786500D01*
X4229200Y2786500D01*
X4200499Y2780791D01*
X4176167Y2764533D01*
X4159909Y2740201D01*
X4154200Y2711500D01*
X4154200Y2571240D01*
X3170445Y2567825D01*
X3183608Y2634000D01*
X3183608Y2759000D01*
X3161388Y2870708D01*
X3110745Y2946500D01*
X3161388Y3022292D01*
X3183608Y3134000D01*
X3183608Y3259000D01*
X3161388Y3370708D01*
X3110745Y3446500D01*
X3161388Y3522292D01*
X3183608Y3634000D01*
X3183608Y3759000D01*
X3161388Y3870708D01*
X3110745Y3946500D01*
X3161388Y4022292D01*
X3183608Y4134000D01*
X3183608Y4259000D01*
X3161388Y4370708D01*
X3098110Y4465410D01*
X3003408Y4528688D01*
X2891700Y4550908D01*
X2141700Y4550908D01*
X2033608Y4529407D01*
X2033608Y4863593D01*
X2141700Y4842092D01*
X2891700Y4842092D01*
X3003408Y4864312D01*
X3098110Y4927590D01*
X3161388Y5022292D01*
X3183608Y5134000D01*
X3183608Y5259000D01*
X3161388Y5370708D01*
X3098110Y5465410D01*
X3003408Y5528688D01*
X2903094Y5548642D01*
X2931886Y5577434D01*
X3004200Y5752017D01*
X3004200Y5940983D01*
X2931886Y6115566D01*
X2798266Y6249186D01*
X2623683Y6321500D01*
X2434717Y6321500D01*
X2260134Y6249186D01*
X2126514Y6115566D01*
X2054200Y5940983D01*
X2054200Y5752017D01*
X2126514Y5577434D01*
X2153040Y5550908D01*
X2141700Y5550908D01*
X2029992Y5528688D01*
X2019234Y5521500D01*
X1861209Y5521500D01*
X1829200Y5527867D01*
X1797191Y5521500D01*
X1702391Y5502643D01*
X1679271Y5487195D01*
X1683608Y5509000D01*
X1683608Y6259000D01*
X1661388Y6370708D01*
X1598110Y6465410D01*
X1536217Y6506765D01*
X1541886Y6512434D01*
X1614200Y6687017D01*
X1614200Y6875983D01*
X1541886Y7050566D01*
X1408266Y7184186D01*
X1233683Y7256500D01*
X1044717Y7256500D01*
X870134Y7184186D01*
X736514Y7050566D01*
X664200Y6875983D01*
X664200Y6730763D01*
X637961Y6704525D01*
X612913Y6687788D01*
X596177Y6662740D01*
X546607Y6588553D01*
X531028Y6510233D01*
X503408Y6528688D01*
X391700Y6550908D01*
X266700Y6550908D01*
X154992Y6528688D01*
X60290Y6465410D01*
X-2988Y6370708D01*
X-25208Y6259000D01*
X-25208Y5509000D01*
X-3707Y5400908D01*
X-337893Y5400908D01*
X-316392Y5509000D01*
X-316392Y6259000D01*
X-338612Y6370708D01*
X-401890Y6465410D01*
X-496592Y6528688D01*
X-608300Y6550908D01*
X-733300Y6550908D01*
X-845008Y6528688D01*
X-884918Y6502021D01*
X-888207Y6518554D01*
X-954512Y6617788D01*
X-979561Y6634525D01*
X-1020494Y6675458D01*
X-953300Y6662092D01*
X-658300Y6662092D01*
X-514064Y6690782D01*
X-391786Y6772486D01*
X-310082Y6894764D01*
X-281392Y7039000D01*
X-281392Y7384000D01*
X-310082Y7528236D01*
X-391786Y7650514D01*
X-514064Y7732218D01*
X-658300Y7760908D01*
X-953300Y7760908D01*
X-957167Y7760139D01*
X-975800Y7763845D01*
X-1012726Y7756500D01*
X-1204048Y7756500D01*
X-1291734Y7844186D01*
X-1298455Y7846970D01*
X3375471Y7846970D01*
X3375470Y7123537D01*
X3375470Y7123537D01*
G37*
X3375470Y7123537D02*
X3370092Y7096500D01*
X3391399Y6989384D01*
X3428790Y6933424D01*
X3348482Y6813236D01*
X3319792Y6669000D01*
X3319792Y6324000D01*
X3348482Y6179764D01*
X3430186Y6057486D01*
X3454200Y6041440D01*
X3454200Y5943252D01*
X3426514Y5915566D01*
X3354200Y5740983D01*
X3354200Y5552017D01*
X3426514Y5377434D01*
X3454201Y5349747D01*
X3454201Y5301560D01*
X3430186Y5285514D01*
X3348482Y5163236D01*
X3319792Y5019000D01*
X3319792Y4674000D01*
X3348482Y4529764D01*
X3430186Y4407486D01*
X3469201Y4381417D01*
X3469201Y4139278D01*
X3458482Y4123236D01*
X3429792Y3979000D01*
X3429792Y3684000D01*
X3458482Y3539764D01*
X3540186Y3417486D01*
X3654200Y3341304D01*
X3654200Y3161500D01*
X3659909Y3132799D01*
X3676167Y3108467D01*
X3700499Y3092209D01*
X3729200Y3086500D01*
X3759303Y3086500D01*
X3770635Y3064648D01*
X3793022Y3045802D01*
X3820918Y3036959D01*
X4270918Y2986959D01*
X4279200Y2986500D01*
X4979200Y2986500D01*
X4986663Y2986872D01*
X5236663Y3011872D01*
X5257901Y3017209D01*
X5282233Y3033467D01*
X5298491Y3057799D01*
X5304200Y3086500D01*
X5554200Y3086500D01*
X5554200Y2786500D01*
X4229200Y2786500D01*
X4200499Y2780791D01*
X4176167Y2764533D01*
X4159909Y2740201D01*
X4154200Y2711500D01*
X4154200Y2571240D01*
X3170445Y2567825D01*
X3183608Y2634000D01*
X3183608Y2759000D01*
X3161388Y2870708D01*
X3110745Y2946500D01*
X3161388Y3022292D01*
X3183608Y3134000D01*
X3183608Y3259000D01*
X3161388Y3370708D01*
X3110745Y3446500D01*
X3161388Y3522292D01*
X3183608Y3634000D01*
X3183608Y3759000D01*
X3161388Y3870708D01*
X3110745Y3946500D01*
X3161388Y4022292D01*
X3183608Y4134000D01*
X3183608Y4259000D01*
X3161388Y4370708D01*
X3098110Y4465410D01*
X3003408Y4528688D01*
X2891700Y4550908D01*
X2141700Y4550908D01*
X2033608Y4529407D01*
X2033608Y4863593D01*
X2141700Y4842092D01*
X2891700Y4842092D01*
X3003408Y4864312D01*
X3098110Y4927590D01*
X3161388Y5022292D01*
X3183608Y5134000D01*
X3183608Y5259000D01*
X3161388Y5370708D01*
X3098110Y5465410D01*
X3003408Y5528688D01*
X2903094Y5548642D01*
X2931886Y5577434D01*
X3004200Y5752017D01*
X3004200Y5940983D01*
X2931886Y6115566D01*
X2798266Y6249186D01*
X2623683Y6321500D01*
X2434717Y6321500D01*
X2260134Y6249186D01*
X2126514Y6115566D01*
X2054200Y5940983D01*
X2054200Y5752017D01*
X2126514Y5577434D01*
X2153040Y5550908D01*
X2141700Y5550908D01*
X2029992Y5528688D01*
X2019234Y5521500D01*
X1861209Y5521500D01*
X1829200Y5527867D01*
X1797191Y5521500D01*
X1702391Y5502643D01*
X1679271Y5487195D01*
X1683608Y5509000D01*
X1683608Y6259000D01*
X1661388Y6370708D01*
X1598110Y6465410D01*
X1536217Y6506765D01*
X1541886Y6512434D01*
X1614200Y6687017D01*
X1614200Y6875983D01*
X1541886Y7050566D01*
X1408266Y7184186D01*
X1233683Y7256500D01*
X1044717Y7256500D01*
X870134Y7184186D01*
X736514Y7050566D01*
X664200Y6875983D01*
X664200Y6730763D01*
X637961Y6704525D01*
X612913Y6687788D01*
X596177Y6662740D01*
X546607Y6588553D01*
X531028Y6510233D01*
X503408Y6528688D01*
X391700Y6550908D01*
X266700Y6550908D01*
X154992Y6528688D01*
X60290Y6465410D01*
X-2988Y6370708D01*
X-25208Y6259000D01*
X-25208Y5509000D01*
X-3707Y5400908D01*
X-337893Y5400908D01*
X-316392Y5509000D01*
X-316392Y6259000D01*
X-338612Y6370708D01*
X-401890Y6465410D01*
X-496592Y6528688D01*
X-608300Y6550908D01*
X-733300Y6550908D01*
X-845008Y6528688D01*
X-884918Y6502021D01*
X-888207Y6518554D01*
X-954512Y6617788D01*
X-979561Y6634525D01*
X-1020494Y6675458D01*
X-953300Y6662092D01*
X-658300Y6662092D01*
X-514064Y6690782D01*
X-391786Y6772486D01*
X-310082Y6894764D01*
X-281392Y7039000D01*
X-281392Y7384000D01*
X-310082Y7528236D01*
X-391786Y7650514D01*
X-514064Y7732218D01*
X-658300Y7760908D01*
X-953300Y7760908D01*
X-957167Y7760139D01*
X-975800Y7763845D01*
X-1012726Y7756500D01*
X-1204048Y7756500D01*
X-1291734Y7844186D01*
X-1298455Y7846970D01*
X3375471Y7846970D01*
X3375470Y7123537D01*
G36*
X-1095800Y-469566D02*
X-1095800Y-1107434D01*
X-1751866Y-1763500D01*
X-1995800Y-1763500D01*
X-1995800Y-119566D01*
X-1720800Y155434D01*
X-1095800Y-469566D01*
X-1095800Y-469566D01*
G37*
X-1095800Y-469566D02*
X-1095800Y-1107434D01*
X-1751866Y-1763500D01*
X-1995800Y-1763500D01*
X-1995800Y-119566D01*
X-1720800Y155434D01*
X-1095800Y-469566D01*
G04 #@! TD*
M02*
