G04 #@! TF.GenerationSoftware,KiCad,Pcbnew,(5.1.2)-1*
G04 #@! TF.CreationDate,2019-10-14T15:12:45+02:00*
G04 #@! TF.ProjectId,nk-fido2,6e6b2d66-6964-46f3-922e-6b696361645f,R4*
G04 #@! TF.SameCoordinates,Original*
G04 #@! TF.FileFunction,Legend,Bot*
G04 #@! TF.FilePolarity,Positive*
%FSLAX46Y46*%
G04 Gerber Fmt 4.6, Leading zero omitted, Abs format (unit mm)*
G04 Created by KiCad (PCBNEW (5.1.2)-1) date 2019-10-14 15:12:45*
%MOMM*%
%LPD*%
G04 APERTURE LIST*
%ADD10C,0.150000*%
%ADD11C,0.120000*%
%ADD12C,0.250000*%
G04 APERTURE END LIST*
D10*
X129081581Y-96968571D02*
X129414914Y-96968571D01*
X129414914Y-97492380D02*
X129414914Y-96492380D01*
X128938723Y-96492380D01*
X128557771Y-97492380D02*
X128557771Y-96492380D01*
X128081581Y-97492380D02*
X128081581Y-96492380D01*
X127843485Y-96492380D01*
X127700628Y-96540000D01*
X127605390Y-96635238D01*
X127557771Y-96730476D01*
X127510152Y-96920952D01*
X127510152Y-97063809D01*
X127557771Y-97254285D01*
X127605390Y-97349523D01*
X127700628Y-97444761D01*
X127843485Y-97492380D01*
X128081581Y-97492380D01*
X126891104Y-96492380D02*
X126700628Y-96492380D01*
X126605390Y-96540000D01*
X126510152Y-96635238D01*
X126462533Y-96825714D01*
X126462533Y-97159047D01*
X126510152Y-97349523D01*
X126605390Y-97444761D01*
X126700628Y-97492380D01*
X126891104Y-97492380D01*
X126986343Y-97444761D01*
X127081581Y-97349523D01*
X127129200Y-97159047D01*
X127129200Y-96825714D01*
X127081581Y-96635238D01*
X126986343Y-96540000D01*
X126891104Y-96492380D01*
X126081581Y-96587619D02*
X126033962Y-96540000D01*
X125938723Y-96492380D01*
X125700628Y-96492380D01*
X125605390Y-96540000D01*
X125557771Y-96587619D01*
X125510152Y-96682857D01*
X125510152Y-96778095D01*
X125557771Y-96920952D01*
X126129200Y-97492380D01*
X125510152Y-97492380D01*
X129414914Y-95892380D02*
X129414914Y-94892380D01*
X128843485Y-95892380D01*
X128843485Y-94892380D01*
X128367295Y-95892380D02*
X128367295Y-95225714D01*
X128367295Y-94892380D02*
X128414914Y-94940000D01*
X128367295Y-94987619D01*
X128319676Y-94940000D01*
X128367295Y-94892380D01*
X128367295Y-94987619D01*
X128033961Y-95225714D02*
X127653009Y-95225714D01*
X127891104Y-94892380D02*
X127891104Y-95749523D01*
X127843485Y-95844761D01*
X127748247Y-95892380D01*
X127653009Y-95892380D01*
X127319676Y-95892380D02*
X127319676Y-95225714D01*
X127319676Y-95416190D02*
X127272057Y-95320952D01*
X127224438Y-95273333D01*
X127129200Y-95225714D01*
X127033961Y-95225714D01*
X126557771Y-95892380D02*
X126653009Y-95844761D01*
X126700628Y-95797142D01*
X126748247Y-95701904D01*
X126748247Y-95416190D01*
X126700628Y-95320952D01*
X126653009Y-95273333D01*
X126557771Y-95225714D01*
X126414914Y-95225714D01*
X126319676Y-95273333D01*
X126272057Y-95320952D01*
X126224438Y-95416190D01*
X126224438Y-95701904D01*
X126272057Y-95797142D01*
X126319676Y-95844761D01*
X126414914Y-95892380D01*
X126557771Y-95892380D01*
X125795866Y-95892380D02*
X125795866Y-94892380D01*
X125700628Y-95511428D02*
X125414914Y-95892380D01*
X125414914Y-95225714D02*
X125795866Y-95606666D01*
X124605390Y-95844761D02*
X124700628Y-95892380D01*
X124891104Y-95892380D01*
X124986342Y-95844761D01*
X125033961Y-95749523D01*
X125033961Y-95368571D01*
X124986342Y-95273333D01*
X124891104Y-95225714D01*
X124700628Y-95225714D01*
X124605390Y-95273333D01*
X124557771Y-95368571D01*
X124557771Y-95463809D01*
X125033961Y-95559047D01*
X124224438Y-95225714D02*
X123986342Y-95892380D01*
X123748247Y-95225714D02*
X123986342Y-95892380D01*
X124081580Y-96130476D01*
X124129200Y-96178095D01*
X124224438Y-96225714D01*
X128843485Y-99127380D02*
X129176819Y-98651190D01*
X129414914Y-99127380D02*
X129414914Y-98127380D01*
X129033961Y-98127380D01*
X128938723Y-98175000D01*
X128891104Y-98222619D01*
X128843485Y-98317857D01*
X128843485Y-98460714D01*
X128891104Y-98555952D01*
X128938723Y-98603571D01*
X129033961Y-98651190D01*
X129414914Y-98651190D01*
X128033961Y-99079761D02*
X128129200Y-99127380D01*
X128319676Y-99127380D01*
X128414914Y-99079761D01*
X128462533Y-98984523D01*
X128462533Y-98603571D01*
X128414914Y-98508333D01*
X128319676Y-98460714D01*
X128129200Y-98460714D01*
X128033961Y-98508333D01*
X127986342Y-98603571D01*
X127986342Y-98698809D01*
X128462533Y-98794047D01*
X127653009Y-98460714D02*
X127414914Y-99127380D01*
X127176819Y-98460714D01*
X126795866Y-99032142D02*
X126748247Y-99079761D01*
X126795866Y-99127380D01*
X126843485Y-99079761D01*
X126795866Y-99032142D01*
X126795866Y-99127380D01*
X125891104Y-98460714D02*
X125891104Y-99127380D01*
X126129200Y-98079761D02*
X126367295Y-98794047D01*
X125748247Y-98794047D01*
D11*
X127479200Y-91160000D02*
X127479200Y-94060000D01*
X125179200Y-91160000D02*
X125179200Y-94060000D01*
X125779200Y-91160000D02*
X125179200Y-91160000D01*
D12*
X135231580Y-102416666D02*
X135945866Y-102416666D01*
X136088723Y-102369047D01*
X136183961Y-102273809D01*
X136231580Y-102130952D01*
X136231580Y-102035714D01*
X136231580Y-103416666D02*
X136231580Y-102845238D01*
X136231580Y-103130952D02*
X135231580Y-103130952D01*
X135374438Y-103035714D01*
X135469676Y-102940476D01*
X135517295Y-102845238D01*
D10*
X129119676Y-93446904D02*
X129119676Y-92646904D01*
X128929200Y-92646904D01*
X128814914Y-92685000D01*
X128738723Y-92761190D01*
X128700628Y-92837380D01*
X128662533Y-92989761D01*
X128662533Y-93104047D01*
X128700628Y-93256428D01*
X128738723Y-93332619D01*
X128814914Y-93408809D01*
X128929200Y-93446904D01*
X129119676Y-93446904D01*
X128357771Y-92723095D02*
X128319676Y-92685000D01*
X128243485Y-92646904D01*
X128053009Y-92646904D01*
X127976819Y-92685000D01*
X127938723Y-92723095D01*
X127900628Y-92799285D01*
X127900628Y-92875476D01*
X127938723Y-92989761D01*
X128395866Y-93446904D01*
X127900628Y-93446904D01*
M02*
