G04 #@! TF.GenerationSoftware,KiCad,Pcbnew,(5.0.1)-4*
G04 #@! TF.CreationDate,2019-04-11T15:05:26+02:00*
G04 #@! TF.ProjectId,nk-fido2,6E6B2D6669646F322E6B696361645F70,R2*
G04 #@! TF.SameCoordinates,PX791ddc0PY5e69114*
G04 #@! TF.FileFunction,Paste,Top*
G04 #@! TF.FilePolarity,Positive*
%FSLAX46Y46*%
G04 Gerber Fmt 4.6, Leading zero omitted, Abs format (unit mm)*
G04 Created by KiCad (PCBNEW (5.0.1)-4) date 11.04.2019 15:05:26*
%MOMM*%
%LPD*%
G01*
G04 APERTURE LIST*
%ADD10C,0.150000*%
%ADD11R,2.480000X1.760000*%
%ADD12R,0.280000X0.480000*%
%ADD13R,1.904000X1.320000*%
%ADD14R,1.200000X1.040000*%
%ADD15R,0.240000X0.440000*%
%ADD16R,0.848000X0.520000*%
%ADD17C,0.472000*%
%ADD18R,0.080000X0.080000*%
%ADD19C,0.424000*%
%ADD20C,0.930000*%
%ADD21C,0.200000*%
%ADD22R,0.240000X0.360000*%
G04 APERTURE END LIST*
D10*
G04 #@! TO.C,L1*
G36*
X2399200Y-2588500D02*
X2399200Y-3018500D01*
X2499200Y-3018500D01*
X2699200Y-2818500D01*
X2699200Y-2588500D01*
X2399200Y-2588500D01*
G37*
G36*
X3359200Y-2588500D02*
X3359200Y-3018500D01*
X3259200Y-3018500D01*
X3059200Y-2818500D01*
X3059200Y-2588500D01*
X3359200Y-2588500D01*
G37*
G36*
X3359200Y-3888500D02*
X3359200Y-3458500D01*
X3259200Y-3458500D01*
X3059200Y-3658500D01*
X3059200Y-3888500D01*
X3359200Y-3888500D01*
G37*
G36*
X2399200Y-3888500D02*
X2699200Y-3888500D01*
X2699200Y-3658500D01*
X2399200Y-3358500D01*
X2399200Y-3888500D01*
G37*
G04 #@! TD*
D11*
G04 #@! TO.C,L2*
X-8775000Y-3043500D03*
X-8775000Y-5743500D03*
G04 #@! TD*
D12*
G04 #@! TO.C,U5*
X-4570800Y-538500D03*
X-5070800Y-538500D03*
X-5570800Y-538500D03*
X-6070800Y-538500D03*
X-6570800Y-538500D03*
X-6570800Y2461500D03*
X-6070800Y2461500D03*
X-5570800Y2461500D03*
X-5070800Y2461500D03*
X-4570800Y2461500D03*
D13*
X-5570800Y961500D03*
G04 #@! TD*
D14*
G04 #@! TO.C,U4*
X-3320800Y-5803500D03*
D15*
X-4070800Y-4478500D03*
X-3570800Y-4478500D03*
X-3070800Y-4478500D03*
X-2570800Y-4478500D03*
X-4070800Y-7128500D03*
X-3570800Y-7128500D03*
X-3070800Y-7128500D03*
X-2570800Y-7128500D03*
G04 #@! TD*
D16*
G04 #@! TO.C,U2*
X-70800Y-5003500D03*
X-70800Y-5953500D03*
X-70800Y-6903500D03*
X2129200Y-6903500D03*
X2129200Y-5003500D03*
X2129200Y-5953500D03*
G04 #@! TD*
D10*
G04 #@! TO.C,R5*
G36*
X4428766Y-6088068D02*
X4440221Y-6089767D01*
X4451454Y-6092581D01*
X4462357Y-6096482D01*
X4472825Y-6101433D01*
X4482757Y-6107387D01*
X4492058Y-6114285D01*
X4500639Y-6122061D01*
X4508415Y-6130642D01*
X4515313Y-6139943D01*
X4521267Y-6149875D01*
X4526218Y-6160343D01*
X4530119Y-6171246D01*
X4532933Y-6182479D01*
X4534632Y-6193934D01*
X4535200Y-6205500D01*
X4535200Y-6441500D01*
X4534632Y-6453066D01*
X4532933Y-6464521D01*
X4530119Y-6475754D01*
X4526218Y-6486657D01*
X4521267Y-6497125D01*
X4515313Y-6507057D01*
X4508415Y-6516358D01*
X4500639Y-6524939D01*
X4492058Y-6532715D01*
X4482757Y-6539613D01*
X4472825Y-6545567D01*
X4462357Y-6550518D01*
X4451454Y-6554419D01*
X4440221Y-6557233D01*
X4428766Y-6558932D01*
X4417200Y-6559500D01*
X4141200Y-6559500D01*
X4129634Y-6558932D01*
X4118179Y-6557233D01*
X4106946Y-6554419D01*
X4096043Y-6550518D01*
X4085575Y-6545567D01*
X4075643Y-6539613D01*
X4066342Y-6532715D01*
X4057761Y-6524939D01*
X4049985Y-6516358D01*
X4043087Y-6507057D01*
X4037133Y-6497125D01*
X4032182Y-6486657D01*
X4028281Y-6475754D01*
X4025467Y-6464521D01*
X4023768Y-6453066D01*
X4023200Y-6441500D01*
X4023200Y-6205500D01*
X4023768Y-6193934D01*
X4025467Y-6182479D01*
X4028281Y-6171246D01*
X4032182Y-6160343D01*
X4037133Y-6149875D01*
X4043087Y-6139943D01*
X4049985Y-6130642D01*
X4057761Y-6122061D01*
X4066342Y-6114285D01*
X4075643Y-6107387D01*
X4085575Y-6101433D01*
X4096043Y-6096482D01*
X4106946Y-6092581D01*
X4118179Y-6089767D01*
X4129634Y-6088068D01*
X4141200Y-6087500D01*
X4417200Y-6087500D01*
X4428766Y-6088068D01*
X4428766Y-6088068D01*
G37*
D17*
X4279200Y-6323500D03*
D10*
G36*
X4428766Y-5118068D02*
X4440221Y-5119767D01*
X4451454Y-5122581D01*
X4462357Y-5126482D01*
X4472825Y-5131433D01*
X4482757Y-5137387D01*
X4492058Y-5144285D01*
X4500639Y-5152061D01*
X4508415Y-5160642D01*
X4515313Y-5169943D01*
X4521267Y-5179875D01*
X4526218Y-5190343D01*
X4530119Y-5201246D01*
X4532933Y-5212479D01*
X4534632Y-5223934D01*
X4535200Y-5235500D01*
X4535200Y-5471500D01*
X4534632Y-5483066D01*
X4532933Y-5494521D01*
X4530119Y-5505754D01*
X4526218Y-5516657D01*
X4521267Y-5527125D01*
X4515313Y-5537057D01*
X4508415Y-5546358D01*
X4500639Y-5554939D01*
X4492058Y-5562715D01*
X4482757Y-5569613D01*
X4472825Y-5575567D01*
X4462357Y-5580518D01*
X4451454Y-5584419D01*
X4440221Y-5587233D01*
X4428766Y-5588932D01*
X4417200Y-5589500D01*
X4141200Y-5589500D01*
X4129634Y-5588932D01*
X4118179Y-5587233D01*
X4106946Y-5584419D01*
X4096043Y-5580518D01*
X4085575Y-5575567D01*
X4075643Y-5569613D01*
X4066342Y-5562715D01*
X4057761Y-5554939D01*
X4049985Y-5546358D01*
X4043087Y-5537057D01*
X4037133Y-5527125D01*
X4032182Y-5516657D01*
X4028281Y-5505754D01*
X4025467Y-5494521D01*
X4023768Y-5483066D01*
X4023200Y-5471500D01*
X4023200Y-5235500D01*
X4023768Y-5223934D01*
X4025467Y-5212479D01*
X4028281Y-5201246D01*
X4032182Y-5190343D01*
X4037133Y-5179875D01*
X4043087Y-5169943D01*
X4049985Y-5160642D01*
X4057761Y-5152061D01*
X4066342Y-5144285D01*
X4075643Y-5137387D01*
X4085575Y-5131433D01*
X4096043Y-5126482D01*
X4106946Y-5122581D01*
X4118179Y-5119767D01*
X4129634Y-5118068D01*
X4141200Y-5117500D01*
X4417200Y-5117500D01*
X4428766Y-5118068D01*
X4428766Y-5118068D01*
G37*
D17*
X4279200Y-5353500D03*
G04 #@! TD*
D18*
G04 #@! TO.C,L1*
X2519200Y-2788500D03*
X3229200Y-2788500D03*
X3239200Y-3708500D03*
X2519200Y-3708500D03*
D19*
X2879200Y-3238500D03*
D10*
G36*
X2879200Y-3538313D02*
X2579387Y-3238500D01*
X2879200Y-2938687D01*
X3179013Y-3238500D01*
X2879200Y-3538313D01*
X2879200Y-3538313D01*
G37*
G04 #@! TD*
G04 #@! TO.C,U1*
G36*
X1484489Y5510380D02*
X1507058Y5507033D01*
X1529191Y5501489D01*
X1550674Y5493802D01*
X1571300Y5484047D01*
X1590870Y5472317D01*
X1609196Y5458725D01*
X1626102Y5443402D01*
X1641425Y5426496D01*
X1655017Y5408170D01*
X1666747Y5388600D01*
X1676502Y5367974D01*
X1684189Y5346491D01*
X1689733Y5324358D01*
X1693080Y5301789D01*
X1694200Y5279000D01*
X1694200Y4814000D01*
X1693080Y4791211D01*
X1689733Y4768642D01*
X1684189Y4746509D01*
X1676502Y4725026D01*
X1666747Y4704400D01*
X1655017Y4684830D01*
X1641425Y4666504D01*
X1626102Y4649598D01*
X1609196Y4634275D01*
X1590870Y4620683D01*
X1571300Y4608953D01*
X1550674Y4599198D01*
X1529191Y4591511D01*
X1507058Y4585967D01*
X1484489Y4582620D01*
X1461700Y4581500D01*
X996700Y4581500D01*
X973911Y4582620D01*
X951342Y4585967D01*
X929209Y4591511D01*
X907726Y4599198D01*
X887100Y4608953D01*
X867530Y4620683D01*
X849204Y4634275D01*
X832298Y4649598D01*
X816975Y4666504D01*
X803383Y4684830D01*
X791653Y4704400D01*
X781898Y4725026D01*
X774211Y4746509D01*
X768667Y4768642D01*
X765320Y4791211D01*
X764200Y4814000D01*
X764200Y5279000D01*
X765320Y5301789D01*
X768667Y5324358D01*
X774211Y5346491D01*
X781898Y5367974D01*
X791653Y5388600D01*
X803383Y5408170D01*
X816975Y5426496D01*
X832298Y5443402D01*
X849204Y5458725D01*
X867530Y5472317D01*
X887100Y5484047D01*
X907726Y5493802D01*
X929209Y5501489D01*
X951342Y5507033D01*
X973911Y5510380D01*
X996700Y5511500D01*
X1461700Y5511500D01*
X1484489Y5510380D01*
X1484489Y5510380D01*
G37*
D20*
X1229200Y5046500D03*
D10*
G36*
X334489Y5510380D02*
X357058Y5507033D01*
X379191Y5501489D01*
X400674Y5493802D01*
X421300Y5484047D01*
X440870Y5472317D01*
X459196Y5458725D01*
X476102Y5443402D01*
X491425Y5426496D01*
X505017Y5408170D01*
X516747Y5388600D01*
X526502Y5367974D01*
X534189Y5346491D01*
X539733Y5324358D01*
X543080Y5301789D01*
X544200Y5279000D01*
X544200Y4814000D01*
X543080Y4791211D01*
X539733Y4768642D01*
X534189Y4746509D01*
X526502Y4725026D01*
X516747Y4704400D01*
X505017Y4684830D01*
X491425Y4666504D01*
X476102Y4649598D01*
X459196Y4634275D01*
X440870Y4620683D01*
X421300Y4608953D01*
X400674Y4599198D01*
X379191Y4591511D01*
X357058Y4585967D01*
X334489Y4582620D01*
X311700Y4581500D01*
X-153300Y4581500D01*
X-176089Y4582620D01*
X-198658Y4585967D01*
X-220791Y4591511D01*
X-242274Y4599198D01*
X-262900Y4608953D01*
X-282470Y4620683D01*
X-300796Y4634275D01*
X-317702Y4649598D01*
X-333025Y4666504D01*
X-346617Y4684830D01*
X-358347Y4704400D01*
X-368102Y4725026D01*
X-375789Y4746509D01*
X-381333Y4768642D01*
X-384680Y4791211D01*
X-385800Y4814000D01*
X-385800Y5279000D01*
X-384680Y5301789D01*
X-381333Y5324358D01*
X-375789Y5346491D01*
X-368102Y5367974D01*
X-358347Y5388600D01*
X-346617Y5408170D01*
X-333025Y5426496D01*
X-317702Y5443402D01*
X-300796Y5458725D01*
X-282470Y5472317D01*
X-262900Y5484047D01*
X-242274Y5493802D01*
X-220791Y5501489D01*
X-198658Y5507033D01*
X-176089Y5510380D01*
X-153300Y5511500D01*
X311700Y5511500D01*
X334489Y5510380D01*
X334489Y5510380D01*
G37*
D20*
X79200Y5046500D03*
D10*
G36*
X-815511Y5510380D02*
X-792942Y5507033D01*
X-770809Y5501489D01*
X-749326Y5493802D01*
X-728700Y5484047D01*
X-709130Y5472317D01*
X-690804Y5458725D01*
X-673898Y5443402D01*
X-658575Y5426496D01*
X-644983Y5408170D01*
X-633253Y5388600D01*
X-623498Y5367974D01*
X-615811Y5346491D01*
X-610267Y5324358D01*
X-606920Y5301789D01*
X-605800Y5279000D01*
X-605800Y4814000D01*
X-606920Y4791211D01*
X-610267Y4768642D01*
X-615811Y4746509D01*
X-623498Y4725026D01*
X-633253Y4704400D01*
X-644983Y4684830D01*
X-658575Y4666504D01*
X-673898Y4649598D01*
X-690804Y4634275D01*
X-709130Y4620683D01*
X-728700Y4608953D01*
X-749326Y4599198D01*
X-770809Y4591511D01*
X-792942Y4585967D01*
X-815511Y4582620D01*
X-838300Y4581500D01*
X-1303300Y4581500D01*
X-1326089Y4582620D01*
X-1348658Y4585967D01*
X-1370791Y4591511D01*
X-1392274Y4599198D01*
X-1412900Y4608953D01*
X-1432470Y4620683D01*
X-1450796Y4634275D01*
X-1467702Y4649598D01*
X-1483025Y4666504D01*
X-1496617Y4684830D01*
X-1508347Y4704400D01*
X-1518102Y4725026D01*
X-1525789Y4746509D01*
X-1531333Y4768642D01*
X-1534680Y4791211D01*
X-1535800Y4814000D01*
X-1535800Y5279000D01*
X-1534680Y5301789D01*
X-1531333Y5324358D01*
X-1525789Y5346491D01*
X-1518102Y5367974D01*
X-1508347Y5388600D01*
X-1496617Y5408170D01*
X-1483025Y5426496D01*
X-1467702Y5443402D01*
X-1450796Y5458725D01*
X-1432470Y5472317D01*
X-1412900Y5484047D01*
X-1392274Y5493802D01*
X-1370791Y5501489D01*
X-1348658Y5507033D01*
X-1326089Y5510380D01*
X-1303300Y5511500D01*
X-838300Y5511500D01*
X-815511Y5510380D01*
X-815511Y5510380D01*
G37*
D20*
X-1070800Y5046500D03*
D10*
G36*
X1484489Y4360380D02*
X1507058Y4357033D01*
X1529191Y4351489D01*
X1550674Y4343802D01*
X1571300Y4334047D01*
X1590870Y4322317D01*
X1609196Y4308725D01*
X1626102Y4293402D01*
X1641425Y4276496D01*
X1655017Y4258170D01*
X1666747Y4238600D01*
X1676502Y4217974D01*
X1684189Y4196491D01*
X1689733Y4174358D01*
X1693080Y4151789D01*
X1694200Y4129000D01*
X1694200Y3664000D01*
X1693080Y3641211D01*
X1689733Y3618642D01*
X1684189Y3596509D01*
X1676502Y3575026D01*
X1666747Y3554400D01*
X1655017Y3534830D01*
X1641425Y3516504D01*
X1626102Y3499598D01*
X1609196Y3484275D01*
X1590870Y3470683D01*
X1571300Y3458953D01*
X1550674Y3449198D01*
X1529191Y3441511D01*
X1507058Y3435967D01*
X1484489Y3432620D01*
X1461700Y3431500D01*
X996700Y3431500D01*
X973911Y3432620D01*
X951342Y3435967D01*
X929209Y3441511D01*
X907726Y3449198D01*
X887100Y3458953D01*
X867530Y3470683D01*
X849204Y3484275D01*
X832298Y3499598D01*
X816975Y3516504D01*
X803383Y3534830D01*
X791653Y3554400D01*
X781898Y3575026D01*
X774211Y3596509D01*
X768667Y3618642D01*
X765320Y3641211D01*
X764200Y3664000D01*
X764200Y4129000D01*
X765320Y4151789D01*
X768667Y4174358D01*
X774211Y4196491D01*
X781898Y4217974D01*
X791653Y4238600D01*
X803383Y4258170D01*
X816975Y4276496D01*
X832298Y4293402D01*
X849204Y4308725D01*
X867530Y4322317D01*
X887100Y4334047D01*
X907726Y4343802D01*
X929209Y4351489D01*
X951342Y4357033D01*
X973911Y4360380D01*
X996700Y4361500D01*
X1461700Y4361500D01*
X1484489Y4360380D01*
X1484489Y4360380D01*
G37*
D20*
X1229200Y3896500D03*
D10*
G36*
X334489Y4360380D02*
X357058Y4357033D01*
X379191Y4351489D01*
X400674Y4343802D01*
X421300Y4334047D01*
X440870Y4322317D01*
X459196Y4308725D01*
X476102Y4293402D01*
X491425Y4276496D01*
X505017Y4258170D01*
X516747Y4238600D01*
X526502Y4217974D01*
X534189Y4196491D01*
X539733Y4174358D01*
X543080Y4151789D01*
X544200Y4129000D01*
X544200Y3664000D01*
X543080Y3641211D01*
X539733Y3618642D01*
X534189Y3596509D01*
X526502Y3575026D01*
X516747Y3554400D01*
X505017Y3534830D01*
X491425Y3516504D01*
X476102Y3499598D01*
X459196Y3484275D01*
X440870Y3470683D01*
X421300Y3458953D01*
X400674Y3449198D01*
X379191Y3441511D01*
X357058Y3435967D01*
X334489Y3432620D01*
X311700Y3431500D01*
X-153300Y3431500D01*
X-176089Y3432620D01*
X-198658Y3435967D01*
X-220791Y3441511D01*
X-242274Y3449198D01*
X-262900Y3458953D01*
X-282470Y3470683D01*
X-300796Y3484275D01*
X-317702Y3499598D01*
X-333025Y3516504D01*
X-346617Y3534830D01*
X-358347Y3554400D01*
X-368102Y3575026D01*
X-375789Y3596509D01*
X-381333Y3618642D01*
X-384680Y3641211D01*
X-385800Y3664000D01*
X-385800Y4129000D01*
X-384680Y4151789D01*
X-381333Y4174358D01*
X-375789Y4196491D01*
X-368102Y4217974D01*
X-358347Y4238600D01*
X-346617Y4258170D01*
X-333025Y4276496D01*
X-317702Y4293402D01*
X-300796Y4308725D01*
X-282470Y4322317D01*
X-262900Y4334047D01*
X-242274Y4343802D01*
X-220791Y4351489D01*
X-198658Y4357033D01*
X-176089Y4360380D01*
X-153300Y4361500D01*
X311700Y4361500D01*
X334489Y4360380D01*
X334489Y4360380D01*
G37*
D20*
X79200Y3896500D03*
D10*
G36*
X-815511Y4360380D02*
X-792942Y4357033D01*
X-770809Y4351489D01*
X-749326Y4343802D01*
X-728700Y4334047D01*
X-709130Y4322317D01*
X-690804Y4308725D01*
X-673898Y4293402D01*
X-658575Y4276496D01*
X-644983Y4258170D01*
X-633253Y4238600D01*
X-623498Y4217974D01*
X-615811Y4196491D01*
X-610267Y4174358D01*
X-606920Y4151789D01*
X-605800Y4129000D01*
X-605800Y3664000D01*
X-606920Y3641211D01*
X-610267Y3618642D01*
X-615811Y3596509D01*
X-623498Y3575026D01*
X-633253Y3554400D01*
X-644983Y3534830D01*
X-658575Y3516504D01*
X-673898Y3499598D01*
X-690804Y3484275D01*
X-709130Y3470683D01*
X-728700Y3458953D01*
X-749326Y3449198D01*
X-770809Y3441511D01*
X-792942Y3435967D01*
X-815511Y3432620D01*
X-838300Y3431500D01*
X-1303300Y3431500D01*
X-1326089Y3432620D01*
X-1348658Y3435967D01*
X-1370791Y3441511D01*
X-1392274Y3449198D01*
X-1412900Y3458953D01*
X-1432470Y3470683D01*
X-1450796Y3484275D01*
X-1467702Y3499598D01*
X-1483025Y3516504D01*
X-1496617Y3534830D01*
X-1508347Y3554400D01*
X-1518102Y3575026D01*
X-1525789Y3596509D01*
X-1531333Y3618642D01*
X-1534680Y3641211D01*
X-1535800Y3664000D01*
X-1535800Y4129000D01*
X-1534680Y4151789D01*
X-1531333Y4174358D01*
X-1525789Y4196491D01*
X-1518102Y4217974D01*
X-1508347Y4238600D01*
X-1496617Y4258170D01*
X-1483025Y4276496D01*
X-1467702Y4293402D01*
X-1450796Y4308725D01*
X-1432470Y4322317D01*
X-1412900Y4334047D01*
X-1392274Y4343802D01*
X-1370791Y4351489D01*
X-1348658Y4357033D01*
X-1326089Y4360380D01*
X-1303300Y4361500D01*
X-838300Y4361500D01*
X-815511Y4360380D01*
X-815511Y4360380D01*
G37*
D20*
X-1070800Y3896500D03*
D10*
G36*
X1484489Y3210380D02*
X1507058Y3207033D01*
X1529191Y3201489D01*
X1550674Y3193802D01*
X1571300Y3184047D01*
X1590870Y3172317D01*
X1609196Y3158725D01*
X1626102Y3143402D01*
X1641425Y3126496D01*
X1655017Y3108170D01*
X1666747Y3088600D01*
X1676502Y3067974D01*
X1684189Y3046491D01*
X1689733Y3024358D01*
X1693080Y3001789D01*
X1694200Y2979000D01*
X1694200Y2514000D01*
X1693080Y2491211D01*
X1689733Y2468642D01*
X1684189Y2446509D01*
X1676502Y2425026D01*
X1666747Y2404400D01*
X1655017Y2384830D01*
X1641425Y2366504D01*
X1626102Y2349598D01*
X1609196Y2334275D01*
X1590870Y2320683D01*
X1571300Y2308953D01*
X1550674Y2299198D01*
X1529191Y2291511D01*
X1507058Y2285967D01*
X1484489Y2282620D01*
X1461700Y2281500D01*
X996700Y2281500D01*
X973911Y2282620D01*
X951342Y2285967D01*
X929209Y2291511D01*
X907726Y2299198D01*
X887100Y2308953D01*
X867530Y2320683D01*
X849204Y2334275D01*
X832298Y2349598D01*
X816975Y2366504D01*
X803383Y2384830D01*
X791653Y2404400D01*
X781898Y2425026D01*
X774211Y2446509D01*
X768667Y2468642D01*
X765320Y2491211D01*
X764200Y2514000D01*
X764200Y2979000D01*
X765320Y3001789D01*
X768667Y3024358D01*
X774211Y3046491D01*
X781898Y3067974D01*
X791653Y3088600D01*
X803383Y3108170D01*
X816975Y3126496D01*
X832298Y3143402D01*
X849204Y3158725D01*
X867530Y3172317D01*
X887100Y3184047D01*
X907726Y3193802D01*
X929209Y3201489D01*
X951342Y3207033D01*
X973911Y3210380D01*
X996700Y3211500D01*
X1461700Y3211500D01*
X1484489Y3210380D01*
X1484489Y3210380D01*
G37*
D20*
X1229200Y2746500D03*
D10*
G36*
X334489Y3210380D02*
X357058Y3207033D01*
X379191Y3201489D01*
X400674Y3193802D01*
X421300Y3184047D01*
X440870Y3172317D01*
X459196Y3158725D01*
X476102Y3143402D01*
X491425Y3126496D01*
X505017Y3108170D01*
X516747Y3088600D01*
X526502Y3067974D01*
X534189Y3046491D01*
X539733Y3024358D01*
X543080Y3001789D01*
X544200Y2979000D01*
X544200Y2514000D01*
X543080Y2491211D01*
X539733Y2468642D01*
X534189Y2446509D01*
X526502Y2425026D01*
X516747Y2404400D01*
X505017Y2384830D01*
X491425Y2366504D01*
X476102Y2349598D01*
X459196Y2334275D01*
X440870Y2320683D01*
X421300Y2308953D01*
X400674Y2299198D01*
X379191Y2291511D01*
X357058Y2285967D01*
X334489Y2282620D01*
X311700Y2281500D01*
X-153300Y2281500D01*
X-176089Y2282620D01*
X-198658Y2285967D01*
X-220791Y2291511D01*
X-242274Y2299198D01*
X-262900Y2308953D01*
X-282470Y2320683D01*
X-300796Y2334275D01*
X-317702Y2349598D01*
X-333025Y2366504D01*
X-346617Y2384830D01*
X-358347Y2404400D01*
X-368102Y2425026D01*
X-375789Y2446509D01*
X-381333Y2468642D01*
X-384680Y2491211D01*
X-385800Y2514000D01*
X-385800Y2979000D01*
X-384680Y3001789D01*
X-381333Y3024358D01*
X-375789Y3046491D01*
X-368102Y3067974D01*
X-358347Y3088600D01*
X-346617Y3108170D01*
X-333025Y3126496D01*
X-317702Y3143402D01*
X-300796Y3158725D01*
X-282470Y3172317D01*
X-262900Y3184047D01*
X-242274Y3193802D01*
X-220791Y3201489D01*
X-198658Y3207033D01*
X-176089Y3210380D01*
X-153300Y3211500D01*
X311700Y3211500D01*
X334489Y3210380D01*
X334489Y3210380D01*
G37*
D20*
X79200Y2746500D03*
D10*
G36*
X-815511Y3210380D02*
X-792942Y3207033D01*
X-770809Y3201489D01*
X-749326Y3193802D01*
X-728700Y3184047D01*
X-709130Y3172317D01*
X-690804Y3158725D01*
X-673898Y3143402D01*
X-658575Y3126496D01*
X-644983Y3108170D01*
X-633253Y3088600D01*
X-623498Y3067974D01*
X-615811Y3046491D01*
X-610267Y3024358D01*
X-606920Y3001789D01*
X-605800Y2979000D01*
X-605800Y2514000D01*
X-606920Y2491211D01*
X-610267Y2468642D01*
X-615811Y2446509D01*
X-623498Y2425026D01*
X-633253Y2404400D01*
X-644983Y2384830D01*
X-658575Y2366504D01*
X-673898Y2349598D01*
X-690804Y2334275D01*
X-709130Y2320683D01*
X-728700Y2308953D01*
X-749326Y2299198D01*
X-770809Y2291511D01*
X-792942Y2285967D01*
X-815511Y2282620D01*
X-838300Y2281500D01*
X-1303300Y2281500D01*
X-1326089Y2282620D01*
X-1348658Y2285967D01*
X-1370791Y2291511D01*
X-1392274Y2299198D01*
X-1412900Y2308953D01*
X-1432470Y2320683D01*
X-1450796Y2334275D01*
X-1467702Y2349598D01*
X-1483025Y2366504D01*
X-1496617Y2384830D01*
X-1508347Y2404400D01*
X-1518102Y2425026D01*
X-1525789Y2446509D01*
X-1531333Y2468642D01*
X-1534680Y2491211D01*
X-1535800Y2514000D01*
X-1535800Y2979000D01*
X-1534680Y3001789D01*
X-1531333Y3024358D01*
X-1525789Y3046491D01*
X-1518102Y3067974D01*
X-1508347Y3088600D01*
X-1496617Y3108170D01*
X-1483025Y3126496D01*
X-1467702Y3143402D01*
X-1450796Y3158725D01*
X-1432470Y3172317D01*
X-1412900Y3184047D01*
X-1392274Y3193802D01*
X-1370791Y3201489D01*
X-1348658Y3207033D01*
X-1326089Y3210380D01*
X-1303300Y3211500D01*
X-838300Y3211500D01*
X-815511Y3210380D01*
X-815511Y3210380D01*
G37*
D20*
X-1070800Y2746500D03*
D10*
G36*
X1884101Y6683759D02*
X1888955Y6683039D01*
X1893714Y6681847D01*
X1898334Y6680194D01*
X1902770Y6678096D01*
X1906979Y6675573D01*
X1910920Y6672651D01*
X1914555Y6669355D01*
X1917851Y6665720D01*
X1920773Y6661779D01*
X1923296Y6657570D01*
X1925394Y6653134D01*
X1927047Y6648514D01*
X1928239Y6643755D01*
X1928959Y6638901D01*
X1929200Y6634000D01*
X1929200Y6034000D01*
X1928959Y6029099D01*
X1928239Y6024245D01*
X1927047Y6019486D01*
X1925394Y6014866D01*
X1923296Y6010430D01*
X1920773Y6006221D01*
X1917851Y6002280D01*
X1914555Y5998645D01*
X1910920Y5995349D01*
X1906979Y5992427D01*
X1902770Y5989904D01*
X1898334Y5987806D01*
X1893714Y5986153D01*
X1888955Y5984961D01*
X1884101Y5984241D01*
X1879200Y5984000D01*
X1779200Y5984000D01*
X1774299Y5984241D01*
X1769445Y5984961D01*
X1764686Y5986153D01*
X1760066Y5987806D01*
X1755630Y5989904D01*
X1751421Y5992427D01*
X1747480Y5995349D01*
X1743845Y5998645D01*
X1740549Y6002280D01*
X1737627Y6006221D01*
X1735104Y6010430D01*
X1733006Y6014866D01*
X1731353Y6019486D01*
X1730161Y6024245D01*
X1729441Y6029099D01*
X1729200Y6034000D01*
X1729200Y6634000D01*
X1729441Y6638901D01*
X1730161Y6643755D01*
X1731353Y6648514D01*
X1733006Y6653134D01*
X1735104Y6657570D01*
X1737627Y6661779D01*
X1740549Y6665720D01*
X1743845Y6669355D01*
X1747480Y6672651D01*
X1751421Y6675573D01*
X1755630Y6678096D01*
X1760066Y6680194D01*
X1764686Y6681847D01*
X1769445Y6683039D01*
X1774299Y6683759D01*
X1779200Y6684000D01*
X1879200Y6684000D01*
X1884101Y6683759D01*
X1884101Y6683759D01*
G37*
D21*
X1829200Y6334000D03*
D10*
G36*
X1384101Y6683759D02*
X1388955Y6683039D01*
X1393714Y6681847D01*
X1398334Y6680194D01*
X1402770Y6678096D01*
X1406979Y6675573D01*
X1410920Y6672651D01*
X1414555Y6669355D01*
X1417851Y6665720D01*
X1420773Y6661779D01*
X1423296Y6657570D01*
X1425394Y6653134D01*
X1427047Y6648514D01*
X1428239Y6643755D01*
X1428959Y6638901D01*
X1429200Y6634000D01*
X1429200Y6034000D01*
X1428959Y6029099D01*
X1428239Y6024245D01*
X1427047Y6019486D01*
X1425394Y6014866D01*
X1423296Y6010430D01*
X1420773Y6006221D01*
X1417851Y6002280D01*
X1414555Y5998645D01*
X1410920Y5995349D01*
X1406979Y5992427D01*
X1402770Y5989904D01*
X1398334Y5987806D01*
X1393714Y5986153D01*
X1388955Y5984961D01*
X1384101Y5984241D01*
X1379200Y5984000D01*
X1279200Y5984000D01*
X1274299Y5984241D01*
X1269445Y5984961D01*
X1264686Y5986153D01*
X1260066Y5987806D01*
X1255630Y5989904D01*
X1251421Y5992427D01*
X1247480Y5995349D01*
X1243845Y5998645D01*
X1240549Y6002280D01*
X1237627Y6006221D01*
X1235104Y6010430D01*
X1233006Y6014866D01*
X1231353Y6019486D01*
X1230161Y6024245D01*
X1229441Y6029099D01*
X1229200Y6034000D01*
X1229200Y6634000D01*
X1229441Y6638901D01*
X1230161Y6643755D01*
X1231353Y6648514D01*
X1233006Y6653134D01*
X1235104Y6657570D01*
X1237627Y6661779D01*
X1240549Y6665720D01*
X1243845Y6669355D01*
X1247480Y6672651D01*
X1251421Y6675573D01*
X1255630Y6678096D01*
X1260066Y6680194D01*
X1264686Y6681847D01*
X1269445Y6683039D01*
X1274299Y6683759D01*
X1279200Y6684000D01*
X1379200Y6684000D01*
X1384101Y6683759D01*
X1384101Y6683759D01*
G37*
D21*
X1329200Y6334000D03*
D10*
G36*
X884101Y6683759D02*
X888955Y6683039D01*
X893714Y6681847D01*
X898334Y6680194D01*
X902770Y6678096D01*
X906979Y6675573D01*
X910920Y6672651D01*
X914555Y6669355D01*
X917851Y6665720D01*
X920773Y6661779D01*
X923296Y6657570D01*
X925394Y6653134D01*
X927047Y6648514D01*
X928239Y6643755D01*
X928959Y6638901D01*
X929200Y6634000D01*
X929200Y6034000D01*
X928959Y6029099D01*
X928239Y6024245D01*
X927047Y6019486D01*
X925394Y6014866D01*
X923296Y6010430D01*
X920773Y6006221D01*
X917851Y6002280D01*
X914555Y5998645D01*
X910920Y5995349D01*
X906979Y5992427D01*
X902770Y5989904D01*
X898334Y5987806D01*
X893714Y5986153D01*
X888955Y5984961D01*
X884101Y5984241D01*
X879200Y5984000D01*
X779200Y5984000D01*
X774299Y5984241D01*
X769445Y5984961D01*
X764686Y5986153D01*
X760066Y5987806D01*
X755630Y5989904D01*
X751421Y5992427D01*
X747480Y5995349D01*
X743845Y5998645D01*
X740549Y6002280D01*
X737627Y6006221D01*
X735104Y6010430D01*
X733006Y6014866D01*
X731353Y6019486D01*
X730161Y6024245D01*
X729441Y6029099D01*
X729200Y6034000D01*
X729200Y6634000D01*
X729441Y6638901D01*
X730161Y6643755D01*
X731353Y6648514D01*
X733006Y6653134D01*
X735104Y6657570D01*
X737627Y6661779D01*
X740549Y6665720D01*
X743845Y6669355D01*
X747480Y6672651D01*
X751421Y6675573D01*
X755630Y6678096D01*
X760066Y6680194D01*
X764686Y6681847D01*
X769445Y6683039D01*
X774299Y6683759D01*
X779200Y6684000D01*
X879200Y6684000D01*
X884101Y6683759D01*
X884101Y6683759D01*
G37*
D21*
X829200Y6334000D03*
D10*
G36*
X384101Y6683759D02*
X388955Y6683039D01*
X393714Y6681847D01*
X398334Y6680194D01*
X402770Y6678096D01*
X406979Y6675573D01*
X410920Y6672651D01*
X414555Y6669355D01*
X417851Y6665720D01*
X420773Y6661779D01*
X423296Y6657570D01*
X425394Y6653134D01*
X427047Y6648514D01*
X428239Y6643755D01*
X428959Y6638901D01*
X429200Y6634000D01*
X429200Y6034000D01*
X428959Y6029099D01*
X428239Y6024245D01*
X427047Y6019486D01*
X425394Y6014866D01*
X423296Y6010430D01*
X420773Y6006221D01*
X417851Y6002280D01*
X414555Y5998645D01*
X410920Y5995349D01*
X406979Y5992427D01*
X402770Y5989904D01*
X398334Y5987806D01*
X393714Y5986153D01*
X388955Y5984961D01*
X384101Y5984241D01*
X379200Y5984000D01*
X279200Y5984000D01*
X274299Y5984241D01*
X269445Y5984961D01*
X264686Y5986153D01*
X260066Y5987806D01*
X255630Y5989904D01*
X251421Y5992427D01*
X247480Y5995349D01*
X243845Y5998645D01*
X240549Y6002280D01*
X237627Y6006221D01*
X235104Y6010430D01*
X233006Y6014866D01*
X231353Y6019486D01*
X230161Y6024245D01*
X229441Y6029099D01*
X229200Y6034000D01*
X229200Y6634000D01*
X229441Y6638901D01*
X230161Y6643755D01*
X231353Y6648514D01*
X233006Y6653134D01*
X235104Y6657570D01*
X237627Y6661779D01*
X240549Y6665720D01*
X243845Y6669355D01*
X247480Y6672651D01*
X251421Y6675573D01*
X255630Y6678096D01*
X260066Y6680194D01*
X264686Y6681847D01*
X269445Y6683039D01*
X274299Y6683759D01*
X279200Y6684000D01*
X379200Y6684000D01*
X384101Y6683759D01*
X384101Y6683759D01*
G37*
D21*
X329200Y6334000D03*
D10*
G36*
X-115899Y6683759D02*
X-111045Y6683039D01*
X-106286Y6681847D01*
X-101666Y6680194D01*
X-97230Y6678096D01*
X-93021Y6675573D01*
X-89080Y6672651D01*
X-85445Y6669355D01*
X-82149Y6665720D01*
X-79227Y6661779D01*
X-76704Y6657570D01*
X-74606Y6653134D01*
X-72953Y6648514D01*
X-71761Y6643755D01*
X-71041Y6638901D01*
X-70800Y6634000D01*
X-70800Y6034000D01*
X-71041Y6029099D01*
X-71761Y6024245D01*
X-72953Y6019486D01*
X-74606Y6014866D01*
X-76704Y6010430D01*
X-79227Y6006221D01*
X-82149Y6002280D01*
X-85445Y5998645D01*
X-89080Y5995349D01*
X-93021Y5992427D01*
X-97230Y5989904D01*
X-101666Y5987806D01*
X-106286Y5986153D01*
X-111045Y5984961D01*
X-115899Y5984241D01*
X-120800Y5984000D01*
X-220800Y5984000D01*
X-225701Y5984241D01*
X-230555Y5984961D01*
X-235314Y5986153D01*
X-239934Y5987806D01*
X-244370Y5989904D01*
X-248579Y5992427D01*
X-252520Y5995349D01*
X-256155Y5998645D01*
X-259451Y6002280D01*
X-262373Y6006221D01*
X-264896Y6010430D01*
X-266994Y6014866D01*
X-268647Y6019486D01*
X-269839Y6024245D01*
X-270559Y6029099D01*
X-270800Y6034000D01*
X-270800Y6634000D01*
X-270559Y6638901D01*
X-269839Y6643755D01*
X-268647Y6648514D01*
X-266994Y6653134D01*
X-264896Y6657570D01*
X-262373Y6661779D01*
X-259451Y6665720D01*
X-256155Y6669355D01*
X-252520Y6672651D01*
X-248579Y6675573D01*
X-244370Y6678096D01*
X-239934Y6680194D01*
X-235314Y6681847D01*
X-230555Y6683039D01*
X-225701Y6683759D01*
X-220800Y6684000D01*
X-120800Y6684000D01*
X-115899Y6683759D01*
X-115899Y6683759D01*
G37*
D21*
X-170800Y6334000D03*
D10*
G36*
X-615899Y6683759D02*
X-611045Y6683039D01*
X-606286Y6681847D01*
X-601666Y6680194D01*
X-597230Y6678096D01*
X-593021Y6675573D01*
X-589080Y6672651D01*
X-585445Y6669355D01*
X-582149Y6665720D01*
X-579227Y6661779D01*
X-576704Y6657570D01*
X-574606Y6653134D01*
X-572953Y6648514D01*
X-571761Y6643755D01*
X-571041Y6638901D01*
X-570800Y6634000D01*
X-570800Y6034000D01*
X-571041Y6029099D01*
X-571761Y6024245D01*
X-572953Y6019486D01*
X-574606Y6014866D01*
X-576704Y6010430D01*
X-579227Y6006221D01*
X-582149Y6002280D01*
X-585445Y5998645D01*
X-589080Y5995349D01*
X-593021Y5992427D01*
X-597230Y5989904D01*
X-601666Y5987806D01*
X-606286Y5986153D01*
X-611045Y5984961D01*
X-615899Y5984241D01*
X-620800Y5984000D01*
X-720800Y5984000D01*
X-725701Y5984241D01*
X-730555Y5984961D01*
X-735314Y5986153D01*
X-739934Y5987806D01*
X-744370Y5989904D01*
X-748579Y5992427D01*
X-752520Y5995349D01*
X-756155Y5998645D01*
X-759451Y6002280D01*
X-762373Y6006221D01*
X-764896Y6010430D01*
X-766994Y6014866D01*
X-768647Y6019486D01*
X-769839Y6024245D01*
X-770559Y6029099D01*
X-770800Y6034000D01*
X-770800Y6634000D01*
X-770559Y6638901D01*
X-769839Y6643755D01*
X-768647Y6648514D01*
X-766994Y6653134D01*
X-764896Y6657570D01*
X-762373Y6661779D01*
X-759451Y6665720D01*
X-756155Y6669355D01*
X-752520Y6672651D01*
X-748579Y6675573D01*
X-744370Y6678096D01*
X-739934Y6680194D01*
X-735314Y6681847D01*
X-730555Y6683039D01*
X-725701Y6683759D01*
X-720800Y6684000D01*
X-620800Y6684000D01*
X-615899Y6683759D01*
X-615899Y6683759D01*
G37*
D21*
X-670800Y6334000D03*
D10*
G36*
X-1115899Y6683759D02*
X-1111045Y6683039D01*
X-1106286Y6681847D01*
X-1101666Y6680194D01*
X-1097230Y6678096D01*
X-1093021Y6675573D01*
X-1089080Y6672651D01*
X-1085445Y6669355D01*
X-1082149Y6665720D01*
X-1079227Y6661779D01*
X-1076704Y6657570D01*
X-1074606Y6653134D01*
X-1072953Y6648514D01*
X-1071761Y6643755D01*
X-1071041Y6638901D01*
X-1070800Y6634000D01*
X-1070800Y6034000D01*
X-1071041Y6029099D01*
X-1071761Y6024245D01*
X-1072953Y6019486D01*
X-1074606Y6014866D01*
X-1076704Y6010430D01*
X-1079227Y6006221D01*
X-1082149Y6002280D01*
X-1085445Y5998645D01*
X-1089080Y5995349D01*
X-1093021Y5992427D01*
X-1097230Y5989904D01*
X-1101666Y5987806D01*
X-1106286Y5986153D01*
X-1111045Y5984961D01*
X-1115899Y5984241D01*
X-1120800Y5984000D01*
X-1220800Y5984000D01*
X-1225701Y5984241D01*
X-1230555Y5984961D01*
X-1235314Y5986153D01*
X-1239934Y5987806D01*
X-1244370Y5989904D01*
X-1248579Y5992427D01*
X-1252520Y5995349D01*
X-1256155Y5998645D01*
X-1259451Y6002280D01*
X-1262373Y6006221D01*
X-1264896Y6010430D01*
X-1266994Y6014866D01*
X-1268647Y6019486D01*
X-1269839Y6024245D01*
X-1270559Y6029099D01*
X-1270800Y6034000D01*
X-1270800Y6634000D01*
X-1270559Y6638901D01*
X-1269839Y6643755D01*
X-1268647Y6648514D01*
X-1266994Y6653134D01*
X-1264896Y6657570D01*
X-1262373Y6661779D01*
X-1259451Y6665720D01*
X-1256155Y6669355D01*
X-1252520Y6672651D01*
X-1248579Y6675573D01*
X-1244370Y6678096D01*
X-1239934Y6680194D01*
X-1235314Y6681847D01*
X-1230555Y6683039D01*
X-1225701Y6683759D01*
X-1220800Y6684000D01*
X-1120800Y6684000D01*
X-1115899Y6683759D01*
X-1115899Y6683759D01*
G37*
D21*
X-1170800Y6334000D03*
D10*
G36*
X-1615899Y6683759D02*
X-1611045Y6683039D01*
X-1606286Y6681847D01*
X-1601666Y6680194D01*
X-1597230Y6678096D01*
X-1593021Y6675573D01*
X-1589080Y6672651D01*
X-1585445Y6669355D01*
X-1582149Y6665720D01*
X-1579227Y6661779D01*
X-1576704Y6657570D01*
X-1574606Y6653134D01*
X-1572953Y6648514D01*
X-1571761Y6643755D01*
X-1571041Y6638901D01*
X-1570800Y6634000D01*
X-1570800Y6034000D01*
X-1571041Y6029099D01*
X-1571761Y6024245D01*
X-1572953Y6019486D01*
X-1574606Y6014866D01*
X-1576704Y6010430D01*
X-1579227Y6006221D01*
X-1582149Y6002280D01*
X-1585445Y5998645D01*
X-1589080Y5995349D01*
X-1593021Y5992427D01*
X-1597230Y5989904D01*
X-1601666Y5987806D01*
X-1606286Y5986153D01*
X-1611045Y5984961D01*
X-1615899Y5984241D01*
X-1620800Y5984000D01*
X-1720800Y5984000D01*
X-1725701Y5984241D01*
X-1730555Y5984961D01*
X-1735314Y5986153D01*
X-1739934Y5987806D01*
X-1744370Y5989904D01*
X-1748579Y5992427D01*
X-1752520Y5995349D01*
X-1756155Y5998645D01*
X-1759451Y6002280D01*
X-1762373Y6006221D01*
X-1764896Y6010430D01*
X-1766994Y6014866D01*
X-1768647Y6019486D01*
X-1769839Y6024245D01*
X-1770559Y6029099D01*
X-1770800Y6034000D01*
X-1770800Y6634000D01*
X-1770559Y6638901D01*
X-1769839Y6643755D01*
X-1768647Y6648514D01*
X-1766994Y6653134D01*
X-1764896Y6657570D01*
X-1762373Y6661779D01*
X-1759451Y6665720D01*
X-1756155Y6669355D01*
X-1752520Y6672651D01*
X-1748579Y6675573D01*
X-1744370Y6678096D01*
X-1739934Y6680194D01*
X-1735314Y6681847D01*
X-1730555Y6683039D01*
X-1725701Y6683759D01*
X-1720800Y6684000D01*
X-1620800Y6684000D01*
X-1615899Y6683759D01*
X-1615899Y6683759D01*
G37*
D21*
X-1670800Y6334000D03*
D10*
G36*
X-2053399Y5746259D02*
X-2048545Y5745539D01*
X-2043786Y5744347D01*
X-2039166Y5742694D01*
X-2034730Y5740596D01*
X-2030521Y5738073D01*
X-2026580Y5735151D01*
X-2022945Y5731855D01*
X-2019649Y5728220D01*
X-2016727Y5724279D01*
X-2014204Y5720070D01*
X-2012106Y5715634D01*
X-2010453Y5711014D01*
X-2009261Y5706255D01*
X-2008541Y5701401D01*
X-2008300Y5696500D01*
X-2008300Y5596500D01*
X-2008541Y5591599D01*
X-2009261Y5586745D01*
X-2010453Y5581986D01*
X-2012106Y5577366D01*
X-2014204Y5572930D01*
X-2016727Y5568721D01*
X-2019649Y5564780D01*
X-2022945Y5561145D01*
X-2026580Y5557849D01*
X-2030521Y5554927D01*
X-2034730Y5552404D01*
X-2039166Y5550306D01*
X-2043786Y5548653D01*
X-2048545Y5547461D01*
X-2053399Y5546741D01*
X-2058300Y5546500D01*
X-2658300Y5546500D01*
X-2663201Y5546741D01*
X-2668055Y5547461D01*
X-2672814Y5548653D01*
X-2677434Y5550306D01*
X-2681870Y5552404D01*
X-2686079Y5554927D01*
X-2690020Y5557849D01*
X-2693655Y5561145D01*
X-2696951Y5564780D01*
X-2699873Y5568721D01*
X-2702396Y5572930D01*
X-2704494Y5577366D01*
X-2706147Y5581986D01*
X-2707339Y5586745D01*
X-2708059Y5591599D01*
X-2708300Y5596500D01*
X-2708300Y5696500D01*
X-2708059Y5701401D01*
X-2707339Y5706255D01*
X-2706147Y5711014D01*
X-2704494Y5715634D01*
X-2702396Y5720070D01*
X-2699873Y5724279D01*
X-2696951Y5728220D01*
X-2693655Y5731855D01*
X-2690020Y5735151D01*
X-2686079Y5738073D01*
X-2681870Y5740596D01*
X-2677434Y5742694D01*
X-2672814Y5744347D01*
X-2668055Y5745539D01*
X-2663201Y5746259D01*
X-2658300Y5746500D01*
X-2058300Y5746500D01*
X-2053399Y5746259D01*
X-2053399Y5746259D01*
G37*
D21*
X-2358300Y5646500D03*
D10*
G36*
X-2053399Y5246259D02*
X-2048545Y5245539D01*
X-2043786Y5244347D01*
X-2039166Y5242694D01*
X-2034730Y5240596D01*
X-2030521Y5238073D01*
X-2026580Y5235151D01*
X-2022945Y5231855D01*
X-2019649Y5228220D01*
X-2016727Y5224279D01*
X-2014204Y5220070D01*
X-2012106Y5215634D01*
X-2010453Y5211014D01*
X-2009261Y5206255D01*
X-2008541Y5201401D01*
X-2008300Y5196500D01*
X-2008300Y5096500D01*
X-2008541Y5091599D01*
X-2009261Y5086745D01*
X-2010453Y5081986D01*
X-2012106Y5077366D01*
X-2014204Y5072930D01*
X-2016727Y5068721D01*
X-2019649Y5064780D01*
X-2022945Y5061145D01*
X-2026580Y5057849D01*
X-2030521Y5054927D01*
X-2034730Y5052404D01*
X-2039166Y5050306D01*
X-2043786Y5048653D01*
X-2048545Y5047461D01*
X-2053399Y5046741D01*
X-2058300Y5046500D01*
X-2658300Y5046500D01*
X-2663201Y5046741D01*
X-2668055Y5047461D01*
X-2672814Y5048653D01*
X-2677434Y5050306D01*
X-2681870Y5052404D01*
X-2686079Y5054927D01*
X-2690020Y5057849D01*
X-2693655Y5061145D01*
X-2696951Y5064780D01*
X-2699873Y5068721D01*
X-2702396Y5072930D01*
X-2704494Y5077366D01*
X-2706147Y5081986D01*
X-2707339Y5086745D01*
X-2708059Y5091599D01*
X-2708300Y5096500D01*
X-2708300Y5196500D01*
X-2708059Y5201401D01*
X-2707339Y5206255D01*
X-2706147Y5211014D01*
X-2704494Y5215634D01*
X-2702396Y5220070D01*
X-2699873Y5224279D01*
X-2696951Y5228220D01*
X-2693655Y5231855D01*
X-2690020Y5235151D01*
X-2686079Y5238073D01*
X-2681870Y5240596D01*
X-2677434Y5242694D01*
X-2672814Y5244347D01*
X-2668055Y5245539D01*
X-2663201Y5246259D01*
X-2658300Y5246500D01*
X-2058300Y5246500D01*
X-2053399Y5246259D01*
X-2053399Y5246259D01*
G37*
D21*
X-2358300Y5146500D03*
D10*
G36*
X-2053399Y4746259D02*
X-2048545Y4745539D01*
X-2043786Y4744347D01*
X-2039166Y4742694D01*
X-2034730Y4740596D01*
X-2030521Y4738073D01*
X-2026580Y4735151D01*
X-2022945Y4731855D01*
X-2019649Y4728220D01*
X-2016727Y4724279D01*
X-2014204Y4720070D01*
X-2012106Y4715634D01*
X-2010453Y4711014D01*
X-2009261Y4706255D01*
X-2008541Y4701401D01*
X-2008300Y4696500D01*
X-2008300Y4596500D01*
X-2008541Y4591599D01*
X-2009261Y4586745D01*
X-2010453Y4581986D01*
X-2012106Y4577366D01*
X-2014204Y4572930D01*
X-2016727Y4568721D01*
X-2019649Y4564780D01*
X-2022945Y4561145D01*
X-2026580Y4557849D01*
X-2030521Y4554927D01*
X-2034730Y4552404D01*
X-2039166Y4550306D01*
X-2043786Y4548653D01*
X-2048545Y4547461D01*
X-2053399Y4546741D01*
X-2058300Y4546500D01*
X-2658300Y4546500D01*
X-2663201Y4546741D01*
X-2668055Y4547461D01*
X-2672814Y4548653D01*
X-2677434Y4550306D01*
X-2681870Y4552404D01*
X-2686079Y4554927D01*
X-2690020Y4557849D01*
X-2693655Y4561145D01*
X-2696951Y4564780D01*
X-2699873Y4568721D01*
X-2702396Y4572930D01*
X-2704494Y4577366D01*
X-2706147Y4581986D01*
X-2707339Y4586745D01*
X-2708059Y4591599D01*
X-2708300Y4596500D01*
X-2708300Y4696500D01*
X-2708059Y4701401D01*
X-2707339Y4706255D01*
X-2706147Y4711014D01*
X-2704494Y4715634D01*
X-2702396Y4720070D01*
X-2699873Y4724279D01*
X-2696951Y4728220D01*
X-2693655Y4731855D01*
X-2690020Y4735151D01*
X-2686079Y4738073D01*
X-2681870Y4740596D01*
X-2677434Y4742694D01*
X-2672814Y4744347D01*
X-2668055Y4745539D01*
X-2663201Y4746259D01*
X-2658300Y4746500D01*
X-2058300Y4746500D01*
X-2053399Y4746259D01*
X-2053399Y4746259D01*
G37*
D21*
X-2358300Y4646500D03*
D10*
G36*
X-2053399Y4246259D02*
X-2048545Y4245539D01*
X-2043786Y4244347D01*
X-2039166Y4242694D01*
X-2034730Y4240596D01*
X-2030521Y4238073D01*
X-2026580Y4235151D01*
X-2022945Y4231855D01*
X-2019649Y4228220D01*
X-2016727Y4224279D01*
X-2014204Y4220070D01*
X-2012106Y4215634D01*
X-2010453Y4211014D01*
X-2009261Y4206255D01*
X-2008541Y4201401D01*
X-2008300Y4196500D01*
X-2008300Y4096500D01*
X-2008541Y4091599D01*
X-2009261Y4086745D01*
X-2010453Y4081986D01*
X-2012106Y4077366D01*
X-2014204Y4072930D01*
X-2016727Y4068721D01*
X-2019649Y4064780D01*
X-2022945Y4061145D01*
X-2026580Y4057849D01*
X-2030521Y4054927D01*
X-2034730Y4052404D01*
X-2039166Y4050306D01*
X-2043786Y4048653D01*
X-2048545Y4047461D01*
X-2053399Y4046741D01*
X-2058300Y4046500D01*
X-2658300Y4046500D01*
X-2663201Y4046741D01*
X-2668055Y4047461D01*
X-2672814Y4048653D01*
X-2677434Y4050306D01*
X-2681870Y4052404D01*
X-2686079Y4054927D01*
X-2690020Y4057849D01*
X-2693655Y4061145D01*
X-2696951Y4064780D01*
X-2699873Y4068721D01*
X-2702396Y4072930D01*
X-2704494Y4077366D01*
X-2706147Y4081986D01*
X-2707339Y4086745D01*
X-2708059Y4091599D01*
X-2708300Y4096500D01*
X-2708300Y4196500D01*
X-2708059Y4201401D01*
X-2707339Y4206255D01*
X-2706147Y4211014D01*
X-2704494Y4215634D01*
X-2702396Y4220070D01*
X-2699873Y4224279D01*
X-2696951Y4228220D01*
X-2693655Y4231855D01*
X-2690020Y4235151D01*
X-2686079Y4238073D01*
X-2681870Y4240596D01*
X-2677434Y4242694D01*
X-2672814Y4244347D01*
X-2668055Y4245539D01*
X-2663201Y4246259D01*
X-2658300Y4246500D01*
X-2058300Y4246500D01*
X-2053399Y4246259D01*
X-2053399Y4246259D01*
G37*
D21*
X-2358300Y4146500D03*
D10*
G36*
X-2053399Y3746259D02*
X-2048545Y3745539D01*
X-2043786Y3744347D01*
X-2039166Y3742694D01*
X-2034730Y3740596D01*
X-2030521Y3738073D01*
X-2026580Y3735151D01*
X-2022945Y3731855D01*
X-2019649Y3728220D01*
X-2016727Y3724279D01*
X-2014204Y3720070D01*
X-2012106Y3715634D01*
X-2010453Y3711014D01*
X-2009261Y3706255D01*
X-2008541Y3701401D01*
X-2008300Y3696500D01*
X-2008300Y3596500D01*
X-2008541Y3591599D01*
X-2009261Y3586745D01*
X-2010453Y3581986D01*
X-2012106Y3577366D01*
X-2014204Y3572930D01*
X-2016727Y3568721D01*
X-2019649Y3564780D01*
X-2022945Y3561145D01*
X-2026580Y3557849D01*
X-2030521Y3554927D01*
X-2034730Y3552404D01*
X-2039166Y3550306D01*
X-2043786Y3548653D01*
X-2048545Y3547461D01*
X-2053399Y3546741D01*
X-2058300Y3546500D01*
X-2658300Y3546500D01*
X-2663201Y3546741D01*
X-2668055Y3547461D01*
X-2672814Y3548653D01*
X-2677434Y3550306D01*
X-2681870Y3552404D01*
X-2686079Y3554927D01*
X-2690020Y3557849D01*
X-2693655Y3561145D01*
X-2696951Y3564780D01*
X-2699873Y3568721D01*
X-2702396Y3572930D01*
X-2704494Y3577366D01*
X-2706147Y3581986D01*
X-2707339Y3586745D01*
X-2708059Y3591599D01*
X-2708300Y3596500D01*
X-2708300Y3696500D01*
X-2708059Y3701401D01*
X-2707339Y3706255D01*
X-2706147Y3711014D01*
X-2704494Y3715634D01*
X-2702396Y3720070D01*
X-2699873Y3724279D01*
X-2696951Y3728220D01*
X-2693655Y3731855D01*
X-2690020Y3735151D01*
X-2686079Y3738073D01*
X-2681870Y3740596D01*
X-2677434Y3742694D01*
X-2672814Y3744347D01*
X-2668055Y3745539D01*
X-2663201Y3746259D01*
X-2658300Y3746500D01*
X-2058300Y3746500D01*
X-2053399Y3746259D01*
X-2053399Y3746259D01*
G37*
D21*
X-2358300Y3646500D03*
D10*
G36*
X-2053399Y3246259D02*
X-2048545Y3245539D01*
X-2043786Y3244347D01*
X-2039166Y3242694D01*
X-2034730Y3240596D01*
X-2030521Y3238073D01*
X-2026580Y3235151D01*
X-2022945Y3231855D01*
X-2019649Y3228220D01*
X-2016727Y3224279D01*
X-2014204Y3220070D01*
X-2012106Y3215634D01*
X-2010453Y3211014D01*
X-2009261Y3206255D01*
X-2008541Y3201401D01*
X-2008300Y3196500D01*
X-2008300Y3096500D01*
X-2008541Y3091599D01*
X-2009261Y3086745D01*
X-2010453Y3081986D01*
X-2012106Y3077366D01*
X-2014204Y3072930D01*
X-2016727Y3068721D01*
X-2019649Y3064780D01*
X-2022945Y3061145D01*
X-2026580Y3057849D01*
X-2030521Y3054927D01*
X-2034730Y3052404D01*
X-2039166Y3050306D01*
X-2043786Y3048653D01*
X-2048545Y3047461D01*
X-2053399Y3046741D01*
X-2058300Y3046500D01*
X-2658300Y3046500D01*
X-2663201Y3046741D01*
X-2668055Y3047461D01*
X-2672814Y3048653D01*
X-2677434Y3050306D01*
X-2681870Y3052404D01*
X-2686079Y3054927D01*
X-2690020Y3057849D01*
X-2693655Y3061145D01*
X-2696951Y3064780D01*
X-2699873Y3068721D01*
X-2702396Y3072930D01*
X-2704494Y3077366D01*
X-2706147Y3081986D01*
X-2707339Y3086745D01*
X-2708059Y3091599D01*
X-2708300Y3096500D01*
X-2708300Y3196500D01*
X-2708059Y3201401D01*
X-2707339Y3206255D01*
X-2706147Y3211014D01*
X-2704494Y3215634D01*
X-2702396Y3220070D01*
X-2699873Y3224279D01*
X-2696951Y3228220D01*
X-2693655Y3231855D01*
X-2690020Y3235151D01*
X-2686079Y3238073D01*
X-2681870Y3240596D01*
X-2677434Y3242694D01*
X-2672814Y3244347D01*
X-2668055Y3245539D01*
X-2663201Y3246259D01*
X-2658300Y3246500D01*
X-2058300Y3246500D01*
X-2053399Y3246259D01*
X-2053399Y3246259D01*
G37*
D21*
X-2358300Y3146500D03*
D10*
G36*
X-2053399Y2746259D02*
X-2048545Y2745539D01*
X-2043786Y2744347D01*
X-2039166Y2742694D01*
X-2034730Y2740596D01*
X-2030521Y2738073D01*
X-2026580Y2735151D01*
X-2022945Y2731855D01*
X-2019649Y2728220D01*
X-2016727Y2724279D01*
X-2014204Y2720070D01*
X-2012106Y2715634D01*
X-2010453Y2711014D01*
X-2009261Y2706255D01*
X-2008541Y2701401D01*
X-2008300Y2696500D01*
X-2008300Y2596500D01*
X-2008541Y2591599D01*
X-2009261Y2586745D01*
X-2010453Y2581986D01*
X-2012106Y2577366D01*
X-2014204Y2572930D01*
X-2016727Y2568721D01*
X-2019649Y2564780D01*
X-2022945Y2561145D01*
X-2026580Y2557849D01*
X-2030521Y2554927D01*
X-2034730Y2552404D01*
X-2039166Y2550306D01*
X-2043786Y2548653D01*
X-2048545Y2547461D01*
X-2053399Y2546741D01*
X-2058300Y2546500D01*
X-2658300Y2546500D01*
X-2663201Y2546741D01*
X-2668055Y2547461D01*
X-2672814Y2548653D01*
X-2677434Y2550306D01*
X-2681870Y2552404D01*
X-2686079Y2554927D01*
X-2690020Y2557849D01*
X-2693655Y2561145D01*
X-2696951Y2564780D01*
X-2699873Y2568721D01*
X-2702396Y2572930D01*
X-2704494Y2577366D01*
X-2706147Y2581986D01*
X-2707339Y2586745D01*
X-2708059Y2591599D01*
X-2708300Y2596500D01*
X-2708300Y2696500D01*
X-2708059Y2701401D01*
X-2707339Y2706255D01*
X-2706147Y2711014D01*
X-2704494Y2715634D01*
X-2702396Y2720070D01*
X-2699873Y2724279D01*
X-2696951Y2728220D01*
X-2693655Y2731855D01*
X-2690020Y2735151D01*
X-2686079Y2738073D01*
X-2681870Y2740596D01*
X-2677434Y2742694D01*
X-2672814Y2744347D01*
X-2668055Y2745539D01*
X-2663201Y2746259D01*
X-2658300Y2746500D01*
X-2058300Y2746500D01*
X-2053399Y2746259D01*
X-2053399Y2746259D01*
G37*
D21*
X-2358300Y2646500D03*
D10*
G36*
X-2053399Y2246259D02*
X-2048545Y2245539D01*
X-2043786Y2244347D01*
X-2039166Y2242694D01*
X-2034730Y2240596D01*
X-2030521Y2238073D01*
X-2026580Y2235151D01*
X-2022945Y2231855D01*
X-2019649Y2228220D01*
X-2016727Y2224279D01*
X-2014204Y2220070D01*
X-2012106Y2215634D01*
X-2010453Y2211014D01*
X-2009261Y2206255D01*
X-2008541Y2201401D01*
X-2008300Y2196500D01*
X-2008300Y2096500D01*
X-2008541Y2091599D01*
X-2009261Y2086745D01*
X-2010453Y2081986D01*
X-2012106Y2077366D01*
X-2014204Y2072930D01*
X-2016727Y2068721D01*
X-2019649Y2064780D01*
X-2022945Y2061145D01*
X-2026580Y2057849D01*
X-2030521Y2054927D01*
X-2034730Y2052404D01*
X-2039166Y2050306D01*
X-2043786Y2048653D01*
X-2048545Y2047461D01*
X-2053399Y2046741D01*
X-2058300Y2046500D01*
X-2658300Y2046500D01*
X-2663201Y2046741D01*
X-2668055Y2047461D01*
X-2672814Y2048653D01*
X-2677434Y2050306D01*
X-2681870Y2052404D01*
X-2686079Y2054927D01*
X-2690020Y2057849D01*
X-2693655Y2061145D01*
X-2696951Y2064780D01*
X-2699873Y2068721D01*
X-2702396Y2072930D01*
X-2704494Y2077366D01*
X-2706147Y2081986D01*
X-2707339Y2086745D01*
X-2708059Y2091599D01*
X-2708300Y2096500D01*
X-2708300Y2196500D01*
X-2708059Y2201401D01*
X-2707339Y2206255D01*
X-2706147Y2211014D01*
X-2704494Y2215634D01*
X-2702396Y2220070D01*
X-2699873Y2224279D01*
X-2696951Y2228220D01*
X-2693655Y2231855D01*
X-2690020Y2235151D01*
X-2686079Y2238073D01*
X-2681870Y2240596D01*
X-2677434Y2242694D01*
X-2672814Y2244347D01*
X-2668055Y2245539D01*
X-2663201Y2246259D01*
X-2658300Y2246500D01*
X-2058300Y2246500D01*
X-2053399Y2246259D01*
X-2053399Y2246259D01*
G37*
D21*
X-2358300Y2146500D03*
D10*
G36*
X-1615899Y1808759D02*
X-1611045Y1808039D01*
X-1606286Y1806847D01*
X-1601666Y1805194D01*
X-1597230Y1803096D01*
X-1593021Y1800573D01*
X-1589080Y1797651D01*
X-1585445Y1794355D01*
X-1582149Y1790720D01*
X-1579227Y1786779D01*
X-1576704Y1782570D01*
X-1574606Y1778134D01*
X-1572953Y1773514D01*
X-1571761Y1768755D01*
X-1571041Y1763901D01*
X-1570800Y1759000D01*
X-1570800Y1159000D01*
X-1571041Y1154099D01*
X-1571761Y1149245D01*
X-1572953Y1144486D01*
X-1574606Y1139866D01*
X-1576704Y1135430D01*
X-1579227Y1131221D01*
X-1582149Y1127280D01*
X-1585445Y1123645D01*
X-1589080Y1120349D01*
X-1593021Y1117427D01*
X-1597230Y1114904D01*
X-1601666Y1112806D01*
X-1606286Y1111153D01*
X-1611045Y1109961D01*
X-1615899Y1109241D01*
X-1620800Y1109000D01*
X-1720800Y1109000D01*
X-1725701Y1109241D01*
X-1730555Y1109961D01*
X-1735314Y1111153D01*
X-1739934Y1112806D01*
X-1744370Y1114904D01*
X-1748579Y1117427D01*
X-1752520Y1120349D01*
X-1756155Y1123645D01*
X-1759451Y1127280D01*
X-1762373Y1131221D01*
X-1764896Y1135430D01*
X-1766994Y1139866D01*
X-1768647Y1144486D01*
X-1769839Y1149245D01*
X-1770559Y1154099D01*
X-1770800Y1159000D01*
X-1770800Y1759000D01*
X-1770559Y1763901D01*
X-1769839Y1768755D01*
X-1768647Y1773514D01*
X-1766994Y1778134D01*
X-1764896Y1782570D01*
X-1762373Y1786779D01*
X-1759451Y1790720D01*
X-1756155Y1794355D01*
X-1752520Y1797651D01*
X-1748579Y1800573D01*
X-1744370Y1803096D01*
X-1739934Y1805194D01*
X-1735314Y1806847D01*
X-1730555Y1808039D01*
X-1725701Y1808759D01*
X-1720800Y1809000D01*
X-1620800Y1809000D01*
X-1615899Y1808759D01*
X-1615899Y1808759D01*
G37*
D21*
X-1670800Y1459000D03*
D10*
G36*
X-1115899Y1808759D02*
X-1111045Y1808039D01*
X-1106286Y1806847D01*
X-1101666Y1805194D01*
X-1097230Y1803096D01*
X-1093021Y1800573D01*
X-1089080Y1797651D01*
X-1085445Y1794355D01*
X-1082149Y1790720D01*
X-1079227Y1786779D01*
X-1076704Y1782570D01*
X-1074606Y1778134D01*
X-1072953Y1773514D01*
X-1071761Y1768755D01*
X-1071041Y1763901D01*
X-1070800Y1759000D01*
X-1070800Y1159000D01*
X-1071041Y1154099D01*
X-1071761Y1149245D01*
X-1072953Y1144486D01*
X-1074606Y1139866D01*
X-1076704Y1135430D01*
X-1079227Y1131221D01*
X-1082149Y1127280D01*
X-1085445Y1123645D01*
X-1089080Y1120349D01*
X-1093021Y1117427D01*
X-1097230Y1114904D01*
X-1101666Y1112806D01*
X-1106286Y1111153D01*
X-1111045Y1109961D01*
X-1115899Y1109241D01*
X-1120800Y1109000D01*
X-1220800Y1109000D01*
X-1225701Y1109241D01*
X-1230555Y1109961D01*
X-1235314Y1111153D01*
X-1239934Y1112806D01*
X-1244370Y1114904D01*
X-1248579Y1117427D01*
X-1252520Y1120349D01*
X-1256155Y1123645D01*
X-1259451Y1127280D01*
X-1262373Y1131221D01*
X-1264896Y1135430D01*
X-1266994Y1139866D01*
X-1268647Y1144486D01*
X-1269839Y1149245D01*
X-1270559Y1154099D01*
X-1270800Y1159000D01*
X-1270800Y1759000D01*
X-1270559Y1763901D01*
X-1269839Y1768755D01*
X-1268647Y1773514D01*
X-1266994Y1778134D01*
X-1264896Y1782570D01*
X-1262373Y1786779D01*
X-1259451Y1790720D01*
X-1256155Y1794355D01*
X-1252520Y1797651D01*
X-1248579Y1800573D01*
X-1244370Y1803096D01*
X-1239934Y1805194D01*
X-1235314Y1806847D01*
X-1230555Y1808039D01*
X-1225701Y1808759D01*
X-1220800Y1809000D01*
X-1120800Y1809000D01*
X-1115899Y1808759D01*
X-1115899Y1808759D01*
G37*
D21*
X-1170800Y1459000D03*
D10*
G36*
X-615899Y1808759D02*
X-611045Y1808039D01*
X-606286Y1806847D01*
X-601666Y1805194D01*
X-597230Y1803096D01*
X-593021Y1800573D01*
X-589080Y1797651D01*
X-585445Y1794355D01*
X-582149Y1790720D01*
X-579227Y1786779D01*
X-576704Y1782570D01*
X-574606Y1778134D01*
X-572953Y1773514D01*
X-571761Y1768755D01*
X-571041Y1763901D01*
X-570800Y1759000D01*
X-570800Y1159000D01*
X-571041Y1154099D01*
X-571761Y1149245D01*
X-572953Y1144486D01*
X-574606Y1139866D01*
X-576704Y1135430D01*
X-579227Y1131221D01*
X-582149Y1127280D01*
X-585445Y1123645D01*
X-589080Y1120349D01*
X-593021Y1117427D01*
X-597230Y1114904D01*
X-601666Y1112806D01*
X-606286Y1111153D01*
X-611045Y1109961D01*
X-615899Y1109241D01*
X-620800Y1109000D01*
X-720800Y1109000D01*
X-725701Y1109241D01*
X-730555Y1109961D01*
X-735314Y1111153D01*
X-739934Y1112806D01*
X-744370Y1114904D01*
X-748579Y1117427D01*
X-752520Y1120349D01*
X-756155Y1123645D01*
X-759451Y1127280D01*
X-762373Y1131221D01*
X-764896Y1135430D01*
X-766994Y1139866D01*
X-768647Y1144486D01*
X-769839Y1149245D01*
X-770559Y1154099D01*
X-770800Y1159000D01*
X-770800Y1759000D01*
X-770559Y1763901D01*
X-769839Y1768755D01*
X-768647Y1773514D01*
X-766994Y1778134D01*
X-764896Y1782570D01*
X-762373Y1786779D01*
X-759451Y1790720D01*
X-756155Y1794355D01*
X-752520Y1797651D01*
X-748579Y1800573D01*
X-744370Y1803096D01*
X-739934Y1805194D01*
X-735314Y1806847D01*
X-730555Y1808039D01*
X-725701Y1808759D01*
X-720800Y1809000D01*
X-620800Y1809000D01*
X-615899Y1808759D01*
X-615899Y1808759D01*
G37*
D21*
X-670800Y1459000D03*
D10*
G36*
X-115899Y1808759D02*
X-111045Y1808039D01*
X-106286Y1806847D01*
X-101666Y1805194D01*
X-97230Y1803096D01*
X-93021Y1800573D01*
X-89080Y1797651D01*
X-85445Y1794355D01*
X-82149Y1790720D01*
X-79227Y1786779D01*
X-76704Y1782570D01*
X-74606Y1778134D01*
X-72953Y1773514D01*
X-71761Y1768755D01*
X-71041Y1763901D01*
X-70800Y1759000D01*
X-70800Y1159000D01*
X-71041Y1154099D01*
X-71761Y1149245D01*
X-72953Y1144486D01*
X-74606Y1139866D01*
X-76704Y1135430D01*
X-79227Y1131221D01*
X-82149Y1127280D01*
X-85445Y1123645D01*
X-89080Y1120349D01*
X-93021Y1117427D01*
X-97230Y1114904D01*
X-101666Y1112806D01*
X-106286Y1111153D01*
X-111045Y1109961D01*
X-115899Y1109241D01*
X-120800Y1109000D01*
X-220800Y1109000D01*
X-225701Y1109241D01*
X-230555Y1109961D01*
X-235314Y1111153D01*
X-239934Y1112806D01*
X-244370Y1114904D01*
X-248579Y1117427D01*
X-252520Y1120349D01*
X-256155Y1123645D01*
X-259451Y1127280D01*
X-262373Y1131221D01*
X-264896Y1135430D01*
X-266994Y1139866D01*
X-268647Y1144486D01*
X-269839Y1149245D01*
X-270559Y1154099D01*
X-270800Y1159000D01*
X-270800Y1759000D01*
X-270559Y1763901D01*
X-269839Y1768755D01*
X-268647Y1773514D01*
X-266994Y1778134D01*
X-264896Y1782570D01*
X-262373Y1786779D01*
X-259451Y1790720D01*
X-256155Y1794355D01*
X-252520Y1797651D01*
X-248579Y1800573D01*
X-244370Y1803096D01*
X-239934Y1805194D01*
X-235314Y1806847D01*
X-230555Y1808039D01*
X-225701Y1808759D01*
X-220800Y1809000D01*
X-120800Y1809000D01*
X-115899Y1808759D01*
X-115899Y1808759D01*
G37*
D21*
X-170800Y1459000D03*
D10*
G36*
X384101Y1808759D02*
X388955Y1808039D01*
X393714Y1806847D01*
X398334Y1805194D01*
X402770Y1803096D01*
X406979Y1800573D01*
X410920Y1797651D01*
X414555Y1794355D01*
X417851Y1790720D01*
X420773Y1786779D01*
X423296Y1782570D01*
X425394Y1778134D01*
X427047Y1773514D01*
X428239Y1768755D01*
X428959Y1763901D01*
X429200Y1759000D01*
X429200Y1159000D01*
X428959Y1154099D01*
X428239Y1149245D01*
X427047Y1144486D01*
X425394Y1139866D01*
X423296Y1135430D01*
X420773Y1131221D01*
X417851Y1127280D01*
X414555Y1123645D01*
X410920Y1120349D01*
X406979Y1117427D01*
X402770Y1114904D01*
X398334Y1112806D01*
X393714Y1111153D01*
X388955Y1109961D01*
X384101Y1109241D01*
X379200Y1109000D01*
X279200Y1109000D01*
X274299Y1109241D01*
X269445Y1109961D01*
X264686Y1111153D01*
X260066Y1112806D01*
X255630Y1114904D01*
X251421Y1117427D01*
X247480Y1120349D01*
X243845Y1123645D01*
X240549Y1127280D01*
X237627Y1131221D01*
X235104Y1135430D01*
X233006Y1139866D01*
X231353Y1144486D01*
X230161Y1149245D01*
X229441Y1154099D01*
X229200Y1159000D01*
X229200Y1759000D01*
X229441Y1763901D01*
X230161Y1768755D01*
X231353Y1773514D01*
X233006Y1778134D01*
X235104Y1782570D01*
X237627Y1786779D01*
X240549Y1790720D01*
X243845Y1794355D01*
X247480Y1797651D01*
X251421Y1800573D01*
X255630Y1803096D01*
X260066Y1805194D01*
X264686Y1806847D01*
X269445Y1808039D01*
X274299Y1808759D01*
X279200Y1809000D01*
X379200Y1809000D01*
X384101Y1808759D01*
X384101Y1808759D01*
G37*
D21*
X329200Y1459000D03*
D10*
G36*
X884101Y1808759D02*
X888955Y1808039D01*
X893714Y1806847D01*
X898334Y1805194D01*
X902770Y1803096D01*
X906979Y1800573D01*
X910920Y1797651D01*
X914555Y1794355D01*
X917851Y1790720D01*
X920773Y1786779D01*
X923296Y1782570D01*
X925394Y1778134D01*
X927047Y1773514D01*
X928239Y1768755D01*
X928959Y1763901D01*
X929200Y1759000D01*
X929200Y1159000D01*
X928959Y1154099D01*
X928239Y1149245D01*
X927047Y1144486D01*
X925394Y1139866D01*
X923296Y1135430D01*
X920773Y1131221D01*
X917851Y1127280D01*
X914555Y1123645D01*
X910920Y1120349D01*
X906979Y1117427D01*
X902770Y1114904D01*
X898334Y1112806D01*
X893714Y1111153D01*
X888955Y1109961D01*
X884101Y1109241D01*
X879200Y1109000D01*
X779200Y1109000D01*
X774299Y1109241D01*
X769445Y1109961D01*
X764686Y1111153D01*
X760066Y1112806D01*
X755630Y1114904D01*
X751421Y1117427D01*
X747480Y1120349D01*
X743845Y1123645D01*
X740549Y1127280D01*
X737627Y1131221D01*
X735104Y1135430D01*
X733006Y1139866D01*
X731353Y1144486D01*
X730161Y1149245D01*
X729441Y1154099D01*
X729200Y1159000D01*
X729200Y1759000D01*
X729441Y1763901D01*
X730161Y1768755D01*
X731353Y1773514D01*
X733006Y1778134D01*
X735104Y1782570D01*
X737627Y1786779D01*
X740549Y1790720D01*
X743845Y1794355D01*
X747480Y1797651D01*
X751421Y1800573D01*
X755630Y1803096D01*
X760066Y1805194D01*
X764686Y1806847D01*
X769445Y1808039D01*
X774299Y1808759D01*
X779200Y1809000D01*
X879200Y1809000D01*
X884101Y1808759D01*
X884101Y1808759D01*
G37*
D21*
X829200Y1459000D03*
D10*
G36*
X1384101Y1808759D02*
X1388955Y1808039D01*
X1393714Y1806847D01*
X1398334Y1805194D01*
X1402770Y1803096D01*
X1406979Y1800573D01*
X1410920Y1797651D01*
X1414555Y1794355D01*
X1417851Y1790720D01*
X1420773Y1786779D01*
X1423296Y1782570D01*
X1425394Y1778134D01*
X1427047Y1773514D01*
X1428239Y1768755D01*
X1428959Y1763901D01*
X1429200Y1759000D01*
X1429200Y1159000D01*
X1428959Y1154099D01*
X1428239Y1149245D01*
X1427047Y1144486D01*
X1425394Y1139866D01*
X1423296Y1135430D01*
X1420773Y1131221D01*
X1417851Y1127280D01*
X1414555Y1123645D01*
X1410920Y1120349D01*
X1406979Y1117427D01*
X1402770Y1114904D01*
X1398334Y1112806D01*
X1393714Y1111153D01*
X1388955Y1109961D01*
X1384101Y1109241D01*
X1379200Y1109000D01*
X1279200Y1109000D01*
X1274299Y1109241D01*
X1269445Y1109961D01*
X1264686Y1111153D01*
X1260066Y1112806D01*
X1255630Y1114904D01*
X1251421Y1117427D01*
X1247480Y1120349D01*
X1243845Y1123645D01*
X1240549Y1127280D01*
X1237627Y1131221D01*
X1235104Y1135430D01*
X1233006Y1139866D01*
X1231353Y1144486D01*
X1230161Y1149245D01*
X1229441Y1154099D01*
X1229200Y1159000D01*
X1229200Y1759000D01*
X1229441Y1763901D01*
X1230161Y1768755D01*
X1231353Y1773514D01*
X1233006Y1778134D01*
X1235104Y1782570D01*
X1237627Y1786779D01*
X1240549Y1790720D01*
X1243845Y1794355D01*
X1247480Y1797651D01*
X1251421Y1800573D01*
X1255630Y1803096D01*
X1260066Y1805194D01*
X1264686Y1806847D01*
X1269445Y1808039D01*
X1274299Y1808759D01*
X1279200Y1809000D01*
X1379200Y1809000D01*
X1384101Y1808759D01*
X1384101Y1808759D01*
G37*
D21*
X1329200Y1459000D03*
D10*
G36*
X1884101Y1808759D02*
X1888955Y1808039D01*
X1893714Y1806847D01*
X1898334Y1805194D01*
X1902770Y1803096D01*
X1906979Y1800573D01*
X1910920Y1797651D01*
X1914555Y1794355D01*
X1917851Y1790720D01*
X1920773Y1786779D01*
X1923296Y1782570D01*
X1925394Y1778134D01*
X1927047Y1773514D01*
X1928239Y1768755D01*
X1928959Y1763901D01*
X1929200Y1759000D01*
X1929200Y1159000D01*
X1928959Y1154099D01*
X1928239Y1149245D01*
X1927047Y1144486D01*
X1925394Y1139866D01*
X1923296Y1135430D01*
X1920773Y1131221D01*
X1917851Y1127280D01*
X1914555Y1123645D01*
X1910920Y1120349D01*
X1906979Y1117427D01*
X1902770Y1114904D01*
X1898334Y1112806D01*
X1893714Y1111153D01*
X1888955Y1109961D01*
X1884101Y1109241D01*
X1879200Y1109000D01*
X1779200Y1109000D01*
X1774299Y1109241D01*
X1769445Y1109961D01*
X1764686Y1111153D01*
X1760066Y1112806D01*
X1755630Y1114904D01*
X1751421Y1117427D01*
X1747480Y1120349D01*
X1743845Y1123645D01*
X1740549Y1127280D01*
X1737627Y1131221D01*
X1735104Y1135430D01*
X1733006Y1139866D01*
X1731353Y1144486D01*
X1730161Y1149245D01*
X1729441Y1154099D01*
X1729200Y1159000D01*
X1729200Y1759000D01*
X1729441Y1763901D01*
X1730161Y1768755D01*
X1731353Y1773514D01*
X1733006Y1778134D01*
X1735104Y1782570D01*
X1737627Y1786779D01*
X1740549Y1790720D01*
X1743845Y1794355D01*
X1747480Y1797651D01*
X1751421Y1800573D01*
X1755630Y1803096D01*
X1760066Y1805194D01*
X1764686Y1806847D01*
X1769445Y1808039D01*
X1774299Y1808759D01*
X1779200Y1809000D01*
X1879200Y1809000D01*
X1884101Y1808759D01*
X1884101Y1808759D01*
G37*
D21*
X1829200Y1459000D03*
D10*
G36*
X2821601Y2246259D02*
X2826455Y2245539D01*
X2831214Y2244347D01*
X2835834Y2242694D01*
X2840270Y2240596D01*
X2844479Y2238073D01*
X2848420Y2235151D01*
X2852055Y2231855D01*
X2855351Y2228220D01*
X2858273Y2224279D01*
X2860796Y2220070D01*
X2862894Y2215634D01*
X2864547Y2211014D01*
X2865739Y2206255D01*
X2866459Y2201401D01*
X2866700Y2196500D01*
X2866700Y2096500D01*
X2866459Y2091599D01*
X2865739Y2086745D01*
X2864547Y2081986D01*
X2862894Y2077366D01*
X2860796Y2072930D01*
X2858273Y2068721D01*
X2855351Y2064780D01*
X2852055Y2061145D01*
X2848420Y2057849D01*
X2844479Y2054927D01*
X2840270Y2052404D01*
X2835834Y2050306D01*
X2831214Y2048653D01*
X2826455Y2047461D01*
X2821601Y2046741D01*
X2816700Y2046500D01*
X2216700Y2046500D01*
X2211799Y2046741D01*
X2206945Y2047461D01*
X2202186Y2048653D01*
X2197566Y2050306D01*
X2193130Y2052404D01*
X2188921Y2054927D01*
X2184980Y2057849D01*
X2181345Y2061145D01*
X2178049Y2064780D01*
X2175127Y2068721D01*
X2172604Y2072930D01*
X2170506Y2077366D01*
X2168853Y2081986D01*
X2167661Y2086745D01*
X2166941Y2091599D01*
X2166700Y2096500D01*
X2166700Y2196500D01*
X2166941Y2201401D01*
X2167661Y2206255D01*
X2168853Y2211014D01*
X2170506Y2215634D01*
X2172604Y2220070D01*
X2175127Y2224279D01*
X2178049Y2228220D01*
X2181345Y2231855D01*
X2184980Y2235151D01*
X2188921Y2238073D01*
X2193130Y2240596D01*
X2197566Y2242694D01*
X2202186Y2244347D01*
X2206945Y2245539D01*
X2211799Y2246259D01*
X2216700Y2246500D01*
X2816700Y2246500D01*
X2821601Y2246259D01*
X2821601Y2246259D01*
G37*
D21*
X2516700Y2146500D03*
D10*
G36*
X2821601Y2746259D02*
X2826455Y2745539D01*
X2831214Y2744347D01*
X2835834Y2742694D01*
X2840270Y2740596D01*
X2844479Y2738073D01*
X2848420Y2735151D01*
X2852055Y2731855D01*
X2855351Y2728220D01*
X2858273Y2724279D01*
X2860796Y2720070D01*
X2862894Y2715634D01*
X2864547Y2711014D01*
X2865739Y2706255D01*
X2866459Y2701401D01*
X2866700Y2696500D01*
X2866700Y2596500D01*
X2866459Y2591599D01*
X2865739Y2586745D01*
X2864547Y2581986D01*
X2862894Y2577366D01*
X2860796Y2572930D01*
X2858273Y2568721D01*
X2855351Y2564780D01*
X2852055Y2561145D01*
X2848420Y2557849D01*
X2844479Y2554927D01*
X2840270Y2552404D01*
X2835834Y2550306D01*
X2831214Y2548653D01*
X2826455Y2547461D01*
X2821601Y2546741D01*
X2816700Y2546500D01*
X2216700Y2546500D01*
X2211799Y2546741D01*
X2206945Y2547461D01*
X2202186Y2548653D01*
X2197566Y2550306D01*
X2193130Y2552404D01*
X2188921Y2554927D01*
X2184980Y2557849D01*
X2181345Y2561145D01*
X2178049Y2564780D01*
X2175127Y2568721D01*
X2172604Y2572930D01*
X2170506Y2577366D01*
X2168853Y2581986D01*
X2167661Y2586745D01*
X2166941Y2591599D01*
X2166700Y2596500D01*
X2166700Y2696500D01*
X2166941Y2701401D01*
X2167661Y2706255D01*
X2168853Y2711014D01*
X2170506Y2715634D01*
X2172604Y2720070D01*
X2175127Y2724279D01*
X2178049Y2728220D01*
X2181345Y2731855D01*
X2184980Y2735151D01*
X2188921Y2738073D01*
X2193130Y2740596D01*
X2197566Y2742694D01*
X2202186Y2744347D01*
X2206945Y2745539D01*
X2211799Y2746259D01*
X2216700Y2746500D01*
X2816700Y2746500D01*
X2821601Y2746259D01*
X2821601Y2746259D01*
G37*
D21*
X2516700Y2646500D03*
D10*
G36*
X2821601Y3246259D02*
X2826455Y3245539D01*
X2831214Y3244347D01*
X2835834Y3242694D01*
X2840270Y3240596D01*
X2844479Y3238073D01*
X2848420Y3235151D01*
X2852055Y3231855D01*
X2855351Y3228220D01*
X2858273Y3224279D01*
X2860796Y3220070D01*
X2862894Y3215634D01*
X2864547Y3211014D01*
X2865739Y3206255D01*
X2866459Y3201401D01*
X2866700Y3196500D01*
X2866700Y3096500D01*
X2866459Y3091599D01*
X2865739Y3086745D01*
X2864547Y3081986D01*
X2862894Y3077366D01*
X2860796Y3072930D01*
X2858273Y3068721D01*
X2855351Y3064780D01*
X2852055Y3061145D01*
X2848420Y3057849D01*
X2844479Y3054927D01*
X2840270Y3052404D01*
X2835834Y3050306D01*
X2831214Y3048653D01*
X2826455Y3047461D01*
X2821601Y3046741D01*
X2816700Y3046500D01*
X2216700Y3046500D01*
X2211799Y3046741D01*
X2206945Y3047461D01*
X2202186Y3048653D01*
X2197566Y3050306D01*
X2193130Y3052404D01*
X2188921Y3054927D01*
X2184980Y3057849D01*
X2181345Y3061145D01*
X2178049Y3064780D01*
X2175127Y3068721D01*
X2172604Y3072930D01*
X2170506Y3077366D01*
X2168853Y3081986D01*
X2167661Y3086745D01*
X2166941Y3091599D01*
X2166700Y3096500D01*
X2166700Y3196500D01*
X2166941Y3201401D01*
X2167661Y3206255D01*
X2168853Y3211014D01*
X2170506Y3215634D01*
X2172604Y3220070D01*
X2175127Y3224279D01*
X2178049Y3228220D01*
X2181345Y3231855D01*
X2184980Y3235151D01*
X2188921Y3238073D01*
X2193130Y3240596D01*
X2197566Y3242694D01*
X2202186Y3244347D01*
X2206945Y3245539D01*
X2211799Y3246259D01*
X2216700Y3246500D01*
X2816700Y3246500D01*
X2821601Y3246259D01*
X2821601Y3246259D01*
G37*
D21*
X2516700Y3146500D03*
D10*
G36*
X2821601Y3746259D02*
X2826455Y3745539D01*
X2831214Y3744347D01*
X2835834Y3742694D01*
X2840270Y3740596D01*
X2844479Y3738073D01*
X2848420Y3735151D01*
X2852055Y3731855D01*
X2855351Y3728220D01*
X2858273Y3724279D01*
X2860796Y3720070D01*
X2862894Y3715634D01*
X2864547Y3711014D01*
X2865739Y3706255D01*
X2866459Y3701401D01*
X2866700Y3696500D01*
X2866700Y3596500D01*
X2866459Y3591599D01*
X2865739Y3586745D01*
X2864547Y3581986D01*
X2862894Y3577366D01*
X2860796Y3572930D01*
X2858273Y3568721D01*
X2855351Y3564780D01*
X2852055Y3561145D01*
X2848420Y3557849D01*
X2844479Y3554927D01*
X2840270Y3552404D01*
X2835834Y3550306D01*
X2831214Y3548653D01*
X2826455Y3547461D01*
X2821601Y3546741D01*
X2816700Y3546500D01*
X2216700Y3546500D01*
X2211799Y3546741D01*
X2206945Y3547461D01*
X2202186Y3548653D01*
X2197566Y3550306D01*
X2193130Y3552404D01*
X2188921Y3554927D01*
X2184980Y3557849D01*
X2181345Y3561145D01*
X2178049Y3564780D01*
X2175127Y3568721D01*
X2172604Y3572930D01*
X2170506Y3577366D01*
X2168853Y3581986D01*
X2167661Y3586745D01*
X2166941Y3591599D01*
X2166700Y3596500D01*
X2166700Y3696500D01*
X2166941Y3701401D01*
X2167661Y3706255D01*
X2168853Y3711014D01*
X2170506Y3715634D01*
X2172604Y3720070D01*
X2175127Y3724279D01*
X2178049Y3728220D01*
X2181345Y3731855D01*
X2184980Y3735151D01*
X2188921Y3738073D01*
X2193130Y3740596D01*
X2197566Y3742694D01*
X2202186Y3744347D01*
X2206945Y3745539D01*
X2211799Y3746259D01*
X2216700Y3746500D01*
X2816700Y3746500D01*
X2821601Y3746259D01*
X2821601Y3746259D01*
G37*
D21*
X2516700Y3646500D03*
D10*
G36*
X2821601Y4246259D02*
X2826455Y4245539D01*
X2831214Y4244347D01*
X2835834Y4242694D01*
X2840270Y4240596D01*
X2844479Y4238073D01*
X2848420Y4235151D01*
X2852055Y4231855D01*
X2855351Y4228220D01*
X2858273Y4224279D01*
X2860796Y4220070D01*
X2862894Y4215634D01*
X2864547Y4211014D01*
X2865739Y4206255D01*
X2866459Y4201401D01*
X2866700Y4196500D01*
X2866700Y4096500D01*
X2866459Y4091599D01*
X2865739Y4086745D01*
X2864547Y4081986D01*
X2862894Y4077366D01*
X2860796Y4072930D01*
X2858273Y4068721D01*
X2855351Y4064780D01*
X2852055Y4061145D01*
X2848420Y4057849D01*
X2844479Y4054927D01*
X2840270Y4052404D01*
X2835834Y4050306D01*
X2831214Y4048653D01*
X2826455Y4047461D01*
X2821601Y4046741D01*
X2816700Y4046500D01*
X2216700Y4046500D01*
X2211799Y4046741D01*
X2206945Y4047461D01*
X2202186Y4048653D01*
X2197566Y4050306D01*
X2193130Y4052404D01*
X2188921Y4054927D01*
X2184980Y4057849D01*
X2181345Y4061145D01*
X2178049Y4064780D01*
X2175127Y4068721D01*
X2172604Y4072930D01*
X2170506Y4077366D01*
X2168853Y4081986D01*
X2167661Y4086745D01*
X2166941Y4091599D01*
X2166700Y4096500D01*
X2166700Y4196500D01*
X2166941Y4201401D01*
X2167661Y4206255D01*
X2168853Y4211014D01*
X2170506Y4215634D01*
X2172604Y4220070D01*
X2175127Y4224279D01*
X2178049Y4228220D01*
X2181345Y4231855D01*
X2184980Y4235151D01*
X2188921Y4238073D01*
X2193130Y4240596D01*
X2197566Y4242694D01*
X2202186Y4244347D01*
X2206945Y4245539D01*
X2211799Y4246259D01*
X2216700Y4246500D01*
X2816700Y4246500D01*
X2821601Y4246259D01*
X2821601Y4246259D01*
G37*
D21*
X2516700Y4146500D03*
D10*
G36*
X2821601Y4746259D02*
X2826455Y4745539D01*
X2831214Y4744347D01*
X2835834Y4742694D01*
X2840270Y4740596D01*
X2844479Y4738073D01*
X2848420Y4735151D01*
X2852055Y4731855D01*
X2855351Y4728220D01*
X2858273Y4724279D01*
X2860796Y4720070D01*
X2862894Y4715634D01*
X2864547Y4711014D01*
X2865739Y4706255D01*
X2866459Y4701401D01*
X2866700Y4696500D01*
X2866700Y4596500D01*
X2866459Y4591599D01*
X2865739Y4586745D01*
X2864547Y4581986D01*
X2862894Y4577366D01*
X2860796Y4572930D01*
X2858273Y4568721D01*
X2855351Y4564780D01*
X2852055Y4561145D01*
X2848420Y4557849D01*
X2844479Y4554927D01*
X2840270Y4552404D01*
X2835834Y4550306D01*
X2831214Y4548653D01*
X2826455Y4547461D01*
X2821601Y4546741D01*
X2816700Y4546500D01*
X2216700Y4546500D01*
X2211799Y4546741D01*
X2206945Y4547461D01*
X2202186Y4548653D01*
X2197566Y4550306D01*
X2193130Y4552404D01*
X2188921Y4554927D01*
X2184980Y4557849D01*
X2181345Y4561145D01*
X2178049Y4564780D01*
X2175127Y4568721D01*
X2172604Y4572930D01*
X2170506Y4577366D01*
X2168853Y4581986D01*
X2167661Y4586745D01*
X2166941Y4591599D01*
X2166700Y4596500D01*
X2166700Y4696500D01*
X2166941Y4701401D01*
X2167661Y4706255D01*
X2168853Y4711014D01*
X2170506Y4715634D01*
X2172604Y4720070D01*
X2175127Y4724279D01*
X2178049Y4728220D01*
X2181345Y4731855D01*
X2184980Y4735151D01*
X2188921Y4738073D01*
X2193130Y4740596D01*
X2197566Y4742694D01*
X2202186Y4744347D01*
X2206945Y4745539D01*
X2211799Y4746259D01*
X2216700Y4746500D01*
X2816700Y4746500D01*
X2821601Y4746259D01*
X2821601Y4746259D01*
G37*
D21*
X2516700Y4646500D03*
D10*
G36*
X2821601Y5246259D02*
X2826455Y5245539D01*
X2831214Y5244347D01*
X2835834Y5242694D01*
X2840270Y5240596D01*
X2844479Y5238073D01*
X2848420Y5235151D01*
X2852055Y5231855D01*
X2855351Y5228220D01*
X2858273Y5224279D01*
X2860796Y5220070D01*
X2862894Y5215634D01*
X2864547Y5211014D01*
X2865739Y5206255D01*
X2866459Y5201401D01*
X2866700Y5196500D01*
X2866700Y5096500D01*
X2866459Y5091599D01*
X2865739Y5086745D01*
X2864547Y5081986D01*
X2862894Y5077366D01*
X2860796Y5072930D01*
X2858273Y5068721D01*
X2855351Y5064780D01*
X2852055Y5061145D01*
X2848420Y5057849D01*
X2844479Y5054927D01*
X2840270Y5052404D01*
X2835834Y5050306D01*
X2831214Y5048653D01*
X2826455Y5047461D01*
X2821601Y5046741D01*
X2816700Y5046500D01*
X2216700Y5046500D01*
X2211799Y5046741D01*
X2206945Y5047461D01*
X2202186Y5048653D01*
X2197566Y5050306D01*
X2193130Y5052404D01*
X2188921Y5054927D01*
X2184980Y5057849D01*
X2181345Y5061145D01*
X2178049Y5064780D01*
X2175127Y5068721D01*
X2172604Y5072930D01*
X2170506Y5077366D01*
X2168853Y5081986D01*
X2167661Y5086745D01*
X2166941Y5091599D01*
X2166700Y5096500D01*
X2166700Y5196500D01*
X2166941Y5201401D01*
X2167661Y5206255D01*
X2168853Y5211014D01*
X2170506Y5215634D01*
X2172604Y5220070D01*
X2175127Y5224279D01*
X2178049Y5228220D01*
X2181345Y5231855D01*
X2184980Y5235151D01*
X2188921Y5238073D01*
X2193130Y5240596D01*
X2197566Y5242694D01*
X2202186Y5244347D01*
X2206945Y5245539D01*
X2211799Y5246259D01*
X2216700Y5246500D01*
X2816700Y5246500D01*
X2821601Y5246259D01*
X2821601Y5246259D01*
G37*
D21*
X2516700Y5146500D03*
D10*
G36*
X2821601Y5746259D02*
X2826455Y5745539D01*
X2831214Y5744347D01*
X2835834Y5742694D01*
X2840270Y5740596D01*
X2844479Y5738073D01*
X2848420Y5735151D01*
X2852055Y5731855D01*
X2855351Y5728220D01*
X2858273Y5724279D01*
X2860796Y5720070D01*
X2862894Y5715634D01*
X2864547Y5711014D01*
X2865739Y5706255D01*
X2866459Y5701401D01*
X2866700Y5696500D01*
X2866700Y5596500D01*
X2866459Y5591599D01*
X2865739Y5586745D01*
X2864547Y5581986D01*
X2862894Y5577366D01*
X2860796Y5572930D01*
X2858273Y5568721D01*
X2855351Y5564780D01*
X2852055Y5561145D01*
X2848420Y5557849D01*
X2844479Y5554927D01*
X2840270Y5552404D01*
X2835834Y5550306D01*
X2831214Y5548653D01*
X2826455Y5547461D01*
X2821601Y5546741D01*
X2816700Y5546500D01*
X2216700Y5546500D01*
X2211799Y5546741D01*
X2206945Y5547461D01*
X2202186Y5548653D01*
X2197566Y5550306D01*
X2193130Y5552404D01*
X2188921Y5554927D01*
X2184980Y5557849D01*
X2181345Y5561145D01*
X2178049Y5564780D01*
X2175127Y5568721D01*
X2172604Y5572930D01*
X2170506Y5577366D01*
X2168853Y5581986D01*
X2167661Y5586745D01*
X2166941Y5591599D01*
X2166700Y5596500D01*
X2166700Y5696500D01*
X2166941Y5701401D01*
X2167661Y5706255D01*
X2168853Y5711014D01*
X2170506Y5715634D01*
X2172604Y5720070D01*
X2175127Y5724279D01*
X2178049Y5728220D01*
X2181345Y5731855D01*
X2184980Y5735151D01*
X2188921Y5738073D01*
X2193130Y5740596D01*
X2197566Y5742694D01*
X2202186Y5744347D01*
X2206945Y5745539D01*
X2211799Y5746259D01*
X2216700Y5746500D01*
X2816700Y5746500D01*
X2821601Y5746259D01*
X2821601Y5746259D01*
G37*
D21*
X2516700Y5646500D03*
G04 #@! TD*
D10*
G04 #@! TO.C,C1*
G36*
X5378766Y-3803068D02*
X5390221Y-3804767D01*
X5401454Y-3807581D01*
X5412357Y-3811482D01*
X5422825Y-3816433D01*
X5432757Y-3822387D01*
X5442058Y-3829285D01*
X5450639Y-3837061D01*
X5458415Y-3845642D01*
X5465313Y-3854943D01*
X5471267Y-3864875D01*
X5476218Y-3875343D01*
X5480119Y-3886246D01*
X5482933Y-3897479D01*
X5484632Y-3908934D01*
X5485200Y-3920500D01*
X5485200Y-4156500D01*
X5484632Y-4168066D01*
X5482933Y-4179521D01*
X5480119Y-4190754D01*
X5476218Y-4201657D01*
X5471267Y-4212125D01*
X5465313Y-4222057D01*
X5458415Y-4231358D01*
X5450639Y-4239939D01*
X5442058Y-4247715D01*
X5432757Y-4254613D01*
X5422825Y-4260567D01*
X5412357Y-4265518D01*
X5401454Y-4269419D01*
X5390221Y-4272233D01*
X5378766Y-4273932D01*
X5367200Y-4274500D01*
X5091200Y-4274500D01*
X5079634Y-4273932D01*
X5068179Y-4272233D01*
X5056946Y-4269419D01*
X5046043Y-4265518D01*
X5035575Y-4260567D01*
X5025643Y-4254613D01*
X5016342Y-4247715D01*
X5007761Y-4239939D01*
X4999985Y-4231358D01*
X4993087Y-4222057D01*
X4987133Y-4212125D01*
X4982182Y-4201657D01*
X4978281Y-4190754D01*
X4975467Y-4179521D01*
X4973768Y-4168066D01*
X4973200Y-4156500D01*
X4973200Y-3920500D01*
X4973768Y-3908934D01*
X4975467Y-3897479D01*
X4978281Y-3886246D01*
X4982182Y-3875343D01*
X4987133Y-3864875D01*
X4993087Y-3854943D01*
X4999985Y-3845642D01*
X5007761Y-3837061D01*
X5016342Y-3829285D01*
X5025643Y-3822387D01*
X5035575Y-3816433D01*
X5046043Y-3811482D01*
X5056946Y-3807581D01*
X5068179Y-3804767D01*
X5079634Y-3803068D01*
X5091200Y-3802500D01*
X5367200Y-3802500D01*
X5378766Y-3803068D01*
X5378766Y-3803068D01*
G37*
D17*
X5229200Y-4038500D03*
D10*
G36*
X5378766Y-2833068D02*
X5390221Y-2834767D01*
X5401454Y-2837581D01*
X5412357Y-2841482D01*
X5422825Y-2846433D01*
X5432757Y-2852387D01*
X5442058Y-2859285D01*
X5450639Y-2867061D01*
X5458415Y-2875642D01*
X5465313Y-2884943D01*
X5471267Y-2894875D01*
X5476218Y-2905343D01*
X5480119Y-2916246D01*
X5482933Y-2927479D01*
X5484632Y-2938934D01*
X5485200Y-2950500D01*
X5485200Y-3186500D01*
X5484632Y-3198066D01*
X5482933Y-3209521D01*
X5480119Y-3220754D01*
X5476218Y-3231657D01*
X5471267Y-3242125D01*
X5465313Y-3252057D01*
X5458415Y-3261358D01*
X5450639Y-3269939D01*
X5442058Y-3277715D01*
X5432757Y-3284613D01*
X5422825Y-3290567D01*
X5412357Y-3295518D01*
X5401454Y-3299419D01*
X5390221Y-3302233D01*
X5378766Y-3303932D01*
X5367200Y-3304500D01*
X5091200Y-3304500D01*
X5079634Y-3303932D01*
X5068179Y-3302233D01*
X5056946Y-3299419D01*
X5046043Y-3295518D01*
X5035575Y-3290567D01*
X5025643Y-3284613D01*
X5016342Y-3277715D01*
X5007761Y-3269939D01*
X4999985Y-3261358D01*
X4993087Y-3252057D01*
X4987133Y-3242125D01*
X4982182Y-3231657D01*
X4978281Y-3220754D01*
X4975467Y-3209521D01*
X4973768Y-3198066D01*
X4973200Y-3186500D01*
X4973200Y-2950500D01*
X4973768Y-2938934D01*
X4975467Y-2927479D01*
X4978281Y-2916246D01*
X4982182Y-2905343D01*
X4987133Y-2894875D01*
X4993087Y-2884943D01*
X4999985Y-2875642D01*
X5007761Y-2867061D01*
X5016342Y-2859285D01*
X5025643Y-2852387D01*
X5035575Y-2846433D01*
X5046043Y-2841482D01*
X5056946Y-2837581D01*
X5068179Y-2834767D01*
X5079634Y-2833068D01*
X5091200Y-2832500D01*
X5367200Y-2832500D01*
X5378766Y-2833068D01*
X5378766Y-2833068D01*
G37*
D17*
X5229200Y-3068500D03*
G04 #@! TD*
D10*
G04 #@! TO.C,C2*
G36*
X4328766Y-2833068D02*
X4340221Y-2834767D01*
X4351454Y-2837581D01*
X4362357Y-2841482D01*
X4372825Y-2846433D01*
X4382757Y-2852387D01*
X4392058Y-2859285D01*
X4400639Y-2867061D01*
X4408415Y-2875642D01*
X4415313Y-2884943D01*
X4421267Y-2894875D01*
X4426218Y-2905343D01*
X4430119Y-2916246D01*
X4432933Y-2927479D01*
X4434632Y-2938934D01*
X4435200Y-2950500D01*
X4435200Y-3186500D01*
X4434632Y-3198066D01*
X4432933Y-3209521D01*
X4430119Y-3220754D01*
X4426218Y-3231657D01*
X4421267Y-3242125D01*
X4415313Y-3252057D01*
X4408415Y-3261358D01*
X4400639Y-3269939D01*
X4392058Y-3277715D01*
X4382757Y-3284613D01*
X4372825Y-3290567D01*
X4362357Y-3295518D01*
X4351454Y-3299419D01*
X4340221Y-3302233D01*
X4328766Y-3303932D01*
X4317200Y-3304500D01*
X4041200Y-3304500D01*
X4029634Y-3303932D01*
X4018179Y-3302233D01*
X4006946Y-3299419D01*
X3996043Y-3295518D01*
X3985575Y-3290567D01*
X3975643Y-3284613D01*
X3966342Y-3277715D01*
X3957761Y-3269939D01*
X3949985Y-3261358D01*
X3943087Y-3252057D01*
X3937133Y-3242125D01*
X3932182Y-3231657D01*
X3928281Y-3220754D01*
X3925467Y-3209521D01*
X3923768Y-3198066D01*
X3923200Y-3186500D01*
X3923200Y-2950500D01*
X3923768Y-2938934D01*
X3925467Y-2927479D01*
X3928281Y-2916246D01*
X3932182Y-2905343D01*
X3937133Y-2894875D01*
X3943087Y-2884943D01*
X3949985Y-2875642D01*
X3957761Y-2867061D01*
X3966342Y-2859285D01*
X3975643Y-2852387D01*
X3985575Y-2846433D01*
X3996043Y-2841482D01*
X4006946Y-2837581D01*
X4018179Y-2834767D01*
X4029634Y-2833068D01*
X4041200Y-2832500D01*
X4317200Y-2832500D01*
X4328766Y-2833068D01*
X4328766Y-2833068D01*
G37*
D17*
X4179200Y-3068500D03*
D10*
G36*
X4328766Y-3803068D02*
X4340221Y-3804767D01*
X4351454Y-3807581D01*
X4362357Y-3811482D01*
X4372825Y-3816433D01*
X4382757Y-3822387D01*
X4392058Y-3829285D01*
X4400639Y-3837061D01*
X4408415Y-3845642D01*
X4415313Y-3854943D01*
X4421267Y-3864875D01*
X4426218Y-3875343D01*
X4430119Y-3886246D01*
X4432933Y-3897479D01*
X4434632Y-3908934D01*
X4435200Y-3920500D01*
X4435200Y-4156500D01*
X4434632Y-4168066D01*
X4432933Y-4179521D01*
X4430119Y-4190754D01*
X4426218Y-4201657D01*
X4421267Y-4212125D01*
X4415313Y-4222057D01*
X4408415Y-4231358D01*
X4400639Y-4239939D01*
X4392058Y-4247715D01*
X4382757Y-4254613D01*
X4372825Y-4260567D01*
X4362357Y-4265518D01*
X4351454Y-4269419D01*
X4340221Y-4272233D01*
X4328766Y-4273932D01*
X4317200Y-4274500D01*
X4041200Y-4274500D01*
X4029634Y-4273932D01*
X4018179Y-4272233D01*
X4006946Y-4269419D01*
X3996043Y-4265518D01*
X3985575Y-4260567D01*
X3975643Y-4254613D01*
X3966342Y-4247715D01*
X3957761Y-4239939D01*
X3949985Y-4231358D01*
X3943087Y-4222057D01*
X3937133Y-4212125D01*
X3932182Y-4201657D01*
X3928281Y-4190754D01*
X3925467Y-4179521D01*
X3923768Y-4168066D01*
X3923200Y-4156500D01*
X3923200Y-3920500D01*
X3923768Y-3908934D01*
X3925467Y-3897479D01*
X3928281Y-3886246D01*
X3932182Y-3875343D01*
X3937133Y-3864875D01*
X3943087Y-3854943D01*
X3949985Y-3845642D01*
X3957761Y-3837061D01*
X3966342Y-3829285D01*
X3975643Y-3822387D01*
X3985575Y-3816433D01*
X3996043Y-3811482D01*
X4006946Y-3807581D01*
X4018179Y-3804767D01*
X4029634Y-3803068D01*
X4041200Y-3802500D01*
X4317200Y-3802500D01*
X4328766Y-3803068D01*
X4328766Y-3803068D01*
G37*
D17*
X4179200Y-4038500D03*
G04 #@! TD*
D10*
G04 #@! TO.C,C3*
G36*
X-1856234Y-898068D02*
X-1844779Y-899767D01*
X-1833546Y-902581D01*
X-1822643Y-906482D01*
X-1812175Y-911433D01*
X-1802243Y-917387D01*
X-1792942Y-924285D01*
X-1784361Y-932061D01*
X-1776585Y-940642D01*
X-1769687Y-949943D01*
X-1763733Y-959875D01*
X-1758782Y-970343D01*
X-1754881Y-981246D01*
X-1752067Y-992479D01*
X-1750368Y-1003934D01*
X-1749800Y-1015500D01*
X-1749800Y-1291500D01*
X-1750368Y-1303066D01*
X-1752067Y-1314521D01*
X-1754881Y-1325754D01*
X-1758782Y-1336657D01*
X-1763733Y-1347125D01*
X-1769687Y-1357057D01*
X-1776585Y-1366358D01*
X-1784361Y-1374939D01*
X-1792942Y-1382715D01*
X-1802243Y-1389613D01*
X-1812175Y-1395567D01*
X-1822643Y-1400518D01*
X-1833546Y-1404419D01*
X-1844779Y-1407233D01*
X-1856234Y-1408932D01*
X-1867800Y-1409500D01*
X-2103800Y-1409500D01*
X-2115366Y-1408932D01*
X-2126821Y-1407233D01*
X-2138054Y-1404419D01*
X-2148957Y-1400518D01*
X-2159425Y-1395567D01*
X-2169357Y-1389613D01*
X-2178658Y-1382715D01*
X-2187239Y-1374939D01*
X-2195015Y-1366358D01*
X-2201913Y-1357057D01*
X-2207867Y-1347125D01*
X-2212818Y-1336657D01*
X-2216719Y-1325754D01*
X-2219533Y-1314521D01*
X-2221232Y-1303066D01*
X-2221800Y-1291500D01*
X-2221800Y-1015500D01*
X-2221232Y-1003934D01*
X-2219533Y-992479D01*
X-2216719Y-981246D01*
X-2212818Y-970343D01*
X-2207867Y-959875D01*
X-2201913Y-949943D01*
X-2195015Y-940642D01*
X-2187239Y-932061D01*
X-2178658Y-924285D01*
X-2169357Y-917387D01*
X-2159425Y-911433D01*
X-2148957Y-906482D01*
X-2138054Y-902581D01*
X-2126821Y-899767D01*
X-2115366Y-898068D01*
X-2103800Y-897500D01*
X-1867800Y-897500D01*
X-1856234Y-898068D01*
X-1856234Y-898068D01*
G37*
D17*
X-1985800Y-1153500D03*
D10*
G36*
X-2826234Y-898068D02*
X-2814779Y-899767D01*
X-2803546Y-902581D01*
X-2792643Y-906482D01*
X-2782175Y-911433D01*
X-2772243Y-917387D01*
X-2762942Y-924285D01*
X-2754361Y-932061D01*
X-2746585Y-940642D01*
X-2739687Y-949943D01*
X-2733733Y-959875D01*
X-2728782Y-970343D01*
X-2724881Y-981246D01*
X-2722067Y-992479D01*
X-2720368Y-1003934D01*
X-2719800Y-1015500D01*
X-2719800Y-1291500D01*
X-2720368Y-1303066D01*
X-2722067Y-1314521D01*
X-2724881Y-1325754D01*
X-2728782Y-1336657D01*
X-2733733Y-1347125D01*
X-2739687Y-1357057D01*
X-2746585Y-1366358D01*
X-2754361Y-1374939D01*
X-2762942Y-1382715D01*
X-2772243Y-1389613D01*
X-2782175Y-1395567D01*
X-2792643Y-1400518D01*
X-2803546Y-1404419D01*
X-2814779Y-1407233D01*
X-2826234Y-1408932D01*
X-2837800Y-1409500D01*
X-3073800Y-1409500D01*
X-3085366Y-1408932D01*
X-3096821Y-1407233D01*
X-3108054Y-1404419D01*
X-3118957Y-1400518D01*
X-3129425Y-1395567D01*
X-3139357Y-1389613D01*
X-3148658Y-1382715D01*
X-3157239Y-1374939D01*
X-3165015Y-1366358D01*
X-3171913Y-1357057D01*
X-3177867Y-1347125D01*
X-3182818Y-1336657D01*
X-3186719Y-1325754D01*
X-3189533Y-1314521D01*
X-3191232Y-1303066D01*
X-3191800Y-1291500D01*
X-3191800Y-1015500D01*
X-3191232Y-1003934D01*
X-3189533Y-992479D01*
X-3186719Y-981246D01*
X-3182818Y-970343D01*
X-3177867Y-959875D01*
X-3171913Y-949943D01*
X-3165015Y-940642D01*
X-3157239Y-932061D01*
X-3148658Y-924285D01*
X-3139357Y-917387D01*
X-3129425Y-911433D01*
X-3118957Y-906482D01*
X-3108054Y-902581D01*
X-3096821Y-899767D01*
X-3085366Y-898068D01*
X-3073800Y-897500D01*
X-2837800Y-897500D01*
X-2826234Y-898068D01*
X-2826234Y-898068D01*
G37*
D17*
X-2955800Y-1153500D03*
G04 #@! TD*
D10*
G04 #@! TO.C,C4*
G36*
X-2826234Y251932D02*
X-2814779Y250233D01*
X-2803546Y247419D01*
X-2792643Y243518D01*
X-2782175Y238567D01*
X-2772243Y232613D01*
X-2762942Y225715D01*
X-2754361Y217939D01*
X-2746585Y209358D01*
X-2739687Y200057D01*
X-2733733Y190125D01*
X-2728782Y179657D01*
X-2724881Y168754D01*
X-2722067Y157521D01*
X-2720368Y146066D01*
X-2719800Y134500D01*
X-2719800Y-141500D01*
X-2720368Y-153066D01*
X-2722067Y-164521D01*
X-2724881Y-175754D01*
X-2728782Y-186657D01*
X-2733733Y-197125D01*
X-2739687Y-207057D01*
X-2746585Y-216358D01*
X-2754361Y-224939D01*
X-2762942Y-232715D01*
X-2772243Y-239613D01*
X-2782175Y-245567D01*
X-2792643Y-250518D01*
X-2803546Y-254419D01*
X-2814779Y-257233D01*
X-2826234Y-258932D01*
X-2837800Y-259500D01*
X-3073800Y-259500D01*
X-3085366Y-258932D01*
X-3096821Y-257233D01*
X-3108054Y-254419D01*
X-3118957Y-250518D01*
X-3129425Y-245567D01*
X-3139357Y-239613D01*
X-3148658Y-232715D01*
X-3157239Y-224939D01*
X-3165015Y-216358D01*
X-3171913Y-207057D01*
X-3177867Y-197125D01*
X-3182818Y-186657D01*
X-3186719Y-175754D01*
X-3189533Y-164521D01*
X-3191232Y-153066D01*
X-3191800Y-141500D01*
X-3191800Y134500D01*
X-3191232Y146066D01*
X-3189533Y157521D01*
X-3186719Y168754D01*
X-3182818Y179657D01*
X-3177867Y190125D01*
X-3171913Y200057D01*
X-3165015Y209358D01*
X-3157239Y217939D01*
X-3148658Y225715D01*
X-3139357Y232613D01*
X-3129425Y238567D01*
X-3118957Y243518D01*
X-3108054Y247419D01*
X-3096821Y250233D01*
X-3085366Y251932D01*
X-3073800Y252500D01*
X-2837800Y252500D01*
X-2826234Y251932D01*
X-2826234Y251932D01*
G37*
D17*
X-2955800Y-3500D03*
D10*
G36*
X-1856234Y251932D02*
X-1844779Y250233D01*
X-1833546Y247419D01*
X-1822643Y243518D01*
X-1812175Y238567D01*
X-1802243Y232613D01*
X-1792942Y225715D01*
X-1784361Y217939D01*
X-1776585Y209358D01*
X-1769687Y200057D01*
X-1763733Y190125D01*
X-1758782Y179657D01*
X-1754881Y168754D01*
X-1752067Y157521D01*
X-1750368Y146066D01*
X-1749800Y134500D01*
X-1749800Y-141500D01*
X-1750368Y-153066D01*
X-1752067Y-164521D01*
X-1754881Y-175754D01*
X-1758782Y-186657D01*
X-1763733Y-197125D01*
X-1769687Y-207057D01*
X-1776585Y-216358D01*
X-1784361Y-224939D01*
X-1792942Y-232715D01*
X-1802243Y-239613D01*
X-1812175Y-245567D01*
X-1822643Y-250518D01*
X-1833546Y-254419D01*
X-1844779Y-257233D01*
X-1856234Y-258932D01*
X-1867800Y-259500D01*
X-2103800Y-259500D01*
X-2115366Y-258932D01*
X-2126821Y-257233D01*
X-2138054Y-254419D01*
X-2148957Y-250518D01*
X-2159425Y-245567D01*
X-2169357Y-239613D01*
X-2178658Y-232715D01*
X-2187239Y-224939D01*
X-2195015Y-216358D01*
X-2201913Y-207057D01*
X-2207867Y-197125D01*
X-2212818Y-186657D01*
X-2216719Y-175754D01*
X-2219533Y-164521D01*
X-2221232Y-153066D01*
X-2221800Y-141500D01*
X-2221800Y134500D01*
X-2221232Y146066D01*
X-2219533Y157521D01*
X-2216719Y168754D01*
X-2212818Y179657D01*
X-2207867Y190125D01*
X-2201913Y200057D01*
X-2195015Y209358D01*
X-2187239Y217939D01*
X-2178658Y225715D01*
X-2169357Y232613D01*
X-2159425Y238567D01*
X-2148957Y243518D01*
X-2138054Y247419D01*
X-2126821Y250233D01*
X-2115366Y251932D01*
X-2103800Y252500D01*
X-1867800Y252500D01*
X-1856234Y251932D01*
X-1856234Y251932D01*
G37*
D17*
X-1985800Y-3500D03*
G04 #@! TD*
D10*
G04 #@! TO.C,C5*
G36*
X4943766Y5101932D02*
X4955221Y5100233D01*
X4966454Y5097419D01*
X4977357Y5093518D01*
X4987825Y5088567D01*
X4997757Y5082613D01*
X5007058Y5075715D01*
X5015639Y5067939D01*
X5023415Y5059358D01*
X5030313Y5050057D01*
X5036267Y5040125D01*
X5041218Y5029657D01*
X5045119Y5018754D01*
X5047933Y5007521D01*
X5049632Y4996066D01*
X5050200Y4984500D01*
X5050200Y4708500D01*
X5049632Y4696934D01*
X5047933Y4685479D01*
X5045119Y4674246D01*
X5041218Y4663343D01*
X5036267Y4652875D01*
X5030313Y4642943D01*
X5023415Y4633642D01*
X5015639Y4625061D01*
X5007058Y4617285D01*
X4997757Y4610387D01*
X4987825Y4604433D01*
X4977357Y4599482D01*
X4966454Y4595581D01*
X4955221Y4592767D01*
X4943766Y4591068D01*
X4932200Y4590500D01*
X4696200Y4590500D01*
X4684634Y4591068D01*
X4673179Y4592767D01*
X4661946Y4595581D01*
X4651043Y4599482D01*
X4640575Y4604433D01*
X4630643Y4610387D01*
X4621342Y4617285D01*
X4612761Y4625061D01*
X4604985Y4633642D01*
X4598087Y4642943D01*
X4592133Y4652875D01*
X4587182Y4663343D01*
X4583281Y4674246D01*
X4580467Y4685479D01*
X4578768Y4696934D01*
X4578200Y4708500D01*
X4578200Y4984500D01*
X4578768Y4996066D01*
X4580467Y5007521D01*
X4583281Y5018754D01*
X4587182Y5029657D01*
X4592133Y5040125D01*
X4598087Y5050057D01*
X4604985Y5059358D01*
X4612761Y5067939D01*
X4621342Y5075715D01*
X4630643Y5082613D01*
X4640575Y5088567D01*
X4651043Y5093518D01*
X4661946Y5097419D01*
X4673179Y5100233D01*
X4684634Y5101932D01*
X4696200Y5102500D01*
X4932200Y5102500D01*
X4943766Y5101932D01*
X4943766Y5101932D01*
G37*
D17*
X4814200Y4846500D03*
D10*
G36*
X3973766Y5101932D02*
X3985221Y5100233D01*
X3996454Y5097419D01*
X4007357Y5093518D01*
X4017825Y5088567D01*
X4027757Y5082613D01*
X4037058Y5075715D01*
X4045639Y5067939D01*
X4053415Y5059358D01*
X4060313Y5050057D01*
X4066267Y5040125D01*
X4071218Y5029657D01*
X4075119Y5018754D01*
X4077933Y5007521D01*
X4079632Y4996066D01*
X4080200Y4984500D01*
X4080200Y4708500D01*
X4079632Y4696934D01*
X4077933Y4685479D01*
X4075119Y4674246D01*
X4071218Y4663343D01*
X4066267Y4652875D01*
X4060313Y4642943D01*
X4053415Y4633642D01*
X4045639Y4625061D01*
X4037058Y4617285D01*
X4027757Y4610387D01*
X4017825Y4604433D01*
X4007357Y4599482D01*
X3996454Y4595581D01*
X3985221Y4592767D01*
X3973766Y4591068D01*
X3962200Y4590500D01*
X3726200Y4590500D01*
X3714634Y4591068D01*
X3703179Y4592767D01*
X3691946Y4595581D01*
X3681043Y4599482D01*
X3670575Y4604433D01*
X3660643Y4610387D01*
X3651342Y4617285D01*
X3642761Y4625061D01*
X3634985Y4633642D01*
X3628087Y4642943D01*
X3622133Y4652875D01*
X3617182Y4663343D01*
X3613281Y4674246D01*
X3610467Y4685479D01*
X3608768Y4696934D01*
X3608200Y4708500D01*
X3608200Y4984500D01*
X3608768Y4996066D01*
X3610467Y5007521D01*
X3613281Y5018754D01*
X3617182Y5029657D01*
X3622133Y5040125D01*
X3628087Y5050057D01*
X3634985Y5059358D01*
X3642761Y5067939D01*
X3651342Y5075715D01*
X3660643Y5082613D01*
X3670575Y5088567D01*
X3681043Y5093518D01*
X3691946Y5097419D01*
X3703179Y5100233D01*
X3714634Y5101932D01*
X3726200Y5102500D01*
X3962200Y5102500D01*
X3973766Y5101932D01*
X3973766Y5101932D01*
G37*
D17*
X3844200Y4846500D03*
G04 #@! TD*
D10*
G04 #@! TO.C,C6*
G36*
X4128766Y3096932D02*
X4140221Y3095233D01*
X4151454Y3092419D01*
X4162357Y3088518D01*
X4172825Y3083567D01*
X4182757Y3077613D01*
X4192058Y3070715D01*
X4200639Y3062939D01*
X4208415Y3054358D01*
X4215313Y3045057D01*
X4221267Y3035125D01*
X4226218Y3024657D01*
X4230119Y3013754D01*
X4232933Y3002521D01*
X4234632Y2991066D01*
X4235200Y2979500D01*
X4235200Y2743500D01*
X4234632Y2731934D01*
X4232933Y2720479D01*
X4230119Y2709246D01*
X4226218Y2698343D01*
X4221267Y2687875D01*
X4215313Y2677943D01*
X4208415Y2668642D01*
X4200639Y2660061D01*
X4192058Y2652285D01*
X4182757Y2645387D01*
X4172825Y2639433D01*
X4162357Y2634482D01*
X4151454Y2630581D01*
X4140221Y2627767D01*
X4128766Y2626068D01*
X4117200Y2625500D01*
X3841200Y2625500D01*
X3829634Y2626068D01*
X3818179Y2627767D01*
X3806946Y2630581D01*
X3796043Y2634482D01*
X3785575Y2639433D01*
X3775643Y2645387D01*
X3766342Y2652285D01*
X3757761Y2660061D01*
X3749985Y2668642D01*
X3743087Y2677943D01*
X3737133Y2687875D01*
X3732182Y2698343D01*
X3728281Y2709246D01*
X3725467Y2720479D01*
X3723768Y2731934D01*
X3723200Y2743500D01*
X3723200Y2979500D01*
X3723768Y2991066D01*
X3725467Y3002521D01*
X3728281Y3013754D01*
X3732182Y3024657D01*
X3737133Y3035125D01*
X3743087Y3045057D01*
X3749985Y3054358D01*
X3757761Y3062939D01*
X3766342Y3070715D01*
X3775643Y3077613D01*
X3785575Y3083567D01*
X3796043Y3088518D01*
X3806946Y3092419D01*
X3818179Y3095233D01*
X3829634Y3096932D01*
X3841200Y3097500D01*
X4117200Y3097500D01*
X4128766Y3096932D01*
X4128766Y3096932D01*
G37*
D17*
X3979200Y2861500D03*
D10*
G36*
X4128766Y4066932D02*
X4140221Y4065233D01*
X4151454Y4062419D01*
X4162357Y4058518D01*
X4172825Y4053567D01*
X4182757Y4047613D01*
X4192058Y4040715D01*
X4200639Y4032939D01*
X4208415Y4024358D01*
X4215313Y4015057D01*
X4221267Y4005125D01*
X4226218Y3994657D01*
X4230119Y3983754D01*
X4232933Y3972521D01*
X4234632Y3961066D01*
X4235200Y3949500D01*
X4235200Y3713500D01*
X4234632Y3701934D01*
X4232933Y3690479D01*
X4230119Y3679246D01*
X4226218Y3668343D01*
X4221267Y3657875D01*
X4215313Y3647943D01*
X4208415Y3638642D01*
X4200639Y3630061D01*
X4192058Y3622285D01*
X4182757Y3615387D01*
X4172825Y3609433D01*
X4162357Y3604482D01*
X4151454Y3600581D01*
X4140221Y3597767D01*
X4128766Y3596068D01*
X4117200Y3595500D01*
X3841200Y3595500D01*
X3829634Y3596068D01*
X3818179Y3597767D01*
X3806946Y3600581D01*
X3796043Y3604482D01*
X3785575Y3609433D01*
X3775643Y3615387D01*
X3766342Y3622285D01*
X3757761Y3630061D01*
X3749985Y3638642D01*
X3743087Y3647943D01*
X3737133Y3657875D01*
X3732182Y3668343D01*
X3728281Y3679246D01*
X3725467Y3690479D01*
X3723768Y3701934D01*
X3723200Y3713500D01*
X3723200Y3949500D01*
X3723768Y3961066D01*
X3725467Y3972521D01*
X3728281Y3983754D01*
X3732182Y3994657D01*
X3737133Y4005125D01*
X3743087Y4015057D01*
X3749985Y4024358D01*
X3757761Y4032939D01*
X3766342Y4040715D01*
X3775643Y4047613D01*
X3785575Y4053567D01*
X3796043Y4058518D01*
X3806946Y4062419D01*
X3818179Y4065233D01*
X3829634Y4066932D01*
X3841200Y4067500D01*
X4117200Y4067500D01*
X4128766Y4066932D01*
X4128766Y4066932D01*
G37*
D17*
X3979200Y3831500D03*
G04 #@! TD*
D10*
G04 #@! TO.C,C7*
G36*
X5278766Y4066932D02*
X5290221Y4065233D01*
X5301454Y4062419D01*
X5312357Y4058518D01*
X5322825Y4053567D01*
X5332757Y4047613D01*
X5342058Y4040715D01*
X5350639Y4032939D01*
X5358415Y4024358D01*
X5365313Y4015057D01*
X5371267Y4005125D01*
X5376218Y3994657D01*
X5380119Y3983754D01*
X5382933Y3972521D01*
X5384632Y3961066D01*
X5385200Y3949500D01*
X5385200Y3713500D01*
X5384632Y3701934D01*
X5382933Y3690479D01*
X5380119Y3679246D01*
X5376218Y3668343D01*
X5371267Y3657875D01*
X5365313Y3647943D01*
X5358415Y3638642D01*
X5350639Y3630061D01*
X5342058Y3622285D01*
X5332757Y3615387D01*
X5322825Y3609433D01*
X5312357Y3604482D01*
X5301454Y3600581D01*
X5290221Y3597767D01*
X5278766Y3596068D01*
X5267200Y3595500D01*
X4991200Y3595500D01*
X4979634Y3596068D01*
X4968179Y3597767D01*
X4956946Y3600581D01*
X4946043Y3604482D01*
X4935575Y3609433D01*
X4925643Y3615387D01*
X4916342Y3622285D01*
X4907761Y3630061D01*
X4899985Y3638642D01*
X4893087Y3647943D01*
X4887133Y3657875D01*
X4882182Y3668343D01*
X4878281Y3679246D01*
X4875467Y3690479D01*
X4873768Y3701934D01*
X4873200Y3713500D01*
X4873200Y3949500D01*
X4873768Y3961066D01*
X4875467Y3972521D01*
X4878281Y3983754D01*
X4882182Y3994657D01*
X4887133Y4005125D01*
X4893087Y4015057D01*
X4899985Y4024358D01*
X4907761Y4032939D01*
X4916342Y4040715D01*
X4925643Y4047613D01*
X4935575Y4053567D01*
X4946043Y4058518D01*
X4956946Y4062419D01*
X4968179Y4065233D01*
X4979634Y4066932D01*
X4991200Y4067500D01*
X5267200Y4067500D01*
X5278766Y4066932D01*
X5278766Y4066932D01*
G37*
D17*
X5129200Y3831500D03*
D10*
G36*
X5278766Y3096932D02*
X5290221Y3095233D01*
X5301454Y3092419D01*
X5312357Y3088518D01*
X5322825Y3083567D01*
X5332757Y3077613D01*
X5342058Y3070715D01*
X5350639Y3062939D01*
X5358415Y3054358D01*
X5365313Y3045057D01*
X5371267Y3035125D01*
X5376218Y3024657D01*
X5380119Y3013754D01*
X5382933Y3002521D01*
X5384632Y2991066D01*
X5385200Y2979500D01*
X5385200Y2743500D01*
X5384632Y2731934D01*
X5382933Y2720479D01*
X5380119Y2709246D01*
X5376218Y2698343D01*
X5371267Y2687875D01*
X5365313Y2677943D01*
X5358415Y2668642D01*
X5350639Y2660061D01*
X5342058Y2652285D01*
X5332757Y2645387D01*
X5322825Y2639433D01*
X5312357Y2634482D01*
X5301454Y2630581D01*
X5290221Y2627767D01*
X5278766Y2626068D01*
X5267200Y2625500D01*
X4991200Y2625500D01*
X4979634Y2626068D01*
X4968179Y2627767D01*
X4956946Y2630581D01*
X4946043Y2634482D01*
X4935575Y2639433D01*
X4925643Y2645387D01*
X4916342Y2652285D01*
X4907761Y2660061D01*
X4899985Y2668642D01*
X4893087Y2677943D01*
X4887133Y2687875D01*
X4882182Y2698343D01*
X4878281Y2709246D01*
X4875467Y2720479D01*
X4873768Y2731934D01*
X4873200Y2743500D01*
X4873200Y2979500D01*
X4873768Y2991066D01*
X4875467Y3002521D01*
X4878281Y3013754D01*
X4882182Y3024657D01*
X4887133Y3035125D01*
X4893087Y3045057D01*
X4899985Y3054358D01*
X4907761Y3062939D01*
X4916342Y3070715D01*
X4925643Y3077613D01*
X4935575Y3083567D01*
X4946043Y3088518D01*
X4956946Y3092419D01*
X4968179Y3095233D01*
X4979634Y3096932D01*
X4991200Y3097500D01*
X5267200Y3097500D01*
X5278766Y3096932D01*
X5278766Y3096932D01*
G37*
D17*
X5129200Y2861500D03*
G04 #@! TD*
D10*
G04 #@! TO.C,R1*
G36*
X-1321234Y-4753068D02*
X-1309779Y-4754767D01*
X-1298546Y-4757581D01*
X-1287643Y-4761482D01*
X-1277175Y-4766433D01*
X-1267243Y-4772387D01*
X-1257942Y-4779285D01*
X-1249361Y-4787061D01*
X-1241585Y-4795642D01*
X-1234687Y-4804943D01*
X-1228733Y-4814875D01*
X-1223782Y-4825343D01*
X-1219881Y-4836246D01*
X-1217067Y-4847479D01*
X-1215368Y-4858934D01*
X-1214800Y-4870500D01*
X-1214800Y-5106500D01*
X-1215368Y-5118066D01*
X-1217067Y-5129521D01*
X-1219881Y-5140754D01*
X-1223782Y-5151657D01*
X-1228733Y-5162125D01*
X-1234687Y-5172057D01*
X-1241585Y-5181358D01*
X-1249361Y-5189939D01*
X-1257942Y-5197715D01*
X-1267243Y-5204613D01*
X-1277175Y-5210567D01*
X-1287643Y-5215518D01*
X-1298546Y-5219419D01*
X-1309779Y-5222233D01*
X-1321234Y-5223932D01*
X-1332800Y-5224500D01*
X-1608800Y-5224500D01*
X-1620366Y-5223932D01*
X-1631821Y-5222233D01*
X-1643054Y-5219419D01*
X-1653957Y-5215518D01*
X-1664425Y-5210567D01*
X-1674357Y-5204613D01*
X-1683658Y-5197715D01*
X-1692239Y-5189939D01*
X-1700015Y-5181358D01*
X-1706913Y-5172057D01*
X-1712867Y-5162125D01*
X-1717818Y-5151657D01*
X-1721719Y-5140754D01*
X-1724533Y-5129521D01*
X-1726232Y-5118066D01*
X-1726800Y-5106500D01*
X-1726800Y-4870500D01*
X-1726232Y-4858934D01*
X-1724533Y-4847479D01*
X-1721719Y-4836246D01*
X-1717818Y-4825343D01*
X-1712867Y-4814875D01*
X-1706913Y-4804943D01*
X-1700015Y-4795642D01*
X-1692239Y-4787061D01*
X-1683658Y-4779285D01*
X-1674357Y-4772387D01*
X-1664425Y-4766433D01*
X-1653957Y-4761482D01*
X-1643054Y-4757581D01*
X-1631821Y-4754767D01*
X-1620366Y-4753068D01*
X-1608800Y-4752500D01*
X-1332800Y-4752500D01*
X-1321234Y-4753068D01*
X-1321234Y-4753068D01*
G37*
D17*
X-1470800Y-4988500D03*
D10*
G36*
X-1321234Y-3783068D02*
X-1309779Y-3784767D01*
X-1298546Y-3787581D01*
X-1287643Y-3791482D01*
X-1277175Y-3796433D01*
X-1267243Y-3802387D01*
X-1257942Y-3809285D01*
X-1249361Y-3817061D01*
X-1241585Y-3825642D01*
X-1234687Y-3834943D01*
X-1228733Y-3844875D01*
X-1223782Y-3855343D01*
X-1219881Y-3866246D01*
X-1217067Y-3877479D01*
X-1215368Y-3888934D01*
X-1214800Y-3900500D01*
X-1214800Y-4136500D01*
X-1215368Y-4148066D01*
X-1217067Y-4159521D01*
X-1219881Y-4170754D01*
X-1223782Y-4181657D01*
X-1228733Y-4192125D01*
X-1234687Y-4202057D01*
X-1241585Y-4211358D01*
X-1249361Y-4219939D01*
X-1257942Y-4227715D01*
X-1267243Y-4234613D01*
X-1277175Y-4240567D01*
X-1287643Y-4245518D01*
X-1298546Y-4249419D01*
X-1309779Y-4252233D01*
X-1321234Y-4253932D01*
X-1332800Y-4254500D01*
X-1608800Y-4254500D01*
X-1620366Y-4253932D01*
X-1631821Y-4252233D01*
X-1643054Y-4249419D01*
X-1653957Y-4245518D01*
X-1664425Y-4240567D01*
X-1674357Y-4234613D01*
X-1683658Y-4227715D01*
X-1692239Y-4219939D01*
X-1700015Y-4211358D01*
X-1706913Y-4202057D01*
X-1712867Y-4192125D01*
X-1717818Y-4181657D01*
X-1721719Y-4170754D01*
X-1724533Y-4159521D01*
X-1726232Y-4148066D01*
X-1726800Y-4136500D01*
X-1726800Y-3900500D01*
X-1726232Y-3888934D01*
X-1724533Y-3877479D01*
X-1721719Y-3866246D01*
X-1717818Y-3855343D01*
X-1712867Y-3844875D01*
X-1706913Y-3834943D01*
X-1700015Y-3825642D01*
X-1692239Y-3817061D01*
X-1683658Y-3809285D01*
X-1674357Y-3802387D01*
X-1664425Y-3796433D01*
X-1653957Y-3791482D01*
X-1643054Y-3787581D01*
X-1631821Y-3784767D01*
X-1620366Y-3783068D01*
X-1608800Y-3782500D01*
X-1332800Y-3782500D01*
X-1321234Y-3783068D01*
X-1321234Y-3783068D01*
G37*
D17*
X-1470800Y-4018500D03*
G04 #@! TD*
D10*
G04 #@! TO.C,R2*
G36*
X-1321234Y-5733068D02*
X-1309779Y-5734767D01*
X-1298546Y-5737581D01*
X-1287643Y-5741482D01*
X-1277175Y-5746433D01*
X-1267243Y-5752387D01*
X-1257942Y-5759285D01*
X-1249361Y-5767061D01*
X-1241585Y-5775642D01*
X-1234687Y-5784943D01*
X-1228733Y-5794875D01*
X-1223782Y-5805343D01*
X-1219881Y-5816246D01*
X-1217067Y-5827479D01*
X-1215368Y-5838934D01*
X-1214800Y-5850500D01*
X-1214800Y-6086500D01*
X-1215368Y-6098066D01*
X-1217067Y-6109521D01*
X-1219881Y-6120754D01*
X-1223782Y-6131657D01*
X-1228733Y-6142125D01*
X-1234687Y-6152057D01*
X-1241585Y-6161358D01*
X-1249361Y-6169939D01*
X-1257942Y-6177715D01*
X-1267243Y-6184613D01*
X-1277175Y-6190567D01*
X-1287643Y-6195518D01*
X-1298546Y-6199419D01*
X-1309779Y-6202233D01*
X-1321234Y-6203932D01*
X-1332800Y-6204500D01*
X-1608800Y-6204500D01*
X-1620366Y-6203932D01*
X-1631821Y-6202233D01*
X-1643054Y-6199419D01*
X-1653957Y-6195518D01*
X-1664425Y-6190567D01*
X-1674357Y-6184613D01*
X-1683658Y-6177715D01*
X-1692239Y-6169939D01*
X-1700015Y-6161358D01*
X-1706913Y-6152057D01*
X-1712867Y-6142125D01*
X-1717818Y-6131657D01*
X-1721719Y-6120754D01*
X-1724533Y-6109521D01*
X-1726232Y-6098066D01*
X-1726800Y-6086500D01*
X-1726800Y-5850500D01*
X-1726232Y-5838934D01*
X-1724533Y-5827479D01*
X-1721719Y-5816246D01*
X-1717818Y-5805343D01*
X-1712867Y-5794875D01*
X-1706913Y-5784943D01*
X-1700015Y-5775642D01*
X-1692239Y-5767061D01*
X-1683658Y-5759285D01*
X-1674357Y-5752387D01*
X-1664425Y-5746433D01*
X-1653957Y-5741482D01*
X-1643054Y-5737581D01*
X-1631821Y-5734767D01*
X-1620366Y-5733068D01*
X-1608800Y-5732500D01*
X-1332800Y-5732500D01*
X-1321234Y-5733068D01*
X-1321234Y-5733068D01*
G37*
D17*
X-1470800Y-5968500D03*
D10*
G36*
X-1321234Y-6703068D02*
X-1309779Y-6704767D01*
X-1298546Y-6707581D01*
X-1287643Y-6711482D01*
X-1277175Y-6716433D01*
X-1267243Y-6722387D01*
X-1257942Y-6729285D01*
X-1249361Y-6737061D01*
X-1241585Y-6745642D01*
X-1234687Y-6754943D01*
X-1228733Y-6764875D01*
X-1223782Y-6775343D01*
X-1219881Y-6786246D01*
X-1217067Y-6797479D01*
X-1215368Y-6808934D01*
X-1214800Y-6820500D01*
X-1214800Y-7056500D01*
X-1215368Y-7068066D01*
X-1217067Y-7079521D01*
X-1219881Y-7090754D01*
X-1223782Y-7101657D01*
X-1228733Y-7112125D01*
X-1234687Y-7122057D01*
X-1241585Y-7131358D01*
X-1249361Y-7139939D01*
X-1257942Y-7147715D01*
X-1267243Y-7154613D01*
X-1277175Y-7160567D01*
X-1287643Y-7165518D01*
X-1298546Y-7169419D01*
X-1309779Y-7172233D01*
X-1321234Y-7173932D01*
X-1332800Y-7174500D01*
X-1608800Y-7174500D01*
X-1620366Y-7173932D01*
X-1631821Y-7172233D01*
X-1643054Y-7169419D01*
X-1653957Y-7165518D01*
X-1664425Y-7160567D01*
X-1674357Y-7154613D01*
X-1683658Y-7147715D01*
X-1692239Y-7139939D01*
X-1700015Y-7131358D01*
X-1706913Y-7122057D01*
X-1712867Y-7112125D01*
X-1717818Y-7101657D01*
X-1721719Y-7090754D01*
X-1724533Y-7079521D01*
X-1726232Y-7068066D01*
X-1726800Y-7056500D01*
X-1726800Y-6820500D01*
X-1726232Y-6808934D01*
X-1724533Y-6797479D01*
X-1721719Y-6786246D01*
X-1717818Y-6775343D01*
X-1712867Y-6764875D01*
X-1706913Y-6754943D01*
X-1700015Y-6745642D01*
X-1692239Y-6737061D01*
X-1683658Y-6729285D01*
X-1674357Y-6722387D01*
X-1664425Y-6716433D01*
X-1653957Y-6711482D01*
X-1643054Y-6707581D01*
X-1631821Y-6704767D01*
X-1620366Y-6703068D01*
X-1608800Y-6702500D01*
X-1332800Y-6702500D01*
X-1321234Y-6703068D01*
X-1321234Y-6703068D01*
G37*
D17*
X-1470800Y-6938500D03*
G04 #@! TD*
D10*
G04 #@! TO.C,R4*
G36*
X-5621234Y-7153068D02*
X-5609779Y-7154767D01*
X-5598546Y-7157581D01*
X-5587643Y-7161482D01*
X-5577175Y-7166433D01*
X-5567243Y-7172387D01*
X-5557942Y-7179285D01*
X-5549361Y-7187061D01*
X-5541585Y-7195642D01*
X-5534687Y-7204943D01*
X-5528733Y-7214875D01*
X-5523782Y-7225343D01*
X-5519881Y-7236246D01*
X-5517067Y-7247479D01*
X-5515368Y-7258934D01*
X-5514800Y-7270500D01*
X-5514800Y-7506500D01*
X-5515368Y-7518066D01*
X-5517067Y-7529521D01*
X-5519881Y-7540754D01*
X-5523782Y-7551657D01*
X-5528733Y-7562125D01*
X-5534687Y-7572057D01*
X-5541585Y-7581358D01*
X-5549361Y-7589939D01*
X-5557942Y-7597715D01*
X-5567243Y-7604613D01*
X-5577175Y-7610567D01*
X-5587643Y-7615518D01*
X-5598546Y-7619419D01*
X-5609779Y-7622233D01*
X-5621234Y-7623932D01*
X-5632800Y-7624500D01*
X-5908800Y-7624500D01*
X-5920366Y-7623932D01*
X-5931821Y-7622233D01*
X-5943054Y-7619419D01*
X-5953957Y-7615518D01*
X-5964425Y-7610567D01*
X-5974357Y-7604613D01*
X-5983658Y-7597715D01*
X-5992239Y-7589939D01*
X-6000015Y-7581358D01*
X-6006913Y-7572057D01*
X-6012867Y-7562125D01*
X-6017818Y-7551657D01*
X-6021719Y-7540754D01*
X-6024533Y-7529521D01*
X-6026232Y-7518066D01*
X-6026800Y-7506500D01*
X-6026800Y-7270500D01*
X-6026232Y-7258934D01*
X-6024533Y-7247479D01*
X-6021719Y-7236246D01*
X-6017818Y-7225343D01*
X-6012867Y-7214875D01*
X-6006913Y-7204943D01*
X-6000015Y-7195642D01*
X-5992239Y-7187061D01*
X-5983658Y-7179285D01*
X-5974357Y-7172387D01*
X-5964425Y-7166433D01*
X-5953957Y-7161482D01*
X-5943054Y-7157581D01*
X-5931821Y-7154767D01*
X-5920366Y-7153068D01*
X-5908800Y-7152500D01*
X-5632800Y-7152500D01*
X-5621234Y-7153068D01*
X-5621234Y-7153068D01*
G37*
D17*
X-5770800Y-7388500D03*
D10*
G36*
X-5621234Y-6183068D02*
X-5609779Y-6184767D01*
X-5598546Y-6187581D01*
X-5587643Y-6191482D01*
X-5577175Y-6196433D01*
X-5567243Y-6202387D01*
X-5557942Y-6209285D01*
X-5549361Y-6217061D01*
X-5541585Y-6225642D01*
X-5534687Y-6234943D01*
X-5528733Y-6244875D01*
X-5523782Y-6255343D01*
X-5519881Y-6266246D01*
X-5517067Y-6277479D01*
X-5515368Y-6288934D01*
X-5514800Y-6300500D01*
X-5514800Y-6536500D01*
X-5515368Y-6548066D01*
X-5517067Y-6559521D01*
X-5519881Y-6570754D01*
X-5523782Y-6581657D01*
X-5528733Y-6592125D01*
X-5534687Y-6602057D01*
X-5541585Y-6611358D01*
X-5549361Y-6619939D01*
X-5557942Y-6627715D01*
X-5567243Y-6634613D01*
X-5577175Y-6640567D01*
X-5587643Y-6645518D01*
X-5598546Y-6649419D01*
X-5609779Y-6652233D01*
X-5621234Y-6653932D01*
X-5632800Y-6654500D01*
X-5908800Y-6654500D01*
X-5920366Y-6653932D01*
X-5931821Y-6652233D01*
X-5943054Y-6649419D01*
X-5953957Y-6645518D01*
X-5964425Y-6640567D01*
X-5974357Y-6634613D01*
X-5983658Y-6627715D01*
X-5992239Y-6619939D01*
X-6000015Y-6611358D01*
X-6006913Y-6602057D01*
X-6012867Y-6592125D01*
X-6017818Y-6581657D01*
X-6021719Y-6570754D01*
X-6024533Y-6559521D01*
X-6026232Y-6548066D01*
X-6026800Y-6536500D01*
X-6026800Y-6300500D01*
X-6026232Y-6288934D01*
X-6024533Y-6277479D01*
X-6021719Y-6266246D01*
X-6017818Y-6255343D01*
X-6012867Y-6244875D01*
X-6006913Y-6234943D01*
X-6000015Y-6225642D01*
X-5992239Y-6217061D01*
X-5983658Y-6209285D01*
X-5974357Y-6202387D01*
X-5964425Y-6196433D01*
X-5953957Y-6191482D01*
X-5943054Y-6187581D01*
X-5931821Y-6184767D01*
X-5920366Y-6183068D01*
X-5908800Y-6182500D01*
X-5632800Y-6182500D01*
X-5621234Y-6183068D01*
X-5621234Y-6183068D01*
G37*
D17*
X-5770800Y-6418500D03*
G04 #@! TD*
D10*
G04 #@! TO.C,R6*
G36*
X4943766Y6751932D02*
X4955221Y6750233D01*
X4966454Y6747419D01*
X4977357Y6743518D01*
X4987825Y6738567D01*
X4997757Y6732613D01*
X5007058Y6725715D01*
X5015639Y6717939D01*
X5023415Y6709358D01*
X5030313Y6700057D01*
X5036267Y6690125D01*
X5041218Y6679657D01*
X5045119Y6668754D01*
X5047933Y6657521D01*
X5049632Y6646066D01*
X5050200Y6634500D01*
X5050200Y6358500D01*
X5049632Y6346934D01*
X5047933Y6335479D01*
X5045119Y6324246D01*
X5041218Y6313343D01*
X5036267Y6302875D01*
X5030313Y6292943D01*
X5023415Y6283642D01*
X5015639Y6275061D01*
X5007058Y6267285D01*
X4997757Y6260387D01*
X4987825Y6254433D01*
X4977357Y6249482D01*
X4966454Y6245581D01*
X4955221Y6242767D01*
X4943766Y6241068D01*
X4932200Y6240500D01*
X4696200Y6240500D01*
X4684634Y6241068D01*
X4673179Y6242767D01*
X4661946Y6245581D01*
X4651043Y6249482D01*
X4640575Y6254433D01*
X4630643Y6260387D01*
X4621342Y6267285D01*
X4612761Y6275061D01*
X4604985Y6283642D01*
X4598087Y6292943D01*
X4592133Y6302875D01*
X4587182Y6313343D01*
X4583281Y6324246D01*
X4580467Y6335479D01*
X4578768Y6346934D01*
X4578200Y6358500D01*
X4578200Y6634500D01*
X4578768Y6646066D01*
X4580467Y6657521D01*
X4583281Y6668754D01*
X4587182Y6679657D01*
X4592133Y6690125D01*
X4598087Y6700057D01*
X4604985Y6709358D01*
X4612761Y6717939D01*
X4621342Y6725715D01*
X4630643Y6732613D01*
X4640575Y6738567D01*
X4651043Y6743518D01*
X4661946Y6747419D01*
X4673179Y6750233D01*
X4684634Y6751932D01*
X4696200Y6752500D01*
X4932200Y6752500D01*
X4943766Y6751932D01*
X4943766Y6751932D01*
G37*
D17*
X4814200Y6496500D03*
D10*
G36*
X3973766Y6751932D02*
X3985221Y6750233D01*
X3996454Y6747419D01*
X4007357Y6743518D01*
X4017825Y6738567D01*
X4027757Y6732613D01*
X4037058Y6725715D01*
X4045639Y6717939D01*
X4053415Y6709358D01*
X4060313Y6700057D01*
X4066267Y6690125D01*
X4071218Y6679657D01*
X4075119Y6668754D01*
X4077933Y6657521D01*
X4079632Y6646066D01*
X4080200Y6634500D01*
X4080200Y6358500D01*
X4079632Y6346934D01*
X4077933Y6335479D01*
X4075119Y6324246D01*
X4071218Y6313343D01*
X4066267Y6302875D01*
X4060313Y6292943D01*
X4053415Y6283642D01*
X4045639Y6275061D01*
X4037058Y6267285D01*
X4027757Y6260387D01*
X4017825Y6254433D01*
X4007357Y6249482D01*
X3996454Y6245581D01*
X3985221Y6242767D01*
X3973766Y6241068D01*
X3962200Y6240500D01*
X3726200Y6240500D01*
X3714634Y6241068D01*
X3703179Y6242767D01*
X3691946Y6245581D01*
X3681043Y6249482D01*
X3670575Y6254433D01*
X3660643Y6260387D01*
X3651342Y6267285D01*
X3642761Y6275061D01*
X3634985Y6283642D01*
X3628087Y6292943D01*
X3622133Y6302875D01*
X3617182Y6313343D01*
X3613281Y6324246D01*
X3610467Y6335479D01*
X3608768Y6346934D01*
X3608200Y6358500D01*
X3608200Y6634500D01*
X3608768Y6646066D01*
X3610467Y6657521D01*
X3613281Y6668754D01*
X3617182Y6679657D01*
X3622133Y6690125D01*
X3628087Y6700057D01*
X3634985Y6709358D01*
X3642761Y6717939D01*
X3651342Y6725715D01*
X3660643Y6732613D01*
X3670575Y6738567D01*
X3681043Y6743518D01*
X3691946Y6747419D01*
X3703179Y6750233D01*
X3714634Y6751932D01*
X3726200Y6752500D01*
X3962200Y6752500D01*
X3973766Y6751932D01*
X3973766Y6751932D01*
G37*
D17*
X3844200Y6496500D03*
G04 #@! TD*
D22*
G04 #@! TO.C,U3*
X1079200Y-1788500D03*
X2079200Y-1788500D03*
X1079200Y-388500D03*
X1579200Y-1788500D03*
X2079200Y-388500D03*
G04 #@! TD*
D10*
G04 #@! TO.C,R3*
G36*
X-21234Y-1368068D02*
X-9779Y-1369767D01*
X1454Y-1372581D01*
X12357Y-1376482D01*
X22825Y-1381433D01*
X32757Y-1387387D01*
X42058Y-1394285D01*
X50639Y-1402061D01*
X58415Y-1410642D01*
X65313Y-1419943D01*
X71267Y-1429875D01*
X76218Y-1440343D01*
X80119Y-1451246D01*
X82933Y-1462479D01*
X84632Y-1473934D01*
X85200Y-1485500D01*
X85200Y-1721500D01*
X84632Y-1733066D01*
X82933Y-1744521D01*
X80119Y-1755754D01*
X76218Y-1766657D01*
X71267Y-1777125D01*
X65313Y-1787057D01*
X58415Y-1796358D01*
X50639Y-1804939D01*
X42058Y-1812715D01*
X32757Y-1819613D01*
X22825Y-1825567D01*
X12357Y-1830518D01*
X1454Y-1834419D01*
X-9779Y-1837233D01*
X-21234Y-1838932D01*
X-32800Y-1839500D01*
X-308800Y-1839500D01*
X-320366Y-1838932D01*
X-331821Y-1837233D01*
X-343054Y-1834419D01*
X-353957Y-1830518D01*
X-364425Y-1825567D01*
X-374357Y-1819613D01*
X-383658Y-1812715D01*
X-392239Y-1804939D01*
X-400015Y-1796358D01*
X-406913Y-1787057D01*
X-412867Y-1777125D01*
X-417818Y-1766657D01*
X-421719Y-1755754D01*
X-424533Y-1744521D01*
X-426232Y-1733066D01*
X-426800Y-1721500D01*
X-426800Y-1485500D01*
X-426232Y-1473934D01*
X-424533Y-1462479D01*
X-421719Y-1451246D01*
X-417818Y-1440343D01*
X-412867Y-1429875D01*
X-406913Y-1419943D01*
X-400015Y-1410642D01*
X-392239Y-1402061D01*
X-383658Y-1394285D01*
X-374357Y-1387387D01*
X-364425Y-1381433D01*
X-353957Y-1376482D01*
X-343054Y-1372581D01*
X-331821Y-1369767D01*
X-320366Y-1368068D01*
X-308800Y-1367500D01*
X-32800Y-1367500D01*
X-21234Y-1368068D01*
X-21234Y-1368068D01*
G37*
D17*
X-170800Y-1603500D03*
D10*
G36*
X-21234Y-2338068D02*
X-9779Y-2339767D01*
X1454Y-2342581D01*
X12357Y-2346482D01*
X22825Y-2351433D01*
X32757Y-2357387D01*
X42058Y-2364285D01*
X50639Y-2372061D01*
X58415Y-2380642D01*
X65313Y-2389943D01*
X71267Y-2399875D01*
X76218Y-2410343D01*
X80119Y-2421246D01*
X82933Y-2432479D01*
X84632Y-2443934D01*
X85200Y-2455500D01*
X85200Y-2691500D01*
X84632Y-2703066D01*
X82933Y-2714521D01*
X80119Y-2725754D01*
X76218Y-2736657D01*
X71267Y-2747125D01*
X65313Y-2757057D01*
X58415Y-2766358D01*
X50639Y-2774939D01*
X42058Y-2782715D01*
X32757Y-2789613D01*
X22825Y-2795567D01*
X12357Y-2800518D01*
X1454Y-2804419D01*
X-9779Y-2807233D01*
X-21234Y-2808932D01*
X-32800Y-2809500D01*
X-308800Y-2809500D01*
X-320366Y-2808932D01*
X-331821Y-2807233D01*
X-343054Y-2804419D01*
X-353957Y-2800518D01*
X-364425Y-2795567D01*
X-374357Y-2789613D01*
X-383658Y-2782715D01*
X-392239Y-2774939D01*
X-400015Y-2766358D01*
X-406913Y-2757057D01*
X-412867Y-2747125D01*
X-417818Y-2736657D01*
X-421719Y-2725754D01*
X-424533Y-2714521D01*
X-426232Y-2703066D01*
X-426800Y-2691500D01*
X-426800Y-2455500D01*
X-426232Y-2443934D01*
X-424533Y-2432479D01*
X-421719Y-2421246D01*
X-417818Y-2410343D01*
X-412867Y-2399875D01*
X-406913Y-2389943D01*
X-400015Y-2380642D01*
X-392239Y-2372061D01*
X-383658Y-2364285D01*
X-374357Y-2357387D01*
X-364425Y-2351433D01*
X-353957Y-2346482D01*
X-343054Y-2342581D01*
X-331821Y-2339767D01*
X-320366Y-2338068D01*
X-308800Y-2337500D01*
X-32800Y-2337500D01*
X-21234Y-2338068D01*
X-21234Y-2338068D01*
G37*
D17*
X-170800Y-2573500D03*
G04 #@! TD*
D10*
G04 #@! TO.C,R7*
G36*
X-2806234Y-3133068D02*
X-2794779Y-3134767D01*
X-2783546Y-3137581D01*
X-2772643Y-3141482D01*
X-2762175Y-3146433D01*
X-2752243Y-3152387D01*
X-2742942Y-3159285D01*
X-2734361Y-3167061D01*
X-2726585Y-3175642D01*
X-2719687Y-3184943D01*
X-2713733Y-3194875D01*
X-2708782Y-3205343D01*
X-2704881Y-3216246D01*
X-2702067Y-3227479D01*
X-2700368Y-3238934D01*
X-2699800Y-3250500D01*
X-2699800Y-3526500D01*
X-2700368Y-3538066D01*
X-2702067Y-3549521D01*
X-2704881Y-3560754D01*
X-2708782Y-3571657D01*
X-2713733Y-3582125D01*
X-2719687Y-3592057D01*
X-2726585Y-3601358D01*
X-2734361Y-3609939D01*
X-2742942Y-3617715D01*
X-2752243Y-3624613D01*
X-2762175Y-3630567D01*
X-2772643Y-3635518D01*
X-2783546Y-3639419D01*
X-2794779Y-3642233D01*
X-2806234Y-3643932D01*
X-2817800Y-3644500D01*
X-3053800Y-3644500D01*
X-3065366Y-3643932D01*
X-3076821Y-3642233D01*
X-3088054Y-3639419D01*
X-3098957Y-3635518D01*
X-3109425Y-3630567D01*
X-3119357Y-3624613D01*
X-3128658Y-3617715D01*
X-3137239Y-3609939D01*
X-3145015Y-3601358D01*
X-3151913Y-3592057D01*
X-3157867Y-3582125D01*
X-3162818Y-3571657D01*
X-3166719Y-3560754D01*
X-3169533Y-3549521D01*
X-3171232Y-3538066D01*
X-3171800Y-3526500D01*
X-3171800Y-3250500D01*
X-3171232Y-3238934D01*
X-3169533Y-3227479D01*
X-3166719Y-3216246D01*
X-3162818Y-3205343D01*
X-3157867Y-3194875D01*
X-3151913Y-3184943D01*
X-3145015Y-3175642D01*
X-3137239Y-3167061D01*
X-3128658Y-3159285D01*
X-3119357Y-3152387D01*
X-3109425Y-3146433D01*
X-3098957Y-3141482D01*
X-3088054Y-3137581D01*
X-3076821Y-3134767D01*
X-3065366Y-3133068D01*
X-3053800Y-3132500D01*
X-2817800Y-3132500D01*
X-2806234Y-3133068D01*
X-2806234Y-3133068D01*
G37*
D17*
X-2935800Y-3388500D03*
D10*
G36*
X-3776234Y-3133068D02*
X-3764779Y-3134767D01*
X-3753546Y-3137581D01*
X-3742643Y-3141482D01*
X-3732175Y-3146433D01*
X-3722243Y-3152387D01*
X-3712942Y-3159285D01*
X-3704361Y-3167061D01*
X-3696585Y-3175642D01*
X-3689687Y-3184943D01*
X-3683733Y-3194875D01*
X-3678782Y-3205343D01*
X-3674881Y-3216246D01*
X-3672067Y-3227479D01*
X-3670368Y-3238934D01*
X-3669800Y-3250500D01*
X-3669800Y-3526500D01*
X-3670368Y-3538066D01*
X-3672067Y-3549521D01*
X-3674881Y-3560754D01*
X-3678782Y-3571657D01*
X-3683733Y-3582125D01*
X-3689687Y-3592057D01*
X-3696585Y-3601358D01*
X-3704361Y-3609939D01*
X-3712942Y-3617715D01*
X-3722243Y-3624613D01*
X-3732175Y-3630567D01*
X-3742643Y-3635518D01*
X-3753546Y-3639419D01*
X-3764779Y-3642233D01*
X-3776234Y-3643932D01*
X-3787800Y-3644500D01*
X-4023800Y-3644500D01*
X-4035366Y-3643932D01*
X-4046821Y-3642233D01*
X-4058054Y-3639419D01*
X-4068957Y-3635518D01*
X-4079425Y-3630567D01*
X-4089357Y-3624613D01*
X-4098658Y-3617715D01*
X-4107239Y-3609939D01*
X-4115015Y-3601358D01*
X-4121913Y-3592057D01*
X-4127867Y-3582125D01*
X-4132818Y-3571657D01*
X-4136719Y-3560754D01*
X-4139533Y-3549521D01*
X-4141232Y-3538066D01*
X-4141800Y-3526500D01*
X-4141800Y-3250500D01*
X-4141232Y-3238934D01*
X-4139533Y-3227479D01*
X-4136719Y-3216246D01*
X-4132818Y-3205343D01*
X-4127867Y-3194875D01*
X-4121913Y-3184943D01*
X-4115015Y-3175642D01*
X-4107239Y-3167061D01*
X-4098658Y-3159285D01*
X-4089357Y-3152387D01*
X-4079425Y-3146433D01*
X-4068957Y-3141482D01*
X-4058054Y-3137581D01*
X-4046821Y-3134767D01*
X-4035366Y-3133068D01*
X-4023800Y-3132500D01*
X-3787800Y-3132500D01*
X-3776234Y-3133068D01*
X-3776234Y-3133068D01*
G37*
D17*
X-3905800Y-3388500D03*
G04 #@! TD*
M02*
