G04 #@! TF.GenerationSoftware,KiCad,Pcbnew,(5.0.1)-4*
G04 #@! TF.CreationDate,2019-04-11T15:05:26+02:00*
G04 #@! TF.ProjectId,nk-fido2,6E6B2D6669646F322E6B696361645F70,R2*
G04 #@! TF.SameCoordinates,PX791ddc0PY5e69114*
G04 #@! TF.FileFunction,Legend,Top*
G04 #@! TF.FilePolarity,Positive*
%FSLAX46Y46*%
G04 Gerber Fmt 4.6, Leading zero omitted, Abs format (unit mm)*
G04 Created by KiCad (PCBNEW (5.0.1)-4) date 11.04.2019 15:05:26*
%MOMM*%
%LPD*%
G01*
G04 APERTURE LIST*
%ADD10C,0.150000*%
%ADD11C,0.254000*%
%ADD12C,0.120000*%
%ADD13C,0.101600*%
%ADD14C,0.160000*%
G04 APERTURE END LIST*
D10*
X5772057Y3816262D02*
X5772057Y3206739D01*
X-9485086Y3519120D02*
X-9818420Y3995310D01*
X-10056515Y3519120D02*
X-10056515Y4519120D01*
X-9675562Y4519120D01*
X-9580324Y4471500D01*
X-9532705Y4423881D01*
X-9485086Y4328643D01*
X-9485086Y4185786D01*
X-9532705Y4090548D01*
X-9580324Y4042929D01*
X-9675562Y3995310D01*
X-10056515Y3995310D01*
X-8675562Y3566739D02*
X-8770800Y3519120D01*
X-8961277Y3519120D01*
X-9056515Y3566739D01*
X-9104134Y3661977D01*
X-9104134Y4042929D01*
X-9056515Y4138167D01*
X-8961277Y4185786D01*
X-8770800Y4185786D01*
X-8675562Y4138167D01*
X-8627943Y4042929D01*
X-8627943Y3947691D01*
X-9104134Y3852453D01*
X-8294610Y4185786D02*
X-8056515Y3519120D01*
X-7818420Y4185786D01*
X-7437467Y3614358D02*
X-7389848Y3566739D01*
X-7437467Y3519120D01*
X-7485086Y3566739D01*
X-7437467Y3614358D01*
X-7437467Y3519120D01*
X-7008896Y4423881D02*
X-6961277Y4471500D01*
X-6866039Y4519120D01*
X-6627943Y4519120D01*
X-6532705Y4471500D01*
X-6485086Y4423881D01*
X-6437467Y4328643D01*
X-6437467Y4233405D01*
X-6485086Y4090548D01*
X-7056515Y3519120D01*
X-6437467Y3519120D01*
X-9716039Y5494629D02*
X-10049372Y5494629D01*
X-10049372Y4970820D02*
X-10049372Y5970820D01*
X-9573181Y5970820D01*
X-9192229Y4970820D02*
X-9192229Y5970820D01*
X-8716039Y4970820D02*
X-8716039Y5970820D01*
X-8477943Y5970820D01*
X-8335086Y5923200D01*
X-8239848Y5827962D01*
X-8192229Y5732724D01*
X-8144610Y5542248D01*
X-8144610Y5399391D01*
X-8192229Y5208915D01*
X-8239848Y5113677D01*
X-8335086Y5018439D01*
X-8477943Y4970820D01*
X-8716039Y4970820D01*
X-7525562Y5970820D02*
X-7335086Y5970820D01*
X-7239848Y5923200D01*
X-7144610Y5827962D01*
X-7096991Y5637486D01*
X-7096991Y5304153D01*
X-7144610Y5113677D01*
X-7239848Y5018439D01*
X-7335086Y4970820D01*
X-7525562Y4970820D01*
X-7620800Y5018439D01*
X-7716039Y5113677D01*
X-7763658Y5304153D01*
X-7763658Y5637486D01*
X-7716039Y5827962D01*
X-7620800Y5923200D01*
X-7525562Y5970820D01*
X-6716039Y5875581D02*
X-6668420Y5923200D01*
X-6573181Y5970820D01*
X-6335086Y5970820D01*
X-6239848Y5923200D01*
X-6192229Y5875581D01*
X-6144610Y5780343D01*
X-6144610Y5685105D01*
X-6192229Y5542248D01*
X-6763658Y4970820D01*
X-6144610Y4970820D01*
X-10083215Y6507520D02*
X-10083215Y7507520D01*
X-9511786Y6507520D01*
X-9511786Y7507520D01*
X-9035596Y6507520D02*
X-9035596Y7174186D01*
X-9035596Y7507520D02*
X-9083215Y7459900D01*
X-9035596Y7412281D01*
X-8987977Y7459900D01*
X-9035596Y7507520D01*
X-9035596Y7412281D01*
X-8702262Y7174186D02*
X-8321310Y7174186D01*
X-8559405Y7507520D02*
X-8559405Y6650377D01*
X-8511786Y6555139D01*
X-8416548Y6507520D01*
X-8321310Y6507520D01*
X-7987977Y6507520D02*
X-7987977Y7174186D01*
X-7987977Y6983710D02*
X-7940358Y7078948D01*
X-7892739Y7126567D01*
X-7797500Y7174186D01*
X-7702262Y7174186D01*
X-7226072Y6507520D02*
X-7321310Y6555139D01*
X-7368929Y6602758D01*
X-7416548Y6697996D01*
X-7416548Y6983710D01*
X-7368929Y7078948D01*
X-7321310Y7126567D01*
X-7226072Y7174186D01*
X-7083215Y7174186D01*
X-6987977Y7126567D01*
X-6940358Y7078948D01*
X-6892739Y6983710D01*
X-6892739Y6697996D01*
X-6940358Y6602758D01*
X-6987977Y6555139D01*
X-7083215Y6507520D01*
X-7226072Y6507520D01*
X-6464167Y6507520D02*
X-6464167Y7507520D01*
X-6368929Y6888472D02*
X-6083215Y6507520D01*
X-6083215Y7174186D02*
X-6464167Y6793234D01*
X-5273691Y6555139D02*
X-5368929Y6507520D01*
X-5559405Y6507520D01*
X-5654643Y6555139D01*
X-5702262Y6650377D01*
X-5702262Y7031329D01*
X-5654643Y7126567D01*
X-5559405Y7174186D01*
X-5368929Y7174186D01*
X-5273691Y7126567D01*
X-5226072Y7031329D01*
X-5226072Y6936091D01*
X-5702262Y6840853D01*
X-4892739Y7174186D02*
X-4654643Y6507520D01*
X-4416548Y7174186D02*
X-4654643Y6507520D01*
X-4749881Y6269424D01*
X-4797500Y6221805D01*
X-4892739Y6174186D01*
X9253009Y2336977D02*
X9291104Y2451262D01*
X9291104Y2641739D01*
X9253009Y2717929D01*
X9214914Y2756024D01*
X9138723Y2794120D01*
X9062533Y2794120D01*
X8986342Y2756024D01*
X8948247Y2717929D01*
X8910152Y2641739D01*
X8872057Y2489358D01*
X8833961Y2413167D01*
X8795866Y2375072D01*
X8719676Y2336977D01*
X8643485Y2336977D01*
X8567295Y2375072D01*
X8529200Y2413167D01*
X8491104Y2489358D01*
X8491104Y2679834D01*
X8529200Y2794120D01*
X8491104Y3060786D02*
X9291104Y3251262D01*
X8719676Y3403643D01*
X9291104Y3556024D01*
X8491104Y3746500D01*
X9214914Y4508405D02*
X9253009Y4470310D01*
X9291104Y4356024D01*
X9291104Y4279834D01*
X9253009Y4165548D01*
X9176819Y4089358D01*
X9100628Y4051262D01*
X8948247Y4013167D01*
X8833961Y4013167D01*
X8681580Y4051262D01*
X8605390Y4089358D01*
X8529200Y4165548D01*
X8491104Y4279834D01*
X8491104Y4356024D01*
X8529200Y4470310D01*
X8567295Y4508405D01*
X9291104Y5232215D02*
X9291104Y4851262D01*
X8491104Y4851262D01*
X8653009Y-4783738D02*
X8691104Y-4669452D01*
X8691104Y-4478976D01*
X8653009Y-4402785D01*
X8614914Y-4364690D01*
X8538723Y-4326595D01*
X8462533Y-4326595D01*
X8386342Y-4364690D01*
X8348247Y-4402785D01*
X8310152Y-4478976D01*
X8272057Y-4631357D01*
X8233961Y-4707547D01*
X8195866Y-4745642D01*
X8119676Y-4783738D01*
X8043485Y-4783738D01*
X7967295Y-4745642D01*
X7929200Y-4707547D01*
X7891104Y-4631357D01*
X7891104Y-4440880D01*
X7929200Y-4326595D01*
X7891104Y-4059928D02*
X8691104Y-3869452D01*
X8119676Y-3717071D01*
X8691104Y-3564690D01*
X7891104Y-3374214D01*
X8691104Y-3069452D02*
X7891104Y-3069452D01*
X7891104Y-2536119D02*
X7891104Y-2383738D01*
X7929200Y-2307547D01*
X8005390Y-2231357D01*
X8157771Y-2193261D01*
X8424438Y-2193261D01*
X8576819Y-2231357D01*
X8653009Y-2307547D01*
X8691104Y-2383738D01*
X8691104Y-2536119D01*
X8653009Y-2612309D01*
X8576819Y-2688500D01*
X8424438Y-2726595D01*
X8157771Y-2726595D01*
X8005390Y-2688500D01*
X7929200Y-2612309D01*
X7891104Y-2536119D01*
X6133961Y-4481357D02*
X5524438Y-4481357D01*
X5829200Y-4176595D02*
X5829200Y-4786119D01*
X3374438Y-515404D02*
X3374438Y284596D01*
X3564914Y284596D01*
X3679200Y246500D01*
X3755390Y170310D01*
X3793485Y94120D01*
X3831580Y-58261D01*
X3831580Y-172547D01*
X3793485Y-324928D01*
X3755390Y-401119D01*
X3679200Y-477309D01*
X3564914Y-515404D01*
X3374438Y-515404D01*
X4174438Y-210642D02*
X4783961Y-210642D01*
X3374438Y534596D02*
X3374438Y1334596D01*
X3564914Y1334596D01*
X3679200Y1296500D01*
X3755390Y1220310D01*
X3793485Y1144120D01*
X3831580Y991739D01*
X3831580Y877453D01*
X3793485Y725072D01*
X3755390Y648881D01*
X3679200Y572691D01*
X3564914Y534596D01*
X3374438Y534596D01*
X4174438Y839358D02*
X4783961Y839358D01*
X4479200Y534596D02*
X4479200Y1144120D01*
X14977872Y-3378300D02*
G75*
G03X14977872Y-3378300I-1395672J0D01*
G01*
X16895572Y-1246029D02*
G75*
G03X16895572Y-1246029I-1395672J0D01*
G01*
X13199872Y-1182529D02*
G75*
G03X13199872Y-1182529I-1395672J0D01*
G01*
X13199872Y1586071D02*
G75*
G03X13199872Y1586071I-1395672J0D01*
G01*
X16922301Y1498500D02*
G75*
G03X16922301Y1498500I-1395672J0D01*
G01*
X15118901Y3632100D02*
G75*
G03X15118901Y3632100I-1395672J0D01*
G01*
D11*
G04 #@! TO.C,J1*
X4899020Y-4714990D02*
X4899020Y-5814810D01*
X4899020Y4683010D02*
X4899020Y5782830D01*
D12*
G04 #@! TO.C,SJ1*
X-7320800Y-488500D02*
G75*
G02X-8020800Y-1188500I-700000J0D01*
G01*
X-8620800Y-1188500D02*
G75*
G02X-9320800Y-488500I0J700000D01*
G01*
X-9320800Y911500D02*
G75*
G02X-8620800Y1611500I700000J0D01*
G01*
X-8020800Y1611500D02*
G75*
G02X-7320800Y911500I0J-700000D01*
G01*
X-8620800Y1611500D02*
X-8020800Y1611500D01*
X-8020800Y-1188500D02*
X-8620800Y-1188500D01*
X-7320800Y911500D02*
X-7320800Y-488500D01*
X-9320800Y-488500D02*
X-9320800Y911500D01*
D10*
G04 #@! TO.C,U4*
X-4570800Y-7628500D02*
X-4570800Y-3878500D01*
X-2070800Y-7628500D02*
X-4570800Y-7628500D01*
X-2070800Y-3878500D02*
X-2070800Y-7628500D01*
X-4570800Y-3878500D02*
X-2070800Y-3878500D01*
D12*
G04 #@! TO.C,U2*
X129200Y-7563500D02*
X1929200Y-7563500D01*
X1929200Y-4343500D02*
X-520800Y-4343500D01*
D13*
G04 #@! TO.C,L1*
X2292900Y-3926500D02*
G75*
G03X2292900Y-3926500I-50800J0D01*
G01*
D12*
G04 #@! TO.C,U1*
X2689200Y1761500D02*
X2689200Y1286500D01*
X2689200Y1286500D02*
X2214200Y1286500D01*
X-2530800Y6031500D02*
X-2530800Y6506500D01*
X-2530800Y6506500D02*
X-2055800Y6506500D01*
X-2530800Y1761500D02*
X-2530800Y1286500D01*
X-2530800Y1286500D02*
X-2055800Y1286500D01*
X2689200Y6031500D02*
X2689200Y6506500D01*
G04 #@! TO.C,U3*
X2479200Y-438500D02*
X2479200Y-1738500D01*
X679200Y-1988500D02*
X679200Y-438500D01*
G04 #@! TO.C,L2*
D14*
X-11773181Y-4371833D02*
X-11773181Y-3895642D01*
X-10773181Y-3895642D01*
X-10868420Y-4657547D02*
X-10820800Y-4705166D01*
X-10773181Y-4800404D01*
X-10773181Y-5038500D01*
X-10820800Y-5133738D01*
X-10868420Y-5181357D01*
X-10963658Y-5228976D01*
X-11058896Y-5228976D01*
X-11201753Y-5181357D01*
X-11773181Y-4609928D01*
X-11773181Y-5228976D01*
G04 #@! TO.C,SJ1*
D10*
X-9135086Y1887691D02*
X-9020800Y1849596D01*
X-8830324Y1849596D01*
X-8754134Y1887691D01*
X-8716039Y1925786D01*
X-8677943Y2001977D01*
X-8677943Y2078167D01*
X-8716039Y2154358D01*
X-8754134Y2192453D01*
X-8830324Y2230548D01*
X-8982705Y2268643D01*
X-9058896Y2306739D01*
X-9096991Y2344834D01*
X-9135086Y2421024D01*
X-9135086Y2497215D01*
X-9096991Y2573405D01*
X-9058896Y2611500D01*
X-8982705Y2649596D01*
X-8792229Y2649596D01*
X-8677943Y2611500D01*
X-8106515Y2649596D02*
X-8106515Y2078167D01*
X-8144610Y1963881D01*
X-8220800Y1887691D01*
X-8335086Y1849596D01*
X-8411277Y1849596D01*
X-7306515Y1849596D02*
X-7763658Y1849596D01*
X-7535086Y1849596D02*
X-7535086Y2649596D01*
X-7611277Y2535310D01*
X-7687467Y2459120D01*
X-7763658Y2421024D01*
G04 #@! TO.C,U5*
X-3182705Y1821024D02*
X-3830324Y1821024D01*
X-3906515Y1782929D01*
X-3944610Y1744834D01*
X-3982705Y1668643D01*
X-3982705Y1516262D01*
X-3944610Y1440072D01*
X-3906515Y1401977D01*
X-3830324Y1363881D01*
X-3182705Y1363881D01*
X-3182705Y601977D02*
X-3182705Y982929D01*
X-3563658Y1021024D01*
X-3525562Y982929D01*
X-3487467Y906739D01*
X-3487467Y716262D01*
X-3525562Y640072D01*
X-3563658Y601977D01*
X-3639848Y563881D01*
X-3830324Y563881D01*
X-3906515Y601977D01*
X-3944610Y640072D01*
X-3982705Y716262D01*
X-3982705Y906739D01*
X-3944610Y982929D01*
X-3906515Y1021024D01*
G04 #@! TO.C,U4*
X-6080324Y-3300404D02*
X-6080324Y-3948023D01*
X-6042229Y-4024214D01*
X-6004134Y-4062309D01*
X-5927943Y-4100404D01*
X-5775562Y-4100404D01*
X-5699372Y-4062309D01*
X-5661277Y-4024214D01*
X-5623181Y-3948023D01*
X-5623181Y-3300404D01*
X-4899372Y-3567071D02*
X-4899372Y-4100404D01*
X-5089848Y-3262309D02*
X-5280324Y-3833738D01*
X-4785086Y-3833738D01*
G04 #@! TO.C,U2*
X-880324Y-3200404D02*
X-880324Y-3848023D01*
X-842229Y-3924214D01*
X-804134Y-3962309D01*
X-727943Y-4000404D01*
X-575562Y-4000404D01*
X-499372Y-3962309D01*
X-461277Y-3924214D01*
X-423181Y-3848023D01*
X-423181Y-3200404D01*
X-80324Y-3276595D02*
X-42229Y-3238500D01*
X33961Y-3200404D01*
X224438Y-3200404D01*
X300628Y-3238500D01*
X338723Y-3276595D01*
X376819Y-3352785D01*
X376819Y-3428976D01*
X338723Y-3543261D01*
X-118420Y-4000404D01*
X376819Y-4000404D01*
G04 #@! TO.C,R5*
X4881580Y-9555166D02*
X4405390Y-9888500D01*
X4881580Y-10126595D02*
X3881580Y-10126595D01*
X3881580Y-9745642D01*
X3929200Y-9650404D01*
X3976819Y-9602785D01*
X4072057Y-9555166D01*
X4214914Y-9555166D01*
X4310152Y-9602785D01*
X4357771Y-9650404D01*
X4405390Y-9745642D01*
X4405390Y-10126595D01*
X3881580Y-8650404D02*
X3881580Y-9126595D01*
X4357771Y-9174214D01*
X4310152Y-9126595D01*
X4262533Y-9031357D01*
X4262533Y-8793261D01*
X4310152Y-8698023D01*
X4357771Y-8650404D01*
X4453009Y-8602785D01*
X4691104Y-8602785D01*
X4786342Y-8650404D01*
X4833961Y-8698023D01*
X4881580Y-8793261D01*
X4881580Y-9031357D01*
X4833961Y-9126595D01*
X4786342Y-9174214D01*
G04 #@! TO.C,TP2*
X10567295Y2094120D02*
X11138723Y2094120D01*
X10853009Y1094120D02*
X10853009Y2094120D01*
X11472057Y1094120D02*
X11472057Y2094120D01*
X11853009Y2094120D01*
X11948247Y2046500D01*
X11995866Y1998881D01*
X12043485Y1903643D01*
X12043485Y1760786D01*
X11995866Y1665548D01*
X11948247Y1617929D01*
X11853009Y1570310D01*
X11472057Y1570310D01*
X12424438Y1998881D02*
X12472057Y2046500D01*
X12567295Y2094120D01*
X12805390Y2094120D01*
X12900628Y2046500D01*
X12948247Y1998881D01*
X12995866Y1903643D01*
X12995866Y1808405D01*
X12948247Y1665548D01*
X12376819Y1094120D01*
X12995866Y1094120D01*
G04 #@! TO.C,L1*
X1595866Y-3650404D02*
X1214914Y-3650404D01*
X1214914Y-2850404D01*
X2281580Y-3650404D02*
X1824438Y-3650404D01*
X2053009Y-3650404D02*
X2053009Y-2850404D01*
X1976819Y-2964690D01*
X1900628Y-3040880D01*
X1824438Y-3078976D01*
G04 #@! TO.C,U1*
D14*
X-4768420Y3299596D02*
X-3958896Y3299596D01*
X-3863658Y3347215D01*
X-3816039Y3394834D01*
X-3768420Y3490072D01*
X-3768420Y3680548D01*
X-3816039Y3775786D01*
X-3863658Y3823405D01*
X-3958896Y3871024D01*
X-4768420Y3871024D01*
X-3768420Y4871024D02*
X-3768420Y4299596D01*
X-3768420Y4585310D02*
X-4768420Y4585310D01*
X-4625562Y4490072D01*
X-4530324Y4394834D01*
X-4482705Y4299596D01*
G04 #@! TO.C,C1*
D10*
X4229200Y-1705166D02*
X4262533Y-1738500D01*
X4295866Y-1838500D01*
X4295866Y-1905166D01*
X4262533Y-2005166D01*
X4195866Y-2071833D01*
X4129200Y-2105166D01*
X3995866Y-2138500D01*
X3895866Y-2138500D01*
X3762533Y-2105166D01*
X3695866Y-2071833D01*
X3629200Y-2005166D01*
X3595866Y-1905166D01*
X3595866Y-1838500D01*
X3629200Y-1738500D01*
X3662533Y-1705166D01*
X4295866Y-1038500D02*
X4295866Y-1438500D01*
X4295866Y-1238500D02*
X3595866Y-1238500D01*
X3695866Y-1305166D01*
X3762533Y-1371833D01*
X3795866Y-1438500D01*
G04 #@! TO.C,C2*
X3329200Y-1705166D02*
X3362533Y-1738500D01*
X3395866Y-1838500D01*
X3395866Y-1905166D01*
X3362533Y-2005166D01*
X3295866Y-2071833D01*
X3229200Y-2105166D01*
X3095866Y-2138500D01*
X2995866Y-2138500D01*
X2862533Y-2105166D01*
X2795866Y-2071833D01*
X2729200Y-2005166D01*
X2695866Y-1905166D01*
X2695866Y-1838500D01*
X2729200Y-1738500D01*
X2762533Y-1705166D01*
X2762533Y-1438500D02*
X2729200Y-1405166D01*
X2695866Y-1338500D01*
X2695866Y-1171833D01*
X2729200Y-1105166D01*
X2762533Y-1071833D01*
X2829200Y-1038500D01*
X2895866Y-1038500D01*
X2995866Y-1071833D01*
X3395866Y-1471833D01*
X3395866Y-1038500D01*
G04 #@! TO.C,C3*
X-5304134Y-2824214D02*
X-5342229Y-2862309D01*
X-5456515Y-2900404D01*
X-5532705Y-2900404D01*
X-5646991Y-2862309D01*
X-5723181Y-2786119D01*
X-5761277Y-2709928D01*
X-5799372Y-2557547D01*
X-5799372Y-2443261D01*
X-5761277Y-2290880D01*
X-5723181Y-2214690D01*
X-5646991Y-2138500D01*
X-5532705Y-2100404D01*
X-5456515Y-2100404D01*
X-5342229Y-2138500D01*
X-5304134Y-2176595D01*
X-5037467Y-2100404D02*
X-4542229Y-2100404D01*
X-4808896Y-2405166D01*
X-4694610Y-2405166D01*
X-4618420Y-2443261D01*
X-4580324Y-2481357D01*
X-4542229Y-2557547D01*
X-4542229Y-2748023D01*
X-4580324Y-2824214D01*
X-4618420Y-2862309D01*
X-4694610Y-2900404D01*
X-4923181Y-2900404D01*
X-4999372Y-2862309D01*
X-5037467Y-2824214D01*
G04 #@! TO.C,C4*
X-5304134Y-1774214D02*
X-5342229Y-1812309D01*
X-5456515Y-1850404D01*
X-5532705Y-1850404D01*
X-5646991Y-1812309D01*
X-5723181Y-1736119D01*
X-5761277Y-1659928D01*
X-5799372Y-1507547D01*
X-5799372Y-1393261D01*
X-5761277Y-1240880D01*
X-5723181Y-1164690D01*
X-5646991Y-1088500D01*
X-5532705Y-1050404D01*
X-5456515Y-1050404D01*
X-5342229Y-1088500D01*
X-5304134Y-1126595D01*
X-4618420Y-1317071D02*
X-4618420Y-1850404D01*
X-4808896Y-1012309D02*
X-4999372Y-1583738D01*
X-4504134Y-1583738D01*
G04 #@! TO.C,C5*
X4212533Y11854358D02*
X4164914Y11806739D01*
X4022057Y11759120D01*
X3926819Y11759120D01*
X3783961Y11806739D01*
X3688723Y11901977D01*
X3641104Y11997215D01*
X3593485Y12187691D01*
X3593485Y12330548D01*
X3641104Y12521024D01*
X3688723Y12616262D01*
X3783961Y12711500D01*
X3926819Y12759120D01*
X4022057Y12759120D01*
X4164914Y12711500D01*
X4212533Y12663881D01*
X5117295Y12759120D02*
X4641104Y12759120D01*
X4593485Y12282929D01*
X4641104Y12330548D01*
X4736342Y12378167D01*
X4974438Y12378167D01*
X5069676Y12330548D01*
X5117295Y12282929D01*
X5164914Y12187691D01*
X5164914Y11949596D01*
X5117295Y11854358D01*
X5069676Y11806739D01*
X4974438Y11759120D01*
X4736342Y11759120D01*
X4641104Y11806739D01*
X4593485Y11854358D01*
G04 #@! TO.C,C6*
X4386342Y10194834D02*
X4433961Y10147215D01*
X4481580Y10004358D01*
X4481580Y9909120D01*
X4433961Y9766262D01*
X4338723Y9671024D01*
X4243485Y9623405D01*
X4053009Y9575786D01*
X3910152Y9575786D01*
X3719676Y9623405D01*
X3624438Y9671024D01*
X3529200Y9766262D01*
X3481580Y9909120D01*
X3481580Y10004358D01*
X3529200Y10147215D01*
X3576819Y10194834D01*
X3481580Y11051977D02*
X3481580Y10861500D01*
X3529200Y10766262D01*
X3576819Y10718643D01*
X3719676Y10623405D01*
X3910152Y10575786D01*
X4291104Y10575786D01*
X4386342Y10623405D01*
X4433961Y10671024D01*
X4481580Y10766262D01*
X4481580Y10956739D01*
X4433961Y11051977D01*
X4386342Y11099596D01*
X4291104Y11147215D01*
X4053009Y11147215D01*
X3957771Y11099596D01*
X3910152Y11051977D01*
X3862533Y10956739D01*
X3862533Y10766262D01*
X3910152Y10671024D01*
X3957771Y10623405D01*
X4053009Y10575786D01*
G04 #@! TO.C,C7*
X5836342Y10194834D02*
X5883961Y10147215D01*
X5931580Y10004358D01*
X5931580Y9909120D01*
X5883961Y9766262D01*
X5788723Y9671024D01*
X5693485Y9623405D01*
X5503009Y9575786D01*
X5360152Y9575786D01*
X5169676Y9623405D01*
X5074438Y9671024D01*
X4979200Y9766262D01*
X4931580Y9909120D01*
X4931580Y10004358D01*
X4979200Y10147215D01*
X5026819Y10194834D01*
X4931580Y10528167D02*
X4931580Y11194834D01*
X5931580Y10766262D01*
G04 #@! TO.C,R1*
X-1658896Y-2771833D02*
X-2039848Y-3038500D01*
X-1658896Y-3228976D02*
X-2458896Y-3228976D01*
X-2458896Y-2924214D01*
X-2420800Y-2848023D01*
X-2382705Y-2809928D01*
X-2306515Y-2771833D01*
X-2192229Y-2771833D01*
X-2116039Y-2809928D01*
X-2077943Y-2848023D01*
X-2039848Y-2924214D01*
X-2039848Y-3228976D01*
X-1658896Y-2009928D02*
X-1658896Y-2467071D01*
X-1658896Y-2238500D02*
X-2458896Y-2238500D01*
X-2344610Y-2314690D01*
X-2268420Y-2390880D01*
X-2230324Y-2467071D01*
G04 #@! TO.C,R2*
X-1454134Y-8150404D02*
X-1720800Y-7769452D01*
X-1911277Y-8150404D02*
X-1911277Y-7350404D01*
X-1606515Y-7350404D01*
X-1530324Y-7388500D01*
X-1492229Y-7426595D01*
X-1454134Y-7502785D01*
X-1454134Y-7617071D01*
X-1492229Y-7693261D01*
X-1530324Y-7731357D01*
X-1606515Y-7769452D01*
X-1911277Y-7769452D01*
X-1149372Y-7426595D02*
X-1111277Y-7388500D01*
X-1035086Y-7350404D01*
X-844610Y-7350404D01*
X-768420Y-7388500D01*
X-730324Y-7426595D01*
X-692229Y-7502785D01*
X-692229Y-7578976D01*
X-730324Y-7693261D01*
X-1187467Y-8150404D01*
X-692229Y-8150404D01*
G04 #@! TO.C,R4*
X-5408896Y-5221833D02*
X-5789848Y-5488500D01*
X-5408896Y-5678976D02*
X-6208896Y-5678976D01*
X-6208896Y-5374214D01*
X-6170800Y-5298023D01*
X-6132705Y-5259928D01*
X-6056515Y-5221833D01*
X-5942229Y-5221833D01*
X-5866039Y-5259928D01*
X-5827943Y-5298023D01*
X-5789848Y-5374214D01*
X-5789848Y-5678976D01*
X-5942229Y-4536119D02*
X-5408896Y-4536119D01*
X-6246991Y-4726595D02*
X-5675562Y-4917071D01*
X-5675562Y-4421833D01*
G04 #@! TO.C,R6*
X2495866Y6999596D02*
X2229200Y7380548D01*
X2038723Y6999596D02*
X2038723Y7799596D01*
X2343485Y7799596D01*
X2419676Y7761500D01*
X2457771Y7723405D01*
X2495866Y7647215D01*
X2495866Y7532929D01*
X2457771Y7456739D01*
X2419676Y7418643D01*
X2343485Y7380548D01*
X2038723Y7380548D01*
X3181580Y7799596D02*
X3029200Y7799596D01*
X2953009Y7761500D01*
X2914914Y7723405D01*
X2838723Y7609120D01*
X2800628Y7456739D01*
X2800628Y7151977D01*
X2838723Y7075786D01*
X2876819Y7037691D01*
X2953009Y6999596D01*
X3105390Y6999596D01*
X3181580Y7037691D01*
X3219676Y7075786D01*
X3257771Y7151977D01*
X3257771Y7342453D01*
X3219676Y7418643D01*
X3181580Y7456739D01*
X3105390Y7494834D01*
X2953009Y7494834D01*
X2876819Y7456739D01*
X2838723Y7418643D01*
X2800628Y7342453D01*
G04 #@! TO.C,U3*
X-911124Y214596D02*
X-911124Y-433023D01*
X-873029Y-509214D01*
X-834934Y-547309D01*
X-758743Y-585404D01*
X-606362Y-585404D01*
X-530172Y-547309D01*
X-492077Y-509214D01*
X-453981Y-433023D01*
X-453981Y214596D01*
X-149220Y214596D02*
X346019Y214596D01*
X79352Y-90166D01*
X193638Y-90166D01*
X269828Y-128261D01*
X307923Y-166357D01*
X346019Y-242547D01*
X346019Y-433023D01*
X307923Y-509214D01*
X269828Y-547309D01*
X193638Y-585404D01*
X-34934Y-585404D01*
X-111124Y-547309D01*
X-149220Y-509214D01*
G04 #@! TO.C,TP1*
X12517295Y4144120D02*
X13088723Y4144120D01*
X12803009Y3144120D02*
X12803009Y4144120D01*
X13422057Y3144120D02*
X13422057Y4144120D01*
X13803009Y4144120D01*
X13898247Y4096500D01*
X13945866Y4048881D01*
X13993485Y3953643D01*
X13993485Y3810786D01*
X13945866Y3715548D01*
X13898247Y3667929D01*
X13803009Y3620310D01*
X13422057Y3620310D01*
X14945866Y3144120D02*
X14374438Y3144120D01*
X14660152Y3144120D02*
X14660152Y4144120D01*
X14564914Y4001262D01*
X14469676Y3906024D01*
X14374438Y3858405D01*
G04 #@! TO.C,TP3*
X10567295Y-685880D02*
X11138723Y-685880D01*
X10853009Y-1685880D02*
X10853009Y-685880D01*
X11472057Y-1685880D02*
X11472057Y-685880D01*
X11853009Y-685880D01*
X11948247Y-733500D01*
X11995866Y-781119D01*
X12043485Y-876357D01*
X12043485Y-1019214D01*
X11995866Y-1114452D01*
X11948247Y-1162071D01*
X11853009Y-1209690D01*
X11472057Y-1209690D01*
X12376819Y-685880D02*
X12995866Y-685880D01*
X12662533Y-1066833D01*
X12805390Y-1066833D01*
X12900628Y-1114452D01*
X12948247Y-1162071D01*
X12995866Y-1257309D01*
X12995866Y-1495404D01*
X12948247Y-1590642D01*
X12900628Y-1638261D01*
X12805390Y-1685880D01*
X12519676Y-1685880D01*
X12424438Y-1638261D01*
X12376819Y-1590642D01*
G04 #@! TO.C,TP4*
X12367295Y-3055880D02*
X12938723Y-3055880D01*
X12653009Y-4055880D02*
X12653009Y-3055880D01*
X13272057Y-4055880D02*
X13272057Y-3055880D01*
X13653009Y-3055880D01*
X13748247Y-3103500D01*
X13795866Y-3151119D01*
X13843485Y-3246357D01*
X13843485Y-3389214D01*
X13795866Y-3484452D01*
X13748247Y-3532071D01*
X13653009Y-3579690D01*
X13272057Y-3579690D01*
X14700628Y-3389214D02*
X14700628Y-4055880D01*
X14462533Y-3008261D02*
X14224438Y-3722547D01*
X14843485Y-3722547D01*
G04 #@! TO.C,TP5*
X14267295Y1994120D02*
X14838723Y1994120D01*
X14553009Y994120D02*
X14553009Y1994120D01*
X15172057Y994120D02*
X15172057Y1994120D01*
X15553009Y1994120D01*
X15648247Y1946500D01*
X15695866Y1898881D01*
X15743485Y1803643D01*
X15743485Y1660786D01*
X15695866Y1565548D01*
X15648247Y1517929D01*
X15553009Y1470310D01*
X15172057Y1470310D01*
X16648247Y1994120D02*
X16172057Y1994120D01*
X16124438Y1517929D01*
X16172057Y1565548D01*
X16267295Y1613167D01*
X16505390Y1613167D01*
X16600628Y1565548D01*
X16648247Y1517929D01*
X16695866Y1422691D01*
X16695866Y1184596D01*
X16648247Y1089358D01*
X16600628Y1041739D01*
X16505390Y994120D01*
X16267295Y994120D01*
X16172057Y1041739D01*
X16124438Y1089358D01*
G04 #@! TO.C,TP6*
X14217295Y-705880D02*
X14788723Y-705880D01*
X14503009Y-1705880D02*
X14503009Y-705880D01*
X15122057Y-1705880D02*
X15122057Y-705880D01*
X15503009Y-705880D01*
X15598247Y-753500D01*
X15645866Y-801119D01*
X15693485Y-896357D01*
X15693485Y-1039214D01*
X15645866Y-1134452D01*
X15598247Y-1182071D01*
X15503009Y-1229690D01*
X15122057Y-1229690D01*
X16550628Y-705880D02*
X16360152Y-705880D01*
X16264914Y-753500D01*
X16217295Y-801119D01*
X16122057Y-943976D01*
X16074438Y-1134452D01*
X16074438Y-1515404D01*
X16122057Y-1610642D01*
X16169676Y-1658261D01*
X16264914Y-1705880D01*
X16455390Y-1705880D01*
X16550628Y-1658261D01*
X16598247Y-1610642D01*
X16645866Y-1515404D01*
X16645866Y-1277309D01*
X16598247Y-1182071D01*
X16550628Y-1134452D01*
X16455390Y-1086833D01*
X16264914Y-1086833D01*
X16169676Y-1134452D01*
X16122057Y-1182071D01*
X16074438Y-1277309D01*
G04 #@! TO.C,R3*
X-608896Y-2321833D02*
X-989848Y-2588500D01*
X-608896Y-2778976D02*
X-1408896Y-2778976D01*
X-1408896Y-2474214D01*
X-1370800Y-2398023D01*
X-1332705Y-2359928D01*
X-1256515Y-2321833D01*
X-1142229Y-2321833D01*
X-1066039Y-2359928D01*
X-1027943Y-2398023D01*
X-989848Y-2474214D01*
X-989848Y-2778976D01*
X-1408896Y-2055166D02*
X-1408896Y-1559928D01*
X-1104134Y-1826595D01*
X-1104134Y-1712309D01*
X-1066039Y-1636119D01*
X-1027943Y-1598023D01*
X-951753Y-1559928D01*
X-761277Y-1559928D01*
X-685086Y-1598023D01*
X-646991Y-1636119D01*
X-608896Y-1712309D01*
X-608896Y-1940880D01*
X-646991Y-2017071D01*
X-685086Y-2055166D01*
G04 #@! TO.C,R7*
X-3554134Y-2700404D02*
X-3820800Y-2319452D01*
X-4011277Y-2700404D02*
X-4011277Y-1900404D01*
X-3706515Y-1900404D01*
X-3630324Y-1938500D01*
X-3592229Y-1976595D01*
X-3554134Y-2052785D01*
X-3554134Y-2167071D01*
X-3592229Y-2243261D01*
X-3630324Y-2281357D01*
X-3706515Y-2319452D01*
X-4011277Y-2319452D01*
X-3287467Y-1900404D02*
X-2754134Y-1900404D01*
X-3096991Y-2700404D01*
G04 #@! TD*
M02*
