G04 #@! TF.GenerationSoftware,KiCad,Pcbnew,(5.0.1)-4*
G04 #@! TF.CreationDate,2019-02-20T12:29:10+01:00*
G04 #@! TF.ProjectId,nk-fido2,6E6B2D6669646F322E6B696361645F70,R1*
G04 #@! TF.SameCoordinates,PX791ddc0PY5e69114*
G04 #@! TF.FileFunction,Soldermask,Top*
G04 #@! TF.FilePolarity,Negative*
%FSLAX46Y46*%
G04 Gerber Fmt 4.6, Leading zero omitted, Abs format (unit mm)*
G04 Created by KiCad (PCBNEW (5.0.1)-4) date 20.02.2019 12:29:10*
%MOMM*%
%LPD*%
G01*
G04 APERTURE LIST*
%ADD10C,0.150000*%
%ADD11C,0.001000*%
G04 APERTURE END LIST*
D10*
G04 #@! TO.C,L1*
G36*
X2449200Y-3238500D02*
X2879200Y-3668500D01*
X3309200Y-3238500D01*
X2879200Y-2808500D01*
X2449200Y-3238500D01*
G37*
G36*
X2349200Y-3938500D02*
X2749200Y-3938500D01*
X2749200Y-3638500D01*
X2399200Y-3288500D01*
X2349200Y-3288500D01*
X2349200Y-3938500D01*
G37*
G36*
X3009200Y-2538500D02*
X3409200Y-2538500D01*
X3409200Y-3063500D01*
X3234200Y-3063500D01*
X3009200Y-2838500D01*
X3009200Y-2538500D01*
G37*
G36*
X3409200Y-3938500D02*
X3009200Y-3938500D01*
X3009200Y-3638500D01*
X3234200Y-3413500D01*
X3409200Y-3413500D01*
X3409200Y-3938500D01*
G37*
G36*
X2349200Y-2538500D02*
X2749200Y-2538500D01*
X2749200Y-2838500D01*
X2524200Y-3063500D01*
X2349200Y-3063500D01*
X2349200Y-2538500D01*
G37*
D11*
X2407100Y-3328500D02*
X2357100Y-3328500D01*
D10*
G36*
X8170845Y-6872715D02*
X8261839Y-6910406D01*
X8343731Y-6965125D01*
X8413375Y-7034769D01*
X8468094Y-7116661D01*
X8505785Y-7207655D01*
X8525000Y-7304254D01*
X8525000Y-7402746D01*
X8505785Y-7499345D01*
X8468094Y-7590339D01*
X8413375Y-7672231D01*
X8343731Y-7741875D01*
X8261839Y-7796594D01*
X8170845Y-7834285D01*
X8074246Y-7853500D01*
X7975754Y-7853500D01*
X7879155Y-7834285D01*
X7788161Y-7796594D01*
X7706269Y-7741875D01*
X7636625Y-7672231D01*
X7581906Y-7590339D01*
X7544215Y-7499345D01*
X7525000Y-7402746D01*
X7525000Y-7304254D01*
X7544215Y-7207655D01*
X7581906Y-7116661D01*
X7636625Y-7034769D01*
X7706269Y-6965125D01*
X7788161Y-6910406D01*
X7879155Y-6872715D01*
X7975754Y-6853500D01*
X8074246Y-6853500D01*
X8170845Y-6872715D01*
X8170845Y-6872715D01*
G37*
G36*
X-5529609Y-7046694D02*
X-5499615Y-7055792D01*
X-5471979Y-7070564D01*
X-5447749Y-7090449D01*
X-5427864Y-7114679D01*
X-5413092Y-7142315D01*
X-5403994Y-7172309D01*
X-5400800Y-7204733D01*
X-5400800Y-7572267D01*
X-5403994Y-7604691D01*
X-5413092Y-7634685D01*
X-5427864Y-7662321D01*
X-5447749Y-7686551D01*
X-5471979Y-7706436D01*
X-5499615Y-7721208D01*
X-5529609Y-7730306D01*
X-5562033Y-7733500D01*
X-5979567Y-7733500D01*
X-6011991Y-7730306D01*
X-6041985Y-7721208D01*
X-6069621Y-7706436D01*
X-6093851Y-7686551D01*
X-6113736Y-7662321D01*
X-6128508Y-7634685D01*
X-6137606Y-7604691D01*
X-6140800Y-7572267D01*
X-6140800Y-7204733D01*
X-6137606Y-7172309D01*
X-6128508Y-7142315D01*
X-6113736Y-7114679D01*
X-6093851Y-7090449D01*
X-6069621Y-7070564D01*
X-6041985Y-7055792D01*
X-6011991Y-7046694D01*
X-5979567Y-7043500D01*
X-5562033Y-7043500D01*
X-5529609Y-7046694D01*
X-5529609Y-7046694D01*
G37*
G36*
X-3370800Y-7453500D02*
X-3770800Y-7453500D01*
X-3770800Y-6803500D01*
X-3370800Y-6803500D01*
X-3370800Y-7453500D01*
X-3370800Y-7453500D01*
G37*
G36*
X-3870800Y-7453500D02*
X-4270800Y-7453500D01*
X-4270800Y-6803500D01*
X-3870800Y-6803500D01*
X-3870800Y-7453500D01*
X-3870800Y-7453500D01*
G37*
G36*
X-2370800Y-7453500D02*
X-2770800Y-7453500D01*
X-2770800Y-6803500D01*
X-2370800Y-6803500D01*
X-2370800Y-7453500D01*
X-2370800Y-7453500D01*
G37*
G36*
X-2870800Y-7453500D02*
X-3270800Y-7453500D01*
X-3270800Y-6803500D01*
X-2870800Y-6803500D01*
X-2870800Y-7453500D01*
X-2870800Y-7453500D01*
G37*
G36*
X-1229609Y-6596694D02*
X-1199615Y-6605792D01*
X-1171979Y-6620564D01*
X-1147749Y-6640449D01*
X-1127864Y-6664679D01*
X-1113092Y-6692315D01*
X-1103994Y-6722309D01*
X-1100800Y-6754733D01*
X-1100800Y-7122267D01*
X-1103994Y-7154691D01*
X-1113092Y-7184685D01*
X-1127864Y-7212321D01*
X-1147749Y-7236551D01*
X-1171979Y-7256436D01*
X-1199615Y-7271208D01*
X-1229609Y-7280306D01*
X-1262033Y-7283500D01*
X-1679567Y-7283500D01*
X-1711991Y-7280306D01*
X-1741985Y-7271208D01*
X-1769621Y-7256436D01*
X-1793851Y-7236551D01*
X-1813736Y-7212321D01*
X-1828508Y-7184685D01*
X-1837606Y-7154691D01*
X-1840800Y-7122267D01*
X-1840800Y-6754733D01*
X-1837606Y-6722309D01*
X-1828508Y-6692315D01*
X-1813736Y-6664679D01*
X-1793851Y-6640449D01*
X-1769621Y-6620564D01*
X-1741985Y-6605792D01*
X-1711991Y-6596694D01*
X-1679567Y-6593500D01*
X-1262033Y-6593500D01*
X-1229609Y-6596694D01*
X-1229609Y-6596694D01*
G37*
G36*
X2709200Y-7278500D02*
X1549200Y-7278500D01*
X1549200Y-6528500D01*
X2709200Y-6528500D01*
X2709200Y-7278500D01*
X2709200Y-7278500D01*
G37*
G36*
X509200Y-7278500D02*
X-650800Y-7278500D01*
X-650800Y-6528500D01*
X509200Y-6528500D01*
X509200Y-7278500D01*
X509200Y-7278500D01*
G37*
G36*
X-7175000Y-6893500D02*
X-10375000Y-6893500D01*
X-10375000Y-4593500D01*
X-7175000Y-4593500D01*
X-7175000Y-6893500D01*
X-7175000Y-6893500D01*
G37*
G36*
X-5529609Y-6076694D02*
X-5499615Y-6085792D01*
X-5471979Y-6100564D01*
X-5447749Y-6120449D01*
X-5427864Y-6144679D01*
X-5413092Y-6172315D01*
X-5403994Y-6202309D01*
X-5400800Y-6234733D01*
X-5400800Y-6602267D01*
X-5403994Y-6634691D01*
X-5413092Y-6664685D01*
X-5427864Y-6692321D01*
X-5447749Y-6716551D01*
X-5471979Y-6736436D01*
X-5499615Y-6751208D01*
X-5529609Y-6760306D01*
X-5562033Y-6763500D01*
X-5979567Y-6763500D01*
X-6011991Y-6760306D01*
X-6041985Y-6751208D01*
X-6069621Y-6736436D01*
X-6093851Y-6716551D01*
X-6113736Y-6692321D01*
X-6128508Y-6664685D01*
X-6137606Y-6634691D01*
X-6140800Y-6602267D01*
X-6140800Y-6234733D01*
X-6137606Y-6202309D01*
X-6128508Y-6172315D01*
X-6113736Y-6144679D01*
X-6093851Y-6120449D01*
X-6069621Y-6100564D01*
X-6041985Y-6085792D01*
X-6011991Y-6076694D01*
X-5979567Y-6073500D01*
X-5562033Y-6073500D01*
X-5529609Y-6076694D01*
X-5529609Y-6076694D01*
G37*
G36*
X4820391Y-5981694D02*
X4850385Y-5990792D01*
X4878021Y-6005564D01*
X4902251Y-6025449D01*
X4922136Y-6049679D01*
X4936908Y-6077315D01*
X4946006Y-6107309D01*
X4949200Y-6139733D01*
X4949200Y-6507267D01*
X4946006Y-6539691D01*
X4936908Y-6569685D01*
X4922136Y-6597321D01*
X4902251Y-6621551D01*
X4878021Y-6641436D01*
X4850385Y-6656208D01*
X4820391Y-6665306D01*
X4787967Y-6668500D01*
X4370433Y-6668500D01*
X4338009Y-6665306D01*
X4308015Y-6656208D01*
X4280379Y-6641436D01*
X4256149Y-6621551D01*
X4236264Y-6597321D01*
X4221492Y-6569685D01*
X4212394Y-6539691D01*
X4209200Y-6507267D01*
X4209200Y-6139733D01*
X4212394Y-6107309D01*
X4221492Y-6077315D01*
X4236264Y-6049679D01*
X4256149Y-6025449D01*
X4280379Y-6005564D01*
X4308015Y-5990792D01*
X4338009Y-5981694D01*
X4370433Y-5978500D01*
X4787967Y-5978500D01*
X4820391Y-5981694D01*
X4820391Y-5981694D01*
G37*
G36*
X8156029Y-4926764D02*
X8306937Y-4972542D01*
X8446015Y-5046880D01*
X8567917Y-5146923D01*
X8667960Y-5268825D01*
X8742298Y-5407903D01*
X8788076Y-5558811D01*
X8803533Y-5715750D01*
X8788076Y-5872689D01*
X8742298Y-6023597D01*
X8667960Y-6162675D01*
X8567917Y-6284577D01*
X8446015Y-6384620D01*
X8306937Y-6458958D01*
X8156029Y-6504736D01*
X8038414Y-6516320D01*
X5960786Y-6516320D01*
X5843171Y-6504736D01*
X5692263Y-6458958D01*
X5553185Y-6384620D01*
X5431283Y-6284577D01*
X5331240Y-6162675D01*
X5256902Y-6023597D01*
X5211124Y-5872689D01*
X5195667Y-5715750D01*
X5211124Y-5558811D01*
X5256902Y-5407903D01*
X5331240Y-5268825D01*
X5431283Y-5146923D01*
X5553185Y-5046880D01*
X5692263Y-4972542D01*
X5843171Y-4926764D01*
X5960786Y-4915180D01*
X8038414Y-4915180D01*
X8156029Y-4926764D01*
X8156029Y-4926764D01*
G37*
G36*
X-2520800Y-6503500D02*
X-4120800Y-6503500D01*
X-4120800Y-5103500D01*
X-2520800Y-5103500D01*
X-2520800Y-6503500D01*
X-2520800Y-6503500D01*
G37*
G36*
X3770391Y-5681694D02*
X3800385Y-5690792D01*
X3828021Y-5705564D01*
X3852251Y-5725449D01*
X3872136Y-5749679D01*
X3886908Y-5777315D01*
X3896006Y-5807309D01*
X3899200Y-5839733D01*
X3899200Y-6207267D01*
X3896006Y-6239691D01*
X3886908Y-6269685D01*
X3872136Y-6297321D01*
X3852251Y-6321551D01*
X3828021Y-6341436D01*
X3800385Y-6356208D01*
X3770391Y-6365306D01*
X3737967Y-6368500D01*
X3320433Y-6368500D01*
X3288009Y-6365306D01*
X3258015Y-6356208D01*
X3230379Y-6341436D01*
X3206149Y-6321551D01*
X3186264Y-6297321D01*
X3171492Y-6269685D01*
X3162394Y-6239691D01*
X3159200Y-6207267D01*
X3159200Y-5839733D01*
X3162394Y-5807309D01*
X3171492Y-5777315D01*
X3186264Y-5749679D01*
X3206149Y-5725449D01*
X3230379Y-5705564D01*
X3258015Y-5690792D01*
X3288009Y-5681694D01*
X3320433Y-5678500D01*
X3737967Y-5678500D01*
X3770391Y-5681694D01*
X3770391Y-5681694D01*
G37*
G36*
X2709200Y-6328500D02*
X1549200Y-6328500D01*
X1549200Y-5578500D01*
X2709200Y-5578500D01*
X2709200Y-6328500D01*
X2709200Y-6328500D01*
G37*
G36*
X509200Y-6328500D02*
X-650800Y-6328500D01*
X-650800Y-5578500D01*
X509200Y-5578500D01*
X509200Y-6328500D01*
X509200Y-6328500D01*
G37*
G36*
X-1229609Y-5626694D02*
X-1199615Y-5635792D01*
X-1171979Y-5650564D01*
X-1147749Y-5670449D01*
X-1127864Y-5694679D01*
X-1113092Y-5722315D01*
X-1103994Y-5752309D01*
X-1100800Y-5784733D01*
X-1100800Y-6152267D01*
X-1103994Y-6184691D01*
X-1113092Y-6214685D01*
X-1127864Y-6242321D01*
X-1147749Y-6266551D01*
X-1171979Y-6286436D01*
X-1199615Y-6301208D01*
X-1229609Y-6310306D01*
X-1262033Y-6313500D01*
X-1679567Y-6313500D01*
X-1711991Y-6310306D01*
X-1741985Y-6301208D01*
X-1769621Y-6286436D01*
X-1793851Y-6266551D01*
X-1813736Y-6242321D01*
X-1828508Y-6214685D01*
X-1837606Y-6184691D01*
X-1840800Y-6152267D01*
X-1840800Y-5784733D01*
X-1837606Y-5752309D01*
X-1828508Y-5722315D01*
X-1813736Y-5694679D01*
X-1793851Y-5670449D01*
X-1769621Y-5650564D01*
X-1741985Y-5635792D01*
X-1711991Y-5626694D01*
X-1679567Y-5623500D01*
X-1262033Y-5623500D01*
X-1229609Y-5626694D01*
X-1229609Y-5626694D01*
G37*
G36*
X4820391Y-5011694D02*
X4850385Y-5020792D01*
X4878021Y-5035564D01*
X4902251Y-5055449D01*
X4922136Y-5079679D01*
X4936908Y-5107315D01*
X4946006Y-5137309D01*
X4949200Y-5169733D01*
X4949200Y-5537267D01*
X4946006Y-5569691D01*
X4936908Y-5599685D01*
X4922136Y-5627321D01*
X4902251Y-5651551D01*
X4878021Y-5671436D01*
X4850385Y-5686208D01*
X4820391Y-5695306D01*
X4787967Y-5698500D01*
X4370433Y-5698500D01*
X4338009Y-5695306D01*
X4308015Y-5686208D01*
X4280379Y-5671436D01*
X4256149Y-5651551D01*
X4236264Y-5627321D01*
X4221492Y-5599685D01*
X4212394Y-5569691D01*
X4209200Y-5537267D01*
X4209200Y-5169733D01*
X4212394Y-5137309D01*
X4221492Y-5107315D01*
X4236264Y-5079679D01*
X4256149Y-5055449D01*
X4280379Y-5035564D01*
X4308015Y-5020792D01*
X4338009Y-5011694D01*
X4370433Y-5008500D01*
X4787967Y-5008500D01*
X4820391Y-5011694D01*
X4820391Y-5011694D01*
G37*
G36*
X3770391Y-4711694D02*
X3800385Y-4720792D01*
X3828021Y-4735564D01*
X3852251Y-4755449D01*
X3872136Y-4779679D01*
X3886908Y-4807315D01*
X3896006Y-4837309D01*
X3899200Y-4869733D01*
X3899200Y-5237267D01*
X3896006Y-5269691D01*
X3886908Y-5299685D01*
X3872136Y-5327321D01*
X3852251Y-5351551D01*
X3828021Y-5371436D01*
X3800385Y-5386208D01*
X3770391Y-5395306D01*
X3737967Y-5398500D01*
X3320433Y-5398500D01*
X3288009Y-5395306D01*
X3258015Y-5386208D01*
X3230379Y-5371436D01*
X3206149Y-5351551D01*
X3186264Y-5327321D01*
X3171492Y-5299685D01*
X3162394Y-5269691D01*
X3159200Y-5237267D01*
X3159200Y-4869733D01*
X3162394Y-4837309D01*
X3171492Y-4807315D01*
X3186264Y-4779679D01*
X3206149Y-4755449D01*
X3230379Y-4735564D01*
X3258015Y-4720792D01*
X3288009Y-4711694D01*
X3320433Y-4708500D01*
X3737967Y-4708500D01*
X3770391Y-4711694D01*
X3770391Y-4711694D01*
G37*
G36*
X509200Y-5378500D02*
X-650800Y-5378500D01*
X-650800Y-4628500D01*
X509200Y-4628500D01*
X509200Y-5378500D01*
X509200Y-5378500D01*
G37*
G36*
X2709200Y-5378500D02*
X1549200Y-5378500D01*
X1549200Y-4628500D01*
X2709200Y-4628500D01*
X2709200Y-5378500D01*
X2709200Y-5378500D01*
G37*
G36*
X-1229609Y-4646694D02*
X-1199615Y-4655792D01*
X-1171979Y-4670564D01*
X-1147749Y-4690449D01*
X-1127864Y-4714679D01*
X-1113092Y-4742315D01*
X-1103994Y-4772309D01*
X-1100800Y-4804733D01*
X-1100800Y-5172267D01*
X-1103994Y-5204691D01*
X-1113092Y-5234685D01*
X-1127864Y-5262321D01*
X-1147749Y-5286551D01*
X-1171979Y-5306436D01*
X-1199615Y-5321208D01*
X-1229609Y-5330306D01*
X-1262033Y-5333500D01*
X-1679567Y-5333500D01*
X-1711991Y-5330306D01*
X-1741985Y-5321208D01*
X-1769621Y-5306436D01*
X-1793851Y-5286551D01*
X-1813736Y-5262321D01*
X-1828508Y-5234685D01*
X-1837606Y-5204691D01*
X-1840800Y-5172267D01*
X-1840800Y-4804733D01*
X-1837606Y-4772309D01*
X-1828508Y-4742315D01*
X-1813736Y-4714679D01*
X-1793851Y-4690449D01*
X-1769621Y-4670564D01*
X-1741985Y-4655792D01*
X-1711991Y-4646694D01*
X-1679567Y-4643500D01*
X-1262033Y-4643500D01*
X-1229609Y-4646694D01*
X-1229609Y-4646694D01*
G37*
G36*
X-2370800Y-4803500D02*
X-2770800Y-4803500D01*
X-2770800Y-4153500D01*
X-2370800Y-4153500D01*
X-2370800Y-4803500D01*
X-2370800Y-4803500D01*
G37*
G36*
X-2870800Y-4803500D02*
X-3270800Y-4803500D01*
X-3270800Y-4153500D01*
X-2870800Y-4153500D01*
X-2870800Y-4803500D01*
X-2870800Y-4803500D01*
G37*
G36*
X-3370800Y-4803500D02*
X-3770800Y-4803500D01*
X-3770800Y-4153500D01*
X-3370800Y-4153500D01*
X-3370800Y-4803500D01*
X-3370800Y-4803500D01*
G37*
G36*
X-3870800Y-4803500D02*
X-4270800Y-4803500D01*
X-4270800Y-4153500D01*
X-3870800Y-4153500D01*
X-3870800Y-4803500D01*
X-3870800Y-4803500D01*
G37*
G36*
X7174587Y-1689574D02*
X7283764Y-1734796D01*
X7382021Y-1800449D01*
X7465581Y-1884009D01*
X7531234Y-1982266D01*
X7576456Y-2091443D01*
X7599510Y-2207344D01*
X7599510Y-2325516D01*
X7576456Y-2441417D01*
X7531234Y-2550594D01*
X7465581Y-2648851D01*
X7382021Y-2732411D01*
X7283764Y-2798064D01*
X7198047Y-2833569D01*
X7193730Y-2835876D01*
X7189941Y-2838985D01*
X7186832Y-2842774D01*
X7184522Y-2847096D01*
X7183099Y-2851786D01*
X7182619Y-2856663D01*
X7183099Y-2861540D01*
X7184522Y-2866230D01*
X7186832Y-2870552D01*
X7189941Y-2874341D01*
X7193730Y-2877450D01*
X7198052Y-2879760D01*
X7202742Y-2881183D01*
X7247106Y-2890008D01*
X7419994Y-2961620D01*
X7575589Y-3065586D01*
X7707914Y-3197911D01*
X7811880Y-3353506D01*
X7883492Y-3526394D01*
X7883492Y-3526395D01*
X7919611Y-3707976D01*
X7920000Y-3709935D01*
X7920000Y-3897065D01*
X7883492Y-4080606D01*
X7811880Y-4253494D01*
X7707914Y-4409089D01*
X7575589Y-4541414D01*
X7419994Y-4645380D01*
X7247106Y-4716992D01*
X7185926Y-4729161D01*
X7063567Y-4753500D01*
X6876433Y-4753500D01*
X6754074Y-4729161D01*
X6692894Y-4716992D01*
X6520006Y-4645380D01*
X6364411Y-4541414D01*
X6232086Y-4409089D01*
X6128120Y-4253494D01*
X6056508Y-4080606D01*
X6020000Y-3897065D01*
X6020000Y-3709935D01*
X6020390Y-3707976D01*
X6056508Y-3526395D01*
X6056508Y-3526394D01*
X6128120Y-3353506D01*
X6232086Y-3197911D01*
X6364411Y-3065586D01*
X6520006Y-2961620D01*
X6692894Y-2890008D01*
X6777252Y-2873228D01*
X6781942Y-2871805D01*
X6786264Y-2869495D01*
X6790053Y-2866386D01*
X6793162Y-2862597D01*
X6795472Y-2858275D01*
X6796895Y-2853585D01*
X6797375Y-2848708D01*
X6796895Y-2843831D01*
X6795472Y-2839141D01*
X6793162Y-2834819D01*
X6790053Y-2831030D01*
X6786264Y-2827921D01*
X6781945Y-2825612D01*
X6715436Y-2798064D01*
X6617179Y-2732411D01*
X6533619Y-2648851D01*
X6467966Y-2550594D01*
X6422744Y-2441417D01*
X6399690Y-2325516D01*
X6399690Y-2207344D01*
X6422744Y-2091443D01*
X6467966Y-1982266D01*
X6533619Y-1884009D01*
X6617179Y-1800449D01*
X6715436Y-1734796D01*
X6824613Y-1689574D01*
X6940514Y-1666520D01*
X7058686Y-1666520D01*
X7174587Y-1689574D01*
X7174587Y-1689574D01*
G37*
G36*
X4420391Y-3696694D02*
X4450385Y-3705792D01*
X4478021Y-3720564D01*
X4502251Y-3740449D01*
X4522136Y-3764679D01*
X4536908Y-3792315D01*
X4546006Y-3822309D01*
X4549200Y-3854733D01*
X4549200Y-4222267D01*
X4546006Y-4254691D01*
X4536908Y-4284685D01*
X4522136Y-4312321D01*
X4502251Y-4336551D01*
X4478021Y-4356436D01*
X4450385Y-4371208D01*
X4420391Y-4380306D01*
X4387967Y-4383500D01*
X3970433Y-4383500D01*
X3938009Y-4380306D01*
X3908015Y-4371208D01*
X3880379Y-4356436D01*
X3856149Y-4336551D01*
X3836264Y-4312321D01*
X3821492Y-4284685D01*
X3812394Y-4254691D01*
X3809200Y-4222267D01*
X3809200Y-3854733D01*
X3812394Y-3822309D01*
X3821492Y-3792315D01*
X3836264Y-3764679D01*
X3856149Y-3740449D01*
X3880379Y-3720564D01*
X3908015Y-3705792D01*
X3938009Y-3696694D01*
X3970433Y-3693500D01*
X4387967Y-3693500D01*
X4420391Y-3696694D01*
X4420391Y-3696694D01*
G37*
G36*
X5470391Y-3696694D02*
X5500385Y-3705792D01*
X5528021Y-3720564D01*
X5552251Y-3740449D01*
X5572136Y-3764679D01*
X5586908Y-3792315D01*
X5596006Y-3822309D01*
X5599200Y-3854733D01*
X5599200Y-4222267D01*
X5596006Y-4254691D01*
X5586908Y-4284685D01*
X5572136Y-4312321D01*
X5552251Y-4336551D01*
X5528021Y-4356436D01*
X5500385Y-4371208D01*
X5470391Y-4380306D01*
X5437967Y-4383500D01*
X5020433Y-4383500D01*
X4988009Y-4380306D01*
X4958015Y-4371208D01*
X4930379Y-4356436D01*
X4906149Y-4336551D01*
X4886264Y-4312321D01*
X4871492Y-4284685D01*
X4862394Y-4254691D01*
X4859200Y-4222267D01*
X4859200Y-3854733D01*
X4862394Y-3822309D01*
X4871492Y-3792315D01*
X4886264Y-3764679D01*
X4906149Y-3740449D01*
X4930379Y-3720564D01*
X4958015Y-3705792D01*
X4988009Y-3696694D01*
X5020433Y-3693500D01*
X5437967Y-3693500D01*
X5470391Y-3696694D01*
X5470391Y-3696694D01*
G37*
G36*
X-1229609Y-3676694D02*
X-1199615Y-3685792D01*
X-1171979Y-3700564D01*
X-1147749Y-3720449D01*
X-1127864Y-3744679D01*
X-1113092Y-3772315D01*
X-1103994Y-3802309D01*
X-1100800Y-3834733D01*
X-1100800Y-4202267D01*
X-1103994Y-4234691D01*
X-1113092Y-4264685D01*
X-1127864Y-4292321D01*
X-1147749Y-4316551D01*
X-1171979Y-4336436D01*
X-1199615Y-4351208D01*
X-1229609Y-4360306D01*
X-1262033Y-4363500D01*
X-1679567Y-4363500D01*
X-1711991Y-4360306D01*
X-1741985Y-4351208D01*
X-1769621Y-4336436D01*
X-1793851Y-4316551D01*
X-1813736Y-4292321D01*
X-1828508Y-4264685D01*
X-1837606Y-4234691D01*
X-1840800Y-4202267D01*
X-1840800Y-3834733D01*
X-1837606Y-3802309D01*
X-1828508Y-3772315D01*
X-1813736Y-3744679D01*
X-1793851Y-3720449D01*
X-1769621Y-3700564D01*
X-1741985Y-3685792D01*
X-1711991Y-3676694D01*
X-1679567Y-3673500D01*
X-1262033Y-3673500D01*
X-1229609Y-3676694D01*
X-1229609Y-3676694D01*
G37*
G36*
X-7175000Y-4193500D02*
X-10375000Y-4193500D01*
X-10375000Y-1893500D01*
X-7175000Y-1893500D01*
X-7175000Y-4193500D01*
X-7175000Y-4193500D01*
G37*
G36*
X3339200Y-3808500D02*
X3139200Y-3808500D01*
X3139200Y-3608500D01*
X3339200Y-3608500D01*
X3339200Y-3808500D01*
X3339200Y-3808500D01*
G37*
G36*
X2619200Y-3808500D02*
X2419200Y-3808500D01*
X2419200Y-3608500D01*
X2619200Y-3608500D01*
X2619200Y-3808500D01*
X2619200Y-3808500D01*
G37*
G36*
X-3689609Y-3021694D02*
X-3659615Y-3030792D01*
X-3631979Y-3045564D01*
X-3607749Y-3065449D01*
X-3587864Y-3089679D01*
X-3573092Y-3117315D01*
X-3563994Y-3147309D01*
X-3560800Y-3179733D01*
X-3560800Y-3597267D01*
X-3563994Y-3629691D01*
X-3573092Y-3659685D01*
X-3587864Y-3687321D01*
X-3607749Y-3711551D01*
X-3631979Y-3731436D01*
X-3659615Y-3746208D01*
X-3689609Y-3755306D01*
X-3722033Y-3758500D01*
X-4089567Y-3758500D01*
X-4121991Y-3755306D01*
X-4151985Y-3746208D01*
X-4179621Y-3731436D01*
X-4203851Y-3711551D01*
X-4223736Y-3687321D01*
X-4238508Y-3659685D01*
X-4247606Y-3629691D01*
X-4250800Y-3597267D01*
X-4250800Y-3179733D01*
X-4247606Y-3147309D01*
X-4238508Y-3117315D01*
X-4223736Y-3089679D01*
X-4203851Y-3065449D01*
X-4179621Y-3045564D01*
X-4151985Y-3030792D01*
X-4121991Y-3021694D01*
X-4089567Y-3018500D01*
X-3722033Y-3018500D01*
X-3689609Y-3021694D01*
X-3689609Y-3021694D01*
G37*
G36*
X-2719609Y-3021694D02*
X-2689615Y-3030792D01*
X-2661979Y-3045564D01*
X-2637749Y-3065449D01*
X-2617864Y-3089679D01*
X-2603092Y-3117315D01*
X-2593994Y-3147309D01*
X-2590800Y-3179733D01*
X-2590800Y-3597267D01*
X-2593994Y-3629691D01*
X-2603092Y-3659685D01*
X-2617864Y-3687321D01*
X-2637749Y-3711551D01*
X-2661979Y-3731436D01*
X-2689615Y-3746208D01*
X-2719609Y-3755306D01*
X-2752033Y-3758500D01*
X-3119567Y-3758500D01*
X-3151991Y-3755306D01*
X-3181985Y-3746208D01*
X-3209621Y-3731436D01*
X-3233851Y-3711551D01*
X-3253736Y-3687321D01*
X-3268508Y-3659685D01*
X-3277606Y-3629691D01*
X-3280800Y-3597267D01*
X-3280800Y-3179733D01*
X-3277606Y-3147309D01*
X-3268508Y-3117315D01*
X-3253736Y-3089679D01*
X-3233851Y-3065449D01*
X-3209621Y-3045564D01*
X-3181985Y-3030792D01*
X-3151991Y-3021694D01*
X-3119567Y-3018500D01*
X-2752033Y-3018500D01*
X-2719609Y-3021694D01*
X-2719609Y-3021694D01*
G37*
G36*
X3360033Y-3238500D02*
X2879200Y-3719333D01*
X2398367Y-3238500D01*
X2879200Y-2757667D01*
X3360033Y-3238500D01*
X3360033Y-3238500D01*
G37*
G36*
X4420391Y-2726694D02*
X4450385Y-2735792D01*
X4478021Y-2750564D01*
X4502251Y-2770449D01*
X4522136Y-2794679D01*
X4536908Y-2822315D01*
X4546006Y-2852309D01*
X4549200Y-2884733D01*
X4549200Y-3252267D01*
X4546006Y-3284691D01*
X4536908Y-3314685D01*
X4522136Y-3342321D01*
X4502251Y-3366551D01*
X4478021Y-3386436D01*
X4450385Y-3401208D01*
X4420391Y-3410306D01*
X4387967Y-3413500D01*
X3970433Y-3413500D01*
X3938009Y-3410306D01*
X3908015Y-3401208D01*
X3880379Y-3386436D01*
X3856149Y-3366551D01*
X3836264Y-3342321D01*
X3821492Y-3314685D01*
X3812394Y-3284691D01*
X3809200Y-3252267D01*
X3809200Y-2884733D01*
X3812394Y-2852309D01*
X3821492Y-2822315D01*
X3836264Y-2794679D01*
X3856149Y-2770449D01*
X3880379Y-2750564D01*
X3908015Y-2735792D01*
X3938009Y-2726694D01*
X3970433Y-2723500D01*
X4387967Y-2723500D01*
X4420391Y-2726694D01*
X4420391Y-2726694D01*
G37*
G36*
X5470391Y-2726694D02*
X5500385Y-2735792D01*
X5528021Y-2750564D01*
X5552251Y-2770449D01*
X5572136Y-2794679D01*
X5586908Y-2822315D01*
X5596006Y-2852309D01*
X5599200Y-2884733D01*
X5599200Y-3252267D01*
X5596006Y-3284691D01*
X5586908Y-3314685D01*
X5572136Y-3342321D01*
X5552251Y-3366551D01*
X5528021Y-3386436D01*
X5500385Y-3401208D01*
X5470391Y-3410306D01*
X5437967Y-3413500D01*
X5020433Y-3413500D01*
X4988009Y-3410306D01*
X4958015Y-3401208D01*
X4930379Y-3386436D01*
X4906149Y-3366551D01*
X4886264Y-3342321D01*
X4871492Y-3314685D01*
X4862394Y-3284691D01*
X4859200Y-3252267D01*
X4859200Y-2884733D01*
X4862394Y-2852309D01*
X4871492Y-2822315D01*
X4886264Y-2794679D01*
X4906149Y-2770449D01*
X4930379Y-2750564D01*
X4958015Y-2735792D01*
X4988009Y-2726694D01*
X5020433Y-2723500D01*
X5437967Y-2723500D01*
X5470391Y-2726694D01*
X5470391Y-2726694D01*
G37*
G36*
X70391Y-2231694D02*
X100385Y-2240792D01*
X128021Y-2255564D01*
X152251Y-2275449D01*
X172136Y-2299679D01*
X186908Y-2327315D01*
X196006Y-2357309D01*
X199200Y-2389733D01*
X199200Y-2757267D01*
X196006Y-2789691D01*
X186908Y-2819685D01*
X172136Y-2847321D01*
X152251Y-2871551D01*
X128021Y-2891436D01*
X100385Y-2906208D01*
X70391Y-2915306D01*
X37967Y-2918500D01*
X-379567Y-2918500D01*
X-411991Y-2915306D01*
X-441985Y-2906208D01*
X-469621Y-2891436D01*
X-493851Y-2871551D01*
X-513736Y-2847321D01*
X-528508Y-2819685D01*
X-537606Y-2789691D01*
X-540800Y-2757267D01*
X-540800Y-2389733D01*
X-537606Y-2357309D01*
X-528508Y-2327315D01*
X-513736Y-2299679D01*
X-493851Y-2275449D01*
X-469621Y-2255564D01*
X-441985Y-2240792D01*
X-411991Y-2231694D01*
X-379567Y-2228500D01*
X37967Y-2228500D01*
X70391Y-2231694D01*
X70391Y-2231694D01*
G37*
G36*
X3329200Y-2888500D02*
X3129200Y-2888500D01*
X3129200Y-2688500D01*
X3329200Y-2688500D01*
X3329200Y-2888500D01*
X3329200Y-2888500D01*
G37*
G36*
X2619200Y-2888500D02*
X2419200Y-2888500D01*
X2419200Y-2688500D01*
X2619200Y-2688500D01*
X2619200Y-2888500D01*
X2619200Y-2888500D01*
G37*
G36*
X5915926Y-287839D02*
X5977106Y-300008D01*
X6149994Y-371620D01*
X6305589Y-475586D01*
X6437914Y-607911D01*
X6541880Y-763506D01*
X6613492Y-936394D01*
X6623929Y-988863D01*
X6650000Y-1119933D01*
X6650000Y-1307067D01*
X6645502Y-1329679D01*
X6613492Y-1490606D01*
X6541880Y-1663494D01*
X6437914Y-1819089D01*
X6305589Y-1951414D01*
X6149994Y-2055380D01*
X5977106Y-2126992D01*
X5915926Y-2139161D01*
X5793567Y-2163500D01*
X5606433Y-2163500D01*
X5484074Y-2139161D01*
X5422894Y-2126992D01*
X5250006Y-2055380D01*
X5094411Y-1951414D01*
X4962086Y-1819089D01*
X4858120Y-1663494D01*
X4786508Y-1490606D01*
X4754498Y-1329679D01*
X4750000Y-1307067D01*
X4750000Y-1119933D01*
X4776071Y-988863D01*
X4786508Y-936394D01*
X4858120Y-763506D01*
X4962086Y-607911D01*
X5094411Y-475586D01*
X5250006Y-371620D01*
X5422894Y-300008D01*
X5484074Y-287839D01*
X5606433Y-263500D01*
X5793567Y-263500D01*
X5915926Y-287839D01*
X5915926Y-287839D01*
G37*
G36*
X8455926Y-287839D02*
X8517106Y-300008D01*
X8689994Y-371620D01*
X8845589Y-475586D01*
X8977914Y-607911D01*
X9081880Y-763506D01*
X9153492Y-936394D01*
X9163929Y-988863D01*
X9190000Y-1119933D01*
X9190000Y-1307067D01*
X9185502Y-1329679D01*
X9153492Y-1490606D01*
X9081880Y-1663494D01*
X8977914Y-1819089D01*
X8845589Y-1951414D01*
X8689994Y-2055380D01*
X8517106Y-2126992D01*
X8455926Y-2139161D01*
X8333567Y-2163500D01*
X8146433Y-2163500D01*
X8024074Y-2139161D01*
X7962894Y-2126992D01*
X7790006Y-2055380D01*
X7634411Y-1951414D01*
X7502086Y-1819089D01*
X7398120Y-1663494D01*
X7326508Y-1490606D01*
X7294498Y-1329679D01*
X7290000Y-1307067D01*
X7290000Y-1119933D01*
X7316071Y-988863D01*
X7326508Y-936394D01*
X7398120Y-763506D01*
X7502086Y-607911D01*
X7634411Y-475586D01*
X7790006Y-371620D01*
X7962894Y-300008D01*
X8024074Y-287839D01*
X8146433Y-263500D01*
X8333567Y-263500D01*
X8455926Y-287839D01*
X8455926Y-287839D01*
G37*
G36*
X2279200Y-2063500D02*
X1879200Y-2063500D01*
X1879200Y-1513500D01*
X2279200Y-1513500D01*
X2279200Y-2063500D01*
X2279200Y-2063500D01*
G37*
G36*
X1779200Y-2063500D02*
X1379200Y-2063500D01*
X1379200Y-1513500D01*
X1779200Y-1513500D01*
X1779200Y-2063500D01*
X1779200Y-2063500D01*
G37*
G36*
X1279200Y-2063500D02*
X879200Y-2063500D01*
X879200Y-1513500D01*
X1279200Y-1513500D01*
X1279200Y-2063500D01*
X1279200Y-2063500D01*
G37*
G36*
X70391Y-1261694D02*
X100385Y-1270792D01*
X128021Y-1285564D01*
X152251Y-1305449D01*
X172136Y-1329679D01*
X186908Y-1357315D01*
X196006Y-1387309D01*
X199200Y-1419733D01*
X199200Y-1787267D01*
X196006Y-1819691D01*
X186908Y-1849685D01*
X172136Y-1877321D01*
X152251Y-1901551D01*
X128021Y-1921436D01*
X100385Y-1936208D01*
X70391Y-1945306D01*
X37967Y-1948500D01*
X-379567Y-1948500D01*
X-411991Y-1945306D01*
X-441985Y-1936208D01*
X-469621Y-1921436D01*
X-493851Y-1901551D01*
X-513736Y-1877321D01*
X-528508Y-1849685D01*
X-537606Y-1819691D01*
X-540800Y-1787267D01*
X-540800Y-1419733D01*
X-537606Y-1387309D01*
X-528508Y-1357315D01*
X-513736Y-1329679D01*
X-493851Y-1305449D01*
X-469621Y-1285564D01*
X-441985Y-1270792D01*
X-411991Y-1261694D01*
X-379567Y-1258500D01*
X37967Y-1258500D01*
X70391Y-1261694D01*
X70391Y-1261694D01*
G37*
G36*
X-1769609Y-786694D02*
X-1739615Y-795792D01*
X-1711979Y-810564D01*
X-1687749Y-830449D01*
X-1667864Y-854679D01*
X-1653092Y-882315D01*
X-1643994Y-912309D01*
X-1640800Y-944733D01*
X-1640800Y-1362267D01*
X-1643994Y-1394691D01*
X-1653092Y-1424685D01*
X-1667864Y-1452321D01*
X-1687749Y-1476551D01*
X-1711979Y-1496436D01*
X-1739615Y-1511208D01*
X-1769609Y-1520306D01*
X-1802033Y-1523500D01*
X-2169567Y-1523500D01*
X-2201991Y-1520306D01*
X-2231985Y-1511208D01*
X-2259621Y-1496436D01*
X-2283851Y-1476551D01*
X-2303736Y-1452321D01*
X-2318508Y-1424685D01*
X-2327606Y-1394691D01*
X-2330800Y-1362267D01*
X-2330800Y-944733D01*
X-2327606Y-912309D01*
X-2318508Y-882315D01*
X-2303736Y-854679D01*
X-2283851Y-830449D01*
X-2259621Y-810564D01*
X-2231985Y-795792D01*
X-2201991Y-786694D01*
X-2169567Y-783500D01*
X-1802033Y-783500D01*
X-1769609Y-786694D01*
X-1769609Y-786694D01*
G37*
G36*
X-2739609Y-786694D02*
X-2709615Y-795792D01*
X-2681979Y-810564D01*
X-2657749Y-830449D01*
X-2637864Y-854679D01*
X-2623092Y-882315D01*
X-2613994Y-912309D01*
X-2610800Y-944733D01*
X-2610800Y-1362267D01*
X-2613994Y-1394691D01*
X-2623092Y-1424685D01*
X-2637864Y-1452321D01*
X-2657749Y-1476551D01*
X-2681979Y-1496436D01*
X-2709615Y-1511208D01*
X-2739609Y-1520306D01*
X-2772033Y-1523500D01*
X-3139567Y-1523500D01*
X-3171991Y-1520306D01*
X-3201985Y-1511208D01*
X-3229621Y-1496436D01*
X-3253851Y-1476551D01*
X-3273736Y-1452321D01*
X-3288508Y-1424685D01*
X-3297606Y-1394691D01*
X-3300800Y-1362267D01*
X-3300800Y-944733D01*
X-3297606Y-912309D01*
X-3288508Y-882315D01*
X-3273736Y-854679D01*
X-3253851Y-830449D01*
X-3229621Y-810564D01*
X-3201985Y-795792D01*
X-3171991Y-786694D01*
X-3139567Y-783500D01*
X-2772033Y-783500D01*
X-2739609Y-786694D01*
X-2739609Y-786694D01*
G37*
G36*
X-7570803Y111742D02*
X-7570800Y111742D01*
X-7560998Y110777D01*
X-7551573Y107918D01*
X-7542887Y103275D01*
X-7540188Y101059D01*
X-7535273Y97027D01*
X-7531241Y92112D01*
X-7529025Y89413D01*
X-7524382Y80727D01*
X-7521523Y71302D01*
X-7520558Y61500D01*
X-7520437Y60268D01*
X-7520437Y-437268D01*
X-7520558Y-438496D01*
X-7520558Y-438500D01*
X-7521523Y-448302D01*
X-7521769Y-449113D01*
X-7522724Y-453915D01*
X-7522845Y-456367D01*
X-7522845Y-486277D01*
X-7522966Y-487505D01*
X-7522966Y-487509D01*
X-7523931Y-497311D01*
X-7523933Y-497320D01*
X-7524053Y-498540D01*
X-7542696Y-592268D01*
X-7543053Y-593444D01*
X-7545912Y-602869D01*
X-7545914Y-602874D01*
X-7546270Y-604047D01*
X-7582840Y-692336D01*
X-7583417Y-693416D01*
X-7583421Y-693425D01*
X-7588064Y-702111D01*
X-7588069Y-702118D01*
X-7588646Y-703198D01*
X-7641738Y-782656D01*
X-7642516Y-783605D01*
X-7642520Y-783610D01*
X-7645051Y-786694D01*
X-7649549Y-792175D01*
X-7717125Y-859751D01*
X-7722565Y-864215D01*
X-7725690Y-866780D01*
X-7725695Y-866784D01*
X-7726644Y-867562D01*
X-7806102Y-920654D01*
X-7807182Y-921231D01*
X-7807189Y-921236D01*
X-7815875Y-925879D01*
X-7815884Y-925883D01*
X-7816964Y-926460D01*
X-7905253Y-963030D01*
X-7906426Y-963386D01*
X-7906431Y-963388D01*
X-7913627Y-965571D01*
X-7917032Y-966604D01*
X-8010760Y-985247D01*
X-8011980Y-985367D01*
X-8011989Y-985369D01*
X-8021791Y-986334D01*
X-8021795Y-986334D01*
X-8023023Y-986455D01*
X-8052933Y-986455D01*
X-8057810Y-986935D01*
X-8060182Y-987530D01*
X-8060998Y-987777D01*
X-8070800Y-988742D01*
X-8070804Y-988742D01*
X-8072032Y-988863D01*
X-8569568Y-988863D01*
X-8570796Y-988742D01*
X-8570800Y-988742D01*
X-8580602Y-987777D01*
X-8581413Y-987531D01*
X-8586215Y-986576D01*
X-8588667Y-986455D01*
X-8618577Y-986455D01*
X-8619805Y-986334D01*
X-8619809Y-986334D01*
X-8629611Y-985369D01*
X-8629620Y-985367D01*
X-8630840Y-985247D01*
X-8724568Y-966604D01*
X-8727973Y-965571D01*
X-8735169Y-963388D01*
X-8735174Y-963386D01*
X-8736347Y-963030D01*
X-8824636Y-926460D01*
X-8825716Y-925883D01*
X-8825725Y-925879D01*
X-8834411Y-921236D01*
X-8834418Y-921231D01*
X-8835498Y-920654D01*
X-8914956Y-867562D01*
X-8915905Y-866784D01*
X-8915910Y-866780D01*
X-8919035Y-864215D01*
X-8924475Y-859751D01*
X-8992051Y-792175D01*
X-8996549Y-786694D01*
X-8999080Y-783610D01*
X-8999084Y-783605D01*
X-8999862Y-782656D01*
X-9052954Y-703198D01*
X-9053531Y-702118D01*
X-9053536Y-702111D01*
X-9058179Y-693425D01*
X-9058183Y-693416D01*
X-9058760Y-692336D01*
X-9095330Y-604047D01*
X-9095686Y-602874D01*
X-9095688Y-602869D01*
X-9098547Y-593444D01*
X-9098904Y-592268D01*
X-9117547Y-498540D01*
X-9117667Y-497320D01*
X-9117669Y-497311D01*
X-9118634Y-487509D01*
X-9118634Y-487505D01*
X-9118755Y-486277D01*
X-9118755Y-456367D01*
X-9119235Y-451490D01*
X-9119830Y-449118D01*
X-9120077Y-448302D01*
X-9121042Y-438500D01*
X-9121042Y-438496D01*
X-9121163Y-437268D01*
X-9121163Y60268D01*
X-9121042Y61500D01*
X-9120077Y71302D01*
X-9117218Y80727D01*
X-9112575Y89413D01*
X-9110359Y92112D01*
X-9106327Y97027D01*
X-9101412Y101059D01*
X-9098713Y103275D01*
X-9090027Y107918D01*
X-9080602Y110777D01*
X-9070800Y111742D01*
X-9070797Y111742D01*
X-9069568Y111863D01*
X-7572032Y111863D01*
X-7570803Y111742D01*
X-7570803Y111742D01*
G37*
G36*
X-4345800Y-888500D02*
X-6795800Y-888500D01*
X-6795800Y-188500D01*
X-4345800Y-188500D01*
X-4345800Y-888500D01*
X-4345800Y-888500D01*
G37*
G36*
X1279200Y-663500D02*
X879200Y-663500D01*
X879200Y-113500D01*
X1279200Y-113500D01*
X1279200Y-663500D01*
X1279200Y-663500D01*
G37*
G36*
X2279200Y-663500D02*
X1879200Y-663500D01*
X1879200Y-113500D01*
X2279200Y-113500D01*
X2279200Y-663500D01*
X2279200Y-663500D01*
G37*
G36*
X-2739609Y363306D02*
X-2709615Y354208D01*
X-2681979Y339436D01*
X-2657749Y319551D01*
X-2637864Y295321D01*
X-2623092Y267685D01*
X-2613994Y237691D01*
X-2610800Y205267D01*
X-2610800Y-212267D01*
X-2613994Y-244691D01*
X-2623092Y-274685D01*
X-2637864Y-302321D01*
X-2657749Y-326551D01*
X-2681979Y-346436D01*
X-2709615Y-361208D01*
X-2739609Y-370306D01*
X-2772033Y-373500D01*
X-3139567Y-373500D01*
X-3171991Y-370306D01*
X-3201985Y-361208D01*
X-3229621Y-346436D01*
X-3253851Y-326551D01*
X-3273736Y-302321D01*
X-3288508Y-274685D01*
X-3297606Y-244691D01*
X-3300800Y-212267D01*
X-3300800Y205267D01*
X-3297606Y237691D01*
X-3288508Y267685D01*
X-3273736Y295321D01*
X-3253851Y319551D01*
X-3229621Y339436D01*
X-3201985Y354208D01*
X-3171991Y363306D01*
X-3139567Y366500D01*
X-2772033Y366500D01*
X-2739609Y363306D01*
X-2739609Y363306D01*
G37*
G36*
X-1769609Y363306D02*
X-1739615Y354208D01*
X-1711979Y339436D01*
X-1687749Y319551D01*
X-1667864Y295321D01*
X-1653092Y267685D01*
X-1643994Y237691D01*
X-1640800Y205267D01*
X-1640800Y-212267D01*
X-1643994Y-244691D01*
X-1653092Y-274685D01*
X-1667864Y-302321D01*
X-1687749Y-326551D01*
X-1711979Y-346436D01*
X-1739615Y-361208D01*
X-1769609Y-370306D01*
X-1802033Y-373500D01*
X-2169567Y-373500D01*
X-2201991Y-370306D01*
X-2231985Y-361208D01*
X-2259621Y-346436D01*
X-2283851Y-326551D01*
X-2303736Y-302321D01*
X-2318508Y-274685D01*
X-2327606Y-244691D01*
X-2330800Y-212267D01*
X-2330800Y205267D01*
X-2327606Y237691D01*
X-2318508Y267685D01*
X-2303736Y295321D01*
X-2283851Y319551D01*
X-2259621Y339436D01*
X-2231985Y354208D01*
X-2201991Y363306D01*
X-2169567Y366500D01*
X-1802033Y366500D01*
X-1769609Y363306D01*
X-1769609Y363306D01*
G37*
G36*
X-4330800Y86500D02*
X-6810800Y86500D01*
X-6810800Y1836500D01*
X-4330800Y1836500D01*
X-4330800Y86500D01*
X-4330800Y86500D01*
G37*
G36*
X-8070804Y1411742D02*
X-8070800Y1411742D01*
X-8060998Y1410777D01*
X-8060187Y1410531D01*
X-8055385Y1409576D01*
X-8052933Y1409455D01*
X-8023023Y1409455D01*
X-8021795Y1409334D01*
X-8021791Y1409334D01*
X-8011989Y1408369D01*
X-8011980Y1408367D01*
X-8010760Y1408247D01*
X-7917032Y1389604D01*
X-7913627Y1388571D01*
X-7906431Y1386388D01*
X-7906426Y1386386D01*
X-7905253Y1386030D01*
X-7816964Y1349460D01*
X-7815884Y1348883D01*
X-7815875Y1348879D01*
X-7807189Y1344236D01*
X-7807182Y1344231D01*
X-7806102Y1343654D01*
X-7726644Y1290562D01*
X-7725695Y1289784D01*
X-7725690Y1289780D01*
X-7722565Y1287215D01*
X-7717125Y1282751D01*
X-7649549Y1215175D01*
X-7645085Y1209735D01*
X-7642520Y1206610D01*
X-7642516Y1206605D01*
X-7641738Y1205656D01*
X-7588646Y1126198D01*
X-7588069Y1125118D01*
X-7588064Y1125111D01*
X-7583421Y1116425D01*
X-7583417Y1116416D01*
X-7582840Y1115336D01*
X-7546270Y1027047D01*
X-7545914Y1025874D01*
X-7545912Y1025869D01*
X-7545805Y1025515D01*
X-7542696Y1015268D01*
X-7524053Y921540D01*
X-7523933Y920320D01*
X-7523931Y920311D01*
X-7522966Y910509D01*
X-7522845Y909277D01*
X-7522845Y879367D01*
X-7522365Y874490D01*
X-7521770Y872118D01*
X-7521523Y871302D01*
X-7520558Y861500D01*
X-7520437Y860268D01*
X-7520437Y362732D01*
X-7520558Y361503D01*
X-7520558Y361500D01*
X-7521523Y351698D01*
X-7524382Y342273D01*
X-7529025Y333587D01*
X-7531241Y330888D01*
X-7535273Y325973D01*
X-7540188Y321941D01*
X-7542887Y319725D01*
X-7551573Y315082D01*
X-7560998Y312223D01*
X-7570800Y311258D01*
X-7570803Y311258D01*
X-7572032Y311137D01*
X-9069568Y311137D01*
X-9070797Y311258D01*
X-9070800Y311258D01*
X-9080602Y312223D01*
X-9090027Y315082D01*
X-9098713Y319725D01*
X-9101412Y321941D01*
X-9106327Y325973D01*
X-9110359Y330888D01*
X-9112575Y333587D01*
X-9117218Y342273D01*
X-9120077Y351698D01*
X-9121042Y361500D01*
X-9121042Y361503D01*
X-9121163Y362732D01*
X-9121163Y860268D01*
X-9121042Y861500D01*
X-9120077Y871302D01*
X-9119831Y872113D01*
X-9118876Y876915D01*
X-9118755Y879367D01*
X-9118755Y909277D01*
X-9118634Y910509D01*
X-9117669Y920311D01*
X-9117667Y920320D01*
X-9117547Y921540D01*
X-9098904Y1015268D01*
X-9095795Y1025515D01*
X-9095688Y1025869D01*
X-9095686Y1025874D01*
X-9095330Y1027047D01*
X-9058760Y1115336D01*
X-9058183Y1116416D01*
X-9058179Y1116425D01*
X-9053536Y1125111D01*
X-9053531Y1125118D01*
X-9052954Y1126198D01*
X-8999862Y1205656D01*
X-8999084Y1206605D01*
X-8999080Y1206610D01*
X-8996515Y1209735D01*
X-8992051Y1215175D01*
X-8924475Y1282751D01*
X-8919035Y1287215D01*
X-8915910Y1289780D01*
X-8915905Y1289784D01*
X-8914956Y1290562D01*
X-8835498Y1343654D01*
X-8834418Y1344231D01*
X-8834411Y1344236D01*
X-8825725Y1348879D01*
X-8825716Y1348883D01*
X-8824636Y1349460D01*
X-8736347Y1386030D01*
X-8735174Y1386386D01*
X-8735169Y1386388D01*
X-8727973Y1388571D01*
X-8724568Y1389604D01*
X-8630840Y1408247D01*
X-8629620Y1408367D01*
X-8629611Y1408369D01*
X-8619809Y1409334D01*
X-8619805Y1409334D01*
X-8618577Y1409455D01*
X-8588667Y1409455D01*
X-8583790Y1409935D01*
X-8581418Y1410530D01*
X-8580602Y1410777D01*
X-8570800Y1411742D01*
X-8570796Y1411742D01*
X-8569568Y1411863D01*
X-8072032Y1411863D01*
X-8070804Y1411742D01*
X-8070804Y1411742D01*
G37*
G36*
X7174587Y2811306D02*
X7283764Y2766084D01*
X7382021Y2700431D01*
X7465581Y2616871D01*
X7531234Y2518614D01*
X7576456Y2409437D01*
X7599510Y2293536D01*
X7599510Y2175364D01*
X7579373Y2074129D01*
X7578893Y2069252D01*
X7579373Y2064375D01*
X7580796Y2059685D01*
X7583106Y2055363D01*
X7586215Y2051574D01*
X7590004Y2048465D01*
X7594326Y2046155D01*
X7599016Y2044732D01*
X7603893Y2044252D01*
X7608770Y2044732D01*
X7613460Y2046155D01*
X7617782Y2048465D01*
X7621571Y2051574D01*
X7634411Y2064414D01*
X7790006Y2168380D01*
X7962894Y2239992D01*
X8024074Y2252161D01*
X8146433Y2276500D01*
X8333567Y2276500D01*
X8455926Y2252161D01*
X8517106Y2239992D01*
X8689994Y2168380D01*
X8845589Y2064414D01*
X8977913Y1932090D01*
X9081880Y1776494D01*
X9153492Y1603606D01*
X9190000Y1420067D01*
X9190000Y1232933D01*
X9186278Y1214223D01*
X9153492Y1049394D01*
X9081880Y876506D01*
X8977914Y720911D01*
X8845589Y588586D01*
X8689994Y484620D01*
X8517106Y413008D01*
X8459250Y401500D01*
X8333567Y376500D01*
X8146433Y376500D01*
X8020750Y401500D01*
X7962894Y413008D01*
X7790006Y484620D01*
X7634411Y588586D01*
X7502086Y720911D01*
X7398120Y876506D01*
X7326508Y1049394D01*
X7293722Y1214223D01*
X7290000Y1232933D01*
X7290000Y1420067D01*
X7326508Y1603606D01*
X7368147Y1704132D01*
X7369570Y1708822D01*
X7370050Y1713699D01*
X7369570Y1718576D01*
X7368147Y1723266D01*
X7365837Y1727588D01*
X7362728Y1731377D01*
X7358939Y1734486D01*
X7354617Y1736796D01*
X7349927Y1738219D01*
X7345050Y1738699D01*
X7340173Y1738219D01*
X7335483Y1736796D01*
X7331164Y1734488D01*
X7283764Y1702816D01*
X7174587Y1657594D01*
X7058686Y1634540D01*
X6940514Y1634540D01*
X6824613Y1657594D01*
X6715436Y1702816D01*
X6617179Y1768469D01*
X6533619Y1852029D01*
X6467966Y1950286D01*
X6422744Y2059463D01*
X6399690Y2175364D01*
X6399690Y2293536D01*
X6422744Y2409437D01*
X6467966Y2518614D01*
X6533619Y2616871D01*
X6617179Y2700431D01*
X6715436Y2766084D01*
X6824613Y2811306D01*
X6940514Y2834360D01*
X7058686Y2834360D01*
X7174587Y2811306D01*
X7174587Y2811306D01*
G37*
G36*
X5969813Y2215953D02*
X6138152Y2146225D01*
X6289653Y2044995D01*
X6418495Y1916153D01*
X6519725Y1764652D01*
X6589453Y1596313D01*
X6625000Y1417605D01*
X6625000Y1235395D01*
X6589453Y1056687D01*
X6519725Y888348D01*
X6418495Y736847D01*
X6289653Y608005D01*
X6138152Y506775D01*
X5969813Y437047D01*
X5791105Y401500D01*
X5608895Y401500D01*
X5430187Y437047D01*
X5261848Y506775D01*
X5110347Y608005D01*
X4981505Y736847D01*
X4880275Y888348D01*
X4810547Y1056687D01*
X4775000Y1235395D01*
X4775000Y1417605D01*
X4810547Y1596313D01*
X4880275Y1764652D01*
X4981505Y1916153D01*
X5110347Y2044995D01*
X5261848Y2146225D01*
X5430187Y2215953D01*
X5608895Y2251500D01*
X5791105Y2251500D01*
X5969813Y2215953D01*
X5969813Y2215953D01*
G37*
G36*
X1443811Y1944940D02*
X1457853Y1940680D01*
X1470801Y1933760D01*
X1482148Y1924448D01*
X1491460Y1913101D01*
X1498380Y1900153D01*
X1502640Y1886111D01*
X1504200Y1870269D01*
X1504200Y1047731D01*
X1502640Y1031889D01*
X1498380Y1017847D01*
X1491460Y1004899D01*
X1482148Y993552D01*
X1470801Y984240D01*
X1457853Y977320D01*
X1443811Y973060D01*
X1427969Y971500D01*
X1230431Y971500D01*
X1214589Y973060D01*
X1200547Y977320D01*
X1187599Y984240D01*
X1176252Y993552D01*
X1166940Y1004899D01*
X1160020Y1017847D01*
X1155760Y1031889D01*
X1154200Y1047731D01*
X1154200Y1870269D01*
X1155760Y1886111D01*
X1160020Y1900153D01*
X1166940Y1913101D01*
X1176252Y1924448D01*
X1187599Y1933760D01*
X1200547Y1940680D01*
X1214589Y1944940D01*
X1230431Y1946500D01*
X1427969Y1946500D01*
X1443811Y1944940D01*
X1443811Y1944940D01*
G37*
G36*
X-1056189Y1944940D02*
X-1042147Y1940680D01*
X-1029199Y1933760D01*
X-1017852Y1924448D01*
X-1008540Y1913101D01*
X-1001620Y1900153D01*
X-997360Y1886111D01*
X-995800Y1870269D01*
X-995800Y1047731D01*
X-997360Y1031889D01*
X-1001620Y1017847D01*
X-1008540Y1004899D01*
X-1017852Y993552D01*
X-1029199Y984240D01*
X-1042147Y977320D01*
X-1056189Y973060D01*
X-1072031Y971500D01*
X-1269569Y971500D01*
X-1285411Y973060D01*
X-1299453Y977320D01*
X-1312401Y984240D01*
X-1323748Y993552D01*
X-1333060Y1004899D01*
X-1339980Y1017847D01*
X-1344240Y1031889D01*
X-1345800Y1047731D01*
X-1345800Y1870269D01*
X-1344240Y1886111D01*
X-1339980Y1900153D01*
X-1333060Y1913101D01*
X-1323748Y1924448D01*
X-1312401Y1933760D01*
X-1299453Y1940680D01*
X-1285411Y1944940D01*
X-1269569Y1946500D01*
X-1072031Y1946500D01*
X-1056189Y1944940D01*
X-1056189Y1944940D01*
G37*
G36*
X-1556189Y1944940D02*
X-1542147Y1940680D01*
X-1529199Y1933760D01*
X-1517852Y1924448D01*
X-1508540Y1913101D01*
X-1501620Y1900153D01*
X-1497360Y1886111D01*
X-1495800Y1870269D01*
X-1495800Y1047731D01*
X-1497360Y1031889D01*
X-1501620Y1017847D01*
X-1508540Y1004899D01*
X-1517852Y993552D01*
X-1529199Y984240D01*
X-1542147Y977320D01*
X-1556189Y973060D01*
X-1572031Y971500D01*
X-1769569Y971500D01*
X-1785411Y973060D01*
X-1799453Y977320D01*
X-1812401Y984240D01*
X-1823748Y993552D01*
X-1833060Y1004899D01*
X-1839980Y1017847D01*
X-1844240Y1031889D01*
X-1845800Y1047731D01*
X-1845800Y1870269D01*
X-1844240Y1886111D01*
X-1839980Y1900153D01*
X-1833060Y1913101D01*
X-1823748Y1924448D01*
X-1812401Y1933760D01*
X-1799453Y1940680D01*
X-1785411Y1944940D01*
X-1769569Y1946500D01*
X-1572031Y1946500D01*
X-1556189Y1944940D01*
X-1556189Y1944940D01*
G37*
G36*
X1943811Y1944940D02*
X1957853Y1940680D01*
X1970801Y1933760D01*
X1982148Y1924448D01*
X1991460Y1913101D01*
X1998380Y1900153D01*
X2002640Y1886111D01*
X2004200Y1870269D01*
X2004200Y1047731D01*
X2002640Y1031889D01*
X1998380Y1017847D01*
X1991460Y1004899D01*
X1982148Y993552D01*
X1970801Y984240D01*
X1957853Y977320D01*
X1943811Y973060D01*
X1927969Y971500D01*
X1730431Y971500D01*
X1714589Y973060D01*
X1700547Y977320D01*
X1687599Y984240D01*
X1676252Y993552D01*
X1666940Y1004899D01*
X1660020Y1017847D01*
X1655760Y1031889D01*
X1654200Y1047731D01*
X1654200Y1870269D01*
X1655760Y1886111D01*
X1660020Y1900153D01*
X1666940Y1913101D01*
X1676252Y1924448D01*
X1687599Y1933760D01*
X1700547Y1940680D01*
X1714589Y1944940D01*
X1730431Y1946500D01*
X1927969Y1946500D01*
X1943811Y1944940D01*
X1943811Y1944940D01*
G37*
G36*
X943811Y1944940D02*
X957853Y1940680D01*
X970801Y1933760D01*
X982148Y1924448D01*
X991460Y1913101D01*
X998380Y1900153D01*
X1002640Y1886111D01*
X1004200Y1870269D01*
X1004200Y1047731D01*
X1002640Y1031889D01*
X998380Y1017847D01*
X991460Y1004899D01*
X982148Y993552D01*
X970801Y984240D01*
X957853Y977320D01*
X943811Y973060D01*
X927969Y971500D01*
X730431Y971500D01*
X714589Y973060D01*
X700547Y977320D01*
X687599Y984240D01*
X676252Y993552D01*
X666940Y1004899D01*
X660020Y1017847D01*
X655760Y1031889D01*
X654200Y1047731D01*
X654200Y1870269D01*
X655760Y1886111D01*
X660020Y1900153D01*
X666940Y1913101D01*
X676252Y1924448D01*
X687599Y1933760D01*
X700547Y1940680D01*
X714589Y1944940D01*
X730431Y1946500D01*
X927969Y1946500D01*
X943811Y1944940D01*
X943811Y1944940D01*
G37*
G36*
X443811Y1944940D02*
X457853Y1940680D01*
X470801Y1933760D01*
X482148Y1924448D01*
X491460Y1913101D01*
X498380Y1900153D01*
X502640Y1886111D01*
X504200Y1870269D01*
X504200Y1047731D01*
X502640Y1031889D01*
X498380Y1017847D01*
X491460Y1004899D01*
X482148Y993552D01*
X470801Y984240D01*
X457853Y977320D01*
X443811Y973060D01*
X427969Y971500D01*
X230431Y971500D01*
X214589Y973060D01*
X200547Y977320D01*
X187599Y984240D01*
X176252Y993552D01*
X166940Y1004899D01*
X160020Y1017847D01*
X155760Y1031889D01*
X154200Y1047731D01*
X154200Y1870269D01*
X155760Y1886111D01*
X160020Y1900153D01*
X166940Y1913101D01*
X176252Y1924448D01*
X187599Y1933760D01*
X200547Y1940680D01*
X214589Y1944940D01*
X230431Y1946500D01*
X427969Y1946500D01*
X443811Y1944940D01*
X443811Y1944940D01*
G37*
G36*
X-56189Y1944940D02*
X-42147Y1940680D01*
X-29199Y1933760D01*
X-17852Y1924448D01*
X-8540Y1913101D01*
X-1620Y1900153D01*
X2640Y1886111D01*
X4200Y1870269D01*
X4200Y1047731D01*
X2640Y1031889D01*
X-1620Y1017847D01*
X-8540Y1004899D01*
X-17852Y993552D01*
X-29199Y984240D01*
X-42147Y977320D01*
X-56189Y973060D01*
X-72031Y971500D01*
X-269569Y971500D01*
X-285411Y973060D01*
X-299453Y977320D01*
X-312401Y984240D01*
X-323748Y993552D01*
X-333060Y1004899D01*
X-339980Y1017847D01*
X-344240Y1031889D01*
X-345800Y1047731D01*
X-345800Y1870269D01*
X-344240Y1886111D01*
X-339980Y1900153D01*
X-333060Y1913101D01*
X-323748Y1924448D01*
X-312401Y1933760D01*
X-299453Y1940680D01*
X-285411Y1944940D01*
X-269569Y1946500D01*
X-72031Y1946500D01*
X-56189Y1944940D01*
X-56189Y1944940D01*
G37*
G36*
X-556189Y1944940D02*
X-542147Y1940680D01*
X-529199Y1933760D01*
X-517852Y1924448D01*
X-508540Y1913101D01*
X-501620Y1900153D01*
X-497360Y1886111D01*
X-495800Y1870269D01*
X-495800Y1047731D01*
X-497360Y1031889D01*
X-501620Y1017847D01*
X-508540Y1004899D01*
X-517852Y993552D01*
X-529199Y984240D01*
X-542147Y977320D01*
X-556189Y973060D01*
X-572031Y971500D01*
X-769569Y971500D01*
X-785411Y973060D01*
X-799453Y977320D01*
X-812401Y984240D01*
X-823748Y993552D01*
X-833060Y1004899D01*
X-839980Y1017847D01*
X-844240Y1031889D01*
X-845800Y1047731D01*
X-845800Y1870269D01*
X-844240Y1886111D01*
X-839980Y1900153D01*
X-833060Y1913101D01*
X-823748Y1924448D01*
X-812401Y1933760D01*
X-799453Y1940680D01*
X-785411Y1944940D01*
X-769569Y1946500D01*
X-572031Y1946500D01*
X-556189Y1944940D01*
X-556189Y1944940D01*
G37*
G36*
X2943811Y2319940D02*
X2957853Y2315680D01*
X2970801Y2308760D01*
X2982148Y2299448D01*
X2991460Y2288101D01*
X2998380Y2275153D01*
X3002640Y2261111D01*
X3004200Y2245269D01*
X3004200Y2047731D01*
X3002640Y2031889D01*
X2998380Y2017847D01*
X2991460Y2004899D01*
X2982148Y1993552D01*
X2970801Y1984240D01*
X2957853Y1977320D01*
X2943811Y1973060D01*
X2927969Y1971500D01*
X2105431Y1971500D01*
X2089589Y1973060D01*
X2075547Y1977320D01*
X2062599Y1984240D01*
X2051252Y1993552D01*
X2041940Y2004899D01*
X2035020Y2017847D01*
X2030760Y2031889D01*
X2029200Y2047731D01*
X2029200Y2245269D01*
X2030760Y2261111D01*
X2035020Y2275153D01*
X2041940Y2288101D01*
X2051252Y2299448D01*
X2062599Y2308760D01*
X2075547Y2315680D01*
X2089589Y2319940D01*
X2105431Y2321500D01*
X2927969Y2321500D01*
X2943811Y2319940D01*
X2943811Y2319940D01*
G37*
G36*
X-1931189Y2319940D02*
X-1917147Y2315680D01*
X-1904199Y2308760D01*
X-1892852Y2299448D01*
X-1883540Y2288101D01*
X-1876620Y2275153D01*
X-1872360Y2261111D01*
X-1870800Y2245269D01*
X-1870800Y2047731D01*
X-1872360Y2031889D01*
X-1876620Y2017847D01*
X-1883540Y2004899D01*
X-1892852Y1993552D01*
X-1904199Y1984240D01*
X-1917147Y1977320D01*
X-1931189Y1973060D01*
X-1947031Y1971500D01*
X-2769569Y1971500D01*
X-2785411Y1973060D01*
X-2799453Y1977320D01*
X-2812401Y1984240D01*
X-2823748Y1993552D01*
X-2833060Y2004899D01*
X-2839980Y2017847D01*
X-2844240Y2031889D01*
X-2845800Y2047731D01*
X-2845800Y2245269D01*
X-2844240Y2261111D01*
X-2839980Y2275153D01*
X-2833060Y2288101D01*
X-2823748Y2299448D01*
X-2812401Y2308760D01*
X-2799453Y2315680D01*
X-2785411Y2319940D01*
X-2769569Y2321500D01*
X-1947031Y2321500D01*
X-1931189Y2319940D01*
X-1931189Y2319940D01*
G37*
G36*
X-4345800Y2111500D02*
X-6795800Y2111500D01*
X-6795800Y2811500D01*
X-4345800Y2811500D01*
X-4345800Y2111500D01*
X-4345800Y2111500D01*
G37*
G36*
X1664322Y5666848D02*
X1708550Y5653432D01*
X1749306Y5631647D01*
X1785030Y5602330D01*
X1814347Y5566606D01*
X1836132Y5525850D01*
X1849548Y5481622D01*
X1854200Y5434397D01*
X1854200Y2358603D01*
X1849548Y2311378D01*
X1836132Y2267150D01*
X1814347Y2226394D01*
X1785030Y2190670D01*
X1749306Y2161353D01*
X1708550Y2139568D01*
X1664322Y2126152D01*
X1617097Y2121500D01*
X-1458697Y2121500D01*
X-1505922Y2126152D01*
X-1550150Y2139568D01*
X-1590906Y2161353D01*
X-1626630Y2190670D01*
X-1655947Y2226394D01*
X-1677732Y2267150D01*
X-1691148Y2311378D01*
X-1695800Y2358603D01*
X-1695800Y5434397D01*
X-1691148Y5481622D01*
X-1677732Y5525850D01*
X-1655947Y5566606D01*
X-1626630Y5602330D01*
X-1590906Y5631647D01*
X-1550150Y5653432D01*
X-1505922Y5666848D01*
X-1458697Y5671500D01*
X1617097Y5671500D01*
X1664322Y5666848D01*
X1664322Y5666848D01*
G37*
G36*
X-1931189Y2819940D02*
X-1917147Y2815680D01*
X-1904199Y2808760D01*
X-1892852Y2799448D01*
X-1883540Y2788101D01*
X-1876620Y2775153D01*
X-1872360Y2761111D01*
X-1870800Y2745269D01*
X-1870800Y2547731D01*
X-1872360Y2531889D01*
X-1876620Y2517847D01*
X-1883540Y2504899D01*
X-1892852Y2493552D01*
X-1904199Y2484240D01*
X-1917147Y2477320D01*
X-1931189Y2473060D01*
X-1947031Y2471500D01*
X-2769569Y2471500D01*
X-2785411Y2473060D01*
X-2799453Y2477320D01*
X-2812401Y2484240D01*
X-2823748Y2493552D01*
X-2833060Y2504899D01*
X-2839980Y2517847D01*
X-2844240Y2531889D01*
X-2845800Y2547731D01*
X-2845800Y2745269D01*
X-2844240Y2761111D01*
X-2839980Y2775153D01*
X-2833060Y2788101D01*
X-2823748Y2799448D01*
X-2812401Y2808760D01*
X-2799453Y2815680D01*
X-2785411Y2819940D01*
X-2769569Y2821500D01*
X-1947031Y2821500D01*
X-1931189Y2819940D01*
X-1931189Y2819940D01*
G37*
G36*
X2943811Y2819940D02*
X2957853Y2815680D01*
X2970801Y2808760D01*
X2982148Y2799448D01*
X2991460Y2788101D01*
X2998380Y2775153D01*
X3002640Y2761111D01*
X3004200Y2745269D01*
X3004200Y2547731D01*
X3002640Y2531889D01*
X2998380Y2517847D01*
X2991460Y2504899D01*
X2982148Y2493552D01*
X2970801Y2484240D01*
X2957853Y2477320D01*
X2943811Y2473060D01*
X2927969Y2471500D01*
X2105431Y2471500D01*
X2089589Y2473060D01*
X2075547Y2477320D01*
X2062599Y2484240D01*
X2051252Y2493552D01*
X2041940Y2504899D01*
X2035020Y2517847D01*
X2030760Y2531889D01*
X2029200Y2547731D01*
X2029200Y2745269D01*
X2030760Y2761111D01*
X2035020Y2775153D01*
X2041940Y2788101D01*
X2051252Y2799448D01*
X2062599Y2808760D01*
X2075547Y2815680D01*
X2089589Y2819940D01*
X2105431Y2821500D01*
X2927969Y2821500D01*
X2943811Y2819940D01*
X2943811Y2819940D01*
G37*
G36*
X5370391Y3203306D02*
X5400385Y3194208D01*
X5428021Y3179436D01*
X5452251Y3159551D01*
X5472136Y3135321D01*
X5486908Y3107685D01*
X5496006Y3077691D01*
X5499200Y3045267D01*
X5499200Y2677733D01*
X5496006Y2645309D01*
X5486908Y2615315D01*
X5472136Y2587679D01*
X5452251Y2563449D01*
X5428021Y2543564D01*
X5400385Y2528792D01*
X5370391Y2519694D01*
X5337967Y2516500D01*
X4920433Y2516500D01*
X4888009Y2519694D01*
X4858015Y2528792D01*
X4830379Y2543564D01*
X4806149Y2563449D01*
X4786264Y2587679D01*
X4771492Y2615315D01*
X4762394Y2645309D01*
X4759200Y2677733D01*
X4759200Y3045267D01*
X4762394Y3077691D01*
X4771492Y3107685D01*
X4786264Y3135321D01*
X4806149Y3159551D01*
X4830379Y3179436D01*
X4858015Y3194208D01*
X4888009Y3203306D01*
X4920433Y3206500D01*
X5337967Y3206500D01*
X5370391Y3203306D01*
X5370391Y3203306D01*
G37*
G36*
X4220391Y3203306D02*
X4250385Y3194208D01*
X4278021Y3179436D01*
X4302251Y3159551D01*
X4322136Y3135321D01*
X4336908Y3107685D01*
X4346006Y3077691D01*
X4349200Y3045267D01*
X4349200Y2677733D01*
X4346006Y2645309D01*
X4336908Y2615315D01*
X4322136Y2587679D01*
X4302251Y2563449D01*
X4278021Y2543564D01*
X4250385Y2528792D01*
X4220391Y2519694D01*
X4187967Y2516500D01*
X3770433Y2516500D01*
X3738009Y2519694D01*
X3708015Y2528792D01*
X3680379Y2543564D01*
X3656149Y2563449D01*
X3636264Y2587679D01*
X3621492Y2615315D01*
X3612394Y2645309D01*
X3609200Y2677733D01*
X3609200Y3045267D01*
X3612394Y3077691D01*
X3621492Y3107685D01*
X3636264Y3135321D01*
X3656149Y3159551D01*
X3680379Y3179436D01*
X3708015Y3194208D01*
X3738009Y3203306D01*
X3770433Y3206500D01*
X4187967Y3206500D01*
X4220391Y3203306D01*
X4220391Y3203306D01*
G37*
G36*
X7149293Y4799448D02*
X7247106Y4779992D01*
X7419994Y4708380D01*
X7575589Y4604414D01*
X7707914Y4472089D01*
X7811880Y4316494D01*
X7881077Y4149436D01*
X7883492Y4143605D01*
X7920000Y3960067D01*
X7920000Y3772933D01*
X7897337Y3659000D01*
X7883492Y3589394D01*
X7811880Y3416506D01*
X7707914Y3260911D01*
X7575589Y3128586D01*
X7419994Y3024620D01*
X7247106Y2953008D01*
X7185926Y2940839D01*
X7063567Y2916500D01*
X6876433Y2916500D01*
X6754074Y2940839D01*
X6692894Y2953008D01*
X6520006Y3024620D01*
X6364411Y3128586D01*
X6232086Y3260911D01*
X6128120Y3416506D01*
X6056508Y3589394D01*
X6042663Y3659000D01*
X6020000Y3772933D01*
X6020000Y3960067D01*
X6056508Y4143605D01*
X6058923Y4149436D01*
X6128120Y4316494D01*
X6232086Y4472089D01*
X6364411Y4604414D01*
X6520006Y4708380D01*
X6692894Y4779992D01*
X6790707Y4799448D01*
X6876433Y4816500D01*
X7063567Y4816500D01*
X7149293Y4799448D01*
X7149293Y4799448D01*
G37*
G36*
X2943811Y3319940D02*
X2957853Y3315680D01*
X2970801Y3308760D01*
X2982148Y3299448D01*
X2991460Y3288101D01*
X2998380Y3275153D01*
X3002640Y3261111D01*
X3004200Y3245269D01*
X3004200Y3047731D01*
X3002640Y3031889D01*
X2998380Y3017847D01*
X2991460Y3004899D01*
X2982148Y2993552D01*
X2970801Y2984240D01*
X2957853Y2977320D01*
X2943811Y2973060D01*
X2927969Y2971500D01*
X2105431Y2971500D01*
X2089589Y2973060D01*
X2075547Y2977320D01*
X2062599Y2984240D01*
X2051252Y2993552D01*
X2041940Y3004899D01*
X2035020Y3017847D01*
X2030760Y3031889D01*
X2029200Y3047731D01*
X2029200Y3245269D01*
X2030760Y3261111D01*
X2035020Y3275153D01*
X2041940Y3288101D01*
X2051252Y3299448D01*
X2062599Y3308760D01*
X2075547Y3315680D01*
X2089589Y3319940D01*
X2105431Y3321500D01*
X2927969Y3321500D01*
X2943811Y3319940D01*
X2943811Y3319940D01*
G37*
G36*
X-1931189Y3319940D02*
X-1917147Y3315680D01*
X-1904199Y3308760D01*
X-1892852Y3299448D01*
X-1883540Y3288101D01*
X-1876620Y3275153D01*
X-1872360Y3261111D01*
X-1870800Y3245269D01*
X-1870800Y3047731D01*
X-1872360Y3031889D01*
X-1876620Y3017847D01*
X-1883540Y3004899D01*
X-1892852Y2993552D01*
X-1904199Y2984240D01*
X-1917147Y2977320D01*
X-1931189Y2973060D01*
X-1947031Y2971500D01*
X-2769569Y2971500D01*
X-2785411Y2973060D01*
X-2799453Y2977320D01*
X-2812401Y2984240D01*
X-2823748Y2993552D01*
X-2833060Y3004899D01*
X-2839980Y3017847D01*
X-2844240Y3031889D01*
X-2845800Y3047731D01*
X-2845800Y3245269D01*
X-2844240Y3261111D01*
X-2839980Y3275153D01*
X-2833060Y3288101D01*
X-2823748Y3299448D01*
X-2812401Y3308760D01*
X-2799453Y3315680D01*
X-2785411Y3319940D01*
X-2769569Y3321500D01*
X-1947031Y3321500D01*
X-1931189Y3319940D01*
X-1931189Y3319940D01*
G37*
G36*
X-1931189Y3819940D02*
X-1917147Y3815680D01*
X-1904199Y3808760D01*
X-1892852Y3799448D01*
X-1883540Y3788101D01*
X-1876620Y3775153D01*
X-1872360Y3761111D01*
X-1870800Y3745269D01*
X-1870800Y3547731D01*
X-1872360Y3531889D01*
X-1876620Y3517847D01*
X-1883540Y3504899D01*
X-1892852Y3493552D01*
X-1904199Y3484240D01*
X-1917147Y3477320D01*
X-1931189Y3473060D01*
X-1947031Y3471500D01*
X-2769569Y3471500D01*
X-2785411Y3473060D01*
X-2799453Y3477320D01*
X-2812401Y3484240D01*
X-2823748Y3493552D01*
X-2833060Y3504899D01*
X-2839980Y3517847D01*
X-2844240Y3531889D01*
X-2845800Y3547731D01*
X-2845800Y3745269D01*
X-2844240Y3761111D01*
X-2839980Y3775153D01*
X-2833060Y3788101D01*
X-2823748Y3799448D01*
X-2812401Y3808760D01*
X-2799453Y3815680D01*
X-2785411Y3819940D01*
X-2769569Y3821500D01*
X-1947031Y3821500D01*
X-1931189Y3819940D01*
X-1931189Y3819940D01*
G37*
G36*
X2943811Y3819940D02*
X2957853Y3815680D01*
X2970801Y3808760D01*
X2982148Y3799448D01*
X2991460Y3788101D01*
X2998380Y3775153D01*
X3002640Y3761111D01*
X3004200Y3745269D01*
X3004200Y3547731D01*
X3002640Y3531889D01*
X2998380Y3517847D01*
X2991460Y3504899D01*
X2982148Y3493552D01*
X2970801Y3484240D01*
X2957853Y3477320D01*
X2943811Y3473060D01*
X2927969Y3471500D01*
X2105431Y3471500D01*
X2089589Y3473060D01*
X2075547Y3477320D01*
X2062599Y3484240D01*
X2051252Y3493552D01*
X2041940Y3504899D01*
X2035020Y3517847D01*
X2030760Y3531889D01*
X2029200Y3547731D01*
X2029200Y3745269D01*
X2030760Y3761111D01*
X2035020Y3775153D01*
X2041940Y3788101D01*
X2051252Y3799448D01*
X2062599Y3808760D01*
X2075547Y3815680D01*
X2089589Y3819940D01*
X2105431Y3821500D01*
X2927969Y3821500D01*
X2943811Y3819940D01*
X2943811Y3819940D01*
G37*
G36*
X4220391Y4173306D02*
X4250385Y4164208D01*
X4278021Y4149436D01*
X4302251Y4129551D01*
X4322136Y4105321D01*
X4336908Y4077685D01*
X4346006Y4047691D01*
X4349200Y4015267D01*
X4349200Y3647733D01*
X4346006Y3615309D01*
X4336908Y3585315D01*
X4322136Y3557679D01*
X4302251Y3533449D01*
X4278021Y3513564D01*
X4250385Y3498792D01*
X4220391Y3489694D01*
X4187967Y3486500D01*
X3770433Y3486500D01*
X3738009Y3489694D01*
X3708015Y3498792D01*
X3680379Y3513564D01*
X3656149Y3533449D01*
X3636264Y3557679D01*
X3621492Y3585315D01*
X3612394Y3615309D01*
X3609200Y3647733D01*
X3609200Y4015267D01*
X3612394Y4047691D01*
X3621492Y4077685D01*
X3636264Y4105321D01*
X3656149Y4129551D01*
X3680379Y4149436D01*
X3708015Y4164208D01*
X3738009Y4173306D01*
X3770433Y4176500D01*
X4187967Y4176500D01*
X4220391Y4173306D01*
X4220391Y4173306D01*
G37*
G36*
X5370391Y4173306D02*
X5400385Y4164208D01*
X5428021Y4149436D01*
X5452251Y4129551D01*
X5472136Y4105321D01*
X5486908Y4077685D01*
X5496006Y4047691D01*
X5499200Y4015267D01*
X5499200Y3647733D01*
X5496006Y3615309D01*
X5486908Y3585315D01*
X5472136Y3557679D01*
X5452251Y3533449D01*
X5428021Y3513564D01*
X5400385Y3498792D01*
X5370391Y3489694D01*
X5337967Y3486500D01*
X4920433Y3486500D01*
X4888009Y3489694D01*
X4858015Y3498792D01*
X4830379Y3513564D01*
X4806149Y3533449D01*
X4786264Y3557679D01*
X4771492Y3585315D01*
X4762394Y3615309D01*
X4759200Y3647733D01*
X4759200Y4015267D01*
X4762394Y4047691D01*
X4771492Y4077685D01*
X4786264Y4105321D01*
X4806149Y4129551D01*
X4830379Y4149436D01*
X4858015Y4164208D01*
X4888009Y4173306D01*
X4920433Y4176500D01*
X5337967Y4176500D01*
X5370391Y4173306D01*
X5370391Y4173306D01*
G37*
G36*
X2943811Y4319940D02*
X2957853Y4315680D01*
X2970801Y4308760D01*
X2982148Y4299448D01*
X2991460Y4288101D01*
X2998380Y4275153D01*
X3002640Y4261111D01*
X3004200Y4245269D01*
X3004200Y4047731D01*
X3002640Y4031889D01*
X2998380Y4017847D01*
X2991460Y4004899D01*
X2982148Y3993552D01*
X2970801Y3984240D01*
X2957853Y3977320D01*
X2943811Y3973060D01*
X2927969Y3971500D01*
X2105431Y3971500D01*
X2089589Y3973060D01*
X2075547Y3977320D01*
X2062599Y3984240D01*
X2051252Y3993552D01*
X2041940Y4004899D01*
X2035020Y4017847D01*
X2030760Y4031889D01*
X2029200Y4047731D01*
X2029200Y4245269D01*
X2030760Y4261111D01*
X2035020Y4275153D01*
X2041940Y4288101D01*
X2051252Y4299448D01*
X2062599Y4308760D01*
X2075547Y4315680D01*
X2089589Y4319940D01*
X2105431Y4321500D01*
X2927969Y4321500D01*
X2943811Y4319940D01*
X2943811Y4319940D01*
G37*
G36*
X-1931189Y4319940D02*
X-1917147Y4315680D01*
X-1904199Y4308760D01*
X-1892852Y4299448D01*
X-1883540Y4288101D01*
X-1876620Y4275153D01*
X-1872360Y4261111D01*
X-1870800Y4245269D01*
X-1870800Y4047731D01*
X-1872360Y4031889D01*
X-1876620Y4017847D01*
X-1883540Y4004899D01*
X-1892852Y3993552D01*
X-1904199Y3984240D01*
X-1917147Y3977320D01*
X-1931189Y3973060D01*
X-1947031Y3971500D01*
X-2769569Y3971500D01*
X-2785411Y3973060D01*
X-2799453Y3977320D01*
X-2812401Y3984240D01*
X-2823748Y3993552D01*
X-2833060Y4004899D01*
X-2839980Y4017847D01*
X-2844240Y4031889D01*
X-2845800Y4047731D01*
X-2845800Y4245269D01*
X-2844240Y4261111D01*
X-2839980Y4275153D01*
X-2833060Y4288101D01*
X-2823748Y4299448D01*
X-2812401Y4308760D01*
X-2799453Y4315680D01*
X-2785411Y4319940D01*
X-2769569Y4321500D01*
X-1947031Y4321500D01*
X-1931189Y4319940D01*
X-1931189Y4319940D01*
G37*
G36*
X2943811Y4819940D02*
X2957853Y4815680D01*
X2970801Y4808760D01*
X2982148Y4799448D01*
X2991460Y4788101D01*
X2998380Y4775153D01*
X3002640Y4761111D01*
X3004200Y4745269D01*
X3004200Y4547731D01*
X3002640Y4531889D01*
X2998380Y4517847D01*
X2991460Y4504899D01*
X2982148Y4493552D01*
X2970801Y4484240D01*
X2957853Y4477320D01*
X2943811Y4473060D01*
X2927969Y4471500D01*
X2105431Y4471500D01*
X2089589Y4473060D01*
X2075547Y4477320D01*
X2062599Y4484240D01*
X2051252Y4493552D01*
X2041940Y4504899D01*
X2035020Y4517847D01*
X2030760Y4531889D01*
X2029200Y4547731D01*
X2029200Y4745269D01*
X2030760Y4761111D01*
X2035020Y4775153D01*
X2041940Y4788101D01*
X2051252Y4799448D01*
X2062599Y4808760D01*
X2075547Y4815680D01*
X2089589Y4819940D01*
X2105431Y4821500D01*
X2927969Y4821500D01*
X2943811Y4819940D01*
X2943811Y4819940D01*
G37*
G36*
X-1931189Y4819940D02*
X-1917147Y4815680D01*
X-1904199Y4808760D01*
X-1892852Y4799448D01*
X-1883540Y4788101D01*
X-1876620Y4775153D01*
X-1872360Y4761111D01*
X-1870800Y4745269D01*
X-1870800Y4547731D01*
X-1872360Y4531889D01*
X-1876620Y4517847D01*
X-1883540Y4504899D01*
X-1892852Y4493552D01*
X-1904199Y4484240D01*
X-1917147Y4477320D01*
X-1931189Y4473060D01*
X-1947031Y4471500D01*
X-2769569Y4471500D01*
X-2785411Y4473060D01*
X-2799453Y4477320D01*
X-2812401Y4484240D01*
X-2823748Y4493552D01*
X-2833060Y4504899D01*
X-2839980Y4517847D01*
X-2844240Y4531889D01*
X-2845800Y4547731D01*
X-2845800Y4745269D01*
X-2844240Y4761111D01*
X-2839980Y4775153D01*
X-2833060Y4788101D01*
X-2823748Y4799448D01*
X-2812401Y4808760D01*
X-2799453Y4815680D01*
X-2785411Y4819940D01*
X-2769569Y4821500D01*
X-1947031Y4821500D01*
X-1931189Y4819940D01*
X-1931189Y4819940D01*
G37*
G36*
X5030391Y5213306D02*
X5060385Y5204208D01*
X5088021Y5189436D01*
X5112251Y5169551D01*
X5132136Y5145321D01*
X5146908Y5117685D01*
X5156006Y5087691D01*
X5159200Y5055267D01*
X5159200Y4637733D01*
X5156006Y4605309D01*
X5146908Y4575315D01*
X5132136Y4547679D01*
X5112251Y4523449D01*
X5088021Y4503564D01*
X5060385Y4488792D01*
X5030391Y4479694D01*
X4997967Y4476500D01*
X4630433Y4476500D01*
X4598009Y4479694D01*
X4568015Y4488792D01*
X4540379Y4503564D01*
X4516149Y4523449D01*
X4496264Y4547679D01*
X4481492Y4575315D01*
X4472394Y4605309D01*
X4469200Y4637733D01*
X4469200Y5055267D01*
X4472394Y5087691D01*
X4481492Y5117685D01*
X4496264Y5145321D01*
X4516149Y5169551D01*
X4540379Y5189436D01*
X4568015Y5204208D01*
X4598009Y5213306D01*
X4630433Y5216500D01*
X4997967Y5216500D01*
X5030391Y5213306D01*
X5030391Y5213306D01*
G37*
G36*
X4060391Y5213306D02*
X4090385Y5204208D01*
X4118021Y5189436D01*
X4142251Y5169551D01*
X4162136Y5145321D01*
X4176908Y5117685D01*
X4186006Y5087691D01*
X4189200Y5055267D01*
X4189200Y4637733D01*
X4186006Y4605309D01*
X4176908Y4575315D01*
X4162136Y4547679D01*
X4142251Y4523449D01*
X4118021Y4503564D01*
X4090385Y4488792D01*
X4060391Y4479694D01*
X4027967Y4476500D01*
X3660433Y4476500D01*
X3628009Y4479694D01*
X3598015Y4488792D01*
X3570379Y4503564D01*
X3546149Y4523449D01*
X3526264Y4547679D01*
X3511492Y4575315D01*
X3502394Y4605309D01*
X3499200Y4637733D01*
X3499200Y5055267D01*
X3502394Y5087691D01*
X3511492Y5117685D01*
X3526264Y5145321D01*
X3546149Y5169551D01*
X3570379Y5189436D01*
X3598015Y5204208D01*
X3628009Y5213306D01*
X3660433Y5216500D01*
X4027967Y5216500D01*
X4060391Y5213306D01*
X4060391Y5213306D01*
G37*
G36*
X8156029Y6472756D02*
X8306937Y6426978D01*
X8446015Y6352640D01*
X8567917Y6252597D01*
X8667960Y6130695D01*
X8742298Y5991617D01*
X8788076Y5840709D01*
X8803533Y5683770D01*
X8788076Y5526831D01*
X8742298Y5375923D01*
X8667960Y5236845D01*
X8567917Y5114943D01*
X8446015Y5014900D01*
X8306937Y4940562D01*
X8156029Y4894784D01*
X8038414Y4883200D01*
X5960786Y4883200D01*
X5843171Y4894784D01*
X5692263Y4940562D01*
X5553185Y5014900D01*
X5431283Y5114943D01*
X5331240Y5236845D01*
X5256902Y5375923D01*
X5211124Y5526831D01*
X5195667Y5683770D01*
X5211124Y5840709D01*
X5256902Y5991617D01*
X5331240Y6130695D01*
X5431283Y6252597D01*
X5553185Y6352640D01*
X5692263Y6426978D01*
X5843171Y6472756D01*
X5960786Y6484340D01*
X8038414Y6484340D01*
X8156029Y6472756D01*
X8156029Y6472756D01*
G37*
G36*
X-1931189Y5319940D02*
X-1917147Y5315680D01*
X-1904199Y5308760D01*
X-1892852Y5299448D01*
X-1883540Y5288101D01*
X-1876620Y5275153D01*
X-1872360Y5261111D01*
X-1870800Y5245269D01*
X-1870800Y5047731D01*
X-1872360Y5031889D01*
X-1876620Y5017847D01*
X-1883540Y5004899D01*
X-1892852Y4993552D01*
X-1904199Y4984240D01*
X-1917147Y4977320D01*
X-1931189Y4973060D01*
X-1947031Y4971500D01*
X-2769569Y4971500D01*
X-2785411Y4973060D01*
X-2799453Y4977320D01*
X-2812401Y4984240D01*
X-2823748Y4993552D01*
X-2833060Y5004899D01*
X-2839980Y5017847D01*
X-2844240Y5031889D01*
X-2845800Y5047731D01*
X-2845800Y5245269D01*
X-2844240Y5261111D01*
X-2839980Y5275153D01*
X-2833060Y5288101D01*
X-2823748Y5299448D01*
X-2812401Y5308760D01*
X-2799453Y5315680D01*
X-2785411Y5319940D01*
X-2769569Y5321500D01*
X-1947031Y5321500D01*
X-1931189Y5319940D01*
X-1931189Y5319940D01*
G37*
G36*
X2943811Y5319940D02*
X2957853Y5315680D01*
X2970801Y5308760D01*
X2982148Y5299448D01*
X2991460Y5288101D01*
X2998380Y5275153D01*
X3002640Y5261111D01*
X3004200Y5245269D01*
X3004200Y5047731D01*
X3002640Y5031889D01*
X2998380Y5017847D01*
X2991460Y5004899D01*
X2982148Y4993552D01*
X2970801Y4984240D01*
X2957853Y4977320D01*
X2943811Y4973060D01*
X2927969Y4971500D01*
X2105431Y4971500D01*
X2089589Y4973060D01*
X2075547Y4977320D01*
X2062599Y4984240D01*
X2051252Y4993552D01*
X2041940Y5004899D01*
X2035020Y5017847D01*
X2030760Y5031889D01*
X2029200Y5047731D01*
X2029200Y5245269D01*
X2030760Y5261111D01*
X2035020Y5275153D01*
X2041940Y5288101D01*
X2051252Y5299448D01*
X2062599Y5308760D01*
X2075547Y5315680D01*
X2089589Y5319940D01*
X2105431Y5321500D01*
X2927969Y5321500D01*
X2943811Y5319940D01*
X2943811Y5319940D01*
G37*
G36*
X2943811Y5819940D02*
X2957853Y5815680D01*
X2970801Y5808760D01*
X2982148Y5799448D01*
X2991460Y5788101D01*
X2998380Y5775153D01*
X3002640Y5761111D01*
X3004200Y5745269D01*
X3004200Y5547731D01*
X3002640Y5531889D01*
X2998380Y5517847D01*
X2991460Y5504899D01*
X2982148Y5493552D01*
X2970801Y5484240D01*
X2957853Y5477320D01*
X2943811Y5473060D01*
X2927969Y5471500D01*
X2105431Y5471500D01*
X2089589Y5473060D01*
X2075547Y5477320D01*
X2062599Y5484240D01*
X2051252Y5493552D01*
X2041940Y5504899D01*
X2035020Y5517847D01*
X2030760Y5531889D01*
X2029200Y5547731D01*
X2029200Y5745269D01*
X2030760Y5761111D01*
X2035020Y5775153D01*
X2041940Y5788101D01*
X2051252Y5799448D01*
X2062599Y5808760D01*
X2075547Y5815680D01*
X2089589Y5819940D01*
X2105431Y5821500D01*
X2927969Y5821500D01*
X2943811Y5819940D01*
X2943811Y5819940D01*
G37*
G36*
X-1931189Y5819940D02*
X-1917147Y5815680D01*
X-1904199Y5808760D01*
X-1892852Y5799448D01*
X-1883540Y5788101D01*
X-1876620Y5775153D01*
X-1872360Y5761111D01*
X-1870800Y5745269D01*
X-1870800Y5547731D01*
X-1872360Y5531889D01*
X-1876620Y5517847D01*
X-1883540Y5504899D01*
X-1892852Y5493552D01*
X-1904199Y5484240D01*
X-1917147Y5477320D01*
X-1931189Y5473060D01*
X-1947031Y5471500D01*
X-2769569Y5471500D01*
X-2785411Y5473060D01*
X-2799453Y5477320D01*
X-2812401Y5484240D01*
X-2823748Y5493552D01*
X-2833060Y5504899D01*
X-2839980Y5517847D01*
X-2844240Y5531889D01*
X-2845800Y5547731D01*
X-2845800Y5745269D01*
X-2844240Y5761111D01*
X-2839980Y5775153D01*
X-2833060Y5788101D01*
X-2823748Y5799448D01*
X-2812401Y5808760D01*
X-2799453Y5815680D01*
X-2785411Y5819940D01*
X-2769569Y5821500D01*
X-1947031Y5821500D01*
X-1931189Y5819940D01*
X-1931189Y5819940D01*
G37*
G36*
X-1556189Y6819940D02*
X-1542147Y6815680D01*
X-1529199Y6808760D01*
X-1517852Y6799448D01*
X-1508540Y6788101D01*
X-1501620Y6775153D01*
X-1497360Y6761111D01*
X-1495800Y6745269D01*
X-1495800Y5922731D01*
X-1497360Y5906889D01*
X-1501620Y5892847D01*
X-1508540Y5879899D01*
X-1517852Y5868552D01*
X-1529199Y5859240D01*
X-1542147Y5852320D01*
X-1556189Y5848060D01*
X-1572031Y5846500D01*
X-1769569Y5846500D01*
X-1785411Y5848060D01*
X-1799453Y5852320D01*
X-1812401Y5859240D01*
X-1823748Y5868552D01*
X-1833060Y5879899D01*
X-1839980Y5892847D01*
X-1844240Y5906889D01*
X-1845800Y5922731D01*
X-1845800Y6745269D01*
X-1844240Y6761111D01*
X-1839980Y6775153D01*
X-1833060Y6788101D01*
X-1823748Y6799448D01*
X-1812401Y6808760D01*
X-1799453Y6815680D01*
X-1785411Y6819940D01*
X-1769569Y6821500D01*
X-1572031Y6821500D01*
X-1556189Y6819940D01*
X-1556189Y6819940D01*
G37*
G36*
X1943811Y6819940D02*
X1957853Y6815680D01*
X1970801Y6808760D01*
X1982148Y6799448D01*
X1991460Y6788101D01*
X1998380Y6775153D01*
X2002640Y6761111D01*
X2004200Y6745269D01*
X2004200Y5922731D01*
X2002640Y5906889D01*
X1998380Y5892847D01*
X1991460Y5879899D01*
X1982148Y5868552D01*
X1970801Y5859240D01*
X1957853Y5852320D01*
X1943811Y5848060D01*
X1927969Y5846500D01*
X1730431Y5846500D01*
X1714589Y5848060D01*
X1700547Y5852320D01*
X1687599Y5859240D01*
X1676252Y5868552D01*
X1666940Y5879899D01*
X1660020Y5892847D01*
X1655760Y5906889D01*
X1654200Y5922731D01*
X1654200Y6745269D01*
X1655760Y6761111D01*
X1660020Y6775153D01*
X1666940Y6788101D01*
X1676252Y6799448D01*
X1687599Y6808760D01*
X1700547Y6815680D01*
X1714589Y6819940D01*
X1730431Y6821500D01*
X1927969Y6821500D01*
X1943811Y6819940D01*
X1943811Y6819940D01*
G37*
G36*
X1443811Y6819940D02*
X1457853Y6815680D01*
X1470801Y6808760D01*
X1482148Y6799448D01*
X1491460Y6788101D01*
X1498380Y6775153D01*
X1502640Y6761111D01*
X1504200Y6745269D01*
X1504200Y5922731D01*
X1502640Y5906889D01*
X1498380Y5892847D01*
X1491460Y5879899D01*
X1482148Y5868552D01*
X1470801Y5859240D01*
X1457853Y5852320D01*
X1443811Y5848060D01*
X1427969Y5846500D01*
X1230431Y5846500D01*
X1214589Y5848060D01*
X1200547Y5852320D01*
X1187599Y5859240D01*
X1176252Y5868552D01*
X1166940Y5879899D01*
X1160020Y5892847D01*
X1155760Y5906889D01*
X1154200Y5922731D01*
X1154200Y6745269D01*
X1155760Y6761111D01*
X1160020Y6775153D01*
X1166940Y6788101D01*
X1176252Y6799448D01*
X1187599Y6808760D01*
X1200547Y6815680D01*
X1214589Y6819940D01*
X1230431Y6821500D01*
X1427969Y6821500D01*
X1443811Y6819940D01*
X1443811Y6819940D01*
G37*
G36*
X943811Y6819940D02*
X957853Y6815680D01*
X970801Y6808760D01*
X982148Y6799448D01*
X991460Y6788101D01*
X998380Y6775153D01*
X1002640Y6761111D01*
X1004200Y6745269D01*
X1004200Y5922731D01*
X1002640Y5906889D01*
X998380Y5892847D01*
X991460Y5879899D01*
X982148Y5868552D01*
X970801Y5859240D01*
X957853Y5852320D01*
X943811Y5848060D01*
X927969Y5846500D01*
X730431Y5846500D01*
X714589Y5848060D01*
X700547Y5852320D01*
X687599Y5859240D01*
X676252Y5868552D01*
X666940Y5879899D01*
X660020Y5892847D01*
X655760Y5906889D01*
X654200Y5922731D01*
X654200Y6745269D01*
X655760Y6761111D01*
X660020Y6775153D01*
X666940Y6788101D01*
X676252Y6799448D01*
X687599Y6808760D01*
X700547Y6815680D01*
X714589Y6819940D01*
X730431Y6821500D01*
X927969Y6821500D01*
X943811Y6819940D01*
X943811Y6819940D01*
G37*
G36*
X443811Y6819940D02*
X457853Y6815680D01*
X470801Y6808760D01*
X482148Y6799448D01*
X491460Y6788101D01*
X498380Y6775153D01*
X502640Y6761111D01*
X504200Y6745269D01*
X504200Y5922731D01*
X502640Y5906889D01*
X498380Y5892847D01*
X491460Y5879899D01*
X482148Y5868552D01*
X470801Y5859240D01*
X457853Y5852320D01*
X443811Y5848060D01*
X427969Y5846500D01*
X230431Y5846500D01*
X214589Y5848060D01*
X200547Y5852320D01*
X187599Y5859240D01*
X176252Y5868552D01*
X166940Y5879899D01*
X160020Y5892847D01*
X155760Y5906889D01*
X154200Y5922731D01*
X154200Y6745269D01*
X155760Y6761111D01*
X160020Y6775153D01*
X166940Y6788101D01*
X176252Y6799448D01*
X187599Y6808760D01*
X200547Y6815680D01*
X214589Y6819940D01*
X230431Y6821500D01*
X427969Y6821500D01*
X443811Y6819940D01*
X443811Y6819940D01*
G37*
G36*
X-56189Y6819940D02*
X-42147Y6815680D01*
X-29199Y6808760D01*
X-17852Y6799448D01*
X-8540Y6788101D01*
X-1620Y6775153D01*
X2640Y6761111D01*
X4200Y6745269D01*
X4200Y5922731D01*
X2640Y5906889D01*
X-1620Y5892847D01*
X-8540Y5879899D01*
X-17852Y5868552D01*
X-29199Y5859240D01*
X-42147Y5852320D01*
X-56189Y5848060D01*
X-72031Y5846500D01*
X-269569Y5846500D01*
X-285411Y5848060D01*
X-299453Y5852320D01*
X-312401Y5859240D01*
X-323748Y5868552D01*
X-333060Y5879899D01*
X-339980Y5892847D01*
X-344240Y5906889D01*
X-345800Y5922731D01*
X-345800Y6745269D01*
X-344240Y6761111D01*
X-339980Y6775153D01*
X-333060Y6788101D01*
X-323748Y6799448D01*
X-312401Y6808760D01*
X-299453Y6815680D01*
X-285411Y6819940D01*
X-269569Y6821500D01*
X-72031Y6821500D01*
X-56189Y6819940D01*
X-56189Y6819940D01*
G37*
G36*
X-556189Y6819940D02*
X-542147Y6815680D01*
X-529199Y6808760D01*
X-517852Y6799448D01*
X-508540Y6788101D01*
X-501620Y6775153D01*
X-497360Y6761111D01*
X-495800Y6745269D01*
X-495800Y5922731D01*
X-497360Y5906889D01*
X-501620Y5892847D01*
X-508540Y5879899D01*
X-517852Y5868552D01*
X-529199Y5859240D01*
X-542147Y5852320D01*
X-556189Y5848060D01*
X-572031Y5846500D01*
X-769569Y5846500D01*
X-785411Y5848060D01*
X-799453Y5852320D01*
X-812401Y5859240D01*
X-823748Y5868552D01*
X-833060Y5879899D01*
X-839980Y5892847D01*
X-844240Y5906889D01*
X-845800Y5922731D01*
X-845800Y6745269D01*
X-844240Y6761111D01*
X-839980Y6775153D01*
X-833060Y6788101D01*
X-823748Y6799448D01*
X-812401Y6808760D01*
X-799453Y6815680D01*
X-785411Y6819940D01*
X-769569Y6821500D01*
X-572031Y6821500D01*
X-556189Y6819940D01*
X-556189Y6819940D01*
G37*
G36*
X-1056189Y6819940D02*
X-1042147Y6815680D01*
X-1029199Y6808760D01*
X-1017852Y6799448D01*
X-1008540Y6788101D01*
X-1001620Y6775153D01*
X-997360Y6761111D01*
X-995800Y6745269D01*
X-995800Y5922731D01*
X-997360Y5906889D01*
X-1001620Y5892847D01*
X-1008540Y5879899D01*
X-1017852Y5868552D01*
X-1029199Y5859240D01*
X-1042147Y5852320D01*
X-1056189Y5848060D01*
X-1072031Y5846500D01*
X-1269569Y5846500D01*
X-1285411Y5848060D01*
X-1299453Y5852320D01*
X-1312401Y5859240D01*
X-1323748Y5868552D01*
X-1333060Y5879899D01*
X-1339980Y5892847D01*
X-1344240Y5906889D01*
X-1345800Y5922731D01*
X-1345800Y6745269D01*
X-1344240Y6761111D01*
X-1339980Y6775153D01*
X-1333060Y6788101D01*
X-1323748Y6799448D01*
X-1312401Y6808760D01*
X-1299453Y6815680D01*
X-1285411Y6819940D01*
X-1269569Y6821500D01*
X-1072031Y6821500D01*
X-1056189Y6819940D01*
X-1056189Y6819940D01*
G37*
G36*
X5030391Y6863306D02*
X5060385Y6854208D01*
X5088021Y6839436D01*
X5112251Y6819551D01*
X5132136Y6795321D01*
X5146908Y6767685D01*
X5156006Y6737691D01*
X5159200Y6705267D01*
X5159200Y6287733D01*
X5156006Y6255309D01*
X5146908Y6225315D01*
X5132136Y6197679D01*
X5112251Y6173449D01*
X5088021Y6153564D01*
X5060385Y6138792D01*
X5030391Y6129694D01*
X4997967Y6126500D01*
X4630433Y6126500D01*
X4598009Y6129694D01*
X4568015Y6138792D01*
X4540379Y6153564D01*
X4516149Y6173449D01*
X4496264Y6197679D01*
X4481492Y6225315D01*
X4472394Y6255309D01*
X4469200Y6287733D01*
X4469200Y6705267D01*
X4472394Y6737691D01*
X4481492Y6767685D01*
X4496264Y6795321D01*
X4516149Y6819551D01*
X4540379Y6839436D01*
X4568015Y6854208D01*
X4598009Y6863306D01*
X4630433Y6866500D01*
X4997967Y6866500D01*
X5030391Y6863306D01*
X5030391Y6863306D01*
G37*
G36*
X4060391Y6863306D02*
X4090385Y6854208D01*
X4118021Y6839436D01*
X4142251Y6819551D01*
X4162136Y6795321D01*
X4176908Y6767685D01*
X4186006Y6737691D01*
X4189200Y6705267D01*
X4189200Y6287733D01*
X4186006Y6255309D01*
X4176908Y6225315D01*
X4162136Y6197679D01*
X4142251Y6173449D01*
X4118021Y6153564D01*
X4090385Y6138792D01*
X4060391Y6129694D01*
X4027967Y6126500D01*
X3660433Y6126500D01*
X3628009Y6129694D01*
X3598015Y6138792D01*
X3570379Y6153564D01*
X3546149Y6173449D01*
X3526264Y6197679D01*
X3511492Y6225315D01*
X3502394Y6255309D01*
X3499200Y6287733D01*
X3499200Y6705267D01*
X3502394Y6737691D01*
X3511492Y6767685D01*
X3526264Y6795321D01*
X3546149Y6819551D01*
X3570379Y6839436D01*
X3598015Y6854208D01*
X3628009Y6863306D01*
X3660433Y6866500D01*
X4027967Y6866500D01*
X4060391Y6863306D01*
X4060391Y6863306D01*
G37*
G36*
X-11024955Y7477285D02*
X-10933961Y7439594D01*
X-10852069Y7384875D01*
X-10782425Y7315231D01*
X-10727706Y7233339D01*
X-10690015Y7142345D01*
X-10670800Y7045746D01*
X-10670800Y6947254D01*
X-10690015Y6850655D01*
X-10721289Y6775153D01*
X-10727706Y6759661D01*
X-10771579Y6694000D01*
X-10782425Y6677769D01*
X-10852069Y6608125D01*
X-10933961Y6553406D01*
X-11024955Y6515715D01*
X-11121554Y6496500D01*
X-11220046Y6496500D01*
X-11316645Y6515715D01*
X-11407639Y6553406D01*
X-11489531Y6608125D01*
X-11559175Y6677769D01*
X-11570020Y6694000D01*
X-11613894Y6759661D01*
X-11620311Y6775153D01*
X-11651585Y6850655D01*
X-11670800Y6947254D01*
X-11670800Y7045746D01*
X-11651585Y7142345D01*
X-11613894Y7233339D01*
X-11559175Y7315231D01*
X-11489531Y7384875D01*
X-11407639Y7439594D01*
X-11316645Y7477285D01*
X-11220046Y7496500D01*
X-11121554Y7496500D01*
X-11024955Y7477285D01*
X-11024955Y7477285D01*
G37*
M02*
