G04 #@! TF.GenerationSoftware,KiCad,Pcbnew,(5.0.1)-4*
G04 #@! TF.CreationDate,2019-04-11T15:05:26+02:00*
G04 #@! TF.ProjectId,nk-fido2,6E6B2D6669646F322E6B696361645F70,R2*
G04 #@! TF.SameCoordinates,PX791ddc0PY5e69114*
G04 #@! TF.FileFunction,Copper,L2,Bot,Signal*
G04 #@! TF.FilePolarity,Positive*
%FSLAX46Y46*%
G04 Gerber Fmt 4.6, Leading zero omitted, Abs format (unit mm)*
G04 Created by KiCad (PCBNEW (5.0.1)-4) date 11.04.2019 15:05:26*
%MOMM*%
%LPD*%
G01*
G04 APERTURE LIST*
G04 #@! TA.AperFunction,SMDPad,CuDef*
%ADD10R,0.550000X0.800000*%
G04 #@! TD*
G04 #@! TA.AperFunction,ComponentPad*
%ADD11C,1.099820*%
G04 #@! TD*
G04 #@! TA.AperFunction,SMDPad,CuDef*
%ADD12R,1.998980X1.198880*%
G04 #@! TD*
G04 #@! TA.AperFunction,ComponentPad*
%ADD13O,3.500120X1.501140*%
G04 #@! TD*
G04 #@! TA.AperFunction,BGAPad,CuDef*
%ADD14C,6.000000*%
G04 #@! TD*
G04 #@! TA.AperFunction,BGAPad,CuDef*
%ADD15C,0.500000*%
G04 #@! TD*
G04 #@! TA.AperFunction,ViaPad*
%ADD16C,0.500000*%
G04 #@! TD*
G04 #@! TA.AperFunction,Conductor*
%ADD17C,0.150000*%
G04 #@! TD*
G04 #@! TA.AperFunction,Conductor*
%ADD18C,1.000000*%
G04 #@! TD*
G04 #@! TA.AperFunction,Conductor*
%ADD19C,0.500000*%
G04 #@! TD*
G04 #@! TA.AperFunction,Conductor*
%ADD20C,0.300000*%
G04 #@! TD*
G04 #@! TA.AperFunction,Conductor*
%ADD21C,0.250000*%
G04 #@! TD*
G04 #@! TA.AperFunction,Conductor*
%ADD22C,0.200000*%
G04 #@! TD*
G04 #@! TA.AperFunction,Conductor*
%ADD23C,0.254000*%
G04 #@! TD*
G04 APERTURE END LIST*
D10*
G04 #@! TO.P,D2,B*
G04 #@! TO.N,Net-(D2-PadB)*
X-11190800Y-853500D03*
G04 #@! TO.P,D2,A*
G04 #@! TO.N,Net-(D2-PadA)*
X-10250800Y-853500D03*
G04 #@! TO.P,D2,R*
G04 #@! TO.N,Net-(D2-PadR)*
X-10250800Y746500D03*
G04 #@! TO.P,D2,G*
G04 #@! TO.N,Net-(D2-PadG)*
X-11190800Y746500D03*
G04 #@! TD*
D11*
G04 #@! TO.P,J1,8*
G04 #@! TO.N,N/C*
X6999600Y2234450D03*
G04 #@! TO.P,J1,7*
X6999600Y-2266430D03*
D12*
G04 #@! TO.P,J1,4*
G04 #@! TO.N,GND*
X4599020Y3484130D03*
G04 #@! TO.P,J1,1*
G04 #@! TO.N,+5V*
X4599020Y-3516110D03*
G04 #@! TO.P,J1,3*
G04 #@! TO.N,/HD+*
X4599020Y1000010D03*
G04 #@! TO.P,J1,2*
G04 #@! TO.N,/HD-*
X4599020Y-1016750D03*
D13*
G04 #@! TO.P,J1,6*
G04 #@! TO.N,Net-(C5-Pad1)*
X6999600Y-5715750D03*
G04 #@! TO.P,J1,5*
X6999600Y5683770D03*
G04 #@! TD*
D14*
G04 #@! TO.P,P1,1*
G04 #@! TO.N,Net-(P1-Pad1)*
X-5570800Y-2888500D03*
G04 #@! TD*
D15*
G04 #@! TO.P,FID4,~*
G04 #@! TO.N,N/C*
X6479200Y-7353500D03*
G04 #@! TD*
G04 #@! TO.P,FID2,~*
G04 #@! TO.N,N/C*
X-11170800Y6996500D03*
G04 #@! TD*
D16*
G04 #@! TO.N,/HD+*
X4629200Y2096500D03*
X1079200Y411500D03*
G04 #@! TO.N,/HD-*
X4629200Y-2053500D03*
X329312Y396504D03*
G04 #@! TO.N,/Button*
X-670800Y7296476D03*
X1029200Y-6838500D03*
G04 #@! TO.N,Net-(P1-Pad1)*
X-1397930Y-3311370D03*
G04 #@! TO.N,/Button_reset*
X2516700Y1511500D03*
X3279206Y-4988500D03*
G04 #@! TO.N,+5V*
X-4970800Y-7488500D03*
X5929200Y-2703500D03*
G04 #@! TO.N,+3V3*
X6029200Y2846500D03*
X2779175Y-588473D03*
X679200Y-2588500D03*
X-1231683Y-1077617D03*
G04 #@! TO.N,Net-(D2-PadA)*
X-10720800Y-53506D03*
G04 #@! TO.N,Net-(U1-Pad3)*
X829200Y7211500D03*
X-3370800Y5646502D03*
G04 #@! TO.N,Net-(D2-PadG)*
X-11190800Y1646500D03*
G04 #@! TO.N,Net-(D2-PadR)*
X-10250800Y1646500D03*
G04 #@! TO.N,Net-(D2-PadB)*
X-11190800Y-1783500D03*
G04 #@! TO.N,Net-(U1-Pad11)*
X-3370794Y4946500D03*
X-3370796Y3296500D03*
G04 #@! TO.N,GND*
X79200Y3896500D03*
X2529200Y6296500D03*
X3829200Y5646500D03*
X7879200Y2811500D03*
X-2620800Y1211500D03*
X1809348Y-2685158D03*
X1204210Y-5488500D03*
X3020214Y-4358231D03*
X5629200Y4511500D03*
X229200Y-3838500D03*
G04 #@! TD*
D17*
G04 #@! TO.N,/HD+*
X4629200Y1030190D02*
X4599020Y1000010D01*
X4629200Y2096500D02*
X4629200Y1030190D01*
X1667710Y1000010D02*
X1329199Y661499D01*
X4599020Y1000010D02*
X1667710Y1000010D01*
X1329199Y661499D02*
X1079200Y411500D01*
G04 #@! TO.N,/HD-*
X4629200Y-1046930D02*
X4599020Y-1016750D01*
X4629200Y-2053500D02*
X4629200Y-1046930D01*
X1742454Y-1016750D02*
X1514204Y-788500D01*
X1789178Y-1063474D02*
X1514204Y-788500D01*
X4599020Y-1016750D02*
X4599020Y-1063474D01*
X4599020Y-1063474D02*
X1789178Y-1063474D01*
X1514204Y-788500D02*
X1514204Y-788388D01*
X579311Y146505D02*
X329312Y396504D01*
X1514204Y-788388D02*
X579311Y146505D01*
G04 #@! TO.N,/Button*
X729200Y-6538500D02*
X1029200Y-6838500D01*
X729200Y-5888500D02*
X729200Y-6538500D01*
X729200Y-6038500D02*
X729200Y-5888500D01*
X-2670800Y5296476D02*
X-670800Y7296476D01*
X-2670800Y3061500D02*
X-2670800Y5296476D01*
X-3120800Y2611500D02*
X-2670800Y3061500D01*
X-3120800Y861500D02*
X-3120800Y2611500D01*
X729200Y-5888500D02*
X729200Y-3438500D01*
X729200Y-3438500D02*
X1229200Y-2938500D01*
X1229200Y-2938500D02*
X1229200Y-2438500D01*
X1229200Y-2438500D02*
X-620800Y-588500D01*
X-620800Y-588500D02*
X-1670800Y-588500D01*
X-1670800Y-588500D02*
X-3120800Y861500D01*
G04 #@! TO.N,/Button_reset*
X2516700Y1511500D02*
X579200Y1511500D01*
X-145689Y186389D02*
X2479200Y-2438500D01*
X-145689Y786611D02*
X-145689Y186389D01*
X579200Y1511500D02*
X-145689Y786611D01*
X2870521Y-4988500D02*
X3224074Y-4988500D01*
X2479200Y-4597179D02*
X2870521Y-4988500D01*
X2479200Y-4438500D02*
X2479200Y-4597179D01*
X2479200Y-2438500D02*
X2479200Y-4438500D01*
G04 #@! TO.N,Net-(C5-Pad1)*
X7316950Y-5715750D02*
X6999600Y-5715750D01*
X6999600Y5683770D02*
X7441930Y5683770D01*
D18*
X7916950Y-5715750D02*
X7316950Y-5715750D01*
X8779200Y-4853500D02*
X7916950Y-5715750D01*
X8779200Y4796500D02*
X8779200Y-4853500D01*
X7441930Y5683770D02*
X7891930Y5683770D01*
X7891930Y5683770D02*
X8779200Y4796500D01*
D19*
G04 #@! TO.N,+5V*
X5116590Y-3516110D02*
X5929200Y-2703500D01*
D17*
X4599020Y-3516110D02*
X5116590Y-3516110D01*
D20*
X-4620800Y-7488500D02*
X-4920800Y-7488500D01*
X-4320800Y-7488500D02*
X2229200Y-7488500D01*
X-4320800Y-7488500D02*
X-4620800Y-7488500D01*
X4599020Y-5268680D02*
X4599020Y-3516110D01*
X4599020Y-5418680D02*
X4599020Y-5268680D01*
X2229200Y-7488500D02*
X2529200Y-7488500D01*
X2529200Y-7488500D02*
X4599020Y-5418680D01*
D21*
G04 #@! TO.N,+3V3*
X3029174Y-338474D02*
X2779175Y-588473D01*
X3379148Y11500D02*
X3029174Y-338474D01*
X5729200Y11500D02*
X3379148Y11500D01*
D22*
X5979200Y2846500D02*
X5979200Y261500D01*
D20*
X-620801Y-1288500D02*
X679200Y-2588501D01*
D17*
X-1231683Y-1077617D02*
X-870800Y-1077617D01*
X-870800Y-1077617D02*
X-831684Y-1077617D01*
D20*
X-831684Y-1077617D02*
X-1231683Y-1077617D01*
X-620801Y-1288500D02*
X-831684Y-1077617D01*
D23*
X6029200Y311500D02*
X5879200Y161500D01*
X6029200Y2846500D02*
X6029200Y311500D01*
D22*
X5979200Y261500D02*
X5879200Y161500D01*
D23*
X5879200Y161500D02*
X5729200Y11500D01*
D17*
G04 #@! TO.N,Net-(D2-PadA)*
X-10250800Y-973500D02*
X-10250800Y-853500D01*
D22*
X-10470801Y-303505D02*
X-10720800Y-53506D01*
X-10420800Y-353506D02*
X-10470801Y-303505D01*
X-10250800Y-973500D02*
X-10420800Y-803500D01*
X-10420800Y-803500D02*
X-10420800Y-353506D01*
D17*
G04 #@! TO.N,Net-(U1-Pad3)*
X-3120801Y5896501D02*
X-3370800Y5646502D01*
X-1245825Y7771477D02*
X-3120801Y5896501D01*
X269223Y7771477D02*
X-1245825Y7771477D01*
X829200Y7296698D02*
X744002Y7296698D01*
X744002Y7296698D02*
X269223Y7771477D01*
G04 #@! TO.N,Net-(D2-PadG)*
X-11190800Y746500D02*
X-11190800Y1646500D01*
G04 #@! TO.N,Net-(D2-PadR)*
X-10250800Y746500D02*
X-10250800Y1646500D01*
G04 #@! TO.N,Net-(D2-PadB)*
X-11190800Y-853500D02*
X-11190800Y-1783500D01*
G04 #@! TO.N,Net-(U1-Pad11)*
X-3370796Y4946498D02*
X-3370794Y4946500D01*
X-3370796Y3296500D02*
X-3370796Y4946498D01*
G04 #@! TD*
G04 #@! TO.N,GND*
G36*
X3375470Y7123537D02*
X3370092Y7096500D01*
X3391399Y6989384D01*
X3450437Y6901026D01*
X3452075Y6898575D01*
X3542884Y6837899D01*
X3650000Y6816592D01*
X3677036Y6821970D01*
X4322964Y6821970D01*
X4350000Y6816592D01*
X4457116Y6837899D01*
X4547925Y6898575D01*
X4608601Y6989384D01*
X4624530Y7069463D01*
X4624530Y7069464D01*
X4629908Y7096500D01*
X4624530Y7123537D01*
X4624530Y7846970D01*
X9225071Y7846970D01*
X9225071Y5375934D01*
X8981074Y5619931D01*
X8993772Y5683770D01*
X8918056Y6064418D01*
X8702436Y6387116D01*
X8379738Y6602736D01*
X8095172Y6659340D01*
X5904028Y6659340D01*
X5619462Y6602736D01*
X5296764Y6387116D01*
X5081144Y6064418D01*
X5005428Y5683770D01*
X5081144Y5303122D01*
X5296764Y4980424D01*
X5619462Y4764804D01*
X5904028Y4708200D01*
X7842195Y4708200D01*
X8054200Y4496195D01*
X8054201Y-4553195D01*
X7867216Y-4740180D01*
X5904028Y-4740180D01*
X5619462Y-4796784D01*
X5296764Y-5012404D01*
X5081144Y-5335102D01*
X5005428Y-5715750D01*
X5081144Y-6096398D01*
X5296764Y-6419096D01*
X5619462Y-6634716D01*
X5904028Y-6691320D01*
X8095172Y-6691320D01*
X8379738Y-6634716D01*
X8702436Y-6419096D01*
X8918056Y-6096398D01*
X8993772Y-5715750D01*
X8985225Y-5672779D01*
X9225070Y-5432934D01*
X9225070Y-7878970D01*
X6713151Y-7878970D01*
X6804911Y-7840962D01*
X6966662Y-7679211D01*
X7054200Y-7467875D01*
X7054200Y-7239125D01*
X6966662Y-7027789D01*
X6804911Y-6866038D01*
X6593575Y-6778500D01*
X6364825Y-6778500D01*
X6153489Y-6866038D01*
X5991738Y-7027789D01*
X5904200Y-7239125D01*
X5904200Y-7467875D01*
X5991738Y-7679211D01*
X6153489Y-7840962D01*
X6245249Y-7878970D01*
X4624530Y-7878970D01*
X4624530Y-7130537D01*
X4629908Y-7103500D01*
X4608601Y-6996384D01*
X4547925Y-6905575D01*
X4457116Y-6844899D01*
X4377037Y-6828970D01*
X4350000Y-6823592D01*
X4322964Y-6828970D01*
X3719059Y-6828970D01*
X4838073Y-5709957D01*
X4869379Y-5689039D01*
X4952262Y-5564997D01*
X4974020Y-5455611D01*
X4974020Y-5455606D01*
X4981365Y-5418680D01*
X4974020Y-5381754D01*
X4974020Y-4344958D01*
X5598510Y-4344958D01*
X5686301Y-4327495D01*
X5760726Y-4277766D01*
X5810455Y-4203341D01*
X5827918Y-4115550D01*
X5827918Y-3476533D01*
X6298153Y-3006299D01*
X6331886Y-2972566D01*
X6350143Y-2928489D01*
X6376638Y-2888836D01*
X6385942Y-2842062D01*
X6404200Y-2797983D01*
X6404200Y-2766918D01*
X6560649Y-2923367D01*
X6845461Y-3041340D01*
X7153739Y-3041340D01*
X7438551Y-2923367D01*
X7656537Y-2705381D01*
X7774510Y-2420569D01*
X7774510Y-2112291D01*
X7656537Y-1827479D01*
X7438551Y-1609493D01*
X7153739Y-1491520D01*
X6845461Y-1491520D01*
X6560649Y-1609493D01*
X6342663Y-1827479D01*
X6224690Y-2112291D01*
X6224690Y-2327238D01*
X6198266Y-2300814D01*
X6154186Y-2282556D01*
X6114535Y-2256062D01*
X6067763Y-2246758D01*
X6023683Y-2228500D01*
X5975973Y-2228500D01*
X5929199Y-2219196D01*
X5882425Y-2228500D01*
X5834717Y-2228500D01*
X5790638Y-2246758D01*
X5743864Y-2256062D01*
X5704211Y-2282557D01*
X5660134Y-2300814D01*
X5626401Y-2334547D01*
X5273687Y-2687262D01*
X3599530Y-2687262D01*
X3511739Y-2704725D01*
X3437314Y-2754454D01*
X3387585Y-2828879D01*
X3370122Y-2916670D01*
X3370122Y-4115550D01*
X3387585Y-4203341D01*
X3437314Y-4277766D01*
X3511739Y-4327495D01*
X3599530Y-4344958D01*
X4224021Y-4344958D01*
X4224020Y-5231749D01*
X4224020Y-5263350D01*
X2373871Y-7113500D01*
X1425952Y-7113500D01*
X1431886Y-7107566D01*
X1504200Y-6932983D01*
X1504200Y-6744017D01*
X1431886Y-6569434D01*
X1298266Y-6435814D01*
X1123683Y-6363500D01*
X1029200Y-6363500D01*
X1029200Y-3562763D01*
X1420439Y-3171524D01*
X1445488Y-3154788D01*
X1511793Y-3055554D01*
X1529200Y-2968045D01*
X1529200Y-2968044D01*
X1535077Y-2938500D01*
X1529200Y-2908955D01*
X1529200Y-2468044D01*
X1535077Y-2438499D01*
X1511793Y-2321446D01*
X1480457Y-2274548D01*
X1445488Y-2222212D01*
X1420439Y-2205475D01*
X-387773Y-397264D01*
X-404512Y-372212D01*
X-503746Y-305907D01*
X-591255Y-288500D01*
X-620800Y-282623D01*
X-650345Y-288500D01*
X-1546536Y-288500D01*
X-2621647Y786611D01*
X-451566Y786611D01*
X-445689Y757066D01*
X-445688Y215938D01*
X-451566Y186389D01*
X-428282Y69336D01*
X-428281Y69335D01*
X-361976Y-29899D01*
X-336927Y-46636D01*
X2179200Y-2562764D01*
X2179201Y-4408951D01*
X2179200Y-4408956D01*
X2179200Y-4567634D01*
X2173323Y-4597179D01*
X2179200Y-4626723D01*
X2179200Y-4626724D01*
X2196607Y-4714233D01*
X2262913Y-4813467D01*
X2287962Y-4830204D01*
X2637496Y-5179739D01*
X2654233Y-5204788D01*
X2753467Y-5271093D01*
X2840976Y-5288500D01*
X2870520Y-5294377D01*
X2900064Y-5288500D01*
X2907454Y-5288500D01*
X3010140Y-5391186D01*
X3184723Y-5463500D01*
X3373689Y-5463500D01*
X3548272Y-5391186D01*
X3681892Y-5257566D01*
X3754206Y-5082983D01*
X3754206Y-4894017D01*
X3681892Y-4719434D01*
X3548272Y-4585814D01*
X3373689Y-4513500D01*
X3184723Y-4513500D01*
X3010140Y-4585814D01*
X2951119Y-4644835D01*
X2779200Y-4472916D01*
X2779200Y-2468045D01*
X2785077Y-2438500D01*
X2761793Y-2321446D01*
X2730457Y-2274548D01*
X2695488Y-2222212D01*
X2670440Y-2205476D01*
X1828438Y-1363474D01*
X3370122Y-1363474D01*
X3370122Y-1616190D01*
X3387585Y-1703981D01*
X3437314Y-1778406D01*
X3511739Y-1828135D01*
X3599530Y-1845598D01*
X4201179Y-1845598D01*
X4154200Y-1959017D01*
X4154200Y-2147983D01*
X4226514Y-2322566D01*
X4360134Y-2456186D01*
X4534717Y-2528500D01*
X4723683Y-2528500D01*
X4898266Y-2456186D01*
X5031886Y-2322566D01*
X5104200Y-2147983D01*
X5104200Y-1959017D01*
X5057221Y-1845598D01*
X5598510Y-1845598D01*
X5686301Y-1828135D01*
X5760726Y-1778406D01*
X5810455Y-1703981D01*
X5827918Y-1616190D01*
X5827918Y-417310D01*
X5810783Y-331168D01*
X5866543Y-320077D01*
X5953586Y-261916D01*
X5960837Y-254665D01*
X5981535Y-240835D01*
X5995365Y-220137D01*
X6253582Y38080D01*
X6282978Y57722D01*
X6360777Y174156D01*
X6381200Y276831D01*
X6388096Y311499D01*
X6381200Y346168D01*
X6381200Y1756962D01*
X6560649Y1577513D01*
X6845461Y1459540D01*
X7153739Y1459540D01*
X7438551Y1577513D01*
X7656537Y1795499D01*
X7774510Y2080311D01*
X7774510Y2388589D01*
X7656537Y2673401D01*
X7438551Y2891387D01*
X7153739Y3009360D01*
X6845461Y3009360D01*
X6560649Y2891387D01*
X6504200Y2834938D01*
X6504200Y2940983D01*
X6431886Y3115566D01*
X6298266Y3249186D01*
X6123683Y3321500D01*
X5934717Y3321500D01*
X5760134Y3249186D01*
X5626514Y3115566D01*
X5554200Y2940983D01*
X5554200Y2752017D01*
X5626514Y2577434D01*
X5654200Y2549748D01*
X5654200Y1817780D01*
X5598510Y1828858D01*
X5032476Y1828858D01*
X5104200Y2002017D01*
X5104200Y2190983D01*
X5031886Y2365566D01*
X4898266Y2499186D01*
X4723683Y2571500D01*
X4534717Y2571500D01*
X4360134Y2499186D01*
X4226514Y2365566D01*
X4154200Y2190983D01*
X4154200Y2002017D01*
X4225924Y1828858D01*
X3599530Y1828858D01*
X3511739Y1811395D01*
X3437314Y1761666D01*
X3387585Y1687241D01*
X3370122Y1599450D01*
X3370122Y1300010D01*
X2943235Y1300010D01*
X2991700Y1417017D01*
X2991700Y1605983D01*
X2919386Y1780566D01*
X2785766Y1914186D01*
X2611183Y1986500D01*
X2422217Y1986500D01*
X2247634Y1914186D01*
X2144948Y1811500D01*
X608745Y1811500D01*
X579200Y1817377D01*
X549655Y1811500D01*
X462146Y1794093D01*
X362912Y1727788D01*
X346175Y1702739D01*
X-336925Y1019638D01*
X-361977Y1002899D01*
X-421953Y913136D01*
X-428282Y903664D01*
X-451566Y786611D01*
X-2621647Y786611D01*
X-2820800Y985763D01*
X-2820800Y2487237D01*
X-2479561Y2828476D01*
X-2454512Y2845212D01*
X-2388207Y2944446D01*
X-2388207Y2944447D01*
X-2364923Y3061499D01*
X-2370800Y3091044D01*
X-2370800Y5172213D01*
X-721536Y6821476D01*
X-576317Y6821476D01*
X-401734Y6893790D01*
X-268114Y7027410D01*
X-195800Y7201993D01*
X-195800Y7390959D01*
X-229151Y7471477D01*
X144960Y7471477D01*
X354200Y7262236D01*
X354200Y7117017D01*
X426514Y6942434D01*
X560134Y6808814D01*
X734717Y6736500D01*
X923683Y6736500D01*
X1098266Y6808814D01*
X1231886Y6942434D01*
X1304200Y7117017D01*
X1304200Y7305983D01*
X1231886Y7480566D01*
X1098266Y7614186D01*
X923683Y7686500D01*
X778464Y7686500D01*
X617993Y7846970D01*
X3375471Y7846970D01*
X3375470Y7123537D01*
X3375470Y7123537D01*
G37*
X3375470Y7123537D02*
X3370092Y7096500D01*
X3391399Y6989384D01*
X3450437Y6901026D01*
X3452075Y6898575D01*
X3542884Y6837899D01*
X3650000Y6816592D01*
X3677036Y6821970D01*
X4322964Y6821970D01*
X4350000Y6816592D01*
X4457116Y6837899D01*
X4547925Y6898575D01*
X4608601Y6989384D01*
X4624530Y7069463D01*
X4624530Y7069464D01*
X4629908Y7096500D01*
X4624530Y7123537D01*
X4624530Y7846970D01*
X9225071Y7846970D01*
X9225071Y5375934D01*
X8981074Y5619931D01*
X8993772Y5683770D01*
X8918056Y6064418D01*
X8702436Y6387116D01*
X8379738Y6602736D01*
X8095172Y6659340D01*
X5904028Y6659340D01*
X5619462Y6602736D01*
X5296764Y6387116D01*
X5081144Y6064418D01*
X5005428Y5683770D01*
X5081144Y5303122D01*
X5296764Y4980424D01*
X5619462Y4764804D01*
X5904028Y4708200D01*
X7842195Y4708200D01*
X8054200Y4496195D01*
X8054201Y-4553195D01*
X7867216Y-4740180D01*
X5904028Y-4740180D01*
X5619462Y-4796784D01*
X5296764Y-5012404D01*
X5081144Y-5335102D01*
X5005428Y-5715750D01*
X5081144Y-6096398D01*
X5296764Y-6419096D01*
X5619462Y-6634716D01*
X5904028Y-6691320D01*
X8095172Y-6691320D01*
X8379738Y-6634716D01*
X8702436Y-6419096D01*
X8918056Y-6096398D01*
X8993772Y-5715750D01*
X8985225Y-5672779D01*
X9225070Y-5432934D01*
X9225070Y-7878970D01*
X6713151Y-7878970D01*
X6804911Y-7840962D01*
X6966662Y-7679211D01*
X7054200Y-7467875D01*
X7054200Y-7239125D01*
X6966662Y-7027789D01*
X6804911Y-6866038D01*
X6593575Y-6778500D01*
X6364825Y-6778500D01*
X6153489Y-6866038D01*
X5991738Y-7027789D01*
X5904200Y-7239125D01*
X5904200Y-7467875D01*
X5991738Y-7679211D01*
X6153489Y-7840962D01*
X6245249Y-7878970D01*
X4624530Y-7878970D01*
X4624530Y-7130537D01*
X4629908Y-7103500D01*
X4608601Y-6996384D01*
X4547925Y-6905575D01*
X4457116Y-6844899D01*
X4377037Y-6828970D01*
X4350000Y-6823592D01*
X4322964Y-6828970D01*
X3719059Y-6828970D01*
X4838073Y-5709957D01*
X4869379Y-5689039D01*
X4952262Y-5564997D01*
X4974020Y-5455611D01*
X4974020Y-5455606D01*
X4981365Y-5418680D01*
X4974020Y-5381754D01*
X4974020Y-4344958D01*
X5598510Y-4344958D01*
X5686301Y-4327495D01*
X5760726Y-4277766D01*
X5810455Y-4203341D01*
X5827918Y-4115550D01*
X5827918Y-3476533D01*
X6298153Y-3006299D01*
X6331886Y-2972566D01*
X6350143Y-2928489D01*
X6376638Y-2888836D01*
X6385942Y-2842062D01*
X6404200Y-2797983D01*
X6404200Y-2766918D01*
X6560649Y-2923367D01*
X6845461Y-3041340D01*
X7153739Y-3041340D01*
X7438551Y-2923367D01*
X7656537Y-2705381D01*
X7774510Y-2420569D01*
X7774510Y-2112291D01*
X7656537Y-1827479D01*
X7438551Y-1609493D01*
X7153739Y-1491520D01*
X6845461Y-1491520D01*
X6560649Y-1609493D01*
X6342663Y-1827479D01*
X6224690Y-2112291D01*
X6224690Y-2327238D01*
X6198266Y-2300814D01*
X6154186Y-2282556D01*
X6114535Y-2256062D01*
X6067763Y-2246758D01*
X6023683Y-2228500D01*
X5975973Y-2228500D01*
X5929199Y-2219196D01*
X5882425Y-2228500D01*
X5834717Y-2228500D01*
X5790638Y-2246758D01*
X5743864Y-2256062D01*
X5704211Y-2282557D01*
X5660134Y-2300814D01*
X5626401Y-2334547D01*
X5273687Y-2687262D01*
X3599530Y-2687262D01*
X3511739Y-2704725D01*
X3437314Y-2754454D01*
X3387585Y-2828879D01*
X3370122Y-2916670D01*
X3370122Y-4115550D01*
X3387585Y-4203341D01*
X3437314Y-4277766D01*
X3511739Y-4327495D01*
X3599530Y-4344958D01*
X4224021Y-4344958D01*
X4224020Y-5231749D01*
X4224020Y-5263350D01*
X2373871Y-7113500D01*
X1425952Y-7113500D01*
X1431886Y-7107566D01*
X1504200Y-6932983D01*
X1504200Y-6744017D01*
X1431886Y-6569434D01*
X1298266Y-6435814D01*
X1123683Y-6363500D01*
X1029200Y-6363500D01*
X1029200Y-3562763D01*
X1420439Y-3171524D01*
X1445488Y-3154788D01*
X1511793Y-3055554D01*
X1529200Y-2968045D01*
X1529200Y-2968044D01*
X1535077Y-2938500D01*
X1529200Y-2908955D01*
X1529200Y-2468044D01*
X1535077Y-2438499D01*
X1511793Y-2321446D01*
X1480457Y-2274548D01*
X1445488Y-2222212D01*
X1420439Y-2205475D01*
X-387773Y-397264D01*
X-404512Y-372212D01*
X-503746Y-305907D01*
X-591255Y-288500D01*
X-620800Y-282623D01*
X-650345Y-288500D01*
X-1546536Y-288500D01*
X-2621647Y786611D01*
X-451566Y786611D01*
X-445689Y757066D01*
X-445688Y215938D01*
X-451566Y186389D01*
X-428282Y69336D01*
X-428281Y69335D01*
X-361976Y-29899D01*
X-336927Y-46636D01*
X2179200Y-2562764D01*
X2179201Y-4408951D01*
X2179200Y-4408956D01*
X2179200Y-4567634D01*
X2173323Y-4597179D01*
X2179200Y-4626723D01*
X2179200Y-4626724D01*
X2196607Y-4714233D01*
X2262913Y-4813467D01*
X2287962Y-4830204D01*
X2637496Y-5179739D01*
X2654233Y-5204788D01*
X2753467Y-5271093D01*
X2840976Y-5288500D01*
X2870520Y-5294377D01*
X2900064Y-5288500D01*
X2907454Y-5288500D01*
X3010140Y-5391186D01*
X3184723Y-5463500D01*
X3373689Y-5463500D01*
X3548272Y-5391186D01*
X3681892Y-5257566D01*
X3754206Y-5082983D01*
X3754206Y-4894017D01*
X3681892Y-4719434D01*
X3548272Y-4585814D01*
X3373689Y-4513500D01*
X3184723Y-4513500D01*
X3010140Y-4585814D01*
X2951119Y-4644835D01*
X2779200Y-4472916D01*
X2779200Y-2468045D01*
X2785077Y-2438500D01*
X2761793Y-2321446D01*
X2730457Y-2274548D01*
X2695488Y-2222212D01*
X2670440Y-2205476D01*
X1828438Y-1363474D01*
X3370122Y-1363474D01*
X3370122Y-1616190D01*
X3387585Y-1703981D01*
X3437314Y-1778406D01*
X3511739Y-1828135D01*
X3599530Y-1845598D01*
X4201179Y-1845598D01*
X4154200Y-1959017D01*
X4154200Y-2147983D01*
X4226514Y-2322566D01*
X4360134Y-2456186D01*
X4534717Y-2528500D01*
X4723683Y-2528500D01*
X4898266Y-2456186D01*
X5031886Y-2322566D01*
X5104200Y-2147983D01*
X5104200Y-1959017D01*
X5057221Y-1845598D01*
X5598510Y-1845598D01*
X5686301Y-1828135D01*
X5760726Y-1778406D01*
X5810455Y-1703981D01*
X5827918Y-1616190D01*
X5827918Y-417310D01*
X5810783Y-331168D01*
X5866543Y-320077D01*
X5953586Y-261916D01*
X5960837Y-254665D01*
X5981535Y-240835D01*
X5995365Y-220137D01*
X6253582Y38080D01*
X6282978Y57722D01*
X6360777Y174156D01*
X6381200Y276831D01*
X6388096Y311499D01*
X6381200Y346168D01*
X6381200Y1756962D01*
X6560649Y1577513D01*
X6845461Y1459540D01*
X7153739Y1459540D01*
X7438551Y1577513D01*
X7656537Y1795499D01*
X7774510Y2080311D01*
X7774510Y2388589D01*
X7656537Y2673401D01*
X7438551Y2891387D01*
X7153739Y3009360D01*
X6845461Y3009360D01*
X6560649Y2891387D01*
X6504200Y2834938D01*
X6504200Y2940983D01*
X6431886Y3115566D01*
X6298266Y3249186D01*
X6123683Y3321500D01*
X5934717Y3321500D01*
X5760134Y3249186D01*
X5626514Y3115566D01*
X5554200Y2940983D01*
X5554200Y2752017D01*
X5626514Y2577434D01*
X5654200Y2549748D01*
X5654200Y1817780D01*
X5598510Y1828858D01*
X5032476Y1828858D01*
X5104200Y2002017D01*
X5104200Y2190983D01*
X5031886Y2365566D01*
X4898266Y2499186D01*
X4723683Y2571500D01*
X4534717Y2571500D01*
X4360134Y2499186D01*
X4226514Y2365566D01*
X4154200Y2190983D01*
X4154200Y2002017D01*
X4225924Y1828858D01*
X3599530Y1828858D01*
X3511739Y1811395D01*
X3437314Y1761666D01*
X3387585Y1687241D01*
X3370122Y1599450D01*
X3370122Y1300010D01*
X2943235Y1300010D01*
X2991700Y1417017D01*
X2991700Y1605983D01*
X2919386Y1780566D01*
X2785766Y1914186D01*
X2611183Y1986500D01*
X2422217Y1986500D01*
X2247634Y1914186D01*
X2144948Y1811500D01*
X608745Y1811500D01*
X579200Y1817377D01*
X549655Y1811500D01*
X462146Y1794093D01*
X362912Y1727788D01*
X346175Y1702739D01*
X-336925Y1019638D01*
X-361977Y1002899D01*
X-421953Y913136D01*
X-428282Y903664D01*
X-451566Y786611D01*
X-2621647Y786611D01*
X-2820800Y985763D01*
X-2820800Y2487237D01*
X-2479561Y2828476D01*
X-2454512Y2845212D01*
X-2388207Y2944446D01*
X-2388207Y2944447D01*
X-2364923Y3061499D01*
X-2370800Y3091044D01*
X-2370800Y5172213D01*
X-721536Y6821476D01*
X-576317Y6821476D01*
X-401734Y6893790D01*
X-268114Y7027410D01*
X-195800Y7201993D01*
X-195800Y7390959D01*
X-229151Y7471477D01*
X144960Y7471477D01*
X354200Y7262236D01*
X354200Y7117017D01*
X426514Y6942434D01*
X560134Y6808814D01*
X734717Y6736500D01*
X923683Y6736500D01*
X1098266Y6808814D01*
X1231886Y6942434D01*
X1304200Y7117017D01*
X1304200Y7305983D01*
X1231886Y7480566D01*
X1098266Y7614186D01*
X923683Y7686500D01*
X778464Y7686500D01*
X617993Y7846970D01*
X3375471Y7846970D01*
X3375470Y7123537D01*
D22*
G04 #@! TO.N,Net-(P1-Pad1)*
G36*
X-4841367Y7590645D02*
X-4641119Y7290953D01*
X-4570800Y6937435D01*
X-4570800Y1366758D01*
X-4568758Y1346651D01*
X-4487903Y952731D01*
X-4481860Y933446D01*
X-4338577Y599119D01*
X-4329469Y582448D01*
X-4117431Y269261D01*
X-4105335Y254613D01*
X-941367Y-2909355D01*
X-741119Y-3209047D01*
X-670800Y-3562565D01*
X-670800Y-5214435D01*
X-741119Y-5567953D01*
X-941367Y-5867645D01*
X-1141655Y-6067933D01*
X-1441347Y-6268181D01*
X-1794865Y-6338500D01*
X-4956586Y-6338500D01*
X-4976095Y-6340421D01*
X-5358779Y-6416541D01*
X-5394827Y-6431473D01*
X-5719250Y-6648246D01*
X-5734404Y-6660682D01*
X-6877692Y-7803970D01*
X-11925470Y-7803970D01*
X-11925470Y-3545615D01*
X-11903031Y-3512153D01*
X-11599945Y-3209067D01*
X-11300253Y-3008819D01*
X-10946735Y-2938500D01*
X-10485014Y-2938500D01*
X-10465505Y-2936579D01*
X-10082821Y-2860459D01*
X-10046773Y-2845527D01*
X-9722350Y-2628754D01*
X-9707196Y-2616318D01*
X-9292982Y-2202104D01*
X-9280546Y-2186950D01*
X-9063773Y-1862527D01*
X-9048841Y-1826479D01*
X-8972721Y-1443795D01*
X-8970800Y-1424286D01*
X-8970800Y1547286D01*
X-8972721Y1566795D01*
X-9048841Y1949479D01*
X-9063773Y1985527D01*
X-9280546Y2309950D01*
X-9292982Y2325104D01*
X-9407196Y2439318D01*
X-9422350Y2451754D01*
X-9746773Y2668527D01*
X-9782821Y2683459D01*
X-10165505Y2759579D01*
X-10185014Y2761500D01*
X-10646735Y2761500D01*
X-11000253Y2831819D01*
X-11299945Y3032067D01*
X-11600233Y3332355D01*
X-11800481Y3632047D01*
X-11870800Y3985565D01*
X-11870800Y5648333D01*
X-11814155Y5859736D01*
X-11669036Y6004855D01*
X-11457633Y6061500D01*
X-11385014Y6061500D01*
X-11365505Y6063421D01*
X-10982821Y6139541D01*
X-10946773Y6154473D01*
X-10888541Y6193382D01*
X-10689314Y6275905D01*
X-10450205Y6515014D01*
X-10402860Y6629315D01*
X-10263773Y6837473D01*
X-10248841Y6873521D01*
X-10172721Y7256205D01*
X-10170800Y7275714D01*
X-10170800Y7751649D01*
X-10166758Y7771970D01*
X-5022692Y7771970D01*
X-4841367Y7590645D01*
X-4841367Y7590645D01*
G37*
X-4841367Y7590645D02*
X-4641119Y7290953D01*
X-4570800Y6937435D01*
X-4570800Y1366758D01*
X-4568758Y1346651D01*
X-4487903Y952731D01*
X-4481860Y933446D01*
X-4338577Y599119D01*
X-4329469Y582448D01*
X-4117431Y269261D01*
X-4105335Y254613D01*
X-941367Y-2909355D01*
X-741119Y-3209047D01*
X-670800Y-3562565D01*
X-670800Y-5214435D01*
X-741119Y-5567953D01*
X-941367Y-5867645D01*
X-1141655Y-6067933D01*
X-1441347Y-6268181D01*
X-1794865Y-6338500D01*
X-4956586Y-6338500D01*
X-4976095Y-6340421D01*
X-5358779Y-6416541D01*
X-5394827Y-6431473D01*
X-5719250Y-6648246D01*
X-5734404Y-6660682D01*
X-6877692Y-7803970D01*
X-11925470Y-7803970D01*
X-11925470Y-3545615D01*
X-11903031Y-3512153D01*
X-11599945Y-3209067D01*
X-11300253Y-3008819D01*
X-10946735Y-2938500D01*
X-10485014Y-2938500D01*
X-10465505Y-2936579D01*
X-10082821Y-2860459D01*
X-10046773Y-2845527D01*
X-9722350Y-2628754D01*
X-9707196Y-2616318D01*
X-9292982Y-2202104D01*
X-9280546Y-2186950D01*
X-9063773Y-1862527D01*
X-9048841Y-1826479D01*
X-8972721Y-1443795D01*
X-8970800Y-1424286D01*
X-8970800Y1547286D01*
X-8972721Y1566795D01*
X-9048841Y1949479D01*
X-9063773Y1985527D01*
X-9280546Y2309950D01*
X-9292982Y2325104D01*
X-9407196Y2439318D01*
X-9422350Y2451754D01*
X-9746773Y2668527D01*
X-9782821Y2683459D01*
X-10165505Y2759579D01*
X-10185014Y2761500D01*
X-10646735Y2761500D01*
X-11000253Y2831819D01*
X-11299945Y3032067D01*
X-11600233Y3332355D01*
X-11800481Y3632047D01*
X-11870800Y3985565D01*
X-11870800Y5648333D01*
X-11814155Y5859736D01*
X-11669036Y6004855D01*
X-11457633Y6061500D01*
X-11385014Y6061500D01*
X-11365505Y6063421D01*
X-10982821Y6139541D01*
X-10946773Y6154473D01*
X-10888541Y6193382D01*
X-10689314Y6275905D01*
X-10450205Y6515014D01*
X-10402860Y6629315D01*
X-10263773Y6837473D01*
X-10248841Y6873521D01*
X-10172721Y7256205D01*
X-10170800Y7275714D01*
X-10170800Y7751649D01*
X-10166758Y7771970D01*
X-5022692Y7771970D01*
X-4841367Y7590645D01*
G04 #@! TD*
M02*
