M48
;DRILL file {KiCad (5.0.1)-4} date 08.05.2019 11:24:22
;FORMAT={-:-/ absolute / metric / decimal}
FMAT,2
METRIC,TZ
T1C0.200
T2C1.001
T3C1.100
%
G90
G05
M71
T1
X-4.971Y-7.488
X-3.371Y3.062
X-3.371Y1.761
X-3.371Y4.497
X-3.371Y5.197
X-3.365Y5.978
X-2.485Y0.897
X-2.371Y5.884
X-1.561Y7.441
X-1.561Y6.781
X-1.398Y-3.311
X-1.321Y-0.988
X-0.501Y4.021
X-0.501Y2.871
X0.579Y-2.788
X0.659Y4.021
X0.659Y2.871
X0.711Y-0.092
X1.029Y-6.838
X1.139Y6.781
X1.204Y-5.489
X1.809Y-2.788
X2.517Y1.111
X2.529Y5.846
X2.669Y-0.148
X2.829Y-1.288
X3.02Y-4.358
X3.279Y-4.989
X3.829Y5.646
X4.629Y2.096
X4.629Y-2.054
X5.629Y4.511
X5.929Y-2.704
X6.029Y2.846
X7.879Y2.811
T3
X7.Y2.234
X7.Y-2.266
T2
X7.749Y5.684G85X6.25Y5.684
G05
X7.749Y-5.716G85X6.25Y-5.716
G05
T0
M30
