G04 #@! TF.GenerationSoftware,KiCad,Pcbnew,5.1.5-52549c5~86~ubuntu18.04.1*
G04 #@! TF.CreationDate,2020-04-22T16:07:33+02:00*
G04 #@! TF.ProjectId,nk-fido2,6e6b2d66-6964-46f3-922e-6b696361645f,R5*
G04 #@! TF.SameCoordinates,Original*
G04 #@! TF.FileFunction,Soldermask,Top*
G04 #@! TF.FilePolarity,Negative*
%FSLAX46Y46*%
G04 Gerber Fmt 4.6, Leading zero omitted, Abs format (unit mm)*
G04 Created by KiCad (PCBNEW 5.1.5-52549c5~86~ubuntu18.04.1) date 2020-04-22 16:07:33*
%MOMM*%
%LPD*%
G04 APERTURE LIST*
%ADD10C,0.150000*%
%ADD11C,0.001000*%
G04 APERTURE END LIST*
D10*
G36*
X135112000Y-105317890D02*
G01*
X135712000Y-104717890D01*
X135712000Y-106817890D01*
X132312000Y-106817890D01*
X132312000Y-104717890D01*
X132912000Y-105317890D01*
X135112000Y-105317890D01*
G37*
X135112000Y-105317890D02*
X135712000Y-104717890D01*
X135712000Y-106817890D01*
X132312000Y-106817890D01*
X132312000Y-104717890D01*
X132912000Y-105317890D01*
X135112000Y-105317890D01*
G36*
X132912000Y-92718370D02*
G01*
X132312000Y-93318370D01*
X132312000Y-91218370D01*
X135712000Y-91218370D01*
X135712000Y-93318370D01*
X135112000Y-92718370D01*
X132912000Y-92718370D01*
G37*
X132912000Y-92718370D02*
X132312000Y-93318370D01*
X132312000Y-91218370D01*
X135712000Y-91218370D01*
X135712000Y-93318370D01*
X135112000Y-92718370D01*
X132912000Y-92718370D01*
G36*
X129449200Y-102235000D02*
G01*
X129879200Y-102665000D01*
X130309200Y-102235000D01*
X129879200Y-101805000D01*
X129449200Y-102235000D01*
G37*
G36*
X129349200Y-102935000D02*
G01*
X129749200Y-102935000D01*
X129749200Y-102635000D01*
X129399200Y-102285000D01*
X129349200Y-102285000D01*
X129349200Y-102935000D01*
G37*
G36*
X130009200Y-101535000D02*
G01*
X130409200Y-101535000D01*
X130409200Y-102060000D01*
X130234200Y-102060000D01*
X130009200Y-101835000D01*
X130009200Y-101535000D01*
G37*
G36*
X130409200Y-102935000D02*
G01*
X130009200Y-102935000D01*
X130009200Y-102635000D01*
X130234200Y-102410000D01*
X130409200Y-102410000D01*
X130409200Y-102935000D01*
G37*
G36*
X129349200Y-101535000D02*
G01*
X129749200Y-101535000D01*
X129749200Y-101835000D01*
X129524200Y-102060000D01*
X129349200Y-102060000D01*
X129349200Y-101535000D01*
G37*
D11*
X129407100Y-102325000D02*
X129357100Y-102325000D01*
D10*
G36*
X124629200Y-106450000D02*
G01*
X124229200Y-106450000D01*
X124229200Y-105800000D01*
X124629200Y-105800000D01*
X124629200Y-106450000D01*
G37*
G36*
X124129200Y-106450000D02*
G01*
X123729200Y-106450000D01*
X123729200Y-105800000D01*
X124129200Y-105800000D01*
X124129200Y-106450000D01*
G37*
G36*
X123129200Y-106450000D02*
G01*
X122729200Y-106450000D01*
X122729200Y-105800000D01*
X123129200Y-105800000D01*
X123129200Y-106450000D01*
G37*
G36*
X123629200Y-106450000D02*
G01*
X123229200Y-106450000D01*
X123229200Y-105800000D01*
X123629200Y-105800000D01*
X123629200Y-106450000D01*
G37*
G36*
X125770391Y-105593194D02*
G01*
X125800385Y-105602292D01*
X125828027Y-105617067D01*
X125852252Y-105636948D01*
X125872133Y-105661173D01*
X125886908Y-105688815D01*
X125896006Y-105718809D01*
X125899200Y-105751232D01*
X125899200Y-106118768D01*
X125896006Y-106151191D01*
X125886908Y-106181185D01*
X125872133Y-106208827D01*
X125852252Y-106233052D01*
X125828027Y-106252933D01*
X125800385Y-106267708D01*
X125770391Y-106276806D01*
X125737968Y-106280000D01*
X125320432Y-106280000D01*
X125288009Y-106276806D01*
X125258015Y-106267708D01*
X125230373Y-106252933D01*
X125206148Y-106233052D01*
X125186267Y-106208827D01*
X125171492Y-106181185D01*
X125162394Y-106151191D01*
X125159200Y-106118768D01*
X125159200Y-105751232D01*
X125162394Y-105718809D01*
X125171492Y-105688815D01*
X125186267Y-105661173D01*
X125206148Y-105636948D01*
X125230373Y-105617067D01*
X125258015Y-105602292D01*
X125288009Y-105593194D01*
X125320432Y-105590000D01*
X125737968Y-105590000D01*
X125770391Y-105593194D01*
G37*
G36*
X129709200Y-106275000D02*
G01*
X128549200Y-106275000D01*
X128549200Y-105525000D01*
X129709200Y-105525000D01*
X129709200Y-106275000D01*
G37*
G36*
X127509200Y-106275000D02*
G01*
X126349200Y-106275000D01*
X126349200Y-105525000D01*
X127509200Y-105525000D01*
X127509200Y-106275000D01*
G37*
G36*
X119825000Y-105890000D02*
G01*
X116625000Y-105890000D01*
X116625000Y-103590000D01*
X119825000Y-103590000D01*
X119825000Y-105890000D01*
G37*
G36*
X131520391Y-104978194D02*
G01*
X131550385Y-104987292D01*
X131578027Y-105002067D01*
X131602252Y-105021948D01*
X131622133Y-105046173D01*
X131636908Y-105073815D01*
X131646006Y-105103809D01*
X131649200Y-105136232D01*
X131649200Y-105503768D01*
X131646006Y-105536191D01*
X131636908Y-105566185D01*
X131622133Y-105593827D01*
X131602252Y-105618052D01*
X131578027Y-105637933D01*
X131550385Y-105652708D01*
X131520391Y-105661806D01*
X131487968Y-105665000D01*
X131070432Y-105665000D01*
X131038009Y-105661806D01*
X131008015Y-105652708D01*
X130980373Y-105637933D01*
X130956148Y-105618052D01*
X130936267Y-105593827D01*
X130921492Y-105566185D01*
X130912394Y-105536191D01*
X130909200Y-105503768D01*
X130909200Y-105136232D01*
X130912394Y-105103809D01*
X130921492Y-105073815D01*
X130936267Y-105046173D01*
X130956148Y-105021948D01*
X130980373Y-105002067D01*
X131008015Y-104987292D01*
X131038009Y-104978194D01*
X131070432Y-104975000D01*
X131487968Y-104975000D01*
X131520391Y-104978194D01*
G37*
G36*
X135156029Y-103923264D02*
G01*
X135280400Y-103960992D01*
X135306941Y-103969043D01*
X135424850Y-104032067D01*
X135446015Y-104043380D01*
X135567917Y-104143423D01*
X135667960Y-104265325D01*
X135667961Y-104265327D01*
X135742297Y-104404399D01*
X135742298Y-104404403D01*
X135788076Y-104555311D01*
X135803533Y-104712250D01*
X135788076Y-104869189D01*
X135752249Y-104987292D01*
X135742297Y-105020101D01*
X135674200Y-105147500D01*
X135667960Y-105159175D01*
X135567917Y-105281077D01*
X135446015Y-105381120D01*
X135446013Y-105381121D01*
X135306941Y-105455457D01*
X135280400Y-105463508D01*
X135156029Y-105501236D01*
X135038414Y-105512820D01*
X132960786Y-105512820D01*
X132843171Y-105501236D01*
X132718800Y-105463508D01*
X132692259Y-105455457D01*
X132553187Y-105381121D01*
X132553185Y-105381120D01*
X132431283Y-105281077D01*
X132331240Y-105159175D01*
X132325000Y-105147500D01*
X132256903Y-105020101D01*
X132246951Y-104987292D01*
X132211124Y-104869189D01*
X132195667Y-104712250D01*
X132211124Y-104555311D01*
X132256902Y-104404403D01*
X132256903Y-104404399D01*
X132331239Y-104265327D01*
X132331240Y-104265325D01*
X132431283Y-104143423D01*
X132553185Y-104043380D01*
X132574350Y-104032067D01*
X132692259Y-103969043D01*
X132718800Y-103960992D01*
X132843171Y-103923264D01*
X132960786Y-103911680D01*
X135038414Y-103911680D01*
X135156029Y-103923264D01*
G37*
G36*
X124479200Y-105500000D02*
G01*
X122879200Y-105500000D01*
X122879200Y-104100000D01*
X124479200Y-104100000D01*
X124479200Y-105500000D01*
G37*
G36*
X129709200Y-105325000D02*
G01*
X128549200Y-105325000D01*
X128549200Y-104575000D01*
X129709200Y-104575000D01*
X129709200Y-105325000D01*
G37*
G36*
X127509200Y-105325000D02*
G01*
X126349200Y-105325000D01*
X126349200Y-104575000D01*
X127509200Y-104575000D01*
X127509200Y-105325000D01*
G37*
G36*
X125770391Y-104623194D02*
G01*
X125800385Y-104632292D01*
X125828027Y-104647067D01*
X125852252Y-104666948D01*
X125872133Y-104691173D01*
X125886908Y-104718815D01*
X125896006Y-104748809D01*
X125899200Y-104781232D01*
X125899200Y-105148768D01*
X125896006Y-105181191D01*
X125886908Y-105211185D01*
X125872133Y-105238827D01*
X125852252Y-105263052D01*
X125828027Y-105282933D01*
X125800385Y-105297708D01*
X125770391Y-105306806D01*
X125737968Y-105310000D01*
X125320432Y-105310000D01*
X125288009Y-105306806D01*
X125258015Y-105297708D01*
X125230373Y-105282933D01*
X125206148Y-105263052D01*
X125186267Y-105238827D01*
X125171492Y-105211185D01*
X125162394Y-105181191D01*
X125159200Y-105148768D01*
X125159200Y-104781232D01*
X125162394Y-104748809D01*
X125171492Y-104718815D01*
X125186267Y-104691173D01*
X125206148Y-104666948D01*
X125230373Y-104647067D01*
X125258015Y-104632292D01*
X125288009Y-104623194D01*
X125320432Y-104620000D01*
X125737968Y-104620000D01*
X125770391Y-104623194D01*
G37*
G36*
X131520391Y-104008194D02*
G01*
X131550385Y-104017292D01*
X131578027Y-104032067D01*
X131602252Y-104051948D01*
X131622133Y-104076173D01*
X131636908Y-104103815D01*
X131646006Y-104133809D01*
X131649200Y-104166232D01*
X131649200Y-104533768D01*
X131646006Y-104566191D01*
X131636908Y-104596185D01*
X131622133Y-104623827D01*
X131602252Y-104648052D01*
X131578027Y-104667933D01*
X131550385Y-104682708D01*
X131520391Y-104691806D01*
X131487968Y-104695000D01*
X131070432Y-104695000D01*
X131038009Y-104691806D01*
X131008015Y-104682708D01*
X130980373Y-104667933D01*
X130956148Y-104648052D01*
X130936267Y-104623827D01*
X130921492Y-104596185D01*
X130912394Y-104566191D01*
X130909200Y-104533768D01*
X130909200Y-104166232D01*
X130912394Y-104133809D01*
X130921492Y-104103815D01*
X130936267Y-104076173D01*
X130956148Y-104051948D01*
X130980373Y-104032067D01*
X131008015Y-104017292D01*
X131038009Y-104008194D01*
X131070432Y-104005000D01*
X131487968Y-104005000D01*
X131520391Y-104008194D01*
G37*
G36*
X129709200Y-104375000D02*
G01*
X128549200Y-104375000D01*
X128549200Y-103625000D01*
X129709200Y-103625000D01*
X129709200Y-104375000D01*
G37*
G36*
X127509200Y-104375000D02*
G01*
X126349200Y-104375000D01*
X126349200Y-103625000D01*
X127509200Y-103625000D01*
X127509200Y-104375000D01*
G37*
G36*
X125770391Y-103643194D02*
G01*
X125800385Y-103652292D01*
X125828027Y-103667067D01*
X125852252Y-103686948D01*
X125872133Y-103711173D01*
X125886908Y-103738815D01*
X125896006Y-103768809D01*
X125899200Y-103801232D01*
X125899200Y-104168768D01*
X125896006Y-104201191D01*
X125886908Y-104231185D01*
X125872133Y-104258827D01*
X125852252Y-104283052D01*
X125828027Y-104302933D01*
X125800385Y-104317708D01*
X125770391Y-104326806D01*
X125737968Y-104330000D01*
X125320432Y-104330000D01*
X125288009Y-104326806D01*
X125258015Y-104317708D01*
X125230373Y-104302933D01*
X125206148Y-104283052D01*
X125186267Y-104258827D01*
X125171492Y-104231185D01*
X125162394Y-104201191D01*
X125159200Y-104168768D01*
X125159200Y-103801232D01*
X125162394Y-103768809D01*
X125171492Y-103738815D01*
X125186267Y-103711173D01*
X125206148Y-103686948D01*
X125230373Y-103667067D01*
X125258015Y-103652292D01*
X125288009Y-103643194D01*
X125320432Y-103640000D01*
X125737968Y-103640000D01*
X125770391Y-103643194D01*
G37*
G36*
X123629200Y-103800000D02*
G01*
X123229200Y-103800000D01*
X123229200Y-103150000D01*
X123629200Y-103150000D01*
X123629200Y-103800000D01*
G37*
G36*
X124129200Y-103800000D02*
G01*
X123729200Y-103800000D01*
X123729200Y-103150000D01*
X124129200Y-103150000D01*
X124129200Y-103800000D01*
G37*
G36*
X124629200Y-103800000D02*
G01*
X124229200Y-103800000D01*
X124229200Y-103150000D01*
X124629200Y-103150000D01*
X124629200Y-103800000D01*
G37*
G36*
X123129200Y-103800000D02*
G01*
X122729200Y-103800000D01*
X122729200Y-103150000D01*
X123129200Y-103150000D01*
X123129200Y-103800000D01*
G37*
G36*
X134174587Y-100686074D02*
G01*
X134283764Y-100731296D01*
X134382021Y-100796949D01*
X134465581Y-100880509D01*
X134531234Y-100978766D01*
X134576456Y-101087943D01*
X134599510Y-101203844D01*
X134599510Y-101322016D01*
X134576456Y-101437917D01*
X134531234Y-101547094D01*
X134465581Y-101645351D01*
X134382021Y-101728911D01*
X134283764Y-101794564D01*
X134198046Y-101830069D01*
X134193726Y-101832378D01*
X134189938Y-101835487D01*
X134186829Y-101839275D01*
X134184519Y-101843597D01*
X134183096Y-101848287D01*
X134182616Y-101853164D01*
X134183096Y-101858041D01*
X134184519Y-101862731D01*
X134186829Y-101867053D01*
X134189938Y-101870841D01*
X134193726Y-101873950D01*
X134198048Y-101876260D01*
X134202737Y-101877683D01*
X134220581Y-101881232D01*
X134247106Y-101886508D01*
X134419993Y-101958120D01*
X134575591Y-102062088D01*
X134707912Y-102194409D01*
X134811880Y-102350007D01*
X134883492Y-102522894D01*
X134883492Y-102522895D01*
X134918536Y-102699071D01*
X134920000Y-102706435D01*
X134920000Y-102893565D01*
X134883492Y-103077106D01*
X134811880Y-103249993D01*
X134796164Y-103273513D01*
X134725012Y-103380000D01*
X134707912Y-103405591D01*
X134575591Y-103537912D01*
X134419993Y-103641880D01*
X134247106Y-103713492D01*
X134185926Y-103725661D01*
X134063567Y-103750000D01*
X133876433Y-103750000D01*
X133754074Y-103725661D01*
X133692894Y-103713492D01*
X133520007Y-103641880D01*
X133364409Y-103537912D01*
X133232088Y-103405591D01*
X133214989Y-103380000D01*
X133143836Y-103273513D01*
X133128120Y-103249993D01*
X133056508Y-103077106D01*
X133020000Y-102893565D01*
X133020000Y-102706435D01*
X133021465Y-102699071D01*
X133056508Y-102522895D01*
X133056508Y-102522894D01*
X133128120Y-102350007D01*
X133232088Y-102194409D01*
X133364409Y-102062088D01*
X133520007Y-101958120D01*
X133692894Y-101886508D01*
X133719419Y-101881232D01*
X133777260Y-101869727D01*
X133781945Y-101868305D01*
X133786268Y-101865995D01*
X133790056Y-101862886D01*
X133793165Y-101859098D01*
X133795475Y-101854776D01*
X133796898Y-101850086D01*
X133797378Y-101845209D01*
X133796898Y-101840332D01*
X133795475Y-101835643D01*
X133793165Y-101831320D01*
X133790056Y-101827532D01*
X133786268Y-101824423D01*
X133781946Y-101822113D01*
X133715436Y-101794564D01*
X133697309Y-101782452D01*
X133617179Y-101728911D01*
X133533619Y-101645351D01*
X133467966Y-101547094D01*
X133422744Y-101437917D01*
X133399690Y-101322016D01*
X133399690Y-101203844D01*
X133422744Y-101087943D01*
X133467966Y-100978766D01*
X133533619Y-100880509D01*
X133617179Y-100796949D01*
X133715436Y-100731296D01*
X133824613Y-100686074D01*
X133940514Y-100663020D01*
X134058686Y-100663020D01*
X134174587Y-100686074D01*
G37*
G36*
X132470391Y-102693194D02*
G01*
X132500385Y-102702292D01*
X132528027Y-102717067D01*
X132552252Y-102736948D01*
X132572133Y-102761173D01*
X132586908Y-102788815D01*
X132596006Y-102818809D01*
X132599200Y-102851232D01*
X132599200Y-103218768D01*
X132596006Y-103251191D01*
X132586908Y-103281185D01*
X132572133Y-103308827D01*
X132552252Y-103333052D01*
X132528027Y-103352933D01*
X132500385Y-103367708D01*
X132470391Y-103376806D01*
X132437968Y-103380000D01*
X132020432Y-103380000D01*
X131988009Y-103376806D01*
X131958015Y-103367708D01*
X131930373Y-103352933D01*
X131906148Y-103333052D01*
X131886267Y-103308827D01*
X131871492Y-103281185D01*
X131862394Y-103251191D01*
X131859200Y-103218768D01*
X131859200Y-102851232D01*
X131862394Y-102818809D01*
X131871492Y-102788815D01*
X131886267Y-102761173D01*
X131906148Y-102736948D01*
X131930373Y-102717067D01*
X131958015Y-102702292D01*
X131988009Y-102693194D01*
X132020432Y-102690000D01*
X132437968Y-102690000D01*
X132470391Y-102693194D01*
G37*
G36*
X131420391Y-102693194D02*
G01*
X131450385Y-102702292D01*
X131478027Y-102717067D01*
X131502252Y-102736948D01*
X131522133Y-102761173D01*
X131536908Y-102788815D01*
X131546006Y-102818809D01*
X131549200Y-102851232D01*
X131549200Y-103218768D01*
X131546006Y-103251191D01*
X131536908Y-103281185D01*
X131522133Y-103308827D01*
X131502252Y-103333052D01*
X131478027Y-103352933D01*
X131450385Y-103367708D01*
X131420391Y-103376806D01*
X131387968Y-103380000D01*
X130970432Y-103380000D01*
X130938009Y-103376806D01*
X130908015Y-103367708D01*
X130880373Y-103352933D01*
X130856148Y-103333052D01*
X130836267Y-103308827D01*
X130821492Y-103281185D01*
X130812394Y-103251191D01*
X130809200Y-103218768D01*
X130809200Y-102851232D01*
X130812394Y-102818809D01*
X130821492Y-102788815D01*
X130836267Y-102761173D01*
X130856148Y-102736948D01*
X130880373Y-102717067D01*
X130908015Y-102702292D01*
X130938009Y-102693194D01*
X130970432Y-102690000D01*
X131387968Y-102690000D01*
X131420391Y-102693194D01*
G37*
G36*
X125770391Y-102673194D02*
G01*
X125800385Y-102682292D01*
X125828027Y-102697067D01*
X125852252Y-102716948D01*
X125872133Y-102741173D01*
X125886908Y-102768815D01*
X125896006Y-102798809D01*
X125899200Y-102831232D01*
X125899200Y-103198768D01*
X125896006Y-103231191D01*
X125886908Y-103261185D01*
X125872133Y-103288827D01*
X125852252Y-103313052D01*
X125828027Y-103332933D01*
X125800385Y-103347708D01*
X125770391Y-103356806D01*
X125737968Y-103360000D01*
X125320432Y-103360000D01*
X125288009Y-103356806D01*
X125258015Y-103347708D01*
X125230373Y-103332933D01*
X125206148Y-103313052D01*
X125186267Y-103288827D01*
X125171492Y-103261185D01*
X125162394Y-103231191D01*
X125159200Y-103198768D01*
X125159200Y-102831232D01*
X125162394Y-102798809D01*
X125171492Y-102768815D01*
X125186267Y-102741173D01*
X125206148Y-102716948D01*
X125230373Y-102697067D01*
X125258015Y-102682292D01*
X125288009Y-102673194D01*
X125320432Y-102670000D01*
X125737968Y-102670000D01*
X125770391Y-102673194D01*
G37*
G36*
X119825000Y-103190000D02*
G01*
X116625000Y-103190000D01*
X116625000Y-100890000D01*
X119825000Y-100890000D01*
X119825000Y-103190000D01*
G37*
G36*
X129619200Y-102805000D02*
G01*
X129419200Y-102805000D01*
X129419200Y-102605000D01*
X129619200Y-102605000D01*
X129619200Y-102805000D01*
G37*
G36*
X130339200Y-102805000D02*
G01*
X130139200Y-102805000D01*
X130139200Y-102605000D01*
X130339200Y-102605000D01*
X130339200Y-102805000D01*
G37*
G36*
X130331748Y-102235000D02*
G01*
X129879200Y-102687548D01*
X129426652Y-102235000D01*
X129879200Y-101782452D01*
X130331748Y-102235000D01*
G37*
G36*
X123260391Y-101868194D02*
G01*
X123290385Y-101877292D01*
X123318027Y-101892067D01*
X123342252Y-101911948D01*
X123362133Y-101936173D01*
X123376908Y-101963815D01*
X123386006Y-101993809D01*
X123389200Y-102026232D01*
X123389200Y-102443768D01*
X123386006Y-102476191D01*
X123376908Y-102506185D01*
X123362133Y-102533827D01*
X123342252Y-102558052D01*
X123318027Y-102577933D01*
X123290385Y-102592708D01*
X123260391Y-102601806D01*
X123227968Y-102605000D01*
X122860432Y-102605000D01*
X122828009Y-102601806D01*
X122798015Y-102592708D01*
X122770373Y-102577933D01*
X122746148Y-102558052D01*
X122726267Y-102533827D01*
X122711492Y-102506185D01*
X122702394Y-102476191D01*
X122699200Y-102443768D01*
X122699200Y-102026232D01*
X122702394Y-101993809D01*
X122711492Y-101963815D01*
X122726267Y-101936173D01*
X122746148Y-101911948D01*
X122770373Y-101892067D01*
X122798015Y-101877292D01*
X122828009Y-101868194D01*
X122860432Y-101865000D01*
X123227968Y-101865000D01*
X123260391Y-101868194D01*
G37*
G36*
X124230391Y-101868194D02*
G01*
X124260385Y-101877292D01*
X124288027Y-101892067D01*
X124312252Y-101911948D01*
X124332133Y-101936173D01*
X124346908Y-101963815D01*
X124356006Y-101993809D01*
X124359200Y-102026232D01*
X124359200Y-102443768D01*
X124356006Y-102476191D01*
X124346908Y-102506185D01*
X124332133Y-102533827D01*
X124312252Y-102558052D01*
X124288027Y-102577933D01*
X124260385Y-102592708D01*
X124230391Y-102601806D01*
X124197968Y-102605000D01*
X123830432Y-102605000D01*
X123798009Y-102601806D01*
X123768015Y-102592708D01*
X123740373Y-102577933D01*
X123716148Y-102558052D01*
X123696267Y-102533827D01*
X123681492Y-102506185D01*
X123672394Y-102476191D01*
X123669200Y-102443768D01*
X123669200Y-102026232D01*
X123672394Y-101993809D01*
X123681492Y-101963815D01*
X123696267Y-101936173D01*
X123716148Y-101911948D01*
X123740373Y-101892067D01*
X123768015Y-101877292D01*
X123798009Y-101868194D01*
X123830432Y-101865000D01*
X124197968Y-101865000D01*
X124230391Y-101868194D01*
G37*
G36*
X132470391Y-101723194D02*
G01*
X132500385Y-101732292D01*
X132528027Y-101747067D01*
X132552252Y-101766948D01*
X132572133Y-101791173D01*
X132586908Y-101818815D01*
X132596006Y-101848809D01*
X132599200Y-101881232D01*
X132599200Y-102248768D01*
X132596006Y-102281191D01*
X132586908Y-102311185D01*
X132572133Y-102338827D01*
X132552252Y-102363052D01*
X132528027Y-102382933D01*
X132500385Y-102397708D01*
X132470391Y-102406806D01*
X132437968Y-102410000D01*
X132020432Y-102410000D01*
X131988009Y-102406806D01*
X131958015Y-102397708D01*
X131930373Y-102382933D01*
X131906148Y-102363052D01*
X131886267Y-102338827D01*
X131871492Y-102311185D01*
X131862394Y-102281191D01*
X131859200Y-102248768D01*
X131859200Y-101881232D01*
X131862394Y-101848809D01*
X131871492Y-101818815D01*
X131886267Y-101791173D01*
X131906148Y-101766948D01*
X131930373Y-101747067D01*
X131958015Y-101732292D01*
X131988009Y-101723194D01*
X132020432Y-101720000D01*
X132437968Y-101720000D01*
X132470391Y-101723194D01*
G37*
G36*
X131420391Y-101723194D02*
G01*
X131450385Y-101732292D01*
X131478027Y-101747067D01*
X131502252Y-101766948D01*
X131522133Y-101791173D01*
X131536908Y-101818815D01*
X131546006Y-101848809D01*
X131549200Y-101881232D01*
X131549200Y-102248768D01*
X131546006Y-102281191D01*
X131536908Y-102311185D01*
X131522133Y-102338827D01*
X131502252Y-102363052D01*
X131478027Y-102382933D01*
X131450385Y-102397708D01*
X131420391Y-102406806D01*
X131387968Y-102410000D01*
X130970432Y-102410000D01*
X130938009Y-102406806D01*
X130908015Y-102397708D01*
X130880373Y-102382933D01*
X130856148Y-102363052D01*
X130836267Y-102338827D01*
X130821492Y-102311185D01*
X130812394Y-102281191D01*
X130809200Y-102248768D01*
X130809200Y-101881232D01*
X130812394Y-101848809D01*
X130821492Y-101818815D01*
X130836267Y-101791173D01*
X130856148Y-101766948D01*
X130880373Y-101747067D01*
X130908015Y-101732292D01*
X130938009Y-101723194D01*
X130970432Y-101720000D01*
X131387968Y-101720000D01*
X131420391Y-101723194D01*
G37*
G36*
X126970391Y-101428194D02*
G01*
X127000385Y-101437292D01*
X127028027Y-101452067D01*
X127052252Y-101471948D01*
X127072133Y-101496173D01*
X127086908Y-101523815D01*
X127096006Y-101553809D01*
X127099200Y-101586232D01*
X127099200Y-101953768D01*
X127096006Y-101986191D01*
X127086908Y-102016185D01*
X127072133Y-102043827D01*
X127052252Y-102068052D01*
X127028027Y-102087933D01*
X127000385Y-102102708D01*
X126970391Y-102111806D01*
X126937968Y-102115000D01*
X126520432Y-102115000D01*
X126488009Y-102111806D01*
X126458015Y-102102708D01*
X126430373Y-102087933D01*
X126406148Y-102068052D01*
X126386267Y-102043827D01*
X126371492Y-102016185D01*
X126362394Y-101986191D01*
X126359200Y-101953768D01*
X126359200Y-101586232D01*
X126362394Y-101553809D01*
X126371492Y-101523815D01*
X126386267Y-101496173D01*
X126406148Y-101471948D01*
X126430373Y-101452067D01*
X126458015Y-101437292D01*
X126488009Y-101428194D01*
X126520432Y-101425000D01*
X126937968Y-101425000D01*
X126970391Y-101428194D01*
G37*
G36*
X130329200Y-101885000D02*
G01*
X130129200Y-101885000D01*
X130129200Y-101685000D01*
X130329200Y-101685000D01*
X130329200Y-101885000D01*
G37*
G36*
X129619200Y-101885000D02*
G01*
X129419200Y-101885000D01*
X129419200Y-101685000D01*
X129619200Y-101685000D01*
X129619200Y-101885000D01*
G37*
G36*
X128379200Y-101310000D02*
G01*
X127979200Y-101310000D01*
X127979200Y-100760000D01*
X128379200Y-100760000D01*
X128379200Y-101310000D01*
G37*
G36*
X128879200Y-101310000D02*
G01*
X128479200Y-101310000D01*
X128479200Y-100760000D01*
X128879200Y-100760000D01*
X128879200Y-101310000D01*
G37*
G36*
X129379200Y-101310000D02*
G01*
X128979200Y-101310000D01*
X128979200Y-100760000D01*
X129379200Y-100760000D01*
X129379200Y-101310000D01*
G37*
G36*
X132915926Y-99284339D02*
G01*
X132977106Y-99296508D01*
X133149993Y-99368120D01*
X133149994Y-99368121D01*
X133276824Y-99452866D01*
X133305591Y-99472088D01*
X133437912Y-99604409D01*
X133541880Y-99760007D01*
X133613492Y-99932894D01*
X133623929Y-99985363D01*
X133650000Y-100116433D01*
X133650000Y-100303567D01*
X133625661Y-100425926D01*
X133613492Y-100487106D01*
X133541880Y-100659993D01*
X133494236Y-100731297D01*
X133439301Y-100813513D01*
X133437912Y-100815591D01*
X133305591Y-100947912D01*
X133149993Y-101051880D01*
X132977106Y-101123492D01*
X132934991Y-101131869D01*
X132793567Y-101160000D01*
X132606433Y-101160000D01*
X132465009Y-101131869D01*
X132422894Y-101123492D01*
X132250007Y-101051880D01*
X132094409Y-100947912D01*
X131962088Y-100815591D01*
X131960700Y-100813513D01*
X131905764Y-100731297D01*
X131858120Y-100659993D01*
X131786508Y-100487106D01*
X131774339Y-100425926D01*
X131750000Y-100303567D01*
X131750000Y-100116433D01*
X131776071Y-99985363D01*
X131786508Y-99932894D01*
X131858120Y-99760007D01*
X131962088Y-99604409D01*
X132094409Y-99472088D01*
X132123177Y-99452866D01*
X132250006Y-99368121D01*
X132250007Y-99368120D01*
X132422894Y-99296508D01*
X132484074Y-99284339D01*
X132606433Y-99260000D01*
X132793567Y-99260000D01*
X132915926Y-99284339D01*
G37*
G36*
X135455926Y-99284339D02*
G01*
X135517106Y-99296508D01*
X135689993Y-99368120D01*
X135689994Y-99368121D01*
X135816824Y-99452866D01*
X135845591Y-99472088D01*
X135977912Y-99604409D01*
X136081880Y-99760007D01*
X136153492Y-99932894D01*
X136163929Y-99985363D01*
X136190000Y-100116433D01*
X136190000Y-100303567D01*
X136165661Y-100425926D01*
X136153492Y-100487106D01*
X136081880Y-100659993D01*
X136034236Y-100731297D01*
X135979301Y-100813513D01*
X135977912Y-100815591D01*
X135845591Y-100947912D01*
X135689993Y-101051880D01*
X135517106Y-101123492D01*
X135474991Y-101131869D01*
X135333567Y-101160000D01*
X135146433Y-101160000D01*
X135005009Y-101131869D01*
X134962894Y-101123492D01*
X134790007Y-101051880D01*
X134634409Y-100947912D01*
X134502088Y-100815591D01*
X134500700Y-100813513D01*
X134445764Y-100731297D01*
X134398120Y-100659993D01*
X134326508Y-100487106D01*
X134314339Y-100425926D01*
X134290000Y-100303567D01*
X134290000Y-100116433D01*
X134316071Y-99985363D01*
X134326508Y-99932894D01*
X134398120Y-99760007D01*
X134502088Y-99604409D01*
X134634409Y-99472088D01*
X134663177Y-99452866D01*
X134790006Y-99368121D01*
X134790007Y-99368120D01*
X134962894Y-99296508D01*
X135024074Y-99284339D01*
X135146433Y-99260000D01*
X135333567Y-99260000D01*
X135455926Y-99284339D01*
G37*
G36*
X126970391Y-100458194D02*
G01*
X127000385Y-100467292D01*
X127028027Y-100482067D01*
X127052252Y-100501948D01*
X127072133Y-100526173D01*
X127086908Y-100553815D01*
X127096006Y-100583809D01*
X127099200Y-100616232D01*
X127099200Y-100983768D01*
X127096006Y-101016191D01*
X127086908Y-101046185D01*
X127072133Y-101073827D01*
X127052252Y-101098052D01*
X127028027Y-101117933D01*
X127000385Y-101132708D01*
X126970391Y-101141806D01*
X126937968Y-101145000D01*
X126520432Y-101145000D01*
X126488009Y-101141806D01*
X126458015Y-101132708D01*
X126430373Y-101117933D01*
X126406148Y-101098052D01*
X126386267Y-101073827D01*
X126371492Y-101046185D01*
X126362394Y-101016191D01*
X126359200Y-100983768D01*
X126359200Y-100616232D01*
X126362394Y-100583809D01*
X126371492Y-100553815D01*
X126386267Y-100526173D01*
X126406148Y-100501948D01*
X126430373Y-100482067D01*
X126458015Y-100467292D01*
X126488009Y-100458194D01*
X126520432Y-100455000D01*
X126937968Y-100455000D01*
X126970391Y-100458194D01*
G37*
G36*
X124310391Y-100183194D02*
G01*
X124340385Y-100192292D01*
X124368027Y-100207067D01*
X124392252Y-100226948D01*
X124412133Y-100251173D01*
X124426908Y-100278815D01*
X124436006Y-100308809D01*
X124439200Y-100341232D01*
X124439200Y-100758768D01*
X124436006Y-100791191D01*
X124426908Y-100821185D01*
X124412133Y-100848827D01*
X124392252Y-100873052D01*
X124368027Y-100892933D01*
X124340385Y-100907708D01*
X124310391Y-100916806D01*
X124277968Y-100920000D01*
X123910432Y-100920000D01*
X123878009Y-100916806D01*
X123848015Y-100907708D01*
X123820373Y-100892933D01*
X123796148Y-100873052D01*
X123776267Y-100848827D01*
X123761492Y-100821185D01*
X123752394Y-100791191D01*
X123749200Y-100758768D01*
X123749200Y-100341232D01*
X123752394Y-100308809D01*
X123761492Y-100278815D01*
X123776267Y-100251173D01*
X123796148Y-100226948D01*
X123820373Y-100207067D01*
X123848015Y-100192292D01*
X123878009Y-100183194D01*
X123910432Y-100180000D01*
X124277968Y-100180000D01*
X124310391Y-100183194D01*
G37*
G36*
X125280391Y-100183194D02*
G01*
X125310385Y-100192292D01*
X125338027Y-100207067D01*
X125362252Y-100226948D01*
X125382133Y-100251173D01*
X125396908Y-100278815D01*
X125406006Y-100308809D01*
X125409200Y-100341232D01*
X125409200Y-100758768D01*
X125406006Y-100791191D01*
X125396908Y-100821185D01*
X125382133Y-100848827D01*
X125362252Y-100873052D01*
X125338027Y-100892933D01*
X125310385Y-100907708D01*
X125280391Y-100916806D01*
X125247968Y-100920000D01*
X124880432Y-100920000D01*
X124848009Y-100916806D01*
X124818015Y-100907708D01*
X124790373Y-100892933D01*
X124766148Y-100873052D01*
X124746267Y-100848827D01*
X124731492Y-100821185D01*
X124722394Y-100791191D01*
X124719200Y-100758768D01*
X124719200Y-100341232D01*
X124722394Y-100308809D01*
X124731492Y-100278815D01*
X124746267Y-100251173D01*
X124766148Y-100226948D01*
X124790373Y-100207067D01*
X124818015Y-100192292D01*
X124848009Y-100183194D01*
X124880432Y-100180000D01*
X125247968Y-100180000D01*
X125280391Y-100183194D01*
G37*
G36*
X119429197Y-98884758D02*
G01*
X119429200Y-98884758D01*
X119439002Y-98885723D01*
X119448427Y-98888582D01*
X119457113Y-98893225D01*
X119464726Y-98899474D01*
X119470975Y-98907087D01*
X119475618Y-98915773D01*
X119478477Y-98925198D01*
X119479442Y-98935000D01*
X119479563Y-98936232D01*
X119479563Y-99433768D01*
X119479442Y-99434996D01*
X119479442Y-99435000D01*
X119478477Y-99444802D01*
X119478231Y-99445613D01*
X119477276Y-99450414D01*
X119477155Y-99452866D01*
X119477155Y-99482777D01*
X119477034Y-99484005D01*
X119477034Y-99484009D01*
X119476069Y-99493811D01*
X119476067Y-99493821D01*
X119475947Y-99495039D01*
X119457304Y-99588764D01*
X119456949Y-99589935D01*
X119456947Y-99589944D01*
X119454088Y-99599369D01*
X119453729Y-99600551D01*
X119417161Y-99688835D01*
X119416581Y-99689919D01*
X119416579Y-99689925D01*
X119411936Y-99698611D01*
X119411931Y-99698618D01*
X119411354Y-99699698D01*
X119358262Y-99779156D01*
X119357484Y-99780104D01*
X119357480Y-99780110D01*
X119353573Y-99784870D01*
X119350447Y-99788679D01*
X119282879Y-99856247D01*
X119279070Y-99859373D01*
X119274310Y-99863280D01*
X119274304Y-99863284D01*
X119273356Y-99864062D01*
X119193898Y-99917154D01*
X119192818Y-99917731D01*
X119192811Y-99917736D01*
X119184125Y-99922379D01*
X119184119Y-99922381D01*
X119183035Y-99922961D01*
X119094751Y-99959529D01*
X119093574Y-99959886D01*
X119093569Y-99959888D01*
X119084144Y-99962747D01*
X119084135Y-99962749D01*
X119082964Y-99963104D01*
X118989239Y-99981747D01*
X118988021Y-99981867D01*
X118988011Y-99981869D01*
X118978209Y-99982834D01*
X118978205Y-99982834D01*
X118976977Y-99982955D01*
X118947066Y-99982955D01*
X118942189Y-99983435D01*
X118939818Y-99984030D01*
X118939002Y-99984277D01*
X118929200Y-99985242D01*
X118929196Y-99985242D01*
X118927968Y-99985363D01*
X118430432Y-99985363D01*
X118429204Y-99985242D01*
X118429200Y-99985242D01*
X118419398Y-99984277D01*
X118418587Y-99984031D01*
X118413786Y-99983076D01*
X118411334Y-99982955D01*
X118381423Y-99982955D01*
X118380195Y-99982834D01*
X118380191Y-99982834D01*
X118370389Y-99981869D01*
X118370379Y-99981867D01*
X118369161Y-99981747D01*
X118275436Y-99963104D01*
X118274265Y-99962749D01*
X118274256Y-99962747D01*
X118264831Y-99959888D01*
X118264826Y-99959886D01*
X118263649Y-99959529D01*
X118175365Y-99922961D01*
X118174281Y-99922381D01*
X118174275Y-99922379D01*
X118165589Y-99917736D01*
X118165582Y-99917731D01*
X118164502Y-99917154D01*
X118085044Y-99864062D01*
X118084096Y-99863284D01*
X118084090Y-99863280D01*
X118079330Y-99859373D01*
X118075521Y-99856247D01*
X118007953Y-99788679D01*
X118004827Y-99784870D01*
X118000920Y-99780110D01*
X118000916Y-99780104D01*
X118000138Y-99779156D01*
X117947046Y-99699698D01*
X117946469Y-99698618D01*
X117946464Y-99698611D01*
X117941821Y-99689925D01*
X117941819Y-99689919D01*
X117941239Y-99688835D01*
X117904671Y-99600551D01*
X117904312Y-99599369D01*
X117901453Y-99589944D01*
X117901451Y-99589935D01*
X117901096Y-99588764D01*
X117882453Y-99495039D01*
X117882333Y-99493821D01*
X117882331Y-99493811D01*
X117881366Y-99484009D01*
X117881366Y-99484005D01*
X117881245Y-99482777D01*
X117881245Y-99452866D01*
X117880765Y-99447989D01*
X117880170Y-99445618D01*
X117879923Y-99444802D01*
X117878958Y-99435000D01*
X117878958Y-99434996D01*
X117878837Y-99433768D01*
X117878837Y-98936232D01*
X117878958Y-98935000D01*
X117879923Y-98925198D01*
X117882782Y-98915773D01*
X117887425Y-98907087D01*
X117893674Y-98899474D01*
X117901287Y-98893225D01*
X117909973Y-98888582D01*
X117919398Y-98885723D01*
X117929200Y-98884758D01*
X117929203Y-98884758D01*
X117930432Y-98884637D01*
X119427968Y-98884637D01*
X119429197Y-98884758D01*
G37*
G36*
X128379200Y-99910000D02*
G01*
X127979200Y-99910000D01*
X127979200Y-99360000D01*
X128379200Y-99360000D01*
X128379200Y-99910000D01*
G37*
G36*
X129379200Y-99910000D02*
G01*
X128979200Y-99910000D01*
X128979200Y-99360000D01*
X129379200Y-99360000D01*
X129379200Y-99910000D01*
G37*
G36*
X120654200Y-99885000D02*
G01*
X120204200Y-99885000D01*
X120204200Y-99185000D01*
X120654200Y-99185000D01*
X120654200Y-99885000D01*
G37*
G36*
X121154200Y-99885000D02*
G01*
X120704200Y-99885000D01*
X120704200Y-99185000D01*
X121154200Y-99185000D01*
X121154200Y-99885000D01*
G37*
G36*
X121654200Y-99885000D02*
G01*
X121204200Y-99885000D01*
X121204200Y-99185000D01*
X121654200Y-99185000D01*
X121654200Y-99885000D01*
G37*
G36*
X122154200Y-99885000D02*
G01*
X121704200Y-99885000D01*
X121704200Y-99185000D01*
X122154200Y-99185000D01*
X122154200Y-99885000D01*
G37*
G36*
X122654200Y-99885000D02*
G01*
X122204200Y-99885000D01*
X122204200Y-99185000D01*
X122654200Y-99185000D01*
X122654200Y-99885000D01*
G37*
G36*
X125280391Y-99033194D02*
G01*
X125310385Y-99042292D01*
X125338027Y-99057067D01*
X125362252Y-99076948D01*
X125382133Y-99101173D01*
X125396908Y-99128815D01*
X125406006Y-99158809D01*
X125409200Y-99191232D01*
X125409200Y-99608768D01*
X125406006Y-99641191D01*
X125396908Y-99671185D01*
X125382133Y-99698827D01*
X125362252Y-99723052D01*
X125338027Y-99742933D01*
X125310385Y-99757708D01*
X125280391Y-99766806D01*
X125247968Y-99770000D01*
X124880432Y-99770000D01*
X124848009Y-99766806D01*
X124818015Y-99757708D01*
X124790373Y-99742933D01*
X124766148Y-99723052D01*
X124746267Y-99698827D01*
X124731492Y-99671185D01*
X124722394Y-99641191D01*
X124719200Y-99608768D01*
X124719200Y-99191232D01*
X124722394Y-99158809D01*
X124731492Y-99128815D01*
X124746267Y-99101173D01*
X124766148Y-99076948D01*
X124790373Y-99057067D01*
X124818015Y-99042292D01*
X124848009Y-99033194D01*
X124880432Y-99030000D01*
X125247968Y-99030000D01*
X125280391Y-99033194D01*
G37*
G36*
X124310391Y-99033194D02*
G01*
X124340385Y-99042292D01*
X124368027Y-99057067D01*
X124392252Y-99076948D01*
X124412133Y-99101173D01*
X124426908Y-99128815D01*
X124436006Y-99158809D01*
X124439200Y-99191232D01*
X124439200Y-99608768D01*
X124436006Y-99641191D01*
X124426908Y-99671185D01*
X124412133Y-99698827D01*
X124392252Y-99723052D01*
X124368027Y-99742933D01*
X124340385Y-99757708D01*
X124310391Y-99766806D01*
X124277968Y-99770000D01*
X123910432Y-99770000D01*
X123878009Y-99766806D01*
X123848015Y-99757708D01*
X123820373Y-99742933D01*
X123796148Y-99723052D01*
X123776267Y-99698827D01*
X123761492Y-99671185D01*
X123752394Y-99641191D01*
X123749200Y-99608768D01*
X123749200Y-99191232D01*
X123752394Y-99158809D01*
X123761492Y-99128815D01*
X123776267Y-99101173D01*
X123796148Y-99076948D01*
X123820373Y-99057067D01*
X123848015Y-99042292D01*
X123878009Y-99033194D01*
X123910432Y-99030000D01*
X124277968Y-99030000D01*
X124310391Y-99033194D01*
G37*
G36*
X122669200Y-98910000D02*
G01*
X120189200Y-98910000D01*
X120189200Y-97160000D01*
X122669200Y-97160000D01*
X122669200Y-98910000D01*
G37*
G36*
X118929196Y-97584758D02*
G01*
X118929200Y-97584758D01*
X118939002Y-97585723D01*
X118939813Y-97585969D01*
X118944614Y-97586924D01*
X118947066Y-97587045D01*
X118976977Y-97587045D01*
X118978205Y-97587166D01*
X118978209Y-97587166D01*
X118988011Y-97588131D01*
X118988021Y-97588133D01*
X118989239Y-97588253D01*
X119082964Y-97606896D01*
X119084135Y-97607251D01*
X119084144Y-97607253D01*
X119093569Y-97610112D01*
X119093574Y-97610114D01*
X119094751Y-97610471D01*
X119183035Y-97647039D01*
X119184119Y-97647619D01*
X119184125Y-97647621D01*
X119192811Y-97652264D01*
X119192818Y-97652269D01*
X119193898Y-97652846D01*
X119273356Y-97705938D01*
X119274304Y-97706716D01*
X119274310Y-97706720D01*
X119279070Y-97710627D01*
X119282879Y-97713753D01*
X119350447Y-97781321D01*
X119353573Y-97785130D01*
X119357480Y-97789890D01*
X119357484Y-97789896D01*
X119358262Y-97790844D01*
X119411354Y-97870302D01*
X119411931Y-97871382D01*
X119411936Y-97871389D01*
X119416579Y-97880075D01*
X119416581Y-97880081D01*
X119417161Y-97881165D01*
X119453729Y-97969449D01*
X119454086Y-97970626D01*
X119454088Y-97970631D01*
X119456947Y-97980056D01*
X119456949Y-97980065D01*
X119457304Y-97981236D01*
X119475947Y-98074961D01*
X119476067Y-98076179D01*
X119476069Y-98076189D01*
X119477034Y-98085991D01*
X119477155Y-98087223D01*
X119477155Y-98117134D01*
X119477635Y-98122011D01*
X119478230Y-98124382D01*
X119478477Y-98125198D01*
X119479442Y-98135000D01*
X119479563Y-98136232D01*
X119479563Y-98633768D01*
X119479442Y-98634997D01*
X119479442Y-98635000D01*
X119478477Y-98644802D01*
X119475618Y-98654227D01*
X119470975Y-98662913D01*
X119464726Y-98670526D01*
X119457113Y-98676775D01*
X119448427Y-98681418D01*
X119439002Y-98684277D01*
X119429200Y-98685242D01*
X119429197Y-98685242D01*
X119427968Y-98685363D01*
X117930432Y-98685363D01*
X117929203Y-98685242D01*
X117929200Y-98685242D01*
X117919398Y-98684277D01*
X117909973Y-98681418D01*
X117901287Y-98676775D01*
X117893674Y-98670526D01*
X117887425Y-98662913D01*
X117882782Y-98654227D01*
X117879923Y-98644802D01*
X117878958Y-98635000D01*
X117878958Y-98634997D01*
X117878837Y-98633768D01*
X117878837Y-98136232D01*
X117878958Y-98135000D01*
X117879923Y-98125198D01*
X117880169Y-98124387D01*
X117881124Y-98119586D01*
X117881245Y-98117134D01*
X117881245Y-98087223D01*
X117881366Y-98085991D01*
X117882331Y-98076189D01*
X117882333Y-98076179D01*
X117882453Y-98074961D01*
X117901096Y-97981236D01*
X117901451Y-97980065D01*
X117901453Y-97980056D01*
X117904312Y-97970631D01*
X117904314Y-97970626D01*
X117904671Y-97969449D01*
X117941239Y-97881165D01*
X117941819Y-97880081D01*
X117941821Y-97880075D01*
X117946464Y-97871389D01*
X117946469Y-97871382D01*
X117947046Y-97870302D01*
X118000138Y-97790844D01*
X118000916Y-97789896D01*
X118000920Y-97789890D01*
X118004827Y-97785130D01*
X118007953Y-97781321D01*
X118075521Y-97713753D01*
X118079330Y-97710627D01*
X118084090Y-97706720D01*
X118084096Y-97706716D01*
X118085044Y-97705938D01*
X118164502Y-97652846D01*
X118165582Y-97652269D01*
X118165589Y-97652264D01*
X118174275Y-97647621D01*
X118174281Y-97647619D01*
X118175365Y-97647039D01*
X118263649Y-97610471D01*
X118264826Y-97610114D01*
X118264831Y-97610112D01*
X118274256Y-97607253D01*
X118274265Y-97607251D01*
X118275436Y-97606896D01*
X118369161Y-97588253D01*
X118370379Y-97588133D01*
X118370389Y-97588131D01*
X118380191Y-97587166D01*
X118380195Y-97587166D01*
X118381423Y-97587045D01*
X118411334Y-97587045D01*
X118416211Y-97586565D01*
X118418582Y-97585970D01*
X118419398Y-97585723D01*
X118429200Y-97584758D01*
X118429204Y-97584758D01*
X118430432Y-97584637D01*
X118927968Y-97584637D01*
X118929196Y-97584758D01*
G37*
G36*
X134174587Y-96185194D02*
G01*
X134283764Y-96230416D01*
X134382021Y-96296069D01*
X134465581Y-96379629D01*
X134531234Y-96477886D01*
X134576456Y-96587063D01*
X134599510Y-96702964D01*
X134599510Y-96821136D01*
X134579649Y-96920985D01*
X134579372Y-96922375D01*
X134578892Y-96927252D01*
X134579372Y-96932129D01*
X134580795Y-96936819D01*
X134583105Y-96941141D01*
X134586214Y-96944929D01*
X134590002Y-96948038D01*
X134594324Y-96950348D01*
X134599014Y-96951771D01*
X134603891Y-96952251D01*
X134608768Y-96951771D01*
X134613458Y-96950348D01*
X134617780Y-96948038D01*
X134621568Y-96944929D01*
X134634410Y-96932087D01*
X134790007Y-96828120D01*
X134962894Y-96756508D01*
X135024074Y-96744339D01*
X135146433Y-96720000D01*
X135333567Y-96720000D01*
X135455926Y-96744339D01*
X135517106Y-96756508D01*
X135689993Y-96828120D01*
X135778861Y-96887500D01*
X135845590Y-96932087D01*
X135977913Y-97064410D01*
X135988561Y-97080346D01*
X136081880Y-97220007D01*
X136153492Y-97392894D01*
X136177331Y-97512740D01*
X136190000Y-97576433D01*
X136190000Y-97763567D01*
X136186278Y-97782277D01*
X136153492Y-97947106D01*
X136081880Y-98119993D01*
X135977912Y-98275591D01*
X135845591Y-98407912D01*
X135689993Y-98511880D01*
X135517106Y-98583492D01*
X135459250Y-98595000D01*
X135333567Y-98620000D01*
X135146433Y-98620000D01*
X135020750Y-98595000D01*
X134962894Y-98583492D01*
X134790007Y-98511880D01*
X134634409Y-98407912D01*
X134502088Y-98275591D01*
X134398120Y-98119993D01*
X134326508Y-97947106D01*
X134293722Y-97782277D01*
X134290000Y-97763567D01*
X134290000Y-97576433D01*
X134302669Y-97512740D01*
X134326508Y-97392894D01*
X134368149Y-97292365D01*
X134369572Y-97287675D01*
X134370052Y-97282798D01*
X134369572Y-97277921D01*
X134368149Y-97273231D01*
X134365839Y-97268909D01*
X134362730Y-97265121D01*
X134358942Y-97262012D01*
X134354620Y-97259702D01*
X134349930Y-97258279D01*
X134345053Y-97257799D01*
X134340176Y-97258279D01*
X134335486Y-97259702D01*
X134331167Y-97262010D01*
X134283764Y-97293684D01*
X134174587Y-97338906D01*
X134058686Y-97361960D01*
X133940514Y-97361960D01*
X133824613Y-97338906D01*
X133715436Y-97293684D01*
X133617179Y-97228031D01*
X133533619Y-97144471D01*
X133467966Y-97046214D01*
X133422744Y-96937037D01*
X133399690Y-96821136D01*
X133399690Y-96702964D01*
X133422744Y-96587063D01*
X133467966Y-96477886D01*
X133533619Y-96379629D01*
X133617179Y-96296069D01*
X133715436Y-96230416D01*
X133824613Y-96185194D01*
X133940514Y-96162140D01*
X134058686Y-96162140D01*
X134174587Y-96185194D01*
G37*
G36*
X132969813Y-96780547D02*
G01*
X133138152Y-96850275D01*
X133289653Y-96951505D01*
X133418495Y-97080347D01*
X133519725Y-97231848D01*
X133589453Y-97400187D01*
X133625000Y-97578895D01*
X133625000Y-97761105D01*
X133589453Y-97939813D01*
X133519725Y-98108152D01*
X133418495Y-98259653D01*
X133289653Y-98388495D01*
X133138152Y-98489725D01*
X132969813Y-98559453D01*
X132791105Y-98595000D01*
X132608895Y-98595000D01*
X132430187Y-98559453D01*
X132261848Y-98489725D01*
X132110347Y-98388495D01*
X131981505Y-98259653D01*
X131880275Y-98108152D01*
X131810547Y-97939813D01*
X131775000Y-97761105D01*
X131775000Y-97578895D01*
X131810547Y-97400187D01*
X131880275Y-97231848D01*
X131981505Y-97080347D01*
X132110347Y-96951505D01*
X132261848Y-96850275D01*
X132430187Y-96780547D01*
X132608895Y-96745000D01*
X132791105Y-96745000D01*
X132969813Y-96780547D01*
G37*
G36*
X127943812Y-97501560D02*
G01*
X127957852Y-97505819D01*
X127970799Y-97512740D01*
X127982147Y-97522053D01*
X127991460Y-97533401D01*
X127998381Y-97546348D01*
X128002640Y-97560388D01*
X128004200Y-97576231D01*
X128004200Y-98398769D01*
X128002640Y-98414612D01*
X127998381Y-98428652D01*
X127991460Y-98441599D01*
X127982147Y-98452947D01*
X127970799Y-98462260D01*
X127957852Y-98469181D01*
X127943812Y-98473440D01*
X127927969Y-98475000D01*
X127730431Y-98475000D01*
X127714588Y-98473440D01*
X127700548Y-98469181D01*
X127687601Y-98462260D01*
X127676253Y-98452947D01*
X127666940Y-98441599D01*
X127660019Y-98428652D01*
X127655760Y-98414612D01*
X127654200Y-98398769D01*
X127654200Y-97576231D01*
X127655760Y-97560388D01*
X127660019Y-97546348D01*
X127666940Y-97533401D01*
X127676253Y-97522053D01*
X127687601Y-97512740D01*
X127700548Y-97505819D01*
X127714588Y-97501560D01*
X127730431Y-97500000D01*
X127927969Y-97500000D01*
X127943812Y-97501560D01*
G37*
G36*
X128943812Y-97501560D02*
G01*
X128957852Y-97505819D01*
X128970799Y-97512740D01*
X128982147Y-97522053D01*
X128991460Y-97533401D01*
X128998381Y-97546348D01*
X129002640Y-97560388D01*
X129004200Y-97576231D01*
X129004200Y-98398769D01*
X129002640Y-98414612D01*
X128998381Y-98428652D01*
X128991460Y-98441599D01*
X128982147Y-98452947D01*
X128970799Y-98462260D01*
X128957852Y-98469181D01*
X128943812Y-98473440D01*
X128927969Y-98475000D01*
X128730431Y-98475000D01*
X128714588Y-98473440D01*
X128700548Y-98469181D01*
X128687601Y-98462260D01*
X128676253Y-98452947D01*
X128666940Y-98441599D01*
X128660019Y-98428652D01*
X128655760Y-98414612D01*
X128654200Y-98398769D01*
X128654200Y-97576231D01*
X128655760Y-97560388D01*
X128660019Y-97546348D01*
X128666940Y-97533401D01*
X128676253Y-97522053D01*
X128687601Y-97512740D01*
X128700548Y-97505819D01*
X128714588Y-97501560D01*
X128730431Y-97500000D01*
X128927969Y-97500000D01*
X128943812Y-97501560D01*
G37*
G36*
X128443812Y-97501560D02*
G01*
X128457852Y-97505819D01*
X128470799Y-97512740D01*
X128482147Y-97522053D01*
X128491460Y-97533401D01*
X128498381Y-97546348D01*
X128502640Y-97560388D01*
X128504200Y-97576231D01*
X128504200Y-98398769D01*
X128502640Y-98414612D01*
X128498381Y-98428652D01*
X128491460Y-98441599D01*
X128482147Y-98452947D01*
X128470799Y-98462260D01*
X128457852Y-98469181D01*
X128443812Y-98473440D01*
X128427969Y-98475000D01*
X128230431Y-98475000D01*
X128214588Y-98473440D01*
X128200548Y-98469181D01*
X128187601Y-98462260D01*
X128176253Y-98452947D01*
X128166940Y-98441599D01*
X128160019Y-98428652D01*
X128155760Y-98414612D01*
X128154200Y-98398769D01*
X128154200Y-97576231D01*
X128155760Y-97560388D01*
X128160019Y-97546348D01*
X128166940Y-97533401D01*
X128176253Y-97522053D01*
X128187601Y-97512740D01*
X128200548Y-97505819D01*
X128214588Y-97501560D01*
X128230431Y-97500000D01*
X128427969Y-97500000D01*
X128443812Y-97501560D01*
G37*
G36*
X127443812Y-97501560D02*
G01*
X127457852Y-97505819D01*
X127470799Y-97512740D01*
X127482147Y-97522053D01*
X127491460Y-97533401D01*
X127498381Y-97546348D01*
X127502640Y-97560388D01*
X127504200Y-97576231D01*
X127504200Y-98398769D01*
X127502640Y-98414612D01*
X127498381Y-98428652D01*
X127491460Y-98441599D01*
X127482147Y-98452947D01*
X127470799Y-98462260D01*
X127457852Y-98469181D01*
X127443812Y-98473440D01*
X127427969Y-98475000D01*
X127230431Y-98475000D01*
X127214588Y-98473440D01*
X127200548Y-98469181D01*
X127187601Y-98462260D01*
X127176253Y-98452947D01*
X127166940Y-98441599D01*
X127160019Y-98428652D01*
X127155760Y-98414612D01*
X127154200Y-98398769D01*
X127154200Y-97576231D01*
X127155760Y-97560388D01*
X127160019Y-97546348D01*
X127166940Y-97533401D01*
X127176253Y-97522053D01*
X127187601Y-97512740D01*
X127200548Y-97505819D01*
X127214588Y-97501560D01*
X127230431Y-97500000D01*
X127427969Y-97500000D01*
X127443812Y-97501560D01*
G37*
G36*
X126943812Y-97501560D02*
G01*
X126957852Y-97505819D01*
X126970799Y-97512740D01*
X126982147Y-97522053D01*
X126991460Y-97533401D01*
X126998381Y-97546348D01*
X127002640Y-97560388D01*
X127004200Y-97576231D01*
X127004200Y-98398769D01*
X127002640Y-98414612D01*
X126998381Y-98428652D01*
X126991460Y-98441599D01*
X126982147Y-98452947D01*
X126970799Y-98462260D01*
X126957852Y-98469181D01*
X126943812Y-98473440D01*
X126927969Y-98475000D01*
X126730431Y-98475000D01*
X126714588Y-98473440D01*
X126700548Y-98469181D01*
X126687601Y-98462260D01*
X126676253Y-98452947D01*
X126666940Y-98441599D01*
X126660019Y-98428652D01*
X126655760Y-98414612D01*
X126654200Y-98398769D01*
X126654200Y-97576231D01*
X126655760Y-97560388D01*
X126660019Y-97546348D01*
X126666940Y-97533401D01*
X126676253Y-97522053D01*
X126687601Y-97512740D01*
X126700548Y-97505819D01*
X126714588Y-97501560D01*
X126730431Y-97500000D01*
X126927969Y-97500000D01*
X126943812Y-97501560D01*
G37*
G36*
X126443812Y-97501560D02*
G01*
X126457852Y-97505819D01*
X126470799Y-97512740D01*
X126482147Y-97522053D01*
X126491460Y-97533401D01*
X126498381Y-97546348D01*
X126502640Y-97560388D01*
X126504200Y-97576231D01*
X126504200Y-98398769D01*
X126502640Y-98414612D01*
X126498381Y-98428652D01*
X126491460Y-98441599D01*
X126482147Y-98452947D01*
X126470799Y-98462260D01*
X126457852Y-98469181D01*
X126443812Y-98473440D01*
X126427969Y-98475000D01*
X126230431Y-98475000D01*
X126214588Y-98473440D01*
X126200548Y-98469181D01*
X126187601Y-98462260D01*
X126176253Y-98452947D01*
X126166940Y-98441599D01*
X126160019Y-98428652D01*
X126155760Y-98414612D01*
X126154200Y-98398769D01*
X126154200Y-97576231D01*
X126155760Y-97560388D01*
X126160019Y-97546348D01*
X126166940Y-97533401D01*
X126176253Y-97522053D01*
X126187601Y-97512740D01*
X126200548Y-97505819D01*
X126214588Y-97501560D01*
X126230431Y-97500000D01*
X126427969Y-97500000D01*
X126443812Y-97501560D01*
G37*
G36*
X125943812Y-97501560D02*
G01*
X125957852Y-97505819D01*
X125970799Y-97512740D01*
X125982147Y-97522053D01*
X125991460Y-97533401D01*
X125998381Y-97546348D01*
X126002640Y-97560388D01*
X126004200Y-97576231D01*
X126004200Y-98398769D01*
X126002640Y-98414612D01*
X125998381Y-98428652D01*
X125991460Y-98441599D01*
X125982147Y-98452947D01*
X125970799Y-98462260D01*
X125957852Y-98469181D01*
X125943812Y-98473440D01*
X125927969Y-98475000D01*
X125730431Y-98475000D01*
X125714588Y-98473440D01*
X125700548Y-98469181D01*
X125687601Y-98462260D01*
X125676253Y-98452947D01*
X125666940Y-98441599D01*
X125660019Y-98428652D01*
X125655760Y-98414612D01*
X125654200Y-98398769D01*
X125654200Y-97576231D01*
X125655760Y-97560388D01*
X125660019Y-97546348D01*
X125666940Y-97533401D01*
X125676253Y-97522053D01*
X125687601Y-97512740D01*
X125700548Y-97505819D01*
X125714588Y-97501560D01*
X125730431Y-97500000D01*
X125927969Y-97500000D01*
X125943812Y-97501560D01*
G37*
G36*
X125443812Y-97501560D02*
G01*
X125457852Y-97505819D01*
X125470799Y-97512740D01*
X125482147Y-97522053D01*
X125491460Y-97533401D01*
X125498381Y-97546348D01*
X125502640Y-97560388D01*
X125504200Y-97576231D01*
X125504200Y-98398769D01*
X125502640Y-98414612D01*
X125498381Y-98428652D01*
X125491460Y-98441599D01*
X125482147Y-98452947D01*
X125470799Y-98462260D01*
X125457852Y-98469181D01*
X125443812Y-98473440D01*
X125427969Y-98475000D01*
X125230431Y-98475000D01*
X125214588Y-98473440D01*
X125200548Y-98469181D01*
X125187601Y-98462260D01*
X125176253Y-98452947D01*
X125166940Y-98441599D01*
X125160019Y-98428652D01*
X125155760Y-98414612D01*
X125154200Y-98398769D01*
X125154200Y-97576231D01*
X125155760Y-97560388D01*
X125160019Y-97546348D01*
X125166940Y-97533401D01*
X125176253Y-97522053D01*
X125187601Y-97512740D01*
X125200548Y-97505819D01*
X125214588Y-97501560D01*
X125230431Y-97500000D01*
X125427969Y-97500000D01*
X125443812Y-97501560D01*
G37*
G36*
X129943812Y-97126560D02*
G01*
X129957852Y-97130819D01*
X129970799Y-97137740D01*
X129982147Y-97147053D01*
X129991460Y-97158401D01*
X129998381Y-97171348D01*
X130002640Y-97185388D01*
X130004200Y-97201231D01*
X130004200Y-97398769D01*
X130002640Y-97414612D01*
X129998381Y-97428652D01*
X129991460Y-97441599D01*
X129982147Y-97452947D01*
X129970799Y-97462260D01*
X129957852Y-97469181D01*
X129943812Y-97473440D01*
X129927969Y-97475000D01*
X129105431Y-97475000D01*
X129089588Y-97473440D01*
X129075548Y-97469181D01*
X129062601Y-97462260D01*
X129051253Y-97452947D01*
X129041940Y-97441599D01*
X129035019Y-97428652D01*
X129030760Y-97414612D01*
X129029200Y-97398769D01*
X129029200Y-97201231D01*
X129030760Y-97185388D01*
X129035019Y-97171348D01*
X129041940Y-97158401D01*
X129051253Y-97147053D01*
X129062601Y-97137740D01*
X129075548Y-97130819D01*
X129089588Y-97126560D01*
X129105431Y-97125000D01*
X129927969Y-97125000D01*
X129943812Y-97126560D01*
G37*
G36*
X125068812Y-97126560D02*
G01*
X125082852Y-97130819D01*
X125095799Y-97137740D01*
X125107147Y-97147053D01*
X125116460Y-97158401D01*
X125123381Y-97171348D01*
X125127640Y-97185388D01*
X125129200Y-97201231D01*
X125129200Y-97398769D01*
X125127640Y-97414612D01*
X125123381Y-97428652D01*
X125116460Y-97441599D01*
X125107147Y-97452947D01*
X125095799Y-97462260D01*
X125082852Y-97469181D01*
X125068812Y-97473440D01*
X125052969Y-97475000D01*
X124230431Y-97475000D01*
X124214588Y-97473440D01*
X124200548Y-97469181D01*
X124187601Y-97462260D01*
X124176253Y-97452947D01*
X124166940Y-97441599D01*
X124160019Y-97428652D01*
X124155760Y-97414612D01*
X124154200Y-97398769D01*
X124154200Y-97201231D01*
X124155760Y-97185388D01*
X124160019Y-97171348D01*
X124166940Y-97158401D01*
X124176253Y-97147053D01*
X124187601Y-97137740D01*
X124200548Y-97130819D01*
X124214588Y-97126560D01*
X124230431Y-97125000D01*
X125052969Y-97125000D01*
X125068812Y-97126560D01*
G37*
G36*
X128664321Y-93779652D02*
G01*
X128708551Y-93793069D01*
X128749303Y-93814851D01*
X128785029Y-93844171D01*
X128814349Y-93879897D01*
X128836131Y-93920649D01*
X128849548Y-93964879D01*
X128854200Y-94012104D01*
X128854200Y-97087896D01*
X128849548Y-97135121D01*
X128836131Y-97179351D01*
X128814349Y-97220103D01*
X128785029Y-97255829D01*
X128749303Y-97285149D01*
X128708551Y-97306931D01*
X128664321Y-97320348D01*
X128617096Y-97325000D01*
X125541304Y-97325000D01*
X125494079Y-97320348D01*
X125449849Y-97306931D01*
X125409097Y-97285149D01*
X125373371Y-97255829D01*
X125344051Y-97220103D01*
X125322269Y-97179351D01*
X125308852Y-97135121D01*
X125304200Y-97087896D01*
X125304200Y-94012104D01*
X125308852Y-93964879D01*
X125322269Y-93920649D01*
X125344051Y-93879897D01*
X125373371Y-93844171D01*
X125409097Y-93814851D01*
X125449849Y-93793069D01*
X125494079Y-93779652D01*
X125541304Y-93775000D01*
X128617096Y-93775000D01*
X128664321Y-93779652D01*
G37*
G36*
X129943812Y-96626560D02*
G01*
X129957852Y-96630819D01*
X129970799Y-96637740D01*
X129982147Y-96647053D01*
X129991460Y-96658401D01*
X129998381Y-96671348D01*
X130002640Y-96685388D01*
X130004200Y-96701231D01*
X130004200Y-96898769D01*
X130002640Y-96914612D01*
X129998381Y-96928652D01*
X129991460Y-96941599D01*
X129982147Y-96952947D01*
X129970799Y-96962260D01*
X129957852Y-96969181D01*
X129943812Y-96973440D01*
X129927969Y-96975000D01*
X129105431Y-96975000D01*
X129089588Y-96973440D01*
X129075548Y-96969181D01*
X129062601Y-96962260D01*
X129051253Y-96952947D01*
X129041940Y-96941599D01*
X129035019Y-96928652D01*
X129030760Y-96914612D01*
X129029200Y-96898769D01*
X129029200Y-96701231D01*
X129030760Y-96685388D01*
X129035019Y-96671348D01*
X129041940Y-96658401D01*
X129051253Y-96647053D01*
X129062601Y-96637740D01*
X129075548Y-96630819D01*
X129089588Y-96626560D01*
X129105431Y-96625000D01*
X129927969Y-96625000D01*
X129943812Y-96626560D01*
G37*
G36*
X125068812Y-96626560D02*
G01*
X125082852Y-96630819D01*
X125095799Y-96637740D01*
X125107147Y-96647053D01*
X125116460Y-96658401D01*
X125123381Y-96671348D01*
X125127640Y-96685388D01*
X125129200Y-96701231D01*
X125129200Y-96898769D01*
X125127640Y-96914612D01*
X125123381Y-96928652D01*
X125116460Y-96941599D01*
X125107147Y-96952947D01*
X125095799Y-96962260D01*
X125082852Y-96969181D01*
X125068812Y-96973440D01*
X125052969Y-96975000D01*
X124230431Y-96975000D01*
X124214588Y-96973440D01*
X124200548Y-96969181D01*
X124187601Y-96962260D01*
X124176253Y-96952947D01*
X124166940Y-96941599D01*
X124160019Y-96928652D01*
X124155760Y-96914612D01*
X124154200Y-96898769D01*
X124154200Y-96701231D01*
X124155760Y-96685388D01*
X124160019Y-96671348D01*
X124166940Y-96658401D01*
X124176253Y-96647053D01*
X124187601Y-96637740D01*
X124200548Y-96630819D01*
X124214588Y-96626560D01*
X124230431Y-96625000D01*
X125052969Y-96625000D01*
X125068812Y-96626560D01*
G37*
G36*
X122654200Y-96885000D02*
G01*
X122204200Y-96885000D01*
X122204200Y-96185000D01*
X122654200Y-96185000D01*
X122654200Y-96885000D01*
G37*
G36*
X122154200Y-96885000D02*
G01*
X121704200Y-96885000D01*
X121704200Y-96185000D01*
X122154200Y-96185000D01*
X122154200Y-96885000D01*
G37*
G36*
X121654200Y-96885000D02*
G01*
X121204200Y-96885000D01*
X121204200Y-96185000D01*
X121654200Y-96185000D01*
X121654200Y-96885000D01*
G37*
G36*
X120654200Y-96885000D02*
G01*
X120204200Y-96885000D01*
X120204200Y-96185000D01*
X120654200Y-96185000D01*
X120654200Y-96885000D01*
G37*
G36*
X121154200Y-96885000D02*
G01*
X120704200Y-96885000D01*
X120704200Y-96185000D01*
X121154200Y-96185000D01*
X121154200Y-96885000D01*
G37*
G36*
X132370391Y-95793194D02*
G01*
X132400385Y-95802292D01*
X132428027Y-95817067D01*
X132452252Y-95836948D01*
X132472133Y-95861173D01*
X132486908Y-95888815D01*
X132496006Y-95918809D01*
X132499200Y-95951232D01*
X132499200Y-96318768D01*
X132496006Y-96351191D01*
X132486908Y-96381185D01*
X132472133Y-96408827D01*
X132452252Y-96433052D01*
X132428027Y-96452933D01*
X132400385Y-96467708D01*
X132370391Y-96476806D01*
X132337968Y-96480000D01*
X131920432Y-96480000D01*
X131888009Y-96476806D01*
X131858015Y-96467708D01*
X131830373Y-96452933D01*
X131806148Y-96433052D01*
X131786267Y-96408827D01*
X131771492Y-96381185D01*
X131762394Y-96351191D01*
X131759200Y-96318768D01*
X131759200Y-95951232D01*
X131762394Y-95918809D01*
X131771492Y-95888815D01*
X131786267Y-95861173D01*
X131806148Y-95836948D01*
X131830373Y-95817067D01*
X131858015Y-95802292D01*
X131888009Y-95793194D01*
X131920432Y-95790000D01*
X132337968Y-95790000D01*
X132370391Y-95793194D01*
G37*
G36*
X131220391Y-95793194D02*
G01*
X131250385Y-95802292D01*
X131278027Y-95817067D01*
X131302252Y-95836948D01*
X131322133Y-95861173D01*
X131336908Y-95888815D01*
X131346006Y-95918809D01*
X131349200Y-95951232D01*
X131349200Y-96318768D01*
X131346006Y-96351191D01*
X131336908Y-96381185D01*
X131322133Y-96408827D01*
X131302252Y-96433052D01*
X131278027Y-96452933D01*
X131250385Y-96467708D01*
X131220391Y-96476806D01*
X131187968Y-96480000D01*
X130770432Y-96480000D01*
X130738009Y-96476806D01*
X130708015Y-96467708D01*
X130680373Y-96452933D01*
X130656148Y-96433052D01*
X130636267Y-96408827D01*
X130621492Y-96381185D01*
X130612394Y-96351191D01*
X130609200Y-96318768D01*
X130609200Y-95951232D01*
X130612394Y-95918809D01*
X130621492Y-95888815D01*
X130636267Y-95861173D01*
X130656148Y-95836948D01*
X130680373Y-95817067D01*
X130708015Y-95802292D01*
X130738009Y-95793194D01*
X130770432Y-95790000D01*
X131187968Y-95790000D01*
X131220391Y-95793194D01*
G37*
G36*
X129943812Y-96126560D02*
G01*
X129957852Y-96130819D01*
X129970799Y-96137740D01*
X129982147Y-96147053D01*
X129991460Y-96158401D01*
X129998381Y-96171348D01*
X130002640Y-96185388D01*
X130004200Y-96201231D01*
X130004200Y-96398769D01*
X130002640Y-96414612D01*
X129998381Y-96428652D01*
X129991460Y-96441599D01*
X129982147Y-96452947D01*
X129970799Y-96462260D01*
X129957852Y-96469181D01*
X129943812Y-96473440D01*
X129927969Y-96475000D01*
X129105431Y-96475000D01*
X129089588Y-96473440D01*
X129075548Y-96469181D01*
X129062601Y-96462260D01*
X129051253Y-96452947D01*
X129041940Y-96441599D01*
X129035019Y-96428652D01*
X129030760Y-96414612D01*
X129029200Y-96398769D01*
X129029200Y-96201231D01*
X129030760Y-96185388D01*
X129035019Y-96171348D01*
X129041940Y-96158401D01*
X129051253Y-96147053D01*
X129062601Y-96137740D01*
X129075548Y-96130819D01*
X129089588Y-96126560D01*
X129105431Y-96125000D01*
X129927969Y-96125000D01*
X129943812Y-96126560D01*
G37*
G36*
X125068812Y-96126560D02*
G01*
X125082852Y-96130819D01*
X125095799Y-96137740D01*
X125107147Y-96147053D01*
X125116460Y-96158401D01*
X125123381Y-96171348D01*
X125127640Y-96185388D01*
X125129200Y-96201231D01*
X125129200Y-96398769D01*
X125127640Y-96414612D01*
X125123381Y-96428652D01*
X125116460Y-96441599D01*
X125107147Y-96452947D01*
X125095799Y-96462260D01*
X125082852Y-96469181D01*
X125068812Y-96473440D01*
X125052969Y-96475000D01*
X124230431Y-96475000D01*
X124214588Y-96473440D01*
X124200548Y-96469181D01*
X124187601Y-96462260D01*
X124176253Y-96452947D01*
X124166940Y-96441599D01*
X124160019Y-96428652D01*
X124155760Y-96414612D01*
X124154200Y-96398769D01*
X124154200Y-96201231D01*
X124155760Y-96185388D01*
X124160019Y-96171348D01*
X124166940Y-96158401D01*
X124176253Y-96147053D01*
X124187601Y-96137740D01*
X124200548Y-96130819D01*
X124214588Y-96126560D01*
X124230431Y-96125000D01*
X125052969Y-96125000D01*
X125068812Y-96126560D01*
G37*
G36*
X134170302Y-94201231D02*
G01*
X134247106Y-94216508D01*
X134419993Y-94288120D01*
X134419994Y-94288121D01*
X134525725Y-94358768D01*
X134575591Y-94392088D01*
X134707912Y-94524409D01*
X134811880Y-94680007D01*
X134881078Y-94847067D01*
X134883492Y-94852895D01*
X134903394Y-94952947D01*
X134920000Y-95036435D01*
X134920000Y-95223565D01*
X134883492Y-95407106D01*
X134811880Y-95579993D01*
X134707912Y-95735591D01*
X134575591Y-95867912D01*
X134419993Y-95971880D01*
X134247106Y-96043492D01*
X134185926Y-96055661D01*
X134063567Y-96080000D01*
X133876433Y-96080000D01*
X133754074Y-96055661D01*
X133692894Y-96043492D01*
X133520007Y-95971880D01*
X133364409Y-95867912D01*
X133232088Y-95735591D01*
X133128120Y-95579993D01*
X133056508Y-95407106D01*
X133020000Y-95223565D01*
X133020000Y-95036435D01*
X133036607Y-94952947D01*
X133056508Y-94852895D01*
X133058922Y-94847067D01*
X133128120Y-94680007D01*
X133232088Y-94524409D01*
X133364409Y-94392088D01*
X133414276Y-94358768D01*
X133520006Y-94288121D01*
X133520007Y-94288120D01*
X133692894Y-94216508D01*
X133769698Y-94201231D01*
X133876433Y-94180000D01*
X134063567Y-94180000D01*
X134170302Y-94201231D01*
G37*
G36*
X129943812Y-95626560D02*
G01*
X129957852Y-95630819D01*
X129970799Y-95637740D01*
X129982147Y-95647053D01*
X129991460Y-95658401D01*
X129998381Y-95671348D01*
X130002640Y-95685388D01*
X130004200Y-95701231D01*
X130004200Y-95898769D01*
X130002640Y-95914612D01*
X129998381Y-95928652D01*
X129991460Y-95941599D01*
X129982147Y-95952947D01*
X129970799Y-95962260D01*
X129957852Y-95969181D01*
X129943812Y-95973440D01*
X129927969Y-95975000D01*
X129105431Y-95975000D01*
X129089588Y-95973440D01*
X129075548Y-95969181D01*
X129062601Y-95962260D01*
X129051253Y-95952947D01*
X129041940Y-95941599D01*
X129035019Y-95928652D01*
X129030760Y-95914612D01*
X129029200Y-95898769D01*
X129029200Y-95701231D01*
X129030760Y-95685388D01*
X129035019Y-95671348D01*
X129041940Y-95658401D01*
X129051253Y-95647053D01*
X129062601Y-95637740D01*
X129075548Y-95630819D01*
X129089588Y-95626560D01*
X129105431Y-95625000D01*
X129927969Y-95625000D01*
X129943812Y-95626560D01*
G37*
G36*
X125068812Y-95626560D02*
G01*
X125082852Y-95630819D01*
X125095799Y-95637740D01*
X125107147Y-95647053D01*
X125116460Y-95658401D01*
X125123381Y-95671348D01*
X125127640Y-95685388D01*
X125129200Y-95701231D01*
X125129200Y-95898769D01*
X125127640Y-95914612D01*
X125123381Y-95928652D01*
X125116460Y-95941599D01*
X125107147Y-95952947D01*
X125095799Y-95962260D01*
X125082852Y-95969181D01*
X125068812Y-95973440D01*
X125052969Y-95975000D01*
X124230431Y-95975000D01*
X124214588Y-95973440D01*
X124200548Y-95969181D01*
X124187601Y-95962260D01*
X124176253Y-95952947D01*
X124166940Y-95941599D01*
X124160019Y-95928652D01*
X124155760Y-95914612D01*
X124154200Y-95898769D01*
X124154200Y-95701231D01*
X124155760Y-95685388D01*
X124160019Y-95671348D01*
X124166940Y-95658401D01*
X124176253Y-95647053D01*
X124187601Y-95637740D01*
X124200548Y-95630819D01*
X124214588Y-95626560D01*
X124230431Y-95625000D01*
X125052969Y-95625000D01*
X125068812Y-95626560D01*
G37*
G36*
X132370391Y-94823194D02*
G01*
X132400385Y-94832292D01*
X132428027Y-94847067D01*
X132452252Y-94866948D01*
X132472133Y-94891173D01*
X132486908Y-94918815D01*
X132496006Y-94948809D01*
X132499200Y-94981232D01*
X132499200Y-95348768D01*
X132496006Y-95381191D01*
X132486908Y-95411185D01*
X132472133Y-95438827D01*
X132452252Y-95463052D01*
X132428027Y-95482933D01*
X132400385Y-95497708D01*
X132370391Y-95506806D01*
X132337968Y-95510000D01*
X131920432Y-95510000D01*
X131888009Y-95506806D01*
X131858015Y-95497708D01*
X131830373Y-95482933D01*
X131806148Y-95463052D01*
X131786267Y-95438827D01*
X131771492Y-95411185D01*
X131762394Y-95381191D01*
X131759200Y-95348768D01*
X131759200Y-94981232D01*
X131762394Y-94948809D01*
X131771492Y-94918815D01*
X131786267Y-94891173D01*
X131806148Y-94866948D01*
X131830373Y-94847067D01*
X131858015Y-94832292D01*
X131888009Y-94823194D01*
X131920432Y-94820000D01*
X132337968Y-94820000D01*
X132370391Y-94823194D01*
G37*
G36*
X131220391Y-94823194D02*
G01*
X131250385Y-94832292D01*
X131278027Y-94847067D01*
X131302252Y-94866948D01*
X131322133Y-94891173D01*
X131336908Y-94918815D01*
X131346006Y-94948809D01*
X131349200Y-94981232D01*
X131349200Y-95348768D01*
X131346006Y-95381191D01*
X131336908Y-95411185D01*
X131322133Y-95438827D01*
X131302252Y-95463052D01*
X131278027Y-95482933D01*
X131250385Y-95497708D01*
X131220391Y-95506806D01*
X131187968Y-95510000D01*
X130770432Y-95510000D01*
X130738009Y-95506806D01*
X130708015Y-95497708D01*
X130680373Y-95482933D01*
X130656148Y-95463052D01*
X130636267Y-95438827D01*
X130621492Y-95411185D01*
X130612394Y-95381191D01*
X130609200Y-95348768D01*
X130609200Y-94981232D01*
X130612394Y-94948809D01*
X130621492Y-94918815D01*
X130636267Y-94891173D01*
X130656148Y-94866948D01*
X130680373Y-94847067D01*
X130708015Y-94832292D01*
X130738009Y-94823194D01*
X130770432Y-94820000D01*
X131187968Y-94820000D01*
X131220391Y-94823194D01*
G37*
G36*
X125068812Y-95126560D02*
G01*
X125082852Y-95130819D01*
X125095799Y-95137740D01*
X125107147Y-95147053D01*
X125116460Y-95158401D01*
X125123381Y-95171348D01*
X125127640Y-95185388D01*
X125129200Y-95201231D01*
X125129200Y-95398769D01*
X125127640Y-95414612D01*
X125123381Y-95428652D01*
X125116460Y-95441599D01*
X125107147Y-95452947D01*
X125095799Y-95462260D01*
X125082852Y-95469181D01*
X125068812Y-95473440D01*
X125052969Y-95475000D01*
X124230431Y-95475000D01*
X124214588Y-95473440D01*
X124200548Y-95469181D01*
X124187601Y-95462260D01*
X124176253Y-95452947D01*
X124166940Y-95441599D01*
X124160019Y-95428652D01*
X124155760Y-95414612D01*
X124154200Y-95398769D01*
X124154200Y-95201231D01*
X124155760Y-95185388D01*
X124160019Y-95171348D01*
X124166940Y-95158401D01*
X124176253Y-95147053D01*
X124187601Y-95137740D01*
X124200548Y-95130819D01*
X124214588Y-95126560D01*
X124230431Y-95125000D01*
X125052969Y-95125000D01*
X125068812Y-95126560D01*
G37*
G36*
X129943812Y-95126560D02*
G01*
X129957852Y-95130819D01*
X129970799Y-95137740D01*
X129982147Y-95147053D01*
X129991460Y-95158401D01*
X129998381Y-95171348D01*
X130002640Y-95185388D01*
X130004200Y-95201231D01*
X130004200Y-95398769D01*
X130002640Y-95414612D01*
X129998381Y-95428652D01*
X129991460Y-95441599D01*
X129982147Y-95452947D01*
X129970799Y-95462260D01*
X129957852Y-95469181D01*
X129943812Y-95473440D01*
X129927969Y-95475000D01*
X129105431Y-95475000D01*
X129089588Y-95473440D01*
X129075548Y-95469181D01*
X129062601Y-95462260D01*
X129051253Y-95452947D01*
X129041940Y-95441599D01*
X129035019Y-95428652D01*
X129030760Y-95414612D01*
X129029200Y-95398769D01*
X129029200Y-95201231D01*
X129030760Y-95185388D01*
X129035019Y-95171348D01*
X129041940Y-95158401D01*
X129051253Y-95147053D01*
X129062601Y-95137740D01*
X129075548Y-95130819D01*
X129089588Y-95126560D01*
X129105431Y-95125000D01*
X129927969Y-95125000D01*
X129943812Y-95126560D01*
G37*
G36*
X125068812Y-94626560D02*
G01*
X125082852Y-94630819D01*
X125095799Y-94637740D01*
X125107147Y-94647053D01*
X125116460Y-94658401D01*
X125123381Y-94671348D01*
X125127640Y-94685388D01*
X125129200Y-94701231D01*
X125129200Y-94898769D01*
X125127640Y-94914612D01*
X125123381Y-94928652D01*
X125116460Y-94941599D01*
X125107147Y-94952947D01*
X125095799Y-94962260D01*
X125082852Y-94969181D01*
X125068812Y-94973440D01*
X125052969Y-94975000D01*
X124230431Y-94975000D01*
X124214588Y-94973440D01*
X124200548Y-94969181D01*
X124187601Y-94962260D01*
X124176253Y-94952947D01*
X124166940Y-94941599D01*
X124160019Y-94928652D01*
X124155760Y-94914612D01*
X124154200Y-94898769D01*
X124154200Y-94701231D01*
X124155760Y-94685388D01*
X124160019Y-94671348D01*
X124166940Y-94658401D01*
X124176253Y-94647053D01*
X124187601Y-94637740D01*
X124200548Y-94630819D01*
X124214588Y-94626560D01*
X124230431Y-94625000D01*
X125052969Y-94625000D01*
X125068812Y-94626560D01*
G37*
G36*
X129943812Y-94626560D02*
G01*
X129957852Y-94630819D01*
X129970799Y-94637740D01*
X129982147Y-94647053D01*
X129991460Y-94658401D01*
X129998381Y-94671348D01*
X130002640Y-94685388D01*
X130004200Y-94701231D01*
X130004200Y-94898769D01*
X130002640Y-94914612D01*
X129998381Y-94928652D01*
X129991460Y-94941599D01*
X129982147Y-94952947D01*
X129970799Y-94962260D01*
X129957852Y-94969181D01*
X129943812Y-94973440D01*
X129927969Y-94975000D01*
X129105431Y-94975000D01*
X129089588Y-94973440D01*
X129075548Y-94969181D01*
X129062601Y-94962260D01*
X129051253Y-94952947D01*
X129041940Y-94941599D01*
X129035019Y-94928652D01*
X129030760Y-94914612D01*
X129029200Y-94898769D01*
X129029200Y-94701231D01*
X129030760Y-94685388D01*
X129035019Y-94671348D01*
X129041940Y-94658401D01*
X129051253Y-94647053D01*
X129062601Y-94637740D01*
X129075548Y-94630819D01*
X129089588Y-94626560D01*
X129105431Y-94625000D01*
X129927969Y-94625000D01*
X129943812Y-94626560D01*
G37*
G36*
X131060391Y-93783194D02*
G01*
X131090385Y-93792292D01*
X131118027Y-93807067D01*
X131142252Y-93826948D01*
X131162133Y-93851173D01*
X131176908Y-93878815D01*
X131186006Y-93908809D01*
X131189200Y-93941232D01*
X131189200Y-94358768D01*
X131186006Y-94391191D01*
X131176908Y-94421185D01*
X131162133Y-94448827D01*
X131142252Y-94473052D01*
X131118027Y-94492933D01*
X131090385Y-94507708D01*
X131060391Y-94516806D01*
X131027968Y-94520000D01*
X130660432Y-94520000D01*
X130628009Y-94516806D01*
X130598015Y-94507708D01*
X130570373Y-94492933D01*
X130546148Y-94473052D01*
X130526267Y-94448827D01*
X130511492Y-94421185D01*
X130502394Y-94391191D01*
X130499200Y-94358768D01*
X130499200Y-93941232D01*
X130502394Y-93908809D01*
X130511492Y-93878815D01*
X130526267Y-93851173D01*
X130546148Y-93826948D01*
X130570373Y-93807067D01*
X130598015Y-93792292D01*
X130628009Y-93783194D01*
X130660432Y-93780000D01*
X131027968Y-93780000D01*
X131060391Y-93783194D01*
G37*
G36*
X132030391Y-93783194D02*
G01*
X132060385Y-93792292D01*
X132088027Y-93807067D01*
X132112252Y-93826948D01*
X132132133Y-93851173D01*
X132146908Y-93878815D01*
X132156006Y-93908809D01*
X132159200Y-93941232D01*
X132159200Y-94358768D01*
X132156006Y-94391191D01*
X132146908Y-94421185D01*
X132132133Y-94448827D01*
X132112252Y-94473052D01*
X132088027Y-94492933D01*
X132060385Y-94507708D01*
X132030391Y-94516806D01*
X131997968Y-94520000D01*
X131630432Y-94520000D01*
X131598009Y-94516806D01*
X131568015Y-94507708D01*
X131540373Y-94492933D01*
X131516148Y-94473052D01*
X131496267Y-94448827D01*
X131481492Y-94421185D01*
X131472394Y-94391191D01*
X131469200Y-94358768D01*
X131469200Y-93941232D01*
X131472394Y-93908809D01*
X131481492Y-93878815D01*
X131496267Y-93851173D01*
X131516148Y-93826948D01*
X131540373Y-93807067D01*
X131568015Y-93792292D01*
X131598009Y-93783194D01*
X131630432Y-93780000D01*
X131997968Y-93780000D01*
X132030391Y-93783194D01*
G37*
G36*
X129943812Y-94126560D02*
G01*
X129957852Y-94130819D01*
X129970799Y-94137740D01*
X129982147Y-94147053D01*
X129991460Y-94158401D01*
X129998381Y-94171348D01*
X130002640Y-94185388D01*
X130004200Y-94201231D01*
X130004200Y-94398769D01*
X130002640Y-94414612D01*
X129998381Y-94428652D01*
X129991460Y-94441599D01*
X129982147Y-94452947D01*
X129970799Y-94462260D01*
X129957852Y-94469181D01*
X129943812Y-94473440D01*
X129927969Y-94475000D01*
X129105431Y-94475000D01*
X129089588Y-94473440D01*
X129075548Y-94469181D01*
X129062601Y-94462260D01*
X129051253Y-94452947D01*
X129041940Y-94441599D01*
X129035019Y-94428652D01*
X129030760Y-94414612D01*
X129029200Y-94398769D01*
X129029200Y-94201231D01*
X129030760Y-94185388D01*
X129035019Y-94171348D01*
X129041940Y-94158401D01*
X129051253Y-94147053D01*
X129062601Y-94137740D01*
X129075548Y-94130819D01*
X129089588Y-94126560D01*
X129105431Y-94125000D01*
X129927969Y-94125000D01*
X129943812Y-94126560D01*
G37*
G36*
X125068812Y-94126560D02*
G01*
X125082852Y-94130819D01*
X125095799Y-94137740D01*
X125107147Y-94147053D01*
X125116460Y-94158401D01*
X125123381Y-94171348D01*
X125127640Y-94185388D01*
X125129200Y-94201231D01*
X125129200Y-94398769D01*
X125127640Y-94414612D01*
X125123381Y-94428652D01*
X125116460Y-94441599D01*
X125107147Y-94452947D01*
X125095799Y-94462260D01*
X125082852Y-94469181D01*
X125068812Y-94473440D01*
X125052969Y-94475000D01*
X124230431Y-94475000D01*
X124214588Y-94473440D01*
X124200548Y-94469181D01*
X124187601Y-94462260D01*
X124176253Y-94452947D01*
X124166940Y-94441599D01*
X124160019Y-94428652D01*
X124155760Y-94414612D01*
X124154200Y-94398769D01*
X124154200Y-94201231D01*
X124155760Y-94185388D01*
X124160019Y-94171348D01*
X124166940Y-94158401D01*
X124176253Y-94147053D01*
X124187601Y-94137740D01*
X124200548Y-94130819D01*
X124214588Y-94126560D01*
X124230431Y-94125000D01*
X125052969Y-94125000D01*
X125068812Y-94126560D01*
G37*
G36*
X135156029Y-92523744D02*
G01*
X135280400Y-92561472D01*
X135306941Y-92569523D01*
X135413649Y-92626560D01*
X135446015Y-92643860D01*
X135567917Y-92743903D01*
X135667960Y-92865805D01*
X135667961Y-92865807D01*
X135742297Y-93004879D01*
X135742298Y-93004883D01*
X135788076Y-93155791D01*
X135803533Y-93312730D01*
X135788076Y-93469669D01*
X135758672Y-93566599D01*
X135742297Y-93620581D01*
X135702289Y-93695430D01*
X135667960Y-93759655D01*
X135567917Y-93881557D01*
X135446015Y-93981600D01*
X135438062Y-93985851D01*
X135306941Y-94055937D01*
X135280400Y-94063988D01*
X135156029Y-94101716D01*
X135038414Y-94113300D01*
X132960786Y-94113300D01*
X132843171Y-94101716D01*
X132718800Y-94063988D01*
X132692259Y-94055937D01*
X132561138Y-93985851D01*
X132553185Y-93981600D01*
X132431283Y-93881557D01*
X132331240Y-93759655D01*
X132296911Y-93695430D01*
X132256903Y-93620581D01*
X132240528Y-93566599D01*
X132211124Y-93469669D01*
X132195667Y-93312730D01*
X132211124Y-93155791D01*
X132256902Y-93004883D01*
X132256903Y-93004879D01*
X132331239Y-92865807D01*
X132331240Y-92865805D01*
X132431283Y-92743903D01*
X132553185Y-92643860D01*
X132585551Y-92626560D01*
X132692259Y-92569523D01*
X132718800Y-92561472D01*
X132843171Y-92523744D01*
X132960786Y-92512160D01*
X135038414Y-92512160D01*
X135156029Y-92523744D01*
G37*
G36*
X125068812Y-93626560D02*
G01*
X125082852Y-93630819D01*
X125095799Y-93637740D01*
X125107147Y-93647053D01*
X125116460Y-93658401D01*
X125123381Y-93671348D01*
X125127640Y-93685388D01*
X125129200Y-93701231D01*
X125129200Y-93898769D01*
X125127640Y-93914612D01*
X125123381Y-93928652D01*
X125116460Y-93941599D01*
X125107147Y-93952947D01*
X125095799Y-93962260D01*
X125082852Y-93969181D01*
X125068812Y-93973440D01*
X125052969Y-93975000D01*
X124230431Y-93975000D01*
X124214588Y-93973440D01*
X124200548Y-93969181D01*
X124187601Y-93962260D01*
X124176253Y-93952947D01*
X124166940Y-93941599D01*
X124160019Y-93928652D01*
X124155760Y-93914612D01*
X124154200Y-93898769D01*
X124154200Y-93701231D01*
X124155760Y-93685388D01*
X124160019Y-93671348D01*
X124166940Y-93658401D01*
X124176253Y-93647053D01*
X124187601Y-93637740D01*
X124200548Y-93630819D01*
X124214588Y-93626560D01*
X124230431Y-93625000D01*
X125052969Y-93625000D01*
X125068812Y-93626560D01*
G37*
G36*
X129943812Y-93626560D02*
G01*
X129957852Y-93630819D01*
X129970799Y-93637740D01*
X129982147Y-93647053D01*
X129991460Y-93658401D01*
X129998381Y-93671348D01*
X130002640Y-93685388D01*
X130004200Y-93701231D01*
X130004200Y-93898769D01*
X130002640Y-93914612D01*
X129998381Y-93928652D01*
X129991460Y-93941599D01*
X129982147Y-93952947D01*
X129970799Y-93962260D01*
X129957852Y-93969181D01*
X129943812Y-93973440D01*
X129927969Y-93975000D01*
X129105431Y-93975000D01*
X129089588Y-93973440D01*
X129075548Y-93969181D01*
X129062601Y-93962260D01*
X129051253Y-93952947D01*
X129041940Y-93941599D01*
X129035019Y-93928652D01*
X129030760Y-93914612D01*
X129029200Y-93898769D01*
X129029200Y-93701231D01*
X129030760Y-93685388D01*
X129035019Y-93671348D01*
X129041940Y-93658401D01*
X129051253Y-93647053D01*
X129062601Y-93637740D01*
X129075548Y-93630819D01*
X129089588Y-93626560D01*
X129105431Y-93625000D01*
X129927969Y-93625000D01*
X129943812Y-93626560D01*
G37*
G36*
X128443812Y-92626560D02*
G01*
X128457852Y-92630819D01*
X128470799Y-92637740D01*
X128482147Y-92647053D01*
X128491460Y-92658401D01*
X128498381Y-92671348D01*
X128502640Y-92685388D01*
X128504200Y-92701231D01*
X128504200Y-93523769D01*
X128502640Y-93539612D01*
X128498381Y-93553652D01*
X128491460Y-93566599D01*
X128482147Y-93577947D01*
X128470799Y-93587260D01*
X128457852Y-93594181D01*
X128443812Y-93598440D01*
X128427969Y-93600000D01*
X128230431Y-93600000D01*
X128214588Y-93598440D01*
X128200548Y-93594181D01*
X128187601Y-93587260D01*
X128176253Y-93577947D01*
X128166940Y-93566599D01*
X128160019Y-93553652D01*
X128155760Y-93539612D01*
X128154200Y-93523769D01*
X128154200Y-92701231D01*
X128155760Y-92685388D01*
X128160019Y-92671348D01*
X128166940Y-92658401D01*
X128176253Y-92647053D01*
X128187601Y-92637740D01*
X128200548Y-92630819D01*
X128214588Y-92626560D01*
X128230431Y-92625000D01*
X128427969Y-92625000D01*
X128443812Y-92626560D01*
G37*
G36*
X128943812Y-92626560D02*
G01*
X128957852Y-92630819D01*
X128970799Y-92637740D01*
X128982147Y-92647053D01*
X128991460Y-92658401D01*
X128998381Y-92671348D01*
X129002640Y-92685388D01*
X129004200Y-92701231D01*
X129004200Y-93523769D01*
X129002640Y-93539612D01*
X128998381Y-93553652D01*
X128991460Y-93566599D01*
X128982147Y-93577947D01*
X128970799Y-93587260D01*
X128957852Y-93594181D01*
X128943812Y-93598440D01*
X128927969Y-93600000D01*
X128730431Y-93600000D01*
X128714588Y-93598440D01*
X128700548Y-93594181D01*
X128687601Y-93587260D01*
X128676253Y-93577947D01*
X128666940Y-93566599D01*
X128660019Y-93553652D01*
X128655760Y-93539612D01*
X128654200Y-93523769D01*
X128654200Y-92701231D01*
X128655760Y-92685388D01*
X128660019Y-92671348D01*
X128666940Y-92658401D01*
X128676253Y-92647053D01*
X128687601Y-92637740D01*
X128700548Y-92630819D01*
X128714588Y-92626560D01*
X128730431Y-92625000D01*
X128927969Y-92625000D01*
X128943812Y-92626560D01*
G37*
G36*
X127943812Y-92626560D02*
G01*
X127957852Y-92630819D01*
X127970799Y-92637740D01*
X127982147Y-92647053D01*
X127991460Y-92658401D01*
X127998381Y-92671348D01*
X128002640Y-92685388D01*
X128004200Y-92701231D01*
X128004200Y-93523769D01*
X128002640Y-93539612D01*
X127998381Y-93553652D01*
X127991460Y-93566599D01*
X127982147Y-93577947D01*
X127970799Y-93587260D01*
X127957852Y-93594181D01*
X127943812Y-93598440D01*
X127927969Y-93600000D01*
X127730431Y-93600000D01*
X127714588Y-93598440D01*
X127700548Y-93594181D01*
X127687601Y-93587260D01*
X127676253Y-93577947D01*
X127666940Y-93566599D01*
X127660019Y-93553652D01*
X127655760Y-93539612D01*
X127654200Y-93523769D01*
X127654200Y-92701231D01*
X127655760Y-92685388D01*
X127660019Y-92671348D01*
X127666940Y-92658401D01*
X127676253Y-92647053D01*
X127687601Y-92637740D01*
X127700548Y-92630819D01*
X127714588Y-92626560D01*
X127730431Y-92625000D01*
X127927969Y-92625000D01*
X127943812Y-92626560D01*
G37*
G36*
X127443812Y-92626560D02*
G01*
X127457852Y-92630819D01*
X127470799Y-92637740D01*
X127482147Y-92647053D01*
X127491460Y-92658401D01*
X127498381Y-92671348D01*
X127502640Y-92685388D01*
X127504200Y-92701231D01*
X127504200Y-93523769D01*
X127502640Y-93539612D01*
X127498381Y-93553652D01*
X127491460Y-93566599D01*
X127482147Y-93577947D01*
X127470799Y-93587260D01*
X127457852Y-93594181D01*
X127443812Y-93598440D01*
X127427969Y-93600000D01*
X127230431Y-93600000D01*
X127214588Y-93598440D01*
X127200548Y-93594181D01*
X127187601Y-93587260D01*
X127176253Y-93577947D01*
X127166940Y-93566599D01*
X127160019Y-93553652D01*
X127155760Y-93539612D01*
X127154200Y-93523769D01*
X127154200Y-92701231D01*
X127155760Y-92685388D01*
X127160019Y-92671348D01*
X127166940Y-92658401D01*
X127176253Y-92647053D01*
X127187601Y-92637740D01*
X127200548Y-92630819D01*
X127214588Y-92626560D01*
X127230431Y-92625000D01*
X127427969Y-92625000D01*
X127443812Y-92626560D01*
G37*
G36*
X126943812Y-92626560D02*
G01*
X126957852Y-92630819D01*
X126970799Y-92637740D01*
X126982147Y-92647053D01*
X126991460Y-92658401D01*
X126998381Y-92671348D01*
X127002640Y-92685388D01*
X127004200Y-92701231D01*
X127004200Y-93523769D01*
X127002640Y-93539612D01*
X126998381Y-93553652D01*
X126991460Y-93566599D01*
X126982147Y-93577947D01*
X126970799Y-93587260D01*
X126957852Y-93594181D01*
X126943812Y-93598440D01*
X126927969Y-93600000D01*
X126730431Y-93600000D01*
X126714588Y-93598440D01*
X126700548Y-93594181D01*
X126687601Y-93587260D01*
X126676253Y-93577947D01*
X126666940Y-93566599D01*
X126660019Y-93553652D01*
X126655760Y-93539612D01*
X126654200Y-93523769D01*
X126654200Y-92701231D01*
X126655760Y-92685388D01*
X126660019Y-92671348D01*
X126666940Y-92658401D01*
X126676253Y-92647053D01*
X126687601Y-92637740D01*
X126700548Y-92630819D01*
X126714588Y-92626560D01*
X126730431Y-92625000D01*
X126927969Y-92625000D01*
X126943812Y-92626560D01*
G37*
G36*
X126443812Y-92626560D02*
G01*
X126457852Y-92630819D01*
X126470799Y-92637740D01*
X126482147Y-92647053D01*
X126491460Y-92658401D01*
X126498381Y-92671348D01*
X126502640Y-92685388D01*
X126504200Y-92701231D01*
X126504200Y-93523769D01*
X126502640Y-93539612D01*
X126498381Y-93553652D01*
X126491460Y-93566599D01*
X126482147Y-93577947D01*
X126470799Y-93587260D01*
X126457852Y-93594181D01*
X126443812Y-93598440D01*
X126427969Y-93600000D01*
X126230431Y-93600000D01*
X126214588Y-93598440D01*
X126200548Y-93594181D01*
X126187601Y-93587260D01*
X126176253Y-93577947D01*
X126166940Y-93566599D01*
X126160019Y-93553652D01*
X126155760Y-93539612D01*
X126154200Y-93523769D01*
X126154200Y-92701231D01*
X126155760Y-92685388D01*
X126160019Y-92671348D01*
X126166940Y-92658401D01*
X126176253Y-92647053D01*
X126187601Y-92637740D01*
X126200548Y-92630819D01*
X126214588Y-92626560D01*
X126230431Y-92625000D01*
X126427969Y-92625000D01*
X126443812Y-92626560D01*
G37*
G36*
X125943812Y-92626560D02*
G01*
X125957852Y-92630819D01*
X125970799Y-92637740D01*
X125982147Y-92647053D01*
X125991460Y-92658401D01*
X125998381Y-92671348D01*
X126002640Y-92685388D01*
X126004200Y-92701231D01*
X126004200Y-93523769D01*
X126002640Y-93539612D01*
X125998381Y-93553652D01*
X125991460Y-93566599D01*
X125982147Y-93577947D01*
X125970799Y-93587260D01*
X125957852Y-93594181D01*
X125943812Y-93598440D01*
X125927969Y-93600000D01*
X125730431Y-93600000D01*
X125714588Y-93598440D01*
X125700548Y-93594181D01*
X125687601Y-93587260D01*
X125676253Y-93577947D01*
X125666940Y-93566599D01*
X125660019Y-93553652D01*
X125655760Y-93539612D01*
X125654200Y-93523769D01*
X125654200Y-92701231D01*
X125655760Y-92685388D01*
X125660019Y-92671348D01*
X125666940Y-92658401D01*
X125676253Y-92647053D01*
X125687601Y-92637740D01*
X125700548Y-92630819D01*
X125714588Y-92626560D01*
X125730431Y-92625000D01*
X125927969Y-92625000D01*
X125943812Y-92626560D01*
G37*
G36*
X125443812Y-92626560D02*
G01*
X125457852Y-92630819D01*
X125470799Y-92637740D01*
X125482147Y-92647053D01*
X125491460Y-92658401D01*
X125498381Y-92671348D01*
X125502640Y-92685388D01*
X125504200Y-92701231D01*
X125504200Y-93523769D01*
X125502640Y-93539612D01*
X125498381Y-93553652D01*
X125491460Y-93566599D01*
X125482147Y-93577947D01*
X125470799Y-93587260D01*
X125457852Y-93594181D01*
X125443812Y-93598440D01*
X125427969Y-93600000D01*
X125230431Y-93600000D01*
X125214588Y-93598440D01*
X125200548Y-93594181D01*
X125187601Y-93587260D01*
X125176253Y-93577947D01*
X125166940Y-93566599D01*
X125160019Y-93553652D01*
X125155760Y-93539612D01*
X125154200Y-93523769D01*
X125154200Y-92701231D01*
X125155760Y-92685388D01*
X125160019Y-92671348D01*
X125166940Y-92658401D01*
X125176253Y-92647053D01*
X125187601Y-92637740D01*
X125200548Y-92630819D01*
X125214588Y-92626560D01*
X125230431Y-92625000D01*
X125427969Y-92625000D01*
X125443812Y-92626560D01*
G37*
G36*
X132030391Y-92133194D02*
G01*
X132060385Y-92142292D01*
X132088027Y-92157067D01*
X132112252Y-92176948D01*
X132132133Y-92201173D01*
X132146908Y-92228815D01*
X132156006Y-92258809D01*
X132159200Y-92291232D01*
X132159200Y-92708768D01*
X132156006Y-92741191D01*
X132146908Y-92771185D01*
X132132133Y-92798827D01*
X132112252Y-92823052D01*
X132088027Y-92842933D01*
X132060385Y-92857708D01*
X132030391Y-92866806D01*
X131997968Y-92870000D01*
X131630432Y-92870000D01*
X131598009Y-92866806D01*
X131568015Y-92857708D01*
X131540373Y-92842933D01*
X131516148Y-92823052D01*
X131496267Y-92798827D01*
X131481492Y-92771185D01*
X131472394Y-92741191D01*
X131469200Y-92708768D01*
X131469200Y-92291232D01*
X131472394Y-92258809D01*
X131481492Y-92228815D01*
X131496267Y-92201173D01*
X131516148Y-92176948D01*
X131540373Y-92157067D01*
X131568015Y-92142292D01*
X131598009Y-92133194D01*
X131630432Y-92130000D01*
X131997968Y-92130000D01*
X132030391Y-92133194D01*
G37*
G36*
X131060391Y-92133194D02*
G01*
X131090385Y-92142292D01*
X131118027Y-92157067D01*
X131142252Y-92176948D01*
X131162133Y-92201173D01*
X131176908Y-92228815D01*
X131186006Y-92258809D01*
X131189200Y-92291232D01*
X131189200Y-92708768D01*
X131186006Y-92741191D01*
X131176908Y-92771185D01*
X131162133Y-92798827D01*
X131142252Y-92823052D01*
X131118027Y-92842933D01*
X131090385Y-92857708D01*
X131060391Y-92866806D01*
X131027968Y-92870000D01*
X130660432Y-92870000D01*
X130628009Y-92866806D01*
X130598015Y-92857708D01*
X130570373Y-92842933D01*
X130546148Y-92823052D01*
X130526267Y-92798827D01*
X130511492Y-92771185D01*
X130502394Y-92741191D01*
X130499200Y-92708768D01*
X130499200Y-92291232D01*
X130502394Y-92258809D01*
X130511492Y-92228815D01*
X130526267Y-92201173D01*
X130546148Y-92176948D01*
X130570373Y-92157067D01*
X130598015Y-92142292D01*
X130628009Y-92133194D01*
X130660432Y-92130000D01*
X131027968Y-92130000D01*
X131060391Y-92133194D01*
G37*
G36*
X127380391Y-91418194D02*
G01*
X127410385Y-91427292D01*
X127438027Y-91442067D01*
X127462252Y-91461948D01*
X127482133Y-91486173D01*
X127496908Y-91513815D01*
X127506006Y-91543809D01*
X127509200Y-91576232D01*
X127509200Y-91993768D01*
X127506006Y-92026191D01*
X127496908Y-92056185D01*
X127482133Y-92083827D01*
X127462252Y-92108052D01*
X127438027Y-92127933D01*
X127410385Y-92142708D01*
X127380391Y-92151806D01*
X127347968Y-92155000D01*
X126980432Y-92155000D01*
X126948009Y-92151806D01*
X126918015Y-92142708D01*
X126890373Y-92127933D01*
X126866148Y-92108052D01*
X126846267Y-92083827D01*
X126831492Y-92056185D01*
X126822394Y-92026191D01*
X126819200Y-91993768D01*
X126819200Y-91576232D01*
X126822394Y-91543809D01*
X126831492Y-91513815D01*
X126846267Y-91486173D01*
X126866148Y-91461948D01*
X126890373Y-91442067D01*
X126918015Y-91427292D01*
X126948009Y-91418194D01*
X126980432Y-91415000D01*
X127347968Y-91415000D01*
X127380391Y-91418194D01*
G37*
G36*
X126410391Y-91418194D02*
G01*
X126440385Y-91427292D01*
X126468027Y-91442067D01*
X126492252Y-91461948D01*
X126512133Y-91486173D01*
X126526908Y-91513815D01*
X126536006Y-91543809D01*
X126539200Y-91576232D01*
X126539200Y-91993768D01*
X126536006Y-92026191D01*
X126526908Y-92056185D01*
X126512133Y-92083827D01*
X126492252Y-92108052D01*
X126468027Y-92127933D01*
X126440385Y-92142708D01*
X126410391Y-92151806D01*
X126377968Y-92155000D01*
X126010432Y-92155000D01*
X125978009Y-92151806D01*
X125948015Y-92142708D01*
X125920373Y-92127933D01*
X125896148Y-92108052D01*
X125876267Y-92083827D01*
X125861492Y-92056185D01*
X125852394Y-92026191D01*
X125849200Y-91993768D01*
X125849200Y-91576232D01*
X125852394Y-91543809D01*
X125861492Y-91513815D01*
X125876267Y-91486173D01*
X125896148Y-91461948D01*
X125920373Y-91442067D01*
X125948015Y-91427292D01*
X125978009Y-91418194D01*
X126010432Y-91415000D01*
X126377968Y-91415000D01*
X126410391Y-91418194D01*
G37*
M02*
