G04 #@! TF.GenerationSoftware,KiCad,Pcbnew,(5.0.1)-4*
G04 #@! TF.CreationDate,2019-05-08T11:41:41+02:00*
G04 #@! TF.ProjectId,nk-fido2,6E6B2D6669646F322E6B696361645F70,R3*
G04 #@! TF.SameCoordinates,PX791ddc0PY5e69114*
G04 #@! TF.FileFunction,Legend,Bot*
G04 #@! TF.FilePolarity,Positive*
%FSLAX46Y46*%
G04 Gerber Fmt 4.6, Leading zero omitted, Abs format (unit mm)*
G04 Created by KiCad (PCBNEW (5.0.1)-4) date 08.05.2019 11:41:41*
%MOMM*%
%LPD*%
G01*
G04 APERTURE LIST*
%ADD10C,0.150000*%
%ADD11C,0.127000*%
%ADD12C,0.196100*%
%ADD13C,0.250000*%
G04 APERTURE END LIST*
D10*
X2381581Y3127929D02*
X2714914Y3127929D01*
X2714914Y2604120D02*
X2714914Y3604120D01*
X2238723Y3604120D01*
X1857771Y2604120D02*
X1857771Y3604120D01*
X1381581Y2604120D02*
X1381581Y3604120D01*
X1143485Y3604120D01*
X1000628Y3556500D01*
X905390Y3461262D01*
X857771Y3366024D01*
X810152Y3175548D01*
X810152Y3032691D01*
X857771Y2842215D01*
X905390Y2746977D01*
X1000628Y2651739D01*
X1143485Y2604120D01*
X1381581Y2604120D01*
X191104Y3604120D02*
X628Y3604120D01*
X-94610Y3556500D01*
X-189848Y3461262D01*
X-237467Y3270786D01*
X-237467Y2937453D01*
X-189848Y2746977D01*
X-94610Y2651739D01*
X628Y2604120D01*
X191104Y2604120D01*
X286343Y2651739D01*
X381581Y2746977D01*
X429200Y2937453D01*
X429200Y3270786D01*
X381581Y3461262D01*
X286343Y3556500D01*
X191104Y3604120D01*
X-618419Y3508881D02*
X-666038Y3556500D01*
X-761277Y3604120D01*
X-999372Y3604120D01*
X-1094610Y3556500D01*
X-1142229Y3508881D01*
X-1189848Y3413643D01*
X-1189848Y3318405D01*
X-1142229Y3175548D01*
X-570800Y2604120D01*
X-1189848Y2604120D01*
X2714914Y4204120D02*
X2714914Y5204120D01*
X2143485Y4204120D01*
X2143485Y5204120D01*
X1667295Y4204120D02*
X1667295Y4870786D01*
X1667295Y5204120D02*
X1714914Y5156500D01*
X1667295Y5108881D01*
X1619676Y5156500D01*
X1667295Y5204120D01*
X1667295Y5108881D01*
X1333961Y4870786D02*
X953009Y4870786D01*
X1191104Y5204120D02*
X1191104Y4346977D01*
X1143485Y4251739D01*
X1048247Y4204120D01*
X953009Y4204120D01*
X619676Y4204120D02*
X619676Y4870786D01*
X619676Y4680310D02*
X572057Y4775548D01*
X524438Y4823167D01*
X429200Y4870786D01*
X333961Y4870786D01*
X-142229Y4204120D02*
X-46991Y4251739D01*
X628Y4299358D01*
X48247Y4394596D01*
X48247Y4680310D01*
X628Y4775548D01*
X-46991Y4823167D01*
X-142229Y4870786D01*
X-285086Y4870786D01*
X-380324Y4823167D01*
X-427943Y4775548D01*
X-475562Y4680310D01*
X-475562Y4394596D01*
X-427943Y4299358D01*
X-380324Y4251739D01*
X-285086Y4204120D01*
X-142229Y4204120D01*
X-904134Y4204120D02*
X-904134Y5204120D01*
X-999372Y4585072D02*
X-1285086Y4204120D01*
X-1285086Y4870786D02*
X-904134Y4489834D01*
X-2094610Y4251739D02*
X-1999372Y4204120D01*
X-1808896Y4204120D01*
X-1713658Y4251739D01*
X-1666039Y4346977D01*
X-1666039Y4727929D01*
X-1713658Y4823167D01*
X-1808896Y4870786D01*
X-1999372Y4870786D01*
X-2094610Y4823167D01*
X-2142229Y4727929D01*
X-2142229Y4632691D01*
X-1666039Y4537453D01*
X-2475562Y4870786D02*
X-2713658Y4204120D01*
X-2951753Y4870786D02*
X-2713658Y4204120D01*
X-2618420Y3966024D01*
X-2570800Y3918405D01*
X-2475562Y3870786D01*
X2143485Y969120D02*
X2476819Y1445310D01*
X2714914Y969120D02*
X2714914Y1969120D01*
X2333961Y1969120D01*
X2238723Y1921500D01*
X2191104Y1873881D01*
X2143485Y1778643D01*
X2143485Y1635786D01*
X2191104Y1540548D01*
X2238723Y1492929D01*
X2333961Y1445310D01*
X2714914Y1445310D01*
X1333961Y1016739D02*
X1429200Y969120D01*
X1619676Y969120D01*
X1714914Y1016739D01*
X1762533Y1111977D01*
X1762533Y1492929D01*
X1714914Y1588167D01*
X1619676Y1635786D01*
X1429200Y1635786D01*
X1333961Y1588167D01*
X1286342Y1492929D01*
X1286342Y1397691D01*
X1762533Y1302453D01*
X953009Y1635786D02*
X714914Y969120D01*
X476819Y1635786D01*
X95866Y1064358D02*
X48247Y1016739D01*
X95866Y969120D01*
X143485Y1016739D01*
X95866Y1064358D01*
X95866Y969120D01*
X-285086Y1969120D02*
X-904134Y1969120D01*
X-570800Y1588167D01*
X-713658Y1588167D01*
X-808896Y1540548D01*
X-856515Y1492929D01*
X-904134Y1397691D01*
X-904134Y1159596D01*
X-856515Y1064358D01*
X-808896Y1016739D01*
X-713658Y969120D01*
X-427943Y969120D01*
X-332705Y1016739D01*
X-285086Y1064358D01*
D11*
G04 #@! TO.C,D2*
X-250000Y8066500D02*
G75*
G03X-250000Y8066500I-100000J0D01*
G01*
D12*
X-2101974Y6616888D02*
X-2101974Y7710243D01*
X-2375789Y7710243D01*
X-2540078Y7658178D01*
X-2649604Y7554049D01*
X-2704367Y7449920D01*
X-2759130Y7241662D01*
X-2759130Y7085468D01*
X-2704367Y6877210D01*
X-2649604Y6773081D01*
X-2540078Y6668952D01*
X-2375789Y6616888D01*
X-2101974Y6616888D01*
X-3197234Y7606113D02*
X-3251997Y7658178D01*
X-3361523Y7710243D01*
X-3635338Y7710243D01*
X-3744864Y7658178D01*
X-3799627Y7606113D01*
X-3854390Y7501984D01*
X-3854390Y7397855D01*
X-3799627Y7241662D01*
X-3142471Y6616888D01*
X-3854390Y6616888D01*
G04 #@! TO.C,J1*
D13*
X8231580Y-3420166D02*
X8945866Y-3420166D01*
X9088723Y-3372547D01*
X9183961Y-3277309D01*
X9231580Y-3134452D01*
X9231580Y-3039214D01*
X9231580Y-4420166D02*
X9231580Y-3848738D01*
X9231580Y-4134452D02*
X8231580Y-4134452D01*
X8374438Y-4039214D01*
X8469676Y-3943976D01*
X8517295Y-3848738D01*
G04 #@! TD*
M02*
