G04 #@! TF.GenerationSoftware,KiCad,Pcbnew,5.1.6-c6e7f7d~86~ubuntu18.04.1*
G04 #@! TF.CreationDate,2020-06-25T15:29:40+02:00*
G04 #@! TF.ProjectId,nk-fido2,6e6b2d66-6964-46f3-922e-6b696361645f,R5*
G04 #@! TF.SameCoordinates,Original*
G04 #@! TF.FileFunction,Legend,Bot*
G04 #@! TF.FilePolarity,Positive*
%FSLAX46Y46*%
G04 Gerber Fmt 4.6, Leading zero omitted, Abs format (unit mm)*
G04 Created by KiCad (PCBNEW 5.1.6-c6e7f7d~86~ubuntu18.04.1) date 2020-06-25 15:29:40*
%MOMM*%
%LPD*%
G01*
G04 APERTURE LIST*
%ADD10C,0.150000*%
%ADD11C,0.200000*%
%ADD12C,0.120000*%
%ADD13C,0.250000*%
%ADD14R,1.600000X3.300000*%
%ADD15C,1.199820*%
%ADD16R,2.098980X1.298880*%
%ADD17O,3.600120X1.601140*%
%ADD18R,0.900000X1.100000*%
%ADD19C,1.000000*%
G04 APERTURE END LIST*
D10*
X129081581Y-96968571D02*
X129414914Y-96968571D01*
X129414914Y-97492380D02*
X129414914Y-96492380D01*
X128938723Y-96492380D01*
X128557771Y-97492380D02*
X128557771Y-96492380D01*
X128081581Y-97492380D02*
X128081581Y-96492380D01*
X127843485Y-96492380D01*
X127700628Y-96540000D01*
X127605390Y-96635238D01*
X127557771Y-96730476D01*
X127510152Y-96920952D01*
X127510152Y-97063809D01*
X127557771Y-97254285D01*
X127605390Y-97349523D01*
X127700628Y-97444761D01*
X127843485Y-97492380D01*
X128081581Y-97492380D01*
X126891104Y-96492380D02*
X126700628Y-96492380D01*
X126605390Y-96540000D01*
X126510152Y-96635238D01*
X126462533Y-96825714D01*
X126462533Y-97159047D01*
X126510152Y-97349523D01*
X126605390Y-97444761D01*
X126700628Y-97492380D01*
X126891104Y-97492380D01*
X126986343Y-97444761D01*
X127081581Y-97349523D01*
X127129200Y-97159047D01*
X127129200Y-96825714D01*
X127081581Y-96635238D01*
X126986343Y-96540000D01*
X126891104Y-96492380D01*
X126081581Y-96587619D02*
X126033962Y-96540000D01*
X125938723Y-96492380D01*
X125700628Y-96492380D01*
X125605390Y-96540000D01*
X125557771Y-96587619D01*
X125510152Y-96682857D01*
X125510152Y-96778095D01*
X125557771Y-96920952D01*
X126129200Y-97492380D01*
X125510152Y-97492380D01*
X129414914Y-95892380D02*
X129414914Y-94892380D01*
X128843485Y-95892380D01*
X128843485Y-94892380D01*
X128367295Y-95892380D02*
X128367295Y-95225714D01*
X128367295Y-94892380D02*
X128414914Y-94940000D01*
X128367295Y-94987619D01*
X128319676Y-94940000D01*
X128367295Y-94892380D01*
X128367295Y-94987619D01*
X128033961Y-95225714D02*
X127653009Y-95225714D01*
X127891104Y-94892380D02*
X127891104Y-95749523D01*
X127843485Y-95844761D01*
X127748247Y-95892380D01*
X127653009Y-95892380D01*
X127319676Y-95892380D02*
X127319676Y-95225714D01*
X127319676Y-95416190D02*
X127272057Y-95320952D01*
X127224438Y-95273333D01*
X127129200Y-95225714D01*
X127033961Y-95225714D01*
X126557771Y-95892380D02*
X126653009Y-95844761D01*
X126700628Y-95797142D01*
X126748247Y-95701904D01*
X126748247Y-95416190D01*
X126700628Y-95320952D01*
X126653009Y-95273333D01*
X126557771Y-95225714D01*
X126414914Y-95225714D01*
X126319676Y-95273333D01*
X126272057Y-95320952D01*
X126224438Y-95416190D01*
X126224438Y-95701904D01*
X126272057Y-95797142D01*
X126319676Y-95844761D01*
X126414914Y-95892380D01*
X126557771Y-95892380D01*
X125795866Y-95892380D02*
X125795866Y-94892380D01*
X125700628Y-95511428D02*
X125414914Y-95892380D01*
X125414914Y-95225714D02*
X125795866Y-95606666D01*
X124605390Y-95844761D02*
X124700628Y-95892380D01*
X124891104Y-95892380D01*
X124986342Y-95844761D01*
X125033961Y-95749523D01*
X125033961Y-95368571D01*
X124986342Y-95273333D01*
X124891104Y-95225714D01*
X124700628Y-95225714D01*
X124605390Y-95273333D01*
X124557771Y-95368571D01*
X124557771Y-95463809D01*
X125033961Y-95559047D01*
X124224438Y-95225714D02*
X123986342Y-95892380D01*
X123748247Y-95225714D02*
X123986342Y-95892380D01*
X124081580Y-96130476D01*
X124129200Y-96178095D01*
X124224438Y-96225714D01*
X128843485Y-99087380D02*
X129176819Y-98611190D01*
X129414914Y-99087380D02*
X129414914Y-98087380D01*
X129033961Y-98087380D01*
X128938723Y-98135000D01*
X128891104Y-98182619D01*
X128843485Y-98277857D01*
X128843485Y-98420714D01*
X128891104Y-98515952D01*
X128938723Y-98563571D01*
X129033961Y-98611190D01*
X129414914Y-98611190D01*
X128033961Y-99039761D02*
X128129200Y-99087380D01*
X128319676Y-99087380D01*
X128414914Y-99039761D01*
X128462533Y-98944523D01*
X128462533Y-98563571D01*
X128414914Y-98468333D01*
X128319676Y-98420714D01*
X128129200Y-98420714D01*
X128033961Y-98468333D01*
X127986342Y-98563571D01*
X127986342Y-98658809D01*
X128462533Y-98754047D01*
X127653009Y-98420714D02*
X127414914Y-99087380D01*
X127176819Y-98420714D01*
X126795866Y-98992142D02*
X126748247Y-99039761D01*
X126795866Y-99087380D01*
X126843485Y-99039761D01*
X126795866Y-98992142D01*
X126795866Y-99087380D01*
X125891104Y-98087380D02*
X126081580Y-98087380D01*
X126176819Y-98135000D01*
X126224438Y-98182619D01*
X126319676Y-98325476D01*
X126367295Y-98515952D01*
X126367295Y-98896904D01*
X126319676Y-98992142D01*
X126272057Y-99039761D01*
X126176819Y-99087380D01*
X125986342Y-99087380D01*
X125891104Y-99039761D01*
X125843485Y-98992142D01*
X125795866Y-98896904D01*
X125795866Y-98658809D01*
X125843485Y-98563571D01*
X125891104Y-98515952D01*
X125986342Y-98468333D01*
X126176819Y-98468333D01*
X126272057Y-98515952D01*
X126319676Y-98563571D01*
X126367295Y-98658809D01*
D11*
X119689200Y-95105000D02*
X120489200Y-95105000D01*
X119689200Y-98305000D02*
X120489200Y-98305000D01*
X120489200Y-103065000D02*
X119689200Y-103065000D01*
X120489200Y-99865000D02*
X119689200Y-99865000D01*
D12*
X125779200Y-91160000D02*
X125179200Y-91160000D01*
X125179200Y-91160000D02*
X125179200Y-94060000D01*
X127479200Y-91160000D02*
X127479200Y-94060000D01*
D10*
X117441580Y-96266904D02*
X116441580Y-96266904D01*
X116441580Y-96647857D01*
X116489200Y-96743095D01*
X116536819Y-96790714D01*
X116632057Y-96838333D01*
X116774914Y-96838333D01*
X116870152Y-96790714D01*
X116917771Y-96743095D01*
X116965390Y-96647857D01*
X116965390Y-96266904D01*
X116536819Y-97219285D02*
X116489200Y-97266904D01*
X116441580Y-97362142D01*
X116441580Y-97600238D01*
X116489200Y-97695476D01*
X116536819Y-97743095D01*
X116632057Y-97790714D01*
X116727295Y-97790714D01*
X116870152Y-97743095D01*
X117441580Y-97171666D01*
X117441580Y-97790714D01*
X123641580Y-100426904D02*
X122641580Y-100426904D01*
X122641580Y-100807857D01*
X122689200Y-100903095D01*
X122736819Y-100950714D01*
X122832057Y-100998333D01*
X122974914Y-100998333D01*
X123070152Y-100950714D01*
X123117771Y-100903095D01*
X123165390Y-100807857D01*
X123165390Y-100426904D01*
X123641580Y-101950714D02*
X123641580Y-101379285D01*
X123641580Y-101665000D02*
X122641580Y-101665000D01*
X122784438Y-101569761D01*
X122879676Y-101474523D01*
X122927295Y-101379285D01*
D13*
X135231580Y-102416666D02*
X135945866Y-102416666D01*
X136088723Y-102369047D01*
X136183961Y-102273809D01*
X136231580Y-102130952D01*
X136231580Y-102035714D01*
X136231580Y-103416666D02*
X136231580Y-102845238D01*
X136231580Y-103130952D02*
X135231580Y-103130952D01*
X135374438Y-103035714D01*
X135469676Y-102940476D01*
X135517295Y-102845238D01*
D10*
X129119676Y-93446904D02*
X129119676Y-92646904D01*
X128929200Y-92646904D01*
X128814914Y-92685000D01*
X128738723Y-92761190D01*
X128700628Y-92837380D01*
X128662533Y-92989761D01*
X128662533Y-93104047D01*
X128700628Y-93256428D01*
X128738723Y-93332619D01*
X128814914Y-93408809D01*
X128929200Y-93446904D01*
X129119676Y-93446904D01*
X128357771Y-92723095D02*
X128319676Y-92685000D01*
X128243485Y-92646904D01*
X128053009Y-92646904D01*
X127976819Y-92685000D01*
X127938723Y-92723095D01*
X127900628Y-92799285D01*
X127900628Y-92875476D01*
X127938723Y-92989761D01*
X128395866Y-93446904D01*
X127900628Y-93446904D01*
%LPC*%
D14*
X121589200Y-96705000D03*
X118589200Y-96705000D03*
X118589200Y-101465000D03*
X121589200Y-101465000D03*
D15*
X133999600Y-96762050D03*
X133999600Y-101262930D03*
D16*
X131599020Y-95512370D03*
X131599020Y-102512610D03*
X131599020Y-97996490D03*
X131599020Y-100013250D03*
D17*
X133999600Y-104712250D03*
X133999600Y-93312730D03*
D18*
X126879200Y-91860000D03*
X126879200Y-93360000D03*
X125779200Y-93360000D03*
X125779200Y-91860000D03*
D19*
X133479200Y-106350000D03*
M02*
