G04 #@! TF.GenerationSoftware,KiCad,Pcbnew,(5.1.2)-1*
G04 #@! TF.CreationDate,2019-10-21T11:23:54+02:00*
G04 #@! TF.ProjectId,nk-fido2,6e6b2d66-6964-46f3-922e-6b696361645f,R5*
G04 #@! TF.SameCoordinates,Original*
G04 #@! TF.FileFunction,Soldermask,Bot*
G04 #@! TF.FilePolarity,Negative*
%FSLAX46Y46*%
G04 Gerber Fmt 4.6, Leading zero omitted, Abs format (unit mm)*
G04 Created by KiCad (PCBNEW (5.1.2)-1) date 2019-10-21 11:23:54*
%MOMM*%
%LPD*%
G04 APERTURE LIST*
%ADD10C,0.150000*%
G04 APERTURE END LIST*
D10*
G36*
X133625045Y-105869215D02*
G01*
X133716039Y-105906906D01*
X133797931Y-105961625D01*
X133867575Y-106031269D01*
X133922294Y-106113161D01*
X133959985Y-106204155D01*
X133979200Y-106300754D01*
X133979200Y-106399246D01*
X133959985Y-106495845D01*
X133922294Y-106586839D01*
X133867575Y-106668731D01*
X133797931Y-106738375D01*
X133716039Y-106793094D01*
X133625045Y-106830785D01*
X133528446Y-106850000D01*
X133429954Y-106850000D01*
X133333355Y-106830785D01*
X133242361Y-106793094D01*
X133160469Y-106738375D01*
X133090825Y-106668731D01*
X133036106Y-106586839D01*
X132998415Y-106495845D01*
X132979200Y-106399246D01*
X132979200Y-106300754D01*
X132998415Y-106204155D01*
X133036106Y-106113161D01*
X133090825Y-106031269D01*
X133160469Y-105961625D01*
X133242361Y-105906906D01*
X133333355Y-105869215D01*
X133429954Y-105850000D01*
X133528446Y-105850000D01*
X133625045Y-105869215D01*
X133625045Y-105869215D01*
G37*
G36*
X135156029Y-103923264D02*
G01*
X135280400Y-103960992D01*
X135306941Y-103969043D01*
X135438062Y-104039129D01*
X135446015Y-104043380D01*
X135567917Y-104143423D01*
X135667960Y-104265325D01*
X135667961Y-104265327D01*
X135742297Y-104404399D01*
X135742298Y-104404403D01*
X135788076Y-104555311D01*
X135803533Y-104712250D01*
X135788076Y-104869189D01*
X135750348Y-104993560D01*
X135742297Y-105020101D01*
X135672211Y-105151222D01*
X135667960Y-105159175D01*
X135567917Y-105281077D01*
X135446015Y-105381120D01*
X135446013Y-105381121D01*
X135306941Y-105455457D01*
X135280400Y-105463508D01*
X135156029Y-105501236D01*
X135038414Y-105512820D01*
X132960786Y-105512820D01*
X132843171Y-105501236D01*
X132718800Y-105463508D01*
X132692259Y-105455457D01*
X132553187Y-105381121D01*
X132553185Y-105381120D01*
X132431283Y-105281077D01*
X132331240Y-105159175D01*
X132326989Y-105151222D01*
X132256903Y-105020101D01*
X132248852Y-104993560D01*
X132211124Y-104869189D01*
X132195667Y-104712250D01*
X132211124Y-104555311D01*
X132256902Y-104404403D01*
X132256903Y-104404399D01*
X132331239Y-104265327D01*
X132331240Y-104265325D01*
X132431283Y-104143423D01*
X132553185Y-104043380D01*
X132561138Y-104039129D01*
X132692259Y-103969043D01*
X132718800Y-103960992D01*
X132843171Y-103923264D01*
X132960786Y-103911680D01*
X135038414Y-103911680D01*
X135156029Y-103923264D01*
X135156029Y-103923264D01*
G37*
G36*
X132648510Y-103162050D02*
G01*
X130549530Y-103162050D01*
X130549530Y-101863170D01*
X132648510Y-101863170D01*
X132648510Y-103162050D01*
X132648510Y-103162050D01*
G37*
G36*
X134174587Y-100686074D02*
G01*
X134283764Y-100731296D01*
X134382021Y-100796949D01*
X134465581Y-100880509D01*
X134531234Y-100978766D01*
X134576456Y-101087943D01*
X134599510Y-101203844D01*
X134599510Y-101322016D01*
X134576456Y-101437917D01*
X134531234Y-101547094D01*
X134465581Y-101645351D01*
X134382021Y-101728911D01*
X134283764Y-101794564D01*
X134174587Y-101839786D01*
X134058686Y-101862840D01*
X133940514Y-101862840D01*
X133824613Y-101839786D01*
X133715436Y-101794564D01*
X133617179Y-101728911D01*
X133533619Y-101645351D01*
X133467966Y-101547094D01*
X133422744Y-101437917D01*
X133399690Y-101322016D01*
X133399690Y-101203844D01*
X133422744Y-101087943D01*
X133467966Y-100978766D01*
X133533619Y-100880509D01*
X133617179Y-100796949D01*
X133715436Y-100731296D01*
X133824613Y-100686074D01*
X133940514Y-100663020D01*
X134058686Y-100663020D01*
X134174587Y-100686074D01*
X134174587Y-100686074D01*
G37*
G36*
X121179200Y-101310000D02*
G01*
X117879200Y-101310000D01*
X117879200Y-99710000D01*
X121179200Y-99710000D01*
X121179200Y-101310000D01*
X121179200Y-101310000D01*
G37*
G36*
X132648510Y-100662690D02*
G01*
X130549530Y-100662690D01*
X130549530Y-99363810D01*
X132648510Y-99363810D01*
X132648510Y-100662690D01*
X132648510Y-100662690D01*
G37*
G36*
X132648510Y-98645930D02*
G01*
X130549530Y-98645930D01*
X130549530Y-97347050D01*
X132648510Y-97347050D01*
X132648510Y-98645930D01*
X132648510Y-98645930D01*
G37*
G36*
X121179200Y-98310000D02*
G01*
X117879200Y-98310000D01*
X117879200Y-96710000D01*
X121179200Y-96710000D01*
X121179200Y-98310000D01*
X121179200Y-98310000D01*
G37*
G36*
X134174587Y-96185194D02*
G01*
X134283764Y-96230416D01*
X134382021Y-96296069D01*
X134465581Y-96379629D01*
X134531234Y-96477886D01*
X134576456Y-96587063D01*
X134599510Y-96702964D01*
X134599510Y-96821136D01*
X134576456Y-96937037D01*
X134531234Y-97046214D01*
X134465581Y-97144471D01*
X134382021Y-97228031D01*
X134283764Y-97293684D01*
X134174587Y-97338906D01*
X134058686Y-97361960D01*
X133940514Y-97361960D01*
X133824613Y-97338906D01*
X133715436Y-97293684D01*
X133617179Y-97228031D01*
X133533619Y-97144471D01*
X133467966Y-97046214D01*
X133422744Y-96937037D01*
X133399690Y-96821136D01*
X133399690Y-96702964D01*
X133422744Y-96587063D01*
X133467966Y-96477886D01*
X133533619Y-96379629D01*
X133617179Y-96296069D01*
X133715436Y-96230416D01*
X133824613Y-96185194D01*
X133940514Y-96162140D01*
X134058686Y-96162140D01*
X134174587Y-96185194D01*
X134174587Y-96185194D01*
G37*
G36*
X132648510Y-96161810D02*
G01*
X130549530Y-96161810D01*
X130549530Y-94862930D01*
X132648510Y-94862930D01*
X132648510Y-96161810D01*
X132648510Y-96161810D01*
G37*
G36*
X135156029Y-92523744D02*
G01*
X135280400Y-92561472D01*
X135306941Y-92569523D01*
X135438062Y-92639609D01*
X135446015Y-92643860D01*
X135567917Y-92743903D01*
X135667960Y-92865805D01*
X135667961Y-92865807D01*
X135742297Y-93004879D01*
X135742298Y-93004883D01*
X135788076Y-93155791D01*
X135803533Y-93312730D01*
X135788076Y-93469669D01*
X135750348Y-93594040D01*
X135742297Y-93620581D01*
X135672211Y-93751702D01*
X135667960Y-93759655D01*
X135567917Y-93881557D01*
X135446015Y-93981600D01*
X135446013Y-93981601D01*
X135306941Y-94055937D01*
X135280400Y-94063988D01*
X135156029Y-94101716D01*
X135038414Y-94113300D01*
X132960786Y-94113300D01*
X132843171Y-94101716D01*
X132718800Y-94063988D01*
X132692259Y-94055937D01*
X132553187Y-93981601D01*
X132553185Y-93981600D01*
X132431283Y-93881557D01*
X132331240Y-93759655D01*
X132326989Y-93751702D01*
X132256903Y-93620581D01*
X132248852Y-93594040D01*
X132211124Y-93469669D01*
X132195667Y-93312730D01*
X132211124Y-93155791D01*
X132256902Y-93004883D01*
X132256903Y-93004879D01*
X132331239Y-92865807D01*
X132331240Y-92865805D01*
X132431283Y-92743903D01*
X132553185Y-92643860D01*
X132561138Y-92639609D01*
X132692259Y-92569523D01*
X132718800Y-92561472D01*
X132843171Y-92523744D01*
X132960786Y-92512160D01*
X135038414Y-92512160D01*
X135156029Y-92523744D01*
X135156029Y-92523744D01*
G37*
G36*
X127329200Y-93910000D02*
G01*
X126429200Y-93910000D01*
X126429200Y-92810000D01*
X127329200Y-92810000D01*
X127329200Y-93910000D01*
X127329200Y-93910000D01*
G37*
G36*
X126229200Y-93910000D02*
G01*
X125329200Y-93910000D01*
X125329200Y-92810000D01*
X126229200Y-92810000D01*
X126229200Y-93910000D01*
X126229200Y-93910000D01*
G37*
G36*
X115975045Y-91519215D02*
G01*
X116066039Y-91556906D01*
X116147931Y-91611625D01*
X116217575Y-91681269D01*
X116272294Y-91763161D01*
X116309985Y-91854155D01*
X116329200Y-91950754D01*
X116329200Y-92049246D01*
X116309985Y-92145845D01*
X116272294Y-92236839D01*
X116217575Y-92318731D01*
X116147931Y-92388375D01*
X116066039Y-92443094D01*
X115975045Y-92480785D01*
X115878446Y-92500000D01*
X115779954Y-92500000D01*
X115683355Y-92480785D01*
X115592361Y-92443094D01*
X115510469Y-92388375D01*
X115440825Y-92318731D01*
X115386106Y-92236839D01*
X115348415Y-92145845D01*
X115329200Y-92049246D01*
X115329200Y-91950754D01*
X115348415Y-91854155D01*
X115386106Y-91763161D01*
X115440825Y-91681269D01*
X115510469Y-91611625D01*
X115592361Y-91556906D01*
X115683355Y-91519215D01*
X115779954Y-91500000D01*
X115878446Y-91500000D01*
X115975045Y-91519215D01*
X115975045Y-91519215D01*
G37*
G36*
X127329200Y-92410000D02*
G01*
X126429200Y-92410000D01*
X126429200Y-91310000D01*
X127329200Y-91310000D01*
X127329200Y-92410000D01*
X127329200Y-92410000D01*
G37*
G36*
X126229200Y-92410000D02*
G01*
X125329200Y-92410000D01*
X125329200Y-91310000D01*
X126229200Y-91310000D01*
X126229200Y-92410000D01*
X126229200Y-92410000D01*
G37*
M02*
