G04 #@! TF.GenerationSoftware,KiCad,Pcbnew,(5.0.1)-4*
G04 #@! TF.CreationDate,2019-02-20T12:29:10+01:00*
G04 #@! TF.ProjectId,nk-fido2,6E6B2D6669646F322E6B696361645F70,R1*
G04 #@! TF.SameCoordinates,PX791ddc0PY5e69114*
G04 #@! TF.FileFunction,Copper,L1,Top,Signal*
G04 #@! TF.FilePolarity,Positive*
%FSLAX46Y46*%
G04 Gerber Fmt 4.6, Leading zero omitted, Abs format (unit mm)*
G04 Created by KiCad (PCBNEW (5.0.1)-4) date 20.02.2019 12:29:10*
%MOMM*%
%LPD*%
G01*
G04 APERTURE LIST*
G04 #@! TA.AperFunction,EtchedComponent*
%ADD10C,0.150000*%
G04 #@! TD*
G04 #@! TA.AperFunction,ComponentPad*
%ADD11C,1.099820*%
G04 #@! TD*
G04 #@! TA.AperFunction,ComponentPad*
%ADD12O,3.500120X1.501140*%
G04 #@! TD*
G04 #@! TA.AperFunction,SMDPad,CuDef*
%ADD13R,3.100000X2.200000*%
G04 #@! TD*
G04 #@! TA.AperFunction,SMDPad,CuDef*
%ADD14C,0.500000*%
G04 #@! TD*
G04 #@! TA.AperFunction,Conductor*
%ADD15C,0.150000*%
G04 #@! TD*
G04 #@! TA.AperFunction,SMDPad,CuDef*
%ADD16R,0.350000X0.600000*%
G04 #@! TD*
G04 #@! TA.AperFunction,SMDPad,CuDef*
%ADD17R,2.380000X1.650000*%
G04 #@! TD*
G04 #@! TA.AperFunction,SMDPad,CuDef*
%ADD18R,1.500000X1.300000*%
G04 #@! TD*
G04 #@! TA.AperFunction,SMDPad,CuDef*
%ADD19R,0.300000X0.550000*%
G04 #@! TD*
G04 #@! TA.AperFunction,SMDPad,CuDef*
%ADD20R,1.060000X0.650000*%
G04 #@! TD*
G04 #@! TA.AperFunction,SMDPad,CuDef*
%ADD21C,0.590000*%
G04 #@! TD*
G04 #@! TA.AperFunction,BGAPad,CuDef*
%ADD22C,1.750000*%
G04 #@! TD*
G04 #@! TA.AperFunction,SMDPad,CuDef*
%ADD23R,0.100000X0.100000*%
G04 #@! TD*
G04 #@! TA.AperFunction,SMDPad,CuDef*
%ADD24C,0.580000*%
G04 #@! TD*
G04 #@! TA.AperFunction,BGAPad,CuDef*
%ADD25C,0.500000*%
G04 #@! TD*
G04 #@! TA.AperFunction,SMDPad,CuDef*
%ADD26C,3.450000*%
G04 #@! TD*
G04 #@! TA.AperFunction,SMDPad,CuDef*
%ADD27C,0.250000*%
G04 #@! TD*
G04 #@! TA.AperFunction,SMDPad,CuDef*
%ADD28R,0.300000X0.450000*%
G04 #@! TD*
G04 #@! TA.AperFunction,BGAPad,CuDef*
%ADD29C,1.800000*%
G04 #@! TD*
G04 #@! TA.AperFunction,ViaPad*
%ADD30C,0.500000*%
G04 #@! TD*
G04 #@! TA.AperFunction,Conductor*
%ADD31C,0.200000*%
G04 #@! TD*
G04 #@! TA.AperFunction,Conductor*
%ADD32C,0.400000*%
G04 #@! TD*
G04 #@! TA.AperFunction,Conductor*
%ADD33C,0.300000*%
G04 #@! TD*
G04 #@! TA.AperFunction,Conductor*
%ADD34C,0.250000*%
G04 #@! TD*
G04 #@! TA.AperFunction,Conductor*
%ADD35C,0.450000*%
G04 #@! TD*
G04 APERTURE END LIST*
D10*
G04 #@! TO.C,L1*
G36*
X2399200Y-3888500D02*
X2699200Y-3888500D01*
X2699200Y-3658500D01*
X2399200Y-3358500D01*
X2399200Y-3888500D01*
G37*
G36*
X3359200Y-3888500D02*
X3359200Y-3458500D01*
X3259200Y-3458500D01*
X3059200Y-3658500D01*
X3059200Y-3888500D01*
X3359200Y-3888500D01*
G37*
G36*
X3359200Y-2588500D02*
X3359200Y-3018500D01*
X3259200Y-3018500D01*
X3059200Y-2818500D01*
X3059200Y-2588500D01*
X3359200Y-2588500D01*
G37*
G36*
X2399200Y-2588500D02*
X2399200Y-3018500D01*
X2499200Y-3018500D01*
X2699200Y-2818500D01*
X2699200Y-2588500D01*
X2399200Y-2588500D01*
G37*
G04 #@! TD*
D11*
G04 #@! TO.P,J1,8*
G04 #@! TO.N,N/C*
X6999600Y2234450D03*
G04 #@! TO.P,J1,7*
X6999600Y-2266430D03*
D12*
G04 #@! TO.P,J1,6*
G04 #@! TO.N,Net-(C5-Pad1)*
X6999600Y-5715750D03*
G04 #@! TO.P,J1,5*
X6999600Y5683770D03*
G04 #@! TD*
D13*
G04 #@! TO.P,L2,2*
G04 #@! TO.N,Net-(L2-Pad2)*
X-8775000Y-3043500D03*
G04 #@! TO.P,L2,1*
G04 #@! TO.N,Net-(L2-Pad1)*
X-8775000Y-5743500D03*
G04 #@! TD*
D14*
G04 #@! TO.P,SJ1,1*
G04 #@! TO.N,Net-(SJ1-Pad1)*
X-8320800Y861500D03*
D15*
G04 #@! TD*
G04 #@! TO.N,Net-(SJ1-Pad1)*
G04 #@! TO.C,SJ1*
G36*
X-9070800Y361500D02*
X-9070800Y861500D01*
X-9070198Y861500D01*
X-9070198Y886034D01*
X-9065388Y934865D01*
X-9055816Y982990D01*
X-9041572Y1029945D01*
X-9022795Y1075278D01*
X-8999664Y1118551D01*
X-8972404Y1159350D01*
X-8941276Y1197279D01*
X-8906579Y1231976D01*
X-8868650Y1263104D01*
X-8827851Y1290364D01*
X-8784578Y1313495D01*
X-8739245Y1332272D01*
X-8692290Y1346516D01*
X-8644165Y1356088D01*
X-8595334Y1360898D01*
X-8570800Y1360898D01*
X-8570800Y1361500D01*
X-8070800Y1361500D01*
X-8070800Y1360898D01*
X-8046266Y1360898D01*
X-7997435Y1356088D01*
X-7949310Y1346516D01*
X-7902355Y1332272D01*
X-7857022Y1313495D01*
X-7813749Y1290364D01*
X-7772950Y1263104D01*
X-7735021Y1231976D01*
X-7700324Y1197279D01*
X-7669196Y1159350D01*
X-7641936Y1118551D01*
X-7618805Y1075278D01*
X-7600028Y1029945D01*
X-7585784Y982990D01*
X-7576212Y934865D01*
X-7571402Y886034D01*
X-7571402Y861500D01*
X-7570800Y861500D01*
X-7570800Y361500D01*
X-9070800Y361500D01*
X-9070800Y361500D01*
G37*
D14*
G04 #@! TO.P,SJ1,2*
G04 #@! TO.N,+3V3*
X-8320800Y-438500D03*
D15*
G04 #@! TD*
G04 #@! TO.N,+3V3*
G04 #@! TO.C,SJ1*
G36*
X-7571402Y-438500D02*
X-7571402Y-463034D01*
X-7576212Y-511865D01*
X-7585784Y-559990D01*
X-7600028Y-606945D01*
X-7618805Y-652278D01*
X-7641936Y-695551D01*
X-7669196Y-736350D01*
X-7700324Y-774279D01*
X-7735021Y-808976D01*
X-7772950Y-840104D01*
X-7813749Y-867364D01*
X-7857022Y-890495D01*
X-7902355Y-909272D01*
X-7949310Y-923516D01*
X-7997435Y-933088D01*
X-8046266Y-937898D01*
X-8070800Y-937898D01*
X-8070800Y-938500D01*
X-8570800Y-938500D01*
X-8570800Y-937898D01*
X-8595334Y-937898D01*
X-8644165Y-933088D01*
X-8692290Y-923516D01*
X-8739245Y-909272D01*
X-8784578Y-890495D01*
X-8827851Y-867364D01*
X-8868650Y-840104D01*
X-8906579Y-808976D01*
X-8941276Y-774279D01*
X-8972404Y-736350D01*
X-8999664Y-695551D01*
X-9022795Y-652278D01*
X-9041572Y-606945D01*
X-9055816Y-559990D01*
X-9065388Y-511865D01*
X-9070198Y-463034D01*
X-9070198Y-438500D01*
X-9070800Y-438500D01*
X-9070800Y61500D01*
X-7570800Y61500D01*
X-7570800Y-438500D01*
X-7571402Y-438500D01*
X-7571402Y-438500D01*
G37*
D16*
G04 #@! TO.P,U5,P5*
G04 #@! TO.N,GND*
X-4570800Y-538500D03*
G04 #@! TO.P,U5,P4*
G04 #@! TO.N,Net-(L2-Pad1)*
X-5070800Y-538500D03*
G04 #@! TO.P,U5,P3*
G04 #@! TO.N,Net-(L2-Pad2)*
X-5570800Y-538500D03*
G04 #@! TO.P,U5,P2*
G04 #@! TO.N,+3V3*
X-6070800Y-538500D03*
G04 #@! TO.P,U5,P1*
G04 #@! TO.N,Net-(SJ1-Pad1)*
X-6570800Y-538500D03*
G04 #@! TO.P,U5,P10*
G04 #@! TO.N,Net-(U1-Pad3)*
X-6570800Y2461500D03*
G04 #@! TO.P,U5,P9*
G04 #@! TO.N,Net-(U1-Pad12)*
X-6070800Y2461500D03*
G04 #@! TO.P,U5,P8*
G04 #@! TO.N,Net-(U1-Pad13)*
X-5570800Y2461500D03*
G04 #@! TO.P,U5,P7*
G04 #@! TO.N,Net-(U1-Pad11)*
X-5070800Y2461500D03*
G04 #@! TO.P,U5,P6*
G04 #@! TO.N,Net-(U1-Pad14)*
X-4570800Y2461500D03*
D17*
G04 #@! TO.P,U5,P11*
G04 #@! TO.N,GND*
X-5570800Y961500D03*
G04 #@! TD*
D18*
G04 #@! TO.P,U4,9*
G04 #@! TO.N,N/C*
X-3320800Y-5803500D03*
D19*
G04 #@! TO.P,U4,8*
G04 #@! TO.N,+5V*
X-4070800Y-4478500D03*
G04 #@! TO.P,U4,7*
G04 #@! TO.N,Net-(U4-Pad7)*
X-3570800Y-4478500D03*
G04 #@! TO.P,U4,6*
G04 #@! TO.N,/I2C_SCL*
X-3070800Y-4478500D03*
G04 #@! TO.P,U4,5*
G04 #@! TO.N,/I2C_SDA*
X-2570800Y-4478500D03*
G04 #@! TO.P,U4,1*
G04 #@! TO.N,Net-(U4-Pad1)*
X-4070800Y-7128500D03*
G04 #@! TO.P,U4,2*
G04 #@! TO.N,Net-(U4-Pad2)*
X-3570800Y-7128500D03*
G04 #@! TO.P,U4,3*
G04 #@! TO.N,Net-(U4-Pad3)*
X-3070800Y-7128500D03*
G04 #@! TO.P,U4,4*
G04 #@! TO.N,GND*
X-2570800Y-7128500D03*
G04 #@! TD*
D20*
G04 #@! TO.P,U2,1*
G04 #@! TO.N,Net-(R1-Pad2)*
X-70800Y-5003500D03*
G04 #@! TO.P,U2,2*
G04 #@! TO.N,GND*
X-70800Y-5953500D03*
G04 #@! TO.P,U2,3*
G04 #@! TO.N,Net-(R2-Pad2)*
X-70800Y-6903500D03*
G04 #@! TO.P,U2,4*
G04 #@! TO.N,/Button*
X2129200Y-6903500D03*
G04 #@! TO.P,U2,6*
G04 #@! TO.N,/Button_reset*
X2129200Y-5003500D03*
G04 #@! TO.P,U2,5*
G04 #@! TO.N,+5V*
X2129200Y-5953500D03*
G04 #@! TD*
D15*
G04 #@! TO.N,/Button*
G04 #@! TO.C,R5*
G36*
X4766158Y-6029210D02*
X4780476Y-6031334D01*
X4794517Y-6034851D01*
X4808146Y-6039728D01*
X4821231Y-6045917D01*
X4833647Y-6053358D01*
X4845273Y-6061981D01*
X4855998Y-6071702D01*
X4865719Y-6082427D01*
X4874342Y-6094053D01*
X4881783Y-6106469D01*
X4887972Y-6119554D01*
X4892849Y-6133183D01*
X4896366Y-6147224D01*
X4898490Y-6161542D01*
X4899200Y-6176000D01*
X4899200Y-6471000D01*
X4898490Y-6485458D01*
X4896366Y-6499776D01*
X4892849Y-6513817D01*
X4887972Y-6527446D01*
X4881783Y-6540531D01*
X4874342Y-6552947D01*
X4865719Y-6564573D01*
X4855998Y-6575298D01*
X4845273Y-6585019D01*
X4833647Y-6593642D01*
X4821231Y-6601083D01*
X4808146Y-6607272D01*
X4794517Y-6612149D01*
X4780476Y-6615666D01*
X4766158Y-6617790D01*
X4751700Y-6618500D01*
X4406700Y-6618500D01*
X4392242Y-6617790D01*
X4377924Y-6615666D01*
X4363883Y-6612149D01*
X4350254Y-6607272D01*
X4337169Y-6601083D01*
X4324753Y-6593642D01*
X4313127Y-6585019D01*
X4302402Y-6575298D01*
X4292681Y-6564573D01*
X4284058Y-6552947D01*
X4276617Y-6540531D01*
X4270428Y-6527446D01*
X4265551Y-6513817D01*
X4262034Y-6499776D01*
X4259910Y-6485458D01*
X4259200Y-6471000D01*
X4259200Y-6176000D01*
X4259910Y-6161542D01*
X4262034Y-6147224D01*
X4265551Y-6133183D01*
X4270428Y-6119554D01*
X4276617Y-6106469D01*
X4284058Y-6094053D01*
X4292681Y-6082427D01*
X4302402Y-6071702D01*
X4313127Y-6061981D01*
X4324753Y-6053358D01*
X4337169Y-6045917D01*
X4350254Y-6039728D01*
X4363883Y-6034851D01*
X4377924Y-6031334D01*
X4392242Y-6029210D01*
X4406700Y-6028500D01*
X4751700Y-6028500D01*
X4766158Y-6029210D01*
X4766158Y-6029210D01*
G37*
D21*
G04 #@! TD*
G04 #@! TO.P,R5,1*
G04 #@! TO.N,/Button*
X4579200Y-6323500D03*
D15*
G04 #@! TO.N,+5V*
G04 #@! TO.C,R5*
G36*
X4766158Y-5059210D02*
X4780476Y-5061334D01*
X4794517Y-5064851D01*
X4808146Y-5069728D01*
X4821231Y-5075917D01*
X4833647Y-5083358D01*
X4845273Y-5091981D01*
X4855998Y-5101702D01*
X4865719Y-5112427D01*
X4874342Y-5124053D01*
X4881783Y-5136469D01*
X4887972Y-5149554D01*
X4892849Y-5163183D01*
X4896366Y-5177224D01*
X4898490Y-5191542D01*
X4899200Y-5206000D01*
X4899200Y-5501000D01*
X4898490Y-5515458D01*
X4896366Y-5529776D01*
X4892849Y-5543817D01*
X4887972Y-5557446D01*
X4881783Y-5570531D01*
X4874342Y-5582947D01*
X4865719Y-5594573D01*
X4855998Y-5605298D01*
X4845273Y-5615019D01*
X4833647Y-5623642D01*
X4821231Y-5631083D01*
X4808146Y-5637272D01*
X4794517Y-5642149D01*
X4780476Y-5645666D01*
X4766158Y-5647790D01*
X4751700Y-5648500D01*
X4406700Y-5648500D01*
X4392242Y-5647790D01*
X4377924Y-5645666D01*
X4363883Y-5642149D01*
X4350254Y-5637272D01*
X4337169Y-5631083D01*
X4324753Y-5623642D01*
X4313127Y-5615019D01*
X4302402Y-5605298D01*
X4292681Y-5594573D01*
X4284058Y-5582947D01*
X4276617Y-5570531D01*
X4270428Y-5557446D01*
X4265551Y-5543817D01*
X4262034Y-5529776D01*
X4259910Y-5515458D01*
X4259200Y-5501000D01*
X4259200Y-5206000D01*
X4259910Y-5191542D01*
X4262034Y-5177224D01*
X4265551Y-5163183D01*
X4270428Y-5149554D01*
X4276617Y-5136469D01*
X4284058Y-5124053D01*
X4292681Y-5112427D01*
X4302402Y-5101702D01*
X4313127Y-5091981D01*
X4324753Y-5083358D01*
X4337169Y-5075917D01*
X4350254Y-5069728D01*
X4363883Y-5064851D01*
X4377924Y-5061334D01*
X4392242Y-5059210D01*
X4406700Y-5058500D01*
X4751700Y-5058500D01*
X4766158Y-5059210D01*
X4766158Y-5059210D01*
G37*
D21*
G04 #@! TD*
G04 #@! TO.P,R5,2*
G04 #@! TO.N,+5V*
X4579200Y-5353500D03*
D22*
G04 #@! TO.P,TP2,1*
G04 #@! TO.N,/HD+*
X5700000Y1326500D03*
G04 #@! TD*
D23*
G04 #@! TO.P,L1,4*
G04 #@! TO.N,+5V*
X2519200Y-2788500D03*
G04 #@! TO.P,L1,3*
X3229200Y-2788500D03*
G04 #@! TO.P,L1,2*
G04 #@! TO.N,GND*
X3239200Y-3708500D03*
G04 #@! TO.P,L1,1*
G04 #@! TO.N,+3V3*
X2519200Y-3708500D03*
D24*
G04 #@! TO.P,L1,5*
G04 #@! TO.N,Net-(L1-Pad5)*
X2879200Y-3238500D03*
D15*
G04 #@! TD*
G04 #@! TO.N,Net-(L1-Pad5)*
G04 #@! TO.C,L1*
G36*
X2879200Y-3648622D02*
X2469078Y-3238500D01*
X2879200Y-2828378D01*
X3289322Y-3238500D01*
X2879200Y-3648622D01*
X2879200Y-3648622D01*
G37*
D25*
G04 #@! TO.P,FID1,~*
G04 #@! TO.N,N/C*
X-11170800Y6996500D03*
G04 #@! TD*
G04 #@! TO.P,FID3,~*
G04 #@! TO.N,N/C*
X8025000Y-7353500D03*
G04 #@! TD*
D15*
G04 #@! TO.N,GND*
G04 #@! TO.C,U1*
G36*
X1578704Y5620296D02*
X1602973Y5616696D01*
X1626771Y5610735D01*
X1649871Y5602470D01*
X1672049Y5591980D01*
X1693093Y5579367D01*
X1712798Y5564753D01*
X1730977Y5548277D01*
X1747453Y5530098D01*
X1762067Y5510393D01*
X1774680Y5489349D01*
X1785170Y5467171D01*
X1793435Y5444071D01*
X1799396Y5420273D01*
X1802996Y5396004D01*
X1804200Y5371500D01*
X1804200Y2421500D01*
X1802996Y2396996D01*
X1799396Y2372727D01*
X1793435Y2348929D01*
X1785170Y2325829D01*
X1774680Y2303651D01*
X1762067Y2282607D01*
X1747453Y2262902D01*
X1730977Y2244723D01*
X1712798Y2228247D01*
X1693093Y2213633D01*
X1672049Y2201020D01*
X1649871Y2190530D01*
X1626771Y2182265D01*
X1602973Y2176304D01*
X1578704Y2172704D01*
X1554200Y2171500D01*
X-1395800Y2171500D01*
X-1420304Y2172704D01*
X-1444573Y2176304D01*
X-1468371Y2182265D01*
X-1491471Y2190530D01*
X-1513649Y2201020D01*
X-1534693Y2213633D01*
X-1554398Y2228247D01*
X-1572577Y2244723D01*
X-1589053Y2262902D01*
X-1603667Y2282607D01*
X-1616280Y2303651D01*
X-1626770Y2325829D01*
X-1635035Y2348929D01*
X-1640996Y2372727D01*
X-1644596Y2396996D01*
X-1645800Y2421500D01*
X-1645800Y5371500D01*
X-1644596Y5396004D01*
X-1640996Y5420273D01*
X-1635035Y5444071D01*
X-1626770Y5467171D01*
X-1616280Y5489349D01*
X-1603667Y5510393D01*
X-1589053Y5530098D01*
X-1572577Y5548277D01*
X-1554398Y5564753D01*
X-1534693Y5579367D01*
X-1513649Y5591980D01*
X-1491471Y5602470D01*
X-1468371Y5610735D01*
X-1444573Y5616696D01*
X-1420304Y5620296D01*
X-1395800Y5621500D01*
X1554200Y5621500D01*
X1578704Y5620296D01*
X1578704Y5620296D01*
G37*
D26*
G04 #@! TD*
G04 #@! TO.P,U1,33*
G04 #@! TO.N,GND*
X79200Y3896500D03*
D15*
G04 #@! TO.N,+3V3*
G04 #@! TO.C,U1*
G36*
X1897826Y6771199D02*
X1903893Y6770299D01*
X1909843Y6768809D01*
X1915618Y6766742D01*
X1921162Y6764120D01*
X1926423Y6760967D01*
X1931350Y6757313D01*
X1935894Y6753194D01*
X1940013Y6748650D01*
X1943667Y6743723D01*
X1946820Y6738462D01*
X1949442Y6732918D01*
X1951509Y6727143D01*
X1952999Y6721193D01*
X1953899Y6715126D01*
X1954200Y6709000D01*
X1954200Y5959000D01*
X1953899Y5952874D01*
X1952999Y5946807D01*
X1951509Y5940857D01*
X1949442Y5935082D01*
X1946820Y5929538D01*
X1943667Y5924277D01*
X1940013Y5919350D01*
X1935894Y5914806D01*
X1931350Y5910687D01*
X1926423Y5907033D01*
X1921162Y5903880D01*
X1915618Y5901258D01*
X1909843Y5899191D01*
X1903893Y5897701D01*
X1897826Y5896801D01*
X1891700Y5896500D01*
X1766700Y5896500D01*
X1760574Y5896801D01*
X1754507Y5897701D01*
X1748557Y5899191D01*
X1742782Y5901258D01*
X1737238Y5903880D01*
X1731977Y5907033D01*
X1727050Y5910687D01*
X1722506Y5914806D01*
X1718387Y5919350D01*
X1714733Y5924277D01*
X1711580Y5929538D01*
X1708958Y5935082D01*
X1706891Y5940857D01*
X1705401Y5946807D01*
X1704501Y5952874D01*
X1704200Y5959000D01*
X1704200Y6709000D01*
X1704501Y6715126D01*
X1705401Y6721193D01*
X1706891Y6727143D01*
X1708958Y6732918D01*
X1711580Y6738462D01*
X1714733Y6743723D01*
X1718387Y6748650D01*
X1722506Y6753194D01*
X1727050Y6757313D01*
X1731977Y6760967D01*
X1737238Y6764120D01*
X1742782Y6766742D01*
X1748557Y6768809D01*
X1754507Y6770299D01*
X1760574Y6771199D01*
X1766700Y6771500D01*
X1891700Y6771500D01*
X1897826Y6771199D01*
X1897826Y6771199D01*
G37*
D27*
G04 #@! TD*
G04 #@! TO.P,U1,1*
G04 #@! TO.N,+3V3*
X1829200Y6334000D03*
D15*
G04 #@! TO.N,Net-(U1-Pad2)*
G04 #@! TO.C,U1*
G36*
X1397826Y6771199D02*
X1403893Y6770299D01*
X1409843Y6768809D01*
X1415618Y6766742D01*
X1421162Y6764120D01*
X1426423Y6760967D01*
X1431350Y6757313D01*
X1435894Y6753194D01*
X1440013Y6748650D01*
X1443667Y6743723D01*
X1446820Y6738462D01*
X1449442Y6732918D01*
X1451509Y6727143D01*
X1452999Y6721193D01*
X1453899Y6715126D01*
X1454200Y6709000D01*
X1454200Y5959000D01*
X1453899Y5952874D01*
X1452999Y5946807D01*
X1451509Y5940857D01*
X1449442Y5935082D01*
X1446820Y5929538D01*
X1443667Y5924277D01*
X1440013Y5919350D01*
X1435894Y5914806D01*
X1431350Y5910687D01*
X1426423Y5907033D01*
X1421162Y5903880D01*
X1415618Y5901258D01*
X1409843Y5899191D01*
X1403893Y5897701D01*
X1397826Y5896801D01*
X1391700Y5896500D01*
X1266700Y5896500D01*
X1260574Y5896801D01*
X1254507Y5897701D01*
X1248557Y5899191D01*
X1242782Y5901258D01*
X1237238Y5903880D01*
X1231977Y5907033D01*
X1227050Y5910687D01*
X1222506Y5914806D01*
X1218387Y5919350D01*
X1214733Y5924277D01*
X1211580Y5929538D01*
X1208958Y5935082D01*
X1206891Y5940857D01*
X1205401Y5946807D01*
X1204501Y5952874D01*
X1204200Y5959000D01*
X1204200Y6709000D01*
X1204501Y6715126D01*
X1205401Y6721193D01*
X1206891Y6727143D01*
X1208958Y6732918D01*
X1211580Y6738462D01*
X1214733Y6743723D01*
X1218387Y6748650D01*
X1222506Y6753194D01*
X1227050Y6757313D01*
X1231977Y6760967D01*
X1237238Y6764120D01*
X1242782Y6766742D01*
X1248557Y6768809D01*
X1254507Y6770299D01*
X1260574Y6771199D01*
X1266700Y6771500D01*
X1391700Y6771500D01*
X1397826Y6771199D01*
X1397826Y6771199D01*
G37*
D27*
G04 #@! TD*
G04 #@! TO.P,U1,2*
G04 #@! TO.N,Net-(U1-Pad2)*
X1329200Y6334000D03*
D15*
G04 #@! TO.N,Net-(U1-Pad3)*
G04 #@! TO.C,U1*
G36*
X897826Y6771199D02*
X903893Y6770299D01*
X909843Y6768809D01*
X915618Y6766742D01*
X921162Y6764120D01*
X926423Y6760967D01*
X931350Y6757313D01*
X935894Y6753194D01*
X940013Y6748650D01*
X943667Y6743723D01*
X946820Y6738462D01*
X949442Y6732918D01*
X951509Y6727143D01*
X952999Y6721193D01*
X953899Y6715126D01*
X954200Y6709000D01*
X954200Y5959000D01*
X953899Y5952874D01*
X952999Y5946807D01*
X951509Y5940857D01*
X949442Y5935082D01*
X946820Y5929538D01*
X943667Y5924277D01*
X940013Y5919350D01*
X935894Y5914806D01*
X931350Y5910687D01*
X926423Y5907033D01*
X921162Y5903880D01*
X915618Y5901258D01*
X909843Y5899191D01*
X903893Y5897701D01*
X897826Y5896801D01*
X891700Y5896500D01*
X766700Y5896500D01*
X760574Y5896801D01*
X754507Y5897701D01*
X748557Y5899191D01*
X742782Y5901258D01*
X737238Y5903880D01*
X731977Y5907033D01*
X727050Y5910687D01*
X722506Y5914806D01*
X718387Y5919350D01*
X714733Y5924277D01*
X711580Y5929538D01*
X708958Y5935082D01*
X706891Y5940857D01*
X705401Y5946807D01*
X704501Y5952874D01*
X704200Y5959000D01*
X704200Y6709000D01*
X704501Y6715126D01*
X705401Y6721193D01*
X706891Y6727143D01*
X708958Y6732918D01*
X711580Y6738462D01*
X714733Y6743723D01*
X718387Y6748650D01*
X722506Y6753194D01*
X727050Y6757313D01*
X731977Y6760967D01*
X737238Y6764120D01*
X742782Y6766742D01*
X748557Y6768809D01*
X754507Y6770299D01*
X760574Y6771199D01*
X766700Y6771500D01*
X891700Y6771500D01*
X897826Y6771199D01*
X897826Y6771199D01*
G37*
D27*
G04 #@! TD*
G04 #@! TO.P,U1,3*
G04 #@! TO.N,Net-(U1-Pad3)*
X829200Y6334000D03*
D15*
G04 #@! TO.N,Net-(U1-Pad4)*
G04 #@! TO.C,U1*
G36*
X397826Y6771199D02*
X403893Y6770299D01*
X409843Y6768809D01*
X415618Y6766742D01*
X421162Y6764120D01*
X426423Y6760967D01*
X431350Y6757313D01*
X435894Y6753194D01*
X440013Y6748650D01*
X443667Y6743723D01*
X446820Y6738462D01*
X449442Y6732918D01*
X451509Y6727143D01*
X452999Y6721193D01*
X453899Y6715126D01*
X454200Y6709000D01*
X454200Y5959000D01*
X453899Y5952874D01*
X452999Y5946807D01*
X451509Y5940857D01*
X449442Y5935082D01*
X446820Y5929538D01*
X443667Y5924277D01*
X440013Y5919350D01*
X435894Y5914806D01*
X431350Y5910687D01*
X426423Y5907033D01*
X421162Y5903880D01*
X415618Y5901258D01*
X409843Y5899191D01*
X403893Y5897701D01*
X397826Y5896801D01*
X391700Y5896500D01*
X266700Y5896500D01*
X260574Y5896801D01*
X254507Y5897701D01*
X248557Y5899191D01*
X242782Y5901258D01*
X237238Y5903880D01*
X231977Y5907033D01*
X227050Y5910687D01*
X222506Y5914806D01*
X218387Y5919350D01*
X214733Y5924277D01*
X211580Y5929538D01*
X208958Y5935082D01*
X206891Y5940857D01*
X205401Y5946807D01*
X204501Y5952874D01*
X204200Y5959000D01*
X204200Y6709000D01*
X204501Y6715126D01*
X205401Y6721193D01*
X206891Y6727143D01*
X208958Y6732918D01*
X211580Y6738462D01*
X214733Y6743723D01*
X218387Y6748650D01*
X222506Y6753194D01*
X227050Y6757313D01*
X231977Y6760967D01*
X237238Y6764120D01*
X242782Y6766742D01*
X248557Y6768809D01*
X254507Y6770299D01*
X260574Y6771199D01*
X266700Y6771500D01*
X391700Y6771500D01*
X397826Y6771199D01*
X397826Y6771199D01*
G37*
D27*
G04 #@! TD*
G04 #@! TO.P,U1,4*
G04 #@! TO.N,Net-(U1-Pad4)*
X329200Y6334000D03*
D15*
G04 #@! TO.N,+3V3*
G04 #@! TO.C,U1*
G36*
X-102174Y6771199D02*
X-96107Y6770299D01*
X-90157Y6768809D01*
X-84382Y6766742D01*
X-78838Y6764120D01*
X-73577Y6760967D01*
X-68650Y6757313D01*
X-64106Y6753194D01*
X-59987Y6748650D01*
X-56333Y6743723D01*
X-53180Y6738462D01*
X-50558Y6732918D01*
X-48491Y6727143D01*
X-47001Y6721193D01*
X-46101Y6715126D01*
X-45800Y6709000D01*
X-45800Y5959000D01*
X-46101Y5952874D01*
X-47001Y5946807D01*
X-48491Y5940857D01*
X-50558Y5935082D01*
X-53180Y5929538D01*
X-56333Y5924277D01*
X-59987Y5919350D01*
X-64106Y5914806D01*
X-68650Y5910687D01*
X-73577Y5907033D01*
X-78838Y5903880D01*
X-84382Y5901258D01*
X-90157Y5899191D01*
X-96107Y5897701D01*
X-102174Y5896801D01*
X-108300Y5896500D01*
X-233300Y5896500D01*
X-239426Y5896801D01*
X-245493Y5897701D01*
X-251443Y5899191D01*
X-257218Y5901258D01*
X-262762Y5903880D01*
X-268023Y5907033D01*
X-272950Y5910687D01*
X-277494Y5914806D01*
X-281613Y5919350D01*
X-285267Y5924277D01*
X-288420Y5929538D01*
X-291042Y5935082D01*
X-293109Y5940857D01*
X-294599Y5946807D01*
X-295499Y5952874D01*
X-295800Y5959000D01*
X-295800Y6709000D01*
X-295499Y6715126D01*
X-294599Y6721193D01*
X-293109Y6727143D01*
X-291042Y6732918D01*
X-288420Y6738462D01*
X-285267Y6743723D01*
X-281613Y6748650D01*
X-277494Y6753194D01*
X-272950Y6757313D01*
X-268023Y6760967D01*
X-262762Y6764120D01*
X-257218Y6766742D01*
X-251443Y6768809D01*
X-245493Y6770299D01*
X-239426Y6771199D01*
X-233300Y6771500D01*
X-108300Y6771500D01*
X-102174Y6771199D01*
X-102174Y6771199D01*
G37*
D27*
G04 #@! TD*
G04 #@! TO.P,U1,5*
G04 #@! TO.N,+3V3*
X-170800Y6334000D03*
D15*
G04 #@! TO.N,/Button*
G04 #@! TO.C,U1*
G36*
X-602174Y6771199D02*
X-596107Y6770299D01*
X-590157Y6768809D01*
X-584382Y6766742D01*
X-578838Y6764120D01*
X-573577Y6760967D01*
X-568650Y6757313D01*
X-564106Y6753194D01*
X-559987Y6748650D01*
X-556333Y6743723D01*
X-553180Y6738462D01*
X-550558Y6732918D01*
X-548491Y6727143D01*
X-547001Y6721193D01*
X-546101Y6715126D01*
X-545800Y6709000D01*
X-545800Y5959000D01*
X-546101Y5952874D01*
X-547001Y5946807D01*
X-548491Y5940857D01*
X-550558Y5935082D01*
X-553180Y5929538D01*
X-556333Y5924277D01*
X-559987Y5919350D01*
X-564106Y5914806D01*
X-568650Y5910687D01*
X-573577Y5907033D01*
X-578838Y5903880D01*
X-584382Y5901258D01*
X-590157Y5899191D01*
X-596107Y5897701D01*
X-602174Y5896801D01*
X-608300Y5896500D01*
X-733300Y5896500D01*
X-739426Y5896801D01*
X-745493Y5897701D01*
X-751443Y5899191D01*
X-757218Y5901258D01*
X-762762Y5903880D01*
X-768023Y5907033D01*
X-772950Y5910687D01*
X-777494Y5914806D01*
X-781613Y5919350D01*
X-785267Y5924277D01*
X-788420Y5929538D01*
X-791042Y5935082D01*
X-793109Y5940857D01*
X-794599Y5946807D01*
X-795499Y5952874D01*
X-795800Y5959000D01*
X-795800Y6709000D01*
X-795499Y6715126D01*
X-794599Y6721193D01*
X-793109Y6727143D01*
X-791042Y6732918D01*
X-788420Y6738462D01*
X-785267Y6743723D01*
X-781613Y6748650D01*
X-777494Y6753194D01*
X-772950Y6757313D01*
X-768023Y6760967D01*
X-762762Y6764120D01*
X-757218Y6766742D01*
X-751443Y6768809D01*
X-745493Y6770299D01*
X-739426Y6771199D01*
X-733300Y6771500D01*
X-608300Y6771500D01*
X-602174Y6771199D01*
X-602174Y6771199D01*
G37*
D27*
G04 #@! TD*
G04 #@! TO.P,U1,6*
G04 #@! TO.N,/Button*
X-670800Y6334000D03*
D15*
G04 #@! TO.N,Net-(D2-PadG)*
G04 #@! TO.C,U1*
G36*
X-1102174Y6771199D02*
X-1096107Y6770299D01*
X-1090157Y6768809D01*
X-1084382Y6766742D01*
X-1078838Y6764120D01*
X-1073577Y6760967D01*
X-1068650Y6757313D01*
X-1064106Y6753194D01*
X-1059987Y6748650D01*
X-1056333Y6743723D01*
X-1053180Y6738462D01*
X-1050558Y6732918D01*
X-1048491Y6727143D01*
X-1047001Y6721193D01*
X-1046101Y6715126D01*
X-1045800Y6709000D01*
X-1045800Y5959000D01*
X-1046101Y5952874D01*
X-1047001Y5946807D01*
X-1048491Y5940857D01*
X-1050558Y5935082D01*
X-1053180Y5929538D01*
X-1056333Y5924277D01*
X-1059987Y5919350D01*
X-1064106Y5914806D01*
X-1068650Y5910687D01*
X-1073577Y5907033D01*
X-1078838Y5903880D01*
X-1084382Y5901258D01*
X-1090157Y5899191D01*
X-1096107Y5897701D01*
X-1102174Y5896801D01*
X-1108300Y5896500D01*
X-1233300Y5896500D01*
X-1239426Y5896801D01*
X-1245493Y5897701D01*
X-1251443Y5899191D01*
X-1257218Y5901258D01*
X-1262762Y5903880D01*
X-1268023Y5907033D01*
X-1272950Y5910687D01*
X-1277494Y5914806D01*
X-1281613Y5919350D01*
X-1285267Y5924277D01*
X-1288420Y5929538D01*
X-1291042Y5935082D01*
X-1293109Y5940857D01*
X-1294599Y5946807D01*
X-1295499Y5952874D01*
X-1295800Y5959000D01*
X-1295800Y6709000D01*
X-1295499Y6715126D01*
X-1294599Y6721193D01*
X-1293109Y6727143D01*
X-1291042Y6732918D01*
X-1288420Y6738462D01*
X-1285267Y6743723D01*
X-1281613Y6748650D01*
X-1277494Y6753194D01*
X-1272950Y6757313D01*
X-1268023Y6760967D01*
X-1262762Y6764120D01*
X-1257218Y6766742D01*
X-1251443Y6768809D01*
X-1245493Y6770299D01*
X-1239426Y6771199D01*
X-1233300Y6771500D01*
X-1108300Y6771500D01*
X-1102174Y6771199D01*
X-1102174Y6771199D01*
G37*
D27*
G04 #@! TD*
G04 #@! TO.P,U1,7*
G04 #@! TO.N,Net-(D2-PadG)*
X-1170800Y6334000D03*
D15*
G04 #@! TO.N,Net-(D2-PadR)*
G04 #@! TO.C,U1*
G36*
X-1602174Y6771199D02*
X-1596107Y6770299D01*
X-1590157Y6768809D01*
X-1584382Y6766742D01*
X-1578838Y6764120D01*
X-1573577Y6760967D01*
X-1568650Y6757313D01*
X-1564106Y6753194D01*
X-1559987Y6748650D01*
X-1556333Y6743723D01*
X-1553180Y6738462D01*
X-1550558Y6732918D01*
X-1548491Y6727143D01*
X-1547001Y6721193D01*
X-1546101Y6715126D01*
X-1545800Y6709000D01*
X-1545800Y5959000D01*
X-1546101Y5952874D01*
X-1547001Y5946807D01*
X-1548491Y5940857D01*
X-1550558Y5935082D01*
X-1553180Y5929538D01*
X-1556333Y5924277D01*
X-1559987Y5919350D01*
X-1564106Y5914806D01*
X-1568650Y5910687D01*
X-1573577Y5907033D01*
X-1578838Y5903880D01*
X-1584382Y5901258D01*
X-1590157Y5899191D01*
X-1596107Y5897701D01*
X-1602174Y5896801D01*
X-1608300Y5896500D01*
X-1733300Y5896500D01*
X-1739426Y5896801D01*
X-1745493Y5897701D01*
X-1751443Y5899191D01*
X-1757218Y5901258D01*
X-1762762Y5903880D01*
X-1768023Y5907033D01*
X-1772950Y5910687D01*
X-1777494Y5914806D01*
X-1781613Y5919350D01*
X-1785267Y5924277D01*
X-1788420Y5929538D01*
X-1791042Y5935082D01*
X-1793109Y5940857D01*
X-1794599Y5946807D01*
X-1795499Y5952874D01*
X-1795800Y5959000D01*
X-1795800Y6709000D01*
X-1795499Y6715126D01*
X-1794599Y6721193D01*
X-1793109Y6727143D01*
X-1791042Y6732918D01*
X-1788420Y6738462D01*
X-1785267Y6743723D01*
X-1781613Y6748650D01*
X-1777494Y6753194D01*
X-1772950Y6757313D01*
X-1768023Y6760967D01*
X-1762762Y6764120D01*
X-1757218Y6766742D01*
X-1751443Y6768809D01*
X-1745493Y6770299D01*
X-1739426Y6771199D01*
X-1733300Y6771500D01*
X-1608300Y6771500D01*
X-1602174Y6771199D01*
X-1602174Y6771199D01*
G37*
D27*
G04 #@! TD*
G04 #@! TO.P,U1,8*
G04 #@! TO.N,Net-(D2-PadR)*
X-1670800Y6334000D03*
D15*
G04 #@! TO.N,Net-(D2-PadB)*
G04 #@! TO.C,U1*
G36*
X-1977174Y5771199D02*
X-1971107Y5770299D01*
X-1965157Y5768809D01*
X-1959382Y5766742D01*
X-1953838Y5764120D01*
X-1948577Y5760967D01*
X-1943650Y5757313D01*
X-1939106Y5753194D01*
X-1934987Y5748650D01*
X-1931333Y5743723D01*
X-1928180Y5738462D01*
X-1925558Y5732918D01*
X-1923491Y5727143D01*
X-1922001Y5721193D01*
X-1921101Y5715126D01*
X-1920800Y5709000D01*
X-1920800Y5584000D01*
X-1921101Y5577874D01*
X-1922001Y5571807D01*
X-1923491Y5565857D01*
X-1925558Y5560082D01*
X-1928180Y5554538D01*
X-1931333Y5549277D01*
X-1934987Y5544350D01*
X-1939106Y5539806D01*
X-1943650Y5535687D01*
X-1948577Y5532033D01*
X-1953838Y5528880D01*
X-1959382Y5526258D01*
X-1965157Y5524191D01*
X-1971107Y5522701D01*
X-1977174Y5521801D01*
X-1983300Y5521500D01*
X-2733300Y5521500D01*
X-2739426Y5521801D01*
X-2745493Y5522701D01*
X-2751443Y5524191D01*
X-2757218Y5526258D01*
X-2762762Y5528880D01*
X-2768023Y5532033D01*
X-2772950Y5535687D01*
X-2777494Y5539806D01*
X-2781613Y5544350D01*
X-2785267Y5549277D01*
X-2788420Y5554538D01*
X-2791042Y5560082D01*
X-2793109Y5565857D01*
X-2794599Y5571807D01*
X-2795499Y5577874D01*
X-2795800Y5584000D01*
X-2795800Y5709000D01*
X-2795499Y5715126D01*
X-2794599Y5721193D01*
X-2793109Y5727143D01*
X-2791042Y5732918D01*
X-2788420Y5738462D01*
X-2785267Y5743723D01*
X-2781613Y5748650D01*
X-2777494Y5753194D01*
X-2772950Y5757313D01*
X-2768023Y5760967D01*
X-2762762Y5764120D01*
X-2757218Y5766742D01*
X-2751443Y5768809D01*
X-2745493Y5770299D01*
X-2739426Y5771199D01*
X-2733300Y5771500D01*
X-1983300Y5771500D01*
X-1977174Y5771199D01*
X-1977174Y5771199D01*
G37*
D27*
G04 #@! TD*
G04 #@! TO.P,U1,9*
G04 #@! TO.N,Net-(D2-PadB)*
X-2358300Y5646500D03*
D15*
G04 #@! TO.N,Net-(U1-Pad10)*
G04 #@! TO.C,U1*
G36*
X-1977174Y5271199D02*
X-1971107Y5270299D01*
X-1965157Y5268809D01*
X-1959382Y5266742D01*
X-1953838Y5264120D01*
X-1948577Y5260967D01*
X-1943650Y5257313D01*
X-1939106Y5253194D01*
X-1934987Y5248650D01*
X-1931333Y5243723D01*
X-1928180Y5238462D01*
X-1925558Y5232918D01*
X-1923491Y5227143D01*
X-1922001Y5221193D01*
X-1921101Y5215126D01*
X-1920800Y5209000D01*
X-1920800Y5084000D01*
X-1921101Y5077874D01*
X-1922001Y5071807D01*
X-1923491Y5065857D01*
X-1925558Y5060082D01*
X-1928180Y5054538D01*
X-1931333Y5049277D01*
X-1934987Y5044350D01*
X-1939106Y5039806D01*
X-1943650Y5035687D01*
X-1948577Y5032033D01*
X-1953838Y5028880D01*
X-1959382Y5026258D01*
X-1965157Y5024191D01*
X-1971107Y5022701D01*
X-1977174Y5021801D01*
X-1983300Y5021500D01*
X-2733300Y5021500D01*
X-2739426Y5021801D01*
X-2745493Y5022701D01*
X-2751443Y5024191D01*
X-2757218Y5026258D01*
X-2762762Y5028880D01*
X-2768023Y5032033D01*
X-2772950Y5035687D01*
X-2777494Y5039806D01*
X-2781613Y5044350D01*
X-2785267Y5049277D01*
X-2788420Y5054538D01*
X-2791042Y5060082D01*
X-2793109Y5065857D01*
X-2794599Y5071807D01*
X-2795499Y5077874D01*
X-2795800Y5084000D01*
X-2795800Y5209000D01*
X-2795499Y5215126D01*
X-2794599Y5221193D01*
X-2793109Y5227143D01*
X-2791042Y5232918D01*
X-2788420Y5238462D01*
X-2785267Y5243723D01*
X-2781613Y5248650D01*
X-2777494Y5253194D01*
X-2772950Y5257313D01*
X-2768023Y5260967D01*
X-2762762Y5264120D01*
X-2757218Y5266742D01*
X-2751443Y5268809D01*
X-2745493Y5270299D01*
X-2739426Y5271199D01*
X-2733300Y5271500D01*
X-1983300Y5271500D01*
X-1977174Y5271199D01*
X-1977174Y5271199D01*
G37*
D27*
G04 #@! TD*
G04 #@! TO.P,U1,10*
G04 #@! TO.N,Net-(U1-Pad10)*
X-2358300Y5146500D03*
D15*
G04 #@! TO.N,Net-(U1-Pad11)*
G04 #@! TO.C,U1*
G36*
X-1977174Y4771199D02*
X-1971107Y4770299D01*
X-1965157Y4768809D01*
X-1959382Y4766742D01*
X-1953838Y4764120D01*
X-1948577Y4760967D01*
X-1943650Y4757313D01*
X-1939106Y4753194D01*
X-1934987Y4748650D01*
X-1931333Y4743723D01*
X-1928180Y4738462D01*
X-1925558Y4732918D01*
X-1923491Y4727143D01*
X-1922001Y4721193D01*
X-1921101Y4715126D01*
X-1920800Y4709000D01*
X-1920800Y4584000D01*
X-1921101Y4577874D01*
X-1922001Y4571807D01*
X-1923491Y4565857D01*
X-1925558Y4560082D01*
X-1928180Y4554538D01*
X-1931333Y4549277D01*
X-1934987Y4544350D01*
X-1939106Y4539806D01*
X-1943650Y4535687D01*
X-1948577Y4532033D01*
X-1953838Y4528880D01*
X-1959382Y4526258D01*
X-1965157Y4524191D01*
X-1971107Y4522701D01*
X-1977174Y4521801D01*
X-1983300Y4521500D01*
X-2733300Y4521500D01*
X-2739426Y4521801D01*
X-2745493Y4522701D01*
X-2751443Y4524191D01*
X-2757218Y4526258D01*
X-2762762Y4528880D01*
X-2768023Y4532033D01*
X-2772950Y4535687D01*
X-2777494Y4539806D01*
X-2781613Y4544350D01*
X-2785267Y4549277D01*
X-2788420Y4554538D01*
X-2791042Y4560082D01*
X-2793109Y4565857D01*
X-2794599Y4571807D01*
X-2795499Y4577874D01*
X-2795800Y4584000D01*
X-2795800Y4709000D01*
X-2795499Y4715126D01*
X-2794599Y4721193D01*
X-2793109Y4727143D01*
X-2791042Y4732918D01*
X-2788420Y4738462D01*
X-2785267Y4743723D01*
X-2781613Y4748650D01*
X-2777494Y4753194D01*
X-2772950Y4757313D01*
X-2768023Y4760967D01*
X-2762762Y4764120D01*
X-2757218Y4766742D01*
X-2751443Y4768809D01*
X-2745493Y4770299D01*
X-2739426Y4771199D01*
X-2733300Y4771500D01*
X-1983300Y4771500D01*
X-1977174Y4771199D01*
X-1977174Y4771199D01*
G37*
D27*
G04 #@! TD*
G04 #@! TO.P,U1,11*
G04 #@! TO.N,Net-(U1-Pad11)*
X-2358300Y4646500D03*
D15*
G04 #@! TO.N,Net-(U1-Pad12)*
G04 #@! TO.C,U1*
G36*
X-1977174Y4271199D02*
X-1971107Y4270299D01*
X-1965157Y4268809D01*
X-1959382Y4266742D01*
X-1953838Y4264120D01*
X-1948577Y4260967D01*
X-1943650Y4257313D01*
X-1939106Y4253194D01*
X-1934987Y4248650D01*
X-1931333Y4243723D01*
X-1928180Y4238462D01*
X-1925558Y4232918D01*
X-1923491Y4227143D01*
X-1922001Y4221193D01*
X-1921101Y4215126D01*
X-1920800Y4209000D01*
X-1920800Y4084000D01*
X-1921101Y4077874D01*
X-1922001Y4071807D01*
X-1923491Y4065857D01*
X-1925558Y4060082D01*
X-1928180Y4054538D01*
X-1931333Y4049277D01*
X-1934987Y4044350D01*
X-1939106Y4039806D01*
X-1943650Y4035687D01*
X-1948577Y4032033D01*
X-1953838Y4028880D01*
X-1959382Y4026258D01*
X-1965157Y4024191D01*
X-1971107Y4022701D01*
X-1977174Y4021801D01*
X-1983300Y4021500D01*
X-2733300Y4021500D01*
X-2739426Y4021801D01*
X-2745493Y4022701D01*
X-2751443Y4024191D01*
X-2757218Y4026258D01*
X-2762762Y4028880D01*
X-2768023Y4032033D01*
X-2772950Y4035687D01*
X-2777494Y4039806D01*
X-2781613Y4044350D01*
X-2785267Y4049277D01*
X-2788420Y4054538D01*
X-2791042Y4060082D01*
X-2793109Y4065857D01*
X-2794599Y4071807D01*
X-2795499Y4077874D01*
X-2795800Y4084000D01*
X-2795800Y4209000D01*
X-2795499Y4215126D01*
X-2794599Y4221193D01*
X-2793109Y4227143D01*
X-2791042Y4232918D01*
X-2788420Y4238462D01*
X-2785267Y4243723D01*
X-2781613Y4248650D01*
X-2777494Y4253194D01*
X-2772950Y4257313D01*
X-2768023Y4260967D01*
X-2762762Y4264120D01*
X-2757218Y4266742D01*
X-2751443Y4268809D01*
X-2745493Y4270299D01*
X-2739426Y4271199D01*
X-2733300Y4271500D01*
X-1983300Y4271500D01*
X-1977174Y4271199D01*
X-1977174Y4271199D01*
G37*
D27*
G04 #@! TD*
G04 #@! TO.P,U1,12*
G04 #@! TO.N,Net-(U1-Pad12)*
X-2358300Y4146500D03*
D15*
G04 #@! TO.N,Net-(U1-Pad13)*
G04 #@! TO.C,U1*
G36*
X-1977174Y3771199D02*
X-1971107Y3770299D01*
X-1965157Y3768809D01*
X-1959382Y3766742D01*
X-1953838Y3764120D01*
X-1948577Y3760967D01*
X-1943650Y3757313D01*
X-1939106Y3753194D01*
X-1934987Y3748650D01*
X-1931333Y3743723D01*
X-1928180Y3738462D01*
X-1925558Y3732918D01*
X-1923491Y3727143D01*
X-1922001Y3721193D01*
X-1921101Y3715126D01*
X-1920800Y3709000D01*
X-1920800Y3584000D01*
X-1921101Y3577874D01*
X-1922001Y3571807D01*
X-1923491Y3565857D01*
X-1925558Y3560082D01*
X-1928180Y3554538D01*
X-1931333Y3549277D01*
X-1934987Y3544350D01*
X-1939106Y3539806D01*
X-1943650Y3535687D01*
X-1948577Y3532033D01*
X-1953838Y3528880D01*
X-1959382Y3526258D01*
X-1965157Y3524191D01*
X-1971107Y3522701D01*
X-1977174Y3521801D01*
X-1983300Y3521500D01*
X-2733300Y3521500D01*
X-2739426Y3521801D01*
X-2745493Y3522701D01*
X-2751443Y3524191D01*
X-2757218Y3526258D01*
X-2762762Y3528880D01*
X-2768023Y3532033D01*
X-2772950Y3535687D01*
X-2777494Y3539806D01*
X-2781613Y3544350D01*
X-2785267Y3549277D01*
X-2788420Y3554538D01*
X-2791042Y3560082D01*
X-2793109Y3565857D01*
X-2794599Y3571807D01*
X-2795499Y3577874D01*
X-2795800Y3584000D01*
X-2795800Y3709000D01*
X-2795499Y3715126D01*
X-2794599Y3721193D01*
X-2793109Y3727143D01*
X-2791042Y3732918D01*
X-2788420Y3738462D01*
X-2785267Y3743723D01*
X-2781613Y3748650D01*
X-2777494Y3753194D01*
X-2772950Y3757313D01*
X-2768023Y3760967D01*
X-2762762Y3764120D01*
X-2757218Y3766742D01*
X-2751443Y3768809D01*
X-2745493Y3770299D01*
X-2739426Y3771199D01*
X-2733300Y3771500D01*
X-1983300Y3771500D01*
X-1977174Y3771199D01*
X-1977174Y3771199D01*
G37*
D27*
G04 #@! TD*
G04 #@! TO.P,U1,13*
G04 #@! TO.N,Net-(U1-Pad13)*
X-2358300Y3646500D03*
D15*
G04 #@! TO.N,Net-(U1-Pad14)*
G04 #@! TO.C,U1*
G36*
X-1977174Y3271199D02*
X-1971107Y3270299D01*
X-1965157Y3268809D01*
X-1959382Y3266742D01*
X-1953838Y3264120D01*
X-1948577Y3260967D01*
X-1943650Y3257313D01*
X-1939106Y3253194D01*
X-1934987Y3248650D01*
X-1931333Y3243723D01*
X-1928180Y3238462D01*
X-1925558Y3232918D01*
X-1923491Y3227143D01*
X-1922001Y3221193D01*
X-1921101Y3215126D01*
X-1920800Y3209000D01*
X-1920800Y3084000D01*
X-1921101Y3077874D01*
X-1922001Y3071807D01*
X-1923491Y3065857D01*
X-1925558Y3060082D01*
X-1928180Y3054538D01*
X-1931333Y3049277D01*
X-1934987Y3044350D01*
X-1939106Y3039806D01*
X-1943650Y3035687D01*
X-1948577Y3032033D01*
X-1953838Y3028880D01*
X-1959382Y3026258D01*
X-1965157Y3024191D01*
X-1971107Y3022701D01*
X-1977174Y3021801D01*
X-1983300Y3021500D01*
X-2733300Y3021500D01*
X-2739426Y3021801D01*
X-2745493Y3022701D01*
X-2751443Y3024191D01*
X-2757218Y3026258D01*
X-2762762Y3028880D01*
X-2768023Y3032033D01*
X-2772950Y3035687D01*
X-2777494Y3039806D01*
X-2781613Y3044350D01*
X-2785267Y3049277D01*
X-2788420Y3054538D01*
X-2791042Y3060082D01*
X-2793109Y3065857D01*
X-2794599Y3071807D01*
X-2795499Y3077874D01*
X-2795800Y3084000D01*
X-2795800Y3209000D01*
X-2795499Y3215126D01*
X-2794599Y3221193D01*
X-2793109Y3227143D01*
X-2791042Y3232918D01*
X-2788420Y3238462D01*
X-2785267Y3243723D01*
X-2781613Y3248650D01*
X-2777494Y3253194D01*
X-2772950Y3257313D01*
X-2768023Y3260967D01*
X-2762762Y3264120D01*
X-2757218Y3266742D01*
X-2751443Y3268809D01*
X-2745493Y3270299D01*
X-2739426Y3271199D01*
X-2733300Y3271500D01*
X-1983300Y3271500D01*
X-1977174Y3271199D01*
X-1977174Y3271199D01*
G37*
D27*
G04 #@! TD*
G04 #@! TO.P,U1,14*
G04 #@! TO.N,Net-(U1-Pad14)*
X-2358300Y3146500D03*
D15*
G04 #@! TO.N,Net-(U1-Pad15)*
G04 #@! TO.C,U1*
G36*
X-1977174Y2771199D02*
X-1971107Y2770299D01*
X-1965157Y2768809D01*
X-1959382Y2766742D01*
X-1953838Y2764120D01*
X-1948577Y2760967D01*
X-1943650Y2757313D01*
X-1939106Y2753194D01*
X-1934987Y2748650D01*
X-1931333Y2743723D01*
X-1928180Y2738462D01*
X-1925558Y2732918D01*
X-1923491Y2727143D01*
X-1922001Y2721193D01*
X-1921101Y2715126D01*
X-1920800Y2709000D01*
X-1920800Y2584000D01*
X-1921101Y2577874D01*
X-1922001Y2571807D01*
X-1923491Y2565857D01*
X-1925558Y2560082D01*
X-1928180Y2554538D01*
X-1931333Y2549277D01*
X-1934987Y2544350D01*
X-1939106Y2539806D01*
X-1943650Y2535687D01*
X-1948577Y2532033D01*
X-1953838Y2528880D01*
X-1959382Y2526258D01*
X-1965157Y2524191D01*
X-1971107Y2522701D01*
X-1977174Y2521801D01*
X-1983300Y2521500D01*
X-2733300Y2521500D01*
X-2739426Y2521801D01*
X-2745493Y2522701D01*
X-2751443Y2524191D01*
X-2757218Y2526258D01*
X-2762762Y2528880D01*
X-2768023Y2532033D01*
X-2772950Y2535687D01*
X-2777494Y2539806D01*
X-2781613Y2544350D01*
X-2785267Y2549277D01*
X-2788420Y2554538D01*
X-2791042Y2560082D01*
X-2793109Y2565857D01*
X-2794599Y2571807D01*
X-2795499Y2577874D01*
X-2795800Y2584000D01*
X-2795800Y2709000D01*
X-2795499Y2715126D01*
X-2794599Y2721193D01*
X-2793109Y2727143D01*
X-2791042Y2732918D01*
X-2788420Y2738462D01*
X-2785267Y2743723D01*
X-2781613Y2748650D01*
X-2777494Y2753194D01*
X-2772950Y2757313D01*
X-2768023Y2760967D01*
X-2762762Y2764120D01*
X-2757218Y2766742D01*
X-2751443Y2768809D01*
X-2745493Y2770299D01*
X-2739426Y2771199D01*
X-2733300Y2771500D01*
X-1983300Y2771500D01*
X-1977174Y2771199D01*
X-1977174Y2771199D01*
G37*
D27*
G04 #@! TD*
G04 #@! TO.P,U1,15*
G04 #@! TO.N,Net-(U1-Pad15)*
X-2358300Y2646500D03*
D15*
G04 #@! TO.N,GND*
G04 #@! TO.C,U1*
G36*
X-1977174Y2271199D02*
X-1971107Y2270299D01*
X-1965157Y2268809D01*
X-1959382Y2266742D01*
X-1953838Y2264120D01*
X-1948577Y2260967D01*
X-1943650Y2257313D01*
X-1939106Y2253194D01*
X-1934987Y2248650D01*
X-1931333Y2243723D01*
X-1928180Y2238462D01*
X-1925558Y2232918D01*
X-1923491Y2227143D01*
X-1922001Y2221193D01*
X-1921101Y2215126D01*
X-1920800Y2209000D01*
X-1920800Y2084000D01*
X-1921101Y2077874D01*
X-1922001Y2071807D01*
X-1923491Y2065857D01*
X-1925558Y2060082D01*
X-1928180Y2054538D01*
X-1931333Y2049277D01*
X-1934987Y2044350D01*
X-1939106Y2039806D01*
X-1943650Y2035687D01*
X-1948577Y2032033D01*
X-1953838Y2028880D01*
X-1959382Y2026258D01*
X-1965157Y2024191D01*
X-1971107Y2022701D01*
X-1977174Y2021801D01*
X-1983300Y2021500D01*
X-2733300Y2021500D01*
X-2739426Y2021801D01*
X-2745493Y2022701D01*
X-2751443Y2024191D01*
X-2757218Y2026258D01*
X-2762762Y2028880D01*
X-2768023Y2032033D01*
X-2772950Y2035687D01*
X-2777494Y2039806D01*
X-2781613Y2044350D01*
X-2785267Y2049277D01*
X-2788420Y2054538D01*
X-2791042Y2060082D01*
X-2793109Y2065857D01*
X-2794599Y2071807D01*
X-2795499Y2077874D01*
X-2795800Y2084000D01*
X-2795800Y2209000D01*
X-2795499Y2215126D01*
X-2794599Y2221193D01*
X-2793109Y2227143D01*
X-2791042Y2232918D01*
X-2788420Y2238462D01*
X-2785267Y2243723D01*
X-2781613Y2248650D01*
X-2777494Y2253194D01*
X-2772950Y2257313D01*
X-2768023Y2260967D01*
X-2762762Y2264120D01*
X-2757218Y2266742D01*
X-2751443Y2268809D01*
X-2745493Y2270299D01*
X-2739426Y2271199D01*
X-2733300Y2271500D01*
X-1983300Y2271500D01*
X-1977174Y2271199D01*
X-1977174Y2271199D01*
G37*
D27*
G04 #@! TD*
G04 #@! TO.P,U1,16*
G04 #@! TO.N,GND*
X-2358300Y2146500D03*
D15*
G04 #@! TO.N,+3V3*
G04 #@! TO.C,U1*
G36*
X-1602174Y1896199D02*
X-1596107Y1895299D01*
X-1590157Y1893809D01*
X-1584382Y1891742D01*
X-1578838Y1889120D01*
X-1573577Y1885967D01*
X-1568650Y1882313D01*
X-1564106Y1878194D01*
X-1559987Y1873650D01*
X-1556333Y1868723D01*
X-1553180Y1863462D01*
X-1550558Y1857918D01*
X-1548491Y1852143D01*
X-1547001Y1846193D01*
X-1546101Y1840126D01*
X-1545800Y1834000D01*
X-1545800Y1084000D01*
X-1546101Y1077874D01*
X-1547001Y1071807D01*
X-1548491Y1065857D01*
X-1550558Y1060082D01*
X-1553180Y1054538D01*
X-1556333Y1049277D01*
X-1559987Y1044350D01*
X-1564106Y1039806D01*
X-1568650Y1035687D01*
X-1573577Y1032033D01*
X-1578838Y1028880D01*
X-1584382Y1026258D01*
X-1590157Y1024191D01*
X-1596107Y1022701D01*
X-1602174Y1021801D01*
X-1608300Y1021500D01*
X-1733300Y1021500D01*
X-1739426Y1021801D01*
X-1745493Y1022701D01*
X-1751443Y1024191D01*
X-1757218Y1026258D01*
X-1762762Y1028880D01*
X-1768023Y1032033D01*
X-1772950Y1035687D01*
X-1777494Y1039806D01*
X-1781613Y1044350D01*
X-1785267Y1049277D01*
X-1788420Y1054538D01*
X-1791042Y1060082D01*
X-1793109Y1065857D01*
X-1794599Y1071807D01*
X-1795499Y1077874D01*
X-1795800Y1084000D01*
X-1795800Y1834000D01*
X-1795499Y1840126D01*
X-1794599Y1846193D01*
X-1793109Y1852143D01*
X-1791042Y1857918D01*
X-1788420Y1863462D01*
X-1785267Y1868723D01*
X-1781613Y1873650D01*
X-1777494Y1878194D01*
X-1772950Y1882313D01*
X-1768023Y1885967D01*
X-1762762Y1889120D01*
X-1757218Y1891742D01*
X-1751443Y1893809D01*
X-1745493Y1895299D01*
X-1739426Y1896199D01*
X-1733300Y1896500D01*
X-1608300Y1896500D01*
X-1602174Y1896199D01*
X-1602174Y1896199D01*
G37*
D27*
G04 #@! TD*
G04 #@! TO.P,U1,17*
G04 #@! TO.N,+3V3*
X-1670800Y1459000D03*
D15*
G04 #@! TO.N,Net-(U1-Pad18)*
G04 #@! TO.C,U1*
G36*
X-1102174Y1896199D02*
X-1096107Y1895299D01*
X-1090157Y1893809D01*
X-1084382Y1891742D01*
X-1078838Y1889120D01*
X-1073577Y1885967D01*
X-1068650Y1882313D01*
X-1064106Y1878194D01*
X-1059987Y1873650D01*
X-1056333Y1868723D01*
X-1053180Y1863462D01*
X-1050558Y1857918D01*
X-1048491Y1852143D01*
X-1047001Y1846193D01*
X-1046101Y1840126D01*
X-1045800Y1834000D01*
X-1045800Y1084000D01*
X-1046101Y1077874D01*
X-1047001Y1071807D01*
X-1048491Y1065857D01*
X-1050558Y1060082D01*
X-1053180Y1054538D01*
X-1056333Y1049277D01*
X-1059987Y1044350D01*
X-1064106Y1039806D01*
X-1068650Y1035687D01*
X-1073577Y1032033D01*
X-1078838Y1028880D01*
X-1084382Y1026258D01*
X-1090157Y1024191D01*
X-1096107Y1022701D01*
X-1102174Y1021801D01*
X-1108300Y1021500D01*
X-1233300Y1021500D01*
X-1239426Y1021801D01*
X-1245493Y1022701D01*
X-1251443Y1024191D01*
X-1257218Y1026258D01*
X-1262762Y1028880D01*
X-1268023Y1032033D01*
X-1272950Y1035687D01*
X-1277494Y1039806D01*
X-1281613Y1044350D01*
X-1285267Y1049277D01*
X-1288420Y1054538D01*
X-1291042Y1060082D01*
X-1293109Y1065857D01*
X-1294599Y1071807D01*
X-1295499Y1077874D01*
X-1295800Y1084000D01*
X-1295800Y1834000D01*
X-1295499Y1840126D01*
X-1294599Y1846193D01*
X-1293109Y1852143D01*
X-1291042Y1857918D01*
X-1288420Y1863462D01*
X-1285267Y1868723D01*
X-1281613Y1873650D01*
X-1277494Y1878194D01*
X-1272950Y1882313D01*
X-1268023Y1885967D01*
X-1262762Y1889120D01*
X-1257218Y1891742D01*
X-1251443Y1893809D01*
X-1245493Y1895299D01*
X-1239426Y1896199D01*
X-1233300Y1896500D01*
X-1108300Y1896500D01*
X-1102174Y1896199D01*
X-1102174Y1896199D01*
G37*
D27*
G04 #@! TD*
G04 #@! TO.P,U1,18*
G04 #@! TO.N,Net-(U1-Pad18)*
X-1170800Y1459000D03*
D15*
G04 #@! TO.N,/I2C_SCL*
G04 #@! TO.C,U1*
G36*
X-602174Y1896199D02*
X-596107Y1895299D01*
X-590157Y1893809D01*
X-584382Y1891742D01*
X-578838Y1889120D01*
X-573577Y1885967D01*
X-568650Y1882313D01*
X-564106Y1878194D01*
X-559987Y1873650D01*
X-556333Y1868723D01*
X-553180Y1863462D01*
X-550558Y1857918D01*
X-548491Y1852143D01*
X-547001Y1846193D01*
X-546101Y1840126D01*
X-545800Y1834000D01*
X-545800Y1084000D01*
X-546101Y1077874D01*
X-547001Y1071807D01*
X-548491Y1065857D01*
X-550558Y1060082D01*
X-553180Y1054538D01*
X-556333Y1049277D01*
X-559987Y1044350D01*
X-564106Y1039806D01*
X-568650Y1035687D01*
X-573577Y1032033D01*
X-578838Y1028880D01*
X-584382Y1026258D01*
X-590157Y1024191D01*
X-596107Y1022701D01*
X-602174Y1021801D01*
X-608300Y1021500D01*
X-733300Y1021500D01*
X-739426Y1021801D01*
X-745493Y1022701D01*
X-751443Y1024191D01*
X-757218Y1026258D01*
X-762762Y1028880D01*
X-768023Y1032033D01*
X-772950Y1035687D01*
X-777494Y1039806D01*
X-781613Y1044350D01*
X-785267Y1049277D01*
X-788420Y1054538D01*
X-791042Y1060082D01*
X-793109Y1065857D01*
X-794599Y1071807D01*
X-795499Y1077874D01*
X-795800Y1084000D01*
X-795800Y1834000D01*
X-795499Y1840126D01*
X-794599Y1846193D01*
X-793109Y1852143D01*
X-791042Y1857918D01*
X-788420Y1863462D01*
X-785267Y1868723D01*
X-781613Y1873650D01*
X-777494Y1878194D01*
X-772950Y1882313D01*
X-768023Y1885967D01*
X-762762Y1889120D01*
X-757218Y1891742D01*
X-751443Y1893809D01*
X-745493Y1895299D01*
X-739426Y1896199D01*
X-733300Y1896500D01*
X-608300Y1896500D01*
X-602174Y1896199D01*
X-602174Y1896199D01*
G37*
D27*
G04 #@! TD*
G04 #@! TO.P,U1,19*
G04 #@! TO.N,/I2C_SCL*
X-670800Y1459000D03*
D15*
G04 #@! TO.N,/I2C_SDA*
G04 #@! TO.C,U1*
G36*
X-102174Y1896199D02*
X-96107Y1895299D01*
X-90157Y1893809D01*
X-84382Y1891742D01*
X-78838Y1889120D01*
X-73577Y1885967D01*
X-68650Y1882313D01*
X-64106Y1878194D01*
X-59987Y1873650D01*
X-56333Y1868723D01*
X-53180Y1863462D01*
X-50558Y1857918D01*
X-48491Y1852143D01*
X-47001Y1846193D01*
X-46101Y1840126D01*
X-45800Y1834000D01*
X-45800Y1084000D01*
X-46101Y1077874D01*
X-47001Y1071807D01*
X-48491Y1065857D01*
X-50558Y1060082D01*
X-53180Y1054538D01*
X-56333Y1049277D01*
X-59987Y1044350D01*
X-64106Y1039806D01*
X-68650Y1035687D01*
X-73577Y1032033D01*
X-78838Y1028880D01*
X-84382Y1026258D01*
X-90157Y1024191D01*
X-96107Y1022701D01*
X-102174Y1021801D01*
X-108300Y1021500D01*
X-233300Y1021500D01*
X-239426Y1021801D01*
X-245493Y1022701D01*
X-251443Y1024191D01*
X-257218Y1026258D01*
X-262762Y1028880D01*
X-268023Y1032033D01*
X-272950Y1035687D01*
X-277494Y1039806D01*
X-281613Y1044350D01*
X-285267Y1049277D01*
X-288420Y1054538D01*
X-291042Y1060082D01*
X-293109Y1065857D01*
X-294599Y1071807D01*
X-295499Y1077874D01*
X-295800Y1084000D01*
X-295800Y1834000D01*
X-295499Y1840126D01*
X-294599Y1846193D01*
X-293109Y1852143D01*
X-291042Y1857918D01*
X-288420Y1863462D01*
X-285267Y1868723D01*
X-281613Y1873650D01*
X-277494Y1878194D01*
X-272950Y1882313D01*
X-268023Y1885967D01*
X-262762Y1889120D01*
X-257218Y1891742D01*
X-251443Y1893809D01*
X-245493Y1895299D01*
X-239426Y1896199D01*
X-233300Y1896500D01*
X-108300Y1896500D01*
X-102174Y1896199D01*
X-102174Y1896199D01*
G37*
D27*
G04 #@! TD*
G04 #@! TO.P,U1,20*
G04 #@! TO.N,/I2C_SDA*
X-170800Y1459000D03*
D15*
G04 #@! TO.N,/HD-*
G04 #@! TO.C,U1*
G36*
X397826Y1896199D02*
X403893Y1895299D01*
X409843Y1893809D01*
X415618Y1891742D01*
X421162Y1889120D01*
X426423Y1885967D01*
X431350Y1882313D01*
X435894Y1878194D01*
X440013Y1873650D01*
X443667Y1868723D01*
X446820Y1863462D01*
X449442Y1857918D01*
X451509Y1852143D01*
X452999Y1846193D01*
X453899Y1840126D01*
X454200Y1834000D01*
X454200Y1084000D01*
X453899Y1077874D01*
X452999Y1071807D01*
X451509Y1065857D01*
X449442Y1060082D01*
X446820Y1054538D01*
X443667Y1049277D01*
X440013Y1044350D01*
X435894Y1039806D01*
X431350Y1035687D01*
X426423Y1032033D01*
X421162Y1028880D01*
X415618Y1026258D01*
X409843Y1024191D01*
X403893Y1022701D01*
X397826Y1021801D01*
X391700Y1021500D01*
X266700Y1021500D01*
X260574Y1021801D01*
X254507Y1022701D01*
X248557Y1024191D01*
X242782Y1026258D01*
X237238Y1028880D01*
X231977Y1032033D01*
X227050Y1035687D01*
X222506Y1039806D01*
X218387Y1044350D01*
X214733Y1049277D01*
X211580Y1054538D01*
X208958Y1060082D01*
X206891Y1065857D01*
X205401Y1071807D01*
X204501Y1077874D01*
X204200Y1084000D01*
X204200Y1834000D01*
X204501Y1840126D01*
X205401Y1846193D01*
X206891Y1852143D01*
X208958Y1857918D01*
X211580Y1863462D01*
X214733Y1868723D01*
X218387Y1873650D01*
X222506Y1878194D01*
X227050Y1882313D01*
X231977Y1885967D01*
X237238Y1889120D01*
X242782Y1891742D01*
X248557Y1893809D01*
X254507Y1895299D01*
X260574Y1896199D01*
X266700Y1896500D01*
X391700Y1896500D01*
X397826Y1896199D01*
X397826Y1896199D01*
G37*
D27*
G04 #@! TD*
G04 #@! TO.P,U1,21*
G04 #@! TO.N,/HD-*
X329200Y1459000D03*
D15*
G04 #@! TO.N,/HD+*
G04 #@! TO.C,U1*
G36*
X897826Y1896199D02*
X903893Y1895299D01*
X909843Y1893809D01*
X915618Y1891742D01*
X921162Y1889120D01*
X926423Y1885967D01*
X931350Y1882313D01*
X935894Y1878194D01*
X940013Y1873650D01*
X943667Y1868723D01*
X946820Y1863462D01*
X949442Y1857918D01*
X951509Y1852143D01*
X952999Y1846193D01*
X953899Y1840126D01*
X954200Y1834000D01*
X954200Y1084000D01*
X953899Y1077874D01*
X952999Y1071807D01*
X951509Y1065857D01*
X949442Y1060082D01*
X946820Y1054538D01*
X943667Y1049277D01*
X940013Y1044350D01*
X935894Y1039806D01*
X931350Y1035687D01*
X926423Y1032033D01*
X921162Y1028880D01*
X915618Y1026258D01*
X909843Y1024191D01*
X903893Y1022701D01*
X897826Y1021801D01*
X891700Y1021500D01*
X766700Y1021500D01*
X760574Y1021801D01*
X754507Y1022701D01*
X748557Y1024191D01*
X742782Y1026258D01*
X737238Y1028880D01*
X731977Y1032033D01*
X727050Y1035687D01*
X722506Y1039806D01*
X718387Y1044350D01*
X714733Y1049277D01*
X711580Y1054538D01*
X708958Y1060082D01*
X706891Y1065857D01*
X705401Y1071807D01*
X704501Y1077874D01*
X704200Y1084000D01*
X704200Y1834000D01*
X704501Y1840126D01*
X705401Y1846193D01*
X706891Y1852143D01*
X708958Y1857918D01*
X711580Y1863462D01*
X714733Y1868723D01*
X718387Y1873650D01*
X722506Y1878194D01*
X727050Y1882313D01*
X731977Y1885967D01*
X737238Y1889120D01*
X742782Y1891742D01*
X748557Y1893809D01*
X754507Y1895299D01*
X760574Y1896199D01*
X766700Y1896500D01*
X891700Y1896500D01*
X897826Y1896199D01*
X897826Y1896199D01*
G37*
D27*
G04 #@! TD*
G04 #@! TO.P,U1,22*
G04 #@! TO.N,/HD+*
X829200Y1459000D03*
D15*
G04 #@! TO.N,/SWDIO*
G04 #@! TO.C,U1*
G36*
X1397826Y1896199D02*
X1403893Y1895299D01*
X1409843Y1893809D01*
X1415618Y1891742D01*
X1421162Y1889120D01*
X1426423Y1885967D01*
X1431350Y1882313D01*
X1435894Y1878194D01*
X1440013Y1873650D01*
X1443667Y1868723D01*
X1446820Y1863462D01*
X1449442Y1857918D01*
X1451509Y1852143D01*
X1452999Y1846193D01*
X1453899Y1840126D01*
X1454200Y1834000D01*
X1454200Y1084000D01*
X1453899Y1077874D01*
X1452999Y1071807D01*
X1451509Y1065857D01*
X1449442Y1060082D01*
X1446820Y1054538D01*
X1443667Y1049277D01*
X1440013Y1044350D01*
X1435894Y1039806D01*
X1431350Y1035687D01*
X1426423Y1032033D01*
X1421162Y1028880D01*
X1415618Y1026258D01*
X1409843Y1024191D01*
X1403893Y1022701D01*
X1397826Y1021801D01*
X1391700Y1021500D01*
X1266700Y1021500D01*
X1260574Y1021801D01*
X1254507Y1022701D01*
X1248557Y1024191D01*
X1242782Y1026258D01*
X1237238Y1028880D01*
X1231977Y1032033D01*
X1227050Y1035687D01*
X1222506Y1039806D01*
X1218387Y1044350D01*
X1214733Y1049277D01*
X1211580Y1054538D01*
X1208958Y1060082D01*
X1206891Y1065857D01*
X1205401Y1071807D01*
X1204501Y1077874D01*
X1204200Y1084000D01*
X1204200Y1834000D01*
X1204501Y1840126D01*
X1205401Y1846193D01*
X1206891Y1852143D01*
X1208958Y1857918D01*
X1211580Y1863462D01*
X1214733Y1868723D01*
X1218387Y1873650D01*
X1222506Y1878194D01*
X1227050Y1882313D01*
X1231977Y1885967D01*
X1237238Y1889120D01*
X1242782Y1891742D01*
X1248557Y1893809D01*
X1254507Y1895299D01*
X1260574Y1896199D01*
X1266700Y1896500D01*
X1391700Y1896500D01*
X1397826Y1896199D01*
X1397826Y1896199D01*
G37*
D27*
G04 #@! TD*
G04 #@! TO.P,U1,23*
G04 #@! TO.N,/SWDIO*
X1329200Y1459000D03*
D15*
G04 #@! TO.N,/SWCLK*
G04 #@! TO.C,U1*
G36*
X1897826Y1896199D02*
X1903893Y1895299D01*
X1909843Y1893809D01*
X1915618Y1891742D01*
X1921162Y1889120D01*
X1926423Y1885967D01*
X1931350Y1882313D01*
X1935894Y1878194D01*
X1940013Y1873650D01*
X1943667Y1868723D01*
X1946820Y1863462D01*
X1949442Y1857918D01*
X1951509Y1852143D01*
X1952999Y1846193D01*
X1953899Y1840126D01*
X1954200Y1834000D01*
X1954200Y1084000D01*
X1953899Y1077874D01*
X1952999Y1071807D01*
X1951509Y1065857D01*
X1949442Y1060082D01*
X1946820Y1054538D01*
X1943667Y1049277D01*
X1940013Y1044350D01*
X1935894Y1039806D01*
X1931350Y1035687D01*
X1926423Y1032033D01*
X1921162Y1028880D01*
X1915618Y1026258D01*
X1909843Y1024191D01*
X1903893Y1022701D01*
X1897826Y1021801D01*
X1891700Y1021500D01*
X1766700Y1021500D01*
X1760574Y1021801D01*
X1754507Y1022701D01*
X1748557Y1024191D01*
X1742782Y1026258D01*
X1737238Y1028880D01*
X1731977Y1032033D01*
X1727050Y1035687D01*
X1722506Y1039806D01*
X1718387Y1044350D01*
X1714733Y1049277D01*
X1711580Y1054538D01*
X1708958Y1060082D01*
X1706891Y1065857D01*
X1705401Y1071807D01*
X1704501Y1077874D01*
X1704200Y1084000D01*
X1704200Y1834000D01*
X1704501Y1840126D01*
X1705401Y1846193D01*
X1706891Y1852143D01*
X1708958Y1857918D01*
X1711580Y1863462D01*
X1714733Y1868723D01*
X1718387Y1873650D01*
X1722506Y1878194D01*
X1727050Y1882313D01*
X1731977Y1885967D01*
X1737238Y1889120D01*
X1742782Y1891742D01*
X1748557Y1893809D01*
X1754507Y1895299D01*
X1760574Y1896199D01*
X1766700Y1896500D01*
X1891700Y1896500D01*
X1897826Y1896199D01*
X1897826Y1896199D01*
G37*
D27*
G04 #@! TD*
G04 #@! TO.P,U1,24*
G04 #@! TO.N,/SWCLK*
X1829200Y1459000D03*
D15*
G04 #@! TO.N,Net-(U1-Pad25)*
G04 #@! TO.C,U1*
G36*
X2897826Y2271199D02*
X2903893Y2270299D01*
X2909843Y2268809D01*
X2915618Y2266742D01*
X2921162Y2264120D01*
X2926423Y2260967D01*
X2931350Y2257313D01*
X2935894Y2253194D01*
X2940013Y2248650D01*
X2943667Y2243723D01*
X2946820Y2238462D01*
X2949442Y2232918D01*
X2951509Y2227143D01*
X2952999Y2221193D01*
X2953899Y2215126D01*
X2954200Y2209000D01*
X2954200Y2084000D01*
X2953899Y2077874D01*
X2952999Y2071807D01*
X2951509Y2065857D01*
X2949442Y2060082D01*
X2946820Y2054538D01*
X2943667Y2049277D01*
X2940013Y2044350D01*
X2935894Y2039806D01*
X2931350Y2035687D01*
X2926423Y2032033D01*
X2921162Y2028880D01*
X2915618Y2026258D01*
X2909843Y2024191D01*
X2903893Y2022701D01*
X2897826Y2021801D01*
X2891700Y2021500D01*
X2141700Y2021500D01*
X2135574Y2021801D01*
X2129507Y2022701D01*
X2123557Y2024191D01*
X2117782Y2026258D01*
X2112238Y2028880D01*
X2106977Y2032033D01*
X2102050Y2035687D01*
X2097506Y2039806D01*
X2093387Y2044350D01*
X2089733Y2049277D01*
X2086580Y2054538D01*
X2083958Y2060082D01*
X2081891Y2065857D01*
X2080401Y2071807D01*
X2079501Y2077874D01*
X2079200Y2084000D01*
X2079200Y2209000D01*
X2079501Y2215126D01*
X2080401Y2221193D01*
X2081891Y2227143D01*
X2083958Y2232918D01*
X2086580Y2238462D01*
X2089733Y2243723D01*
X2093387Y2248650D01*
X2097506Y2253194D01*
X2102050Y2257313D01*
X2106977Y2260967D01*
X2112238Y2264120D01*
X2117782Y2266742D01*
X2123557Y2268809D01*
X2129507Y2270299D01*
X2135574Y2271199D01*
X2141700Y2271500D01*
X2891700Y2271500D01*
X2897826Y2271199D01*
X2897826Y2271199D01*
G37*
D27*
G04 #@! TD*
G04 #@! TO.P,U1,25*
G04 #@! TO.N,Net-(U1-Pad25)*
X2516700Y2146500D03*
D15*
G04 #@! TO.N,/SWO*
G04 #@! TO.C,U1*
G36*
X2897826Y2771199D02*
X2903893Y2770299D01*
X2909843Y2768809D01*
X2915618Y2766742D01*
X2921162Y2764120D01*
X2926423Y2760967D01*
X2931350Y2757313D01*
X2935894Y2753194D01*
X2940013Y2748650D01*
X2943667Y2743723D01*
X2946820Y2738462D01*
X2949442Y2732918D01*
X2951509Y2727143D01*
X2952999Y2721193D01*
X2953899Y2715126D01*
X2954200Y2709000D01*
X2954200Y2584000D01*
X2953899Y2577874D01*
X2952999Y2571807D01*
X2951509Y2565857D01*
X2949442Y2560082D01*
X2946820Y2554538D01*
X2943667Y2549277D01*
X2940013Y2544350D01*
X2935894Y2539806D01*
X2931350Y2535687D01*
X2926423Y2532033D01*
X2921162Y2528880D01*
X2915618Y2526258D01*
X2909843Y2524191D01*
X2903893Y2522701D01*
X2897826Y2521801D01*
X2891700Y2521500D01*
X2141700Y2521500D01*
X2135574Y2521801D01*
X2129507Y2522701D01*
X2123557Y2524191D01*
X2117782Y2526258D01*
X2112238Y2528880D01*
X2106977Y2532033D01*
X2102050Y2535687D01*
X2097506Y2539806D01*
X2093387Y2544350D01*
X2089733Y2549277D01*
X2086580Y2554538D01*
X2083958Y2560082D01*
X2081891Y2565857D01*
X2080401Y2571807D01*
X2079501Y2577874D01*
X2079200Y2584000D01*
X2079200Y2709000D01*
X2079501Y2715126D01*
X2080401Y2721193D01*
X2081891Y2727143D01*
X2083958Y2732918D01*
X2086580Y2738462D01*
X2089733Y2743723D01*
X2093387Y2748650D01*
X2097506Y2753194D01*
X2102050Y2757313D01*
X2106977Y2760967D01*
X2112238Y2764120D01*
X2117782Y2766742D01*
X2123557Y2768809D01*
X2129507Y2770299D01*
X2135574Y2771199D01*
X2141700Y2771500D01*
X2891700Y2771500D01*
X2897826Y2771199D01*
X2897826Y2771199D01*
G37*
D27*
G04 #@! TD*
G04 #@! TO.P,U1,26*
G04 #@! TO.N,/SWO*
X2516700Y2646500D03*
D15*
G04 #@! TO.N,Net-(U1-Pad27)*
G04 #@! TO.C,U1*
G36*
X2897826Y3271199D02*
X2903893Y3270299D01*
X2909843Y3268809D01*
X2915618Y3266742D01*
X2921162Y3264120D01*
X2926423Y3260967D01*
X2931350Y3257313D01*
X2935894Y3253194D01*
X2940013Y3248650D01*
X2943667Y3243723D01*
X2946820Y3238462D01*
X2949442Y3232918D01*
X2951509Y3227143D01*
X2952999Y3221193D01*
X2953899Y3215126D01*
X2954200Y3209000D01*
X2954200Y3084000D01*
X2953899Y3077874D01*
X2952999Y3071807D01*
X2951509Y3065857D01*
X2949442Y3060082D01*
X2946820Y3054538D01*
X2943667Y3049277D01*
X2940013Y3044350D01*
X2935894Y3039806D01*
X2931350Y3035687D01*
X2926423Y3032033D01*
X2921162Y3028880D01*
X2915618Y3026258D01*
X2909843Y3024191D01*
X2903893Y3022701D01*
X2897826Y3021801D01*
X2891700Y3021500D01*
X2141700Y3021500D01*
X2135574Y3021801D01*
X2129507Y3022701D01*
X2123557Y3024191D01*
X2117782Y3026258D01*
X2112238Y3028880D01*
X2106977Y3032033D01*
X2102050Y3035687D01*
X2097506Y3039806D01*
X2093387Y3044350D01*
X2089733Y3049277D01*
X2086580Y3054538D01*
X2083958Y3060082D01*
X2081891Y3065857D01*
X2080401Y3071807D01*
X2079501Y3077874D01*
X2079200Y3084000D01*
X2079200Y3209000D01*
X2079501Y3215126D01*
X2080401Y3221193D01*
X2081891Y3227143D01*
X2083958Y3232918D01*
X2086580Y3238462D01*
X2089733Y3243723D01*
X2093387Y3248650D01*
X2097506Y3253194D01*
X2102050Y3257313D01*
X2106977Y3260967D01*
X2112238Y3264120D01*
X2117782Y3266742D01*
X2123557Y3268809D01*
X2129507Y3270299D01*
X2135574Y3271199D01*
X2141700Y3271500D01*
X2891700Y3271500D01*
X2897826Y3271199D01*
X2897826Y3271199D01*
G37*
D27*
G04 #@! TD*
G04 #@! TO.P,U1,27*
G04 #@! TO.N,Net-(U1-Pad27)*
X2516700Y3146500D03*
D15*
G04 #@! TO.N,Net-(U1-Pad28)*
G04 #@! TO.C,U1*
G36*
X2897826Y3771199D02*
X2903893Y3770299D01*
X2909843Y3768809D01*
X2915618Y3766742D01*
X2921162Y3764120D01*
X2926423Y3760967D01*
X2931350Y3757313D01*
X2935894Y3753194D01*
X2940013Y3748650D01*
X2943667Y3743723D01*
X2946820Y3738462D01*
X2949442Y3732918D01*
X2951509Y3727143D01*
X2952999Y3721193D01*
X2953899Y3715126D01*
X2954200Y3709000D01*
X2954200Y3584000D01*
X2953899Y3577874D01*
X2952999Y3571807D01*
X2951509Y3565857D01*
X2949442Y3560082D01*
X2946820Y3554538D01*
X2943667Y3549277D01*
X2940013Y3544350D01*
X2935894Y3539806D01*
X2931350Y3535687D01*
X2926423Y3532033D01*
X2921162Y3528880D01*
X2915618Y3526258D01*
X2909843Y3524191D01*
X2903893Y3522701D01*
X2897826Y3521801D01*
X2891700Y3521500D01*
X2141700Y3521500D01*
X2135574Y3521801D01*
X2129507Y3522701D01*
X2123557Y3524191D01*
X2117782Y3526258D01*
X2112238Y3528880D01*
X2106977Y3532033D01*
X2102050Y3535687D01*
X2097506Y3539806D01*
X2093387Y3544350D01*
X2089733Y3549277D01*
X2086580Y3554538D01*
X2083958Y3560082D01*
X2081891Y3565857D01*
X2080401Y3571807D01*
X2079501Y3577874D01*
X2079200Y3584000D01*
X2079200Y3709000D01*
X2079501Y3715126D01*
X2080401Y3721193D01*
X2081891Y3727143D01*
X2083958Y3732918D01*
X2086580Y3738462D01*
X2089733Y3743723D01*
X2093387Y3748650D01*
X2097506Y3753194D01*
X2102050Y3757313D01*
X2106977Y3760967D01*
X2112238Y3764120D01*
X2117782Y3766742D01*
X2123557Y3768809D01*
X2129507Y3770299D01*
X2135574Y3771199D01*
X2141700Y3771500D01*
X2891700Y3771500D01*
X2897826Y3771199D01*
X2897826Y3771199D01*
G37*
D27*
G04 #@! TD*
G04 #@! TO.P,U1,28*
G04 #@! TO.N,Net-(U1-Pad28)*
X2516700Y3646500D03*
D15*
G04 #@! TO.N,/STX*
G04 #@! TO.C,U1*
G36*
X2897826Y4271199D02*
X2903893Y4270299D01*
X2909843Y4268809D01*
X2915618Y4266742D01*
X2921162Y4264120D01*
X2926423Y4260967D01*
X2931350Y4257313D01*
X2935894Y4253194D01*
X2940013Y4248650D01*
X2943667Y4243723D01*
X2946820Y4238462D01*
X2949442Y4232918D01*
X2951509Y4227143D01*
X2952999Y4221193D01*
X2953899Y4215126D01*
X2954200Y4209000D01*
X2954200Y4084000D01*
X2953899Y4077874D01*
X2952999Y4071807D01*
X2951509Y4065857D01*
X2949442Y4060082D01*
X2946820Y4054538D01*
X2943667Y4049277D01*
X2940013Y4044350D01*
X2935894Y4039806D01*
X2931350Y4035687D01*
X2926423Y4032033D01*
X2921162Y4028880D01*
X2915618Y4026258D01*
X2909843Y4024191D01*
X2903893Y4022701D01*
X2897826Y4021801D01*
X2891700Y4021500D01*
X2141700Y4021500D01*
X2135574Y4021801D01*
X2129507Y4022701D01*
X2123557Y4024191D01*
X2117782Y4026258D01*
X2112238Y4028880D01*
X2106977Y4032033D01*
X2102050Y4035687D01*
X2097506Y4039806D01*
X2093387Y4044350D01*
X2089733Y4049277D01*
X2086580Y4054538D01*
X2083958Y4060082D01*
X2081891Y4065857D01*
X2080401Y4071807D01*
X2079501Y4077874D01*
X2079200Y4084000D01*
X2079200Y4209000D01*
X2079501Y4215126D01*
X2080401Y4221193D01*
X2081891Y4227143D01*
X2083958Y4232918D01*
X2086580Y4238462D01*
X2089733Y4243723D01*
X2093387Y4248650D01*
X2097506Y4253194D01*
X2102050Y4257313D01*
X2106977Y4260967D01*
X2112238Y4264120D01*
X2117782Y4266742D01*
X2123557Y4268809D01*
X2129507Y4270299D01*
X2135574Y4271199D01*
X2141700Y4271500D01*
X2891700Y4271500D01*
X2897826Y4271199D01*
X2897826Y4271199D01*
G37*
D27*
G04 #@! TD*
G04 #@! TO.P,U1,29*
G04 #@! TO.N,/STX*
X2516700Y4146500D03*
D15*
G04 #@! TO.N,/SRX*
G04 #@! TO.C,U1*
G36*
X2897826Y4771199D02*
X2903893Y4770299D01*
X2909843Y4768809D01*
X2915618Y4766742D01*
X2921162Y4764120D01*
X2926423Y4760967D01*
X2931350Y4757313D01*
X2935894Y4753194D01*
X2940013Y4748650D01*
X2943667Y4743723D01*
X2946820Y4738462D01*
X2949442Y4732918D01*
X2951509Y4727143D01*
X2952999Y4721193D01*
X2953899Y4715126D01*
X2954200Y4709000D01*
X2954200Y4584000D01*
X2953899Y4577874D01*
X2952999Y4571807D01*
X2951509Y4565857D01*
X2949442Y4560082D01*
X2946820Y4554538D01*
X2943667Y4549277D01*
X2940013Y4544350D01*
X2935894Y4539806D01*
X2931350Y4535687D01*
X2926423Y4532033D01*
X2921162Y4528880D01*
X2915618Y4526258D01*
X2909843Y4524191D01*
X2903893Y4522701D01*
X2897826Y4521801D01*
X2891700Y4521500D01*
X2141700Y4521500D01*
X2135574Y4521801D01*
X2129507Y4522701D01*
X2123557Y4524191D01*
X2117782Y4526258D01*
X2112238Y4528880D01*
X2106977Y4532033D01*
X2102050Y4535687D01*
X2097506Y4539806D01*
X2093387Y4544350D01*
X2089733Y4549277D01*
X2086580Y4554538D01*
X2083958Y4560082D01*
X2081891Y4565857D01*
X2080401Y4571807D01*
X2079501Y4577874D01*
X2079200Y4584000D01*
X2079200Y4709000D01*
X2079501Y4715126D01*
X2080401Y4721193D01*
X2081891Y4727143D01*
X2083958Y4732918D01*
X2086580Y4738462D01*
X2089733Y4743723D01*
X2093387Y4748650D01*
X2097506Y4753194D01*
X2102050Y4757313D01*
X2106977Y4760967D01*
X2112238Y4764120D01*
X2117782Y4766742D01*
X2123557Y4768809D01*
X2129507Y4770299D01*
X2135574Y4771199D01*
X2141700Y4771500D01*
X2891700Y4771500D01*
X2897826Y4771199D01*
X2897826Y4771199D01*
G37*
D27*
G04 #@! TD*
G04 #@! TO.P,U1,30*
G04 #@! TO.N,/SRX*
X2516700Y4646500D03*
D15*
G04 #@! TO.N,+3V3*
G04 #@! TO.C,U1*
G36*
X2897826Y5271199D02*
X2903893Y5270299D01*
X2909843Y5268809D01*
X2915618Y5266742D01*
X2921162Y5264120D01*
X2926423Y5260967D01*
X2931350Y5257313D01*
X2935894Y5253194D01*
X2940013Y5248650D01*
X2943667Y5243723D01*
X2946820Y5238462D01*
X2949442Y5232918D01*
X2951509Y5227143D01*
X2952999Y5221193D01*
X2953899Y5215126D01*
X2954200Y5209000D01*
X2954200Y5084000D01*
X2953899Y5077874D01*
X2952999Y5071807D01*
X2951509Y5065857D01*
X2949442Y5060082D01*
X2946820Y5054538D01*
X2943667Y5049277D01*
X2940013Y5044350D01*
X2935894Y5039806D01*
X2931350Y5035687D01*
X2926423Y5032033D01*
X2921162Y5028880D01*
X2915618Y5026258D01*
X2909843Y5024191D01*
X2903893Y5022701D01*
X2897826Y5021801D01*
X2891700Y5021500D01*
X2141700Y5021500D01*
X2135574Y5021801D01*
X2129507Y5022701D01*
X2123557Y5024191D01*
X2117782Y5026258D01*
X2112238Y5028880D01*
X2106977Y5032033D01*
X2102050Y5035687D01*
X2097506Y5039806D01*
X2093387Y5044350D01*
X2089733Y5049277D01*
X2086580Y5054538D01*
X2083958Y5060082D01*
X2081891Y5065857D01*
X2080401Y5071807D01*
X2079501Y5077874D01*
X2079200Y5084000D01*
X2079200Y5209000D01*
X2079501Y5215126D01*
X2080401Y5221193D01*
X2081891Y5227143D01*
X2083958Y5232918D01*
X2086580Y5238462D01*
X2089733Y5243723D01*
X2093387Y5248650D01*
X2097506Y5253194D01*
X2102050Y5257313D01*
X2106977Y5260967D01*
X2112238Y5264120D01*
X2117782Y5266742D01*
X2123557Y5268809D01*
X2129507Y5270299D01*
X2135574Y5271199D01*
X2141700Y5271500D01*
X2891700Y5271500D01*
X2897826Y5271199D01*
X2897826Y5271199D01*
G37*
D27*
G04 #@! TD*
G04 #@! TO.P,U1,31*
G04 #@! TO.N,+3V3*
X2516700Y5146500D03*
D15*
G04 #@! TO.N,GND*
G04 #@! TO.C,U1*
G36*
X2897826Y5771199D02*
X2903893Y5770299D01*
X2909843Y5768809D01*
X2915618Y5766742D01*
X2921162Y5764120D01*
X2926423Y5760967D01*
X2931350Y5757313D01*
X2935894Y5753194D01*
X2940013Y5748650D01*
X2943667Y5743723D01*
X2946820Y5738462D01*
X2949442Y5732918D01*
X2951509Y5727143D01*
X2952999Y5721193D01*
X2953899Y5715126D01*
X2954200Y5709000D01*
X2954200Y5584000D01*
X2953899Y5577874D01*
X2952999Y5571807D01*
X2951509Y5565857D01*
X2949442Y5560082D01*
X2946820Y5554538D01*
X2943667Y5549277D01*
X2940013Y5544350D01*
X2935894Y5539806D01*
X2931350Y5535687D01*
X2926423Y5532033D01*
X2921162Y5528880D01*
X2915618Y5526258D01*
X2909843Y5524191D01*
X2903893Y5522701D01*
X2897826Y5521801D01*
X2891700Y5521500D01*
X2141700Y5521500D01*
X2135574Y5521801D01*
X2129507Y5522701D01*
X2123557Y5524191D01*
X2117782Y5526258D01*
X2112238Y5528880D01*
X2106977Y5532033D01*
X2102050Y5535687D01*
X2097506Y5539806D01*
X2093387Y5544350D01*
X2089733Y5549277D01*
X2086580Y5554538D01*
X2083958Y5560082D01*
X2081891Y5565857D01*
X2080401Y5571807D01*
X2079501Y5577874D01*
X2079200Y5584000D01*
X2079200Y5709000D01*
X2079501Y5715126D01*
X2080401Y5721193D01*
X2081891Y5727143D01*
X2083958Y5732918D01*
X2086580Y5738462D01*
X2089733Y5743723D01*
X2093387Y5748650D01*
X2097506Y5753194D01*
X2102050Y5757313D01*
X2106977Y5760967D01*
X2112238Y5764120D01*
X2117782Y5766742D01*
X2123557Y5768809D01*
X2129507Y5770299D01*
X2135574Y5771199D01*
X2141700Y5771500D01*
X2891700Y5771500D01*
X2897826Y5771199D01*
X2897826Y5771199D01*
G37*
D27*
G04 #@! TD*
G04 #@! TO.P,U1,32*
G04 #@! TO.N,GND*
X2516700Y5646500D03*
D15*
G04 #@! TO.N,GND*
G04 #@! TO.C,C1*
G36*
X5416158Y-3744210D02*
X5430476Y-3746334D01*
X5444517Y-3749851D01*
X5458146Y-3754728D01*
X5471231Y-3760917D01*
X5483647Y-3768358D01*
X5495273Y-3776981D01*
X5505998Y-3786702D01*
X5515719Y-3797427D01*
X5524342Y-3809053D01*
X5531783Y-3821469D01*
X5537972Y-3834554D01*
X5542849Y-3848183D01*
X5546366Y-3862224D01*
X5548490Y-3876542D01*
X5549200Y-3891000D01*
X5549200Y-4186000D01*
X5548490Y-4200458D01*
X5546366Y-4214776D01*
X5542849Y-4228817D01*
X5537972Y-4242446D01*
X5531783Y-4255531D01*
X5524342Y-4267947D01*
X5515719Y-4279573D01*
X5505998Y-4290298D01*
X5495273Y-4300019D01*
X5483647Y-4308642D01*
X5471231Y-4316083D01*
X5458146Y-4322272D01*
X5444517Y-4327149D01*
X5430476Y-4330666D01*
X5416158Y-4332790D01*
X5401700Y-4333500D01*
X5056700Y-4333500D01*
X5042242Y-4332790D01*
X5027924Y-4330666D01*
X5013883Y-4327149D01*
X5000254Y-4322272D01*
X4987169Y-4316083D01*
X4974753Y-4308642D01*
X4963127Y-4300019D01*
X4952402Y-4290298D01*
X4942681Y-4279573D01*
X4934058Y-4267947D01*
X4926617Y-4255531D01*
X4920428Y-4242446D01*
X4915551Y-4228817D01*
X4912034Y-4214776D01*
X4909910Y-4200458D01*
X4909200Y-4186000D01*
X4909200Y-3891000D01*
X4909910Y-3876542D01*
X4912034Y-3862224D01*
X4915551Y-3848183D01*
X4920428Y-3834554D01*
X4926617Y-3821469D01*
X4934058Y-3809053D01*
X4942681Y-3797427D01*
X4952402Y-3786702D01*
X4963127Y-3776981D01*
X4974753Y-3768358D01*
X4987169Y-3760917D01*
X5000254Y-3754728D01*
X5013883Y-3749851D01*
X5027924Y-3746334D01*
X5042242Y-3744210D01*
X5056700Y-3743500D01*
X5401700Y-3743500D01*
X5416158Y-3744210D01*
X5416158Y-3744210D01*
G37*
D21*
G04 #@! TD*
G04 #@! TO.P,C1,1*
G04 #@! TO.N,GND*
X5229200Y-4038500D03*
D15*
G04 #@! TO.N,+5V*
G04 #@! TO.C,C1*
G36*
X5416158Y-2774210D02*
X5430476Y-2776334D01*
X5444517Y-2779851D01*
X5458146Y-2784728D01*
X5471231Y-2790917D01*
X5483647Y-2798358D01*
X5495273Y-2806981D01*
X5505998Y-2816702D01*
X5515719Y-2827427D01*
X5524342Y-2839053D01*
X5531783Y-2851469D01*
X5537972Y-2864554D01*
X5542849Y-2878183D01*
X5546366Y-2892224D01*
X5548490Y-2906542D01*
X5549200Y-2921000D01*
X5549200Y-3216000D01*
X5548490Y-3230458D01*
X5546366Y-3244776D01*
X5542849Y-3258817D01*
X5537972Y-3272446D01*
X5531783Y-3285531D01*
X5524342Y-3297947D01*
X5515719Y-3309573D01*
X5505998Y-3320298D01*
X5495273Y-3330019D01*
X5483647Y-3338642D01*
X5471231Y-3346083D01*
X5458146Y-3352272D01*
X5444517Y-3357149D01*
X5430476Y-3360666D01*
X5416158Y-3362790D01*
X5401700Y-3363500D01*
X5056700Y-3363500D01*
X5042242Y-3362790D01*
X5027924Y-3360666D01*
X5013883Y-3357149D01*
X5000254Y-3352272D01*
X4987169Y-3346083D01*
X4974753Y-3338642D01*
X4963127Y-3330019D01*
X4952402Y-3320298D01*
X4942681Y-3309573D01*
X4934058Y-3297947D01*
X4926617Y-3285531D01*
X4920428Y-3272446D01*
X4915551Y-3258817D01*
X4912034Y-3244776D01*
X4909910Y-3230458D01*
X4909200Y-3216000D01*
X4909200Y-2921000D01*
X4909910Y-2906542D01*
X4912034Y-2892224D01*
X4915551Y-2878183D01*
X4920428Y-2864554D01*
X4926617Y-2851469D01*
X4934058Y-2839053D01*
X4942681Y-2827427D01*
X4952402Y-2816702D01*
X4963127Y-2806981D01*
X4974753Y-2798358D01*
X4987169Y-2790917D01*
X5000254Y-2784728D01*
X5013883Y-2779851D01*
X5027924Y-2776334D01*
X5042242Y-2774210D01*
X5056700Y-2773500D01*
X5401700Y-2773500D01*
X5416158Y-2774210D01*
X5416158Y-2774210D01*
G37*
D21*
G04 #@! TD*
G04 #@! TO.P,C1,2*
G04 #@! TO.N,+5V*
X5229200Y-3068500D03*
D15*
G04 #@! TO.N,+5V*
G04 #@! TO.C,C2*
G36*
X4366158Y-2774210D02*
X4380476Y-2776334D01*
X4394517Y-2779851D01*
X4408146Y-2784728D01*
X4421231Y-2790917D01*
X4433647Y-2798358D01*
X4445273Y-2806981D01*
X4455998Y-2816702D01*
X4465719Y-2827427D01*
X4474342Y-2839053D01*
X4481783Y-2851469D01*
X4487972Y-2864554D01*
X4492849Y-2878183D01*
X4496366Y-2892224D01*
X4498490Y-2906542D01*
X4499200Y-2921000D01*
X4499200Y-3216000D01*
X4498490Y-3230458D01*
X4496366Y-3244776D01*
X4492849Y-3258817D01*
X4487972Y-3272446D01*
X4481783Y-3285531D01*
X4474342Y-3297947D01*
X4465719Y-3309573D01*
X4455998Y-3320298D01*
X4445273Y-3330019D01*
X4433647Y-3338642D01*
X4421231Y-3346083D01*
X4408146Y-3352272D01*
X4394517Y-3357149D01*
X4380476Y-3360666D01*
X4366158Y-3362790D01*
X4351700Y-3363500D01*
X4006700Y-3363500D01*
X3992242Y-3362790D01*
X3977924Y-3360666D01*
X3963883Y-3357149D01*
X3950254Y-3352272D01*
X3937169Y-3346083D01*
X3924753Y-3338642D01*
X3913127Y-3330019D01*
X3902402Y-3320298D01*
X3892681Y-3309573D01*
X3884058Y-3297947D01*
X3876617Y-3285531D01*
X3870428Y-3272446D01*
X3865551Y-3258817D01*
X3862034Y-3244776D01*
X3859910Y-3230458D01*
X3859200Y-3216000D01*
X3859200Y-2921000D01*
X3859910Y-2906542D01*
X3862034Y-2892224D01*
X3865551Y-2878183D01*
X3870428Y-2864554D01*
X3876617Y-2851469D01*
X3884058Y-2839053D01*
X3892681Y-2827427D01*
X3902402Y-2816702D01*
X3913127Y-2806981D01*
X3924753Y-2798358D01*
X3937169Y-2790917D01*
X3950254Y-2784728D01*
X3963883Y-2779851D01*
X3977924Y-2776334D01*
X3992242Y-2774210D01*
X4006700Y-2773500D01*
X4351700Y-2773500D01*
X4366158Y-2774210D01*
X4366158Y-2774210D01*
G37*
D21*
G04 #@! TD*
G04 #@! TO.P,C2,2*
G04 #@! TO.N,+5V*
X4179200Y-3068500D03*
D15*
G04 #@! TO.N,GND*
G04 #@! TO.C,C2*
G36*
X4366158Y-3744210D02*
X4380476Y-3746334D01*
X4394517Y-3749851D01*
X4408146Y-3754728D01*
X4421231Y-3760917D01*
X4433647Y-3768358D01*
X4445273Y-3776981D01*
X4455998Y-3786702D01*
X4465719Y-3797427D01*
X4474342Y-3809053D01*
X4481783Y-3821469D01*
X4487972Y-3834554D01*
X4492849Y-3848183D01*
X4496366Y-3862224D01*
X4498490Y-3876542D01*
X4499200Y-3891000D01*
X4499200Y-4186000D01*
X4498490Y-4200458D01*
X4496366Y-4214776D01*
X4492849Y-4228817D01*
X4487972Y-4242446D01*
X4481783Y-4255531D01*
X4474342Y-4267947D01*
X4465719Y-4279573D01*
X4455998Y-4290298D01*
X4445273Y-4300019D01*
X4433647Y-4308642D01*
X4421231Y-4316083D01*
X4408146Y-4322272D01*
X4394517Y-4327149D01*
X4380476Y-4330666D01*
X4366158Y-4332790D01*
X4351700Y-4333500D01*
X4006700Y-4333500D01*
X3992242Y-4332790D01*
X3977924Y-4330666D01*
X3963883Y-4327149D01*
X3950254Y-4322272D01*
X3937169Y-4316083D01*
X3924753Y-4308642D01*
X3913127Y-4300019D01*
X3902402Y-4290298D01*
X3892681Y-4279573D01*
X3884058Y-4267947D01*
X3876617Y-4255531D01*
X3870428Y-4242446D01*
X3865551Y-4228817D01*
X3862034Y-4214776D01*
X3859910Y-4200458D01*
X3859200Y-4186000D01*
X3859200Y-3891000D01*
X3859910Y-3876542D01*
X3862034Y-3862224D01*
X3865551Y-3848183D01*
X3870428Y-3834554D01*
X3876617Y-3821469D01*
X3884058Y-3809053D01*
X3892681Y-3797427D01*
X3902402Y-3786702D01*
X3913127Y-3776981D01*
X3924753Y-3768358D01*
X3937169Y-3760917D01*
X3950254Y-3754728D01*
X3963883Y-3749851D01*
X3977924Y-3746334D01*
X3992242Y-3744210D01*
X4006700Y-3743500D01*
X4351700Y-3743500D01*
X4366158Y-3744210D01*
X4366158Y-3744210D01*
G37*
D21*
G04 #@! TD*
G04 #@! TO.P,C2,1*
G04 #@! TO.N,GND*
X4179200Y-4038500D03*
D15*
G04 #@! TO.N,+3V3*
G04 #@! TO.C,C3*
G36*
X-1823842Y-834210D02*
X-1809524Y-836334D01*
X-1795483Y-839851D01*
X-1781854Y-844728D01*
X-1768769Y-850917D01*
X-1756353Y-858358D01*
X-1744727Y-866981D01*
X-1734002Y-876702D01*
X-1724281Y-887427D01*
X-1715658Y-899053D01*
X-1708217Y-911469D01*
X-1702028Y-924554D01*
X-1697151Y-938183D01*
X-1693634Y-952224D01*
X-1691510Y-966542D01*
X-1690800Y-981000D01*
X-1690800Y-1326000D01*
X-1691510Y-1340458D01*
X-1693634Y-1354776D01*
X-1697151Y-1368817D01*
X-1702028Y-1382446D01*
X-1708217Y-1395531D01*
X-1715658Y-1407947D01*
X-1724281Y-1419573D01*
X-1734002Y-1430298D01*
X-1744727Y-1440019D01*
X-1756353Y-1448642D01*
X-1768769Y-1456083D01*
X-1781854Y-1462272D01*
X-1795483Y-1467149D01*
X-1809524Y-1470666D01*
X-1823842Y-1472790D01*
X-1838300Y-1473500D01*
X-2133300Y-1473500D01*
X-2147758Y-1472790D01*
X-2162076Y-1470666D01*
X-2176117Y-1467149D01*
X-2189746Y-1462272D01*
X-2202831Y-1456083D01*
X-2215247Y-1448642D01*
X-2226873Y-1440019D01*
X-2237598Y-1430298D01*
X-2247319Y-1419573D01*
X-2255942Y-1407947D01*
X-2263383Y-1395531D01*
X-2269572Y-1382446D01*
X-2274449Y-1368817D01*
X-2277966Y-1354776D01*
X-2280090Y-1340458D01*
X-2280800Y-1326000D01*
X-2280800Y-981000D01*
X-2280090Y-966542D01*
X-2277966Y-952224D01*
X-2274449Y-938183D01*
X-2269572Y-924554D01*
X-2263383Y-911469D01*
X-2255942Y-899053D01*
X-2247319Y-887427D01*
X-2237598Y-876702D01*
X-2226873Y-866981D01*
X-2215247Y-858358D01*
X-2202831Y-850917D01*
X-2189746Y-844728D01*
X-2176117Y-839851D01*
X-2162076Y-836334D01*
X-2147758Y-834210D01*
X-2133300Y-833500D01*
X-1838300Y-833500D01*
X-1823842Y-834210D01*
X-1823842Y-834210D01*
G37*
D21*
G04 #@! TD*
G04 #@! TO.P,C3,2*
G04 #@! TO.N,+3V3*
X-1985800Y-1153500D03*
D15*
G04 #@! TO.N,GND*
G04 #@! TO.C,C3*
G36*
X-2793842Y-834210D02*
X-2779524Y-836334D01*
X-2765483Y-839851D01*
X-2751854Y-844728D01*
X-2738769Y-850917D01*
X-2726353Y-858358D01*
X-2714727Y-866981D01*
X-2704002Y-876702D01*
X-2694281Y-887427D01*
X-2685658Y-899053D01*
X-2678217Y-911469D01*
X-2672028Y-924554D01*
X-2667151Y-938183D01*
X-2663634Y-952224D01*
X-2661510Y-966542D01*
X-2660800Y-981000D01*
X-2660800Y-1326000D01*
X-2661510Y-1340458D01*
X-2663634Y-1354776D01*
X-2667151Y-1368817D01*
X-2672028Y-1382446D01*
X-2678217Y-1395531D01*
X-2685658Y-1407947D01*
X-2694281Y-1419573D01*
X-2704002Y-1430298D01*
X-2714727Y-1440019D01*
X-2726353Y-1448642D01*
X-2738769Y-1456083D01*
X-2751854Y-1462272D01*
X-2765483Y-1467149D01*
X-2779524Y-1470666D01*
X-2793842Y-1472790D01*
X-2808300Y-1473500D01*
X-3103300Y-1473500D01*
X-3117758Y-1472790D01*
X-3132076Y-1470666D01*
X-3146117Y-1467149D01*
X-3159746Y-1462272D01*
X-3172831Y-1456083D01*
X-3185247Y-1448642D01*
X-3196873Y-1440019D01*
X-3207598Y-1430298D01*
X-3217319Y-1419573D01*
X-3225942Y-1407947D01*
X-3233383Y-1395531D01*
X-3239572Y-1382446D01*
X-3244449Y-1368817D01*
X-3247966Y-1354776D01*
X-3250090Y-1340458D01*
X-3250800Y-1326000D01*
X-3250800Y-981000D01*
X-3250090Y-966542D01*
X-3247966Y-952224D01*
X-3244449Y-938183D01*
X-3239572Y-924554D01*
X-3233383Y-911469D01*
X-3225942Y-899053D01*
X-3217319Y-887427D01*
X-3207598Y-876702D01*
X-3196873Y-866981D01*
X-3185247Y-858358D01*
X-3172831Y-850917D01*
X-3159746Y-844728D01*
X-3146117Y-839851D01*
X-3132076Y-836334D01*
X-3117758Y-834210D01*
X-3103300Y-833500D01*
X-2808300Y-833500D01*
X-2793842Y-834210D01*
X-2793842Y-834210D01*
G37*
D21*
G04 #@! TD*
G04 #@! TO.P,C3,1*
G04 #@! TO.N,GND*
X-2955800Y-1153500D03*
D15*
G04 #@! TO.N,GND*
G04 #@! TO.C,C4*
G36*
X-2793842Y315790D02*
X-2779524Y313666D01*
X-2765483Y310149D01*
X-2751854Y305272D01*
X-2738769Y299083D01*
X-2726353Y291642D01*
X-2714727Y283019D01*
X-2704002Y273298D01*
X-2694281Y262573D01*
X-2685658Y250947D01*
X-2678217Y238531D01*
X-2672028Y225446D01*
X-2667151Y211817D01*
X-2663634Y197776D01*
X-2661510Y183458D01*
X-2660800Y169000D01*
X-2660800Y-176000D01*
X-2661510Y-190458D01*
X-2663634Y-204776D01*
X-2667151Y-218817D01*
X-2672028Y-232446D01*
X-2678217Y-245531D01*
X-2685658Y-257947D01*
X-2694281Y-269573D01*
X-2704002Y-280298D01*
X-2714727Y-290019D01*
X-2726353Y-298642D01*
X-2738769Y-306083D01*
X-2751854Y-312272D01*
X-2765483Y-317149D01*
X-2779524Y-320666D01*
X-2793842Y-322790D01*
X-2808300Y-323500D01*
X-3103300Y-323500D01*
X-3117758Y-322790D01*
X-3132076Y-320666D01*
X-3146117Y-317149D01*
X-3159746Y-312272D01*
X-3172831Y-306083D01*
X-3185247Y-298642D01*
X-3196873Y-290019D01*
X-3207598Y-280298D01*
X-3217319Y-269573D01*
X-3225942Y-257947D01*
X-3233383Y-245531D01*
X-3239572Y-232446D01*
X-3244449Y-218817D01*
X-3247966Y-204776D01*
X-3250090Y-190458D01*
X-3250800Y-176000D01*
X-3250800Y169000D01*
X-3250090Y183458D01*
X-3247966Y197776D01*
X-3244449Y211817D01*
X-3239572Y225446D01*
X-3233383Y238531D01*
X-3225942Y250947D01*
X-3217319Y262573D01*
X-3207598Y273298D01*
X-3196873Y283019D01*
X-3185247Y291642D01*
X-3172831Y299083D01*
X-3159746Y305272D01*
X-3146117Y310149D01*
X-3132076Y313666D01*
X-3117758Y315790D01*
X-3103300Y316500D01*
X-2808300Y316500D01*
X-2793842Y315790D01*
X-2793842Y315790D01*
G37*
D21*
G04 #@! TD*
G04 #@! TO.P,C4,1*
G04 #@! TO.N,GND*
X-2955800Y-3500D03*
D15*
G04 #@! TO.N,+3V3*
G04 #@! TO.C,C4*
G36*
X-1823842Y315790D02*
X-1809524Y313666D01*
X-1795483Y310149D01*
X-1781854Y305272D01*
X-1768769Y299083D01*
X-1756353Y291642D01*
X-1744727Y283019D01*
X-1734002Y273298D01*
X-1724281Y262573D01*
X-1715658Y250947D01*
X-1708217Y238531D01*
X-1702028Y225446D01*
X-1697151Y211817D01*
X-1693634Y197776D01*
X-1691510Y183458D01*
X-1690800Y169000D01*
X-1690800Y-176000D01*
X-1691510Y-190458D01*
X-1693634Y-204776D01*
X-1697151Y-218817D01*
X-1702028Y-232446D01*
X-1708217Y-245531D01*
X-1715658Y-257947D01*
X-1724281Y-269573D01*
X-1734002Y-280298D01*
X-1744727Y-290019D01*
X-1756353Y-298642D01*
X-1768769Y-306083D01*
X-1781854Y-312272D01*
X-1795483Y-317149D01*
X-1809524Y-320666D01*
X-1823842Y-322790D01*
X-1838300Y-323500D01*
X-2133300Y-323500D01*
X-2147758Y-322790D01*
X-2162076Y-320666D01*
X-2176117Y-317149D01*
X-2189746Y-312272D01*
X-2202831Y-306083D01*
X-2215247Y-298642D01*
X-2226873Y-290019D01*
X-2237598Y-280298D01*
X-2247319Y-269573D01*
X-2255942Y-257947D01*
X-2263383Y-245531D01*
X-2269572Y-232446D01*
X-2274449Y-218817D01*
X-2277966Y-204776D01*
X-2280090Y-190458D01*
X-2280800Y-176000D01*
X-2280800Y169000D01*
X-2280090Y183458D01*
X-2277966Y197776D01*
X-2274449Y211817D01*
X-2269572Y225446D01*
X-2263383Y238531D01*
X-2255942Y250947D01*
X-2247319Y262573D01*
X-2237598Y273298D01*
X-2226873Y283019D01*
X-2215247Y291642D01*
X-2202831Y299083D01*
X-2189746Y305272D01*
X-2176117Y310149D01*
X-2162076Y313666D01*
X-2147758Y315790D01*
X-2133300Y316500D01*
X-1838300Y316500D01*
X-1823842Y315790D01*
X-1823842Y315790D01*
G37*
D21*
G04 #@! TD*
G04 #@! TO.P,C4,2*
G04 #@! TO.N,+3V3*
X-1985800Y-3500D03*
D15*
G04 #@! TO.N,Net-(C5-Pad1)*
G04 #@! TO.C,C5*
G36*
X4976158Y5165790D02*
X4990476Y5163666D01*
X5004517Y5160149D01*
X5018146Y5155272D01*
X5031231Y5149083D01*
X5043647Y5141642D01*
X5055273Y5133019D01*
X5065998Y5123298D01*
X5075719Y5112573D01*
X5084342Y5100947D01*
X5091783Y5088531D01*
X5097972Y5075446D01*
X5102849Y5061817D01*
X5106366Y5047776D01*
X5108490Y5033458D01*
X5109200Y5019000D01*
X5109200Y4674000D01*
X5108490Y4659542D01*
X5106366Y4645224D01*
X5102849Y4631183D01*
X5097972Y4617554D01*
X5091783Y4604469D01*
X5084342Y4592053D01*
X5075719Y4580427D01*
X5065998Y4569702D01*
X5055273Y4559981D01*
X5043647Y4551358D01*
X5031231Y4543917D01*
X5018146Y4537728D01*
X5004517Y4532851D01*
X4990476Y4529334D01*
X4976158Y4527210D01*
X4961700Y4526500D01*
X4666700Y4526500D01*
X4652242Y4527210D01*
X4637924Y4529334D01*
X4623883Y4532851D01*
X4610254Y4537728D01*
X4597169Y4543917D01*
X4584753Y4551358D01*
X4573127Y4559981D01*
X4562402Y4569702D01*
X4552681Y4580427D01*
X4544058Y4592053D01*
X4536617Y4604469D01*
X4530428Y4617554D01*
X4525551Y4631183D01*
X4522034Y4645224D01*
X4519910Y4659542D01*
X4519200Y4674000D01*
X4519200Y5019000D01*
X4519910Y5033458D01*
X4522034Y5047776D01*
X4525551Y5061817D01*
X4530428Y5075446D01*
X4536617Y5088531D01*
X4544058Y5100947D01*
X4552681Y5112573D01*
X4562402Y5123298D01*
X4573127Y5133019D01*
X4584753Y5141642D01*
X4597169Y5149083D01*
X4610254Y5155272D01*
X4623883Y5160149D01*
X4637924Y5163666D01*
X4652242Y5165790D01*
X4666700Y5166500D01*
X4961700Y5166500D01*
X4976158Y5165790D01*
X4976158Y5165790D01*
G37*
D21*
G04 #@! TD*
G04 #@! TO.P,C5,1*
G04 #@! TO.N,Net-(C5-Pad1)*
X4814200Y4846500D03*
D15*
G04 #@! TO.N,GND*
G04 #@! TO.C,C5*
G36*
X4006158Y5165790D02*
X4020476Y5163666D01*
X4034517Y5160149D01*
X4048146Y5155272D01*
X4061231Y5149083D01*
X4073647Y5141642D01*
X4085273Y5133019D01*
X4095998Y5123298D01*
X4105719Y5112573D01*
X4114342Y5100947D01*
X4121783Y5088531D01*
X4127972Y5075446D01*
X4132849Y5061817D01*
X4136366Y5047776D01*
X4138490Y5033458D01*
X4139200Y5019000D01*
X4139200Y4674000D01*
X4138490Y4659542D01*
X4136366Y4645224D01*
X4132849Y4631183D01*
X4127972Y4617554D01*
X4121783Y4604469D01*
X4114342Y4592053D01*
X4105719Y4580427D01*
X4095998Y4569702D01*
X4085273Y4559981D01*
X4073647Y4551358D01*
X4061231Y4543917D01*
X4048146Y4537728D01*
X4034517Y4532851D01*
X4020476Y4529334D01*
X4006158Y4527210D01*
X3991700Y4526500D01*
X3696700Y4526500D01*
X3682242Y4527210D01*
X3667924Y4529334D01*
X3653883Y4532851D01*
X3640254Y4537728D01*
X3627169Y4543917D01*
X3614753Y4551358D01*
X3603127Y4559981D01*
X3592402Y4569702D01*
X3582681Y4580427D01*
X3574058Y4592053D01*
X3566617Y4604469D01*
X3560428Y4617554D01*
X3555551Y4631183D01*
X3552034Y4645224D01*
X3549910Y4659542D01*
X3549200Y4674000D01*
X3549200Y5019000D01*
X3549910Y5033458D01*
X3552034Y5047776D01*
X3555551Y5061817D01*
X3560428Y5075446D01*
X3566617Y5088531D01*
X3574058Y5100947D01*
X3582681Y5112573D01*
X3592402Y5123298D01*
X3603127Y5133019D01*
X3614753Y5141642D01*
X3627169Y5149083D01*
X3640254Y5155272D01*
X3653883Y5160149D01*
X3667924Y5163666D01*
X3682242Y5165790D01*
X3696700Y5166500D01*
X3991700Y5166500D01*
X4006158Y5165790D01*
X4006158Y5165790D01*
G37*
D21*
G04 #@! TD*
G04 #@! TO.P,C5,2*
G04 #@! TO.N,GND*
X3844200Y4846500D03*
D15*
G04 #@! TO.N,+3V3*
G04 #@! TO.C,C6*
G36*
X4166158Y3155790D02*
X4180476Y3153666D01*
X4194517Y3150149D01*
X4208146Y3145272D01*
X4221231Y3139083D01*
X4233647Y3131642D01*
X4245273Y3123019D01*
X4255998Y3113298D01*
X4265719Y3102573D01*
X4274342Y3090947D01*
X4281783Y3078531D01*
X4287972Y3065446D01*
X4292849Y3051817D01*
X4296366Y3037776D01*
X4298490Y3023458D01*
X4299200Y3009000D01*
X4299200Y2714000D01*
X4298490Y2699542D01*
X4296366Y2685224D01*
X4292849Y2671183D01*
X4287972Y2657554D01*
X4281783Y2644469D01*
X4274342Y2632053D01*
X4265719Y2620427D01*
X4255998Y2609702D01*
X4245273Y2599981D01*
X4233647Y2591358D01*
X4221231Y2583917D01*
X4208146Y2577728D01*
X4194517Y2572851D01*
X4180476Y2569334D01*
X4166158Y2567210D01*
X4151700Y2566500D01*
X3806700Y2566500D01*
X3792242Y2567210D01*
X3777924Y2569334D01*
X3763883Y2572851D01*
X3750254Y2577728D01*
X3737169Y2583917D01*
X3724753Y2591358D01*
X3713127Y2599981D01*
X3702402Y2609702D01*
X3692681Y2620427D01*
X3684058Y2632053D01*
X3676617Y2644469D01*
X3670428Y2657554D01*
X3665551Y2671183D01*
X3662034Y2685224D01*
X3659910Y2699542D01*
X3659200Y2714000D01*
X3659200Y3009000D01*
X3659910Y3023458D01*
X3662034Y3037776D01*
X3665551Y3051817D01*
X3670428Y3065446D01*
X3676617Y3078531D01*
X3684058Y3090947D01*
X3692681Y3102573D01*
X3702402Y3113298D01*
X3713127Y3123019D01*
X3724753Y3131642D01*
X3737169Y3139083D01*
X3750254Y3145272D01*
X3763883Y3150149D01*
X3777924Y3153666D01*
X3792242Y3155790D01*
X3806700Y3156500D01*
X4151700Y3156500D01*
X4166158Y3155790D01*
X4166158Y3155790D01*
G37*
D21*
G04 #@! TD*
G04 #@! TO.P,C6,2*
G04 #@! TO.N,+3V3*
X3979200Y2861500D03*
D15*
G04 #@! TO.N,GND*
G04 #@! TO.C,C6*
G36*
X4166158Y4125790D02*
X4180476Y4123666D01*
X4194517Y4120149D01*
X4208146Y4115272D01*
X4221231Y4109083D01*
X4233647Y4101642D01*
X4245273Y4093019D01*
X4255998Y4083298D01*
X4265719Y4072573D01*
X4274342Y4060947D01*
X4281783Y4048531D01*
X4287972Y4035446D01*
X4292849Y4021817D01*
X4296366Y4007776D01*
X4298490Y3993458D01*
X4299200Y3979000D01*
X4299200Y3684000D01*
X4298490Y3669542D01*
X4296366Y3655224D01*
X4292849Y3641183D01*
X4287972Y3627554D01*
X4281783Y3614469D01*
X4274342Y3602053D01*
X4265719Y3590427D01*
X4255998Y3579702D01*
X4245273Y3569981D01*
X4233647Y3561358D01*
X4221231Y3553917D01*
X4208146Y3547728D01*
X4194517Y3542851D01*
X4180476Y3539334D01*
X4166158Y3537210D01*
X4151700Y3536500D01*
X3806700Y3536500D01*
X3792242Y3537210D01*
X3777924Y3539334D01*
X3763883Y3542851D01*
X3750254Y3547728D01*
X3737169Y3553917D01*
X3724753Y3561358D01*
X3713127Y3569981D01*
X3702402Y3579702D01*
X3692681Y3590427D01*
X3684058Y3602053D01*
X3676617Y3614469D01*
X3670428Y3627554D01*
X3665551Y3641183D01*
X3662034Y3655224D01*
X3659910Y3669542D01*
X3659200Y3684000D01*
X3659200Y3979000D01*
X3659910Y3993458D01*
X3662034Y4007776D01*
X3665551Y4021817D01*
X3670428Y4035446D01*
X3676617Y4048531D01*
X3684058Y4060947D01*
X3692681Y4072573D01*
X3702402Y4083298D01*
X3713127Y4093019D01*
X3724753Y4101642D01*
X3737169Y4109083D01*
X3750254Y4115272D01*
X3763883Y4120149D01*
X3777924Y4123666D01*
X3792242Y4125790D01*
X3806700Y4126500D01*
X4151700Y4126500D01*
X4166158Y4125790D01*
X4166158Y4125790D01*
G37*
D21*
G04 #@! TD*
G04 #@! TO.P,C6,1*
G04 #@! TO.N,GND*
X3979200Y3831500D03*
D15*
G04 #@! TO.N,GND*
G04 #@! TO.C,C7*
G36*
X5316158Y4125790D02*
X5330476Y4123666D01*
X5344517Y4120149D01*
X5358146Y4115272D01*
X5371231Y4109083D01*
X5383647Y4101642D01*
X5395273Y4093019D01*
X5405998Y4083298D01*
X5415719Y4072573D01*
X5424342Y4060947D01*
X5431783Y4048531D01*
X5437972Y4035446D01*
X5442849Y4021817D01*
X5446366Y4007776D01*
X5448490Y3993458D01*
X5449200Y3979000D01*
X5449200Y3684000D01*
X5448490Y3669542D01*
X5446366Y3655224D01*
X5442849Y3641183D01*
X5437972Y3627554D01*
X5431783Y3614469D01*
X5424342Y3602053D01*
X5415719Y3590427D01*
X5405998Y3579702D01*
X5395273Y3569981D01*
X5383647Y3561358D01*
X5371231Y3553917D01*
X5358146Y3547728D01*
X5344517Y3542851D01*
X5330476Y3539334D01*
X5316158Y3537210D01*
X5301700Y3536500D01*
X4956700Y3536500D01*
X4942242Y3537210D01*
X4927924Y3539334D01*
X4913883Y3542851D01*
X4900254Y3547728D01*
X4887169Y3553917D01*
X4874753Y3561358D01*
X4863127Y3569981D01*
X4852402Y3579702D01*
X4842681Y3590427D01*
X4834058Y3602053D01*
X4826617Y3614469D01*
X4820428Y3627554D01*
X4815551Y3641183D01*
X4812034Y3655224D01*
X4809910Y3669542D01*
X4809200Y3684000D01*
X4809200Y3979000D01*
X4809910Y3993458D01*
X4812034Y4007776D01*
X4815551Y4021817D01*
X4820428Y4035446D01*
X4826617Y4048531D01*
X4834058Y4060947D01*
X4842681Y4072573D01*
X4852402Y4083298D01*
X4863127Y4093019D01*
X4874753Y4101642D01*
X4887169Y4109083D01*
X4900254Y4115272D01*
X4913883Y4120149D01*
X4927924Y4123666D01*
X4942242Y4125790D01*
X4956700Y4126500D01*
X5301700Y4126500D01*
X5316158Y4125790D01*
X5316158Y4125790D01*
G37*
D21*
G04 #@! TD*
G04 #@! TO.P,C7,1*
G04 #@! TO.N,GND*
X5129200Y3831500D03*
D15*
G04 #@! TO.N,+3V3*
G04 #@! TO.C,C7*
G36*
X5316158Y3155790D02*
X5330476Y3153666D01*
X5344517Y3150149D01*
X5358146Y3145272D01*
X5371231Y3139083D01*
X5383647Y3131642D01*
X5395273Y3123019D01*
X5405998Y3113298D01*
X5415719Y3102573D01*
X5424342Y3090947D01*
X5431783Y3078531D01*
X5437972Y3065446D01*
X5442849Y3051817D01*
X5446366Y3037776D01*
X5448490Y3023458D01*
X5449200Y3009000D01*
X5449200Y2714000D01*
X5448490Y2699542D01*
X5446366Y2685224D01*
X5442849Y2671183D01*
X5437972Y2657554D01*
X5431783Y2644469D01*
X5424342Y2632053D01*
X5415719Y2620427D01*
X5405998Y2609702D01*
X5395273Y2599981D01*
X5383647Y2591358D01*
X5371231Y2583917D01*
X5358146Y2577728D01*
X5344517Y2572851D01*
X5330476Y2569334D01*
X5316158Y2567210D01*
X5301700Y2566500D01*
X4956700Y2566500D01*
X4942242Y2567210D01*
X4927924Y2569334D01*
X4913883Y2572851D01*
X4900254Y2577728D01*
X4887169Y2583917D01*
X4874753Y2591358D01*
X4863127Y2599981D01*
X4852402Y2609702D01*
X4842681Y2620427D01*
X4834058Y2632053D01*
X4826617Y2644469D01*
X4820428Y2657554D01*
X4815551Y2671183D01*
X4812034Y2685224D01*
X4809910Y2699542D01*
X4809200Y2714000D01*
X4809200Y3009000D01*
X4809910Y3023458D01*
X4812034Y3037776D01*
X4815551Y3051817D01*
X4820428Y3065446D01*
X4826617Y3078531D01*
X4834058Y3090947D01*
X4842681Y3102573D01*
X4852402Y3113298D01*
X4863127Y3123019D01*
X4874753Y3131642D01*
X4887169Y3139083D01*
X4900254Y3145272D01*
X4913883Y3150149D01*
X4927924Y3153666D01*
X4942242Y3155790D01*
X4956700Y3156500D01*
X5301700Y3156500D01*
X5316158Y3155790D01*
X5316158Y3155790D01*
G37*
D21*
G04 #@! TD*
G04 #@! TO.P,C7,2*
G04 #@! TO.N,+3V3*
X5129200Y2861500D03*
D15*
G04 #@! TO.N,Net-(R1-Pad2)*
G04 #@! TO.C,R1*
G36*
X-1283842Y-4694210D02*
X-1269524Y-4696334D01*
X-1255483Y-4699851D01*
X-1241854Y-4704728D01*
X-1228769Y-4710917D01*
X-1216353Y-4718358D01*
X-1204727Y-4726981D01*
X-1194002Y-4736702D01*
X-1184281Y-4747427D01*
X-1175658Y-4759053D01*
X-1168217Y-4771469D01*
X-1162028Y-4784554D01*
X-1157151Y-4798183D01*
X-1153634Y-4812224D01*
X-1151510Y-4826542D01*
X-1150800Y-4841000D01*
X-1150800Y-5136000D01*
X-1151510Y-5150458D01*
X-1153634Y-5164776D01*
X-1157151Y-5178817D01*
X-1162028Y-5192446D01*
X-1168217Y-5205531D01*
X-1175658Y-5217947D01*
X-1184281Y-5229573D01*
X-1194002Y-5240298D01*
X-1204727Y-5250019D01*
X-1216353Y-5258642D01*
X-1228769Y-5266083D01*
X-1241854Y-5272272D01*
X-1255483Y-5277149D01*
X-1269524Y-5280666D01*
X-1283842Y-5282790D01*
X-1298300Y-5283500D01*
X-1643300Y-5283500D01*
X-1657758Y-5282790D01*
X-1672076Y-5280666D01*
X-1686117Y-5277149D01*
X-1699746Y-5272272D01*
X-1712831Y-5266083D01*
X-1725247Y-5258642D01*
X-1736873Y-5250019D01*
X-1747598Y-5240298D01*
X-1757319Y-5229573D01*
X-1765942Y-5217947D01*
X-1773383Y-5205531D01*
X-1779572Y-5192446D01*
X-1784449Y-5178817D01*
X-1787966Y-5164776D01*
X-1790090Y-5150458D01*
X-1790800Y-5136000D01*
X-1790800Y-4841000D01*
X-1790090Y-4826542D01*
X-1787966Y-4812224D01*
X-1784449Y-4798183D01*
X-1779572Y-4784554D01*
X-1773383Y-4771469D01*
X-1765942Y-4759053D01*
X-1757319Y-4747427D01*
X-1747598Y-4736702D01*
X-1736873Y-4726981D01*
X-1725247Y-4718358D01*
X-1712831Y-4710917D01*
X-1699746Y-4704728D01*
X-1686117Y-4699851D01*
X-1672076Y-4696334D01*
X-1657758Y-4694210D01*
X-1643300Y-4693500D01*
X-1298300Y-4693500D01*
X-1283842Y-4694210D01*
X-1283842Y-4694210D01*
G37*
D21*
G04 #@! TD*
G04 #@! TO.P,R1,2*
G04 #@! TO.N,Net-(R1-Pad2)*
X-1470800Y-4988500D03*
D15*
G04 #@! TO.N,Net-(P1-Pad1)*
G04 #@! TO.C,R1*
G36*
X-1283842Y-3724210D02*
X-1269524Y-3726334D01*
X-1255483Y-3729851D01*
X-1241854Y-3734728D01*
X-1228769Y-3740917D01*
X-1216353Y-3748358D01*
X-1204727Y-3756981D01*
X-1194002Y-3766702D01*
X-1184281Y-3777427D01*
X-1175658Y-3789053D01*
X-1168217Y-3801469D01*
X-1162028Y-3814554D01*
X-1157151Y-3828183D01*
X-1153634Y-3842224D01*
X-1151510Y-3856542D01*
X-1150800Y-3871000D01*
X-1150800Y-4166000D01*
X-1151510Y-4180458D01*
X-1153634Y-4194776D01*
X-1157151Y-4208817D01*
X-1162028Y-4222446D01*
X-1168217Y-4235531D01*
X-1175658Y-4247947D01*
X-1184281Y-4259573D01*
X-1194002Y-4270298D01*
X-1204727Y-4280019D01*
X-1216353Y-4288642D01*
X-1228769Y-4296083D01*
X-1241854Y-4302272D01*
X-1255483Y-4307149D01*
X-1269524Y-4310666D01*
X-1283842Y-4312790D01*
X-1298300Y-4313500D01*
X-1643300Y-4313500D01*
X-1657758Y-4312790D01*
X-1672076Y-4310666D01*
X-1686117Y-4307149D01*
X-1699746Y-4302272D01*
X-1712831Y-4296083D01*
X-1725247Y-4288642D01*
X-1736873Y-4280019D01*
X-1747598Y-4270298D01*
X-1757319Y-4259573D01*
X-1765942Y-4247947D01*
X-1773383Y-4235531D01*
X-1779572Y-4222446D01*
X-1784449Y-4208817D01*
X-1787966Y-4194776D01*
X-1790090Y-4180458D01*
X-1790800Y-4166000D01*
X-1790800Y-3871000D01*
X-1790090Y-3856542D01*
X-1787966Y-3842224D01*
X-1784449Y-3828183D01*
X-1779572Y-3814554D01*
X-1773383Y-3801469D01*
X-1765942Y-3789053D01*
X-1757319Y-3777427D01*
X-1747598Y-3766702D01*
X-1736873Y-3756981D01*
X-1725247Y-3748358D01*
X-1712831Y-3740917D01*
X-1699746Y-3734728D01*
X-1686117Y-3729851D01*
X-1672076Y-3726334D01*
X-1657758Y-3724210D01*
X-1643300Y-3723500D01*
X-1298300Y-3723500D01*
X-1283842Y-3724210D01*
X-1283842Y-3724210D01*
G37*
D21*
G04 #@! TD*
G04 #@! TO.P,R1,1*
G04 #@! TO.N,Net-(P1-Pad1)*
X-1470800Y-4018500D03*
D15*
G04 #@! TO.N,GND*
G04 #@! TO.C,R2*
G36*
X-1283842Y-5674210D02*
X-1269524Y-5676334D01*
X-1255483Y-5679851D01*
X-1241854Y-5684728D01*
X-1228769Y-5690917D01*
X-1216353Y-5698358D01*
X-1204727Y-5706981D01*
X-1194002Y-5716702D01*
X-1184281Y-5727427D01*
X-1175658Y-5739053D01*
X-1168217Y-5751469D01*
X-1162028Y-5764554D01*
X-1157151Y-5778183D01*
X-1153634Y-5792224D01*
X-1151510Y-5806542D01*
X-1150800Y-5821000D01*
X-1150800Y-6116000D01*
X-1151510Y-6130458D01*
X-1153634Y-6144776D01*
X-1157151Y-6158817D01*
X-1162028Y-6172446D01*
X-1168217Y-6185531D01*
X-1175658Y-6197947D01*
X-1184281Y-6209573D01*
X-1194002Y-6220298D01*
X-1204727Y-6230019D01*
X-1216353Y-6238642D01*
X-1228769Y-6246083D01*
X-1241854Y-6252272D01*
X-1255483Y-6257149D01*
X-1269524Y-6260666D01*
X-1283842Y-6262790D01*
X-1298300Y-6263500D01*
X-1643300Y-6263500D01*
X-1657758Y-6262790D01*
X-1672076Y-6260666D01*
X-1686117Y-6257149D01*
X-1699746Y-6252272D01*
X-1712831Y-6246083D01*
X-1725247Y-6238642D01*
X-1736873Y-6230019D01*
X-1747598Y-6220298D01*
X-1757319Y-6209573D01*
X-1765942Y-6197947D01*
X-1773383Y-6185531D01*
X-1779572Y-6172446D01*
X-1784449Y-6158817D01*
X-1787966Y-6144776D01*
X-1790090Y-6130458D01*
X-1790800Y-6116000D01*
X-1790800Y-5821000D01*
X-1790090Y-5806542D01*
X-1787966Y-5792224D01*
X-1784449Y-5778183D01*
X-1779572Y-5764554D01*
X-1773383Y-5751469D01*
X-1765942Y-5739053D01*
X-1757319Y-5727427D01*
X-1747598Y-5716702D01*
X-1736873Y-5706981D01*
X-1725247Y-5698358D01*
X-1712831Y-5690917D01*
X-1699746Y-5684728D01*
X-1686117Y-5679851D01*
X-1672076Y-5676334D01*
X-1657758Y-5674210D01*
X-1643300Y-5673500D01*
X-1298300Y-5673500D01*
X-1283842Y-5674210D01*
X-1283842Y-5674210D01*
G37*
D21*
G04 #@! TD*
G04 #@! TO.P,R2,1*
G04 #@! TO.N,GND*
X-1470800Y-5968500D03*
D15*
G04 #@! TO.N,Net-(R2-Pad2)*
G04 #@! TO.C,R2*
G36*
X-1283842Y-6644210D02*
X-1269524Y-6646334D01*
X-1255483Y-6649851D01*
X-1241854Y-6654728D01*
X-1228769Y-6660917D01*
X-1216353Y-6668358D01*
X-1204727Y-6676981D01*
X-1194002Y-6686702D01*
X-1184281Y-6697427D01*
X-1175658Y-6709053D01*
X-1168217Y-6721469D01*
X-1162028Y-6734554D01*
X-1157151Y-6748183D01*
X-1153634Y-6762224D01*
X-1151510Y-6776542D01*
X-1150800Y-6791000D01*
X-1150800Y-7086000D01*
X-1151510Y-7100458D01*
X-1153634Y-7114776D01*
X-1157151Y-7128817D01*
X-1162028Y-7142446D01*
X-1168217Y-7155531D01*
X-1175658Y-7167947D01*
X-1184281Y-7179573D01*
X-1194002Y-7190298D01*
X-1204727Y-7200019D01*
X-1216353Y-7208642D01*
X-1228769Y-7216083D01*
X-1241854Y-7222272D01*
X-1255483Y-7227149D01*
X-1269524Y-7230666D01*
X-1283842Y-7232790D01*
X-1298300Y-7233500D01*
X-1643300Y-7233500D01*
X-1657758Y-7232790D01*
X-1672076Y-7230666D01*
X-1686117Y-7227149D01*
X-1699746Y-7222272D01*
X-1712831Y-7216083D01*
X-1725247Y-7208642D01*
X-1736873Y-7200019D01*
X-1747598Y-7190298D01*
X-1757319Y-7179573D01*
X-1765942Y-7167947D01*
X-1773383Y-7155531D01*
X-1779572Y-7142446D01*
X-1784449Y-7128817D01*
X-1787966Y-7114776D01*
X-1790090Y-7100458D01*
X-1790800Y-7086000D01*
X-1790800Y-6791000D01*
X-1790090Y-6776542D01*
X-1787966Y-6762224D01*
X-1784449Y-6748183D01*
X-1779572Y-6734554D01*
X-1773383Y-6721469D01*
X-1765942Y-6709053D01*
X-1757319Y-6697427D01*
X-1747598Y-6686702D01*
X-1736873Y-6676981D01*
X-1725247Y-6668358D01*
X-1712831Y-6660917D01*
X-1699746Y-6654728D01*
X-1686117Y-6649851D01*
X-1672076Y-6646334D01*
X-1657758Y-6644210D01*
X-1643300Y-6643500D01*
X-1298300Y-6643500D01*
X-1283842Y-6644210D01*
X-1283842Y-6644210D01*
G37*
D21*
G04 #@! TD*
G04 #@! TO.P,R2,2*
G04 #@! TO.N,Net-(R2-Pad2)*
X-1470800Y-6938500D03*
D15*
G04 #@! TO.N,Net-(D2-PadA)*
G04 #@! TO.C,R4*
G36*
X-5583842Y-7094210D02*
X-5569524Y-7096334D01*
X-5555483Y-7099851D01*
X-5541854Y-7104728D01*
X-5528769Y-7110917D01*
X-5516353Y-7118358D01*
X-5504727Y-7126981D01*
X-5494002Y-7136702D01*
X-5484281Y-7147427D01*
X-5475658Y-7159053D01*
X-5468217Y-7171469D01*
X-5462028Y-7184554D01*
X-5457151Y-7198183D01*
X-5453634Y-7212224D01*
X-5451510Y-7226542D01*
X-5450800Y-7241000D01*
X-5450800Y-7536000D01*
X-5451510Y-7550458D01*
X-5453634Y-7564776D01*
X-5457151Y-7578817D01*
X-5462028Y-7592446D01*
X-5468217Y-7605531D01*
X-5475658Y-7617947D01*
X-5484281Y-7629573D01*
X-5494002Y-7640298D01*
X-5504727Y-7650019D01*
X-5516353Y-7658642D01*
X-5528769Y-7666083D01*
X-5541854Y-7672272D01*
X-5555483Y-7677149D01*
X-5569524Y-7680666D01*
X-5583842Y-7682790D01*
X-5598300Y-7683500D01*
X-5943300Y-7683500D01*
X-5957758Y-7682790D01*
X-5972076Y-7680666D01*
X-5986117Y-7677149D01*
X-5999746Y-7672272D01*
X-6012831Y-7666083D01*
X-6025247Y-7658642D01*
X-6036873Y-7650019D01*
X-6047598Y-7640298D01*
X-6057319Y-7629573D01*
X-6065942Y-7617947D01*
X-6073383Y-7605531D01*
X-6079572Y-7592446D01*
X-6084449Y-7578817D01*
X-6087966Y-7564776D01*
X-6090090Y-7550458D01*
X-6090800Y-7536000D01*
X-6090800Y-7241000D01*
X-6090090Y-7226542D01*
X-6087966Y-7212224D01*
X-6084449Y-7198183D01*
X-6079572Y-7184554D01*
X-6073383Y-7171469D01*
X-6065942Y-7159053D01*
X-6057319Y-7147427D01*
X-6047598Y-7136702D01*
X-6036873Y-7126981D01*
X-6025247Y-7118358D01*
X-6012831Y-7110917D01*
X-5999746Y-7104728D01*
X-5986117Y-7099851D01*
X-5972076Y-7096334D01*
X-5957758Y-7094210D01*
X-5943300Y-7093500D01*
X-5598300Y-7093500D01*
X-5583842Y-7094210D01*
X-5583842Y-7094210D01*
G37*
D21*
G04 #@! TD*
G04 #@! TO.P,R4,2*
G04 #@! TO.N,Net-(D2-PadA)*
X-5770800Y-7388500D03*
D15*
G04 #@! TO.N,+3V3*
G04 #@! TO.C,R4*
G36*
X-5583842Y-6124210D02*
X-5569524Y-6126334D01*
X-5555483Y-6129851D01*
X-5541854Y-6134728D01*
X-5528769Y-6140917D01*
X-5516353Y-6148358D01*
X-5504727Y-6156981D01*
X-5494002Y-6166702D01*
X-5484281Y-6177427D01*
X-5475658Y-6189053D01*
X-5468217Y-6201469D01*
X-5462028Y-6214554D01*
X-5457151Y-6228183D01*
X-5453634Y-6242224D01*
X-5451510Y-6256542D01*
X-5450800Y-6271000D01*
X-5450800Y-6566000D01*
X-5451510Y-6580458D01*
X-5453634Y-6594776D01*
X-5457151Y-6608817D01*
X-5462028Y-6622446D01*
X-5468217Y-6635531D01*
X-5475658Y-6647947D01*
X-5484281Y-6659573D01*
X-5494002Y-6670298D01*
X-5504727Y-6680019D01*
X-5516353Y-6688642D01*
X-5528769Y-6696083D01*
X-5541854Y-6702272D01*
X-5555483Y-6707149D01*
X-5569524Y-6710666D01*
X-5583842Y-6712790D01*
X-5598300Y-6713500D01*
X-5943300Y-6713500D01*
X-5957758Y-6712790D01*
X-5972076Y-6710666D01*
X-5986117Y-6707149D01*
X-5999746Y-6702272D01*
X-6012831Y-6696083D01*
X-6025247Y-6688642D01*
X-6036873Y-6680019D01*
X-6047598Y-6670298D01*
X-6057319Y-6659573D01*
X-6065942Y-6647947D01*
X-6073383Y-6635531D01*
X-6079572Y-6622446D01*
X-6084449Y-6608817D01*
X-6087966Y-6594776D01*
X-6090090Y-6580458D01*
X-6090800Y-6566000D01*
X-6090800Y-6271000D01*
X-6090090Y-6256542D01*
X-6087966Y-6242224D01*
X-6084449Y-6228183D01*
X-6079572Y-6214554D01*
X-6073383Y-6201469D01*
X-6065942Y-6189053D01*
X-6057319Y-6177427D01*
X-6047598Y-6166702D01*
X-6036873Y-6156981D01*
X-6025247Y-6148358D01*
X-6012831Y-6140917D01*
X-5999746Y-6134728D01*
X-5986117Y-6129851D01*
X-5972076Y-6126334D01*
X-5957758Y-6124210D01*
X-5943300Y-6123500D01*
X-5598300Y-6123500D01*
X-5583842Y-6124210D01*
X-5583842Y-6124210D01*
G37*
D21*
G04 #@! TD*
G04 #@! TO.P,R4,1*
G04 #@! TO.N,+3V3*
X-5770800Y-6418500D03*
D15*
G04 #@! TO.N,Net-(C5-Pad1)*
G04 #@! TO.C,R6*
G36*
X4976158Y6815790D02*
X4990476Y6813666D01*
X5004517Y6810149D01*
X5018146Y6805272D01*
X5031231Y6799083D01*
X5043647Y6791642D01*
X5055273Y6783019D01*
X5065998Y6773298D01*
X5075719Y6762573D01*
X5084342Y6750947D01*
X5091783Y6738531D01*
X5097972Y6725446D01*
X5102849Y6711817D01*
X5106366Y6697776D01*
X5108490Y6683458D01*
X5109200Y6669000D01*
X5109200Y6324000D01*
X5108490Y6309542D01*
X5106366Y6295224D01*
X5102849Y6281183D01*
X5097972Y6267554D01*
X5091783Y6254469D01*
X5084342Y6242053D01*
X5075719Y6230427D01*
X5065998Y6219702D01*
X5055273Y6209981D01*
X5043647Y6201358D01*
X5031231Y6193917D01*
X5018146Y6187728D01*
X5004517Y6182851D01*
X4990476Y6179334D01*
X4976158Y6177210D01*
X4961700Y6176500D01*
X4666700Y6176500D01*
X4652242Y6177210D01*
X4637924Y6179334D01*
X4623883Y6182851D01*
X4610254Y6187728D01*
X4597169Y6193917D01*
X4584753Y6201358D01*
X4573127Y6209981D01*
X4562402Y6219702D01*
X4552681Y6230427D01*
X4544058Y6242053D01*
X4536617Y6254469D01*
X4530428Y6267554D01*
X4525551Y6281183D01*
X4522034Y6295224D01*
X4519910Y6309542D01*
X4519200Y6324000D01*
X4519200Y6669000D01*
X4519910Y6683458D01*
X4522034Y6697776D01*
X4525551Y6711817D01*
X4530428Y6725446D01*
X4536617Y6738531D01*
X4544058Y6750947D01*
X4552681Y6762573D01*
X4562402Y6773298D01*
X4573127Y6783019D01*
X4584753Y6791642D01*
X4597169Y6799083D01*
X4610254Y6805272D01*
X4623883Y6810149D01*
X4637924Y6813666D01*
X4652242Y6815790D01*
X4666700Y6816500D01*
X4961700Y6816500D01*
X4976158Y6815790D01*
X4976158Y6815790D01*
G37*
D21*
G04 #@! TD*
G04 #@! TO.P,R6,1*
G04 #@! TO.N,Net-(C5-Pad1)*
X4814200Y6496500D03*
D15*
G04 #@! TO.N,GND*
G04 #@! TO.C,R6*
G36*
X4006158Y6815790D02*
X4020476Y6813666D01*
X4034517Y6810149D01*
X4048146Y6805272D01*
X4061231Y6799083D01*
X4073647Y6791642D01*
X4085273Y6783019D01*
X4095998Y6773298D01*
X4105719Y6762573D01*
X4114342Y6750947D01*
X4121783Y6738531D01*
X4127972Y6725446D01*
X4132849Y6711817D01*
X4136366Y6697776D01*
X4138490Y6683458D01*
X4139200Y6669000D01*
X4139200Y6324000D01*
X4138490Y6309542D01*
X4136366Y6295224D01*
X4132849Y6281183D01*
X4127972Y6267554D01*
X4121783Y6254469D01*
X4114342Y6242053D01*
X4105719Y6230427D01*
X4095998Y6219702D01*
X4085273Y6209981D01*
X4073647Y6201358D01*
X4061231Y6193917D01*
X4048146Y6187728D01*
X4034517Y6182851D01*
X4020476Y6179334D01*
X4006158Y6177210D01*
X3991700Y6176500D01*
X3696700Y6176500D01*
X3682242Y6177210D01*
X3667924Y6179334D01*
X3653883Y6182851D01*
X3640254Y6187728D01*
X3627169Y6193917D01*
X3614753Y6201358D01*
X3603127Y6209981D01*
X3592402Y6219702D01*
X3582681Y6230427D01*
X3574058Y6242053D01*
X3566617Y6254469D01*
X3560428Y6267554D01*
X3555551Y6281183D01*
X3552034Y6295224D01*
X3549910Y6309542D01*
X3549200Y6324000D01*
X3549200Y6669000D01*
X3549910Y6683458D01*
X3552034Y6697776D01*
X3555551Y6711817D01*
X3560428Y6725446D01*
X3566617Y6738531D01*
X3574058Y6750947D01*
X3582681Y6762573D01*
X3592402Y6773298D01*
X3603127Y6783019D01*
X3614753Y6791642D01*
X3627169Y6799083D01*
X3640254Y6805272D01*
X3653883Y6810149D01*
X3667924Y6813666D01*
X3682242Y6815790D01*
X3696700Y6816500D01*
X3991700Y6816500D01*
X4006158Y6815790D01*
X4006158Y6815790D01*
G37*
D21*
G04 #@! TD*
G04 #@! TO.P,R6,2*
G04 #@! TO.N,GND*
X3844200Y6496500D03*
D28*
G04 #@! TO.P,U3,1*
G04 #@! TO.N,Net-(U3-Pad1)*
X1079200Y-1788500D03*
G04 #@! TO.P,U3,3*
G04 #@! TO.N,+5V*
X2079200Y-1788500D03*
G04 #@! TO.P,U3,5*
G04 #@! TO.N,/HD-*
X1079200Y-388500D03*
G04 #@! TO.P,U3,2*
G04 #@! TO.N,GND*
X1579200Y-1788500D03*
G04 #@! TO.P,U3,4*
G04 #@! TO.N,/HD+*
X2079200Y-388500D03*
G04 #@! TD*
D29*
G04 #@! TO.P,TP1,1*
G04 #@! TO.N,GND*
X6970000Y3866500D03*
G04 #@! TD*
G04 #@! TO.P,TP3,1*
G04 #@! TO.N,/HD-*
X5700000Y-1213500D03*
G04 #@! TD*
G04 #@! TO.P,TP4,1*
G04 #@! TO.N,+5V*
X6970000Y-3803500D03*
G04 #@! TD*
G04 #@! TO.P,TP5,1*
G04 #@! TO.N,/SWCLK*
X8240000Y1326500D03*
G04 #@! TD*
G04 #@! TO.P,TP6,1*
G04 #@! TO.N,/SWDIO*
X8240000Y-1213500D03*
G04 #@! TD*
D15*
G04 #@! TO.N,/I2C_SDA*
G04 #@! TO.C,R3*
G36*
X16158Y-1309210D02*
X30476Y-1311334D01*
X44517Y-1314851D01*
X58146Y-1319728D01*
X71231Y-1325917D01*
X83647Y-1333358D01*
X95273Y-1341981D01*
X105998Y-1351702D01*
X115719Y-1362427D01*
X124342Y-1374053D01*
X131783Y-1386469D01*
X137972Y-1399554D01*
X142849Y-1413183D01*
X146366Y-1427224D01*
X148490Y-1441542D01*
X149200Y-1456000D01*
X149200Y-1751000D01*
X148490Y-1765458D01*
X146366Y-1779776D01*
X142849Y-1793817D01*
X137972Y-1807446D01*
X131783Y-1820531D01*
X124342Y-1832947D01*
X115719Y-1844573D01*
X105998Y-1855298D01*
X95273Y-1865019D01*
X83647Y-1873642D01*
X71231Y-1881083D01*
X58146Y-1887272D01*
X44517Y-1892149D01*
X30476Y-1895666D01*
X16158Y-1897790D01*
X1700Y-1898500D01*
X-343300Y-1898500D01*
X-357758Y-1897790D01*
X-372076Y-1895666D01*
X-386117Y-1892149D01*
X-399746Y-1887272D01*
X-412831Y-1881083D01*
X-425247Y-1873642D01*
X-436873Y-1865019D01*
X-447598Y-1855298D01*
X-457319Y-1844573D01*
X-465942Y-1832947D01*
X-473383Y-1820531D01*
X-479572Y-1807446D01*
X-484449Y-1793817D01*
X-487966Y-1779776D01*
X-490090Y-1765458D01*
X-490800Y-1751000D01*
X-490800Y-1456000D01*
X-490090Y-1441542D01*
X-487966Y-1427224D01*
X-484449Y-1413183D01*
X-479572Y-1399554D01*
X-473383Y-1386469D01*
X-465942Y-1374053D01*
X-457319Y-1362427D01*
X-447598Y-1351702D01*
X-436873Y-1341981D01*
X-425247Y-1333358D01*
X-412831Y-1325917D01*
X-399746Y-1319728D01*
X-386117Y-1314851D01*
X-372076Y-1311334D01*
X-357758Y-1309210D01*
X-343300Y-1308500D01*
X1700Y-1308500D01*
X16158Y-1309210D01*
X16158Y-1309210D01*
G37*
D21*
G04 #@! TD*
G04 #@! TO.P,R3,1*
G04 #@! TO.N,/I2C_SDA*
X-170800Y-1603500D03*
D15*
G04 #@! TO.N,+3V3*
G04 #@! TO.C,R3*
G36*
X16158Y-2279210D02*
X30476Y-2281334D01*
X44517Y-2284851D01*
X58146Y-2289728D01*
X71231Y-2295917D01*
X83647Y-2303358D01*
X95273Y-2311981D01*
X105998Y-2321702D01*
X115719Y-2332427D01*
X124342Y-2344053D01*
X131783Y-2356469D01*
X137972Y-2369554D01*
X142849Y-2383183D01*
X146366Y-2397224D01*
X148490Y-2411542D01*
X149200Y-2426000D01*
X149200Y-2721000D01*
X148490Y-2735458D01*
X146366Y-2749776D01*
X142849Y-2763817D01*
X137972Y-2777446D01*
X131783Y-2790531D01*
X124342Y-2802947D01*
X115719Y-2814573D01*
X105998Y-2825298D01*
X95273Y-2835019D01*
X83647Y-2843642D01*
X71231Y-2851083D01*
X58146Y-2857272D01*
X44517Y-2862149D01*
X30476Y-2865666D01*
X16158Y-2867790D01*
X1700Y-2868500D01*
X-343300Y-2868500D01*
X-357758Y-2867790D01*
X-372076Y-2865666D01*
X-386117Y-2862149D01*
X-399746Y-2857272D01*
X-412831Y-2851083D01*
X-425247Y-2843642D01*
X-436873Y-2835019D01*
X-447598Y-2825298D01*
X-457319Y-2814573D01*
X-465942Y-2802947D01*
X-473383Y-2790531D01*
X-479572Y-2777446D01*
X-484449Y-2763817D01*
X-487966Y-2749776D01*
X-490090Y-2735458D01*
X-490800Y-2721000D01*
X-490800Y-2426000D01*
X-490090Y-2411542D01*
X-487966Y-2397224D01*
X-484449Y-2383183D01*
X-479572Y-2369554D01*
X-473383Y-2356469D01*
X-465942Y-2344053D01*
X-457319Y-2332427D01*
X-447598Y-2321702D01*
X-436873Y-2311981D01*
X-425247Y-2303358D01*
X-412831Y-2295917D01*
X-399746Y-2289728D01*
X-386117Y-2284851D01*
X-372076Y-2281334D01*
X-357758Y-2279210D01*
X-343300Y-2278500D01*
X1700Y-2278500D01*
X16158Y-2279210D01*
X16158Y-2279210D01*
G37*
D21*
G04 #@! TD*
G04 #@! TO.P,R3,2*
G04 #@! TO.N,+3V3*
X-170800Y-2573500D03*
D15*
G04 #@! TO.N,/I2C_SCL*
G04 #@! TO.C,R7*
G36*
X-2773842Y-3069210D02*
X-2759524Y-3071334D01*
X-2745483Y-3074851D01*
X-2731854Y-3079728D01*
X-2718769Y-3085917D01*
X-2706353Y-3093358D01*
X-2694727Y-3101981D01*
X-2684002Y-3111702D01*
X-2674281Y-3122427D01*
X-2665658Y-3134053D01*
X-2658217Y-3146469D01*
X-2652028Y-3159554D01*
X-2647151Y-3173183D01*
X-2643634Y-3187224D01*
X-2641510Y-3201542D01*
X-2640800Y-3216000D01*
X-2640800Y-3561000D01*
X-2641510Y-3575458D01*
X-2643634Y-3589776D01*
X-2647151Y-3603817D01*
X-2652028Y-3617446D01*
X-2658217Y-3630531D01*
X-2665658Y-3642947D01*
X-2674281Y-3654573D01*
X-2684002Y-3665298D01*
X-2694727Y-3675019D01*
X-2706353Y-3683642D01*
X-2718769Y-3691083D01*
X-2731854Y-3697272D01*
X-2745483Y-3702149D01*
X-2759524Y-3705666D01*
X-2773842Y-3707790D01*
X-2788300Y-3708500D01*
X-3083300Y-3708500D01*
X-3097758Y-3707790D01*
X-3112076Y-3705666D01*
X-3126117Y-3702149D01*
X-3139746Y-3697272D01*
X-3152831Y-3691083D01*
X-3165247Y-3683642D01*
X-3176873Y-3675019D01*
X-3187598Y-3665298D01*
X-3197319Y-3654573D01*
X-3205942Y-3642947D01*
X-3213383Y-3630531D01*
X-3219572Y-3617446D01*
X-3224449Y-3603817D01*
X-3227966Y-3589776D01*
X-3230090Y-3575458D01*
X-3230800Y-3561000D01*
X-3230800Y-3216000D01*
X-3230090Y-3201542D01*
X-3227966Y-3187224D01*
X-3224449Y-3173183D01*
X-3219572Y-3159554D01*
X-3213383Y-3146469D01*
X-3205942Y-3134053D01*
X-3197319Y-3122427D01*
X-3187598Y-3111702D01*
X-3176873Y-3101981D01*
X-3165247Y-3093358D01*
X-3152831Y-3085917D01*
X-3139746Y-3079728D01*
X-3126117Y-3074851D01*
X-3112076Y-3071334D01*
X-3097758Y-3069210D01*
X-3083300Y-3068500D01*
X-2788300Y-3068500D01*
X-2773842Y-3069210D01*
X-2773842Y-3069210D01*
G37*
D21*
G04 #@! TD*
G04 #@! TO.P,R7,1*
G04 #@! TO.N,/I2C_SCL*
X-2935800Y-3388500D03*
D15*
G04 #@! TO.N,+3V3*
G04 #@! TO.C,R7*
G36*
X-3743842Y-3069210D02*
X-3729524Y-3071334D01*
X-3715483Y-3074851D01*
X-3701854Y-3079728D01*
X-3688769Y-3085917D01*
X-3676353Y-3093358D01*
X-3664727Y-3101981D01*
X-3654002Y-3111702D01*
X-3644281Y-3122427D01*
X-3635658Y-3134053D01*
X-3628217Y-3146469D01*
X-3622028Y-3159554D01*
X-3617151Y-3173183D01*
X-3613634Y-3187224D01*
X-3611510Y-3201542D01*
X-3610800Y-3216000D01*
X-3610800Y-3561000D01*
X-3611510Y-3575458D01*
X-3613634Y-3589776D01*
X-3617151Y-3603817D01*
X-3622028Y-3617446D01*
X-3628217Y-3630531D01*
X-3635658Y-3642947D01*
X-3644281Y-3654573D01*
X-3654002Y-3665298D01*
X-3664727Y-3675019D01*
X-3676353Y-3683642D01*
X-3688769Y-3691083D01*
X-3701854Y-3697272D01*
X-3715483Y-3702149D01*
X-3729524Y-3705666D01*
X-3743842Y-3707790D01*
X-3758300Y-3708500D01*
X-4053300Y-3708500D01*
X-4067758Y-3707790D01*
X-4082076Y-3705666D01*
X-4096117Y-3702149D01*
X-4109746Y-3697272D01*
X-4122831Y-3691083D01*
X-4135247Y-3683642D01*
X-4146873Y-3675019D01*
X-4157598Y-3665298D01*
X-4167319Y-3654573D01*
X-4175942Y-3642947D01*
X-4183383Y-3630531D01*
X-4189572Y-3617446D01*
X-4194449Y-3603817D01*
X-4197966Y-3589776D01*
X-4200090Y-3575458D01*
X-4200800Y-3561000D01*
X-4200800Y-3216000D01*
X-4200090Y-3201542D01*
X-4197966Y-3187224D01*
X-4194449Y-3173183D01*
X-4189572Y-3159554D01*
X-4183383Y-3146469D01*
X-4175942Y-3134053D01*
X-4167319Y-3122427D01*
X-4157598Y-3111702D01*
X-4146873Y-3101981D01*
X-4135247Y-3093358D01*
X-4122831Y-3085917D01*
X-4109746Y-3079728D01*
X-4096117Y-3074851D01*
X-4082076Y-3071334D01*
X-4067758Y-3069210D01*
X-4053300Y-3068500D01*
X-3758300Y-3068500D01*
X-3743842Y-3069210D01*
X-3743842Y-3069210D01*
G37*
D21*
G04 #@! TD*
G04 #@! TO.P,R7,2*
G04 #@! TO.N,+3V3*
X-3905800Y-3388500D03*
D15*
G04 #@! TO.N,/Button_reset*
G04 #@! TO.C,R8*
G36*
X3716158Y-4759210D02*
X3730476Y-4761334D01*
X3744517Y-4764851D01*
X3758146Y-4769728D01*
X3771231Y-4775917D01*
X3783647Y-4783358D01*
X3795273Y-4791981D01*
X3805998Y-4801702D01*
X3815719Y-4812427D01*
X3824342Y-4824053D01*
X3831783Y-4836469D01*
X3837972Y-4849554D01*
X3842849Y-4863183D01*
X3846366Y-4877224D01*
X3848490Y-4891542D01*
X3849200Y-4906000D01*
X3849200Y-5201000D01*
X3848490Y-5215458D01*
X3846366Y-5229776D01*
X3842849Y-5243817D01*
X3837972Y-5257446D01*
X3831783Y-5270531D01*
X3824342Y-5282947D01*
X3815719Y-5294573D01*
X3805998Y-5305298D01*
X3795273Y-5315019D01*
X3783647Y-5323642D01*
X3771231Y-5331083D01*
X3758146Y-5337272D01*
X3744517Y-5342149D01*
X3730476Y-5345666D01*
X3716158Y-5347790D01*
X3701700Y-5348500D01*
X3356700Y-5348500D01*
X3342242Y-5347790D01*
X3327924Y-5345666D01*
X3313883Y-5342149D01*
X3300254Y-5337272D01*
X3287169Y-5331083D01*
X3274753Y-5323642D01*
X3263127Y-5315019D01*
X3252402Y-5305298D01*
X3242681Y-5294573D01*
X3234058Y-5282947D01*
X3226617Y-5270531D01*
X3220428Y-5257446D01*
X3215551Y-5243817D01*
X3212034Y-5229776D01*
X3209910Y-5215458D01*
X3209200Y-5201000D01*
X3209200Y-4906000D01*
X3209910Y-4891542D01*
X3212034Y-4877224D01*
X3215551Y-4863183D01*
X3220428Y-4849554D01*
X3226617Y-4836469D01*
X3234058Y-4824053D01*
X3242681Y-4812427D01*
X3252402Y-4801702D01*
X3263127Y-4791981D01*
X3274753Y-4783358D01*
X3287169Y-4775917D01*
X3300254Y-4769728D01*
X3313883Y-4764851D01*
X3327924Y-4761334D01*
X3342242Y-4759210D01*
X3356700Y-4758500D01*
X3701700Y-4758500D01*
X3716158Y-4759210D01*
X3716158Y-4759210D01*
G37*
D21*
G04 #@! TD*
G04 #@! TO.P,R8,2*
G04 #@! TO.N,/Button_reset*
X3529200Y-5053500D03*
D15*
G04 #@! TO.N,+5V*
G04 #@! TO.C,R8*
G36*
X3716158Y-5729210D02*
X3730476Y-5731334D01*
X3744517Y-5734851D01*
X3758146Y-5739728D01*
X3771231Y-5745917D01*
X3783647Y-5753358D01*
X3795273Y-5761981D01*
X3805998Y-5771702D01*
X3815719Y-5782427D01*
X3824342Y-5794053D01*
X3831783Y-5806469D01*
X3837972Y-5819554D01*
X3842849Y-5833183D01*
X3846366Y-5847224D01*
X3848490Y-5861542D01*
X3849200Y-5876000D01*
X3849200Y-6171000D01*
X3848490Y-6185458D01*
X3846366Y-6199776D01*
X3842849Y-6213817D01*
X3837972Y-6227446D01*
X3831783Y-6240531D01*
X3824342Y-6252947D01*
X3815719Y-6264573D01*
X3805998Y-6275298D01*
X3795273Y-6285019D01*
X3783647Y-6293642D01*
X3771231Y-6301083D01*
X3758146Y-6307272D01*
X3744517Y-6312149D01*
X3730476Y-6315666D01*
X3716158Y-6317790D01*
X3701700Y-6318500D01*
X3356700Y-6318500D01*
X3342242Y-6317790D01*
X3327924Y-6315666D01*
X3313883Y-6312149D01*
X3300254Y-6307272D01*
X3287169Y-6301083D01*
X3274753Y-6293642D01*
X3263127Y-6285019D01*
X3252402Y-6275298D01*
X3242681Y-6264573D01*
X3234058Y-6252947D01*
X3226617Y-6240531D01*
X3220428Y-6227446D01*
X3215551Y-6213817D01*
X3212034Y-6199776D01*
X3209910Y-6185458D01*
X3209200Y-6171000D01*
X3209200Y-5876000D01*
X3209910Y-5861542D01*
X3212034Y-5847224D01*
X3215551Y-5833183D01*
X3220428Y-5819554D01*
X3226617Y-5806469D01*
X3234058Y-5794053D01*
X3242681Y-5782427D01*
X3252402Y-5771702D01*
X3263127Y-5761981D01*
X3274753Y-5753358D01*
X3287169Y-5745917D01*
X3300254Y-5739728D01*
X3313883Y-5734851D01*
X3327924Y-5731334D01*
X3342242Y-5729210D01*
X3356700Y-5728500D01*
X3701700Y-5728500D01*
X3716158Y-5729210D01*
X3716158Y-5729210D01*
G37*
D21*
G04 #@! TD*
G04 #@! TO.P,R8,1*
G04 #@! TO.N,+5V*
X3529200Y-6023500D03*
D30*
G04 #@! TO.N,/HD+*
X4629200Y2096500D03*
X1079200Y411500D03*
G04 #@! TO.N,/HD-*
X4629200Y-2053500D03*
X329312Y396504D03*
G04 #@! TO.N,/Button*
X-670800Y7296476D03*
X1029200Y-6838500D03*
G04 #@! TO.N,Net-(P1-Pad1)*
X-1220800Y-3188568D03*
G04 #@! TO.N,+5V*
X-4970800Y-7488500D03*
X5929200Y-2703500D03*
G04 #@! TO.N,+3V3*
X5979200Y2846500D03*
X2779175Y-588473D03*
X679200Y-2588500D03*
X-1231683Y-1077617D03*
G04 #@! TO.N,Net-(D2-PadA)*
X-10720800Y-53506D03*
G04 #@! TO.N,Net-(U1-Pad3)*
X829200Y7296698D03*
X-3370800Y5646502D03*
G04 #@! TO.N,Net-(D2-PadG)*
X-11190800Y1646500D03*
G04 #@! TO.N,Net-(D2-PadR)*
X-10250800Y1646500D03*
G04 #@! TO.N,Net-(D2-PadB)*
X-11190800Y-1783500D03*
G04 #@! TO.N,Net-(U1-Pad11)*
X-3370794Y4946500D03*
X-3370796Y3296500D03*
G04 #@! TO.N,GND*
X79200Y3896500D03*
X2529200Y6296500D03*
X3829200Y5646500D03*
X7879200Y2811500D03*
X5629200Y4461500D03*
X-2620800Y1211500D03*
X1809348Y-2685158D03*
X8600000Y7296500D03*
X3029200Y-4388500D03*
X1204210Y-5488500D03*
G04 #@! TD*
D15*
G04 #@! TO.N,/HD+*
X4629200Y2096500D02*
X5700000Y1326500D01*
X1079200Y386500D02*
X1079200Y411500D01*
X829200Y1459000D02*
X829201Y661499D01*
X829201Y661499D02*
X1079200Y411500D01*
X1079200Y411500D02*
X1279200Y411500D01*
X1429200Y261500D02*
X1079200Y261500D01*
X1429200Y261500D02*
X2079200Y-388500D01*
X1279200Y411500D02*
X1429200Y261500D01*
G04 #@! TO.N,/HD-*
X4629200Y-2053500D02*
X5700000Y-1213500D01*
X329200Y396504D02*
X329312Y396504D01*
X329200Y1459000D02*
X329200Y396504D01*
X1079200Y-353384D02*
X329312Y396504D01*
X1079200Y-388500D02*
X1079200Y-353384D01*
G04 #@! TO.N,/Button*
X-670800Y6334000D02*
X-670800Y7296476D01*
X2179200Y-6853500D02*
X2164200Y-6838500D01*
D31*
X2164200Y-6838500D02*
X1882753Y-6838500D01*
D15*
X2064200Y-6838500D02*
X2129200Y-6903500D01*
X1029200Y-6838500D02*
X2064200Y-6838500D01*
X4579200Y-6323500D02*
X4214200Y-6688500D01*
X2809200Y-6903500D02*
X2129200Y-6903500D01*
X3024200Y-6688500D02*
X2809200Y-6903500D01*
X4214200Y-6688500D02*
X3024200Y-6688500D01*
G04 #@! TO.N,Net-(P1-Pad1)*
X-1470800Y-4018500D02*
X-1470800Y-3488500D01*
X-1470800Y-3638502D02*
X-1470800Y-3438506D01*
X-1470804Y-3438502D02*
X-1470804Y-3438438D01*
X-1220934Y-3188568D02*
X-1220800Y-3188568D01*
X-1470804Y-3438438D02*
X-1220934Y-3188568D01*
D31*
G04 #@! TO.N,Net-(R2-Pad2)*
X-155800Y-6938500D02*
X-1470800Y-6938500D01*
D15*
G04 #@! TO.N,Net-(R1-Pad2)*
X-905800Y-4903500D02*
X-920800Y-4888500D01*
D31*
X-135800Y-4988500D02*
X-1470800Y-4988500D01*
D15*
G04 #@! TO.N,/Button_reset*
X2179200Y-5053500D02*
X2129200Y-5003500D01*
X3529200Y-5053500D02*
X2179200Y-5053500D01*
D32*
G04 #@! TO.N,Net-(C5-Pad1)*
X5626930Y5683770D02*
X4814200Y6496500D01*
D15*
X6999600Y5683770D02*
X5626930Y5683770D01*
D32*
X5651470Y5683770D02*
X4814200Y4846500D01*
D15*
X6999600Y5683770D02*
X5651470Y5683770D01*
D31*
G04 #@! TO.N,+5V*
X6970000Y-3753500D02*
X6070001Y-4653499D01*
X-4370800Y-4478500D02*
X-4970800Y-5078500D01*
X-4070800Y-4478500D02*
X-4370800Y-4478500D01*
X-4970800Y-5078500D02*
X-4970800Y-7353500D01*
D15*
X5929200Y-2703500D02*
X5929200Y-2712700D01*
D33*
X5229200Y-3068500D02*
X4179200Y-3068500D01*
D32*
X5929200Y-2712700D02*
X6970000Y-3753500D01*
D31*
X3229200Y-2461000D02*
X3229200Y-2768500D01*
X3079200Y-2311000D02*
X3229200Y-2461000D01*
X2519200Y-2768500D02*
X2519200Y-2311000D01*
D15*
X2679200Y-2328500D02*
X2519200Y-2488500D01*
X2679200Y-2311000D02*
X2679200Y-2328500D01*
X2519200Y-2488500D02*
X2519200Y-2788500D01*
X2519200Y-2338500D02*
X2519200Y-2488500D01*
D31*
X2679200Y-2311000D02*
X3079200Y-2311000D01*
X2519200Y-2311000D02*
X2679200Y-2311000D01*
D33*
X3879200Y-2768500D02*
X3243602Y-2768500D01*
X4179200Y-3068500D02*
X3879200Y-2768500D01*
D15*
X5279201Y-4653499D02*
X4579200Y-5353500D01*
X5429200Y-4653499D02*
X5279201Y-4653499D01*
D31*
X6070001Y-4653499D02*
X5429200Y-4653499D01*
D15*
X4199200Y-5353500D02*
X3529200Y-6023500D01*
X4579200Y-5353500D02*
X4199200Y-5353500D01*
X2199200Y-6023500D02*
X2129200Y-5953500D01*
X3529200Y-6023500D02*
X2199200Y-6023500D01*
X2079200Y-1863500D02*
X2079200Y-1788500D01*
D34*
X2519200Y-2303500D02*
X2079200Y-1863500D01*
D15*
X2519200Y-2311000D02*
X2519200Y-2303500D01*
D33*
X5594200Y-2703500D02*
X5929200Y-2703500D01*
X5229200Y-3068500D02*
X5594200Y-2703500D01*
D15*
G04 #@! TO.N,+3V3*
X-1670800Y-1138500D02*
X-1685800Y-1153500D01*
X5864200Y2861500D02*
X5979200Y2746500D01*
D31*
X5244200Y2846500D02*
X5979200Y2846500D01*
D15*
X-1685800Y-1153500D02*
X-1235782Y-1153500D01*
D34*
X-1670800Y311500D02*
X-1985800Y-3500D01*
X-1670800Y1459000D02*
X-1670800Y311500D01*
X-1985800Y-3500D02*
X-1985800Y-1153500D01*
D15*
X-1524335Y-1088500D02*
X-1170782Y-1088500D01*
X-1920800Y-1088500D02*
X-1985800Y-1153500D01*
X-1170782Y-1088500D02*
X-1920800Y-1088500D01*
X-1985800Y-1153500D02*
X-1985800Y-1753500D01*
X729199Y-2688499D02*
X729199Y-2588501D01*
D33*
X679200Y-2588500D02*
X679200Y-2942053D01*
D31*
X2779175Y-588473D02*
X2229148Y-1138500D01*
D33*
X2229200Y-3708500D02*
X2519200Y-3708500D01*
X2229200Y-3708500D02*
X1999200Y-3708500D01*
X1999200Y-3708500D02*
X1629200Y-3338500D01*
X1629200Y-3338500D02*
X1175646Y-3338500D01*
X1075647Y-3338500D02*
X679200Y-2942053D01*
X1175646Y-3338500D02*
X1075647Y-3338500D01*
D31*
X2229148Y-1138500D02*
X1529200Y-1138500D01*
X1529200Y-1138500D02*
X1079200Y-1138500D01*
D15*
X-1985800Y-1753500D02*
X-2720800Y-2488500D01*
X-155800Y-2588500D02*
X-170800Y-2573500D01*
X679200Y-2588500D02*
X-155800Y-2588500D01*
X-3005800Y-2488500D02*
X-3905800Y-3388500D01*
X-2820800Y-2488500D02*
X-3005800Y-2488500D01*
X-2820800Y-2488500D02*
X-2720800Y-2488500D01*
X-5770800Y-5253500D02*
X-5770800Y-6418500D01*
X-3905800Y-3388500D02*
X-5770800Y-5253500D01*
D31*
X950000Y-1138500D02*
X1529200Y-1138500D01*
X679200Y-1409300D02*
X950000Y-1138500D01*
X679200Y-1409300D02*
X679200Y-2588500D01*
D15*
X-6820800Y-7388500D02*
X-5850800Y-6418500D01*
X-5850800Y-6418500D02*
X-5770800Y-6418500D01*
X-11070800Y-6953500D02*
X-10635800Y-7388500D01*
X-11070800Y-2366502D02*
X-11070800Y-6953500D01*
X-10242798Y-1538500D02*
X-11070800Y-2366502D01*
X-9620800Y-1538500D02*
X-10242798Y-1538500D01*
X-6070800Y-803500D02*
X-6070800Y-988500D01*
X-6070800Y-988500D02*
X-6320800Y-1238500D01*
X-7320800Y-1238500D02*
X-7805800Y-753500D01*
X-6320800Y-1238500D02*
X-7320800Y-1238500D01*
X-7805800Y-753500D02*
X-8835800Y-753500D01*
X-10635800Y-7388500D02*
X-6820800Y-7388500D01*
X-8835800Y-753500D02*
X-9620800Y-1538500D01*
G04 #@! TO.N,Net-(D2-PadA)*
X-10970806Y-303506D02*
X-10970800Y-303506D01*
D31*
X-6020800Y-7588500D02*
X-6185810Y-7753510D01*
D15*
X-6020800Y-7388500D02*
X-6020800Y-7588500D01*
D31*
X-6185810Y-7753510D02*
X-11020790Y-7753510D01*
X-11020790Y-7753510D02*
X-11720800Y-7053500D01*
X-11720800Y-7053500D02*
X-11720800Y-1053500D01*
X-10970800Y-303506D02*
X-10720800Y-53506D01*
X-11720800Y-1053500D02*
X-10970806Y-303506D01*
D15*
G04 #@! TO.N,Net-(U1-Pad3)*
X829200Y6334000D02*
X829200Y7296698D01*
X-4235798Y5646502D02*
X-3370800Y5646502D01*
X-6570800Y3311500D02*
X-4235798Y5646502D01*
X-6570800Y3311500D02*
X-6570800Y2461500D01*
G04 #@! TO.N,Net-(D2-PadG)*
X-11190800Y2000053D02*
X-11190800Y1646500D01*
X-11190800Y5625058D02*
X-11190800Y2000053D01*
X-9119336Y7696522D02*
X-11190800Y5625058D01*
X-1876090Y7696522D02*
X-9119336Y7696522D01*
X-1170800Y6334000D02*
X-1170800Y6991232D01*
X-1170800Y6991232D02*
X-1876090Y7696522D01*
G04 #@! TO.N,Net-(D2-PadR)*
X-1670800Y6996500D02*
X-1670800Y6334000D01*
X-2070811Y7396511D02*
X-1670800Y6996500D01*
X-8995068Y7396511D02*
X-2070811Y7396511D01*
X-10890789Y5500790D02*
X-8995068Y7396511D01*
X-10250800Y1646500D02*
X-10890789Y2286489D01*
X-10890789Y2286489D02*
X-10890789Y5500790D01*
G04 #@! TO.N,Net-(D2-PadB)*
X-9720800Y-313500D02*
X-9720800Y1946500D01*
X-11190800Y-1783500D02*
X-9720800Y-313500D01*
X-9720800Y1946500D02*
X-10520800Y2746500D01*
X-10520800Y2746500D02*
X-10520800Y5446500D01*
X-10520800Y5446500D02*
X-8870800Y7096500D01*
X-8870800Y7096500D02*
X-2820800Y7096500D01*
X-2358300Y6634000D02*
X-2358300Y5646500D01*
X-2820800Y7096500D02*
X-2358300Y6634000D01*
G04 #@! TO.N,Net-(U1-Pad11)*
X-2358300Y4646500D02*
X-3070794Y4646500D01*
X-3120795Y4696501D02*
X-3370794Y4946500D01*
X-3070794Y4646500D02*
X-3120795Y4696501D01*
X-5070800Y2911500D02*
X-5070800Y2461500D01*
X-3370796Y3296500D02*
X-4685800Y3296500D01*
X-4685800Y3296500D02*
X-5070800Y2911500D01*
G04 #@! TO.N,Net-(U1-Pad12)*
X-6070800Y3161500D02*
X-6070800Y2646500D01*
X-2358300Y4146500D02*
X-5085800Y4146500D01*
X-5085800Y4146500D02*
X-6070800Y3161500D01*
G04 #@! TO.N,Net-(U1-Pad13)*
X-2955800Y3646500D02*
X-2358300Y3646500D01*
X-3155790Y3846490D02*
X-2955800Y3646500D01*
X-4785810Y3846490D02*
X-3155790Y3846490D01*
X-5570800Y3061500D02*
X-4785810Y3846490D01*
X-5570800Y3061500D02*
X-5570800Y2461500D01*
G04 #@! TO.N,Net-(U1-Pad14)*
X-2717796Y3146500D02*
X-2358300Y3146500D01*
X-3402796Y2461500D02*
X-4570800Y2461500D01*
X-3070800Y2793496D02*
X-3402796Y2461500D01*
X-3070800Y2793496D02*
X-2717796Y3146500D01*
G04 #@! TO.N,/SWDIO*
X7100012Y-73512D02*
X7340001Y-313501D01*
X7340001Y-313501D02*
X8240000Y-1213500D01*
X4829200Y-73512D02*
X7100012Y-73512D01*
X4533466Y-73512D02*
X4829200Y-73512D01*
X1329200Y861500D02*
X1329200Y1459000D01*
X1829200Y361500D02*
X1329200Y861500D01*
X2944188Y361500D02*
X1829200Y361500D01*
X4829200Y-73512D02*
X3379200Y-73512D01*
X3379200Y-73512D02*
X2944188Y361500D01*
G04 #@! TO.N,/SWCLK*
X7340001Y426501D02*
X8240000Y1326500D01*
X7139999Y226499D02*
X7340001Y426501D01*
X1829200Y1459000D02*
X1829200Y1125395D01*
X3094199Y711500D02*
X3579200Y226499D01*
X2243095Y711500D02*
X3094199Y711500D01*
X3579200Y226499D02*
X7139999Y226499D01*
X1829200Y1125395D02*
X2243095Y711500D01*
G04 #@! TO.N,Net-(SJ1-Pad1)*
X-8235800Y461500D02*
X-8320800Y546500D01*
X-7388208Y461500D02*
X-8235800Y461500D01*
X-7220800Y294092D02*
X-7388208Y461500D01*
X-7220800Y-213500D02*
X-7220800Y-38500D01*
X-6895800Y-538500D02*
X-7220800Y-213500D01*
X-6570800Y-538500D02*
X-6895800Y-538500D01*
X-7220800Y-38500D02*
X-7220800Y294092D01*
G04 #@! TO.N,Net-(L2-Pad2)*
X-6725800Y-3043500D02*
X-8775000Y-3043500D01*
X-5570800Y-803500D02*
X-5570800Y-1888500D01*
X-5570800Y-1888500D02*
X-6725800Y-3043500D01*
G04 #@! TO.N,Net-(L2-Pad1)*
X-8325000Y-5743500D02*
X-8775000Y-5743500D01*
X-6760800Y-5743500D02*
X-8775000Y-5743500D01*
X-5070800Y-803500D02*
X-5070800Y-4053500D01*
X-5070800Y-4053500D02*
X-6760800Y-5743500D01*
G04 #@! TO.N,/I2C_SCL*
X-3070800Y-3523500D02*
X-2935800Y-3388500D01*
X-3070800Y-4478500D02*
X-3070800Y-3523500D01*
X-2935800Y-3388500D02*
X-2935800Y-3303500D01*
X-2620800Y-2812778D02*
X-2780078Y-2812778D01*
X-1846522Y-2038500D02*
X-2620800Y-2812778D01*
X-2780078Y-2812778D02*
X-2935800Y-2968500D01*
X-1520800Y-2038500D02*
X-1846522Y-2038500D01*
X-670800Y-1188500D02*
X-1520800Y-2038500D01*
X-670800Y1459000D02*
X-670800Y-1188500D01*
X-2935800Y-2968500D02*
X-2935800Y-3388500D01*
G04 #@! TO.N,/I2C_SDA*
X-2570800Y-3938500D02*
X-2415790Y-3783490D01*
X-2570800Y-4478500D02*
X-2570800Y-3938500D01*
X-170800Y921500D02*
X-170800Y1459000D01*
X-2415790Y-3783490D02*
X-2415790Y-3162488D01*
X-2415790Y-3162488D02*
X-1591802Y-2338500D01*
X-170800Y-1538500D02*
X-170800Y921500D01*
X-1591802Y-2338500D02*
X-970800Y-2338500D01*
X-970800Y-2338500D02*
X-170800Y-1538500D01*
D33*
G04 #@! TO.N,GND*
X7279200Y4046500D02*
X7829200Y4596500D01*
D35*
X5229200Y3846500D02*
X5779200Y4396500D01*
D15*
X-905800Y-5853500D02*
X-920800Y-5868500D01*
X-135800Y-5968500D02*
X-1470800Y-5968500D01*
X2529200Y5659000D02*
X2516700Y5646500D01*
D34*
X2529200Y6296500D02*
X2529200Y5659000D01*
D33*
X3844200Y6496500D02*
X3844200Y4846500D01*
D15*
X1829200Y5646500D02*
X79200Y3896500D01*
X2516700Y5646500D02*
X1829200Y5646500D01*
X-1670800Y2146500D02*
X79200Y3896500D01*
X-2358300Y2146500D02*
X-1670800Y2146500D01*
D35*
X5179200Y3896500D02*
X5729200Y4446500D01*
D15*
X6970000Y3866500D02*
X6299200Y3866500D01*
D33*
X7020000Y3916500D02*
X5929200Y3546500D01*
X3464200Y-4038500D02*
X4179200Y-4038500D01*
X3266700Y-3776000D02*
X3441700Y-3951000D01*
D15*
X7879200Y2957300D02*
X6970000Y3866500D01*
X7879200Y2811500D02*
X7879200Y2957300D01*
X5679200Y4381500D02*
X5679200Y4546500D01*
D33*
X5679200Y4546500D02*
X6970000Y3866500D01*
X4109200Y3831500D02*
X4129200Y3831500D01*
X3844200Y4846500D02*
X3844200Y4096500D01*
X3844200Y4096500D02*
X4109200Y3831500D01*
D15*
X3266700Y-3776000D02*
X3266700Y-4051000D01*
G04 #@! TD*
D31*
G04 #@! TO.N,GND*
G36*
X302409Y-3098124D02*
X324028Y-3130479D01*
X390817Y-3230437D01*
X424216Y-3252753D01*
X764946Y-3593484D01*
X787263Y-3626884D01*
X914235Y-3711723D01*
X919575Y-3715291D01*
X1075647Y-3746336D01*
X1115041Y-3738500D01*
X1463516Y-3738500D01*
X1688499Y-3963484D01*
X1710816Y-3996884D01*
X1832113Y-4077931D01*
X1843128Y-4085291D01*
X1999199Y-4116336D01*
X2038593Y-4108500D01*
X2287111Y-4108500D01*
X2303529Y-4119470D01*
X2399200Y-4138500D01*
X2699200Y-4138500D01*
X2794871Y-4119470D01*
X2875977Y-4065277D01*
X2879200Y-4060453D01*
X2882423Y-4065277D01*
X2963529Y-4119470D01*
X3059200Y-4138500D01*
X3359200Y-4138500D01*
X3454871Y-4119470D01*
X3535977Y-4065277D01*
X3590170Y-3984171D01*
X3609200Y-3888500D01*
X3609200Y-3926000D01*
X3671700Y-3988500D01*
X4129200Y-3988500D01*
X4129200Y-3968500D01*
X4229200Y-3968500D01*
X4229200Y-3988500D01*
X4686700Y-3988500D01*
X4704200Y-3971000D01*
X4721700Y-3988500D01*
X5179200Y-3988500D01*
X5179200Y-3968500D01*
X5279200Y-3968500D01*
X5279200Y-3988500D01*
X5736700Y-3988500D01*
X5799200Y-3926000D01*
X5799200Y-3693772D01*
X5761140Y-3601886D01*
X5690814Y-3531560D01*
X5659328Y-3518518D01*
X5686238Y-3500538D01*
X5773466Y-3369991D01*
X5802771Y-3222666D01*
X5918077Y-3337972D01*
X5820000Y-3574751D01*
X5820000Y-4032249D01*
X5930209Y-4298318D01*
X5925028Y-4303499D01*
X5799200Y-4303499D01*
X5799200Y-4151000D01*
X5736700Y-4088500D01*
X5279200Y-4088500D01*
X5279200Y-4108500D01*
X5179200Y-4108500D01*
X5179200Y-4088500D01*
X4721700Y-4088500D01*
X4704200Y-4106000D01*
X4686700Y-4088500D01*
X4229200Y-4088500D01*
X4229200Y-4521000D01*
X4291700Y-4583500D01*
X4548928Y-4583500D01*
X4640814Y-4545440D01*
X4704200Y-4482054D01*
X4767586Y-4545440D01*
X4859472Y-4583500D01*
X4889581Y-4583500D01*
X4669479Y-4803603D01*
X4406700Y-4803603D01*
X4252709Y-4834234D01*
X4122162Y-4921462D01*
X4104097Y-4948498D01*
X4104097Y-4906000D01*
X4073466Y-4752009D01*
X3986238Y-4621462D01*
X3929423Y-4583500D01*
X4066700Y-4583500D01*
X4129200Y-4521000D01*
X4129200Y-4088500D01*
X3671700Y-4088500D01*
X3609200Y-4151000D01*
X3609200Y-4383228D01*
X3647260Y-4475114D01*
X3675749Y-4503603D01*
X3356700Y-4503603D01*
X3202709Y-4534234D01*
X3072162Y-4621462D01*
X3000642Y-4728500D01*
X2914097Y-4728500D01*
X2914097Y-4678500D01*
X2894694Y-4580955D01*
X2839439Y-4498261D01*
X2756745Y-4443006D01*
X2659200Y-4423603D01*
X1599200Y-4423603D01*
X1501655Y-4443006D01*
X1418961Y-4498261D01*
X1363706Y-4580955D01*
X1344303Y-4678500D01*
X1344303Y-5328500D01*
X1363706Y-5426045D01*
X1398756Y-5478500D01*
X1363706Y-5530955D01*
X1344303Y-5628500D01*
X1344303Y-6278500D01*
X1363706Y-6376045D01*
X1398756Y-6428500D01*
X1369737Y-6471930D01*
X1312427Y-6414620D01*
X1128656Y-6338500D01*
X929744Y-6338500D01*
X745973Y-6414620D01*
X688663Y-6471930D01*
X660890Y-6430364D01*
X671140Y-6420114D01*
X709200Y-6328228D01*
X709200Y-6066000D01*
X646700Y-6003500D01*
X-20800Y-6003500D01*
X-20800Y-6023500D01*
X-120800Y-6023500D01*
X-120800Y-6003500D01*
X-788300Y-6003500D01*
X-850800Y-6066000D01*
X-850800Y-6328228D01*
X-812740Y-6420114D01*
X-802490Y-6430364D01*
X-836294Y-6480955D01*
X-855697Y-6578500D01*
X-855697Y-6588500D01*
X-958946Y-6588500D01*
X-1013762Y-6506462D01*
X-1040672Y-6488482D01*
X-1009186Y-6475440D01*
X-938860Y-6405114D01*
X-900800Y-6313228D01*
X-900800Y-6081000D01*
X-963300Y-6018500D01*
X-1420800Y-6018500D01*
X-1420800Y-6038500D01*
X-1520800Y-6038500D01*
X-1520800Y-6018500D01*
X-1978300Y-6018500D01*
X-2040800Y-6081000D01*
X-2040800Y-6313228D01*
X-2002740Y-6405114D01*
X-1932414Y-6475440D01*
X-1900928Y-6488482D01*
X-1927838Y-6506462D01*
X-2015066Y-6637009D01*
X-2045697Y-6791000D01*
X-2045697Y-7086000D01*
X-2015066Y-7239991D01*
X-1927838Y-7370538D01*
X-1797291Y-7457766D01*
X-1643300Y-7488397D01*
X-1298300Y-7488397D01*
X-1144309Y-7457766D01*
X-1013762Y-7370538D01*
X-958946Y-7288500D01*
X-843762Y-7288500D01*
X-836294Y-7326045D01*
X-781039Y-7408739D01*
X-698345Y-7463994D01*
X-600800Y-7483397D01*
X459200Y-7483397D01*
X556745Y-7463994D01*
X639439Y-7408739D01*
X694694Y-7326045D01*
X713765Y-7230172D01*
X745973Y-7262380D01*
X929744Y-7338500D01*
X1128656Y-7338500D01*
X1312427Y-7262380D01*
X1344635Y-7230172D01*
X1363706Y-7326045D01*
X1418961Y-7408739D01*
X1501655Y-7463994D01*
X1599200Y-7483397D01*
X2659200Y-7483397D01*
X2756745Y-7463994D01*
X2839439Y-7408739D01*
X2894694Y-7326045D01*
X2914097Y-7228500D01*
X2914097Y-7214002D01*
X2936009Y-7209643D01*
X3043512Y-7137812D01*
X3061647Y-7110672D01*
X3158819Y-7013500D01*
X3362504Y-7013500D01*
X3344602Y-7103500D01*
X3350470Y-7133001D01*
X3350471Y-7853970D01*
X-4629163Y-7853970D01*
X-4546920Y-7771727D01*
X-4470800Y-7587956D01*
X-4470800Y-7428119D01*
X-4456294Y-7501045D01*
X-4401039Y-7583739D01*
X-4318345Y-7638994D01*
X-4220800Y-7658397D01*
X-3920800Y-7658397D01*
X-3823255Y-7638994D01*
X-3820800Y-7637354D01*
X-3818345Y-7638994D01*
X-3720800Y-7658397D01*
X-3420800Y-7658397D01*
X-3323255Y-7638994D01*
X-3320800Y-7637354D01*
X-3318345Y-7638994D01*
X-3220800Y-7658397D01*
X-2920800Y-7658397D01*
X-2823255Y-7638994D01*
X-2816479Y-7634467D01*
X-2770528Y-7653500D01*
X-2683300Y-7653500D01*
X-2620800Y-7591000D01*
X-2620800Y-7178500D01*
X-2520800Y-7178500D01*
X-2520800Y-7591000D01*
X-2458300Y-7653500D01*
X-2371072Y-7653500D01*
X-2279186Y-7615440D01*
X-2208860Y-7545114D01*
X-2170800Y-7453228D01*
X-2170800Y-7241000D01*
X-2233300Y-7178500D01*
X-2520800Y-7178500D01*
X-2620800Y-7178500D01*
X-2640800Y-7178500D01*
X-2640800Y-7078500D01*
X-2620800Y-7078500D01*
X-2620800Y-7058500D01*
X-2520800Y-7058500D01*
X-2520800Y-7078500D01*
X-2233300Y-7078500D01*
X-2170800Y-7016000D01*
X-2170800Y-6803772D01*
X-2208860Y-6711886D01*
X-2279186Y-6641560D01*
X-2370511Y-6603732D01*
X-2335306Y-6551045D01*
X-2315903Y-6453500D01*
X-2315903Y-5153500D01*
X-2335306Y-5055955D01*
X-2373386Y-4998966D01*
X-2323255Y-4988994D01*
X-2240561Y-4933739D01*
X-2185306Y-4851045D01*
X-2165903Y-4753500D01*
X-2165903Y-4712410D01*
X-2037222Y-4798391D01*
X-2045697Y-4841000D01*
X-2045697Y-5136000D01*
X-2015066Y-5289991D01*
X-1927838Y-5420538D01*
X-1891689Y-5444692D01*
X-1932414Y-5461560D01*
X-2002740Y-5531886D01*
X-2040800Y-5623772D01*
X-2040800Y-5856000D01*
X-1978300Y-5918500D01*
X-1520800Y-5918500D01*
X-1520800Y-5898500D01*
X-1420800Y-5898500D01*
X-1420800Y-5918500D01*
X-963300Y-5918500D01*
X-900800Y-5856000D01*
X-900800Y-5623772D01*
X-938860Y-5531886D01*
X-1009186Y-5461560D01*
X-1049911Y-5444692D01*
X-1013762Y-5420538D01*
X-958946Y-5338500D01*
X-853708Y-5338500D01*
X-836294Y-5426045D01*
X-802490Y-5476636D01*
X-812740Y-5486886D01*
X-850800Y-5578772D01*
X-850800Y-5841000D01*
X-788300Y-5903500D01*
X-120800Y-5903500D01*
X-120800Y-5883500D01*
X-20800Y-5883500D01*
X-20800Y-5903500D01*
X646700Y-5903500D01*
X709200Y-5841000D01*
X709200Y-5578772D01*
X671140Y-5486886D01*
X660890Y-5476636D01*
X694694Y-5426045D01*
X714097Y-5328500D01*
X714097Y-4678500D01*
X694694Y-4580955D01*
X639439Y-4498261D01*
X556745Y-4443006D01*
X459200Y-4423603D01*
X-590287Y-4423603D01*
X-539046Y-4166000D01*
X-539046Y-3871000D01*
X-565941Y-3735790D01*
X-500205Y-3670054D01*
X-370800Y-3357643D01*
X-370800Y-3117927D01*
X-343300Y-3123397D01*
X1700Y-3123397D01*
X155691Y-3092766D01*
X284256Y-3006863D01*
X302409Y-3098124D01*
X302409Y-3098124D01*
G37*
X302409Y-3098124D02*
X324028Y-3130479D01*
X390817Y-3230437D01*
X424216Y-3252753D01*
X764946Y-3593484D01*
X787263Y-3626884D01*
X914235Y-3711723D01*
X919575Y-3715291D01*
X1075647Y-3746336D01*
X1115041Y-3738500D01*
X1463516Y-3738500D01*
X1688499Y-3963484D01*
X1710816Y-3996884D01*
X1832113Y-4077931D01*
X1843128Y-4085291D01*
X1999199Y-4116336D01*
X2038593Y-4108500D01*
X2287111Y-4108500D01*
X2303529Y-4119470D01*
X2399200Y-4138500D01*
X2699200Y-4138500D01*
X2794871Y-4119470D01*
X2875977Y-4065277D01*
X2879200Y-4060453D01*
X2882423Y-4065277D01*
X2963529Y-4119470D01*
X3059200Y-4138500D01*
X3359200Y-4138500D01*
X3454871Y-4119470D01*
X3535977Y-4065277D01*
X3590170Y-3984171D01*
X3609200Y-3888500D01*
X3609200Y-3926000D01*
X3671700Y-3988500D01*
X4129200Y-3988500D01*
X4129200Y-3968500D01*
X4229200Y-3968500D01*
X4229200Y-3988500D01*
X4686700Y-3988500D01*
X4704200Y-3971000D01*
X4721700Y-3988500D01*
X5179200Y-3988500D01*
X5179200Y-3968500D01*
X5279200Y-3968500D01*
X5279200Y-3988500D01*
X5736700Y-3988500D01*
X5799200Y-3926000D01*
X5799200Y-3693772D01*
X5761140Y-3601886D01*
X5690814Y-3531560D01*
X5659328Y-3518518D01*
X5686238Y-3500538D01*
X5773466Y-3369991D01*
X5802771Y-3222666D01*
X5918077Y-3337972D01*
X5820000Y-3574751D01*
X5820000Y-4032249D01*
X5930209Y-4298318D01*
X5925028Y-4303499D01*
X5799200Y-4303499D01*
X5799200Y-4151000D01*
X5736700Y-4088500D01*
X5279200Y-4088500D01*
X5279200Y-4108500D01*
X5179200Y-4108500D01*
X5179200Y-4088500D01*
X4721700Y-4088500D01*
X4704200Y-4106000D01*
X4686700Y-4088500D01*
X4229200Y-4088500D01*
X4229200Y-4521000D01*
X4291700Y-4583500D01*
X4548928Y-4583500D01*
X4640814Y-4545440D01*
X4704200Y-4482054D01*
X4767586Y-4545440D01*
X4859472Y-4583500D01*
X4889581Y-4583500D01*
X4669479Y-4803603D01*
X4406700Y-4803603D01*
X4252709Y-4834234D01*
X4122162Y-4921462D01*
X4104097Y-4948498D01*
X4104097Y-4906000D01*
X4073466Y-4752009D01*
X3986238Y-4621462D01*
X3929423Y-4583500D01*
X4066700Y-4583500D01*
X4129200Y-4521000D01*
X4129200Y-4088500D01*
X3671700Y-4088500D01*
X3609200Y-4151000D01*
X3609200Y-4383228D01*
X3647260Y-4475114D01*
X3675749Y-4503603D01*
X3356700Y-4503603D01*
X3202709Y-4534234D01*
X3072162Y-4621462D01*
X3000642Y-4728500D01*
X2914097Y-4728500D01*
X2914097Y-4678500D01*
X2894694Y-4580955D01*
X2839439Y-4498261D01*
X2756745Y-4443006D01*
X2659200Y-4423603D01*
X1599200Y-4423603D01*
X1501655Y-4443006D01*
X1418961Y-4498261D01*
X1363706Y-4580955D01*
X1344303Y-4678500D01*
X1344303Y-5328500D01*
X1363706Y-5426045D01*
X1398756Y-5478500D01*
X1363706Y-5530955D01*
X1344303Y-5628500D01*
X1344303Y-6278500D01*
X1363706Y-6376045D01*
X1398756Y-6428500D01*
X1369737Y-6471930D01*
X1312427Y-6414620D01*
X1128656Y-6338500D01*
X929744Y-6338500D01*
X745973Y-6414620D01*
X688663Y-6471930D01*
X660890Y-6430364D01*
X671140Y-6420114D01*
X709200Y-6328228D01*
X709200Y-6066000D01*
X646700Y-6003500D01*
X-20800Y-6003500D01*
X-20800Y-6023500D01*
X-120800Y-6023500D01*
X-120800Y-6003500D01*
X-788300Y-6003500D01*
X-850800Y-6066000D01*
X-850800Y-6328228D01*
X-812740Y-6420114D01*
X-802490Y-6430364D01*
X-836294Y-6480955D01*
X-855697Y-6578500D01*
X-855697Y-6588500D01*
X-958946Y-6588500D01*
X-1013762Y-6506462D01*
X-1040672Y-6488482D01*
X-1009186Y-6475440D01*
X-938860Y-6405114D01*
X-900800Y-6313228D01*
X-900800Y-6081000D01*
X-963300Y-6018500D01*
X-1420800Y-6018500D01*
X-1420800Y-6038500D01*
X-1520800Y-6038500D01*
X-1520800Y-6018500D01*
X-1978300Y-6018500D01*
X-2040800Y-6081000D01*
X-2040800Y-6313228D01*
X-2002740Y-6405114D01*
X-1932414Y-6475440D01*
X-1900928Y-6488482D01*
X-1927838Y-6506462D01*
X-2015066Y-6637009D01*
X-2045697Y-6791000D01*
X-2045697Y-7086000D01*
X-2015066Y-7239991D01*
X-1927838Y-7370538D01*
X-1797291Y-7457766D01*
X-1643300Y-7488397D01*
X-1298300Y-7488397D01*
X-1144309Y-7457766D01*
X-1013762Y-7370538D01*
X-958946Y-7288500D01*
X-843762Y-7288500D01*
X-836294Y-7326045D01*
X-781039Y-7408739D01*
X-698345Y-7463994D01*
X-600800Y-7483397D01*
X459200Y-7483397D01*
X556745Y-7463994D01*
X639439Y-7408739D01*
X694694Y-7326045D01*
X713765Y-7230172D01*
X745973Y-7262380D01*
X929744Y-7338500D01*
X1128656Y-7338500D01*
X1312427Y-7262380D01*
X1344635Y-7230172D01*
X1363706Y-7326045D01*
X1418961Y-7408739D01*
X1501655Y-7463994D01*
X1599200Y-7483397D01*
X2659200Y-7483397D01*
X2756745Y-7463994D01*
X2839439Y-7408739D01*
X2894694Y-7326045D01*
X2914097Y-7228500D01*
X2914097Y-7214002D01*
X2936009Y-7209643D01*
X3043512Y-7137812D01*
X3061647Y-7110672D01*
X3158819Y-7013500D01*
X3362504Y-7013500D01*
X3344602Y-7103500D01*
X3350470Y-7133001D01*
X3350471Y-7853970D01*
X-4629163Y-7853970D01*
X-4546920Y-7771727D01*
X-4470800Y-7587956D01*
X-4470800Y-7428119D01*
X-4456294Y-7501045D01*
X-4401039Y-7583739D01*
X-4318345Y-7638994D01*
X-4220800Y-7658397D01*
X-3920800Y-7658397D01*
X-3823255Y-7638994D01*
X-3820800Y-7637354D01*
X-3818345Y-7638994D01*
X-3720800Y-7658397D01*
X-3420800Y-7658397D01*
X-3323255Y-7638994D01*
X-3320800Y-7637354D01*
X-3318345Y-7638994D01*
X-3220800Y-7658397D01*
X-2920800Y-7658397D01*
X-2823255Y-7638994D01*
X-2816479Y-7634467D01*
X-2770528Y-7653500D01*
X-2683300Y-7653500D01*
X-2620800Y-7591000D01*
X-2620800Y-7178500D01*
X-2520800Y-7178500D01*
X-2520800Y-7591000D01*
X-2458300Y-7653500D01*
X-2371072Y-7653500D01*
X-2279186Y-7615440D01*
X-2208860Y-7545114D01*
X-2170800Y-7453228D01*
X-2170800Y-7241000D01*
X-2233300Y-7178500D01*
X-2520800Y-7178500D01*
X-2620800Y-7178500D01*
X-2640800Y-7178500D01*
X-2640800Y-7078500D01*
X-2620800Y-7078500D01*
X-2620800Y-7058500D01*
X-2520800Y-7058500D01*
X-2520800Y-7078500D01*
X-2233300Y-7078500D01*
X-2170800Y-7016000D01*
X-2170800Y-6803772D01*
X-2208860Y-6711886D01*
X-2279186Y-6641560D01*
X-2370511Y-6603732D01*
X-2335306Y-6551045D01*
X-2315903Y-6453500D01*
X-2315903Y-5153500D01*
X-2335306Y-5055955D01*
X-2373386Y-4998966D01*
X-2323255Y-4988994D01*
X-2240561Y-4933739D01*
X-2185306Y-4851045D01*
X-2165903Y-4753500D01*
X-2165903Y-4712410D01*
X-2037222Y-4798391D01*
X-2045697Y-4841000D01*
X-2045697Y-5136000D01*
X-2015066Y-5289991D01*
X-1927838Y-5420538D01*
X-1891689Y-5444692D01*
X-1932414Y-5461560D01*
X-2002740Y-5531886D01*
X-2040800Y-5623772D01*
X-2040800Y-5856000D01*
X-1978300Y-5918500D01*
X-1520800Y-5918500D01*
X-1520800Y-5898500D01*
X-1420800Y-5898500D01*
X-1420800Y-5918500D01*
X-963300Y-5918500D01*
X-900800Y-5856000D01*
X-900800Y-5623772D01*
X-938860Y-5531886D01*
X-1009186Y-5461560D01*
X-1049911Y-5444692D01*
X-1013762Y-5420538D01*
X-958946Y-5338500D01*
X-853708Y-5338500D01*
X-836294Y-5426045D01*
X-802490Y-5476636D01*
X-812740Y-5486886D01*
X-850800Y-5578772D01*
X-850800Y-5841000D01*
X-788300Y-5903500D01*
X-120800Y-5903500D01*
X-120800Y-5883500D01*
X-20800Y-5883500D01*
X-20800Y-5903500D01*
X646700Y-5903500D01*
X709200Y-5841000D01*
X709200Y-5578772D01*
X671140Y-5486886D01*
X660890Y-5476636D01*
X694694Y-5426045D01*
X714097Y-5328500D01*
X714097Y-4678500D01*
X694694Y-4580955D01*
X639439Y-4498261D01*
X556745Y-4443006D01*
X459200Y-4423603D01*
X-590287Y-4423603D01*
X-539046Y-4166000D01*
X-539046Y-3871000D01*
X-565941Y-3735790D01*
X-500205Y-3670054D01*
X-370800Y-3357643D01*
X-370800Y-3117927D01*
X-343300Y-3123397D01*
X1700Y-3123397D01*
X155691Y-3092766D01*
X284256Y-3006863D01*
X302409Y-3098124D01*
G36*
X-2683300Y6499381D02*
X-2683299Y6026397D01*
X-2733300Y6026397D01*
X-2854763Y6002237D01*
X-2953472Y5936281D01*
X-3087573Y6070382D01*
X-3271344Y6146502D01*
X-3470256Y6146502D01*
X-3654027Y6070382D01*
X-3752907Y5971502D01*
X-4203795Y5971502D01*
X-4235799Y5977868D01*
X-4267803Y5971502D01*
X-4267807Y5971502D01*
X-4362607Y5952645D01*
X-4470110Y5880814D01*
X-4488241Y5853679D01*
X-6777971Y3563947D01*
X-6805112Y3545812D01*
X-6854765Y3471500D01*
X-6876943Y3438308D01*
X-6902167Y3311500D01*
X-6895800Y3279491D01*
X-6895800Y2961945D01*
X-6926039Y2941739D01*
X-6981294Y2859045D01*
X-7000697Y2761500D01*
X-7000697Y2161500D01*
X-6981294Y2063955D01*
X-6926039Y1981261D01*
X-6922175Y1978679D01*
X-6972740Y1928114D01*
X-7010800Y1836228D01*
X-7010800Y1074000D01*
X-6948300Y1011500D01*
X-5620800Y1011500D01*
X-5620800Y1031500D01*
X-5520800Y1031500D01*
X-5520800Y1011500D01*
X-4193300Y1011500D01*
X-4130800Y1074000D01*
X-4130800Y1836228D01*
X-4168860Y1928114D01*
X-4219425Y1978679D01*
X-4215561Y1981261D01*
X-4180322Y2034000D01*
X-3045800Y2034000D01*
X-3045800Y1971772D01*
X-3007740Y1879886D01*
X-2937414Y1809560D01*
X-2845528Y1771500D01*
X-2470800Y1771500D01*
X-2408300Y1834000D01*
X-2408300Y2096500D01*
X-2983300Y2096500D01*
X-3045800Y2034000D01*
X-4180322Y2034000D01*
X-4160306Y2063955D01*
X-4145876Y2136500D01*
X-3434805Y2136500D01*
X-3402796Y2130133D01*
X-3370787Y2136500D01*
X-3275987Y2155357D01*
X-3168484Y2227188D01*
X-3150350Y2254328D01*
X-3019179Y2385498D01*
X-3045800Y2321228D01*
X-3045800Y2259000D01*
X-2983300Y2196500D01*
X-2408300Y2196500D01*
X-2408300Y2216500D01*
X-2308300Y2216500D01*
X-2308300Y2196500D01*
X-2288300Y2196500D01*
X-2288300Y2096500D01*
X-2308300Y2096500D01*
X-2308300Y1834000D01*
X-2245800Y1771500D01*
X-2050697Y1771500D01*
X-2050697Y1084000D01*
X-2045800Y1059379D01*
X-2045799Y571397D01*
X-2133300Y571397D01*
X-2287291Y540766D01*
X-2417838Y453538D01*
X-2435818Y426628D01*
X-2448860Y458114D01*
X-2519186Y528440D01*
X-2611072Y566500D01*
X-2843300Y566500D01*
X-2905800Y504000D01*
X-2905800Y46500D01*
X-2885800Y46500D01*
X-2885800Y-53500D01*
X-2905800Y-53500D01*
X-2905800Y-511000D01*
X-2843300Y-573500D01*
X-2611072Y-573500D01*
X-2519186Y-535440D01*
X-2448860Y-465114D01*
X-2435818Y-433628D01*
X-2417838Y-460538D01*
X-2360800Y-498650D01*
X-2360799Y-658350D01*
X-2417838Y-696462D01*
X-2435818Y-723372D01*
X-2448860Y-691886D01*
X-2519186Y-621560D01*
X-2611072Y-583500D01*
X-2843300Y-583500D01*
X-2905800Y-646000D01*
X-2905800Y-1103500D01*
X-2885800Y-1103500D01*
X-2885800Y-1203500D01*
X-2905800Y-1203500D01*
X-2905800Y-1661000D01*
X-2843300Y-1723500D01*
X-2611072Y-1723500D01*
X-2519186Y-1685440D01*
X-2448860Y-1615114D01*
X-2435818Y-1583628D01*
X-2417838Y-1610538D01*
X-2348672Y-1656753D01*
X-2855418Y-2163500D01*
X-2973792Y-2163500D01*
X-3005801Y-2157133D01*
X-3132609Y-2182357D01*
X-3176537Y-2211709D01*
X-3240112Y-2254188D01*
X-3258243Y-2281323D01*
X-3790522Y-2813603D01*
X-4053300Y-2813603D01*
X-4207291Y-2844234D01*
X-4337838Y-2931462D01*
X-4425066Y-3062009D01*
X-4455697Y-3216000D01*
X-4455697Y-3478777D01*
X-4745800Y-3768881D01*
X-4745800Y-1266000D01*
X-3500800Y-1266000D01*
X-3500800Y-1523228D01*
X-3462740Y-1615114D01*
X-3392414Y-1685440D01*
X-3300528Y-1723500D01*
X-3068300Y-1723500D01*
X-3005800Y-1661000D01*
X-3005800Y-1203500D01*
X-3438300Y-1203500D01*
X-3500800Y-1266000D01*
X-4745800Y-1266000D01*
X-4745800Y-1088500D01*
X-4683300Y-1088500D01*
X-4620800Y-1026000D01*
X-4620800Y-588500D01*
X-4520800Y-588500D01*
X-4520800Y-1026000D01*
X-4458300Y-1088500D01*
X-4346072Y-1088500D01*
X-4254186Y-1050440D01*
X-4183860Y-980114D01*
X-4145800Y-888228D01*
X-4145800Y-783772D01*
X-3500800Y-783772D01*
X-3500800Y-1041000D01*
X-3438300Y-1103500D01*
X-3005800Y-1103500D01*
X-3005800Y-646000D01*
X-3068300Y-583500D01*
X-3300528Y-583500D01*
X-3392414Y-621560D01*
X-3462740Y-691886D01*
X-3500800Y-783772D01*
X-4145800Y-783772D01*
X-4145800Y-651000D01*
X-4208300Y-588500D01*
X-4520800Y-588500D01*
X-4620800Y-588500D01*
X-4640800Y-588500D01*
X-4640800Y-488500D01*
X-4620800Y-488500D01*
X-4620800Y-468500D01*
X-4520800Y-468500D01*
X-4520800Y-488500D01*
X-4208300Y-488500D01*
X-4145800Y-426000D01*
X-4145800Y-188772D01*
X-4175942Y-116000D01*
X-3500800Y-116000D01*
X-3500800Y-373228D01*
X-3462740Y-465114D01*
X-3392414Y-535440D01*
X-3300528Y-573500D01*
X-3068300Y-573500D01*
X-3005800Y-511000D01*
X-3005800Y-53500D01*
X-3438300Y-53500D01*
X-3500800Y-116000D01*
X-4175942Y-116000D01*
X-4183860Y-96886D01*
X-4222246Y-58500D01*
X-4168860Y-5114D01*
X-4130800Y86772D01*
X-4130800Y366228D01*
X-3500800Y366228D01*
X-3500800Y109000D01*
X-3438300Y46500D01*
X-3005800Y46500D01*
X-3005800Y504000D01*
X-3068300Y566500D01*
X-3300528Y566500D01*
X-3392414Y528440D01*
X-3462740Y458114D01*
X-3500800Y366228D01*
X-4130800Y366228D01*
X-4130800Y849000D01*
X-4193300Y911500D01*
X-5520800Y911500D01*
X-5520800Y891500D01*
X-5620800Y891500D01*
X-5620800Y911500D01*
X-6948300Y911500D01*
X-7010800Y849000D01*
X-7010800Y544649D01*
X-7013629Y546539D01*
X-7135761Y668671D01*
X-7153896Y695812D01*
X-7261399Y767643D01*
X-7315902Y778484D01*
X-7315902Y861500D01*
X-7318310Y873606D01*
X-7318310Y910509D01*
X-7323208Y960237D01*
X-7342330Y1056370D01*
X-7356834Y1104186D01*
X-7394343Y1194742D01*
X-7417899Y1238812D01*
X-7472355Y1320311D01*
X-7504055Y1358937D01*
X-7573363Y1428245D01*
X-7611989Y1459945D01*
X-7693488Y1514401D01*
X-7737558Y1537957D01*
X-7828114Y1575466D01*
X-7875930Y1589970D01*
X-7972063Y1609092D01*
X-8021791Y1613990D01*
X-8058694Y1613990D01*
X-8070800Y1616398D01*
X-8570800Y1616398D01*
X-8582906Y1613990D01*
X-8619809Y1613990D01*
X-8669537Y1609092D01*
X-8765670Y1589970D01*
X-8813486Y1575466D01*
X-8904042Y1537957D01*
X-8948112Y1514401D01*
X-9029611Y1459945D01*
X-9068237Y1428245D01*
X-9137545Y1358937D01*
X-9169245Y1320311D01*
X-9223701Y1238812D01*
X-9247257Y1194742D01*
X-9284766Y1104186D01*
X-9299270Y1056370D01*
X-9318392Y960237D01*
X-9323290Y910509D01*
X-9323290Y873606D01*
X-9325698Y861500D01*
X-9325698Y361500D01*
X-9306295Y263955D01*
X-9271246Y211500D01*
X-9306295Y159045D01*
X-9325698Y61500D01*
X-9325698Y-438500D01*
X-9323290Y-450606D01*
X-9323290Y-487509D01*
X-9318392Y-537237D01*
X-9299270Y-633370D01*
X-9284766Y-681186D01*
X-9266706Y-724787D01*
X-9755418Y-1213500D01*
X-10161181Y-1213500D01*
X-9513626Y-565944D01*
X-9486488Y-547812D01*
X-9414657Y-440309D01*
X-9395800Y-345509D01*
X-9395800Y-345508D01*
X-9389433Y-313500D01*
X-9395800Y-281491D01*
X-9395800Y1914491D01*
X-9389433Y1946500D01*
X-9414657Y2073309D01*
X-9418669Y2079314D01*
X-9486488Y2180812D01*
X-9513626Y2198945D01*
X-10195800Y2881118D01*
X-10195800Y5311882D01*
X-8736180Y6771500D01*
X-2955418Y6771500D01*
X-2683300Y6499381D01*
X-2683300Y6499381D01*
G37*
X-2683300Y6499381D02*
X-2683299Y6026397D01*
X-2733300Y6026397D01*
X-2854763Y6002237D01*
X-2953472Y5936281D01*
X-3087573Y6070382D01*
X-3271344Y6146502D01*
X-3470256Y6146502D01*
X-3654027Y6070382D01*
X-3752907Y5971502D01*
X-4203795Y5971502D01*
X-4235799Y5977868D01*
X-4267803Y5971502D01*
X-4267807Y5971502D01*
X-4362607Y5952645D01*
X-4470110Y5880814D01*
X-4488241Y5853679D01*
X-6777971Y3563947D01*
X-6805112Y3545812D01*
X-6854765Y3471500D01*
X-6876943Y3438308D01*
X-6902167Y3311500D01*
X-6895800Y3279491D01*
X-6895800Y2961945D01*
X-6926039Y2941739D01*
X-6981294Y2859045D01*
X-7000697Y2761500D01*
X-7000697Y2161500D01*
X-6981294Y2063955D01*
X-6926039Y1981261D01*
X-6922175Y1978679D01*
X-6972740Y1928114D01*
X-7010800Y1836228D01*
X-7010800Y1074000D01*
X-6948300Y1011500D01*
X-5620800Y1011500D01*
X-5620800Y1031500D01*
X-5520800Y1031500D01*
X-5520800Y1011500D01*
X-4193300Y1011500D01*
X-4130800Y1074000D01*
X-4130800Y1836228D01*
X-4168860Y1928114D01*
X-4219425Y1978679D01*
X-4215561Y1981261D01*
X-4180322Y2034000D01*
X-3045800Y2034000D01*
X-3045800Y1971772D01*
X-3007740Y1879886D01*
X-2937414Y1809560D01*
X-2845528Y1771500D01*
X-2470800Y1771500D01*
X-2408300Y1834000D01*
X-2408300Y2096500D01*
X-2983300Y2096500D01*
X-3045800Y2034000D01*
X-4180322Y2034000D01*
X-4160306Y2063955D01*
X-4145876Y2136500D01*
X-3434805Y2136500D01*
X-3402796Y2130133D01*
X-3370787Y2136500D01*
X-3275987Y2155357D01*
X-3168484Y2227188D01*
X-3150350Y2254328D01*
X-3019179Y2385498D01*
X-3045800Y2321228D01*
X-3045800Y2259000D01*
X-2983300Y2196500D01*
X-2408300Y2196500D01*
X-2408300Y2216500D01*
X-2308300Y2216500D01*
X-2308300Y2196500D01*
X-2288300Y2196500D01*
X-2288300Y2096500D01*
X-2308300Y2096500D01*
X-2308300Y1834000D01*
X-2245800Y1771500D01*
X-2050697Y1771500D01*
X-2050697Y1084000D01*
X-2045800Y1059379D01*
X-2045799Y571397D01*
X-2133300Y571397D01*
X-2287291Y540766D01*
X-2417838Y453538D01*
X-2435818Y426628D01*
X-2448860Y458114D01*
X-2519186Y528440D01*
X-2611072Y566500D01*
X-2843300Y566500D01*
X-2905800Y504000D01*
X-2905800Y46500D01*
X-2885800Y46500D01*
X-2885800Y-53500D01*
X-2905800Y-53500D01*
X-2905800Y-511000D01*
X-2843300Y-573500D01*
X-2611072Y-573500D01*
X-2519186Y-535440D01*
X-2448860Y-465114D01*
X-2435818Y-433628D01*
X-2417838Y-460538D01*
X-2360800Y-498650D01*
X-2360799Y-658350D01*
X-2417838Y-696462D01*
X-2435818Y-723372D01*
X-2448860Y-691886D01*
X-2519186Y-621560D01*
X-2611072Y-583500D01*
X-2843300Y-583500D01*
X-2905800Y-646000D01*
X-2905800Y-1103500D01*
X-2885800Y-1103500D01*
X-2885800Y-1203500D01*
X-2905800Y-1203500D01*
X-2905800Y-1661000D01*
X-2843300Y-1723500D01*
X-2611072Y-1723500D01*
X-2519186Y-1685440D01*
X-2448860Y-1615114D01*
X-2435818Y-1583628D01*
X-2417838Y-1610538D01*
X-2348672Y-1656753D01*
X-2855418Y-2163500D01*
X-2973792Y-2163500D01*
X-3005801Y-2157133D01*
X-3132609Y-2182357D01*
X-3176537Y-2211709D01*
X-3240112Y-2254188D01*
X-3258243Y-2281323D01*
X-3790522Y-2813603D01*
X-4053300Y-2813603D01*
X-4207291Y-2844234D01*
X-4337838Y-2931462D01*
X-4425066Y-3062009D01*
X-4455697Y-3216000D01*
X-4455697Y-3478777D01*
X-4745800Y-3768881D01*
X-4745800Y-1266000D01*
X-3500800Y-1266000D01*
X-3500800Y-1523228D01*
X-3462740Y-1615114D01*
X-3392414Y-1685440D01*
X-3300528Y-1723500D01*
X-3068300Y-1723500D01*
X-3005800Y-1661000D01*
X-3005800Y-1203500D01*
X-3438300Y-1203500D01*
X-3500800Y-1266000D01*
X-4745800Y-1266000D01*
X-4745800Y-1088500D01*
X-4683300Y-1088500D01*
X-4620800Y-1026000D01*
X-4620800Y-588500D01*
X-4520800Y-588500D01*
X-4520800Y-1026000D01*
X-4458300Y-1088500D01*
X-4346072Y-1088500D01*
X-4254186Y-1050440D01*
X-4183860Y-980114D01*
X-4145800Y-888228D01*
X-4145800Y-783772D01*
X-3500800Y-783772D01*
X-3500800Y-1041000D01*
X-3438300Y-1103500D01*
X-3005800Y-1103500D01*
X-3005800Y-646000D01*
X-3068300Y-583500D01*
X-3300528Y-583500D01*
X-3392414Y-621560D01*
X-3462740Y-691886D01*
X-3500800Y-783772D01*
X-4145800Y-783772D01*
X-4145800Y-651000D01*
X-4208300Y-588500D01*
X-4520800Y-588500D01*
X-4620800Y-588500D01*
X-4640800Y-588500D01*
X-4640800Y-488500D01*
X-4620800Y-488500D01*
X-4620800Y-468500D01*
X-4520800Y-468500D01*
X-4520800Y-488500D01*
X-4208300Y-488500D01*
X-4145800Y-426000D01*
X-4145800Y-188772D01*
X-4175942Y-116000D01*
X-3500800Y-116000D01*
X-3500800Y-373228D01*
X-3462740Y-465114D01*
X-3392414Y-535440D01*
X-3300528Y-573500D01*
X-3068300Y-573500D01*
X-3005800Y-511000D01*
X-3005800Y-53500D01*
X-3438300Y-53500D01*
X-3500800Y-116000D01*
X-4175942Y-116000D01*
X-4183860Y-96886D01*
X-4222246Y-58500D01*
X-4168860Y-5114D01*
X-4130800Y86772D01*
X-4130800Y366228D01*
X-3500800Y366228D01*
X-3500800Y109000D01*
X-3438300Y46500D01*
X-3005800Y46500D01*
X-3005800Y504000D01*
X-3068300Y566500D01*
X-3300528Y566500D01*
X-3392414Y528440D01*
X-3462740Y458114D01*
X-3500800Y366228D01*
X-4130800Y366228D01*
X-4130800Y849000D01*
X-4193300Y911500D01*
X-5520800Y911500D01*
X-5520800Y891500D01*
X-5620800Y891500D01*
X-5620800Y911500D01*
X-6948300Y911500D01*
X-7010800Y849000D01*
X-7010800Y544649D01*
X-7013629Y546539D01*
X-7135761Y668671D01*
X-7153896Y695812D01*
X-7261399Y767643D01*
X-7315902Y778484D01*
X-7315902Y861500D01*
X-7318310Y873606D01*
X-7318310Y910509D01*
X-7323208Y960237D01*
X-7342330Y1056370D01*
X-7356834Y1104186D01*
X-7394343Y1194742D01*
X-7417899Y1238812D01*
X-7472355Y1320311D01*
X-7504055Y1358937D01*
X-7573363Y1428245D01*
X-7611989Y1459945D01*
X-7693488Y1514401D01*
X-7737558Y1537957D01*
X-7828114Y1575466D01*
X-7875930Y1589970D01*
X-7972063Y1609092D01*
X-8021791Y1613990D01*
X-8058694Y1613990D01*
X-8070800Y1616398D01*
X-8570800Y1616398D01*
X-8582906Y1613990D01*
X-8619809Y1613990D01*
X-8669537Y1609092D01*
X-8765670Y1589970D01*
X-8813486Y1575466D01*
X-8904042Y1537957D01*
X-8948112Y1514401D01*
X-9029611Y1459945D01*
X-9068237Y1428245D01*
X-9137545Y1358937D01*
X-9169245Y1320311D01*
X-9223701Y1238812D01*
X-9247257Y1194742D01*
X-9284766Y1104186D01*
X-9299270Y1056370D01*
X-9318392Y960237D01*
X-9323290Y910509D01*
X-9323290Y873606D01*
X-9325698Y861500D01*
X-9325698Y361500D01*
X-9306295Y263955D01*
X-9271246Y211500D01*
X-9306295Y159045D01*
X-9325698Y61500D01*
X-9325698Y-438500D01*
X-9323290Y-450606D01*
X-9323290Y-487509D01*
X-9318392Y-537237D01*
X-9299270Y-633370D01*
X-9284766Y-681186D01*
X-9266706Y-724787D01*
X-9755418Y-1213500D01*
X-10161181Y-1213500D01*
X-9513626Y-565944D01*
X-9486488Y-547812D01*
X-9414657Y-440309D01*
X-9395800Y-345509D01*
X-9395800Y-345508D01*
X-9389433Y-313500D01*
X-9395800Y-281491D01*
X-9395800Y1914491D01*
X-9389433Y1946500D01*
X-9414657Y2073309D01*
X-9418669Y2079314D01*
X-9486488Y2180812D01*
X-9513626Y2198945D01*
X-10195800Y2881118D01*
X-10195800Y5311882D01*
X-8736180Y6771500D01*
X-2955418Y6771500D01*
X-2683300Y6499381D01*
G36*
X1629200Y-1738500D02*
X1649200Y-1738500D01*
X1649200Y-1838500D01*
X1629200Y-1838500D01*
X1629200Y-2201000D01*
X1691700Y-2263500D01*
X1778928Y-2263500D01*
X1824879Y-2244467D01*
X1831655Y-2248994D01*
X1929200Y-2268397D01*
X1953768Y-2268397D01*
X2169201Y-2483830D01*
X2169201Y-2491376D01*
X2168230Y-2492829D01*
X2149200Y-2588500D01*
X2149200Y-3018500D01*
X2168230Y-3114171D01*
X2217895Y-3188500D01*
X2168230Y-3262829D01*
X2160098Y-3303713D01*
X1939902Y-3083518D01*
X1917584Y-3050116D01*
X1785272Y-2961709D01*
X1668594Y-2938500D01*
X1629200Y-2930664D01*
X1589806Y-2938500D01*
X1241332Y-2938500D01*
X1124015Y-2821184D01*
X1179200Y-2687956D01*
X1179200Y-2489044D01*
X1103080Y-2305273D01*
X1066204Y-2268397D01*
X1229200Y-2268397D01*
X1326745Y-2248994D01*
X1333521Y-2244467D01*
X1379472Y-2263500D01*
X1466700Y-2263500D01*
X1529200Y-2201000D01*
X1529200Y-1838500D01*
X1509200Y-1838500D01*
X1509200Y-1738500D01*
X1529200Y-1738500D01*
X1529200Y-1718500D01*
X1629200Y-1718500D01*
X1629200Y-1738500D01*
X1629200Y-1738500D01*
G37*
X1629200Y-1738500D02*
X1649200Y-1738500D01*
X1649200Y-1838500D01*
X1629200Y-1838500D01*
X1629200Y-2201000D01*
X1691700Y-2263500D01*
X1778928Y-2263500D01*
X1824879Y-2244467D01*
X1831655Y-2248994D01*
X1929200Y-2268397D01*
X1953768Y-2268397D01*
X2169201Y-2483830D01*
X2169201Y-2491376D01*
X2168230Y-2492829D01*
X2149200Y-2588500D01*
X2149200Y-3018500D01*
X2168230Y-3114171D01*
X2217895Y-3188500D01*
X2168230Y-3262829D01*
X2160098Y-3303713D01*
X1939902Y-3083518D01*
X1917584Y-3050116D01*
X1785272Y-2961709D01*
X1668594Y-2938500D01*
X1629200Y-2930664D01*
X1589806Y-2938500D01*
X1241332Y-2938500D01*
X1124015Y-2821184D01*
X1179200Y-2687956D01*
X1179200Y-2489044D01*
X1103080Y-2305273D01*
X1066204Y-2268397D01*
X1229200Y-2268397D01*
X1326745Y-2248994D01*
X1333521Y-2244467D01*
X1379472Y-2263500D01*
X1466700Y-2263500D01*
X1529200Y-2201000D01*
X1529200Y-1838500D01*
X1509200Y-1838500D01*
X1509200Y-1738500D01*
X1529200Y-1738500D01*
X1529200Y-1718500D01*
X1629200Y-1718500D01*
X1629200Y-1738500D01*
G36*
X9200071Y1992775D02*
X8891423Y2301423D01*
X8468749Y2476500D01*
X8011251Y2476500D01*
X7799510Y2388794D01*
X7799510Y2393562D01*
X7677731Y2687563D01*
X7517567Y2847727D01*
X7618118Y2889377D01*
X7718757Y3047032D01*
X6970000Y3795789D01*
X6955858Y3781647D01*
X6885147Y3852358D01*
X6899289Y3866500D01*
X6885147Y3880642D01*
X6955858Y3951353D01*
X6970000Y3937211D01*
X6984142Y3951353D01*
X7054853Y3880642D01*
X7040711Y3866500D01*
X7789468Y3117743D01*
X7947123Y3218382D01*
X8120768Y3641646D01*
X8119219Y4099142D01*
X7947123Y4514618D01*
X7789469Y4615256D01*
X7833075Y4658862D01*
X7808737Y4683200D01*
X8097636Y4683200D01*
X8389493Y4741254D01*
X8720461Y4962399D01*
X8941606Y5293367D01*
X9019262Y5683770D01*
X8941606Y6074173D01*
X8720461Y6405141D01*
X8389493Y6626286D01*
X8097636Y6684340D01*
X5901564Y6684340D01*
X5609707Y6626286D01*
X5436525Y6510570D01*
X5364097Y6582998D01*
X5364097Y6669000D01*
X5333466Y6822991D01*
X5246238Y6953538D01*
X5115691Y7040766D01*
X4961700Y7071397D01*
X4666700Y7071397D01*
X4649733Y7068022D01*
X4655398Y7096500D01*
X4649530Y7126001D01*
X4649530Y7821970D01*
X9200071Y7821970D01*
X9200071Y1992775D01*
X9200071Y1992775D01*
G37*
X9200071Y1992775D02*
X8891423Y2301423D01*
X8468749Y2476500D01*
X8011251Y2476500D01*
X7799510Y2388794D01*
X7799510Y2393562D01*
X7677731Y2687563D01*
X7517567Y2847727D01*
X7618118Y2889377D01*
X7718757Y3047032D01*
X6970000Y3795789D01*
X6955858Y3781647D01*
X6885147Y3852358D01*
X6899289Y3866500D01*
X6885147Y3880642D01*
X6955858Y3951353D01*
X6970000Y3937211D01*
X6984142Y3951353D01*
X7054853Y3880642D01*
X7040711Y3866500D01*
X7789468Y3117743D01*
X7947123Y3218382D01*
X8120768Y3641646D01*
X8119219Y4099142D01*
X7947123Y4514618D01*
X7789469Y4615256D01*
X7833075Y4658862D01*
X7808737Y4683200D01*
X8097636Y4683200D01*
X8389493Y4741254D01*
X8720461Y4962399D01*
X8941606Y5293367D01*
X9019262Y5683770D01*
X8941606Y6074173D01*
X8720461Y6405141D01*
X8389493Y6626286D01*
X8097636Y6684340D01*
X5901564Y6684340D01*
X5609707Y6626286D01*
X5436525Y6510570D01*
X5364097Y6582998D01*
X5364097Y6669000D01*
X5333466Y6822991D01*
X5246238Y6953538D01*
X5115691Y7040766D01*
X4961700Y7071397D01*
X4666700Y7071397D01*
X4649733Y7068022D01*
X4655398Y7096500D01*
X4649530Y7126001D01*
X4649530Y7821970D01*
X9200071Y7821970D01*
X9200071Y1992775D01*
G36*
X5609707Y4741254D02*
X5901564Y4683200D01*
X6131263Y4683200D01*
X6106925Y4658862D01*
X6150531Y4615256D01*
X5992877Y4514618D01*
X5819232Y4091354D01*
X5820781Y3633858D01*
X5939809Y3346500D01*
X5879744Y3346500D01*
X5817664Y3320786D01*
X5805977Y3338277D01*
X5724871Y3392470D01*
X5665067Y3404366D01*
X5699200Y3486772D01*
X5699200Y3719000D01*
X5636700Y3781500D01*
X5179200Y3781500D01*
X5179200Y3761500D01*
X5079200Y3761500D01*
X5079200Y3781500D01*
X4621700Y3781500D01*
X4601700Y3761500D01*
X4506700Y3761500D01*
X4486700Y3781500D01*
X4029200Y3781500D01*
X4029200Y3761500D01*
X3979200Y3761500D01*
X3979200Y3901500D01*
X4029200Y3901500D01*
X4029200Y3881500D01*
X4486700Y3881500D01*
X4516700Y3911500D01*
X4591700Y3911500D01*
X4621700Y3881500D01*
X5079200Y3881500D01*
X5079200Y3901500D01*
X5179200Y3901500D01*
X5179200Y3881500D01*
X5636700Y3881500D01*
X5699200Y3944000D01*
X5699200Y4176228D01*
X5661140Y4268114D01*
X5590814Y4338440D01*
X5498928Y4376500D01*
X5379200Y4376500D01*
X5379200Y4775104D01*
X5451236Y4847140D01*
X5609707Y4741254D01*
X5609707Y4741254D01*
G37*
X5609707Y4741254D02*
X5901564Y4683200D01*
X6131263Y4683200D01*
X6106925Y4658862D01*
X6150531Y4615256D01*
X5992877Y4514618D01*
X5819232Y4091354D01*
X5820781Y3633858D01*
X5939809Y3346500D01*
X5879744Y3346500D01*
X5817664Y3320786D01*
X5805977Y3338277D01*
X5724871Y3392470D01*
X5665067Y3404366D01*
X5699200Y3486772D01*
X5699200Y3719000D01*
X5636700Y3781500D01*
X5179200Y3781500D01*
X5179200Y3761500D01*
X5079200Y3761500D01*
X5079200Y3781500D01*
X4621700Y3781500D01*
X4601700Y3761500D01*
X4506700Y3761500D01*
X4486700Y3781500D01*
X4029200Y3781500D01*
X4029200Y3761500D01*
X3979200Y3761500D01*
X3979200Y3901500D01*
X4029200Y3901500D01*
X4029200Y3881500D01*
X4486700Y3881500D01*
X4516700Y3911500D01*
X4591700Y3911500D01*
X4621700Y3881500D01*
X5079200Y3881500D01*
X5079200Y3901500D01*
X5179200Y3901500D01*
X5179200Y3881500D01*
X5636700Y3881500D01*
X5699200Y3944000D01*
X5699200Y4176228D01*
X5661140Y4268114D01*
X5590814Y4338440D01*
X5498928Y4376500D01*
X5379200Y4376500D01*
X5379200Y4775104D01*
X5451236Y4847140D01*
X5609707Y4741254D01*
G36*
X4382162Y6039462D02*
X4512709Y5952234D01*
X4666700Y5921603D01*
X4752702Y5921603D01*
X4981696Y5692608D01*
X4979938Y5683770D01*
X4985767Y5654464D01*
X4752701Y5421397D01*
X4666700Y5421397D01*
X4512709Y5390766D01*
X4382162Y5303538D01*
X4364182Y5276628D01*
X4351140Y5308114D01*
X4280814Y5378440D01*
X4188928Y5416500D01*
X3979200Y5416500D01*
X3979200Y5926500D01*
X4188928Y5926500D01*
X4280814Y5964560D01*
X4351140Y6034886D01*
X4364182Y6066372D01*
X4382162Y6039462D01*
X4382162Y6039462D01*
G37*
X4382162Y6039462D02*
X4512709Y5952234D01*
X4666700Y5921603D01*
X4752702Y5921603D01*
X4981696Y5692608D01*
X4979938Y5683770D01*
X4985767Y5654464D01*
X4752701Y5421397D01*
X4666700Y5421397D01*
X4512709Y5390766D01*
X4382162Y5303538D01*
X4364182Y5276628D01*
X4351140Y5308114D01*
X4280814Y5378440D01*
X4188928Y5416500D01*
X3979200Y5416500D01*
X3979200Y5926500D01*
X4188928Y5926500D01*
X4280814Y5964560D01*
X4351140Y6034886D01*
X4364182Y6066372D01*
X4382162Y6039462D01*
D15*
G04 #@! TO.N,+3V3*
G36*
X3375470Y7123537D02*
X3370092Y7096500D01*
X3391399Y6989384D01*
X3428790Y6933424D01*
X3348482Y6813236D01*
X3319792Y6669000D01*
X3319792Y6324000D01*
X3348482Y6179764D01*
X3430186Y6057486D01*
X3469200Y6031417D01*
X3469200Y5958252D01*
X3426514Y5915566D01*
X3354200Y5740983D01*
X3354200Y5552017D01*
X3426514Y5377434D01*
X3469201Y5334747D01*
X3469201Y5311583D01*
X3430186Y5285514D01*
X3348482Y5163236D01*
X3319792Y5019000D01*
X3319792Y4674000D01*
X3348482Y4529764D01*
X3430186Y4407486D01*
X3469201Y4381417D01*
X3469201Y4139278D01*
X3458482Y4123236D01*
X3429792Y3979000D01*
X3429792Y3684000D01*
X3458482Y3539764D01*
X3540186Y3417486D01*
X3601850Y3376283D01*
X3531748Y3347246D01*
X3468454Y3283952D01*
X3434200Y3201255D01*
X3434200Y2942750D01*
X3490450Y2886500D01*
X3954200Y2886500D01*
X3954200Y2906500D01*
X4004200Y2906500D01*
X4004200Y2886500D01*
X4467950Y2886500D01*
X4517950Y2936500D01*
X4590450Y2936500D01*
X4640450Y2886500D01*
X5104200Y2886500D01*
X5104200Y2906500D01*
X5154200Y2906500D01*
X5154200Y2886500D01*
X5174200Y2886500D01*
X5174200Y2836500D01*
X5154200Y2836500D01*
X5154200Y2816500D01*
X5104200Y2816500D01*
X5104200Y2836500D01*
X4640450Y2836500D01*
X4590450Y2786500D01*
X4517950Y2786500D01*
X4467950Y2836500D01*
X4004200Y2836500D01*
X4004200Y2816500D01*
X3954200Y2816500D01*
X3954200Y2836500D01*
X3490450Y2836500D01*
X3434200Y2780250D01*
X3434200Y2571500D01*
X3181122Y2571500D01*
X3183608Y2584000D01*
X3183608Y2709000D01*
X3161388Y2820708D01*
X3110745Y2896500D01*
X3161388Y2972292D01*
X3183608Y3084000D01*
X3183608Y3209000D01*
X3161388Y3320708D01*
X3110745Y3396500D01*
X3161388Y3472292D01*
X3183608Y3584000D01*
X3183608Y3709000D01*
X3161388Y3820708D01*
X3110745Y3896500D01*
X3161388Y3972292D01*
X3183608Y4084000D01*
X3183608Y4209000D01*
X3161388Y4320708D01*
X3110745Y4396500D01*
X3161388Y4472292D01*
X3183608Y4584000D01*
X3183608Y4709000D01*
X3161388Y4820708D01*
X3125426Y4874528D01*
X3144946Y4894048D01*
X3179200Y4976745D01*
X3179200Y5065250D01*
X3122950Y5121500D01*
X2541700Y5121500D01*
X2541700Y5101500D01*
X2491700Y5101500D01*
X2491700Y5121500D01*
X2471700Y5121500D01*
X2471700Y5171500D01*
X2491700Y5171500D01*
X2491700Y5191500D01*
X2541700Y5191500D01*
X2541700Y5171500D01*
X3122950Y5171500D01*
X3179200Y5227750D01*
X3179200Y5316255D01*
X3144946Y5398952D01*
X3125426Y5418472D01*
X3161388Y5472292D01*
X3183608Y5584000D01*
X3183608Y5709000D01*
X3161388Y5820708D01*
X3098110Y5915410D01*
X3003408Y5978688D01*
X2903094Y5998642D01*
X2931886Y6027434D01*
X3004200Y6202017D01*
X3004200Y6390983D01*
X2931886Y6565566D01*
X2798266Y6699186D01*
X2623683Y6771500D01*
X2434717Y6771500D01*
X2260134Y6699186D01*
X2179200Y6618252D01*
X2179200Y6816255D01*
X2144946Y6898952D01*
X2081652Y6962246D01*
X1998956Y6996500D01*
X1910450Y6996500D01*
X1854200Y6940250D01*
X1854200Y6359000D01*
X1874200Y6359000D01*
X1874200Y6309000D01*
X1854200Y6309000D01*
X1854200Y6289000D01*
X1804200Y6289000D01*
X1804200Y6309000D01*
X1784200Y6309000D01*
X1784200Y6359000D01*
X1804200Y6359000D01*
X1804200Y6940250D01*
X1747950Y6996500D01*
X1659444Y6996500D01*
X1576748Y6962246D01*
X1557228Y6942726D01*
X1503408Y6978688D01*
X1391700Y7000908D01*
X1266700Y7000908D01*
X1189882Y6985628D01*
X1231886Y7027632D01*
X1304200Y7202215D01*
X1304200Y7391181D01*
X1231886Y7565764D01*
X1098266Y7699384D01*
X923683Y7771698D01*
X734717Y7771698D01*
X560134Y7699384D01*
X426514Y7565764D01*
X354200Y7391181D01*
X354200Y7202215D01*
X426514Y7027632D01*
X468518Y6985628D01*
X391700Y7000908D01*
X266700Y7000908D01*
X154992Y6978688D01*
X101172Y6942726D01*
X81652Y6962246D01*
X-1044Y6996500D01*
X-89550Y6996500D01*
X-145800Y6940250D01*
X-145800Y6359000D01*
X-125800Y6359000D01*
X-125800Y6309000D01*
X-145800Y6309000D01*
X-145800Y6289000D01*
X-195800Y6289000D01*
X-195800Y6309000D01*
X-215800Y6309000D01*
X-215800Y6359000D01*
X-195800Y6359000D01*
X-195800Y6940250D01*
X-252050Y6996500D01*
X-299024Y6996500D01*
X-268114Y7027410D01*
X-195800Y7201993D01*
X-195800Y7390959D01*
X-268114Y7565542D01*
X-401734Y7699162D01*
X-576317Y7771476D01*
X-765283Y7771476D01*
X-939866Y7699162D01*
X-1073486Y7565542D01*
X-1145800Y7390959D01*
X-1145800Y7390496D01*
X-1602275Y7846970D01*
X3375471Y7846970D01*
X3375470Y7123537D01*
X3375470Y7123537D01*
G37*
X3375470Y7123537D02*
X3370092Y7096500D01*
X3391399Y6989384D01*
X3428790Y6933424D01*
X3348482Y6813236D01*
X3319792Y6669000D01*
X3319792Y6324000D01*
X3348482Y6179764D01*
X3430186Y6057486D01*
X3469200Y6031417D01*
X3469200Y5958252D01*
X3426514Y5915566D01*
X3354200Y5740983D01*
X3354200Y5552017D01*
X3426514Y5377434D01*
X3469201Y5334747D01*
X3469201Y5311583D01*
X3430186Y5285514D01*
X3348482Y5163236D01*
X3319792Y5019000D01*
X3319792Y4674000D01*
X3348482Y4529764D01*
X3430186Y4407486D01*
X3469201Y4381417D01*
X3469201Y4139278D01*
X3458482Y4123236D01*
X3429792Y3979000D01*
X3429792Y3684000D01*
X3458482Y3539764D01*
X3540186Y3417486D01*
X3601850Y3376283D01*
X3531748Y3347246D01*
X3468454Y3283952D01*
X3434200Y3201255D01*
X3434200Y2942750D01*
X3490450Y2886500D01*
X3954200Y2886500D01*
X3954200Y2906500D01*
X4004200Y2906500D01*
X4004200Y2886500D01*
X4467950Y2886500D01*
X4517950Y2936500D01*
X4590450Y2936500D01*
X4640450Y2886500D01*
X5104200Y2886500D01*
X5104200Y2906500D01*
X5154200Y2906500D01*
X5154200Y2886500D01*
X5174200Y2886500D01*
X5174200Y2836500D01*
X5154200Y2836500D01*
X5154200Y2816500D01*
X5104200Y2816500D01*
X5104200Y2836500D01*
X4640450Y2836500D01*
X4590450Y2786500D01*
X4517950Y2786500D01*
X4467950Y2836500D01*
X4004200Y2836500D01*
X4004200Y2816500D01*
X3954200Y2816500D01*
X3954200Y2836500D01*
X3490450Y2836500D01*
X3434200Y2780250D01*
X3434200Y2571500D01*
X3181122Y2571500D01*
X3183608Y2584000D01*
X3183608Y2709000D01*
X3161388Y2820708D01*
X3110745Y2896500D01*
X3161388Y2972292D01*
X3183608Y3084000D01*
X3183608Y3209000D01*
X3161388Y3320708D01*
X3110745Y3396500D01*
X3161388Y3472292D01*
X3183608Y3584000D01*
X3183608Y3709000D01*
X3161388Y3820708D01*
X3110745Y3896500D01*
X3161388Y3972292D01*
X3183608Y4084000D01*
X3183608Y4209000D01*
X3161388Y4320708D01*
X3110745Y4396500D01*
X3161388Y4472292D01*
X3183608Y4584000D01*
X3183608Y4709000D01*
X3161388Y4820708D01*
X3125426Y4874528D01*
X3144946Y4894048D01*
X3179200Y4976745D01*
X3179200Y5065250D01*
X3122950Y5121500D01*
X2541700Y5121500D01*
X2541700Y5101500D01*
X2491700Y5101500D01*
X2491700Y5121500D01*
X2471700Y5121500D01*
X2471700Y5171500D01*
X2491700Y5171500D01*
X2491700Y5191500D01*
X2541700Y5191500D01*
X2541700Y5171500D01*
X3122950Y5171500D01*
X3179200Y5227750D01*
X3179200Y5316255D01*
X3144946Y5398952D01*
X3125426Y5418472D01*
X3161388Y5472292D01*
X3183608Y5584000D01*
X3183608Y5709000D01*
X3161388Y5820708D01*
X3098110Y5915410D01*
X3003408Y5978688D01*
X2903094Y5998642D01*
X2931886Y6027434D01*
X3004200Y6202017D01*
X3004200Y6390983D01*
X2931886Y6565566D01*
X2798266Y6699186D01*
X2623683Y6771500D01*
X2434717Y6771500D01*
X2260134Y6699186D01*
X2179200Y6618252D01*
X2179200Y6816255D01*
X2144946Y6898952D01*
X2081652Y6962246D01*
X1998956Y6996500D01*
X1910450Y6996500D01*
X1854200Y6940250D01*
X1854200Y6359000D01*
X1874200Y6359000D01*
X1874200Y6309000D01*
X1854200Y6309000D01*
X1854200Y6289000D01*
X1804200Y6289000D01*
X1804200Y6309000D01*
X1784200Y6309000D01*
X1784200Y6359000D01*
X1804200Y6359000D01*
X1804200Y6940250D01*
X1747950Y6996500D01*
X1659444Y6996500D01*
X1576748Y6962246D01*
X1557228Y6942726D01*
X1503408Y6978688D01*
X1391700Y7000908D01*
X1266700Y7000908D01*
X1189882Y6985628D01*
X1231886Y7027632D01*
X1304200Y7202215D01*
X1304200Y7391181D01*
X1231886Y7565764D01*
X1098266Y7699384D01*
X923683Y7771698D01*
X734717Y7771698D01*
X560134Y7699384D01*
X426514Y7565764D01*
X354200Y7391181D01*
X354200Y7202215D01*
X426514Y7027632D01*
X468518Y6985628D01*
X391700Y7000908D01*
X266700Y7000908D01*
X154992Y6978688D01*
X101172Y6942726D01*
X81652Y6962246D01*
X-1044Y6996500D01*
X-89550Y6996500D01*
X-145800Y6940250D01*
X-145800Y6359000D01*
X-125800Y6359000D01*
X-125800Y6309000D01*
X-145800Y6309000D01*
X-145800Y6289000D01*
X-195800Y6289000D01*
X-195800Y6309000D01*
X-215800Y6309000D01*
X-215800Y6359000D01*
X-195800Y6359000D01*
X-195800Y6940250D01*
X-252050Y6996500D01*
X-299024Y6996500D01*
X-268114Y7027410D01*
X-195800Y7201993D01*
X-195800Y7390959D01*
X-268114Y7565542D01*
X-401734Y7699162D01*
X-576317Y7771476D01*
X-765283Y7771476D01*
X-939866Y7699162D01*
X-1073486Y7565542D01*
X-1145800Y7390959D01*
X-1145800Y7390496D01*
X-1602275Y7846970D01*
X3375471Y7846970D01*
X3375470Y7123537D01*
G04 #@! TD*
M02*
