G04 #@! TF.GenerationSoftware,KiCad,Pcbnew,5.1.6-c6e7f7d~86~ubuntu18.04.1*
G04 #@! TF.CreationDate,2020-06-25T15:29:40+02:00*
G04 #@! TF.ProjectId,nk-fido2,6e6b2d66-6964-46f3-922e-6b696361645f,R5*
G04 #@! TF.SameCoordinates,Original*
G04 #@! TF.FileFunction,Copper,L1,Top*
G04 #@! TF.FilePolarity,Positive*
%FSLAX46Y46*%
G04 Gerber Fmt 4.6, Leading zero omitted, Abs format (unit mm)*
G04 Created by KiCad (PCBNEW 5.1.6-c6e7f7d~86~ubuntu18.04.1) date 2020-06-25 15:29:40*
%MOMM*%
%LPD*%
G01*
G04 APERTURE LIST*
G04 #@! TA.AperFunction,EtchedComponent*
%ADD10C,0.150000*%
G04 #@! TD*
G04 #@! TA.AperFunction,SMDPad,CuDef*
%ADD11C,0.150000*%
G04 #@! TD*
G04 #@! TA.AperFunction,ComponentPad*
%ADD12O,3.500120X1.501140*%
G04 #@! TD*
G04 #@! TA.AperFunction,SMDPad,CuDef*
%ADD13R,3.100000X2.200000*%
G04 #@! TD*
G04 #@! TA.AperFunction,SMDPad,CuDef*
%ADD14R,0.350000X0.600000*%
G04 #@! TD*
G04 #@! TA.AperFunction,SMDPad,CuDef*
%ADD15R,2.380000X1.650000*%
G04 #@! TD*
G04 #@! TA.AperFunction,SMDPad,CuDef*
%ADD16R,1.500000X1.300000*%
G04 #@! TD*
G04 #@! TA.AperFunction,SMDPad,CuDef*
%ADD17R,0.300000X0.550000*%
G04 #@! TD*
G04 #@! TA.AperFunction,SMDPad,CuDef*
%ADD18R,1.060000X0.650000*%
G04 #@! TD*
G04 #@! TA.AperFunction,SMDPad,CuDef*
%ADD19C,1.750000*%
G04 #@! TD*
G04 #@! TA.AperFunction,SMDPad,CuDef*
%ADD20R,0.100000X0.100000*%
G04 #@! TD*
G04 #@! TA.AperFunction,SMDPad,CuDef*
%ADD21R,0.300000X0.450000*%
G04 #@! TD*
G04 #@! TA.AperFunction,SMDPad,CuDef*
%ADD22C,1.800000*%
G04 #@! TD*
G04 #@! TA.AperFunction,ViaPad*
%ADD23C,0.500000*%
G04 #@! TD*
G04 #@! TA.AperFunction,Conductor*
%ADD24C,0.150000*%
G04 #@! TD*
G04 #@! TA.AperFunction,Conductor*
%ADD25C,0.200000*%
G04 #@! TD*
G04 #@! TA.AperFunction,Conductor*
%ADD26C,0.300000*%
G04 #@! TD*
G04 #@! TA.AperFunction,Conductor*
%ADD27C,0.400000*%
G04 #@! TD*
G04 #@! TA.AperFunction,Conductor*
%ADD28C,0.250000*%
G04 #@! TD*
G04 #@! TA.AperFunction,Conductor*
%ADD29C,0.254000*%
G04 #@! TD*
G04 #@! TA.AperFunction,Conductor*
%ADD30C,0.450000*%
G04 #@! TD*
G04 APERTURE END LIST*
D10*
G36*
X135112000Y-105317890D02*
G01*
X135712000Y-104717890D01*
X135712000Y-106817890D01*
X132312000Y-106817890D01*
X132312000Y-104717890D01*
X132912000Y-105317890D01*
X135112000Y-105317890D01*
G37*
X135112000Y-105317890D02*
X135712000Y-104717890D01*
X135712000Y-106817890D01*
X132312000Y-106817890D01*
X132312000Y-104717890D01*
X132912000Y-105317890D01*
X135112000Y-105317890D01*
G36*
X132912000Y-92718370D02*
G01*
X132312000Y-93318370D01*
X132312000Y-91218370D01*
X135712000Y-91218370D01*
X135712000Y-93318370D01*
X135112000Y-92718370D01*
X132912000Y-92718370D01*
G37*
X132912000Y-92718370D02*
X132312000Y-93318370D01*
X132312000Y-91218370D01*
X135712000Y-91218370D01*
X135712000Y-93318370D01*
X135112000Y-92718370D01*
X132912000Y-92718370D01*
G36*
X129399200Y-101585000D02*
G01*
X129399200Y-102015000D01*
X129499200Y-102015000D01*
X129699200Y-101815000D01*
X129699200Y-101585000D01*
X129399200Y-101585000D01*
G37*
G36*
X130359200Y-101585000D02*
G01*
X130359200Y-102015000D01*
X130259200Y-102015000D01*
X130059200Y-101815000D01*
X130059200Y-101585000D01*
X130359200Y-101585000D01*
G37*
G36*
X130359200Y-102885000D02*
G01*
X130359200Y-102455000D01*
X130259200Y-102455000D01*
X130059200Y-102655000D01*
X130059200Y-102885000D01*
X130359200Y-102885000D01*
G37*
G36*
X129399200Y-102885000D02*
G01*
X129699200Y-102885000D01*
X129699200Y-102655000D01*
X129399200Y-102355000D01*
X129399200Y-102885000D01*
G37*
G04 #@! TA.AperFunction,SMDPad,CuDef*
D11*
G36*
X119428598Y-99435000D02*
G01*
X119428598Y-99459534D01*
X119423788Y-99508365D01*
X119414216Y-99556490D01*
X119399972Y-99603445D01*
X119381195Y-99648778D01*
X119358064Y-99692051D01*
X119330804Y-99732850D01*
X119299676Y-99770779D01*
X119264979Y-99805476D01*
X119227050Y-99836604D01*
X119186251Y-99863864D01*
X119142978Y-99886995D01*
X119097645Y-99905772D01*
X119050690Y-99920016D01*
X119002565Y-99929588D01*
X118953734Y-99934398D01*
X118929200Y-99934398D01*
X118929200Y-99935000D01*
X118429200Y-99935000D01*
X118429200Y-99934398D01*
X118404666Y-99934398D01*
X118355835Y-99929588D01*
X118307710Y-99920016D01*
X118260755Y-99905772D01*
X118215422Y-99886995D01*
X118172149Y-99863864D01*
X118131350Y-99836604D01*
X118093421Y-99805476D01*
X118058724Y-99770779D01*
X118027596Y-99732850D01*
X118000336Y-99692051D01*
X117977205Y-99648778D01*
X117958428Y-99603445D01*
X117944184Y-99556490D01*
X117934612Y-99508365D01*
X117929802Y-99459534D01*
X117929802Y-99435000D01*
X117929200Y-99435000D01*
X117929200Y-98935000D01*
X119429200Y-98935000D01*
X119429200Y-99435000D01*
X119428598Y-99435000D01*
G37*
G04 #@! TD.AperFunction*
G04 #@! TA.AperFunction,SMDPad,CuDef*
G36*
X117929200Y-98635000D02*
G01*
X117929200Y-98135000D01*
X117929802Y-98135000D01*
X117929802Y-98110466D01*
X117934612Y-98061635D01*
X117944184Y-98013510D01*
X117958428Y-97966555D01*
X117977205Y-97921222D01*
X118000336Y-97877949D01*
X118027596Y-97837150D01*
X118058724Y-97799221D01*
X118093421Y-97764524D01*
X118131350Y-97733396D01*
X118172149Y-97706136D01*
X118215422Y-97683005D01*
X118260755Y-97664228D01*
X118307710Y-97649984D01*
X118355835Y-97640412D01*
X118404666Y-97635602D01*
X118429200Y-97635602D01*
X118429200Y-97635000D01*
X118929200Y-97635000D01*
X118929200Y-97635602D01*
X118953734Y-97635602D01*
X119002565Y-97640412D01*
X119050690Y-97649984D01*
X119097645Y-97664228D01*
X119142978Y-97683005D01*
X119186251Y-97706136D01*
X119227050Y-97733396D01*
X119264979Y-97764524D01*
X119299676Y-97799221D01*
X119330804Y-97837150D01*
X119358064Y-97877949D01*
X119381195Y-97921222D01*
X119399972Y-97966555D01*
X119414216Y-98013510D01*
X119423788Y-98061635D01*
X119428598Y-98110466D01*
X119428598Y-98135000D01*
X119429200Y-98135000D01*
X119429200Y-98635000D01*
X117929200Y-98635000D01*
G37*
G04 #@! TD.AperFunction*
D12*
X133999600Y-104712250D03*
X133999600Y-93312730D03*
G04 #@! TA.AperFunction,SMDPad,CuDef*
G36*
G01*
X125604200Y-93825000D02*
X128554200Y-93825000D01*
G75*
G02*
X128804200Y-94075000I0J-250000D01*
G01*
X128804200Y-97025000D01*
G75*
G02*
X128554200Y-97275000I-250000J0D01*
G01*
X125604200Y-97275000D01*
G75*
G02*
X125354200Y-97025000I0J250000D01*
G01*
X125354200Y-94075000D01*
G75*
G02*
X125604200Y-93825000I250000J0D01*
G01*
G37*
G04 #@! TD.AperFunction*
G04 #@! TA.AperFunction,SMDPad,CuDef*
G36*
G01*
X128766700Y-92675000D02*
X128891700Y-92675000D01*
G75*
G02*
X128954200Y-92737500I0J-62500D01*
G01*
X128954200Y-93487500D01*
G75*
G02*
X128891700Y-93550000I-62500J0D01*
G01*
X128766700Y-93550000D01*
G75*
G02*
X128704200Y-93487500I0J62500D01*
G01*
X128704200Y-92737500D01*
G75*
G02*
X128766700Y-92675000I62500J0D01*
G01*
G37*
G04 #@! TD.AperFunction*
G04 #@! TA.AperFunction,SMDPad,CuDef*
G36*
G01*
X128266700Y-92675000D02*
X128391700Y-92675000D01*
G75*
G02*
X128454200Y-92737500I0J-62500D01*
G01*
X128454200Y-93487500D01*
G75*
G02*
X128391700Y-93550000I-62500J0D01*
G01*
X128266700Y-93550000D01*
G75*
G02*
X128204200Y-93487500I0J62500D01*
G01*
X128204200Y-92737500D01*
G75*
G02*
X128266700Y-92675000I62500J0D01*
G01*
G37*
G04 #@! TD.AperFunction*
G04 #@! TA.AperFunction,SMDPad,CuDef*
G36*
G01*
X127766700Y-92675000D02*
X127891700Y-92675000D01*
G75*
G02*
X127954200Y-92737500I0J-62500D01*
G01*
X127954200Y-93487500D01*
G75*
G02*
X127891700Y-93550000I-62500J0D01*
G01*
X127766700Y-93550000D01*
G75*
G02*
X127704200Y-93487500I0J62500D01*
G01*
X127704200Y-92737500D01*
G75*
G02*
X127766700Y-92675000I62500J0D01*
G01*
G37*
G04 #@! TD.AperFunction*
G04 #@! TA.AperFunction,SMDPad,CuDef*
G36*
G01*
X127266700Y-92675000D02*
X127391700Y-92675000D01*
G75*
G02*
X127454200Y-92737500I0J-62500D01*
G01*
X127454200Y-93487500D01*
G75*
G02*
X127391700Y-93550000I-62500J0D01*
G01*
X127266700Y-93550000D01*
G75*
G02*
X127204200Y-93487500I0J62500D01*
G01*
X127204200Y-92737500D01*
G75*
G02*
X127266700Y-92675000I62500J0D01*
G01*
G37*
G04 #@! TD.AperFunction*
G04 #@! TA.AperFunction,SMDPad,CuDef*
G36*
G01*
X126766700Y-92675000D02*
X126891700Y-92675000D01*
G75*
G02*
X126954200Y-92737500I0J-62500D01*
G01*
X126954200Y-93487500D01*
G75*
G02*
X126891700Y-93550000I-62500J0D01*
G01*
X126766700Y-93550000D01*
G75*
G02*
X126704200Y-93487500I0J62500D01*
G01*
X126704200Y-92737500D01*
G75*
G02*
X126766700Y-92675000I62500J0D01*
G01*
G37*
G04 #@! TD.AperFunction*
G04 #@! TA.AperFunction,SMDPad,CuDef*
G36*
G01*
X126266700Y-92675000D02*
X126391700Y-92675000D01*
G75*
G02*
X126454200Y-92737500I0J-62500D01*
G01*
X126454200Y-93487500D01*
G75*
G02*
X126391700Y-93550000I-62500J0D01*
G01*
X126266700Y-93550000D01*
G75*
G02*
X126204200Y-93487500I0J62500D01*
G01*
X126204200Y-92737500D01*
G75*
G02*
X126266700Y-92675000I62500J0D01*
G01*
G37*
G04 #@! TD.AperFunction*
G04 #@! TA.AperFunction,SMDPad,CuDef*
G36*
G01*
X125766700Y-92675000D02*
X125891700Y-92675000D01*
G75*
G02*
X125954200Y-92737500I0J-62500D01*
G01*
X125954200Y-93487500D01*
G75*
G02*
X125891700Y-93550000I-62500J0D01*
G01*
X125766700Y-93550000D01*
G75*
G02*
X125704200Y-93487500I0J62500D01*
G01*
X125704200Y-92737500D01*
G75*
G02*
X125766700Y-92675000I62500J0D01*
G01*
G37*
G04 #@! TD.AperFunction*
G04 #@! TA.AperFunction,SMDPad,CuDef*
G36*
G01*
X125266700Y-92675000D02*
X125391700Y-92675000D01*
G75*
G02*
X125454200Y-92737500I0J-62500D01*
G01*
X125454200Y-93487500D01*
G75*
G02*
X125391700Y-93550000I-62500J0D01*
G01*
X125266700Y-93550000D01*
G75*
G02*
X125204200Y-93487500I0J62500D01*
G01*
X125204200Y-92737500D01*
G75*
G02*
X125266700Y-92675000I62500J0D01*
G01*
G37*
G04 #@! TD.AperFunction*
G04 #@! TA.AperFunction,SMDPad,CuDef*
G36*
G01*
X124266700Y-93675000D02*
X125016700Y-93675000D01*
G75*
G02*
X125079200Y-93737500I0J-62500D01*
G01*
X125079200Y-93862500D01*
G75*
G02*
X125016700Y-93925000I-62500J0D01*
G01*
X124266700Y-93925000D01*
G75*
G02*
X124204200Y-93862500I0J62500D01*
G01*
X124204200Y-93737500D01*
G75*
G02*
X124266700Y-93675000I62500J0D01*
G01*
G37*
G04 #@! TD.AperFunction*
G04 #@! TA.AperFunction,SMDPad,CuDef*
G36*
G01*
X124266700Y-94175000D02*
X125016700Y-94175000D01*
G75*
G02*
X125079200Y-94237500I0J-62500D01*
G01*
X125079200Y-94362500D01*
G75*
G02*
X125016700Y-94425000I-62500J0D01*
G01*
X124266700Y-94425000D01*
G75*
G02*
X124204200Y-94362500I0J62500D01*
G01*
X124204200Y-94237500D01*
G75*
G02*
X124266700Y-94175000I62500J0D01*
G01*
G37*
G04 #@! TD.AperFunction*
G04 #@! TA.AperFunction,SMDPad,CuDef*
G36*
G01*
X124266700Y-94675000D02*
X125016700Y-94675000D01*
G75*
G02*
X125079200Y-94737500I0J-62500D01*
G01*
X125079200Y-94862500D01*
G75*
G02*
X125016700Y-94925000I-62500J0D01*
G01*
X124266700Y-94925000D01*
G75*
G02*
X124204200Y-94862500I0J62500D01*
G01*
X124204200Y-94737500D01*
G75*
G02*
X124266700Y-94675000I62500J0D01*
G01*
G37*
G04 #@! TD.AperFunction*
G04 #@! TA.AperFunction,SMDPad,CuDef*
G36*
G01*
X124266700Y-95175000D02*
X125016700Y-95175000D01*
G75*
G02*
X125079200Y-95237500I0J-62500D01*
G01*
X125079200Y-95362500D01*
G75*
G02*
X125016700Y-95425000I-62500J0D01*
G01*
X124266700Y-95425000D01*
G75*
G02*
X124204200Y-95362500I0J62500D01*
G01*
X124204200Y-95237500D01*
G75*
G02*
X124266700Y-95175000I62500J0D01*
G01*
G37*
G04 #@! TD.AperFunction*
G04 #@! TA.AperFunction,SMDPad,CuDef*
G36*
G01*
X124266700Y-95675000D02*
X125016700Y-95675000D01*
G75*
G02*
X125079200Y-95737500I0J-62500D01*
G01*
X125079200Y-95862500D01*
G75*
G02*
X125016700Y-95925000I-62500J0D01*
G01*
X124266700Y-95925000D01*
G75*
G02*
X124204200Y-95862500I0J62500D01*
G01*
X124204200Y-95737500D01*
G75*
G02*
X124266700Y-95675000I62500J0D01*
G01*
G37*
G04 #@! TD.AperFunction*
G04 #@! TA.AperFunction,SMDPad,CuDef*
G36*
G01*
X124266700Y-96175000D02*
X125016700Y-96175000D01*
G75*
G02*
X125079200Y-96237500I0J-62500D01*
G01*
X125079200Y-96362500D01*
G75*
G02*
X125016700Y-96425000I-62500J0D01*
G01*
X124266700Y-96425000D01*
G75*
G02*
X124204200Y-96362500I0J62500D01*
G01*
X124204200Y-96237500D01*
G75*
G02*
X124266700Y-96175000I62500J0D01*
G01*
G37*
G04 #@! TD.AperFunction*
G04 #@! TA.AperFunction,SMDPad,CuDef*
G36*
G01*
X124266700Y-96675000D02*
X125016700Y-96675000D01*
G75*
G02*
X125079200Y-96737500I0J-62500D01*
G01*
X125079200Y-96862500D01*
G75*
G02*
X125016700Y-96925000I-62500J0D01*
G01*
X124266700Y-96925000D01*
G75*
G02*
X124204200Y-96862500I0J62500D01*
G01*
X124204200Y-96737500D01*
G75*
G02*
X124266700Y-96675000I62500J0D01*
G01*
G37*
G04 #@! TD.AperFunction*
G04 #@! TA.AperFunction,SMDPad,CuDef*
G36*
G01*
X124266700Y-97175000D02*
X125016700Y-97175000D01*
G75*
G02*
X125079200Y-97237500I0J-62500D01*
G01*
X125079200Y-97362500D01*
G75*
G02*
X125016700Y-97425000I-62500J0D01*
G01*
X124266700Y-97425000D01*
G75*
G02*
X124204200Y-97362500I0J62500D01*
G01*
X124204200Y-97237500D01*
G75*
G02*
X124266700Y-97175000I62500J0D01*
G01*
G37*
G04 #@! TD.AperFunction*
G04 #@! TA.AperFunction,SMDPad,CuDef*
G36*
G01*
X125266700Y-97550000D02*
X125391700Y-97550000D01*
G75*
G02*
X125454200Y-97612500I0J-62500D01*
G01*
X125454200Y-98362500D01*
G75*
G02*
X125391700Y-98425000I-62500J0D01*
G01*
X125266700Y-98425000D01*
G75*
G02*
X125204200Y-98362500I0J62500D01*
G01*
X125204200Y-97612500D01*
G75*
G02*
X125266700Y-97550000I62500J0D01*
G01*
G37*
G04 #@! TD.AperFunction*
G04 #@! TA.AperFunction,SMDPad,CuDef*
G36*
G01*
X125766700Y-97550000D02*
X125891700Y-97550000D01*
G75*
G02*
X125954200Y-97612500I0J-62500D01*
G01*
X125954200Y-98362500D01*
G75*
G02*
X125891700Y-98425000I-62500J0D01*
G01*
X125766700Y-98425000D01*
G75*
G02*
X125704200Y-98362500I0J62500D01*
G01*
X125704200Y-97612500D01*
G75*
G02*
X125766700Y-97550000I62500J0D01*
G01*
G37*
G04 #@! TD.AperFunction*
G04 #@! TA.AperFunction,SMDPad,CuDef*
G36*
G01*
X126266700Y-97550000D02*
X126391700Y-97550000D01*
G75*
G02*
X126454200Y-97612500I0J-62500D01*
G01*
X126454200Y-98362500D01*
G75*
G02*
X126391700Y-98425000I-62500J0D01*
G01*
X126266700Y-98425000D01*
G75*
G02*
X126204200Y-98362500I0J62500D01*
G01*
X126204200Y-97612500D01*
G75*
G02*
X126266700Y-97550000I62500J0D01*
G01*
G37*
G04 #@! TD.AperFunction*
G04 #@! TA.AperFunction,SMDPad,CuDef*
G36*
G01*
X126766700Y-97550000D02*
X126891700Y-97550000D01*
G75*
G02*
X126954200Y-97612500I0J-62500D01*
G01*
X126954200Y-98362500D01*
G75*
G02*
X126891700Y-98425000I-62500J0D01*
G01*
X126766700Y-98425000D01*
G75*
G02*
X126704200Y-98362500I0J62500D01*
G01*
X126704200Y-97612500D01*
G75*
G02*
X126766700Y-97550000I62500J0D01*
G01*
G37*
G04 #@! TD.AperFunction*
G04 #@! TA.AperFunction,SMDPad,CuDef*
G36*
G01*
X127266700Y-97550000D02*
X127391700Y-97550000D01*
G75*
G02*
X127454200Y-97612500I0J-62500D01*
G01*
X127454200Y-98362500D01*
G75*
G02*
X127391700Y-98425000I-62500J0D01*
G01*
X127266700Y-98425000D01*
G75*
G02*
X127204200Y-98362500I0J62500D01*
G01*
X127204200Y-97612500D01*
G75*
G02*
X127266700Y-97550000I62500J0D01*
G01*
G37*
G04 #@! TD.AperFunction*
G04 #@! TA.AperFunction,SMDPad,CuDef*
G36*
G01*
X127766700Y-97550000D02*
X127891700Y-97550000D01*
G75*
G02*
X127954200Y-97612500I0J-62500D01*
G01*
X127954200Y-98362500D01*
G75*
G02*
X127891700Y-98425000I-62500J0D01*
G01*
X127766700Y-98425000D01*
G75*
G02*
X127704200Y-98362500I0J62500D01*
G01*
X127704200Y-97612500D01*
G75*
G02*
X127766700Y-97550000I62500J0D01*
G01*
G37*
G04 #@! TD.AperFunction*
G04 #@! TA.AperFunction,SMDPad,CuDef*
G36*
G01*
X128266700Y-97550000D02*
X128391700Y-97550000D01*
G75*
G02*
X128454200Y-97612500I0J-62500D01*
G01*
X128454200Y-98362500D01*
G75*
G02*
X128391700Y-98425000I-62500J0D01*
G01*
X128266700Y-98425000D01*
G75*
G02*
X128204200Y-98362500I0J62500D01*
G01*
X128204200Y-97612500D01*
G75*
G02*
X128266700Y-97550000I62500J0D01*
G01*
G37*
G04 #@! TD.AperFunction*
G04 #@! TA.AperFunction,SMDPad,CuDef*
G36*
G01*
X128766700Y-97550000D02*
X128891700Y-97550000D01*
G75*
G02*
X128954200Y-97612500I0J-62500D01*
G01*
X128954200Y-98362500D01*
G75*
G02*
X128891700Y-98425000I-62500J0D01*
G01*
X128766700Y-98425000D01*
G75*
G02*
X128704200Y-98362500I0J62500D01*
G01*
X128704200Y-97612500D01*
G75*
G02*
X128766700Y-97550000I62500J0D01*
G01*
G37*
G04 #@! TD.AperFunction*
G04 #@! TA.AperFunction,SMDPad,CuDef*
G36*
G01*
X129141700Y-97175000D02*
X129891700Y-97175000D01*
G75*
G02*
X129954200Y-97237500I0J-62500D01*
G01*
X129954200Y-97362500D01*
G75*
G02*
X129891700Y-97425000I-62500J0D01*
G01*
X129141700Y-97425000D01*
G75*
G02*
X129079200Y-97362500I0J62500D01*
G01*
X129079200Y-97237500D01*
G75*
G02*
X129141700Y-97175000I62500J0D01*
G01*
G37*
G04 #@! TD.AperFunction*
G04 #@! TA.AperFunction,SMDPad,CuDef*
G36*
G01*
X129141700Y-96675000D02*
X129891700Y-96675000D01*
G75*
G02*
X129954200Y-96737500I0J-62500D01*
G01*
X129954200Y-96862500D01*
G75*
G02*
X129891700Y-96925000I-62500J0D01*
G01*
X129141700Y-96925000D01*
G75*
G02*
X129079200Y-96862500I0J62500D01*
G01*
X129079200Y-96737500D01*
G75*
G02*
X129141700Y-96675000I62500J0D01*
G01*
G37*
G04 #@! TD.AperFunction*
G04 #@! TA.AperFunction,SMDPad,CuDef*
G36*
G01*
X129141700Y-96175000D02*
X129891700Y-96175000D01*
G75*
G02*
X129954200Y-96237500I0J-62500D01*
G01*
X129954200Y-96362500D01*
G75*
G02*
X129891700Y-96425000I-62500J0D01*
G01*
X129141700Y-96425000D01*
G75*
G02*
X129079200Y-96362500I0J62500D01*
G01*
X129079200Y-96237500D01*
G75*
G02*
X129141700Y-96175000I62500J0D01*
G01*
G37*
G04 #@! TD.AperFunction*
G04 #@! TA.AperFunction,SMDPad,CuDef*
G36*
G01*
X129141700Y-95675000D02*
X129891700Y-95675000D01*
G75*
G02*
X129954200Y-95737500I0J-62500D01*
G01*
X129954200Y-95862500D01*
G75*
G02*
X129891700Y-95925000I-62500J0D01*
G01*
X129141700Y-95925000D01*
G75*
G02*
X129079200Y-95862500I0J62500D01*
G01*
X129079200Y-95737500D01*
G75*
G02*
X129141700Y-95675000I62500J0D01*
G01*
G37*
G04 #@! TD.AperFunction*
G04 #@! TA.AperFunction,SMDPad,CuDef*
G36*
G01*
X129141700Y-95175000D02*
X129891700Y-95175000D01*
G75*
G02*
X129954200Y-95237500I0J-62500D01*
G01*
X129954200Y-95362500D01*
G75*
G02*
X129891700Y-95425000I-62500J0D01*
G01*
X129141700Y-95425000D01*
G75*
G02*
X129079200Y-95362500I0J62500D01*
G01*
X129079200Y-95237500D01*
G75*
G02*
X129141700Y-95175000I62500J0D01*
G01*
G37*
G04 #@! TD.AperFunction*
G04 #@! TA.AperFunction,SMDPad,CuDef*
G36*
G01*
X129141700Y-94675000D02*
X129891700Y-94675000D01*
G75*
G02*
X129954200Y-94737500I0J-62500D01*
G01*
X129954200Y-94862500D01*
G75*
G02*
X129891700Y-94925000I-62500J0D01*
G01*
X129141700Y-94925000D01*
G75*
G02*
X129079200Y-94862500I0J62500D01*
G01*
X129079200Y-94737500D01*
G75*
G02*
X129141700Y-94675000I62500J0D01*
G01*
G37*
G04 #@! TD.AperFunction*
G04 #@! TA.AperFunction,SMDPad,CuDef*
G36*
G01*
X129141700Y-94175000D02*
X129891700Y-94175000D01*
G75*
G02*
X129954200Y-94237500I0J-62500D01*
G01*
X129954200Y-94362500D01*
G75*
G02*
X129891700Y-94425000I-62500J0D01*
G01*
X129141700Y-94425000D01*
G75*
G02*
X129079200Y-94362500I0J62500D01*
G01*
X129079200Y-94237500D01*
G75*
G02*
X129141700Y-94175000I62500J0D01*
G01*
G37*
G04 #@! TD.AperFunction*
G04 #@! TA.AperFunction,SMDPad,CuDef*
G36*
G01*
X129141700Y-93675000D02*
X129891700Y-93675000D01*
G75*
G02*
X129954200Y-93737500I0J-62500D01*
G01*
X129954200Y-93862500D01*
G75*
G02*
X129891700Y-93925000I-62500J0D01*
G01*
X129141700Y-93925000D01*
G75*
G02*
X129079200Y-93862500I0J62500D01*
G01*
X129079200Y-93737500D01*
G75*
G02*
X129141700Y-93675000I62500J0D01*
G01*
G37*
G04 #@! TD.AperFunction*
D13*
X118225000Y-102040000D03*
X118225000Y-104740000D03*
D14*
X122429200Y-99535000D03*
X121929200Y-99535000D03*
X121429200Y-99535000D03*
X120929200Y-99535000D03*
X120429200Y-99535000D03*
X120429200Y-96535000D03*
X120929200Y-96535000D03*
X121429200Y-96535000D03*
X121929200Y-96535000D03*
X122429200Y-96535000D03*
D15*
X121429200Y-98035000D03*
D16*
X123679200Y-104800000D03*
D17*
X122929200Y-103475000D03*
X123429200Y-103475000D03*
X123929200Y-103475000D03*
X124429200Y-103475000D03*
X122929200Y-106125000D03*
X123429200Y-106125000D03*
X123929200Y-106125000D03*
X124429200Y-106125000D03*
D18*
X126929200Y-104000000D03*
X126929200Y-104950000D03*
X126929200Y-105900000D03*
X129129200Y-105900000D03*
X129129200Y-104000000D03*
X129129200Y-104950000D03*
G04 #@! TA.AperFunction,SMDPad,CuDef*
G36*
G01*
X131451700Y-105615000D02*
X131106700Y-105615000D01*
G75*
G02*
X130959200Y-105467500I0J147500D01*
G01*
X130959200Y-105172500D01*
G75*
G02*
X131106700Y-105025000I147500J0D01*
G01*
X131451700Y-105025000D01*
G75*
G02*
X131599200Y-105172500I0J-147500D01*
G01*
X131599200Y-105467500D01*
G75*
G02*
X131451700Y-105615000I-147500J0D01*
G01*
G37*
G04 #@! TD.AperFunction*
G04 #@! TA.AperFunction,SMDPad,CuDef*
G36*
G01*
X131451700Y-104645000D02*
X131106700Y-104645000D01*
G75*
G02*
X130959200Y-104497500I0J147500D01*
G01*
X130959200Y-104202500D01*
G75*
G02*
X131106700Y-104055000I147500J0D01*
G01*
X131451700Y-104055000D01*
G75*
G02*
X131599200Y-104202500I0J-147500D01*
G01*
X131599200Y-104497500D01*
G75*
G02*
X131451700Y-104645000I-147500J0D01*
G01*
G37*
G04 #@! TD.AperFunction*
D19*
X132700000Y-97670000D03*
D20*
X129519200Y-101785000D03*
X130229200Y-101785000D03*
X130239200Y-102705000D03*
X129519200Y-102705000D03*
G04 #@! TA.AperFunction,SMDPad,CuDef*
D11*
G36*
X129879200Y-102616838D02*
G01*
X129497362Y-102235000D01*
X129879200Y-101853162D01*
X130261038Y-102235000D01*
X129879200Y-102616838D01*
G37*
G04 #@! TD.AperFunction*
G04 #@! TA.AperFunction,SMDPad,CuDef*
G36*
G01*
X132401700Y-103330000D02*
X132056700Y-103330000D01*
G75*
G02*
X131909200Y-103182500I0J147500D01*
G01*
X131909200Y-102887500D01*
G75*
G02*
X132056700Y-102740000I147500J0D01*
G01*
X132401700Y-102740000D01*
G75*
G02*
X132549200Y-102887500I0J-147500D01*
G01*
X132549200Y-103182500D01*
G75*
G02*
X132401700Y-103330000I-147500J0D01*
G01*
G37*
G04 #@! TD.AperFunction*
G04 #@! TA.AperFunction,SMDPad,CuDef*
G36*
G01*
X132401700Y-102360000D02*
X132056700Y-102360000D01*
G75*
G02*
X131909200Y-102212500I0J147500D01*
G01*
X131909200Y-101917500D01*
G75*
G02*
X132056700Y-101770000I147500J0D01*
G01*
X132401700Y-101770000D01*
G75*
G02*
X132549200Y-101917500I0J-147500D01*
G01*
X132549200Y-102212500D01*
G75*
G02*
X132401700Y-102360000I-147500J0D01*
G01*
G37*
G04 #@! TD.AperFunction*
G04 #@! TA.AperFunction,SMDPad,CuDef*
G36*
G01*
X131351700Y-102360000D02*
X131006700Y-102360000D01*
G75*
G02*
X130859200Y-102212500I0J147500D01*
G01*
X130859200Y-101917500D01*
G75*
G02*
X131006700Y-101770000I147500J0D01*
G01*
X131351700Y-101770000D01*
G75*
G02*
X131499200Y-101917500I0J-147500D01*
G01*
X131499200Y-102212500D01*
G75*
G02*
X131351700Y-102360000I-147500J0D01*
G01*
G37*
G04 #@! TD.AperFunction*
G04 #@! TA.AperFunction,SMDPad,CuDef*
G36*
G01*
X131351700Y-103330000D02*
X131006700Y-103330000D01*
G75*
G02*
X130859200Y-103182500I0J147500D01*
G01*
X130859200Y-102887500D01*
G75*
G02*
X131006700Y-102740000I147500J0D01*
G01*
X131351700Y-102740000D01*
G75*
G02*
X131499200Y-102887500I0J-147500D01*
G01*
X131499200Y-103182500D01*
G75*
G02*
X131351700Y-103330000I-147500J0D01*
G01*
G37*
G04 #@! TD.AperFunction*
G04 #@! TA.AperFunction,SMDPad,CuDef*
G36*
G01*
X124769200Y-100722500D02*
X124769200Y-100377500D01*
G75*
G02*
X124916700Y-100230000I147500J0D01*
G01*
X125211700Y-100230000D01*
G75*
G02*
X125359200Y-100377500I0J-147500D01*
G01*
X125359200Y-100722500D01*
G75*
G02*
X125211700Y-100870000I-147500J0D01*
G01*
X124916700Y-100870000D01*
G75*
G02*
X124769200Y-100722500I0J147500D01*
G01*
G37*
G04 #@! TD.AperFunction*
G04 #@! TA.AperFunction,SMDPad,CuDef*
G36*
G01*
X123799200Y-100722500D02*
X123799200Y-100377500D01*
G75*
G02*
X123946700Y-100230000I147500J0D01*
G01*
X124241700Y-100230000D01*
G75*
G02*
X124389200Y-100377500I0J-147500D01*
G01*
X124389200Y-100722500D01*
G75*
G02*
X124241700Y-100870000I-147500J0D01*
G01*
X123946700Y-100870000D01*
G75*
G02*
X123799200Y-100722500I0J147500D01*
G01*
G37*
G04 #@! TD.AperFunction*
G04 #@! TA.AperFunction,SMDPad,CuDef*
G36*
G01*
X123799200Y-99572500D02*
X123799200Y-99227500D01*
G75*
G02*
X123946700Y-99080000I147500J0D01*
G01*
X124241700Y-99080000D01*
G75*
G02*
X124389200Y-99227500I0J-147500D01*
G01*
X124389200Y-99572500D01*
G75*
G02*
X124241700Y-99720000I-147500J0D01*
G01*
X123946700Y-99720000D01*
G75*
G02*
X123799200Y-99572500I0J147500D01*
G01*
G37*
G04 #@! TD.AperFunction*
G04 #@! TA.AperFunction,SMDPad,CuDef*
G36*
G01*
X124769200Y-99572500D02*
X124769200Y-99227500D01*
G75*
G02*
X124916700Y-99080000I147500J0D01*
G01*
X125211700Y-99080000D01*
G75*
G02*
X125359200Y-99227500I0J-147500D01*
G01*
X125359200Y-99572500D01*
G75*
G02*
X125211700Y-99720000I-147500J0D01*
G01*
X124916700Y-99720000D01*
G75*
G02*
X124769200Y-99572500I0J147500D01*
G01*
G37*
G04 #@! TD.AperFunction*
G04 #@! TA.AperFunction,SMDPad,CuDef*
G36*
G01*
X132109200Y-93977500D02*
X132109200Y-94322500D01*
G75*
G02*
X131961700Y-94470000I-147500J0D01*
G01*
X131666700Y-94470000D01*
G75*
G02*
X131519200Y-94322500I0J147500D01*
G01*
X131519200Y-93977500D01*
G75*
G02*
X131666700Y-93830000I147500J0D01*
G01*
X131961700Y-93830000D01*
G75*
G02*
X132109200Y-93977500I0J-147500D01*
G01*
G37*
G04 #@! TD.AperFunction*
G04 #@! TA.AperFunction,SMDPad,CuDef*
G36*
G01*
X131139200Y-93977500D02*
X131139200Y-94322500D01*
G75*
G02*
X130991700Y-94470000I-147500J0D01*
G01*
X130696700Y-94470000D01*
G75*
G02*
X130549200Y-94322500I0J147500D01*
G01*
X130549200Y-93977500D01*
G75*
G02*
X130696700Y-93830000I147500J0D01*
G01*
X130991700Y-93830000D01*
G75*
G02*
X131139200Y-93977500I0J-147500D01*
G01*
G37*
G04 #@! TD.AperFunction*
G04 #@! TA.AperFunction,SMDPad,CuDef*
G36*
G01*
X130806700Y-95840000D02*
X131151700Y-95840000D01*
G75*
G02*
X131299200Y-95987500I0J-147500D01*
G01*
X131299200Y-96282500D01*
G75*
G02*
X131151700Y-96430000I-147500J0D01*
G01*
X130806700Y-96430000D01*
G75*
G02*
X130659200Y-96282500I0J147500D01*
G01*
X130659200Y-95987500D01*
G75*
G02*
X130806700Y-95840000I147500J0D01*
G01*
G37*
G04 #@! TD.AperFunction*
G04 #@! TA.AperFunction,SMDPad,CuDef*
G36*
G01*
X130806700Y-94870000D02*
X131151700Y-94870000D01*
G75*
G02*
X131299200Y-95017500I0J-147500D01*
G01*
X131299200Y-95312500D01*
G75*
G02*
X131151700Y-95460000I-147500J0D01*
G01*
X130806700Y-95460000D01*
G75*
G02*
X130659200Y-95312500I0J147500D01*
G01*
X130659200Y-95017500D01*
G75*
G02*
X130806700Y-94870000I147500J0D01*
G01*
G37*
G04 #@! TD.AperFunction*
G04 #@! TA.AperFunction,SMDPad,CuDef*
G36*
G01*
X131956700Y-94870000D02*
X132301700Y-94870000D01*
G75*
G02*
X132449200Y-95017500I0J-147500D01*
G01*
X132449200Y-95312500D01*
G75*
G02*
X132301700Y-95460000I-147500J0D01*
G01*
X131956700Y-95460000D01*
G75*
G02*
X131809200Y-95312500I0J147500D01*
G01*
X131809200Y-95017500D01*
G75*
G02*
X131956700Y-94870000I147500J0D01*
G01*
G37*
G04 #@! TD.AperFunction*
G04 #@! TA.AperFunction,SMDPad,CuDef*
G36*
G01*
X131956700Y-95840000D02*
X132301700Y-95840000D01*
G75*
G02*
X132449200Y-95987500I0J-147500D01*
G01*
X132449200Y-96282500D01*
G75*
G02*
X132301700Y-96430000I-147500J0D01*
G01*
X131956700Y-96430000D01*
G75*
G02*
X131809200Y-96282500I0J147500D01*
G01*
X131809200Y-95987500D01*
G75*
G02*
X131956700Y-95840000I147500J0D01*
G01*
G37*
G04 #@! TD.AperFunction*
G04 #@! TA.AperFunction,SMDPad,CuDef*
G36*
G01*
X125356700Y-103690000D02*
X125701700Y-103690000D01*
G75*
G02*
X125849200Y-103837500I0J-147500D01*
G01*
X125849200Y-104132500D01*
G75*
G02*
X125701700Y-104280000I-147500J0D01*
G01*
X125356700Y-104280000D01*
G75*
G02*
X125209200Y-104132500I0J147500D01*
G01*
X125209200Y-103837500D01*
G75*
G02*
X125356700Y-103690000I147500J0D01*
G01*
G37*
G04 #@! TD.AperFunction*
G04 #@! TA.AperFunction,SMDPad,CuDef*
G36*
G01*
X125356700Y-102720000D02*
X125701700Y-102720000D01*
G75*
G02*
X125849200Y-102867500I0J-147500D01*
G01*
X125849200Y-103162500D01*
G75*
G02*
X125701700Y-103310000I-147500J0D01*
G01*
X125356700Y-103310000D01*
G75*
G02*
X125209200Y-103162500I0J147500D01*
G01*
X125209200Y-102867500D01*
G75*
G02*
X125356700Y-102720000I147500J0D01*
G01*
G37*
G04 #@! TD.AperFunction*
G04 #@! TA.AperFunction,SMDPad,CuDef*
G36*
G01*
X125356700Y-104670000D02*
X125701700Y-104670000D01*
G75*
G02*
X125849200Y-104817500I0J-147500D01*
G01*
X125849200Y-105112500D01*
G75*
G02*
X125701700Y-105260000I-147500J0D01*
G01*
X125356700Y-105260000D01*
G75*
G02*
X125209200Y-105112500I0J147500D01*
G01*
X125209200Y-104817500D01*
G75*
G02*
X125356700Y-104670000I147500J0D01*
G01*
G37*
G04 #@! TD.AperFunction*
G04 #@! TA.AperFunction,SMDPad,CuDef*
G36*
G01*
X125356700Y-105640000D02*
X125701700Y-105640000D01*
G75*
G02*
X125849200Y-105787500I0J-147500D01*
G01*
X125849200Y-106082500D01*
G75*
G02*
X125701700Y-106230000I-147500J0D01*
G01*
X125356700Y-106230000D01*
G75*
G02*
X125209200Y-106082500I0J147500D01*
G01*
X125209200Y-105787500D01*
G75*
G02*
X125356700Y-105640000I147500J0D01*
G01*
G37*
G04 #@! TD.AperFunction*
G04 #@! TA.AperFunction,SMDPad,CuDef*
G36*
G01*
X126489200Y-91612500D02*
X126489200Y-91957500D01*
G75*
G02*
X126341700Y-92105000I-147500J0D01*
G01*
X126046700Y-92105000D01*
G75*
G02*
X125899200Y-91957500I0J147500D01*
G01*
X125899200Y-91612500D01*
G75*
G02*
X126046700Y-91465000I147500J0D01*
G01*
X126341700Y-91465000D01*
G75*
G02*
X126489200Y-91612500I0J-147500D01*
G01*
G37*
G04 #@! TD.AperFunction*
G04 #@! TA.AperFunction,SMDPad,CuDef*
G36*
G01*
X127459200Y-91612500D02*
X127459200Y-91957500D01*
G75*
G02*
X127311700Y-92105000I-147500J0D01*
G01*
X127016700Y-92105000D01*
G75*
G02*
X126869200Y-91957500I0J147500D01*
G01*
X126869200Y-91612500D01*
G75*
G02*
X127016700Y-91465000I147500J0D01*
G01*
X127311700Y-91465000D01*
G75*
G02*
X127459200Y-91612500I0J-147500D01*
G01*
G37*
G04 #@! TD.AperFunction*
G04 #@! TA.AperFunction,SMDPad,CuDef*
G36*
G01*
X132109200Y-92327500D02*
X132109200Y-92672500D01*
G75*
G02*
X131961700Y-92820000I-147500J0D01*
G01*
X131666700Y-92820000D01*
G75*
G02*
X131519200Y-92672500I0J147500D01*
G01*
X131519200Y-92327500D01*
G75*
G02*
X131666700Y-92180000I147500J0D01*
G01*
X131961700Y-92180000D01*
G75*
G02*
X132109200Y-92327500I0J-147500D01*
G01*
G37*
G04 #@! TD.AperFunction*
G04 #@! TA.AperFunction,SMDPad,CuDef*
G36*
G01*
X131139200Y-92327500D02*
X131139200Y-92672500D01*
G75*
G02*
X130991700Y-92820000I-147500J0D01*
G01*
X130696700Y-92820000D01*
G75*
G02*
X130549200Y-92672500I0J147500D01*
G01*
X130549200Y-92327500D01*
G75*
G02*
X130696700Y-92180000I147500J0D01*
G01*
X130991700Y-92180000D01*
G75*
G02*
X131139200Y-92327500I0J-147500D01*
G01*
G37*
G04 #@! TD.AperFunction*
D21*
X128179200Y-101035000D03*
X129179200Y-101035000D03*
X128179200Y-99635000D03*
X128679200Y-101035000D03*
X129179200Y-99635000D03*
D22*
X133970000Y-95130000D03*
X132700000Y-100210000D03*
X133970000Y-102800000D03*
X135240000Y-97670000D03*
X135240000Y-100210000D03*
G04 #@! TA.AperFunction,SMDPad,CuDef*
G36*
G01*
X126556700Y-100505000D02*
X126901700Y-100505000D01*
G75*
G02*
X127049200Y-100652500I0J-147500D01*
G01*
X127049200Y-100947500D01*
G75*
G02*
X126901700Y-101095000I-147500J0D01*
G01*
X126556700Y-101095000D01*
G75*
G02*
X126409200Y-100947500I0J147500D01*
G01*
X126409200Y-100652500D01*
G75*
G02*
X126556700Y-100505000I147500J0D01*
G01*
G37*
G04 #@! TD.AperFunction*
G04 #@! TA.AperFunction,SMDPad,CuDef*
G36*
G01*
X126556700Y-101475000D02*
X126901700Y-101475000D01*
G75*
G02*
X127049200Y-101622500I0J-147500D01*
G01*
X127049200Y-101917500D01*
G75*
G02*
X126901700Y-102065000I-147500J0D01*
G01*
X126556700Y-102065000D01*
G75*
G02*
X126409200Y-101917500I0J147500D01*
G01*
X126409200Y-101622500D01*
G75*
G02*
X126556700Y-101475000I147500J0D01*
G01*
G37*
G04 #@! TD.AperFunction*
G04 #@! TA.AperFunction,SMDPad,CuDef*
G36*
G01*
X124309200Y-102062500D02*
X124309200Y-102407500D01*
G75*
G02*
X124161700Y-102555000I-147500J0D01*
G01*
X123866700Y-102555000D01*
G75*
G02*
X123719200Y-102407500I0J147500D01*
G01*
X123719200Y-102062500D01*
G75*
G02*
X123866700Y-101915000I147500J0D01*
G01*
X124161700Y-101915000D01*
G75*
G02*
X124309200Y-102062500I0J-147500D01*
G01*
G37*
G04 #@! TD.AperFunction*
G04 #@! TA.AperFunction,SMDPad,CuDef*
G36*
G01*
X123339200Y-102062500D02*
X123339200Y-102407500D01*
G75*
G02*
X123191700Y-102555000I-147500J0D01*
G01*
X122896700Y-102555000D01*
G75*
G02*
X122749200Y-102407500I0J147500D01*
G01*
X122749200Y-102062500D01*
G75*
G02*
X122896700Y-101915000I147500J0D01*
G01*
X123191700Y-101915000D01*
G75*
G02*
X123339200Y-102062500I0J-147500D01*
G01*
G37*
G04 #@! TD.AperFunction*
D23*
X131629200Y-96900000D03*
X129669200Y-99145000D03*
X131629200Y-101050000D03*
X127710867Y-99088433D03*
X128029200Y-105835000D03*
X123629200Y-97235000D03*
X125602070Y-102307870D03*
X130279206Y-103985000D03*
X129516700Y-97885034D03*
X132929200Y-101700000D03*
X122049200Y-106265002D03*
X133029200Y-96150000D03*
X127579200Y-101785000D03*
X129829192Y-100284992D03*
X125679200Y-99985000D03*
X124629200Y-91324562D03*
X123629240Y-93799998D03*
X128139200Y-92215000D03*
X124626969Y-91984441D03*
X124629199Y-93160001D03*
X123634752Y-93018344D03*
X123629206Y-94500000D03*
X123629200Y-95934998D03*
X127659200Y-94975000D03*
X127659200Y-96125000D03*
X126499200Y-96125000D03*
X126499200Y-94975000D03*
X129529200Y-93150000D03*
X130829200Y-93350000D03*
X134879200Y-96185000D03*
X128809348Y-101785000D03*
X128204210Y-104485000D03*
X130020214Y-103354731D03*
X132629200Y-94485000D03*
X124515083Y-98099117D03*
X123209200Y-91355000D03*
X121259200Y-106635000D03*
D24*
X131629200Y-96900000D02*
X132700000Y-97670000D01*
X129179200Y-99560000D02*
X129179200Y-99635000D01*
X128664200Y-99045000D02*
X129179200Y-99560000D01*
X128339200Y-99045000D02*
X128664200Y-99045000D01*
X127829200Y-97987500D02*
X127829200Y-98535000D01*
X127829200Y-98535000D02*
X128339200Y-99045000D01*
X129669200Y-99145000D02*
X129179200Y-99635000D01*
X131629200Y-101050000D02*
X132700000Y-100210000D01*
X127460868Y-98838434D02*
X127710867Y-99088433D01*
X127960866Y-99338432D02*
X127710867Y-99088433D01*
X128207434Y-99585000D02*
X127960866Y-99338432D01*
X128229200Y-99585000D02*
X128207434Y-99585000D01*
X127329200Y-98706766D02*
X127460868Y-98838434D01*
X127329200Y-97987500D02*
X127329200Y-98706766D01*
X129179200Y-105850000D02*
X129164200Y-105835000D01*
D25*
X129164200Y-105835000D02*
X128882753Y-105835000D01*
D24*
X129064200Y-105835000D02*
X129129200Y-105900000D01*
X128029200Y-105835000D02*
X129064200Y-105835000D01*
X130064200Y-105900000D02*
X129129200Y-105900000D01*
X130529200Y-105435000D02*
X130064200Y-105900000D01*
X131279200Y-105320000D02*
X131164200Y-105435000D01*
X131164200Y-105435000D02*
X130529200Y-105435000D01*
X124064200Y-96800000D02*
X123629200Y-97235000D01*
X124641700Y-96800000D02*
X124064200Y-96800000D01*
X125529196Y-102435002D02*
X125529196Y-102434938D01*
X125602070Y-102407870D02*
X125529200Y-102335000D01*
X125529200Y-102865000D02*
X125602070Y-102792130D01*
D26*
X125602070Y-102792130D02*
X125602070Y-102407870D01*
D25*
X126844200Y-105935000D02*
X125529200Y-105935000D01*
D26*
X126864200Y-103985000D02*
X125529200Y-103985000D01*
D24*
X129129200Y-104000000D02*
X130264206Y-104000000D01*
X130264206Y-104000000D02*
X130279206Y-103985000D01*
X129516700Y-97300000D02*
X129516700Y-97885034D01*
X133999600Y-93312730D02*
X132626930Y-93312730D01*
D27*
X132651470Y-93312730D02*
X131814200Y-94150000D01*
D24*
X133999600Y-93312730D02*
X132651470Y-93312730D01*
X133186870Y-92500000D02*
X133999600Y-93312730D01*
D26*
X131814200Y-92500000D02*
X133186870Y-92500000D01*
D24*
X132929200Y-101700000D02*
X132929200Y-101709200D01*
D26*
X132229200Y-102065000D02*
X131179200Y-102065000D01*
D27*
X132929200Y-101709200D02*
X133970000Y-102750000D01*
D25*
X130229200Y-101457500D02*
X130229200Y-101765000D01*
X130079200Y-101307500D02*
X130229200Y-101457500D01*
X129519200Y-101765000D02*
X129519200Y-101307500D01*
D24*
X129679200Y-101325000D02*
X129519200Y-101485000D01*
X129679200Y-101307500D02*
X129679200Y-101325000D01*
X129519200Y-101485000D02*
X129519200Y-101785000D01*
D25*
X129679200Y-101307500D02*
X130079200Y-101307500D01*
X129519200Y-101307500D02*
X129679200Y-101307500D01*
D26*
X130879200Y-101765000D02*
X130243602Y-101765000D01*
X131179200Y-102065000D02*
X130879200Y-101765000D01*
D24*
X129519200Y-101307500D02*
X129519200Y-101300000D01*
D26*
X132594200Y-101700000D02*
X132929200Y-101700000D01*
X132229200Y-102065000D02*
X132594200Y-101700000D01*
D24*
X129199200Y-105020000D02*
X129129200Y-104950000D01*
X130529200Y-105020000D02*
X129199200Y-105020000D01*
X131199200Y-104350000D02*
X130529200Y-105020000D01*
X131314200Y-104350000D02*
X131199200Y-104350000D01*
D26*
X129529200Y-101335000D02*
X129239200Y-101045000D01*
D24*
X129519200Y-101485000D02*
X129519200Y-101275000D01*
D25*
X131613368Y-104015832D02*
X131279200Y-104350000D01*
X131954200Y-103675000D02*
X131613368Y-104015832D01*
X133045000Y-103675000D02*
X131954200Y-103675000D01*
X133970000Y-102750000D02*
X133045000Y-103675000D01*
X122579200Y-103475000D02*
X122049200Y-104005000D01*
X122929200Y-103475000D02*
X122579200Y-103475000D01*
X122049200Y-105911449D02*
X122049200Y-106265002D01*
X122049200Y-104005000D02*
X122049200Y-105911449D01*
D24*
X132864200Y-96135000D02*
X132979200Y-96250000D01*
D28*
X125329200Y-98920000D02*
X125014200Y-99235000D01*
X125329200Y-97987500D02*
X125329200Y-99135000D01*
X125064200Y-99400000D02*
X125064200Y-100550000D01*
D24*
X127629199Y-101884999D02*
X127629199Y-101785001D01*
D26*
X129229200Y-102705000D02*
X129519200Y-102705000D01*
X129229200Y-102705000D02*
X128999200Y-102705000D01*
X128999200Y-102705000D02*
X128629200Y-102335000D01*
X128629200Y-102335000D02*
X128175646Y-102335000D01*
X128075647Y-102335000D02*
X127679200Y-101938553D01*
X128175646Y-102335000D02*
X128075647Y-102335000D01*
D24*
X126844200Y-101585000D02*
X126829200Y-101570000D01*
X127579200Y-101785000D02*
X126744200Y-101785000D01*
D26*
X133029200Y-96150000D02*
X130344200Y-96150000D01*
D24*
X127875645Y-102034999D02*
X128175646Y-102335000D01*
X127829199Y-102034999D02*
X127875645Y-102034999D01*
X127579200Y-101785000D02*
X127829199Y-102034999D01*
X125079200Y-100085000D02*
X125014200Y-100150000D01*
X125014200Y-100150000D02*
X125014200Y-100616666D01*
X123344200Y-101935000D02*
X123044200Y-102235000D01*
X123844200Y-101435000D02*
X123344200Y-101935000D01*
X125064200Y-100550000D02*
X124179200Y-101435000D01*
X124179200Y-101435000D02*
X123844200Y-101435000D01*
X120679200Y-100235000D02*
X120929200Y-99985000D01*
X119679200Y-100235000D02*
X120679200Y-100235000D01*
X118164200Y-99750000D02*
X119194200Y-99750000D01*
X117685964Y-100228236D02*
X118164200Y-99750000D01*
X116495964Y-100228236D02*
X117685964Y-100228236D01*
X119194200Y-99750000D02*
X119679200Y-100235000D01*
X115929200Y-106085000D02*
X115929200Y-100795000D01*
X122994200Y-102285000D02*
X121229200Y-104050000D01*
X115929200Y-100795000D02*
X116495964Y-100228236D01*
X122994200Y-102235000D02*
X122994200Y-102285000D01*
X121229200Y-104050000D02*
X121229200Y-105585000D01*
X121229200Y-105585000D02*
X120329200Y-106485000D01*
X120929200Y-99985000D02*
X120929200Y-99800000D01*
X120329200Y-106485000D02*
X116329200Y-106485000D01*
X116329200Y-106485000D02*
X115929200Y-106085000D01*
D25*
X129575647Y-100284992D02*
X129929200Y-100284992D01*
X128059208Y-100284992D02*
X129575647Y-100284992D01*
X127579200Y-101785000D02*
X127579200Y-100765000D01*
X127579200Y-100765000D02*
X128059208Y-100284992D01*
D29*
X127164200Y-92010000D02*
X127164200Y-91785000D01*
X126829200Y-93112500D02*
X126829200Y-92345000D01*
X126829200Y-92345000D02*
X127164200Y-92010000D01*
D26*
X126194200Y-91785000D02*
X126024200Y-91615000D01*
X125733762Y-91324562D02*
X126194200Y-91785000D01*
X124629200Y-91324562D02*
X125733762Y-91324562D01*
D24*
X120429200Y-95685000D02*
X120429200Y-96535000D01*
X122314202Y-93799998D02*
X121779200Y-94335000D01*
X123029200Y-93799998D02*
X122314202Y-93799998D01*
X120429200Y-95685000D02*
X121779200Y-94335000D01*
X122764202Y-93799998D02*
X123029200Y-93799998D01*
X123029200Y-93799998D02*
X123629240Y-93799998D01*
X127829200Y-92525000D02*
X128139200Y-92215000D01*
X127829200Y-93112500D02*
X127829200Y-92525000D01*
X125829200Y-93112500D02*
X125829200Y-92575000D01*
X125238641Y-91984441D02*
X124980522Y-91984441D01*
X125829200Y-92575000D02*
X125238641Y-91984441D01*
X124980522Y-91984441D02*
X124626969Y-91984441D01*
X125354200Y-93160000D02*
X124531700Y-93160000D01*
X124641700Y-93800000D02*
X124494200Y-93800000D01*
X124416408Y-93800000D02*
X124641700Y-93800000D01*
D25*
X123634752Y-93018344D02*
X124416408Y-93800000D01*
D24*
X124591699Y-94749999D02*
X123879205Y-94749999D01*
X121929200Y-96085000D02*
X122079202Y-95934998D01*
X124641700Y-94800000D02*
X124591699Y-94749999D01*
X123275647Y-95934998D02*
X123629200Y-95934998D01*
X122079202Y-95934998D02*
X123275647Y-95934998D01*
X123879205Y-94749999D02*
X123629206Y-94500000D01*
X121929200Y-96535000D02*
X121929200Y-96085000D01*
X120929200Y-95835000D02*
X120929200Y-96350000D01*
X121679200Y-95085000D02*
X120929200Y-95835000D01*
X124069200Y-95085000D02*
X121679200Y-95085000D01*
X124641700Y-95300000D02*
X124284200Y-95300000D01*
X124284200Y-95300000D02*
X124069200Y-95085000D01*
X124596700Y-95755000D02*
X124641700Y-95800000D01*
X124239544Y-95755000D02*
X124596700Y-95755000D01*
X123919544Y-95435000D02*
X124239544Y-95755000D01*
X122079200Y-95435000D02*
X123919544Y-95435000D01*
X121429200Y-96535000D02*
X121429200Y-96085000D01*
X121429200Y-96085000D02*
X122079200Y-95435000D01*
X124055800Y-96300000D02*
X124641700Y-96300000D01*
X122429200Y-96535000D02*
X123820800Y-96535000D01*
X123820800Y-96535000D02*
X124055800Y-96300000D01*
X134100012Y-99070012D02*
X134340001Y-99310001D01*
X134340001Y-99310001D02*
X135240000Y-100210000D01*
X131829200Y-99070012D02*
X134100012Y-99070012D01*
X131533466Y-99070012D02*
X131829200Y-99070012D01*
X128329200Y-98345000D02*
X128329200Y-97987500D01*
X128654198Y-98669998D02*
X128329200Y-98345000D01*
X130484198Y-98669998D02*
X128654198Y-98669998D01*
X131829200Y-99070012D02*
X130884212Y-99070012D01*
X130884212Y-99070012D02*
X130484198Y-98669998D01*
X128904235Y-98360035D02*
X128829200Y-98285000D01*
X128829200Y-98285000D02*
X128829200Y-97987500D01*
X129029200Y-98335000D02*
X128879200Y-98185000D01*
X129029200Y-98360035D02*
X129029200Y-98335000D01*
X129029200Y-98360035D02*
X128904235Y-98360035D01*
X130654235Y-98360035D02*
X129029200Y-98360035D01*
X131064201Y-98770001D02*
X130654235Y-98360035D01*
X135240000Y-97670000D02*
X134139999Y-98770001D01*
X134139999Y-98770001D02*
X131064201Y-98770001D01*
X118764200Y-98535000D02*
X118679200Y-98450000D01*
X119611792Y-98535000D02*
X118764200Y-98535000D01*
X119779200Y-98702408D02*
X119611792Y-98535000D01*
X119779200Y-99210000D02*
X119779200Y-99035000D01*
X120104200Y-99535000D02*
X119779200Y-99210000D01*
X120429200Y-99535000D02*
X120104200Y-99535000D01*
X119779200Y-99035000D02*
X119779200Y-98702408D01*
X118730000Y-101535000D02*
X118225000Y-102040000D01*
X120279200Y-101535000D02*
X118730000Y-101535000D01*
X121429200Y-99800000D02*
X121429200Y-100385000D01*
X121429200Y-100385000D02*
X120279200Y-101535000D01*
X118675000Y-104740000D02*
X118225000Y-104740000D01*
X118830000Y-104135000D02*
X118225000Y-104740000D01*
X120129200Y-104135000D02*
X118830000Y-104135000D01*
X121929200Y-102335000D02*
X120129200Y-104135000D01*
X121929200Y-99800000D02*
X121929200Y-102335000D01*
X123929200Y-102520000D02*
X124064200Y-102385000D01*
X123929200Y-103475000D02*
X123929200Y-102520000D01*
X124064200Y-102385000D02*
X124064200Y-102300000D01*
X124064200Y-102124278D02*
X124064200Y-102385000D01*
X125379200Y-101135000D02*
X125053478Y-101135000D01*
X126329200Y-97987500D02*
X126329200Y-100185000D01*
X126329200Y-100185000D02*
X125379200Y-101135000D01*
X125053478Y-101135000D02*
X124064200Y-102124278D01*
X126829200Y-98525000D02*
X126829200Y-97987500D01*
X126829200Y-100535000D02*
X126829200Y-98075000D01*
X124429200Y-103475000D02*
X124429200Y-102835000D01*
X124629200Y-102635000D02*
X124629200Y-102113998D01*
X124629200Y-102113998D02*
X125308187Y-101435011D01*
X125308187Y-101435011D02*
X125929189Y-101435011D01*
X124429200Y-102835000D02*
X124629200Y-102635000D01*
X125929189Y-101435011D02*
X126829200Y-100535000D01*
D26*
X134279200Y-94950000D02*
X134829200Y-94400000D01*
D30*
X132229200Y-95150000D02*
X132779200Y-94600000D01*
D24*
X126094200Y-104850000D02*
X126079200Y-104865000D01*
X126864200Y-104965000D02*
X125529200Y-104965000D01*
X129529200Y-93787500D02*
X129516700Y-93800000D01*
D28*
X129529200Y-93150000D02*
X129529200Y-93787500D01*
D26*
X130829200Y-92505000D02*
X130829200Y-94155000D01*
D25*
X128829200Y-93800000D02*
X127079200Y-95550000D01*
X129516700Y-93800000D02*
X128829200Y-93800000D01*
X125329200Y-97300000D02*
X127079200Y-95550000D01*
X124641700Y-97300000D02*
X125329200Y-97300000D01*
D30*
X132179200Y-95100000D02*
X132729200Y-94550000D01*
D24*
X133970000Y-95130000D02*
X133299200Y-95130000D01*
D26*
X134020000Y-95080000D02*
X132929200Y-95450000D01*
X130464200Y-103035000D02*
X131179200Y-103035000D01*
D24*
X134879200Y-96039200D02*
X133970000Y-95130000D01*
X134879200Y-96185000D02*
X134879200Y-96039200D01*
X132679200Y-94615000D02*
X132679200Y-94450000D01*
D26*
X132679200Y-94450000D02*
X133970000Y-95130000D01*
X131109200Y-95165000D02*
X131129200Y-95165000D01*
X130844200Y-94150000D02*
X130844200Y-94900000D01*
X130844200Y-94900000D02*
X131109200Y-95165000D01*
D24*
X130266700Y-102772500D02*
X130266700Y-103047500D01*
D26*
X130409200Y-102815000D02*
X130509200Y-102815000D01*
X130354200Y-102760000D02*
X130409200Y-102815000D01*
D24*
X130339945Y-103035000D02*
X130020214Y-103354731D01*
X130464200Y-103035000D02*
X130339945Y-103035000D01*
G36*
X124172454Y-91186010D02*
G01*
X124154200Y-91277779D01*
X124154200Y-91371345D01*
X124172454Y-91463114D01*
X124208261Y-91549559D01*
X124260244Y-91627357D01*
X124286273Y-91653386D01*
X124258013Y-91681646D01*
X124206030Y-91759444D01*
X124170223Y-91845889D01*
X124151969Y-91937658D01*
X124151969Y-92031224D01*
X124170223Y-92122993D01*
X124206030Y-92209438D01*
X124258013Y-92287236D01*
X124324174Y-92353397D01*
X124401972Y-92405380D01*
X124488417Y-92441187D01*
X124580186Y-92459441D01*
X124673752Y-92459441D01*
X124765521Y-92441187D01*
X124851966Y-92405380D01*
X124929764Y-92353397D01*
X124995925Y-92287236D01*
X124997793Y-92284441D01*
X125054200Y-92284441D01*
X125054200Y-92543718D01*
X125026748Y-92577169D01*
X125000079Y-92627062D01*
X124983657Y-92681199D01*
X124978112Y-92737500D01*
X124978112Y-92837163D01*
X124931994Y-92791045D01*
X124854196Y-92739062D01*
X124767751Y-92703255D01*
X124675982Y-92685001D01*
X124582416Y-92685001D01*
X124490647Y-92703255D01*
X124404202Y-92739062D01*
X124326404Y-92791045D01*
X124260243Y-92857206D01*
X124208260Y-92935004D01*
X124172453Y-93021449D01*
X124160013Y-93083987D01*
X124109752Y-93033725D01*
X124109752Y-92971561D01*
X124091498Y-92879792D01*
X124055691Y-92793347D01*
X124003708Y-92715549D01*
X123937547Y-92649388D01*
X123859749Y-92597405D01*
X123773304Y-92561598D01*
X123681535Y-92543344D01*
X123587969Y-92543344D01*
X123496200Y-92561598D01*
X123409755Y-92597405D01*
X123331957Y-92649388D01*
X123265796Y-92715549D01*
X123213813Y-92793347D01*
X123178006Y-92879792D01*
X123159752Y-92971561D01*
X123159752Y-93065127D01*
X123178006Y-93156896D01*
X123213813Y-93243341D01*
X123265796Y-93321139D01*
X123331957Y-93387300D01*
X123361933Y-93407329D01*
X123326445Y-93431042D01*
X123260284Y-93497203D01*
X123258416Y-93499998D01*
X122328924Y-93499998D01*
X122314201Y-93498548D01*
X122299478Y-93499998D01*
X122299469Y-93499998D01*
X122255392Y-93504339D01*
X122198842Y-93521494D01*
X122181989Y-93530502D01*
X122146724Y-93549351D01*
X122121599Y-93569971D01*
X122101044Y-93586840D01*
X122091653Y-93598283D01*
X121577490Y-94112447D01*
X121577485Y-94112451D01*
X120227490Y-95462447D01*
X120216042Y-95471842D01*
X120198014Y-95493810D01*
X120178553Y-95517523D01*
X120175867Y-95522549D01*
X120150696Y-95569641D01*
X120133541Y-95626191D01*
X120129200Y-95670268D01*
X120129200Y-95670277D01*
X120127750Y-95685000D01*
X120129200Y-95699723D01*
X120129200Y-96046690D01*
X120128592Y-96047015D01*
X120094332Y-96075132D01*
X120066215Y-96109392D01*
X120045322Y-96148480D01*
X120032456Y-96190892D01*
X120028112Y-96235000D01*
X120028112Y-96835000D01*
X120032456Y-96879108D01*
X120045322Y-96921520D01*
X120066215Y-96960608D01*
X120083675Y-96981883D01*
X120043804Y-97014604D01*
X120009439Y-97056479D01*
X119983903Y-97104253D01*
X119968179Y-97156090D01*
X119962869Y-97210000D01*
X119964200Y-97891250D01*
X120032950Y-97960000D01*
X121354200Y-97960000D01*
X121354200Y-97940000D01*
X121504200Y-97940000D01*
X121504200Y-97960000D01*
X122825450Y-97960000D01*
X122894200Y-97891250D01*
X122895531Y-97210000D01*
X122890221Y-97156090D01*
X122874497Y-97104253D01*
X122848961Y-97056479D01*
X122814596Y-97014604D01*
X122774725Y-96981883D01*
X122792185Y-96960608D01*
X122813078Y-96921520D01*
X122825944Y-96879108D01*
X122830288Y-96835000D01*
X123372866Y-96835000D01*
X123326405Y-96866044D01*
X123260244Y-96932205D01*
X123208261Y-97010003D01*
X123172454Y-97096448D01*
X123154200Y-97188217D01*
X123154200Y-97281783D01*
X123172454Y-97373552D01*
X123208261Y-97459997D01*
X123260244Y-97537795D01*
X123326405Y-97603956D01*
X123404203Y-97655939D01*
X123490648Y-97691746D01*
X123582417Y-97710000D01*
X123675983Y-97710000D01*
X123767752Y-97691746D01*
X123854197Y-97655939D01*
X123931995Y-97603956D01*
X123968514Y-97567437D01*
X123974439Y-97578521D01*
X124008804Y-97620396D01*
X124050679Y-97654761D01*
X124098453Y-97680297D01*
X124150290Y-97696021D01*
X124204200Y-97701331D01*
X124497950Y-97700000D01*
X124566700Y-97631250D01*
X124566700Y-97350000D01*
X124546700Y-97350000D01*
X124546700Y-97250000D01*
X124566700Y-97250000D01*
X124566700Y-97205000D01*
X124716700Y-97205000D01*
X124716700Y-97250000D01*
X124736700Y-97250000D01*
X124736700Y-97350000D01*
X124716700Y-97350000D01*
X124716700Y-97631250D01*
X124785450Y-97700000D01*
X124978112Y-97700873D01*
X124978112Y-98362500D01*
X124979200Y-98373550D01*
X124979201Y-98716801D01*
X124831034Y-98864968D01*
X124773734Y-98882350D01*
X124709146Y-98916873D01*
X124652533Y-98963333D01*
X124644132Y-98973570D01*
X124618961Y-98926479D01*
X124584596Y-98884604D01*
X124542721Y-98850239D01*
X124494947Y-98824703D01*
X124443110Y-98808979D01*
X124389200Y-98803669D01*
X124237950Y-98805000D01*
X124169200Y-98873750D01*
X124169200Y-99325000D01*
X124189200Y-99325000D01*
X124189200Y-99475000D01*
X124169200Y-99475000D01*
X124169200Y-99926250D01*
X124217950Y-99975000D01*
X124169200Y-100023750D01*
X124169200Y-100475000D01*
X124189200Y-100475000D01*
X124189200Y-100625000D01*
X124169200Y-100625000D01*
X124169200Y-100645000D01*
X124019200Y-100645000D01*
X124019200Y-100625000D01*
X123592950Y-100625000D01*
X123524200Y-100693750D01*
X123522869Y-100870000D01*
X123528179Y-100923910D01*
X123543903Y-100975747D01*
X123569439Y-101023521D01*
X123603804Y-101065396D01*
X123645679Y-101099761D01*
X123693453Y-101125297D01*
X123745290Y-101141021D01*
X123771381Y-101143591D01*
X123742001Y-101152503D01*
X123728839Y-101156496D01*
X123676722Y-101184353D01*
X123645910Y-101209640D01*
X123631042Y-101221842D01*
X123621651Y-101233285D01*
X123166025Y-101688912D01*
X122896700Y-101688912D01*
X122823817Y-101696090D01*
X122753734Y-101717350D01*
X122689146Y-101751873D01*
X122632533Y-101798333D01*
X122586073Y-101854946D01*
X122551550Y-101919534D01*
X122530290Y-101989617D01*
X122523112Y-102062500D01*
X122523112Y-102331824D01*
X121027490Y-103827447D01*
X121016042Y-103836842D01*
X120999965Y-103856433D01*
X120978553Y-103882523D01*
X120973556Y-103891873D01*
X120950696Y-103934641D01*
X120933541Y-103991191D01*
X120929200Y-104035268D01*
X120929200Y-104035277D01*
X120927750Y-104050000D01*
X120929200Y-104064723D01*
X120929201Y-105460735D01*
X120204937Y-106185000D01*
X116453464Y-106185000D01*
X116229200Y-105960737D01*
X116229200Y-100919263D01*
X116620228Y-100528236D01*
X117671241Y-100528236D01*
X117685964Y-100529686D01*
X117700687Y-100528236D01*
X117700697Y-100528236D01*
X117744774Y-100523895D01*
X117801324Y-100506740D01*
X117853441Y-100478883D01*
X117899122Y-100441394D01*
X117908517Y-100429946D01*
X118211791Y-100126673D01*
X118239950Y-100135215D01*
X118336083Y-100154337D01*
X118380191Y-100158681D01*
X118404750Y-100158681D01*
X118429200Y-100161089D01*
X118929200Y-100161089D01*
X118953650Y-100158681D01*
X118978209Y-100158681D01*
X119022317Y-100154337D01*
X119118450Y-100135215D01*
X119146609Y-100126673D01*
X119456651Y-100436715D01*
X119466042Y-100448158D01*
X119477485Y-100457549D01*
X119477486Y-100457550D01*
X119511722Y-100485647D01*
X119557264Y-100509989D01*
X119563840Y-100513504D01*
X119620390Y-100530659D01*
X119664467Y-100535000D01*
X119664470Y-100535000D01*
X119679200Y-100536451D01*
X119693930Y-100535000D01*
X120664477Y-100535000D01*
X120679200Y-100536450D01*
X120693923Y-100535000D01*
X120693933Y-100535000D01*
X120738010Y-100530659D01*
X120794560Y-100513504D01*
X120846677Y-100485647D01*
X120892358Y-100448158D01*
X120901753Y-100436710D01*
X121129201Y-100209263D01*
X121129201Y-100260735D01*
X120154937Y-101235000D01*
X120001088Y-101235000D01*
X120001088Y-100940000D01*
X119996744Y-100895892D01*
X119983878Y-100853480D01*
X119962985Y-100814392D01*
X119934868Y-100780132D01*
X119900608Y-100752015D01*
X119861520Y-100731122D01*
X119819108Y-100718256D01*
X119775000Y-100713912D01*
X116675000Y-100713912D01*
X116630892Y-100718256D01*
X116588480Y-100731122D01*
X116549392Y-100752015D01*
X116515132Y-100780132D01*
X116487015Y-100814392D01*
X116466122Y-100853480D01*
X116453256Y-100895892D01*
X116448912Y-100940000D01*
X116448912Y-103140000D01*
X116453256Y-103184108D01*
X116466122Y-103226520D01*
X116487015Y-103265608D01*
X116515132Y-103299868D01*
X116549392Y-103327985D01*
X116588480Y-103348878D01*
X116630892Y-103361744D01*
X116675000Y-103366088D01*
X119775000Y-103366088D01*
X119819108Y-103361744D01*
X119861520Y-103348878D01*
X119900608Y-103327985D01*
X119934868Y-103299868D01*
X119962985Y-103265608D01*
X119983878Y-103226520D01*
X119996744Y-103184108D01*
X120001088Y-103140000D01*
X120001088Y-101835000D01*
X120264477Y-101835000D01*
X120279200Y-101836450D01*
X120293923Y-101835000D01*
X120293933Y-101835000D01*
X120338010Y-101830659D01*
X120394560Y-101813504D01*
X120446677Y-101785647D01*
X120492358Y-101748158D01*
X120501753Y-101736710D01*
X121629200Y-100609264D01*
X121629201Y-102210735D01*
X120004937Y-103835000D01*
X120001088Y-103835000D01*
X120001088Y-103640000D01*
X119996744Y-103595892D01*
X119983878Y-103553480D01*
X119962985Y-103514392D01*
X119934868Y-103480132D01*
X119900608Y-103452015D01*
X119861520Y-103431122D01*
X119819108Y-103418256D01*
X119775000Y-103413912D01*
X116675000Y-103413912D01*
X116630892Y-103418256D01*
X116588480Y-103431122D01*
X116549392Y-103452015D01*
X116515132Y-103480132D01*
X116487015Y-103514392D01*
X116466122Y-103553480D01*
X116453256Y-103595892D01*
X116448912Y-103640000D01*
X116448912Y-105840000D01*
X116453256Y-105884108D01*
X116466122Y-105926520D01*
X116487015Y-105965608D01*
X116515132Y-105999868D01*
X116549392Y-106027985D01*
X116588480Y-106048878D01*
X116630892Y-106061744D01*
X116675000Y-106066088D01*
X119775000Y-106066088D01*
X119819108Y-106061744D01*
X119861520Y-106048878D01*
X119900608Y-106027985D01*
X119934868Y-105999868D01*
X119962985Y-105965608D01*
X119983878Y-105926520D01*
X119996744Y-105884108D01*
X120001088Y-105840000D01*
X120001088Y-104435000D01*
X120114477Y-104435000D01*
X120129200Y-104436450D01*
X120143923Y-104435000D01*
X120143933Y-104435000D01*
X120188010Y-104430659D01*
X120244560Y-104413504D01*
X120296677Y-104385647D01*
X120342358Y-104348158D01*
X120351753Y-104336710D01*
X122130915Y-102557549D01*
X122142358Y-102548158D01*
X122156860Y-102530487D01*
X122179847Y-102502478D01*
X122198530Y-102467523D01*
X122207704Y-102450360D01*
X122224859Y-102393810D01*
X122229200Y-102349733D01*
X122229200Y-102349724D01*
X122230650Y-102335001D01*
X122229200Y-102320278D01*
X122229200Y-100108869D01*
X122254200Y-100111331D01*
X122285450Y-100110000D01*
X122354200Y-100041250D01*
X122354200Y-99610000D01*
X122504200Y-99610000D01*
X122504200Y-100041250D01*
X122572950Y-100110000D01*
X122604200Y-100111331D01*
X122658110Y-100106021D01*
X122709947Y-100090297D01*
X122757721Y-100064761D01*
X122799596Y-100030396D01*
X122833961Y-99988521D01*
X122859497Y-99940747D01*
X122875221Y-99888910D01*
X122880531Y-99835000D01*
X122879552Y-99720000D01*
X123522869Y-99720000D01*
X123528179Y-99773910D01*
X123543903Y-99825747D01*
X123569439Y-99873521D01*
X123603804Y-99915396D01*
X123645679Y-99949761D01*
X123692897Y-99975000D01*
X123645679Y-100000239D01*
X123603804Y-100034604D01*
X123569439Y-100076479D01*
X123543903Y-100124253D01*
X123528179Y-100176090D01*
X123522869Y-100230000D01*
X123524200Y-100406250D01*
X123592950Y-100475000D01*
X124019200Y-100475000D01*
X124019200Y-100023750D01*
X123970450Y-99975000D01*
X124019200Y-99926250D01*
X124019200Y-99475000D01*
X123592950Y-99475000D01*
X123524200Y-99543750D01*
X123522869Y-99720000D01*
X122879552Y-99720000D01*
X122879200Y-99678750D01*
X122810450Y-99610000D01*
X122504200Y-99610000D01*
X122354200Y-99610000D01*
X122334200Y-99610000D01*
X122334200Y-99460000D01*
X122354200Y-99460000D01*
X122354200Y-99440000D01*
X122504200Y-99440000D01*
X122504200Y-99460000D01*
X122810450Y-99460000D01*
X122879200Y-99391250D01*
X122880531Y-99235000D01*
X122875221Y-99181090D01*
X122859497Y-99129253D01*
X122833961Y-99081479D01*
X122832748Y-99080000D01*
X123522869Y-99080000D01*
X123524200Y-99256250D01*
X123592950Y-99325000D01*
X124019200Y-99325000D01*
X124019200Y-98873750D01*
X123950450Y-98805000D01*
X123799200Y-98803669D01*
X123745290Y-98808979D01*
X123693453Y-98824703D01*
X123645679Y-98850239D01*
X123603804Y-98884604D01*
X123569439Y-98926479D01*
X123543903Y-98974253D01*
X123528179Y-99026090D01*
X123522869Y-99080000D01*
X122832748Y-99080000D01*
X122813377Y-99056396D01*
X122814596Y-99055396D01*
X122848961Y-99013521D01*
X122874497Y-98965747D01*
X122890221Y-98913910D01*
X122895531Y-98860000D01*
X122894200Y-98178750D01*
X122825450Y-98110000D01*
X121504200Y-98110000D01*
X121504200Y-98130000D01*
X121354200Y-98130000D01*
X121354200Y-98110000D01*
X120032950Y-98110000D01*
X119964200Y-98178750D01*
X119963645Y-98462590D01*
X119834345Y-98333290D01*
X119824950Y-98321842D01*
X119779269Y-98284353D01*
X119727152Y-98256496D01*
X119670602Y-98239341D01*
X119655289Y-98237833D01*
X119655289Y-98135000D01*
X119652881Y-98110550D01*
X119652881Y-98085991D01*
X119648537Y-98041883D01*
X119629415Y-97945750D01*
X119616549Y-97903339D01*
X119579040Y-97812783D01*
X119558147Y-97773694D01*
X119503691Y-97692195D01*
X119475574Y-97657934D01*
X119406266Y-97588626D01*
X119372005Y-97560509D01*
X119290506Y-97506053D01*
X119251417Y-97485160D01*
X119160861Y-97447651D01*
X119118450Y-97434785D01*
X119022317Y-97415663D01*
X118978209Y-97411319D01*
X118953650Y-97411319D01*
X118929200Y-97408911D01*
X118429200Y-97408911D01*
X118404750Y-97411319D01*
X118380191Y-97411319D01*
X118336083Y-97415663D01*
X118239950Y-97434785D01*
X118197539Y-97447651D01*
X118106983Y-97485160D01*
X118067894Y-97506053D01*
X117986395Y-97560509D01*
X117952134Y-97588626D01*
X117882826Y-97657934D01*
X117854709Y-97692195D01*
X117800253Y-97773694D01*
X117779360Y-97812783D01*
X117741851Y-97903339D01*
X117728985Y-97945750D01*
X117709863Y-98041883D01*
X117705519Y-98085991D01*
X117705519Y-98110550D01*
X117703111Y-98135000D01*
X117703111Y-98635000D01*
X117707455Y-98679108D01*
X117720321Y-98721521D01*
X117741214Y-98760608D01*
X117761232Y-98785000D01*
X117741214Y-98809392D01*
X117720321Y-98848479D01*
X117707455Y-98890892D01*
X117703111Y-98935000D01*
X117703111Y-99435000D01*
X117705519Y-99459450D01*
X117705519Y-99484009D01*
X117709863Y-99528117D01*
X117728985Y-99624250D01*
X117741851Y-99666661D01*
X117765699Y-99724237D01*
X117561701Y-99928236D01*
X116510686Y-99928236D01*
X116495963Y-99926786D01*
X116481240Y-99928236D01*
X116481231Y-99928236D01*
X116437154Y-99932577D01*
X116380604Y-99949732D01*
X116364348Y-99958421D01*
X116328486Y-99977589D01*
X116300390Y-100000647D01*
X116282806Y-100015078D01*
X116273415Y-100026521D01*
X115727485Y-100572452D01*
X115716043Y-100581842D01*
X115706652Y-100593285D01*
X115706651Y-100593286D01*
X115678553Y-100627523D01*
X115650697Y-100679640D01*
X115633542Y-100736190D01*
X115627750Y-100795000D01*
X115629201Y-100809733D01*
X115629200Y-106070277D01*
X115627750Y-106085000D01*
X115629200Y-106099723D01*
X115629200Y-106099732D01*
X115633541Y-106143809D01*
X115650696Y-106200359D01*
X115660242Y-106218219D01*
X115678553Y-106252477D01*
X115691908Y-106268750D01*
X115716042Y-106298158D01*
X115727490Y-106307553D01*
X116106651Y-106686715D01*
X116116042Y-106698158D01*
X116127485Y-106707549D01*
X116161722Y-106735647D01*
X116189579Y-106750536D01*
X116213840Y-106763504D01*
X116270390Y-106780659D01*
X116314467Y-106785000D01*
X116314476Y-106785000D01*
X116329199Y-106786450D01*
X116343922Y-106785000D01*
X120314477Y-106785000D01*
X120329200Y-106786450D01*
X120343923Y-106785000D01*
X120343933Y-106785000D01*
X120388010Y-106780659D01*
X120444560Y-106763504D01*
X120496677Y-106735647D01*
X120542358Y-106698158D01*
X120551753Y-106686710D01*
X121430915Y-105807549D01*
X121442358Y-105798158D01*
X121458797Y-105778127D01*
X121479847Y-105752478D01*
X121497399Y-105719640D01*
X121507704Y-105700360D01*
X121524859Y-105643810D01*
X121529200Y-105599733D01*
X121529200Y-105599724D01*
X121530650Y-105585001D01*
X121529200Y-105570278D01*
X121529200Y-104174263D01*
X121725268Y-103978195D01*
X121724200Y-103989040D01*
X121724200Y-103989047D01*
X121722629Y-104005000D01*
X121724200Y-104020953D01*
X121724201Y-105895479D01*
X121724200Y-105895489D01*
X121724200Y-105918251D01*
X121680244Y-105962207D01*
X121628261Y-106040005D01*
X121592454Y-106126450D01*
X121574200Y-106218219D01*
X121574200Y-106311785D01*
X121592454Y-106403554D01*
X121628261Y-106489999D01*
X121680244Y-106567797D01*
X121746405Y-106633958D01*
X121824203Y-106685941D01*
X121910648Y-106721748D01*
X122002417Y-106740002D01*
X122095983Y-106740002D01*
X122187752Y-106721748D01*
X122274197Y-106685941D01*
X122351995Y-106633958D01*
X122418156Y-106567797D01*
X122470139Y-106489999D01*
X122505946Y-106403554D01*
X122524200Y-106311785D01*
X122524200Y-106218219D01*
X122505946Y-106126450D01*
X122470139Y-106040005D01*
X122418156Y-105962207D01*
X122374200Y-105918251D01*
X122374200Y-104139618D01*
X122612399Y-103901420D01*
X122619332Y-103909868D01*
X122653592Y-103937985D01*
X122692680Y-103958878D01*
X122735092Y-103971744D01*
X122779200Y-103976088D01*
X122786444Y-103976088D01*
X122769332Y-103990132D01*
X122741215Y-104024392D01*
X122720322Y-104063480D01*
X122707456Y-104105892D01*
X122703112Y-104150000D01*
X122703112Y-105450000D01*
X122707456Y-105494108D01*
X122720322Y-105536520D01*
X122741215Y-105575608D01*
X122769332Y-105609868D01*
X122786444Y-105623912D01*
X122779200Y-105623912D01*
X122735092Y-105628256D01*
X122692680Y-105641122D01*
X122653592Y-105662015D01*
X122619332Y-105690132D01*
X122591215Y-105724392D01*
X122570322Y-105763480D01*
X122557456Y-105805892D01*
X122553112Y-105850000D01*
X122553112Y-106400000D01*
X122557456Y-106444108D01*
X122570322Y-106486520D01*
X122591215Y-106525608D01*
X122619332Y-106559868D01*
X122653592Y-106587985D01*
X122692680Y-106608878D01*
X122735092Y-106621744D01*
X122779200Y-106626088D01*
X123079200Y-106626088D01*
X123123308Y-106621744D01*
X123165720Y-106608878D01*
X123179200Y-106601673D01*
X123192680Y-106608878D01*
X123235092Y-106621744D01*
X123279200Y-106626088D01*
X123579200Y-106626088D01*
X123623308Y-106621744D01*
X123665720Y-106608878D01*
X123679200Y-106601673D01*
X123692680Y-106608878D01*
X123735092Y-106621744D01*
X123779200Y-106626088D01*
X124079200Y-106626088D01*
X124116703Y-106622395D01*
X124125679Y-106629761D01*
X124173453Y-106655297D01*
X124225290Y-106671021D01*
X124279200Y-106676331D01*
X124285450Y-106675000D01*
X124354200Y-106606250D01*
X124354200Y-106200000D01*
X124504200Y-106200000D01*
X124504200Y-106606250D01*
X124572950Y-106675000D01*
X124579200Y-106676331D01*
X124633110Y-106671021D01*
X124684947Y-106655297D01*
X124732721Y-106629761D01*
X124774596Y-106595396D01*
X124808961Y-106553521D01*
X124834497Y-106505747D01*
X124850221Y-106453910D01*
X124855531Y-106400000D01*
X124854200Y-106268750D01*
X124785450Y-106200000D01*
X124504200Y-106200000D01*
X124354200Y-106200000D01*
X124334200Y-106200000D01*
X124334200Y-106050000D01*
X124354200Y-106050000D01*
X124354200Y-106030000D01*
X124504200Y-106030000D01*
X124504200Y-106050000D01*
X124785450Y-106050000D01*
X124854200Y-105981250D01*
X124855531Y-105850000D01*
X124850221Y-105796090D01*
X124834497Y-105744253D01*
X124808961Y-105696479D01*
X124774596Y-105654604D01*
X124732721Y-105620239D01*
X124684947Y-105594703D01*
X124633110Y-105578979D01*
X124615816Y-105577276D01*
X124617185Y-105575608D01*
X124638078Y-105536520D01*
X124650944Y-105494108D01*
X124655288Y-105450000D01*
X124655288Y-104670000D01*
X124932869Y-104670000D01*
X124934200Y-104821250D01*
X125002950Y-104890000D01*
X125454200Y-104890000D01*
X125454200Y-104870000D01*
X125604200Y-104870000D01*
X125604200Y-104890000D01*
X126055450Y-104890000D01*
X126124200Y-104821250D01*
X126124331Y-104806381D01*
X126192950Y-104875000D01*
X126854200Y-104875000D01*
X126854200Y-104855000D01*
X127004200Y-104855000D01*
X127004200Y-104875000D01*
X127665450Y-104875000D01*
X127734200Y-104806250D01*
X127735531Y-104625000D01*
X127730221Y-104571090D01*
X127714497Y-104519253D01*
X127688961Y-104471479D01*
X127656907Y-104432420D01*
X127668078Y-104411520D01*
X127680944Y-104369108D01*
X127685288Y-104325000D01*
X127685288Y-103675000D01*
X127680944Y-103630892D01*
X127668078Y-103588480D01*
X127647185Y-103549392D01*
X127619068Y-103515132D01*
X127584808Y-103487015D01*
X127545720Y-103466122D01*
X127503308Y-103453256D01*
X127459200Y-103448912D01*
X126399200Y-103448912D01*
X126355092Y-103453256D01*
X126312680Y-103466122D01*
X126273592Y-103487015D01*
X126239332Y-103515132D01*
X126211215Y-103549392D01*
X126190322Y-103588480D01*
X126183794Y-103610000D01*
X125995958Y-103610000D01*
X125965867Y-103573333D01*
X125911430Y-103528659D01*
X125937167Y-103514902D01*
X126001393Y-103462193D01*
X126054102Y-103397967D01*
X126090431Y-103330000D01*
X130582869Y-103330000D01*
X130588179Y-103383910D01*
X130603903Y-103435747D01*
X130629439Y-103483521D01*
X130663804Y-103525396D01*
X130705679Y-103559761D01*
X130753453Y-103585297D01*
X130805290Y-103601021D01*
X130859200Y-103606331D01*
X131035450Y-103605000D01*
X131104200Y-103536250D01*
X131104200Y-103110000D01*
X130652950Y-103110000D01*
X130584200Y-103178750D01*
X130582869Y-103330000D01*
X126090431Y-103330000D01*
X126093268Y-103324693D01*
X126117386Y-103245185D01*
X126125530Y-103162500D01*
X126125530Y-102867500D01*
X126117386Y-102784815D01*
X126093268Y-102705307D01*
X126054102Y-102632033D01*
X126033587Y-102607035D01*
X126067319Y-102556551D01*
X126106894Y-102461007D01*
X126127070Y-102359578D01*
X126127070Y-102256162D01*
X126106894Y-102154733D01*
X126067319Y-102059189D01*
X126009864Y-101973202D01*
X125936738Y-101900076D01*
X125850751Y-101842621D01*
X125755207Y-101803046D01*
X125653778Y-101782870D01*
X125550362Y-101782870D01*
X125448933Y-101803046D01*
X125353389Y-101842621D01*
X125267402Y-101900076D01*
X125194276Y-101973202D01*
X125136821Y-102059189D01*
X125097246Y-102154733D01*
X125077070Y-102256162D01*
X125077070Y-102359578D01*
X125097246Y-102461007D01*
X125120052Y-102516067D01*
X125057007Y-102567807D01*
X125004298Y-102632033D01*
X124965132Y-102705307D01*
X124941014Y-102784815D01*
X124932870Y-102867500D01*
X124932870Y-103162500D01*
X124941014Y-103245185D01*
X124965132Y-103324693D01*
X125004298Y-103397967D01*
X125057007Y-103462193D01*
X125121233Y-103514902D01*
X125146970Y-103528659D01*
X125092533Y-103573333D01*
X125046073Y-103629946D01*
X125011550Y-103694534D01*
X124990290Y-103764617D01*
X124983112Y-103837500D01*
X124983112Y-104132500D01*
X124990290Y-104205383D01*
X125011550Y-104275466D01*
X125046073Y-104340054D01*
X125092533Y-104396667D01*
X125111526Y-104412254D01*
X125103453Y-104414703D01*
X125055679Y-104440239D01*
X125013804Y-104474604D01*
X124979439Y-104516479D01*
X124953903Y-104564253D01*
X124938179Y-104616090D01*
X124932869Y-104670000D01*
X124655288Y-104670000D01*
X124655288Y-104150000D01*
X124650944Y-104105892D01*
X124638078Y-104063480D01*
X124617185Y-104024392D01*
X124589068Y-103990132D01*
X124571956Y-103976088D01*
X124579200Y-103976088D01*
X124623308Y-103971744D01*
X124665720Y-103958878D01*
X124704808Y-103937985D01*
X124739068Y-103909868D01*
X124767185Y-103875608D01*
X124788078Y-103836520D01*
X124800944Y-103794108D01*
X124805288Y-103750000D01*
X124805288Y-103200000D01*
X124800944Y-103155892D01*
X124788078Y-103113480D01*
X124767185Y-103074392D01*
X124739068Y-103040132D01*
X124729200Y-103032033D01*
X124729200Y-102959263D01*
X124830916Y-102857548D01*
X124842358Y-102848158D01*
X124851750Y-102836714D01*
X124879847Y-102802478D01*
X124907704Y-102750361D01*
X124915292Y-102725347D01*
X124924859Y-102693810D01*
X124929200Y-102649733D01*
X124929200Y-102649730D01*
X124930651Y-102635000D01*
X124929200Y-102620270D01*
X124929200Y-102238261D01*
X125432451Y-101735011D01*
X125914466Y-101735011D01*
X125929189Y-101736461D01*
X125943912Y-101735011D01*
X125943922Y-101735011D01*
X125987999Y-101730670D01*
X126044549Y-101713515D01*
X126096666Y-101685658D01*
X126142347Y-101648169D01*
X126151742Y-101636721D01*
X126184985Y-101603478D01*
X126183112Y-101622500D01*
X126183112Y-101917500D01*
X126190290Y-101990383D01*
X126211550Y-102060466D01*
X126246073Y-102125054D01*
X126292533Y-102181667D01*
X126349146Y-102228127D01*
X126413734Y-102262650D01*
X126483817Y-102283910D01*
X126556700Y-102291088D01*
X126901700Y-102291088D01*
X126974583Y-102283910D01*
X127044666Y-102262650D01*
X127109254Y-102228127D01*
X127165867Y-102181667D01*
X127212327Y-102125054D01*
X127224580Y-102102131D01*
X127276405Y-102153956D01*
X127354203Y-102205939D01*
X127440648Y-102241746D01*
X127454898Y-102244581D01*
X127797456Y-102587139D01*
X127809199Y-102601448D01*
X127825290Y-102614653D01*
X127866300Y-102648310D01*
X127906153Y-102669611D01*
X127931447Y-102683131D01*
X128002134Y-102704574D01*
X128057228Y-102710000D01*
X128057231Y-102710000D01*
X128075647Y-102711814D01*
X128094063Y-102710000D01*
X128473871Y-102710000D01*
X128721009Y-102957139D01*
X128732752Y-102971448D01*
X128779135Y-103009513D01*
X128789853Y-103018309D01*
X128852834Y-103051973D01*
X128855000Y-103053131D01*
X128925687Y-103074574D01*
X128980781Y-103080000D01*
X128980783Y-103080000D01*
X128999199Y-103081814D01*
X129017615Y-103080000D01*
X129289041Y-103080000D01*
X129291944Y-103081570D01*
X129310563Y-103091805D01*
X129311314Y-103092043D01*
X129312009Y-103092419D01*
X129332248Y-103098684D01*
X129352420Y-103105083D01*
X129353204Y-103105171D01*
X129353957Y-103105404D01*
X129375047Y-103107621D01*
X129396059Y-103109978D01*
X129397568Y-103109989D01*
X129397629Y-103109995D01*
X129397690Y-103109989D01*
X129399200Y-103110000D01*
X129699200Y-103110000D01*
X129720221Y-103107939D01*
X129741361Y-103106015D01*
X129742119Y-103105792D01*
X129742903Y-103105715D01*
X129763205Y-103099585D01*
X129783486Y-103093616D01*
X129784182Y-103093252D01*
X129784941Y-103093023D01*
X129803656Y-103083072D01*
X129822402Y-103073272D01*
X129823019Y-103072776D01*
X129823713Y-103072407D01*
X129840113Y-103059031D01*
X129856624Y-103045756D01*
X129857130Y-103045153D01*
X129857743Y-103044653D01*
X129871200Y-103028385D01*
X129879306Y-103018725D01*
X129885169Y-103025913D01*
X129898444Y-103042424D01*
X129899047Y-103042930D01*
X129899547Y-103043543D01*
X129915815Y-103057000D01*
X129932082Y-103070651D01*
X129932779Y-103071034D01*
X129933382Y-103071533D01*
X129951944Y-103081570D01*
X129970563Y-103091805D01*
X129971314Y-103092043D01*
X129972009Y-103092419D01*
X129992248Y-103098684D01*
X130012420Y-103105083D01*
X130013204Y-103105171D01*
X130013957Y-103105404D01*
X130035047Y-103107621D01*
X130056059Y-103109978D01*
X130057568Y-103109989D01*
X130057629Y-103109995D01*
X130057690Y-103109989D01*
X130059200Y-103110000D01*
X130359200Y-103110000D01*
X130380221Y-103107939D01*
X130401361Y-103106015D01*
X130402119Y-103105792D01*
X130402903Y-103105715D01*
X130423205Y-103099585D01*
X130443486Y-103093616D01*
X130444182Y-103093252D01*
X130444941Y-103093023D01*
X130463656Y-103083072D01*
X130482402Y-103073272D01*
X130483019Y-103072776D01*
X130483713Y-103072407D01*
X130500113Y-103059031D01*
X130516624Y-103045756D01*
X130517130Y-103045153D01*
X130517743Y-103044653D01*
X130531200Y-103028385D01*
X130544851Y-103012118D01*
X130545234Y-103011421D01*
X130545733Y-103010818D01*
X130555770Y-102992256D01*
X130566005Y-102973637D01*
X130566243Y-102972886D01*
X130566619Y-102972191D01*
X130572884Y-102951952D01*
X130579283Y-102931780D01*
X130579371Y-102930996D01*
X130579604Y-102930243D01*
X130581821Y-102909153D01*
X130584173Y-102888185D01*
X130584200Y-102891250D01*
X130652950Y-102960000D01*
X131104200Y-102960000D01*
X131104200Y-102940000D01*
X131254200Y-102940000D01*
X131254200Y-102960000D01*
X132154200Y-102960000D01*
X132154200Y-102940000D01*
X132304200Y-102940000D01*
X132304200Y-102960000D01*
X132755450Y-102960000D01*
X132824200Y-102891250D01*
X132825531Y-102740000D01*
X132820221Y-102686090D01*
X132804497Y-102634253D01*
X132778961Y-102586479D01*
X132744596Y-102544604D01*
X132702721Y-102510239D01*
X132655630Y-102485068D01*
X132665867Y-102476667D01*
X132712327Y-102420054D01*
X132746850Y-102355466D01*
X132768110Y-102285383D01*
X132775288Y-102212500D01*
X132775288Y-102156328D01*
X132947566Y-102328607D01*
X132888233Y-102471850D01*
X132845000Y-102689197D01*
X132845000Y-102910803D01*
X132888233Y-103128150D01*
X132959699Y-103300683D01*
X132910382Y-103350000D01*
X132823561Y-103350000D01*
X132825531Y-103330000D01*
X132824200Y-103178750D01*
X132755450Y-103110000D01*
X132304200Y-103110000D01*
X132304200Y-103130000D01*
X132154200Y-103130000D01*
X132154200Y-103110000D01*
X131254200Y-103110000D01*
X131254200Y-103536250D01*
X131322950Y-103605000D01*
X131499200Y-103606331D01*
X131553110Y-103601021D01*
X131575288Y-103594294D01*
X131394849Y-103774733D01*
X131394844Y-103774737D01*
X131340669Y-103828912D01*
X131106700Y-103828912D01*
X131033817Y-103836090D01*
X130963734Y-103857350D01*
X130899146Y-103891873D01*
X130842533Y-103938333D01*
X130796073Y-103994946D01*
X130761550Y-104059534D01*
X130740290Y-104129617D01*
X130733112Y-104202500D01*
X130733112Y-104391824D01*
X130404937Y-104720000D01*
X129885288Y-104720000D01*
X129885288Y-104625000D01*
X129880944Y-104580892D01*
X129868078Y-104538480D01*
X129847185Y-104499392D01*
X129827167Y-104475000D01*
X129847185Y-104450608D01*
X129868078Y-104411520D01*
X129880944Y-104369108D01*
X129885288Y-104325000D01*
X129885288Y-104300000D01*
X129922455Y-104300000D01*
X129976411Y-104353956D01*
X130054209Y-104405939D01*
X130140654Y-104441746D01*
X130232423Y-104460000D01*
X130325989Y-104460000D01*
X130417758Y-104441746D01*
X130504203Y-104405939D01*
X130582001Y-104353956D01*
X130648162Y-104287795D01*
X130700145Y-104209997D01*
X130735952Y-104123552D01*
X130754206Y-104031783D01*
X130754206Y-103938217D01*
X130735952Y-103846448D01*
X130700145Y-103760003D01*
X130648162Y-103682205D01*
X130582001Y-103616044D01*
X130504203Y-103564061D01*
X130417758Y-103528254D01*
X130325989Y-103510000D01*
X130232423Y-103510000D01*
X130140654Y-103528254D01*
X130054209Y-103564061D01*
X129976411Y-103616044D01*
X129910250Y-103682205D01*
X129898360Y-103700000D01*
X129885288Y-103700000D01*
X129885288Y-103675000D01*
X129880944Y-103630892D01*
X129868078Y-103588480D01*
X129847185Y-103549392D01*
X129819068Y-103515132D01*
X129784808Y-103487015D01*
X129745720Y-103466122D01*
X129703308Y-103453256D01*
X129659200Y-103448912D01*
X128599200Y-103448912D01*
X128555092Y-103453256D01*
X128512680Y-103466122D01*
X128473592Y-103487015D01*
X128439332Y-103515132D01*
X128411215Y-103549392D01*
X128390322Y-103588480D01*
X128377456Y-103630892D01*
X128373112Y-103675000D01*
X128373112Y-104325000D01*
X128377456Y-104369108D01*
X128390322Y-104411520D01*
X128411215Y-104450608D01*
X128431233Y-104475000D01*
X128411215Y-104499392D01*
X128390322Y-104538480D01*
X128377456Y-104580892D01*
X128373112Y-104625000D01*
X128373112Y-105275000D01*
X128377456Y-105319108D01*
X128390322Y-105361520D01*
X128411215Y-105400608D01*
X128431233Y-105425000D01*
X128411215Y-105449392D01*
X128390322Y-105488480D01*
X128381968Y-105516017D01*
X128331995Y-105466044D01*
X128254197Y-105414061D01*
X128167752Y-105378254D01*
X128075983Y-105360000D01*
X127982417Y-105360000D01*
X127890648Y-105378254D01*
X127804203Y-105414061D01*
X127726405Y-105466044D01*
X127676432Y-105516017D01*
X127668078Y-105488480D01*
X127656907Y-105467580D01*
X127688961Y-105428521D01*
X127714497Y-105380747D01*
X127730221Y-105328910D01*
X127735531Y-105275000D01*
X127734200Y-105093750D01*
X127665450Y-105025000D01*
X127004200Y-105025000D01*
X127004200Y-105045000D01*
X126854200Y-105045000D01*
X126854200Y-105025000D01*
X126192950Y-105025000D01*
X126124200Y-105093750D01*
X126124091Y-105108641D01*
X126055450Y-105040000D01*
X125604200Y-105040000D01*
X125604200Y-105060000D01*
X125454200Y-105060000D01*
X125454200Y-105040000D01*
X125002950Y-105040000D01*
X124934200Y-105108750D01*
X124932869Y-105260000D01*
X124938179Y-105313910D01*
X124953903Y-105365747D01*
X124979439Y-105413521D01*
X125013804Y-105455396D01*
X125055679Y-105489761D01*
X125102770Y-105514932D01*
X125092533Y-105523333D01*
X125046073Y-105579946D01*
X125011550Y-105644534D01*
X124990290Y-105714617D01*
X124983112Y-105787500D01*
X124983112Y-106082500D01*
X124990290Y-106155383D01*
X125011550Y-106225466D01*
X125046073Y-106290054D01*
X125092533Y-106346667D01*
X125149146Y-106393127D01*
X125213734Y-106427650D01*
X125283817Y-106448910D01*
X125356700Y-106456088D01*
X125701700Y-106456088D01*
X125774583Y-106448910D01*
X125844666Y-106427650D01*
X125909254Y-106393127D01*
X125965867Y-106346667D01*
X126012327Y-106290054D01*
X126028391Y-106260000D01*
X126176559Y-106260000D01*
X126177456Y-106269108D01*
X126190322Y-106311520D01*
X126211215Y-106350608D01*
X126239332Y-106384868D01*
X126273592Y-106412985D01*
X126312680Y-106433878D01*
X126355092Y-106446744D01*
X126399200Y-106451088D01*
X127459200Y-106451088D01*
X127503308Y-106446744D01*
X127545720Y-106433878D01*
X127584808Y-106412985D01*
X127619068Y-106384868D01*
X127647185Y-106350608D01*
X127668078Y-106311520D01*
X127680944Y-106269108D01*
X127685288Y-106225000D01*
X127685288Y-106162839D01*
X127726405Y-106203956D01*
X127804203Y-106255939D01*
X127890648Y-106291746D01*
X127982417Y-106310000D01*
X128075983Y-106310000D01*
X128167752Y-106291746D01*
X128254197Y-106255939D01*
X128331995Y-106203956D01*
X128373112Y-106162839D01*
X128373112Y-106225000D01*
X128377456Y-106269108D01*
X128390322Y-106311520D01*
X128411215Y-106350608D01*
X128439332Y-106384868D01*
X128473592Y-106412985D01*
X128512680Y-106433878D01*
X128555092Y-106446744D01*
X128599200Y-106451088D01*
X129659200Y-106451088D01*
X129703308Y-106446744D01*
X129745720Y-106433878D01*
X129784808Y-106412985D01*
X129819068Y-106384868D01*
X129847185Y-106350608D01*
X129868078Y-106311520D01*
X129880944Y-106269108D01*
X129885288Y-106225000D01*
X129885288Y-106200000D01*
X130049477Y-106200000D01*
X130064200Y-106201450D01*
X130078923Y-106200000D01*
X130078933Y-106200000D01*
X130123010Y-106195659D01*
X130179560Y-106178504D01*
X130231677Y-106150647D01*
X130277358Y-106113158D01*
X130286753Y-106101710D01*
X130396415Y-105992048D01*
X130395140Y-105994434D01*
X130379443Y-106046183D01*
X130374142Y-106100000D01*
X130375470Y-106113482D01*
X130375471Y-106875470D01*
X114999530Y-106875470D01*
X114999530Y-91149530D01*
X124187565Y-91149530D01*
X124172454Y-91186010D01*
G37*
X124172454Y-91186010D02*
X124154200Y-91277779D01*
X124154200Y-91371345D01*
X124172454Y-91463114D01*
X124208261Y-91549559D01*
X124260244Y-91627357D01*
X124286273Y-91653386D01*
X124258013Y-91681646D01*
X124206030Y-91759444D01*
X124170223Y-91845889D01*
X124151969Y-91937658D01*
X124151969Y-92031224D01*
X124170223Y-92122993D01*
X124206030Y-92209438D01*
X124258013Y-92287236D01*
X124324174Y-92353397D01*
X124401972Y-92405380D01*
X124488417Y-92441187D01*
X124580186Y-92459441D01*
X124673752Y-92459441D01*
X124765521Y-92441187D01*
X124851966Y-92405380D01*
X124929764Y-92353397D01*
X124995925Y-92287236D01*
X124997793Y-92284441D01*
X125054200Y-92284441D01*
X125054200Y-92543718D01*
X125026748Y-92577169D01*
X125000079Y-92627062D01*
X124983657Y-92681199D01*
X124978112Y-92737500D01*
X124978112Y-92837163D01*
X124931994Y-92791045D01*
X124854196Y-92739062D01*
X124767751Y-92703255D01*
X124675982Y-92685001D01*
X124582416Y-92685001D01*
X124490647Y-92703255D01*
X124404202Y-92739062D01*
X124326404Y-92791045D01*
X124260243Y-92857206D01*
X124208260Y-92935004D01*
X124172453Y-93021449D01*
X124160013Y-93083987D01*
X124109752Y-93033725D01*
X124109752Y-92971561D01*
X124091498Y-92879792D01*
X124055691Y-92793347D01*
X124003708Y-92715549D01*
X123937547Y-92649388D01*
X123859749Y-92597405D01*
X123773304Y-92561598D01*
X123681535Y-92543344D01*
X123587969Y-92543344D01*
X123496200Y-92561598D01*
X123409755Y-92597405D01*
X123331957Y-92649388D01*
X123265796Y-92715549D01*
X123213813Y-92793347D01*
X123178006Y-92879792D01*
X123159752Y-92971561D01*
X123159752Y-93065127D01*
X123178006Y-93156896D01*
X123213813Y-93243341D01*
X123265796Y-93321139D01*
X123331957Y-93387300D01*
X123361933Y-93407329D01*
X123326445Y-93431042D01*
X123260284Y-93497203D01*
X123258416Y-93499998D01*
X122328924Y-93499998D01*
X122314201Y-93498548D01*
X122299478Y-93499998D01*
X122299469Y-93499998D01*
X122255392Y-93504339D01*
X122198842Y-93521494D01*
X122181989Y-93530502D01*
X122146724Y-93549351D01*
X122121599Y-93569971D01*
X122101044Y-93586840D01*
X122091653Y-93598283D01*
X121577490Y-94112447D01*
X121577485Y-94112451D01*
X120227490Y-95462447D01*
X120216042Y-95471842D01*
X120198014Y-95493810D01*
X120178553Y-95517523D01*
X120175867Y-95522549D01*
X120150696Y-95569641D01*
X120133541Y-95626191D01*
X120129200Y-95670268D01*
X120129200Y-95670277D01*
X120127750Y-95685000D01*
X120129200Y-95699723D01*
X120129200Y-96046690D01*
X120128592Y-96047015D01*
X120094332Y-96075132D01*
X120066215Y-96109392D01*
X120045322Y-96148480D01*
X120032456Y-96190892D01*
X120028112Y-96235000D01*
X120028112Y-96835000D01*
X120032456Y-96879108D01*
X120045322Y-96921520D01*
X120066215Y-96960608D01*
X120083675Y-96981883D01*
X120043804Y-97014604D01*
X120009439Y-97056479D01*
X119983903Y-97104253D01*
X119968179Y-97156090D01*
X119962869Y-97210000D01*
X119964200Y-97891250D01*
X120032950Y-97960000D01*
X121354200Y-97960000D01*
X121354200Y-97940000D01*
X121504200Y-97940000D01*
X121504200Y-97960000D01*
X122825450Y-97960000D01*
X122894200Y-97891250D01*
X122895531Y-97210000D01*
X122890221Y-97156090D01*
X122874497Y-97104253D01*
X122848961Y-97056479D01*
X122814596Y-97014604D01*
X122774725Y-96981883D01*
X122792185Y-96960608D01*
X122813078Y-96921520D01*
X122825944Y-96879108D01*
X122830288Y-96835000D01*
X123372866Y-96835000D01*
X123326405Y-96866044D01*
X123260244Y-96932205D01*
X123208261Y-97010003D01*
X123172454Y-97096448D01*
X123154200Y-97188217D01*
X123154200Y-97281783D01*
X123172454Y-97373552D01*
X123208261Y-97459997D01*
X123260244Y-97537795D01*
X123326405Y-97603956D01*
X123404203Y-97655939D01*
X123490648Y-97691746D01*
X123582417Y-97710000D01*
X123675983Y-97710000D01*
X123767752Y-97691746D01*
X123854197Y-97655939D01*
X123931995Y-97603956D01*
X123968514Y-97567437D01*
X123974439Y-97578521D01*
X124008804Y-97620396D01*
X124050679Y-97654761D01*
X124098453Y-97680297D01*
X124150290Y-97696021D01*
X124204200Y-97701331D01*
X124497950Y-97700000D01*
X124566700Y-97631250D01*
X124566700Y-97350000D01*
X124546700Y-97350000D01*
X124546700Y-97250000D01*
X124566700Y-97250000D01*
X124566700Y-97205000D01*
X124716700Y-97205000D01*
X124716700Y-97250000D01*
X124736700Y-97250000D01*
X124736700Y-97350000D01*
X124716700Y-97350000D01*
X124716700Y-97631250D01*
X124785450Y-97700000D01*
X124978112Y-97700873D01*
X124978112Y-98362500D01*
X124979200Y-98373550D01*
X124979201Y-98716801D01*
X124831034Y-98864968D01*
X124773734Y-98882350D01*
X124709146Y-98916873D01*
X124652533Y-98963333D01*
X124644132Y-98973570D01*
X124618961Y-98926479D01*
X124584596Y-98884604D01*
X124542721Y-98850239D01*
X124494947Y-98824703D01*
X124443110Y-98808979D01*
X124389200Y-98803669D01*
X124237950Y-98805000D01*
X124169200Y-98873750D01*
X124169200Y-99325000D01*
X124189200Y-99325000D01*
X124189200Y-99475000D01*
X124169200Y-99475000D01*
X124169200Y-99926250D01*
X124217950Y-99975000D01*
X124169200Y-100023750D01*
X124169200Y-100475000D01*
X124189200Y-100475000D01*
X124189200Y-100625000D01*
X124169200Y-100625000D01*
X124169200Y-100645000D01*
X124019200Y-100645000D01*
X124019200Y-100625000D01*
X123592950Y-100625000D01*
X123524200Y-100693750D01*
X123522869Y-100870000D01*
X123528179Y-100923910D01*
X123543903Y-100975747D01*
X123569439Y-101023521D01*
X123603804Y-101065396D01*
X123645679Y-101099761D01*
X123693453Y-101125297D01*
X123745290Y-101141021D01*
X123771381Y-101143591D01*
X123742001Y-101152503D01*
X123728839Y-101156496D01*
X123676722Y-101184353D01*
X123645910Y-101209640D01*
X123631042Y-101221842D01*
X123621651Y-101233285D01*
X123166025Y-101688912D01*
X122896700Y-101688912D01*
X122823817Y-101696090D01*
X122753734Y-101717350D01*
X122689146Y-101751873D01*
X122632533Y-101798333D01*
X122586073Y-101854946D01*
X122551550Y-101919534D01*
X122530290Y-101989617D01*
X122523112Y-102062500D01*
X122523112Y-102331824D01*
X121027490Y-103827447D01*
X121016042Y-103836842D01*
X120999965Y-103856433D01*
X120978553Y-103882523D01*
X120973556Y-103891873D01*
X120950696Y-103934641D01*
X120933541Y-103991191D01*
X120929200Y-104035268D01*
X120929200Y-104035277D01*
X120927750Y-104050000D01*
X120929200Y-104064723D01*
X120929201Y-105460735D01*
X120204937Y-106185000D01*
X116453464Y-106185000D01*
X116229200Y-105960737D01*
X116229200Y-100919263D01*
X116620228Y-100528236D01*
X117671241Y-100528236D01*
X117685964Y-100529686D01*
X117700687Y-100528236D01*
X117700697Y-100528236D01*
X117744774Y-100523895D01*
X117801324Y-100506740D01*
X117853441Y-100478883D01*
X117899122Y-100441394D01*
X117908517Y-100429946D01*
X118211791Y-100126673D01*
X118239950Y-100135215D01*
X118336083Y-100154337D01*
X118380191Y-100158681D01*
X118404750Y-100158681D01*
X118429200Y-100161089D01*
X118929200Y-100161089D01*
X118953650Y-100158681D01*
X118978209Y-100158681D01*
X119022317Y-100154337D01*
X119118450Y-100135215D01*
X119146609Y-100126673D01*
X119456651Y-100436715D01*
X119466042Y-100448158D01*
X119477485Y-100457549D01*
X119477486Y-100457550D01*
X119511722Y-100485647D01*
X119557264Y-100509989D01*
X119563840Y-100513504D01*
X119620390Y-100530659D01*
X119664467Y-100535000D01*
X119664470Y-100535000D01*
X119679200Y-100536451D01*
X119693930Y-100535000D01*
X120664477Y-100535000D01*
X120679200Y-100536450D01*
X120693923Y-100535000D01*
X120693933Y-100535000D01*
X120738010Y-100530659D01*
X120794560Y-100513504D01*
X120846677Y-100485647D01*
X120892358Y-100448158D01*
X120901753Y-100436710D01*
X121129201Y-100209263D01*
X121129201Y-100260735D01*
X120154937Y-101235000D01*
X120001088Y-101235000D01*
X120001088Y-100940000D01*
X119996744Y-100895892D01*
X119983878Y-100853480D01*
X119962985Y-100814392D01*
X119934868Y-100780132D01*
X119900608Y-100752015D01*
X119861520Y-100731122D01*
X119819108Y-100718256D01*
X119775000Y-100713912D01*
X116675000Y-100713912D01*
X116630892Y-100718256D01*
X116588480Y-100731122D01*
X116549392Y-100752015D01*
X116515132Y-100780132D01*
X116487015Y-100814392D01*
X116466122Y-100853480D01*
X116453256Y-100895892D01*
X116448912Y-100940000D01*
X116448912Y-103140000D01*
X116453256Y-103184108D01*
X116466122Y-103226520D01*
X116487015Y-103265608D01*
X116515132Y-103299868D01*
X116549392Y-103327985D01*
X116588480Y-103348878D01*
X116630892Y-103361744D01*
X116675000Y-103366088D01*
X119775000Y-103366088D01*
X119819108Y-103361744D01*
X119861520Y-103348878D01*
X119900608Y-103327985D01*
X119934868Y-103299868D01*
X119962985Y-103265608D01*
X119983878Y-103226520D01*
X119996744Y-103184108D01*
X120001088Y-103140000D01*
X120001088Y-101835000D01*
X120264477Y-101835000D01*
X120279200Y-101836450D01*
X120293923Y-101835000D01*
X120293933Y-101835000D01*
X120338010Y-101830659D01*
X120394560Y-101813504D01*
X120446677Y-101785647D01*
X120492358Y-101748158D01*
X120501753Y-101736710D01*
X121629200Y-100609264D01*
X121629201Y-102210735D01*
X120004937Y-103835000D01*
X120001088Y-103835000D01*
X120001088Y-103640000D01*
X119996744Y-103595892D01*
X119983878Y-103553480D01*
X119962985Y-103514392D01*
X119934868Y-103480132D01*
X119900608Y-103452015D01*
X119861520Y-103431122D01*
X119819108Y-103418256D01*
X119775000Y-103413912D01*
X116675000Y-103413912D01*
X116630892Y-103418256D01*
X116588480Y-103431122D01*
X116549392Y-103452015D01*
X116515132Y-103480132D01*
X116487015Y-103514392D01*
X116466122Y-103553480D01*
X116453256Y-103595892D01*
X116448912Y-103640000D01*
X116448912Y-105840000D01*
X116453256Y-105884108D01*
X116466122Y-105926520D01*
X116487015Y-105965608D01*
X116515132Y-105999868D01*
X116549392Y-106027985D01*
X116588480Y-106048878D01*
X116630892Y-106061744D01*
X116675000Y-106066088D01*
X119775000Y-106066088D01*
X119819108Y-106061744D01*
X119861520Y-106048878D01*
X119900608Y-106027985D01*
X119934868Y-105999868D01*
X119962985Y-105965608D01*
X119983878Y-105926520D01*
X119996744Y-105884108D01*
X120001088Y-105840000D01*
X120001088Y-104435000D01*
X120114477Y-104435000D01*
X120129200Y-104436450D01*
X120143923Y-104435000D01*
X120143933Y-104435000D01*
X120188010Y-104430659D01*
X120244560Y-104413504D01*
X120296677Y-104385647D01*
X120342358Y-104348158D01*
X120351753Y-104336710D01*
X122130915Y-102557549D01*
X122142358Y-102548158D01*
X122156860Y-102530487D01*
X122179847Y-102502478D01*
X122198530Y-102467523D01*
X122207704Y-102450360D01*
X122224859Y-102393810D01*
X122229200Y-102349733D01*
X122229200Y-102349724D01*
X122230650Y-102335001D01*
X122229200Y-102320278D01*
X122229200Y-100108869D01*
X122254200Y-100111331D01*
X122285450Y-100110000D01*
X122354200Y-100041250D01*
X122354200Y-99610000D01*
X122504200Y-99610000D01*
X122504200Y-100041250D01*
X122572950Y-100110000D01*
X122604200Y-100111331D01*
X122658110Y-100106021D01*
X122709947Y-100090297D01*
X122757721Y-100064761D01*
X122799596Y-100030396D01*
X122833961Y-99988521D01*
X122859497Y-99940747D01*
X122875221Y-99888910D01*
X122880531Y-99835000D01*
X122879552Y-99720000D01*
X123522869Y-99720000D01*
X123528179Y-99773910D01*
X123543903Y-99825747D01*
X123569439Y-99873521D01*
X123603804Y-99915396D01*
X123645679Y-99949761D01*
X123692897Y-99975000D01*
X123645679Y-100000239D01*
X123603804Y-100034604D01*
X123569439Y-100076479D01*
X123543903Y-100124253D01*
X123528179Y-100176090D01*
X123522869Y-100230000D01*
X123524200Y-100406250D01*
X123592950Y-100475000D01*
X124019200Y-100475000D01*
X124019200Y-100023750D01*
X123970450Y-99975000D01*
X124019200Y-99926250D01*
X124019200Y-99475000D01*
X123592950Y-99475000D01*
X123524200Y-99543750D01*
X123522869Y-99720000D01*
X122879552Y-99720000D01*
X122879200Y-99678750D01*
X122810450Y-99610000D01*
X122504200Y-99610000D01*
X122354200Y-99610000D01*
X122334200Y-99610000D01*
X122334200Y-99460000D01*
X122354200Y-99460000D01*
X122354200Y-99440000D01*
X122504200Y-99440000D01*
X122504200Y-99460000D01*
X122810450Y-99460000D01*
X122879200Y-99391250D01*
X122880531Y-99235000D01*
X122875221Y-99181090D01*
X122859497Y-99129253D01*
X122833961Y-99081479D01*
X122832748Y-99080000D01*
X123522869Y-99080000D01*
X123524200Y-99256250D01*
X123592950Y-99325000D01*
X124019200Y-99325000D01*
X124019200Y-98873750D01*
X123950450Y-98805000D01*
X123799200Y-98803669D01*
X123745290Y-98808979D01*
X123693453Y-98824703D01*
X123645679Y-98850239D01*
X123603804Y-98884604D01*
X123569439Y-98926479D01*
X123543903Y-98974253D01*
X123528179Y-99026090D01*
X123522869Y-99080000D01*
X122832748Y-99080000D01*
X122813377Y-99056396D01*
X122814596Y-99055396D01*
X122848961Y-99013521D01*
X122874497Y-98965747D01*
X122890221Y-98913910D01*
X122895531Y-98860000D01*
X122894200Y-98178750D01*
X122825450Y-98110000D01*
X121504200Y-98110000D01*
X121504200Y-98130000D01*
X121354200Y-98130000D01*
X121354200Y-98110000D01*
X120032950Y-98110000D01*
X119964200Y-98178750D01*
X119963645Y-98462590D01*
X119834345Y-98333290D01*
X119824950Y-98321842D01*
X119779269Y-98284353D01*
X119727152Y-98256496D01*
X119670602Y-98239341D01*
X119655289Y-98237833D01*
X119655289Y-98135000D01*
X119652881Y-98110550D01*
X119652881Y-98085991D01*
X119648537Y-98041883D01*
X119629415Y-97945750D01*
X119616549Y-97903339D01*
X119579040Y-97812783D01*
X119558147Y-97773694D01*
X119503691Y-97692195D01*
X119475574Y-97657934D01*
X119406266Y-97588626D01*
X119372005Y-97560509D01*
X119290506Y-97506053D01*
X119251417Y-97485160D01*
X119160861Y-97447651D01*
X119118450Y-97434785D01*
X119022317Y-97415663D01*
X118978209Y-97411319D01*
X118953650Y-97411319D01*
X118929200Y-97408911D01*
X118429200Y-97408911D01*
X118404750Y-97411319D01*
X118380191Y-97411319D01*
X118336083Y-97415663D01*
X118239950Y-97434785D01*
X118197539Y-97447651D01*
X118106983Y-97485160D01*
X118067894Y-97506053D01*
X117986395Y-97560509D01*
X117952134Y-97588626D01*
X117882826Y-97657934D01*
X117854709Y-97692195D01*
X117800253Y-97773694D01*
X117779360Y-97812783D01*
X117741851Y-97903339D01*
X117728985Y-97945750D01*
X117709863Y-98041883D01*
X117705519Y-98085991D01*
X117705519Y-98110550D01*
X117703111Y-98135000D01*
X117703111Y-98635000D01*
X117707455Y-98679108D01*
X117720321Y-98721521D01*
X117741214Y-98760608D01*
X117761232Y-98785000D01*
X117741214Y-98809392D01*
X117720321Y-98848479D01*
X117707455Y-98890892D01*
X117703111Y-98935000D01*
X117703111Y-99435000D01*
X117705519Y-99459450D01*
X117705519Y-99484009D01*
X117709863Y-99528117D01*
X117728985Y-99624250D01*
X117741851Y-99666661D01*
X117765699Y-99724237D01*
X117561701Y-99928236D01*
X116510686Y-99928236D01*
X116495963Y-99926786D01*
X116481240Y-99928236D01*
X116481231Y-99928236D01*
X116437154Y-99932577D01*
X116380604Y-99949732D01*
X116364348Y-99958421D01*
X116328486Y-99977589D01*
X116300390Y-100000647D01*
X116282806Y-100015078D01*
X116273415Y-100026521D01*
X115727485Y-100572452D01*
X115716043Y-100581842D01*
X115706652Y-100593285D01*
X115706651Y-100593286D01*
X115678553Y-100627523D01*
X115650697Y-100679640D01*
X115633542Y-100736190D01*
X115627750Y-100795000D01*
X115629201Y-100809733D01*
X115629200Y-106070277D01*
X115627750Y-106085000D01*
X115629200Y-106099723D01*
X115629200Y-106099732D01*
X115633541Y-106143809D01*
X115650696Y-106200359D01*
X115660242Y-106218219D01*
X115678553Y-106252477D01*
X115691908Y-106268750D01*
X115716042Y-106298158D01*
X115727490Y-106307553D01*
X116106651Y-106686715D01*
X116116042Y-106698158D01*
X116127485Y-106707549D01*
X116161722Y-106735647D01*
X116189579Y-106750536D01*
X116213840Y-106763504D01*
X116270390Y-106780659D01*
X116314467Y-106785000D01*
X116314476Y-106785000D01*
X116329199Y-106786450D01*
X116343922Y-106785000D01*
X120314477Y-106785000D01*
X120329200Y-106786450D01*
X120343923Y-106785000D01*
X120343933Y-106785000D01*
X120388010Y-106780659D01*
X120444560Y-106763504D01*
X120496677Y-106735647D01*
X120542358Y-106698158D01*
X120551753Y-106686710D01*
X121430915Y-105807549D01*
X121442358Y-105798158D01*
X121458797Y-105778127D01*
X121479847Y-105752478D01*
X121497399Y-105719640D01*
X121507704Y-105700360D01*
X121524859Y-105643810D01*
X121529200Y-105599733D01*
X121529200Y-105599724D01*
X121530650Y-105585001D01*
X121529200Y-105570278D01*
X121529200Y-104174263D01*
X121725268Y-103978195D01*
X121724200Y-103989040D01*
X121724200Y-103989047D01*
X121722629Y-104005000D01*
X121724200Y-104020953D01*
X121724201Y-105895479D01*
X121724200Y-105895489D01*
X121724200Y-105918251D01*
X121680244Y-105962207D01*
X121628261Y-106040005D01*
X121592454Y-106126450D01*
X121574200Y-106218219D01*
X121574200Y-106311785D01*
X121592454Y-106403554D01*
X121628261Y-106489999D01*
X121680244Y-106567797D01*
X121746405Y-106633958D01*
X121824203Y-106685941D01*
X121910648Y-106721748D01*
X122002417Y-106740002D01*
X122095983Y-106740002D01*
X122187752Y-106721748D01*
X122274197Y-106685941D01*
X122351995Y-106633958D01*
X122418156Y-106567797D01*
X122470139Y-106489999D01*
X122505946Y-106403554D01*
X122524200Y-106311785D01*
X122524200Y-106218219D01*
X122505946Y-106126450D01*
X122470139Y-106040005D01*
X122418156Y-105962207D01*
X122374200Y-105918251D01*
X122374200Y-104139618D01*
X122612399Y-103901420D01*
X122619332Y-103909868D01*
X122653592Y-103937985D01*
X122692680Y-103958878D01*
X122735092Y-103971744D01*
X122779200Y-103976088D01*
X122786444Y-103976088D01*
X122769332Y-103990132D01*
X122741215Y-104024392D01*
X122720322Y-104063480D01*
X122707456Y-104105892D01*
X122703112Y-104150000D01*
X122703112Y-105450000D01*
X122707456Y-105494108D01*
X122720322Y-105536520D01*
X122741215Y-105575608D01*
X122769332Y-105609868D01*
X122786444Y-105623912D01*
X122779200Y-105623912D01*
X122735092Y-105628256D01*
X122692680Y-105641122D01*
X122653592Y-105662015D01*
X122619332Y-105690132D01*
X122591215Y-105724392D01*
X122570322Y-105763480D01*
X122557456Y-105805892D01*
X122553112Y-105850000D01*
X122553112Y-106400000D01*
X122557456Y-106444108D01*
X122570322Y-106486520D01*
X122591215Y-106525608D01*
X122619332Y-106559868D01*
X122653592Y-106587985D01*
X122692680Y-106608878D01*
X122735092Y-106621744D01*
X122779200Y-106626088D01*
X123079200Y-106626088D01*
X123123308Y-106621744D01*
X123165720Y-106608878D01*
X123179200Y-106601673D01*
X123192680Y-106608878D01*
X123235092Y-106621744D01*
X123279200Y-106626088D01*
X123579200Y-106626088D01*
X123623308Y-106621744D01*
X123665720Y-106608878D01*
X123679200Y-106601673D01*
X123692680Y-106608878D01*
X123735092Y-106621744D01*
X123779200Y-106626088D01*
X124079200Y-106626088D01*
X124116703Y-106622395D01*
X124125679Y-106629761D01*
X124173453Y-106655297D01*
X124225290Y-106671021D01*
X124279200Y-106676331D01*
X124285450Y-106675000D01*
X124354200Y-106606250D01*
X124354200Y-106200000D01*
X124504200Y-106200000D01*
X124504200Y-106606250D01*
X124572950Y-106675000D01*
X124579200Y-106676331D01*
X124633110Y-106671021D01*
X124684947Y-106655297D01*
X124732721Y-106629761D01*
X124774596Y-106595396D01*
X124808961Y-106553521D01*
X124834497Y-106505747D01*
X124850221Y-106453910D01*
X124855531Y-106400000D01*
X124854200Y-106268750D01*
X124785450Y-106200000D01*
X124504200Y-106200000D01*
X124354200Y-106200000D01*
X124334200Y-106200000D01*
X124334200Y-106050000D01*
X124354200Y-106050000D01*
X124354200Y-106030000D01*
X124504200Y-106030000D01*
X124504200Y-106050000D01*
X124785450Y-106050000D01*
X124854200Y-105981250D01*
X124855531Y-105850000D01*
X124850221Y-105796090D01*
X124834497Y-105744253D01*
X124808961Y-105696479D01*
X124774596Y-105654604D01*
X124732721Y-105620239D01*
X124684947Y-105594703D01*
X124633110Y-105578979D01*
X124615816Y-105577276D01*
X124617185Y-105575608D01*
X124638078Y-105536520D01*
X124650944Y-105494108D01*
X124655288Y-105450000D01*
X124655288Y-104670000D01*
X124932869Y-104670000D01*
X124934200Y-104821250D01*
X125002950Y-104890000D01*
X125454200Y-104890000D01*
X125454200Y-104870000D01*
X125604200Y-104870000D01*
X125604200Y-104890000D01*
X126055450Y-104890000D01*
X126124200Y-104821250D01*
X126124331Y-104806381D01*
X126192950Y-104875000D01*
X126854200Y-104875000D01*
X126854200Y-104855000D01*
X127004200Y-104855000D01*
X127004200Y-104875000D01*
X127665450Y-104875000D01*
X127734200Y-104806250D01*
X127735531Y-104625000D01*
X127730221Y-104571090D01*
X127714497Y-104519253D01*
X127688961Y-104471479D01*
X127656907Y-104432420D01*
X127668078Y-104411520D01*
X127680944Y-104369108D01*
X127685288Y-104325000D01*
X127685288Y-103675000D01*
X127680944Y-103630892D01*
X127668078Y-103588480D01*
X127647185Y-103549392D01*
X127619068Y-103515132D01*
X127584808Y-103487015D01*
X127545720Y-103466122D01*
X127503308Y-103453256D01*
X127459200Y-103448912D01*
X126399200Y-103448912D01*
X126355092Y-103453256D01*
X126312680Y-103466122D01*
X126273592Y-103487015D01*
X126239332Y-103515132D01*
X126211215Y-103549392D01*
X126190322Y-103588480D01*
X126183794Y-103610000D01*
X125995958Y-103610000D01*
X125965867Y-103573333D01*
X125911430Y-103528659D01*
X125937167Y-103514902D01*
X126001393Y-103462193D01*
X126054102Y-103397967D01*
X126090431Y-103330000D01*
X130582869Y-103330000D01*
X130588179Y-103383910D01*
X130603903Y-103435747D01*
X130629439Y-103483521D01*
X130663804Y-103525396D01*
X130705679Y-103559761D01*
X130753453Y-103585297D01*
X130805290Y-103601021D01*
X130859200Y-103606331D01*
X131035450Y-103605000D01*
X131104200Y-103536250D01*
X131104200Y-103110000D01*
X130652950Y-103110000D01*
X130584200Y-103178750D01*
X130582869Y-103330000D01*
X126090431Y-103330000D01*
X126093268Y-103324693D01*
X126117386Y-103245185D01*
X126125530Y-103162500D01*
X126125530Y-102867500D01*
X126117386Y-102784815D01*
X126093268Y-102705307D01*
X126054102Y-102632033D01*
X126033587Y-102607035D01*
X126067319Y-102556551D01*
X126106894Y-102461007D01*
X126127070Y-102359578D01*
X126127070Y-102256162D01*
X126106894Y-102154733D01*
X126067319Y-102059189D01*
X126009864Y-101973202D01*
X125936738Y-101900076D01*
X125850751Y-101842621D01*
X125755207Y-101803046D01*
X125653778Y-101782870D01*
X125550362Y-101782870D01*
X125448933Y-101803046D01*
X125353389Y-101842621D01*
X125267402Y-101900076D01*
X125194276Y-101973202D01*
X125136821Y-102059189D01*
X125097246Y-102154733D01*
X125077070Y-102256162D01*
X125077070Y-102359578D01*
X125097246Y-102461007D01*
X125120052Y-102516067D01*
X125057007Y-102567807D01*
X125004298Y-102632033D01*
X124965132Y-102705307D01*
X124941014Y-102784815D01*
X124932870Y-102867500D01*
X124932870Y-103162500D01*
X124941014Y-103245185D01*
X124965132Y-103324693D01*
X125004298Y-103397967D01*
X125057007Y-103462193D01*
X125121233Y-103514902D01*
X125146970Y-103528659D01*
X125092533Y-103573333D01*
X125046073Y-103629946D01*
X125011550Y-103694534D01*
X124990290Y-103764617D01*
X124983112Y-103837500D01*
X124983112Y-104132500D01*
X124990290Y-104205383D01*
X125011550Y-104275466D01*
X125046073Y-104340054D01*
X125092533Y-104396667D01*
X125111526Y-104412254D01*
X125103453Y-104414703D01*
X125055679Y-104440239D01*
X125013804Y-104474604D01*
X124979439Y-104516479D01*
X124953903Y-104564253D01*
X124938179Y-104616090D01*
X124932869Y-104670000D01*
X124655288Y-104670000D01*
X124655288Y-104150000D01*
X124650944Y-104105892D01*
X124638078Y-104063480D01*
X124617185Y-104024392D01*
X124589068Y-103990132D01*
X124571956Y-103976088D01*
X124579200Y-103976088D01*
X124623308Y-103971744D01*
X124665720Y-103958878D01*
X124704808Y-103937985D01*
X124739068Y-103909868D01*
X124767185Y-103875608D01*
X124788078Y-103836520D01*
X124800944Y-103794108D01*
X124805288Y-103750000D01*
X124805288Y-103200000D01*
X124800944Y-103155892D01*
X124788078Y-103113480D01*
X124767185Y-103074392D01*
X124739068Y-103040132D01*
X124729200Y-103032033D01*
X124729200Y-102959263D01*
X124830916Y-102857548D01*
X124842358Y-102848158D01*
X124851750Y-102836714D01*
X124879847Y-102802478D01*
X124907704Y-102750361D01*
X124915292Y-102725347D01*
X124924859Y-102693810D01*
X124929200Y-102649733D01*
X124929200Y-102649730D01*
X124930651Y-102635000D01*
X124929200Y-102620270D01*
X124929200Y-102238261D01*
X125432451Y-101735011D01*
X125914466Y-101735011D01*
X125929189Y-101736461D01*
X125943912Y-101735011D01*
X125943922Y-101735011D01*
X125987999Y-101730670D01*
X126044549Y-101713515D01*
X126096666Y-101685658D01*
X126142347Y-101648169D01*
X126151742Y-101636721D01*
X126184985Y-101603478D01*
X126183112Y-101622500D01*
X126183112Y-101917500D01*
X126190290Y-101990383D01*
X126211550Y-102060466D01*
X126246073Y-102125054D01*
X126292533Y-102181667D01*
X126349146Y-102228127D01*
X126413734Y-102262650D01*
X126483817Y-102283910D01*
X126556700Y-102291088D01*
X126901700Y-102291088D01*
X126974583Y-102283910D01*
X127044666Y-102262650D01*
X127109254Y-102228127D01*
X127165867Y-102181667D01*
X127212327Y-102125054D01*
X127224580Y-102102131D01*
X127276405Y-102153956D01*
X127354203Y-102205939D01*
X127440648Y-102241746D01*
X127454898Y-102244581D01*
X127797456Y-102587139D01*
X127809199Y-102601448D01*
X127825290Y-102614653D01*
X127866300Y-102648310D01*
X127906153Y-102669611D01*
X127931447Y-102683131D01*
X128002134Y-102704574D01*
X128057228Y-102710000D01*
X128057231Y-102710000D01*
X128075647Y-102711814D01*
X128094063Y-102710000D01*
X128473871Y-102710000D01*
X128721009Y-102957139D01*
X128732752Y-102971448D01*
X128779135Y-103009513D01*
X128789853Y-103018309D01*
X128852834Y-103051973D01*
X128855000Y-103053131D01*
X128925687Y-103074574D01*
X128980781Y-103080000D01*
X128980783Y-103080000D01*
X128999199Y-103081814D01*
X129017615Y-103080000D01*
X129289041Y-103080000D01*
X129291944Y-103081570D01*
X129310563Y-103091805D01*
X129311314Y-103092043D01*
X129312009Y-103092419D01*
X129332248Y-103098684D01*
X129352420Y-103105083D01*
X129353204Y-103105171D01*
X129353957Y-103105404D01*
X129375047Y-103107621D01*
X129396059Y-103109978D01*
X129397568Y-103109989D01*
X129397629Y-103109995D01*
X129397690Y-103109989D01*
X129399200Y-103110000D01*
X129699200Y-103110000D01*
X129720221Y-103107939D01*
X129741361Y-103106015D01*
X129742119Y-103105792D01*
X129742903Y-103105715D01*
X129763205Y-103099585D01*
X129783486Y-103093616D01*
X129784182Y-103093252D01*
X129784941Y-103093023D01*
X129803656Y-103083072D01*
X129822402Y-103073272D01*
X129823019Y-103072776D01*
X129823713Y-103072407D01*
X129840113Y-103059031D01*
X129856624Y-103045756D01*
X129857130Y-103045153D01*
X129857743Y-103044653D01*
X129871200Y-103028385D01*
X129879306Y-103018725D01*
X129885169Y-103025913D01*
X129898444Y-103042424D01*
X129899047Y-103042930D01*
X129899547Y-103043543D01*
X129915815Y-103057000D01*
X129932082Y-103070651D01*
X129932779Y-103071034D01*
X129933382Y-103071533D01*
X129951944Y-103081570D01*
X129970563Y-103091805D01*
X129971314Y-103092043D01*
X129972009Y-103092419D01*
X129992248Y-103098684D01*
X130012420Y-103105083D01*
X130013204Y-103105171D01*
X130013957Y-103105404D01*
X130035047Y-103107621D01*
X130056059Y-103109978D01*
X130057568Y-103109989D01*
X130057629Y-103109995D01*
X130057690Y-103109989D01*
X130059200Y-103110000D01*
X130359200Y-103110000D01*
X130380221Y-103107939D01*
X130401361Y-103106015D01*
X130402119Y-103105792D01*
X130402903Y-103105715D01*
X130423205Y-103099585D01*
X130443486Y-103093616D01*
X130444182Y-103093252D01*
X130444941Y-103093023D01*
X130463656Y-103083072D01*
X130482402Y-103073272D01*
X130483019Y-103072776D01*
X130483713Y-103072407D01*
X130500113Y-103059031D01*
X130516624Y-103045756D01*
X130517130Y-103045153D01*
X130517743Y-103044653D01*
X130531200Y-103028385D01*
X130544851Y-103012118D01*
X130545234Y-103011421D01*
X130545733Y-103010818D01*
X130555770Y-102992256D01*
X130566005Y-102973637D01*
X130566243Y-102972886D01*
X130566619Y-102972191D01*
X130572884Y-102951952D01*
X130579283Y-102931780D01*
X130579371Y-102930996D01*
X130579604Y-102930243D01*
X130581821Y-102909153D01*
X130584173Y-102888185D01*
X130584200Y-102891250D01*
X130652950Y-102960000D01*
X131104200Y-102960000D01*
X131104200Y-102940000D01*
X131254200Y-102940000D01*
X131254200Y-102960000D01*
X132154200Y-102960000D01*
X132154200Y-102940000D01*
X132304200Y-102940000D01*
X132304200Y-102960000D01*
X132755450Y-102960000D01*
X132824200Y-102891250D01*
X132825531Y-102740000D01*
X132820221Y-102686090D01*
X132804497Y-102634253D01*
X132778961Y-102586479D01*
X132744596Y-102544604D01*
X132702721Y-102510239D01*
X132655630Y-102485068D01*
X132665867Y-102476667D01*
X132712327Y-102420054D01*
X132746850Y-102355466D01*
X132768110Y-102285383D01*
X132775288Y-102212500D01*
X132775288Y-102156328D01*
X132947566Y-102328607D01*
X132888233Y-102471850D01*
X132845000Y-102689197D01*
X132845000Y-102910803D01*
X132888233Y-103128150D01*
X132959699Y-103300683D01*
X132910382Y-103350000D01*
X132823561Y-103350000D01*
X132825531Y-103330000D01*
X132824200Y-103178750D01*
X132755450Y-103110000D01*
X132304200Y-103110000D01*
X132304200Y-103130000D01*
X132154200Y-103130000D01*
X132154200Y-103110000D01*
X131254200Y-103110000D01*
X131254200Y-103536250D01*
X131322950Y-103605000D01*
X131499200Y-103606331D01*
X131553110Y-103601021D01*
X131575288Y-103594294D01*
X131394849Y-103774733D01*
X131394844Y-103774737D01*
X131340669Y-103828912D01*
X131106700Y-103828912D01*
X131033817Y-103836090D01*
X130963734Y-103857350D01*
X130899146Y-103891873D01*
X130842533Y-103938333D01*
X130796073Y-103994946D01*
X130761550Y-104059534D01*
X130740290Y-104129617D01*
X130733112Y-104202500D01*
X130733112Y-104391824D01*
X130404937Y-104720000D01*
X129885288Y-104720000D01*
X129885288Y-104625000D01*
X129880944Y-104580892D01*
X129868078Y-104538480D01*
X129847185Y-104499392D01*
X129827167Y-104475000D01*
X129847185Y-104450608D01*
X129868078Y-104411520D01*
X129880944Y-104369108D01*
X129885288Y-104325000D01*
X129885288Y-104300000D01*
X129922455Y-104300000D01*
X129976411Y-104353956D01*
X130054209Y-104405939D01*
X130140654Y-104441746D01*
X130232423Y-104460000D01*
X130325989Y-104460000D01*
X130417758Y-104441746D01*
X130504203Y-104405939D01*
X130582001Y-104353956D01*
X130648162Y-104287795D01*
X130700145Y-104209997D01*
X130735952Y-104123552D01*
X130754206Y-104031783D01*
X130754206Y-103938217D01*
X130735952Y-103846448D01*
X130700145Y-103760003D01*
X130648162Y-103682205D01*
X130582001Y-103616044D01*
X130504203Y-103564061D01*
X130417758Y-103528254D01*
X130325989Y-103510000D01*
X130232423Y-103510000D01*
X130140654Y-103528254D01*
X130054209Y-103564061D01*
X129976411Y-103616044D01*
X129910250Y-103682205D01*
X129898360Y-103700000D01*
X129885288Y-103700000D01*
X129885288Y-103675000D01*
X129880944Y-103630892D01*
X129868078Y-103588480D01*
X129847185Y-103549392D01*
X129819068Y-103515132D01*
X129784808Y-103487015D01*
X129745720Y-103466122D01*
X129703308Y-103453256D01*
X129659200Y-103448912D01*
X128599200Y-103448912D01*
X128555092Y-103453256D01*
X128512680Y-103466122D01*
X128473592Y-103487015D01*
X128439332Y-103515132D01*
X128411215Y-103549392D01*
X128390322Y-103588480D01*
X128377456Y-103630892D01*
X128373112Y-103675000D01*
X128373112Y-104325000D01*
X128377456Y-104369108D01*
X128390322Y-104411520D01*
X128411215Y-104450608D01*
X128431233Y-104475000D01*
X128411215Y-104499392D01*
X128390322Y-104538480D01*
X128377456Y-104580892D01*
X128373112Y-104625000D01*
X128373112Y-105275000D01*
X128377456Y-105319108D01*
X128390322Y-105361520D01*
X128411215Y-105400608D01*
X128431233Y-105425000D01*
X128411215Y-105449392D01*
X128390322Y-105488480D01*
X128381968Y-105516017D01*
X128331995Y-105466044D01*
X128254197Y-105414061D01*
X128167752Y-105378254D01*
X128075983Y-105360000D01*
X127982417Y-105360000D01*
X127890648Y-105378254D01*
X127804203Y-105414061D01*
X127726405Y-105466044D01*
X127676432Y-105516017D01*
X127668078Y-105488480D01*
X127656907Y-105467580D01*
X127688961Y-105428521D01*
X127714497Y-105380747D01*
X127730221Y-105328910D01*
X127735531Y-105275000D01*
X127734200Y-105093750D01*
X127665450Y-105025000D01*
X127004200Y-105025000D01*
X127004200Y-105045000D01*
X126854200Y-105045000D01*
X126854200Y-105025000D01*
X126192950Y-105025000D01*
X126124200Y-105093750D01*
X126124091Y-105108641D01*
X126055450Y-105040000D01*
X125604200Y-105040000D01*
X125604200Y-105060000D01*
X125454200Y-105060000D01*
X125454200Y-105040000D01*
X125002950Y-105040000D01*
X124934200Y-105108750D01*
X124932869Y-105260000D01*
X124938179Y-105313910D01*
X124953903Y-105365747D01*
X124979439Y-105413521D01*
X125013804Y-105455396D01*
X125055679Y-105489761D01*
X125102770Y-105514932D01*
X125092533Y-105523333D01*
X125046073Y-105579946D01*
X125011550Y-105644534D01*
X124990290Y-105714617D01*
X124983112Y-105787500D01*
X124983112Y-106082500D01*
X124990290Y-106155383D01*
X125011550Y-106225466D01*
X125046073Y-106290054D01*
X125092533Y-106346667D01*
X125149146Y-106393127D01*
X125213734Y-106427650D01*
X125283817Y-106448910D01*
X125356700Y-106456088D01*
X125701700Y-106456088D01*
X125774583Y-106448910D01*
X125844666Y-106427650D01*
X125909254Y-106393127D01*
X125965867Y-106346667D01*
X126012327Y-106290054D01*
X126028391Y-106260000D01*
X126176559Y-106260000D01*
X126177456Y-106269108D01*
X126190322Y-106311520D01*
X126211215Y-106350608D01*
X126239332Y-106384868D01*
X126273592Y-106412985D01*
X126312680Y-106433878D01*
X126355092Y-106446744D01*
X126399200Y-106451088D01*
X127459200Y-106451088D01*
X127503308Y-106446744D01*
X127545720Y-106433878D01*
X127584808Y-106412985D01*
X127619068Y-106384868D01*
X127647185Y-106350608D01*
X127668078Y-106311520D01*
X127680944Y-106269108D01*
X127685288Y-106225000D01*
X127685288Y-106162839D01*
X127726405Y-106203956D01*
X127804203Y-106255939D01*
X127890648Y-106291746D01*
X127982417Y-106310000D01*
X128075983Y-106310000D01*
X128167752Y-106291746D01*
X128254197Y-106255939D01*
X128331995Y-106203956D01*
X128373112Y-106162839D01*
X128373112Y-106225000D01*
X128377456Y-106269108D01*
X128390322Y-106311520D01*
X128411215Y-106350608D01*
X128439332Y-106384868D01*
X128473592Y-106412985D01*
X128512680Y-106433878D01*
X128555092Y-106446744D01*
X128599200Y-106451088D01*
X129659200Y-106451088D01*
X129703308Y-106446744D01*
X129745720Y-106433878D01*
X129784808Y-106412985D01*
X129819068Y-106384868D01*
X129847185Y-106350608D01*
X129868078Y-106311520D01*
X129880944Y-106269108D01*
X129885288Y-106225000D01*
X129885288Y-106200000D01*
X130049477Y-106200000D01*
X130064200Y-106201450D01*
X130078923Y-106200000D01*
X130078933Y-106200000D01*
X130123010Y-106195659D01*
X130179560Y-106178504D01*
X130231677Y-106150647D01*
X130277358Y-106113158D01*
X130286753Y-106101710D01*
X130396415Y-105992048D01*
X130395140Y-105994434D01*
X130379443Y-106046183D01*
X130374142Y-106100000D01*
X130375470Y-106113482D01*
X130375471Y-106875470D01*
X114999530Y-106875470D01*
X114999530Y-91149530D01*
X124187565Y-91149530D01*
X124172454Y-91186010D01*
G36*
X128754200Y-100960000D02*
G01*
X128774200Y-100960000D01*
X128774200Y-101110000D01*
X128754200Y-101110000D01*
X128754200Y-101466250D01*
X128822950Y-101535000D01*
X128829200Y-101536331D01*
X128883110Y-101531021D01*
X128934947Y-101515297D01*
X128982721Y-101489761D01*
X128991697Y-101482395D01*
X129029200Y-101486088D01*
X129149958Y-101486088D01*
X129184650Y-101520779D01*
X129179117Y-101538220D01*
X129179029Y-101539004D01*
X129178796Y-101539757D01*
X129176579Y-101560847D01*
X129174222Y-101581859D01*
X129174211Y-101583368D01*
X129174205Y-101583429D01*
X129174211Y-101583490D01*
X129174200Y-101585000D01*
X129174200Y-102015000D01*
X129176261Y-102036021D01*
X129178185Y-102057161D01*
X129178408Y-102057919D01*
X129178485Y-102058703D01*
X129184615Y-102079005D01*
X129190584Y-102099286D01*
X129190948Y-102099982D01*
X129191177Y-102100741D01*
X129201128Y-102119456D01*
X129210928Y-102138202D01*
X129211424Y-102138819D01*
X129211793Y-102139513D01*
X129225169Y-102155913D01*
X129238444Y-102172424D01*
X129239047Y-102172930D01*
X129239547Y-102173543D01*
X129253336Y-102184950D01*
X129241776Y-102194244D01*
X129241525Y-102194543D01*
X129241215Y-102194794D01*
X129227309Y-102211484D01*
X129213549Y-102227882D01*
X129213359Y-102228227D01*
X129213106Y-102228531D01*
X129202757Y-102247514D01*
X129192395Y-102266363D01*
X129192276Y-102266739D01*
X129192087Y-102267085D01*
X129185643Y-102287649D01*
X129179117Y-102308220D01*
X129179073Y-102308613D01*
X129178955Y-102308989D01*
X129176673Y-102330000D01*
X129154530Y-102330000D01*
X128907395Y-102082866D01*
X128895648Y-102068552D01*
X128838547Y-102021691D01*
X128773400Y-101986869D01*
X128702713Y-101965426D01*
X128647619Y-101960000D01*
X128647616Y-101960000D01*
X128629200Y-101958186D01*
X128610784Y-101960000D01*
X128230977Y-101960000D01*
X128054200Y-101783224D01*
X128054200Y-101738217D01*
X128035946Y-101646448D01*
X128000139Y-101560003D01*
X127948156Y-101482205D01*
X127925814Y-101459863D01*
X127942680Y-101468878D01*
X127985092Y-101481744D01*
X128029200Y-101486088D01*
X128329200Y-101486088D01*
X128366703Y-101482395D01*
X128375679Y-101489761D01*
X128423453Y-101515297D01*
X128475290Y-101531021D01*
X128529200Y-101536331D01*
X128535450Y-101535000D01*
X128604200Y-101466250D01*
X128604200Y-101110000D01*
X128584200Y-101110000D01*
X128584200Y-100960000D01*
X128604200Y-100960000D01*
X128604200Y-100940000D01*
X128754200Y-100940000D01*
X128754200Y-100960000D01*
G37*
X128754200Y-100960000D02*
X128774200Y-100960000D01*
X128774200Y-101110000D01*
X128754200Y-101110000D01*
X128754200Y-101466250D01*
X128822950Y-101535000D01*
X128829200Y-101536331D01*
X128883110Y-101531021D01*
X128934947Y-101515297D01*
X128982721Y-101489761D01*
X128991697Y-101482395D01*
X129029200Y-101486088D01*
X129149958Y-101486088D01*
X129184650Y-101520779D01*
X129179117Y-101538220D01*
X129179029Y-101539004D01*
X129178796Y-101539757D01*
X129176579Y-101560847D01*
X129174222Y-101581859D01*
X129174211Y-101583368D01*
X129174205Y-101583429D01*
X129174211Y-101583490D01*
X129174200Y-101585000D01*
X129174200Y-102015000D01*
X129176261Y-102036021D01*
X129178185Y-102057161D01*
X129178408Y-102057919D01*
X129178485Y-102058703D01*
X129184615Y-102079005D01*
X129190584Y-102099286D01*
X129190948Y-102099982D01*
X129191177Y-102100741D01*
X129201128Y-102119456D01*
X129210928Y-102138202D01*
X129211424Y-102138819D01*
X129211793Y-102139513D01*
X129225169Y-102155913D01*
X129238444Y-102172424D01*
X129239047Y-102172930D01*
X129239547Y-102173543D01*
X129253336Y-102184950D01*
X129241776Y-102194244D01*
X129241525Y-102194543D01*
X129241215Y-102194794D01*
X129227309Y-102211484D01*
X129213549Y-102227882D01*
X129213359Y-102228227D01*
X129213106Y-102228531D01*
X129202757Y-102247514D01*
X129192395Y-102266363D01*
X129192276Y-102266739D01*
X129192087Y-102267085D01*
X129185643Y-102287649D01*
X129179117Y-102308220D01*
X129179073Y-102308613D01*
X129178955Y-102308989D01*
X129176673Y-102330000D01*
X129154530Y-102330000D01*
X128907395Y-102082866D01*
X128895648Y-102068552D01*
X128838547Y-102021691D01*
X128773400Y-101986869D01*
X128702713Y-101965426D01*
X128647619Y-101960000D01*
X128647616Y-101960000D01*
X128629200Y-101958186D01*
X128610784Y-101960000D01*
X128230977Y-101960000D01*
X128054200Y-101783224D01*
X128054200Y-101738217D01*
X128035946Y-101646448D01*
X128000139Y-101560003D01*
X127948156Y-101482205D01*
X127925814Y-101459863D01*
X127942680Y-101468878D01*
X127985092Y-101481744D01*
X128029200Y-101486088D01*
X128329200Y-101486088D01*
X128366703Y-101482395D01*
X128375679Y-101489761D01*
X128423453Y-101515297D01*
X128475290Y-101531021D01*
X128529200Y-101536331D01*
X128535450Y-101535000D01*
X128604200Y-101466250D01*
X128604200Y-101110000D01*
X128584200Y-101110000D01*
X128584200Y-100960000D01*
X128604200Y-100960000D01*
X128604200Y-100940000D01*
X128754200Y-100940000D01*
X128754200Y-100960000D01*
G36*
X136225471Y-97119915D02*
G01*
X136113844Y-96952855D01*
X135957145Y-96796156D01*
X135772887Y-96673038D01*
X135568150Y-96588233D01*
X135350803Y-96545000D01*
X135129197Y-96545000D01*
X134911850Y-96588233D01*
X134767047Y-96648212D01*
X134744730Y-96536017D01*
X134686316Y-96394993D01*
X134601512Y-96268074D01*
X134509944Y-96176506D01*
X134601912Y-96127350D01*
X134701433Y-95967499D01*
X133970000Y-95236066D01*
X133955858Y-95250209D01*
X133849792Y-95144143D01*
X133863934Y-95130000D01*
X134076066Y-95130000D01*
X134807499Y-95861433D01*
X134967350Y-95761912D01*
X135071466Y-95555196D01*
X135133253Y-95332141D01*
X135150337Y-95101317D01*
X135122061Y-94871596D01*
X135049512Y-94651806D01*
X134967350Y-94498088D01*
X134807499Y-94398567D01*
X134076066Y-95130000D01*
X133863934Y-95130000D01*
X133132501Y-94398567D01*
X132972650Y-94498088D01*
X132868534Y-94704804D01*
X132806747Y-94927859D01*
X132789663Y-95158683D01*
X132817939Y-95388404D01*
X132890488Y-95608194D01*
X132931599Y-95685108D01*
X132890648Y-95693254D01*
X132822434Y-95721509D01*
X132816281Y-95709997D01*
X132788299Y-95675901D01*
X132754203Y-95647919D01*
X132715304Y-95627127D01*
X132677265Y-95615588D01*
X132678961Y-95613521D01*
X132704497Y-95565747D01*
X132720221Y-95513910D01*
X132725531Y-95460000D01*
X132724200Y-95308750D01*
X132655450Y-95240000D01*
X132204200Y-95240000D01*
X132204200Y-95260000D01*
X132054200Y-95260000D01*
X132054200Y-95240000D01*
X131602950Y-95240000D01*
X131569738Y-95273212D01*
X131538097Y-95272647D01*
X131505450Y-95240000D01*
X131054200Y-95240000D01*
X131054200Y-95260000D01*
X130954200Y-95260000D01*
X130954200Y-95070000D01*
X131054200Y-95070000D01*
X131054200Y-95090000D01*
X131505450Y-95090000D01*
X131535450Y-95060000D01*
X131572950Y-95060000D01*
X131602950Y-95090000D01*
X132054200Y-95090000D01*
X132054200Y-95070000D01*
X132204200Y-95070000D01*
X132204200Y-95090000D01*
X132655450Y-95090000D01*
X132724200Y-95021250D01*
X132725531Y-94870000D01*
X132720221Y-94816090D01*
X132704497Y-94764253D01*
X132678961Y-94716479D01*
X132644596Y-94674604D01*
X132602721Y-94640239D01*
X132554947Y-94614703D01*
X132503110Y-94598979D01*
X132449200Y-94593669D01*
X132354200Y-94594386D01*
X132354200Y-94211040D01*
X132445570Y-94119670D01*
X132455490Y-94127811D01*
X132624969Y-94218400D01*
X132808865Y-94274184D01*
X132952187Y-94288300D01*
X133241182Y-94288300D01*
X133238567Y-94292501D01*
X133970000Y-95023934D01*
X134701433Y-94292501D01*
X134698818Y-94288300D01*
X135047013Y-94288300D01*
X135190335Y-94274184D01*
X135374231Y-94218400D01*
X135543710Y-94127811D01*
X135692260Y-94005900D01*
X135814171Y-93857350D01*
X135904760Y-93687871D01*
X135960544Y-93503975D01*
X135962678Y-93482311D01*
X135973807Y-93461898D01*
X135987741Y-93436553D01*
X135987902Y-93436046D01*
X135988151Y-93435589D01*
X135996691Y-93408339D01*
X136005444Y-93380744D01*
X136005503Y-93380220D01*
X136005660Y-93379718D01*
X136008767Y-93351117D01*
X136011971Y-93322559D01*
X136011978Y-93321569D01*
X136011984Y-93321512D01*
X136011979Y-93321451D01*
X136012000Y-93318370D01*
X136012000Y-91218370D01*
X136009243Y-91190251D01*
X136006686Y-91162156D01*
X136006390Y-91161150D01*
X136006287Y-91160100D01*
X136003096Y-91149530D01*
X136225471Y-91149530D01*
X136225471Y-97119915D01*
G37*
X136225471Y-97119915D02*
X136113844Y-96952855D01*
X135957145Y-96796156D01*
X135772887Y-96673038D01*
X135568150Y-96588233D01*
X135350803Y-96545000D01*
X135129197Y-96545000D01*
X134911850Y-96588233D01*
X134767047Y-96648212D01*
X134744730Y-96536017D01*
X134686316Y-96394993D01*
X134601512Y-96268074D01*
X134509944Y-96176506D01*
X134601912Y-96127350D01*
X134701433Y-95967499D01*
X133970000Y-95236066D01*
X133955858Y-95250209D01*
X133849792Y-95144143D01*
X133863934Y-95130000D01*
X134076066Y-95130000D01*
X134807499Y-95861433D01*
X134967350Y-95761912D01*
X135071466Y-95555196D01*
X135133253Y-95332141D01*
X135150337Y-95101317D01*
X135122061Y-94871596D01*
X135049512Y-94651806D01*
X134967350Y-94498088D01*
X134807499Y-94398567D01*
X134076066Y-95130000D01*
X133863934Y-95130000D01*
X133132501Y-94398567D01*
X132972650Y-94498088D01*
X132868534Y-94704804D01*
X132806747Y-94927859D01*
X132789663Y-95158683D01*
X132817939Y-95388404D01*
X132890488Y-95608194D01*
X132931599Y-95685108D01*
X132890648Y-95693254D01*
X132822434Y-95721509D01*
X132816281Y-95709997D01*
X132788299Y-95675901D01*
X132754203Y-95647919D01*
X132715304Y-95627127D01*
X132677265Y-95615588D01*
X132678961Y-95613521D01*
X132704497Y-95565747D01*
X132720221Y-95513910D01*
X132725531Y-95460000D01*
X132724200Y-95308750D01*
X132655450Y-95240000D01*
X132204200Y-95240000D01*
X132204200Y-95260000D01*
X132054200Y-95260000D01*
X132054200Y-95240000D01*
X131602950Y-95240000D01*
X131569738Y-95273212D01*
X131538097Y-95272647D01*
X131505450Y-95240000D01*
X131054200Y-95240000D01*
X131054200Y-95260000D01*
X130954200Y-95260000D01*
X130954200Y-95070000D01*
X131054200Y-95070000D01*
X131054200Y-95090000D01*
X131505450Y-95090000D01*
X131535450Y-95060000D01*
X131572950Y-95060000D01*
X131602950Y-95090000D01*
X132054200Y-95090000D01*
X132054200Y-95070000D01*
X132204200Y-95070000D01*
X132204200Y-95090000D01*
X132655450Y-95090000D01*
X132724200Y-95021250D01*
X132725531Y-94870000D01*
X132720221Y-94816090D01*
X132704497Y-94764253D01*
X132678961Y-94716479D01*
X132644596Y-94674604D01*
X132602721Y-94640239D01*
X132554947Y-94614703D01*
X132503110Y-94598979D01*
X132449200Y-94593669D01*
X132354200Y-94594386D01*
X132354200Y-94211040D01*
X132445570Y-94119670D01*
X132455490Y-94127811D01*
X132624969Y-94218400D01*
X132808865Y-94274184D01*
X132952187Y-94288300D01*
X133241182Y-94288300D01*
X133238567Y-94292501D01*
X133970000Y-95023934D01*
X134701433Y-94292501D01*
X134698818Y-94288300D01*
X135047013Y-94288300D01*
X135190335Y-94274184D01*
X135374231Y-94218400D01*
X135543710Y-94127811D01*
X135692260Y-94005900D01*
X135814171Y-93857350D01*
X135904760Y-93687871D01*
X135960544Y-93503975D01*
X135962678Y-93482311D01*
X135973807Y-93461898D01*
X135987741Y-93436553D01*
X135987902Y-93436046D01*
X135988151Y-93435589D01*
X135996691Y-93408339D01*
X136005444Y-93380744D01*
X136005503Y-93380220D01*
X136005660Y-93379718D01*
X136008767Y-93351117D01*
X136011971Y-93322559D01*
X136011978Y-93321569D01*
X136011984Y-93321512D01*
X136011979Y-93321451D01*
X136012000Y-93318370D01*
X136012000Y-91218370D01*
X136009243Y-91190251D01*
X136006686Y-91162156D01*
X136006390Y-91161150D01*
X136006287Y-91160100D01*
X136003096Y-91149530D01*
X136225471Y-91149530D01*
X136225471Y-97119915D01*
G36*
X130375470Y-91886518D02*
G01*
X130374142Y-91900000D01*
X130379443Y-91953817D01*
X130395140Y-92005566D01*
X130401184Y-92016873D01*
X130420632Y-92053258D01*
X130430717Y-92065546D01*
X130386073Y-92119946D01*
X130351550Y-92184534D01*
X130330290Y-92254617D01*
X130323112Y-92327500D01*
X130323112Y-92672500D01*
X130330290Y-92745383D01*
X130351550Y-92815466D01*
X130386073Y-92880054D01*
X130432533Y-92936667D01*
X130454200Y-92954448D01*
X130454200Y-93056250D01*
X130408261Y-93125003D01*
X130372454Y-93211448D01*
X130354200Y-93303217D01*
X130354200Y-93396783D01*
X130372454Y-93488552D01*
X130408261Y-93574997D01*
X130454201Y-93643751D01*
X130454201Y-93695551D01*
X130432533Y-93713333D01*
X130386073Y-93769946D01*
X130351550Y-93834534D01*
X130330290Y-93904617D01*
X130323112Y-93977500D01*
X130323112Y-94322500D01*
X130330290Y-94395383D01*
X130351550Y-94465466D01*
X130386073Y-94530054D01*
X130432533Y-94586667D01*
X130469201Y-94616759D01*
X130469201Y-94860220D01*
X130461550Y-94874534D01*
X130440290Y-94944617D01*
X130433112Y-95017500D01*
X130433112Y-95312500D01*
X130440290Y-95385383D01*
X130461550Y-95455466D01*
X130496073Y-95520054D01*
X130542533Y-95576667D01*
X130552770Y-95585068D01*
X130505679Y-95610239D01*
X130463804Y-95644604D01*
X130429439Y-95686479D01*
X130403903Y-95734253D01*
X130388179Y-95786090D01*
X130382869Y-95840000D01*
X130384200Y-95991250D01*
X130452950Y-96060000D01*
X130904200Y-96060000D01*
X130904200Y-96040000D01*
X131054200Y-96040000D01*
X131054200Y-96060000D01*
X131505450Y-96060000D01*
X131554200Y-96011250D01*
X131602950Y-96060000D01*
X132054200Y-96060000D01*
X132054200Y-96040000D01*
X132204200Y-96040000D01*
X132204200Y-96060000D01*
X132224200Y-96060000D01*
X132224200Y-96210000D01*
X131054200Y-96210000D01*
X131054200Y-96230000D01*
X130904200Y-96230000D01*
X130904200Y-96210000D01*
X130452950Y-96210000D01*
X130384200Y-96278750D01*
X130382887Y-96427938D01*
X130171749Y-96428671D01*
X130174743Y-96418801D01*
X130180288Y-96362500D01*
X130180288Y-96237500D01*
X130174743Y-96181199D01*
X130158321Y-96127062D01*
X130131652Y-96077169D01*
X130109356Y-96050000D01*
X130131652Y-96022831D01*
X130158321Y-95972938D01*
X130174743Y-95918801D01*
X130180288Y-95862500D01*
X130180288Y-95737500D01*
X130174743Y-95681199D01*
X130158321Y-95627062D01*
X130131652Y-95577169D01*
X130109356Y-95550000D01*
X130131652Y-95522831D01*
X130158321Y-95472938D01*
X130174743Y-95418801D01*
X130180288Y-95362500D01*
X130180288Y-95237500D01*
X130174743Y-95181199D01*
X130158321Y-95127062D01*
X130131652Y-95077169D01*
X130109356Y-95050000D01*
X130131652Y-95022831D01*
X130158321Y-94972938D01*
X130174743Y-94918801D01*
X130180288Y-94862500D01*
X130180288Y-94737500D01*
X130174743Y-94681199D01*
X130158321Y-94627062D01*
X130152722Y-94616587D01*
X130183961Y-94578521D01*
X130209497Y-94530747D01*
X130225221Y-94478910D01*
X130230531Y-94425000D01*
X130229200Y-94418750D01*
X130160450Y-94350000D01*
X129591700Y-94350000D01*
X129591700Y-94395000D01*
X129441700Y-94395000D01*
X129441700Y-94350000D01*
X129421700Y-94350000D01*
X129421700Y-94250000D01*
X129441700Y-94250000D01*
X129441700Y-94205000D01*
X129591700Y-94205000D01*
X129591700Y-94250000D01*
X130160450Y-94250000D01*
X130229200Y-94181250D01*
X130230531Y-94175000D01*
X130225221Y-94121090D01*
X130209497Y-94069253D01*
X130183961Y-94021479D01*
X130152722Y-93983413D01*
X130158321Y-93972938D01*
X130174743Y-93918801D01*
X130180288Y-93862500D01*
X130180288Y-93737500D01*
X130174743Y-93681199D01*
X130158321Y-93627062D01*
X130131652Y-93577169D01*
X130095763Y-93533437D01*
X130052031Y-93497548D01*
X130002138Y-93470879D01*
X129948001Y-93454457D01*
X129900192Y-93449748D01*
X129950139Y-93374997D01*
X129985946Y-93288552D01*
X130004200Y-93196783D01*
X130004200Y-93103217D01*
X129985946Y-93011448D01*
X129950139Y-92925003D01*
X129898156Y-92847205D01*
X129831995Y-92781044D01*
X129754197Y-92729061D01*
X129667752Y-92693254D01*
X129575983Y-92675000D01*
X129482417Y-92675000D01*
X129390648Y-92693254D01*
X129304203Y-92729061D01*
X129230062Y-92778601D01*
X129230531Y-92675000D01*
X129225221Y-92621090D01*
X129209497Y-92569253D01*
X129183961Y-92521479D01*
X129149596Y-92479604D01*
X129107721Y-92445239D01*
X129059947Y-92419703D01*
X129008110Y-92403979D01*
X128954200Y-92398669D01*
X128947950Y-92400000D01*
X128879200Y-92468750D01*
X128879200Y-93037500D01*
X128924200Y-93037500D01*
X128924200Y-93187500D01*
X128879200Y-93187500D01*
X128879200Y-93207500D01*
X128779200Y-93207500D01*
X128779200Y-93187500D01*
X128734200Y-93187500D01*
X128734200Y-93037500D01*
X128779200Y-93037500D01*
X128779200Y-92468750D01*
X128710450Y-92400000D01*
X128704200Y-92398669D01*
X128650290Y-92403979D01*
X128598453Y-92419703D01*
X128559946Y-92440286D01*
X128560139Y-92439997D01*
X128595946Y-92353552D01*
X128614200Y-92261783D01*
X128614200Y-92168217D01*
X128595946Y-92076448D01*
X128560139Y-91990003D01*
X128508156Y-91912205D01*
X128441995Y-91846044D01*
X128364197Y-91794061D01*
X128277752Y-91758254D01*
X128185983Y-91740000D01*
X128092417Y-91740000D01*
X128000648Y-91758254D01*
X127914203Y-91794061D01*
X127836405Y-91846044D01*
X127770244Y-91912205D01*
X127734479Y-91965731D01*
X127734200Y-91928750D01*
X127665450Y-91860000D01*
X127239200Y-91860000D01*
X127239200Y-92311250D01*
X127307950Y-92380000D01*
X127459200Y-92381331D01*
X127513110Y-92376021D01*
X127564947Y-92360297D01*
X127585130Y-92349509D01*
X127578553Y-92357523D01*
X127550697Y-92409640D01*
X127533542Y-92466190D01*
X127531533Y-92486591D01*
X127502138Y-92470879D01*
X127448001Y-92454457D01*
X127391700Y-92448912D01*
X127266700Y-92448912D01*
X127210399Y-92454457D01*
X127156262Y-92470879D01*
X127145787Y-92476478D01*
X127107721Y-92445239D01*
X127059947Y-92419703D01*
X127008110Y-92403979D01*
X126954200Y-92398669D01*
X126947950Y-92400000D01*
X126879200Y-92468750D01*
X126879200Y-93037500D01*
X126924200Y-93037500D01*
X126924200Y-93187500D01*
X126879200Y-93187500D01*
X126879200Y-93207500D01*
X126779200Y-93207500D01*
X126779200Y-93187500D01*
X126734200Y-93187500D01*
X126734200Y-93037500D01*
X126779200Y-93037500D01*
X126779200Y-92468750D01*
X126710450Y-92400000D01*
X126704200Y-92398669D01*
X126650290Y-92403979D01*
X126598453Y-92419703D01*
X126550679Y-92445239D01*
X126512613Y-92476478D01*
X126502138Y-92470879D01*
X126448001Y-92454457D01*
X126391700Y-92448912D01*
X126266700Y-92448912D01*
X126210399Y-92454457D01*
X126156262Y-92470879D01*
X126117413Y-92491645D01*
X126107704Y-92459640D01*
X126100007Y-92445239D01*
X126079847Y-92407522D01*
X126051750Y-92373286D01*
X126051749Y-92373285D01*
X126042358Y-92361842D01*
X126030915Y-92352451D01*
X126005494Y-92327030D01*
X126046700Y-92331088D01*
X126341700Y-92331088D01*
X126414583Y-92323910D01*
X126484666Y-92302650D01*
X126549254Y-92268127D01*
X126605867Y-92221667D01*
X126614268Y-92211430D01*
X126639439Y-92258521D01*
X126673804Y-92300396D01*
X126715679Y-92334761D01*
X126763453Y-92360297D01*
X126815290Y-92376021D01*
X126869200Y-92381331D01*
X127020450Y-92380000D01*
X127089200Y-92311250D01*
X127089200Y-91860000D01*
X127069200Y-91860000D01*
X127069200Y-91710000D01*
X127089200Y-91710000D01*
X127089200Y-91258750D01*
X127239200Y-91258750D01*
X127239200Y-91710000D01*
X127665450Y-91710000D01*
X127734200Y-91641250D01*
X127735531Y-91465000D01*
X127730221Y-91411090D01*
X127714497Y-91359253D01*
X127688961Y-91311479D01*
X127654596Y-91269604D01*
X127612721Y-91235239D01*
X127564947Y-91209703D01*
X127513110Y-91193979D01*
X127459200Y-91188669D01*
X127307950Y-91190000D01*
X127239200Y-91258750D01*
X127089200Y-91258750D01*
X127020450Y-91190000D01*
X126869200Y-91188669D01*
X126815290Y-91193979D01*
X126763453Y-91209703D01*
X126715679Y-91235239D01*
X126673804Y-91269604D01*
X126639439Y-91311479D01*
X126614268Y-91358570D01*
X126605867Y-91348333D01*
X126549254Y-91301873D01*
X126484666Y-91267350D01*
X126414583Y-91246090D01*
X126341700Y-91238912D01*
X126178441Y-91238912D01*
X126089059Y-91149530D01*
X130375471Y-91149530D01*
X130375470Y-91886518D01*
G37*
X130375470Y-91886518D02*
X130374142Y-91900000D01*
X130379443Y-91953817D01*
X130395140Y-92005566D01*
X130401184Y-92016873D01*
X130420632Y-92053258D01*
X130430717Y-92065546D01*
X130386073Y-92119946D01*
X130351550Y-92184534D01*
X130330290Y-92254617D01*
X130323112Y-92327500D01*
X130323112Y-92672500D01*
X130330290Y-92745383D01*
X130351550Y-92815466D01*
X130386073Y-92880054D01*
X130432533Y-92936667D01*
X130454200Y-92954448D01*
X130454200Y-93056250D01*
X130408261Y-93125003D01*
X130372454Y-93211448D01*
X130354200Y-93303217D01*
X130354200Y-93396783D01*
X130372454Y-93488552D01*
X130408261Y-93574997D01*
X130454201Y-93643751D01*
X130454201Y-93695551D01*
X130432533Y-93713333D01*
X130386073Y-93769946D01*
X130351550Y-93834534D01*
X130330290Y-93904617D01*
X130323112Y-93977500D01*
X130323112Y-94322500D01*
X130330290Y-94395383D01*
X130351550Y-94465466D01*
X130386073Y-94530054D01*
X130432533Y-94586667D01*
X130469201Y-94616759D01*
X130469201Y-94860220D01*
X130461550Y-94874534D01*
X130440290Y-94944617D01*
X130433112Y-95017500D01*
X130433112Y-95312500D01*
X130440290Y-95385383D01*
X130461550Y-95455466D01*
X130496073Y-95520054D01*
X130542533Y-95576667D01*
X130552770Y-95585068D01*
X130505679Y-95610239D01*
X130463804Y-95644604D01*
X130429439Y-95686479D01*
X130403903Y-95734253D01*
X130388179Y-95786090D01*
X130382869Y-95840000D01*
X130384200Y-95991250D01*
X130452950Y-96060000D01*
X130904200Y-96060000D01*
X130904200Y-96040000D01*
X131054200Y-96040000D01*
X131054200Y-96060000D01*
X131505450Y-96060000D01*
X131554200Y-96011250D01*
X131602950Y-96060000D01*
X132054200Y-96060000D01*
X132054200Y-96040000D01*
X132204200Y-96040000D01*
X132204200Y-96060000D01*
X132224200Y-96060000D01*
X132224200Y-96210000D01*
X131054200Y-96210000D01*
X131054200Y-96230000D01*
X130904200Y-96230000D01*
X130904200Y-96210000D01*
X130452950Y-96210000D01*
X130384200Y-96278750D01*
X130382887Y-96427938D01*
X130171749Y-96428671D01*
X130174743Y-96418801D01*
X130180288Y-96362500D01*
X130180288Y-96237500D01*
X130174743Y-96181199D01*
X130158321Y-96127062D01*
X130131652Y-96077169D01*
X130109356Y-96050000D01*
X130131652Y-96022831D01*
X130158321Y-95972938D01*
X130174743Y-95918801D01*
X130180288Y-95862500D01*
X130180288Y-95737500D01*
X130174743Y-95681199D01*
X130158321Y-95627062D01*
X130131652Y-95577169D01*
X130109356Y-95550000D01*
X130131652Y-95522831D01*
X130158321Y-95472938D01*
X130174743Y-95418801D01*
X130180288Y-95362500D01*
X130180288Y-95237500D01*
X130174743Y-95181199D01*
X130158321Y-95127062D01*
X130131652Y-95077169D01*
X130109356Y-95050000D01*
X130131652Y-95022831D01*
X130158321Y-94972938D01*
X130174743Y-94918801D01*
X130180288Y-94862500D01*
X130180288Y-94737500D01*
X130174743Y-94681199D01*
X130158321Y-94627062D01*
X130152722Y-94616587D01*
X130183961Y-94578521D01*
X130209497Y-94530747D01*
X130225221Y-94478910D01*
X130230531Y-94425000D01*
X130229200Y-94418750D01*
X130160450Y-94350000D01*
X129591700Y-94350000D01*
X129591700Y-94395000D01*
X129441700Y-94395000D01*
X129441700Y-94350000D01*
X129421700Y-94350000D01*
X129421700Y-94250000D01*
X129441700Y-94250000D01*
X129441700Y-94205000D01*
X129591700Y-94205000D01*
X129591700Y-94250000D01*
X130160450Y-94250000D01*
X130229200Y-94181250D01*
X130230531Y-94175000D01*
X130225221Y-94121090D01*
X130209497Y-94069253D01*
X130183961Y-94021479D01*
X130152722Y-93983413D01*
X130158321Y-93972938D01*
X130174743Y-93918801D01*
X130180288Y-93862500D01*
X130180288Y-93737500D01*
X130174743Y-93681199D01*
X130158321Y-93627062D01*
X130131652Y-93577169D01*
X130095763Y-93533437D01*
X130052031Y-93497548D01*
X130002138Y-93470879D01*
X129948001Y-93454457D01*
X129900192Y-93449748D01*
X129950139Y-93374997D01*
X129985946Y-93288552D01*
X130004200Y-93196783D01*
X130004200Y-93103217D01*
X129985946Y-93011448D01*
X129950139Y-92925003D01*
X129898156Y-92847205D01*
X129831995Y-92781044D01*
X129754197Y-92729061D01*
X129667752Y-92693254D01*
X129575983Y-92675000D01*
X129482417Y-92675000D01*
X129390648Y-92693254D01*
X129304203Y-92729061D01*
X129230062Y-92778601D01*
X129230531Y-92675000D01*
X129225221Y-92621090D01*
X129209497Y-92569253D01*
X129183961Y-92521479D01*
X129149596Y-92479604D01*
X129107721Y-92445239D01*
X129059947Y-92419703D01*
X129008110Y-92403979D01*
X128954200Y-92398669D01*
X128947950Y-92400000D01*
X128879200Y-92468750D01*
X128879200Y-93037500D01*
X128924200Y-93037500D01*
X128924200Y-93187500D01*
X128879200Y-93187500D01*
X128879200Y-93207500D01*
X128779200Y-93207500D01*
X128779200Y-93187500D01*
X128734200Y-93187500D01*
X128734200Y-93037500D01*
X128779200Y-93037500D01*
X128779200Y-92468750D01*
X128710450Y-92400000D01*
X128704200Y-92398669D01*
X128650290Y-92403979D01*
X128598453Y-92419703D01*
X128559946Y-92440286D01*
X128560139Y-92439997D01*
X128595946Y-92353552D01*
X128614200Y-92261783D01*
X128614200Y-92168217D01*
X128595946Y-92076448D01*
X128560139Y-91990003D01*
X128508156Y-91912205D01*
X128441995Y-91846044D01*
X128364197Y-91794061D01*
X128277752Y-91758254D01*
X128185983Y-91740000D01*
X128092417Y-91740000D01*
X128000648Y-91758254D01*
X127914203Y-91794061D01*
X127836405Y-91846044D01*
X127770244Y-91912205D01*
X127734479Y-91965731D01*
X127734200Y-91928750D01*
X127665450Y-91860000D01*
X127239200Y-91860000D01*
X127239200Y-92311250D01*
X127307950Y-92380000D01*
X127459200Y-92381331D01*
X127513110Y-92376021D01*
X127564947Y-92360297D01*
X127585130Y-92349509D01*
X127578553Y-92357523D01*
X127550697Y-92409640D01*
X127533542Y-92466190D01*
X127531533Y-92486591D01*
X127502138Y-92470879D01*
X127448001Y-92454457D01*
X127391700Y-92448912D01*
X127266700Y-92448912D01*
X127210399Y-92454457D01*
X127156262Y-92470879D01*
X127145787Y-92476478D01*
X127107721Y-92445239D01*
X127059947Y-92419703D01*
X127008110Y-92403979D01*
X126954200Y-92398669D01*
X126947950Y-92400000D01*
X126879200Y-92468750D01*
X126879200Y-93037500D01*
X126924200Y-93037500D01*
X126924200Y-93187500D01*
X126879200Y-93187500D01*
X126879200Y-93207500D01*
X126779200Y-93207500D01*
X126779200Y-93187500D01*
X126734200Y-93187500D01*
X126734200Y-93037500D01*
X126779200Y-93037500D01*
X126779200Y-92468750D01*
X126710450Y-92400000D01*
X126704200Y-92398669D01*
X126650290Y-92403979D01*
X126598453Y-92419703D01*
X126550679Y-92445239D01*
X126512613Y-92476478D01*
X126502138Y-92470879D01*
X126448001Y-92454457D01*
X126391700Y-92448912D01*
X126266700Y-92448912D01*
X126210399Y-92454457D01*
X126156262Y-92470879D01*
X126117413Y-92491645D01*
X126107704Y-92459640D01*
X126100007Y-92445239D01*
X126079847Y-92407522D01*
X126051750Y-92373286D01*
X126051749Y-92373285D01*
X126042358Y-92361842D01*
X126030915Y-92352451D01*
X126005494Y-92327030D01*
X126046700Y-92331088D01*
X126341700Y-92331088D01*
X126414583Y-92323910D01*
X126484666Y-92302650D01*
X126549254Y-92268127D01*
X126605867Y-92221667D01*
X126614268Y-92211430D01*
X126639439Y-92258521D01*
X126673804Y-92300396D01*
X126715679Y-92334761D01*
X126763453Y-92360297D01*
X126815290Y-92376021D01*
X126869200Y-92381331D01*
X127020450Y-92380000D01*
X127089200Y-92311250D01*
X127089200Y-91860000D01*
X127069200Y-91860000D01*
X127069200Y-91710000D01*
X127089200Y-91710000D01*
X127089200Y-91258750D01*
X127239200Y-91258750D01*
X127239200Y-91710000D01*
X127665450Y-91710000D01*
X127734200Y-91641250D01*
X127735531Y-91465000D01*
X127730221Y-91411090D01*
X127714497Y-91359253D01*
X127688961Y-91311479D01*
X127654596Y-91269604D01*
X127612721Y-91235239D01*
X127564947Y-91209703D01*
X127513110Y-91193979D01*
X127459200Y-91188669D01*
X127307950Y-91190000D01*
X127239200Y-91258750D01*
X127089200Y-91258750D01*
X127020450Y-91190000D01*
X126869200Y-91188669D01*
X126815290Y-91193979D01*
X126763453Y-91209703D01*
X126715679Y-91235239D01*
X126673804Y-91269604D01*
X126639439Y-91311479D01*
X126614268Y-91358570D01*
X126605867Y-91348333D01*
X126549254Y-91301873D01*
X126484666Y-91267350D01*
X126414583Y-91246090D01*
X126341700Y-91238912D01*
X126178441Y-91238912D01*
X126089059Y-91149530D01*
X130375471Y-91149530D01*
X130375470Y-91886518D01*
G36*
X125904200Y-99466066D02*
G01*
X125904200Y-100103934D01*
X125248134Y-100760000D01*
X125004200Y-100760000D01*
X125004200Y-99116066D01*
X125279200Y-98841066D01*
X125904200Y-99466066D01*
G37*
X125904200Y-99466066D02*
X125904200Y-100103934D01*
X125248134Y-100760000D01*
X125004200Y-100760000D01*
X125004200Y-99116066D01*
X125279200Y-98841066D01*
X125904200Y-99466066D01*
M02*
