G04 #@! TF.GenerationSoftware,KiCad,Pcbnew,(5.0.1)-4*
G04 #@! TF.CreationDate,2019-05-08T11:41:41+02:00*
G04 #@! TF.ProjectId,nk-fido2,6E6B2D6669646F322E6B696361645F70,R3*
G04 #@! TF.SameCoordinates,PX791ddc0PY5e69114*
G04 #@! TF.FileFunction,Soldermask,Bot*
G04 #@! TF.FilePolarity,Negative*
%FSLAX46Y46*%
G04 Gerber Fmt 4.6, Leading zero omitted, Abs format (unit mm)*
G04 Created by KiCad (PCBNEW (5.0.1)-4) date 08.05.2019 11:41:41*
%MOMM*%
%LPD*%
G01*
G04 APERTURE LIST*
%ADD10C,0.150000*%
G04 APERTURE END LIST*
D10*
G36*
X6625045Y-6872715D02*
X6716039Y-6910406D01*
X6797931Y-6965125D01*
X6867575Y-7034769D01*
X6922294Y-7116661D01*
X6959985Y-7207655D01*
X6979200Y-7304254D01*
X6979200Y-7402746D01*
X6959985Y-7499345D01*
X6922294Y-7590339D01*
X6874158Y-7662380D01*
X6867575Y-7672231D01*
X6797931Y-7741875D01*
X6716039Y-7796594D01*
X6625045Y-7834285D01*
X6528446Y-7853500D01*
X6429954Y-7853500D01*
X6333355Y-7834285D01*
X6242361Y-7796594D01*
X6160469Y-7741875D01*
X6090825Y-7672231D01*
X6084243Y-7662380D01*
X6036106Y-7590339D01*
X5998415Y-7499345D01*
X5979200Y-7402746D01*
X5979200Y-7304254D01*
X5998415Y-7207655D01*
X6036106Y-7116661D01*
X6090825Y-7034769D01*
X6160469Y-6965125D01*
X6242361Y-6910406D01*
X6333355Y-6872715D01*
X6429954Y-6853500D01*
X6528446Y-6853500D01*
X6625045Y-6872715D01*
X6625045Y-6872715D01*
G37*
G36*
X-5189039Y7696362D02*
X-5186991Y7694990D01*
X-5186989Y7694989D01*
X-4914285Y7512281D01*
X-4914283Y7512279D01*
X-4912232Y7510905D01*
X-4910865Y7508850D01*
X-4910864Y7508849D01*
X-4893884Y7483321D01*
X-4727699Y7233482D01*
X-4663650Y6906505D01*
X-4663654Y6905279D01*
X-4663654Y6905278D01*
X-4670794Y4763167D01*
X-4670794Y4763130D01*
X-4670800Y4759834D01*
X-4670800Y1269295D01*
X-4670289Y1264268D01*
X-4590456Y875328D01*
X-4588946Y870507D01*
X-4447602Y540704D01*
X-4445325Y536536D01*
X-4235961Y227299D01*
X-4232937Y223637D01*
X-1063693Y-2945607D01*
X-846920Y-3270030D01*
X-770800Y-3652714D01*
X-770800Y-5124286D01*
X-846920Y-5506970D01*
X-1063693Y-5831393D01*
X-1177907Y-5945607D01*
X-1502330Y-6162380D01*
X-1885014Y-6238500D01*
X-5054122Y-6238500D01*
X-5058999Y-6238980D01*
X-5434393Y-6313650D01*
X-5439083Y-6315073D01*
X-5443405Y-6317383D01*
X-5761644Y-6530024D01*
X-5765433Y-6533133D01*
X-6677907Y-7445607D01*
X-7002330Y-7662380D01*
X-7385014Y-7738500D01*
X-10870800Y-7738500D01*
X-11253483Y-7662380D01*
X-11255527Y-7661014D01*
X-11255530Y-7661013D01*
X-11575858Y-7446976D01*
X-11577907Y-7445607D01*
X-11672356Y-7304254D01*
X-11793313Y-7123230D01*
X-11793314Y-7123227D01*
X-11794680Y-7121183D01*
X-11870800Y-6738500D01*
X-11870800Y5411500D01*
X-11797114Y5686500D01*
X-11595800Y5887814D01*
X-11592622Y5888666D01*
X-11592621Y5888666D01*
X-11322384Y5961076D01*
X-11322381Y5961076D01*
X-11320800Y5961500D01*
X-11187478Y5961500D01*
X-11182601Y5961980D01*
X-10807207Y6036650D01*
X-10802517Y6038073D01*
X-10798195Y6040383D01*
X-10479956Y6253024D01*
X-10476167Y6256133D01*
X-10365433Y6366867D01*
X-10362324Y6370656D01*
X-10149683Y6688895D01*
X-10147373Y6693217D01*
X-10145950Y6697907D01*
X-10071280Y7073301D01*
X-10070800Y7078178D01*
X-10070800Y7211500D01*
X-10065558Y7231062D01*
X-9997966Y7483321D01*
X-9997966Y7483322D01*
X-9997114Y7486500D01*
X-9795800Y7687814D01*
X-9792622Y7688666D01*
X-9792621Y7688666D01*
X-9522384Y7761076D01*
X-9522381Y7761076D01*
X-9520800Y7761500D01*
X-5515800Y7761500D01*
X-5189039Y7696362D01*
X-5189039Y7696362D01*
G37*
G36*
X8156029Y-4926764D02*
X8306937Y-4972542D01*
X8446015Y-5046880D01*
X8567917Y-5146923D01*
X8667960Y-5268825D01*
X8742298Y-5407903D01*
X8788076Y-5558811D01*
X8803533Y-5715750D01*
X8788076Y-5872689D01*
X8742298Y-6023597D01*
X8667960Y-6162675D01*
X8567917Y-6284577D01*
X8446015Y-6384620D01*
X8306937Y-6458958D01*
X8156029Y-6504736D01*
X8038414Y-6516320D01*
X5960786Y-6516320D01*
X5843171Y-6504736D01*
X5692263Y-6458958D01*
X5553185Y-6384620D01*
X5431283Y-6284577D01*
X5331240Y-6162675D01*
X5256902Y-6023597D01*
X5211124Y-5872689D01*
X5195667Y-5715750D01*
X5211124Y-5558811D01*
X5256902Y-5407903D01*
X5331240Y-5268825D01*
X5431283Y-5146923D01*
X5553185Y-5046880D01*
X5692263Y-4972542D01*
X5843171Y-4926764D01*
X5960786Y-4915180D01*
X8038414Y-4915180D01*
X8156029Y-4926764D01*
X8156029Y-4926764D01*
G37*
G36*
X5648510Y-4165550D02*
X3549530Y-4165550D01*
X3549530Y-2866670D01*
X5648510Y-2866670D01*
X5648510Y-4165550D01*
X5648510Y-4165550D01*
G37*
G36*
X7174587Y-1689574D02*
X7283764Y-1734796D01*
X7382021Y-1800449D01*
X7465581Y-1884009D01*
X7531234Y-1982266D01*
X7576456Y-2091443D01*
X7599510Y-2207344D01*
X7599510Y-2325516D01*
X7576456Y-2441417D01*
X7531234Y-2550594D01*
X7465581Y-2648851D01*
X7382021Y-2732411D01*
X7283764Y-2798064D01*
X7174587Y-2843286D01*
X7058686Y-2866340D01*
X6940514Y-2866340D01*
X6824613Y-2843286D01*
X6715436Y-2798064D01*
X6617179Y-2732411D01*
X6533619Y-2648851D01*
X6467966Y-2550594D01*
X6422744Y-2441417D01*
X6399690Y-2325516D01*
X6399690Y-2207344D01*
X6422744Y-2091443D01*
X6467966Y-1982266D01*
X6533619Y-1884009D01*
X6617179Y-1800449D01*
X6715436Y-1734796D01*
X6824613Y-1689574D01*
X6940514Y-1666520D01*
X7058686Y-1666520D01*
X7174587Y-1689574D01*
X7174587Y-1689574D01*
G37*
G36*
X5648510Y-1666190D02*
X3549530Y-1666190D01*
X3549530Y-367310D01*
X5648510Y-367310D01*
X5648510Y-1666190D01*
X5648510Y-1666190D01*
G37*
G36*
X5648510Y350570D02*
X3549530Y350570D01*
X3549530Y1649450D01*
X5648510Y1649450D01*
X5648510Y350570D01*
X5648510Y350570D01*
G37*
G36*
X7174587Y2811306D02*
X7283764Y2766084D01*
X7382021Y2700431D01*
X7465581Y2616871D01*
X7531234Y2518614D01*
X7576456Y2409437D01*
X7599510Y2293536D01*
X7599510Y2175364D01*
X7576456Y2059463D01*
X7531234Y1950286D01*
X7465581Y1852029D01*
X7382021Y1768469D01*
X7283764Y1702816D01*
X7174587Y1657594D01*
X7058686Y1634540D01*
X6940514Y1634540D01*
X6824613Y1657594D01*
X6715436Y1702816D01*
X6617179Y1768469D01*
X6533619Y1852029D01*
X6467966Y1950286D01*
X6422744Y2059463D01*
X6399690Y2175364D01*
X6399690Y2293536D01*
X6422744Y2409437D01*
X6467966Y2518614D01*
X6533619Y2616871D01*
X6617179Y2700431D01*
X6715436Y2766084D01*
X6824613Y2811306D01*
X6940514Y2834360D01*
X7058686Y2834360D01*
X7174587Y2811306D01*
X7174587Y2811306D01*
G37*
G36*
X5648510Y2834690D02*
X3549530Y2834690D01*
X3549530Y4133570D01*
X5648510Y4133570D01*
X5648510Y2834690D01*
X5648510Y2834690D01*
G37*
G36*
X8156029Y6472756D02*
X8306937Y6426978D01*
X8446015Y6352640D01*
X8567917Y6252597D01*
X8667960Y6130695D01*
X8742298Y5991617D01*
X8788076Y5840709D01*
X8803533Y5683770D01*
X8788076Y5526831D01*
X8742298Y5375923D01*
X8667960Y5236845D01*
X8567917Y5114943D01*
X8446015Y5014900D01*
X8306937Y4940562D01*
X8156029Y4894784D01*
X8038414Y4883200D01*
X5960786Y4883200D01*
X5843171Y4894784D01*
X5692263Y4940562D01*
X5553185Y5014900D01*
X5431283Y5114943D01*
X5331240Y5236845D01*
X5256902Y5375923D01*
X5211124Y5526831D01*
X5195667Y5683770D01*
X5211124Y5840709D01*
X5256902Y5991617D01*
X5331240Y6130695D01*
X5431283Y6252597D01*
X5553185Y6352640D01*
X5692263Y6426978D01*
X5843171Y6472756D01*
X5960786Y6484340D01*
X8038414Y6484340D01*
X8156029Y6472756D01*
X8156029Y6472756D01*
G37*
G36*
X-495000Y5316500D02*
X-1145000Y5316500D01*
X-1145000Y6216500D01*
X-495000Y6216500D01*
X-495000Y5316500D01*
X-495000Y5316500D01*
G37*
G36*
X445000Y5316500D02*
X-205000Y5316500D01*
X-205000Y6216500D01*
X445000Y6216500D01*
X445000Y5316500D01*
X445000Y5316500D01*
G37*
G36*
X-11024955Y7477285D02*
X-10933961Y7439594D01*
X-10852069Y7384875D01*
X-10782425Y7315231D01*
X-10727706Y7233339D01*
X-10690015Y7142345D01*
X-10670800Y7045746D01*
X-10670800Y6947254D01*
X-10690015Y6850655D01*
X-10727706Y6759661D01*
X-10774990Y6688895D01*
X-10782425Y6677769D01*
X-10852069Y6608125D01*
X-10933961Y6553406D01*
X-11024955Y6515715D01*
X-11121554Y6496500D01*
X-11220046Y6496500D01*
X-11316645Y6515715D01*
X-11407639Y6553406D01*
X-11489531Y6608125D01*
X-11559175Y6677769D01*
X-11566609Y6688895D01*
X-11613894Y6759661D01*
X-11651585Y6850655D01*
X-11670800Y6947254D01*
X-11670800Y7045746D01*
X-11651585Y7142345D01*
X-11613894Y7233339D01*
X-11559175Y7315231D01*
X-11489531Y7384875D01*
X-11407639Y7439594D01*
X-11316645Y7477285D01*
X-11220046Y7496500D01*
X-11121554Y7496500D01*
X-11024955Y7477285D01*
X-11024955Y7477285D01*
G37*
G36*
X445000Y6916500D02*
X-205000Y6916500D01*
X-205000Y7816500D01*
X445000Y7816500D01*
X445000Y6916500D01*
X445000Y6916500D01*
G37*
G36*
X-495000Y6916500D02*
X-1145000Y6916500D01*
X-1145000Y7816500D01*
X-495000Y7816500D01*
X-495000Y6916500D01*
X-495000Y6916500D01*
G37*
M02*
