G04 #@! TF.GenerationSoftware,KiCad,Pcbnew,(5.0.1)-4*
G04 #@! TF.CreationDate,2019-04-11T15:05:26+02:00*
G04 #@! TF.ProjectId,nk-fido2,6E6B2D6669646F322E6B696361645F70,R2*
G04 #@! TF.SameCoordinates,PX791ddc0PY5e69114*
G04 #@! TF.FileFunction,Legend,Bot*
G04 #@! TF.FilePolarity,Positive*
%FSLAX46Y46*%
G04 Gerber Fmt 4.6, Leading zero omitted, Abs format (unit mm)*
G04 Created by KiCad (PCBNEW (5.0.1)-4) date 11.04.2019 15:05:26*
%MOMM*%
%LPD*%
G01*
G04 APERTURE LIST*
%ADD10C,0.150000*%
%ADD11C,0.127000*%
%ADD12C,0.196100*%
%ADD13C,0.250000*%
G04 APERTURE END LIST*
D10*
X2374438Y3917929D02*
X2707771Y3917929D01*
X2707771Y3394120D02*
X2707771Y4394120D01*
X2231580Y4394120D01*
X1850628Y3394120D02*
X1850628Y4394120D01*
X1374438Y3394120D02*
X1374438Y4394120D01*
X1136342Y4394120D01*
X993485Y4346500D01*
X898247Y4251262D01*
X850628Y4156024D01*
X803009Y3965548D01*
X803009Y3822691D01*
X850628Y3632215D01*
X898247Y3536977D01*
X993485Y3441739D01*
X1136342Y3394120D01*
X1374438Y3394120D01*
X183961Y4394120D02*
X-6515Y4394120D01*
X-101753Y4346500D01*
X-196991Y4251262D01*
X-244610Y4060786D01*
X-244610Y3727453D01*
X-196991Y3536977D01*
X-101753Y3441739D01*
X-6515Y3394120D01*
X183961Y3394120D01*
X279200Y3441739D01*
X374438Y3536977D01*
X422057Y3727453D01*
X422057Y4060786D01*
X374438Y4251262D01*
X279200Y4346500D01*
X183961Y4394120D01*
X-625562Y4298881D02*
X-673181Y4346500D01*
X-768420Y4394120D01*
X-1006515Y4394120D01*
X-1101753Y4346500D01*
X-1149372Y4298881D01*
X-1196991Y4203643D01*
X-1196991Y4108405D01*
X-1149372Y3965548D01*
X-577943Y3394120D01*
X-1196991Y3394120D01*
X2764914Y4994120D02*
X2764914Y5994120D01*
X2193485Y4994120D01*
X2193485Y5994120D01*
X1717295Y4994120D02*
X1717295Y5660786D01*
X1717295Y5994120D02*
X1764914Y5946500D01*
X1717295Y5898881D01*
X1669676Y5946500D01*
X1717295Y5994120D01*
X1717295Y5898881D01*
X1383961Y5660786D02*
X1003009Y5660786D01*
X1241104Y5994120D02*
X1241104Y5136977D01*
X1193485Y5041739D01*
X1098247Y4994120D01*
X1003009Y4994120D01*
X669676Y4994120D02*
X669676Y5660786D01*
X669676Y5470310D02*
X622057Y5565548D01*
X574438Y5613167D01*
X479200Y5660786D01*
X383961Y5660786D01*
X-92229Y4994120D02*
X3009Y5041739D01*
X50628Y5089358D01*
X98247Y5184596D01*
X98247Y5470310D01*
X50628Y5565548D01*
X3009Y5613167D01*
X-92229Y5660786D01*
X-235086Y5660786D01*
X-330324Y5613167D01*
X-377943Y5565548D01*
X-425562Y5470310D01*
X-425562Y5184596D01*
X-377943Y5089358D01*
X-330324Y5041739D01*
X-235086Y4994120D01*
X-92229Y4994120D01*
X-854134Y4994120D02*
X-854134Y5994120D01*
X-949372Y5375072D02*
X-1235086Y4994120D01*
X-1235086Y5660786D02*
X-854134Y5279834D01*
X-2044610Y5041739D02*
X-1949372Y4994120D01*
X-1758896Y4994120D01*
X-1663658Y5041739D01*
X-1616039Y5136977D01*
X-1616039Y5517929D01*
X-1663658Y5613167D01*
X-1758896Y5660786D01*
X-1949372Y5660786D01*
X-2044610Y5613167D01*
X-2092229Y5517929D01*
X-2092229Y5422691D01*
X-1616039Y5327453D01*
X-2425562Y5660786D02*
X-2663658Y4994120D01*
X-2901753Y5660786D02*
X-2663658Y4994120D01*
X-2568420Y4756024D01*
X-2520800Y4708405D01*
X-2425562Y4660786D01*
X2193485Y1759120D02*
X2526819Y2235310D01*
X2764914Y1759120D02*
X2764914Y2759120D01*
X2383961Y2759120D01*
X2288723Y2711500D01*
X2241104Y2663881D01*
X2193485Y2568643D01*
X2193485Y2425786D01*
X2241104Y2330548D01*
X2288723Y2282929D01*
X2383961Y2235310D01*
X2764914Y2235310D01*
X1383961Y1806739D02*
X1479200Y1759120D01*
X1669676Y1759120D01*
X1764914Y1806739D01*
X1812533Y1901977D01*
X1812533Y2282929D01*
X1764914Y2378167D01*
X1669676Y2425786D01*
X1479200Y2425786D01*
X1383961Y2378167D01*
X1336342Y2282929D01*
X1336342Y2187691D01*
X1812533Y2092453D01*
X1003009Y2425786D02*
X764914Y1759120D01*
X526819Y2425786D01*
X145866Y1854358D02*
X98247Y1806739D01*
X145866Y1759120D01*
X193485Y1806739D01*
X145866Y1854358D01*
X145866Y1759120D01*
X-282705Y2663881D02*
X-330324Y2711500D01*
X-425562Y2759120D01*
X-663658Y2759120D01*
X-758896Y2711500D01*
X-806515Y2663881D01*
X-854134Y2568643D01*
X-854134Y2473405D01*
X-806515Y2330548D01*
X-235086Y1759120D01*
X-854134Y1759120D01*
D11*
G04 #@! TO.C,D2*
X-10620800Y-1553500D02*
G75*
G03X-10620800Y-1553500I-100000J0D01*
G01*
D12*
X-12876188Y760327D02*
X-13969543Y760327D01*
X-13969543Y486512D01*
X-13917478Y322223D01*
X-13813349Y212697D01*
X-13709220Y157934D01*
X-13500962Y103171D01*
X-13344768Y103171D01*
X-13136510Y157934D01*
X-13032381Y212697D01*
X-12928252Y322223D01*
X-12876188Y486512D01*
X-12876188Y760327D01*
X-13865413Y-334933D02*
X-13917478Y-389696D01*
X-13969543Y-499222D01*
X-13969543Y-773037D01*
X-13917478Y-882563D01*
X-13865413Y-937326D01*
X-13761284Y-992089D01*
X-13657155Y-992089D01*
X-13500962Y-937326D01*
X-12876188Y-280170D01*
X-12876188Y-992089D01*
G04 #@! TO.C,J1*
D13*
X8231580Y-3420166D02*
X8945866Y-3420166D01*
X9088723Y-3372547D01*
X9183961Y-3277309D01*
X9231580Y-3134452D01*
X9231580Y-3039214D01*
X9231580Y-4420166D02*
X9231580Y-3848738D01*
X9231580Y-4134452D02*
X8231580Y-4134452D01*
X8374438Y-4039214D01*
X8469676Y-3943976D01*
X8517295Y-3848738D01*
G04 #@! TD*
M02*
