M48
;DRILL file {KiCad (5.0.1)-4} date 11.04.2019 15:06:14
;FORMAT={-:-/ absolute / metric / decimal}
FMAT,2
METRIC,TZ
T1C0.200
T2C1.001
T3C1.100
%
G90
G05
M71
T1
X-11.191Y1.646
X-11.191Y-1.783
X-10.721Y-0.054
X-10.251Y1.646
X-4.971Y-7.488
X-3.371Y5.647
X-3.371Y3.296
X-3.371Y4.946
X-2.621Y1.212
X-1.398Y-3.311
X-1.232Y-1.078
X-0.671Y7.296
X0.079Y3.896
X0.229Y-3.838
X0.329Y0.397
X0.679Y-2.588
X0.829Y7.212
X1.029Y-6.838
X1.079Y0.411
X1.204Y-5.489
X1.809Y-2.685
X2.517Y1.511
X2.529Y6.296
X2.779Y-0.588
X3.02Y-4.358
X3.279Y-4.989
X3.829Y5.646
X4.629Y2.096
X4.629Y-2.054
X5.629Y4.511
X5.929Y-2.704
X6.029Y2.846
X7.879Y2.811
T3
X7.Y2.234
X7.Y-2.266
T2
X7.749Y5.684G85X6.25Y5.684
G05
X7.749Y-5.716G85X6.25Y-5.716
G05
T0
M30
